<svg xmlns="http://www.w3.org/2000/svg" viewBox="0 0 735.11 121.98"><defs><style>.a{fill:#4b4f54;}.b{fill:#fff;}.c{fill:#008acb;}</style></defs><title>bw_logo</title><path class="a" d="M164.93,30.9a18.57,18.57,0,0,1,5.44.76,12.38,12.38,0,0,1,4.33,2.28,10.27,10.27,0,0,1,2.86,3.81,13.21,13.21,0,0,1,1,5.34,14.29,14.29,0,0,1-.4,3.46,10.65,10.65,0,0,1-1.1,2.77,9,9,0,0,1-1.65,2.09,8.71,8.71,0,0,1-2.05,1.43,10.08,10.08,0,0,1,5,3.74A11.22,11.22,0,0,1,180,59.84a14.52,14.52,0,0,1,.59,4.21,13.83,13.83,0,0,1-1.08,5.6,10.68,10.68,0,0,1-3,4A12.77,12.77,0,0,1,172,75.95a18.82,18.82,0,0,1-5.53.78H147.77V30.9h17.15ZM153.35,50.81h12.44a9.4,9.4,0,0,0,2.84-.4,5.88,5.88,0,0,0,2.25-1.28,5.76,5.76,0,0,0,1.48-2.28,9.82,9.82,0,0,0,.53-3.4,8.31,8.31,0,0,0-.63-3.33,6.31,6.31,0,0,0-1.78-2.37,7.72,7.72,0,0,0-2.73-1.42,12.17,12.17,0,0,0-3.49-.47H153.35V50.81Zm0,21h12.5a12.87,12.87,0,0,0,3.47-.44,8.21,8.21,0,0,0,2.87-1.41,6.55,6.55,0,0,0,1.95-2.49,8.88,8.88,0,0,0,.72-3.68,9.16,9.16,0,0,0-.72-3.74,6.67,6.67,0,0,0-1.91-2.5,7.85,7.85,0,0,0-2.72-1.4,11.13,11.13,0,0,0-3.17-.44h-13V71.76Z"/><path class="a" d="M202.28,50.2a10.39,10.39,0,0,0-3.77.67,8.33,8.33,0,0,0-2.86,1.83,8,8,0,0,0-1.81,2.72,9,9,0,0,0-.63,3.36v18h-5.27V45.48h5.15V50.2a7.36,7.36,0,0,1,1.18-1.88,8.27,8.27,0,0,1,1.9-1.63,9.84,9.84,0,0,1,2.66-1.14,13.16,13.16,0,0,1,3.45-.43V50.2Z"/><path class="a" d="M215.31,34.21a3.34,3.34,0,0,1-.28,1.34,3.46,3.46,0,0,1-.76,1.09,3.54,3.54,0,0,1-1.11.73,3.5,3.5,0,0,1-1.35.27,3.58,3.58,0,0,1-1.37-.27,3.45,3.45,0,0,1-1.11-.73,3.4,3.4,0,0,1-1-2.43,3.49,3.49,0,1,1,7,0Zm-6.19,42.52V45.48h5.27V76.73h-5.27Z"/><path class="a" d="M247.89,50.63V45.48h5v33a16.24,16.24,0,0,1-1.08,6,12.58,12.58,0,0,1-3,4.53A13.32,13.32,0,0,1,244,91.91a18.12,18.12,0,0,1-6.11,1,20,20,0,0,1-5.89-.82,14,14,0,0,1-4.5-2.29,12.31,12.31,0,0,1-3.09-3.51,13.82,13.82,0,0,1-1.65-4.47l1.32,0,1.32,0,1.32,0,1.32,0a7.41,7.41,0,0,0,1.12,2.85,7.89,7.89,0,0,0,2.13,2.14A10,10,0,0,0,234.22,88a12.84,12.84,0,0,0,3.5.47,12.26,12.26,0,0,0,4-.62A8.69,8.69,0,0,0,244.84,86a8.14,8.14,0,0,0,2-3,11.09,11.09,0,0,0,.72-4.1v-6.8a8.85,8.85,0,0,1-1.68,2.09,10.79,10.79,0,0,1-2.41,1.67,13.17,13.17,0,0,1-3.06,1.11,16.14,16.14,0,0,1-3.64.4,15.91,15.91,0,0,1-6-1.12A13.75,13.75,0,0,1,226.05,73a14.67,14.67,0,0,1-3.17-5.11,20.6,20.6,0,0,1,0-13.57,14.63,14.63,0,0,1,3.17-5.09,13.77,13.77,0,0,1,4.78-3.2,15.93,15.93,0,0,1,6-1.11,15.74,15.74,0,0,1,3.73.43,13.16,13.16,0,0,1,3.15,1.2,11.18,11.18,0,0,1,2.48,1.81A9.55,9.55,0,0,1,247.89,50.63ZM227.06,61.16a14.59,14.59,0,0,0,.8,5,10.2,10.2,0,0,0,2.21,3.63A9.35,9.35,0,0,0,233.4,72a11.18,11.18,0,0,0,4.14.76,11.49,11.49,0,0,0,4-.67,8.81,8.81,0,0,0,3.18-2,9.11,9.11,0,0,0,2.1-3.33,13.32,13.32,0,0,0,.76-4.64V60.24a13.5,13.5,0,0,0-.76-4.67,9.15,9.15,0,0,0-2.1-3.35,8.78,8.78,0,0,0-3.18-2,11.47,11.47,0,0,0-4-.68,11.16,11.16,0,0,0-4.14.76,9.33,9.33,0,0,0-3.32,2.24,10.24,10.24,0,0,0-2.21,3.65A14.77,14.77,0,0,0,227.06,61.16Z"/><path class="a" d="M267.55,49.77a8.41,8.41,0,0,1,1.4-1.79A9.92,9.92,0,0,1,271,46.43a11.19,11.19,0,0,1,2.71-1.09,13.65,13.65,0,0,1,8.2.49,11,11,0,0,1,3.84,2.56,11.59,11.59,0,0,1,2.52,4,15.1,15.1,0,0,1,.9,5.31v19h-5.33V58.41a10.55,10.55,0,0,0-.57-3.54,7.76,7.76,0,0,0-1.61-2.7,7.06,7.06,0,0,0-2.5-1.73,8.41,8.41,0,0,0-3.23-.61,8.53,8.53,0,0,0-3.41.69,8,8,0,0,0-2.65,1.86,8.45,8.45,0,0,0-1.72,2.75,9.24,9.24,0,0,0-.61,3.34V76.73h-5.27V29.12h5.27V49.77Z"/><path class="a" d="M313.1,72.07v4.72l-.82.13-.94.12c-.34,0-.71.06-1.12.08s-.85,0-1.34,0a12.63,12.63,0,0,1-3.92-.57,8.06,8.06,0,0,1-3.05-1.76,7.76,7.76,0,0,1-2-3,12.53,12.53,0,0,1-.68-4.43l0-4.32,0-4.32,0-4.32,0-4.32H293.5V45.48h5.82l0-2.7,0-2.7,0-2.7,0-2.7h5.33l0,2.7,0,2.7,0,2.7,0,2.7H313v4.59h-8.39l0,4.06,0,4.06,0,4.06,0,4.06a8.54,8.54,0,0,0,.43,2.86A4.72,4.72,0,0,0,306.13,71a4.53,4.53,0,0,0,1.75,1,7,7,0,0,0,2.15.31c.32,0,.63,0,.92,0l.82-.08.72-.1Z"/><path class="a" d="M349.13,76.73,347,71.13l-2.1-5.59L342.83,60l-2.1-5.59L338.64,60l-2.1,5.59-2.1,5.59-2.1,5.59h-4.23l-3-7.81-3-7.81-3-7.81-3-7.81H322l2.1,5.67,2.1,5.67,2.1,5.67,2.1,5.67,2.11-5.67,2.11-5.67,2.11-5.67,2.11-5.67h3.74l2.13,5.67,2.13,5.67L349,62.48l2.13,5.67,2.11-5.67,2.11-5.67,2.11-5.67,2.11-5.67h5.7l-3,7.81-3,7.81-3,7.81-3,7.81h-4.23Z"/><path class="a" d="M400.16,61.1a18,18,0,0,1-1.23,6.72,14.73,14.73,0,0,1-8.49,8.37,18.15,18.15,0,0,1-12.67,0,14.73,14.73,0,0,1-8.48-8.37,18.93,18.93,0,0,1,0-13.44,14.73,14.73,0,0,1,3.39-5.09,14.94,14.94,0,0,1,5.09-3.23,18.29,18.29,0,0,1,12.67,0,14.94,14.94,0,0,1,5.09,3.23,14.73,14.73,0,0,1,3.39,5.09A17.92,17.92,0,0,1,400.16,61.1Zm-26.77,0a14,14,0,0,0,.82,4.89,10.5,10.5,0,0,0,2.26,3.66,9.78,9.78,0,0,0,3.4,2.29,11.69,11.69,0,0,0,8.47,0,9.78,9.78,0,0,0,3.4-2.29A10.5,10.5,0,0,0,394,66a15,15,0,0,0,0-9.78,10.39,10.39,0,0,0-2.26-3.64,9.75,9.75,0,0,0-3.4-2.27,11.82,11.82,0,0,0-8.47,0,9.76,9.76,0,0,0-3.4,2.27,10.39,10.39,0,0,0-2.26,3.64A14,14,0,0,0,373.39,61.1Z"/><path class="a" d="M437.9,61.1a18,18,0,0,1-1.23,6.72,14.73,14.73,0,0,1-8.49,8.37,18.15,18.15,0,0,1-12.67,0A14.73,14.73,0,0,1,407,67.83a18.93,18.93,0,0,1,0-13.44,14.73,14.73,0,0,1,3.39-5.09,14.94,14.94,0,0,1,5.09-3.23,18.29,18.29,0,0,1,12.67,0,14.94,14.94,0,0,1,5.09,3.23,14.73,14.73,0,0,1,3.39,5.09A17.92,17.92,0,0,1,437.9,61.1Zm-26.77,0a14,14,0,0,0,.82,4.89,10.5,10.5,0,0,0,2.26,3.66,9.78,9.78,0,0,0,3.4,2.29,11.69,11.69,0,0,0,8.47,0,9.79,9.79,0,0,0,3.4-2.29A10.5,10.5,0,0,0,431.74,66a14.95,14.95,0,0,0,0-9.78,10.39,10.39,0,0,0-2.26-3.64,9.76,9.76,0,0,0-3.4-2.27,11.82,11.82,0,0,0-8.47,0,9.76,9.76,0,0,0-3.4,2.27,10.39,10.39,0,0,0-2.26,3.64A14,14,0,0,0,411.12,61.1Z"/><path class="a" d="M469.94,76.73V71.64a9.56,9.56,0,0,1-1.73,2.26,11.18,11.18,0,0,1-2.48,1.81,13.15,13.15,0,0,1-3.15,1.2,15.74,15.74,0,0,1-3.73.43,15.93,15.93,0,0,1-6-1.11A13.77,13.77,0,0,1,448.09,73a14.63,14.63,0,0,1-3.17-5.09,20.61,20.61,0,0,1,0-13.57,14.67,14.67,0,0,1,3.17-5.11A13.75,13.75,0,0,1,452.87,46a15.91,15.91,0,0,1,6-1.12,16.14,16.14,0,0,1,3.64.4,13.17,13.17,0,0,1,3.06,1.11A10.79,10.79,0,0,1,468,48.11a8.85,8.85,0,0,1,1.68,2.09V29.12h5.27v47.6h-5ZM449.11,61.1a14.77,14.77,0,0,0,.8,5,10.24,10.24,0,0,0,2.21,3.65A9.33,9.33,0,0,0,455.44,72a11.16,11.16,0,0,0,4.14.76,11.47,11.47,0,0,0,4-.68,8.78,8.78,0,0,0,3.18-2,9.15,9.15,0,0,0,2.1-3.35,13.5,13.5,0,0,0,.76-4.67V60.18a13.32,13.32,0,0,0-.76-4.64,9.11,9.11,0,0,0-2.1-3.33,8.8,8.8,0,0,0-3.18-2,11.49,11.49,0,0,0-4-.67,11.18,11.18,0,0,0-4.14.76,9.35,9.35,0,0,0-3.32,2.23,10.2,10.2,0,0,0-2.21,3.63A14.59,14.59,0,0,0,449.11,61.1Z"/><path class="a" d="M541.67,47.26l-1.46.14-1.46.14-1.45.14-1.46.14a15.4,15.4,0,0,0-1.75-5.31,13.23,13.23,0,0,0-3.32-3.92,14.4,14.4,0,0,0-4.6-2.43,18.25,18.25,0,0,0-5.58-.83,17.6,17.6,0,0,0-6.7,1.25,14.69,14.69,0,0,0-5.25,3.63A16.47,16.47,0,0,0,505.22,46a23.64,23.64,0,0,0-1.22,7.8,23.33,23.33,0,0,0,1.29,8,16.26,16.26,0,0,0,3.54,5.8,14.94,14.94,0,0,0,5.31,3.55,17.85,17.85,0,0,0,6.59,1.2,18.72,18.72,0,0,0,5.48-.78,14.42,14.42,0,0,0,4.53-2.28A13.06,13.06,0,0,0,534,65.54a15.13,15.13,0,0,0,1.87-5.05l1.46.12,1.46.12,1.46.12,1.46.12a19.83,19.83,0,0,1-2.46,6.85A18.22,18.22,0,0,1,534.72,73a20.17,20.17,0,0,1-6.25,3.24,26.07,26.07,0,0,1-16.52-.46,20.49,20.49,0,0,1-7.17-4.6A20.87,20.87,0,0,1,500,63.77a27.68,27.68,0,0,1-1.72-10,28,28,0,0,1,1.7-10,20.79,20.79,0,0,1,4.7-7.39,20.21,20.21,0,0,1,7.12-4.6,24.94,24.94,0,0,1,9-1.58,24.55,24.55,0,0,1,7.62,1.17,20.38,20.38,0,0,1,6.35,3.36,18.29,18.29,0,0,1,4.59,5.34A19.55,19.55,0,0,1,541.67,47.26Z"/><path class="a" d="M578.95,61.1a18,18,0,0,1-1.23,6.72,14.73,14.73,0,0,1-8.49,8.37,18.15,18.15,0,0,1-12.67,0,14.73,14.73,0,0,1-8.48-8.37,18.93,18.93,0,0,1,0-13.44,14.73,14.73,0,0,1,3.39-5.09,14.94,14.94,0,0,1,5.09-3.23,18.29,18.29,0,0,1,12.67,0,14.94,14.94,0,0,1,5.09,3.23,14.73,14.73,0,0,1,3.39,5.09A17.92,17.92,0,0,1,578.95,61.1Zm-26.77,0A14,14,0,0,0,553,66a10.5,10.5,0,0,0,2.26,3.66,9.78,9.78,0,0,0,3.4,2.29,11.69,11.69,0,0,0,8.47,0,9.79,9.79,0,0,0,3.4-2.29A10.5,10.5,0,0,0,572.8,66a14.95,14.95,0,0,0,0-9.78,10.39,10.39,0,0,0-2.26-3.64,9.76,9.76,0,0,0-3.4-2.27,11.82,11.82,0,0,0-8.47,0,9.76,9.76,0,0,0-3.4,2.27A10.39,10.39,0,0,0,553,56.22,14,14,0,0,0,552.17,61.1Z"/><path class="a" d="M586,76.73V29.12h5.27v47.6H586Z"/><path class="a" d="M601.41,76.73V29.12h5.27v47.6h-5.27Z"/><path class="a" d="M620.4,63.12a11.82,11.82,0,0,0,.89,4,9.08,9.08,0,0,0,2.06,3,8.84,8.84,0,0,0,3,1.9,10.83,10.83,0,0,0,3.81.66,12.5,12.5,0,0,0,3.16-.38,8.8,8.8,0,0,0,2.55-1.1,7.19,7.19,0,0,0,1.89-1.75A7.47,7.47,0,0,0,639,67.17l1.32.08,1.32.08,1.32.08,1.32.08a11.67,11.67,0,0,1-1.7,3.92,12.55,12.55,0,0,1-3,3.13,14.24,14.24,0,0,1-4.14,2.07,16.8,16.8,0,0,1-5,.75,17.05,17.05,0,0,1-6.2-1.11,14,14,0,0,1-4.91-3.2,14.45,14.45,0,0,1-3.23-5.1,20.66,20.66,0,0,1,0-13.65,14.35,14.35,0,0,1,3.2-5.08A13.81,13.81,0,0,1,624.05,46a16.94,16.94,0,0,1,6.15-1.1,16,16,0,0,1,6,1.09,12.4,12.4,0,0,1,4.51,3.1,13.6,13.6,0,0,1,2.83,4.83,19.28,19.28,0,0,1,1,6.3v2.88H620.4Zm0-4.29h18.87a12.13,12.13,0,0,0-.64-3.76,8.4,8.4,0,0,0-1.74-2.95,7.67,7.67,0,0,0-2.83-1.92,10.55,10.55,0,0,0-3.92-.69,11.29,11.29,0,0,0-3.74.6,8.48,8.48,0,0,0-5.08,4.7A11.68,11.68,0,0,0,620.4,58.84Z"/><path class="a" d="M677.07,50.63V45.48h5v33a16.24,16.24,0,0,1-1.08,6,12.58,12.58,0,0,1-3,4.53,13.32,13.32,0,0,1-4.72,2.85,18.11,18.11,0,0,1-6.11,1,20,20,0,0,1-5.89-.82,14,14,0,0,1-4.5-2.29,12.3,12.3,0,0,1-3.09-3.51,13.82,13.82,0,0,1-1.65-4.47l1.32,0,1.32,0,1.32,0,1.32,0a7.41,7.41,0,0,0,1.12,2.85,7.89,7.89,0,0,0,2.13,2.14A10,10,0,0,0,663.39,88a12.84,12.84,0,0,0,3.5.47,12.26,12.26,0,0,0,4-.62A8.69,8.69,0,0,0,674,86a8.13,8.13,0,0,0,2-3,11.09,11.09,0,0,0,.72-4.1v-6.8a8.85,8.85,0,0,1-1.68,2.09,10.79,10.79,0,0,1-2.41,1.67,13.17,13.17,0,0,1-3.06,1.11,16.14,16.14,0,0,1-3.64.4,15.91,15.91,0,0,1-6-1.12A13.75,13.75,0,0,1,655.23,73a14.67,14.67,0,0,1-3.17-5.11,20.61,20.61,0,0,1,0-13.57,14.63,14.63,0,0,1,3.17-5.09A13.77,13.77,0,0,1,660,46a15.93,15.93,0,0,1,6-1.11,15.74,15.74,0,0,1,3.73.43,13.16,13.16,0,0,1,3.15,1.2,11.18,11.18,0,0,1,2.48,1.81A9.56,9.56,0,0,1,677.07,50.63ZM656.24,61.16a14.58,14.58,0,0,0,.8,5,10.2,10.2,0,0,0,2.21,3.63A9.35,9.35,0,0,0,662.57,72a11.17,11.17,0,0,0,4.14.76,11.49,11.49,0,0,0,4-.67,8.8,8.8,0,0,0,3.18-2,9.11,9.11,0,0,0,2.1-3.33,13.32,13.32,0,0,0,.76-4.64V60.24a13.5,13.5,0,0,0-.76-4.67,9.15,9.15,0,0,0-2.1-3.35,8.78,8.78,0,0,0-3.18-2,11.47,11.47,0,0,0-4-.68,11.15,11.15,0,0,0-4.14.76,9.33,9.33,0,0,0-3.32,2.24A10.24,10.24,0,0,0,657,56.17,14.77,14.77,0,0,0,656.24,61.16Z"/><path class="a" d="M695.33,63.12a11.82,11.82,0,0,0,.89,4,9.08,9.08,0,0,0,2.06,3,8.84,8.84,0,0,0,3,1.9,10.83,10.83,0,0,0,3.81.66,12.5,12.5,0,0,0,3.16-.38,8.8,8.8,0,0,0,2.55-1.1,7.19,7.19,0,0,0,1.89-1.75,7.47,7.47,0,0,0,1.16-2.34l1.32.08,1.32.08,1.32.08,1.32.08a11.67,11.67,0,0,1-1.7,3.92,12.55,12.55,0,0,1-3,3.13,14.24,14.24,0,0,1-4.14,2.07,16.8,16.8,0,0,1-5,.75,17.05,17.05,0,0,1-6.2-1.11,14,14,0,0,1-4.91-3.2,14.45,14.45,0,0,1-3.23-5.1,20.66,20.66,0,0,1,0-13.65,14.35,14.35,0,0,1,3.2-5.08A13.81,13.81,0,0,1,699,46a16.94,16.94,0,0,1,6.15-1.1,16,16,0,0,1,6,1.09,12.4,12.4,0,0,1,4.51,3.1,13.6,13.6,0,0,1,2.83,4.83,19.28,19.28,0,0,1,1,6.3v2.88H695.33Zm0-4.29H714.2a12.13,12.13,0,0,0-.64-3.76,8.4,8.4,0,0,0-1.74-2.95A7.67,7.67,0,0,0,709,50.21a10.55,10.55,0,0,0-3.92-.69,11.29,11.29,0,0,0-3.74.6,8.48,8.48,0,0,0-5.08,4.7A11.68,11.68,0,0,0,695.33,58.84Z"/><path class="b" d="M102.76,14.73l-2-.92-1.5-.69-1.5-.69A105.29,105.29,0,0,0,84.1,7.49,110.68,110.68,0,0,0,53.62,2.85,110.68,110.68,0,0,0,23.14,7.49,105.32,105.32,0,0,0,9.46,12.43L8,13.12l-1.49.69-2,.92-2,.92V63A48.24,48.24,0,0,0,8.67,86.86a60.07,60.07,0,0,0,18,19.46l1.55,1.07,1.56,1a86.07,86.07,0,0,0,11.54,6.28c3.17,1.42,5.44,2.21,6.17,2.44l3.58,1.18,1,.34,1.48.48,1.48-.48,1-.34,1.79-.59,1.79-.59c.72-.24,3-1,6.16-2.44a85.63,85.63,0,0,0,11.5-6.26l1.6-1,1.54-1.07a60.06,60.06,0,0,0,18-19.45A48.24,48.24,0,0,0,104.74,63V15.65Z"/><path class="c" d="M105.16,12.47l-2.08-1-1.57-.73L99.95,10A110.47,110.47,0,0,0,85.6,4.87,116.11,116.11,0,0,0,53.62,0a116.11,116.11,0,0,0-32,4.87A110.47,110.47,0,0,0,7.29,10l-1.57.73-1.57.73-2.08,1L0,13.43v49.7a50.6,50.6,0,0,0,6.47,25A63,63,0,0,0,25.4,108.54L27,109.66l1.63,1.07a90.28,90.28,0,0,0,12.1,6.59c3.32,1.49,5.71,2.31,6.47,2.56l1.88.62,1.88.62,1.09.36,1.56.51,1.56-.51,1.08-.36,1.88-.62,1.88-.62c.76-.25,3.14-1.07,6.46-2.56a89.83,89.83,0,0,0,12.07-6.57l1.68-1.1q.83-.56,1.62-1.12a63,63,0,0,0,18.93-20.41,50.6,50.6,0,0,0,6.47-25V13.43Zm-2.85,27.39V63.13a45.74,45.74,0,0,1-5.94,22.73A58.15,58.15,0,0,1,79,104.52l-1.53,1.06-1.59,1a84.62,84.62,0,0,1-11.35,6.19,64.72,64.72,0,0,1-6,2.4l-2.21.73-2.63.84L51,115.93l-2.22-.73a64.68,64.68,0,0,1-6.05-2.4,85.25,85.25,0,0,1-11.4-6.22l-1.53-1-1.53-1.05A58.17,58.17,0,0,1,10.87,85.86,45.74,45.74,0,0,1,4.93,63.13V16.58l2.22-1,2.22-1A105.53,105.53,0,0,1,23.07,9.58,111,111,0,0,1,53.62,4.93,111,111,0,0,1,84.18,9.58a105.32,105.32,0,0,1,13.7,4.94l2.22,1,2.22,1ZM96,18.59a100.66,100.66,0,0,0-13.11-4.73A106.31,106.31,0,0,0,53.62,9.41a106.32,106.32,0,0,0-29.25,4.45,100.82,100.82,0,0,0-13.12,4.73l-.92.43-.92.43V63.13a41.33,41.33,0,0,0,5.46,20.66,53.77,53.77,0,0,0,16,17.07l1.44,1,1.46,1a80.89,80.89,0,0,0,10.75,5.88,60.07,60.07,0,0,0,5.68,2.26l1.54.51,1.54.51.37.11L54,112l1.54-.51,1.54-.51a60.22,60.22,0,0,0,5.67-2.25,80.2,80.2,0,0,0,10.7-5.84l1.52-1,1.44-1a53.77,53.77,0,0,0,16-17.07,41.33,41.33,0,0,0,5.46-20.66V19.44L96.91,19Zm-12.31,20L73.19,48.72a20.82,20.82,0,0,0-3.55-6.14ZM71,25.86l-4,14a20.82,20.82,0,0,0-6.14-3.55ZM53.62,21.21l3.55,14.16a21,21,0,0,0-7.09,0ZM46.42,36.35a20.82,20.82,0,0,0-6.14,3.55l-4-14ZM37.6,42.58a20.82,20.82,0,0,0-3.55,6.14L23.56,38.57ZM18.91,55.92l14.16-3.55a21,21,0,0,0,0,7.09Zm4.65,17.36L34.05,63.13a20.82,20.82,0,0,0,3.55,6.14h0ZM36.27,86l4-14a20.82,20.82,0,0,0,6.14,3.55Zm19.29-12.6q0,1.41.12,2.86c.12,2.2.28,4.32.47,6.34s.42,3.92.67,5.68H50.43c.25-1.76.48-3.67.67-5.68s.35-4.14.47-6.34q.08-1.45.12-2.86t.06-2.79a14.73,14.73,0,1,1,3.73,0Q55.51,72,55.55,73.38Zm5.28,2.11A20.82,20.82,0,0,0,67,71.94l4,14Zm8.81-6.23a20.82,20.82,0,0,0,3.55-6.14L83.68,73.28Zm4.53-9.8a21,21,0,0,0,0-7.09l14.16,3.55Z"/><path class="a" d="M735.11,72.08a4.83,4.83,0,1,1-4.81-4.68A4.67,4.67,0,0,1,735.11,72.08Zm-.67,0a4.17,4.17,0,1,0-4.16,4.07A4,4,0,0,0,734.44,72.08Zm-3,.48,1.22,2.35h-1l-1.15-2.2h-1.28v2.2h-.91V69.24h2.3a1.76,1.76,0,0,1,.82,3.31Zm-1.06-.61a.92.92,0,0,0,1.06-1c0-.7-.48-1-1.06-1h-1.15v1.94Z"/></svg>