<svg xmlns="http://www.w3.org/2000/svg" viewBox="0 0 336 55.76"><defs><style>.a{fill:#4a4f54;}.b{fill:#fff;}.c{fill:#008acb;}</style></defs><title>bw_logo</title><path class="a" d="M75.38,14.12a8.51,8.51,0,0,1,2.49.35,5.67,5.67,0,0,1,2,1,4.82,4.82,0,0,1,1.31,1.74,6.15,6.15,0,0,1,.47,2.45,7,7,0,0,1-.18,1.58,4.75,4.75,0,0,1-.51,1.26,3.92,3.92,0,0,1-1.69,1.61,4.61,4.61,0,0,1,1.24.65,4.41,4.41,0,0,1,1.05,1.06,5,5,0,0,1,.72,1.49,6.69,6.69,0,0,1,.27,1.92,6.28,6.28,0,0,1-.5,2.56,4.84,4.84,0,0,1-1.36,1.81,5.64,5.64,0,0,1-2,1.07,8.5,8.5,0,0,1-2.53.36H67.54v-21h7.84Zm-5.29,9.1h5.69a4.17,4.17,0,0,0,1.3-.18,2.52,2.52,0,0,0,1-.58,2.65,2.65,0,0,0,.68-1A4.47,4.47,0,0,0,79,19.86a3.92,3.92,0,0,0-.29-1.52,2.85,2.85,0,0,0-.82-1.08,3.46,3.46,0,0,0-1.25-.65,5.27,5.27,0,0,0-1.59-.22h-5v6.83Zm0,9.58H75.8a5.82,5.82,0,0,0,1.59-.2A3.66,3.66,0,0,0,78.7,32a2.93,2.93,0,0,0,.89-1.13,4.1,4.1,0,0,0,.33-1.69,4.17,4.17,0,0,0-.33-1.71,3,3,0,0,0-.87-1.14,3.41,3.41,0,0,0-1.24-.64,5,5,0,0,0-1.45-.2H70.09V32.8Z"/><path class="a" d="M92.46,22.94a4.63,4.63,0,0,0-1.72.31,3.91,3.91,0,0,0-1.31.83,3.74,3.74,0,0,0-.83,1.25,4.08,4.08,0,0,0-.29,1.53v8.21h-2.4V20.79h2.35v2.15a3.23,3.23,0,0,1,.54-.86,3.77,3.77,0,0,1,.87-.74,4.17,4.17,0,0,1,1.21-.52,5.88,5.88,0,0,1,1.58-.2v2.32Z"/><path class="a" d="M98.41,15.64a1.58,1.58,0,0,1-.12.61,1.69,1.69,0,0,1-.35.49,1.47,1.47,0,0,1-.51.34,1.58,1.58,0,0,1-.61.12,1.61,1.61,0,0,1-.63-.12,1.57,1.57,0,0,1-.51-.34,1.66,1.66,0,0,1-.34-.49,1.58,1.58,0,0,1-.12-.61,1.64,1.64,0,0,1,.47-1.14,1.75,1.75,0,0,1,.51-.34,1.64,1.64,0,0,1,1.23,0,1.63,1.63,0,0,1,.51.34,1.65,1.65,0,0,1,.35.51A1.61,1.61,0,0,1,98.41,15.64ZM95.58,35.07V20.79H98V35.07H95.58Z"/><path class="a" d="M113.31,23.14V20.79h2.26V35.88a7.41,7.41,0,0,1-.49,2.75,5.64,5.64,0,0,1-1.39,2.07A6.05,6.05,0,0,1,111.53,42a8.21,8.21,0,0,1-2.79.45,9.25,9.25,0,0,1-2.69-.37A6.56,6.56,0,0,1,104,41a5.65,5.65,0,0,1-1.41-1.6,6.63,6.63,0,0,1-.76-2l.61,0,.6,0,.6,0,.6,0a3.39,3.39,0,0,0,.52,1.3,3.62,3.62,0,0,0,1,1,4.44,4.44,0,0,0,1.34.61,5.84,5.84,0,0,0,1.6.22,5.51,5.51,0,0,0,1.82-.29,4,4,0,0,0,1.43-.84,3.7,3.7,0,0,0,.93-1.37,5.12,5.12,0,0,0,.33-1.87V32.94a4.33,4.33,0,0,1-.77,1,5,5,0,0,1-1.1.76,6.43,6.43,0,0,1-1.4.51,7.89,7.89,0,0,1-1.66.18,7.37,7.37,0,0,1-2.73-.51,6.4,6.4,0,0,1-2.19-1.47A6.82,6.82,0,0,1,101.87,31a8.93,8.93,0,0,1-.52-3.11,8.74,8.74,0,0,1,.52-3.09,6.82,6.82,0,0,1,1.45-2.33A6.4,6.4,0,0,1,105.51,21a7.36,7.36,0,0,1,2.73-.5,7.56,7.56,0,0,1,1.7.19,6.15,6.15,0,0,1,1.44.55,4.78,4.78,0,0,1,1.13.83A4.33,4.33,0,0,1,113.31,23.14ZM103.79,28a6.54,6.54,0,0,0,.36,2.26,4.6,4.6,0,0,0,1,1.66,4.24,4.24,0,0,0,1.52,1,5.41,5.41,0,0,0,3.72,0,3.9,3.9,0,0,0,1.46-.92,4.29,4.29,0,0,0,1-1.52,6.23,6.23,0,0,0,.35-2.12v-.84a6.27,6.27,0,0,0-.35-2.14,4.25,4.25,0,0,0-1-1.53,4.05,4.05,0,0,0-1.46-.93,5.36,5.36,0,0,0-1.83-.3,5.08,5.08,0,0,0-1.89.34,4.24,4.24,0,0,0-1.52,1,4.73,4.73,0,0,0-1,1.67A6.71,6.71,0,0,0,103.79,28Z"/><path class="a" d="M122.29,22.75a3.66,3.66,0,0,1,.64-.82,4.63,4.63,0,0,1,.94-.71,5.35,5.35,0,0,1,1.24-.5,6,6,0,0,1,1.52-.18,5.93,5.93,0,0,1,2.22.41,4.89,4.89,0,0,1,1.76,1.17A5.32,5.32,0,0,1,131.76,24a6.88,6.88,0,0,1,.41,2.43v8.68h-2.43V26.7a4.83,4.83,0,0,0-.26-1.62,3.5,3.5,0,0,0-.74-1.24,3.38,3.38,0,0,0-1.14-.79,4.11,4.11,0,0,0-3,0,3.49,3.49,0,0,0-1.21.85,3.84,3.84,0,0,0-.79,1.26,4.23,4.23,0,0,0-.28,1.52v8.35h-2.41V13.31h2.41v9.44Z"/><path class="a" d="M143.11,32.94V35.1l-.38.06-.43.05-.51,0h-.61a6,6,0,0,1-1.79-.25,3.82,3.82,0,0,1-1.4-.81,3.68,3.68,0,0,1-.9-1.39,5.86,5.86,0,0,1-.31-2V22.89h-2.66v-2.1h2.66V15.86h2.43v4.93h3.83v2.1h-3.83l0,1.85V26.6l0,1.85v1.86a3.84,3.84,0,0,0,.2,1.31,2.11,2.11,0,0,0,.54.85,2,2,0,0,0,.8.47,3.1,3.1,0,0,0,1,.14h.42l.38,0,.32,0Z"/><path class="a" d="M159.58,35.07l-1-2.56-1-2.55-1-2.56-1-2.55-1,2.55-1,2.56-1,2.55-1,2.56H150l-1.36-3.57-1.35-3.57-1.36-3.57-1.36-3.57h2.63l1,2.59,1,2.59,1,2.59,1,2.59,1-2.59,1-2.59,1-2.59,1-2.59h1.71l1,2.59,1,2.59,1,2.59,1,2.59,1-2.59,1-2.59,1-2.59,1-2.59h2.6l-1.36,3.57-1.35,3.57-1.36,3.57-1.36,3.57h-1.93Z"/><path class="a" d="M182.9,27.93a8.31,8.31,0,0,1-.56,3.07,6.65,6.65,0,0,1-1.55,2.34,6.94,6.94,0,0,1-2.33,1.49,8.32,8.32,0,0,1-5.79,0A6.73,6.73,0,0,1,168.79,31a8.7,8.7,0,0,1,0-6.14,6.7,6.7,0,0,1,3.88-3.81,8.47,8.47,0,0,1,5.79,0,6.91,6.91,0,0,1,2.33,1.48,6.61,6.61,0,0,1,1.55,2.33A8.27,8.27,0,0,1,182.9,27.93Zm-12.23,0a6.53,6.53,0,0,0,.37,2.24,4.82,4.82,0,0,0,1,1.67,4.58,4.58,0,0,0,1.55,1.05,5.38,5.38,0,0,0,3.87,0,4.62,4.62,0,0,0,1.56-1.05,4.8,4.8,0,0,0,1-1.67,6.53,6.53,0,0,0,.38-2.24,6.43,6.43,0,0,0-.38-2.23,4.71,4.71,0,0,0-1-1.67,4.59,4.59,0,0,0-1.56-1,5.52,5.52,0,0,0-3.87,0,4.55,4.55,0,0,0-1.55,1,4.73,4.73,0,0,0-1,1.67A6.43,6.43,0,0,0,170.67,27.93Z"/><path class="a" d="M200.15,27.93a8.31,8.31,0,0,1-.56,3.07A6.79,6.79,0,0,1,198,33.34a6.94,6.94,0,0,1-2.33,1.49,8.32,8.32,0,0,1-5.79,0,6.94,6.94,0,0,1-2.33-1.49A6.79,6.79,0,0,1,186,31a8.7,8.7,0,0,1,0-6.14,6.75,6.75,0,0,1,1.55-2.33,6.91,6.91,0,0,1,2.33-1.48,8.47,8.47,0,0,1,5.79,0A6.91,6.91,0,0,1,198,22.53a6.75,6.75,0,0,1,1.55,2.33A8.27,8.27,0,0,1,200.15,27.93Zm-12.24,0a6.53,6.53,0,0,0,.38,2.24,5,5,0,0,0,1,1.67,4.62,4.62,0,0,0,1.56,1.05,5.38,5.38,0,0,0,3.87,0,4.48,4.48,0,0,0,1.55-1.05,4.82,4.82,0,0,0,1-1.67,6.53,6.53,0,0,0,.38-2.24,6.43,6.43,0,0,0-.38-2.23,4.73,4.73,0,0,0-1-1.67,4.46,4.46,0,0,0-1.55-1,5.52,5.52,0,0,0-3.87,0,4.59,4.59,0,0,0-1.56,1,4.86,4.86,0,0,0-1,1.67A6.43,6.43,0,0,0,187.91,27.93Z"/><path class="a" d="M214.8,35.07V32.74a4.38,4.38,0,0,1-.8,1,5,5,0,0,1-1.13.82,5.74,5.74,0,0,1-1.44.55,7,7,0,0,1-1.7.2,7.37,7.37,0,0,1-2.73-.51,6.26,6.26,0,0,1-2.19-1.47,6.68,6.68,0,0,1-1.45-2.32,9.5,9.5,0,0,1,0-6.2,6.86,6.86,0,0,1,1.45-2.34A6.24,6.24,0,0,1,207,21.05a7.17,7.17,0,0,1,2.73-.51,7.28,7.28,0,0,1,1.66.18,6,6,0,0,1,1.4.51,4.66,4.66,0,0,1,1.1.76,4.28,4.28,0,0,1,.77,1V13.31h2.4V35.07H214.8Zm-9.53-7.14a6.65,6.65,0,0,0,.37,2.28,4.73,4.73,0,0,0,1,1.67,4.24,4.24,0,0,0,1.52,1,5.41,5.41,0,0,0,3.72,0,4,4,0,0,0,1.46-.92,4.21,4.21,0,0,0,1-1.54,6.25,6.25,0,0,0,.35-2.13v-.84a6.19,6.19,0,0,0-.35-2.12,4.25,4.25,0,0,0-1-1.53,4.17,4.17,0,0,0-1.46-.92,5.36,5.36,0,0,0-1.83-.3,5.08,5.08,0,0,0-1.89.34,4.24,4.24,0,0,0-1.52,1,4.68,4.68,0,0,0-1,1.66A6.59,6.59,0,0,0,205.27,27.93Z"/><path class="a" d="M247.58,21.6l-.66.06-.67.07-.66.06-.67.06a6.89,6.89,0,0,0-.8-2.43,6.11,6.11,0,0,0-1.52-1.79,6.4,6.4,0,0,0-2.1-1.11,8.36,8.36,0,0,0-2.55-.38,8.17,8.17,0,0,0-3.06.57,6.81,6.81,0,0,0-2.4,1.66A7.72,7.72,0,0,0,230.92,21a10.92,10.92,0,0,0-.56,3.57,10.62,10.62,0,0,0,.59,3.63,7.35,7.35,0,0,0,1.62,2.65A6.7,6.7,0,0,0,235,32.5a8.07,8.07,0,0,0,3,.55,8.68,8.68,0,0,0,2.5-.35,6.62,6.62,0,0,0,2.07-1.05A5.86,5.86,0,0,0,244.1,30a6.91,6.91,0,0,0,.85-2.31l.67.05.66.06.67.06.66.05A9,9,0,0,1,246.49,31a8.38,8.38,0,0,1-2.08,2.35,9,9,0,0,1-2.86,1.48,11.35,11.35,0,0,1-3.46.52,11.52,11.52,0,0,1-4.09-.72,9.34,9.34,0,0,1-3.28-2.11,9.55,9.55,0,0,1-2.17-3.37,12.65,12.65,0,0,1-.79-4.55,12.79,12.79,0,0,1,.77-4.55,9.69,9.69,0,0,1,2.15-3.38,9.19,9.19,0,0,1,3.26-2.1,11.69,11.69,0,0,1,7.58-.19,9.39,9.39,0,0,1,2.9,1.54,8.21,8.21,0,0,1,2.09,2.44A8.91,8.91,0,0,1,247.58,21.6Z"/><path class="a" d="M264.62,27.93a8.31,8.31,0,0,1-.56,3.07,6.79,6.79,0,0,1-1.55,2.34,6.94,6.94,0,0,1-2.33,1.49,8.32,8.32,0,0,1-5.79,0,6.94,6.94,0,0,1-2.33-1.49A6.79,6.79,0,0,1,250.51,31a8.7,8.7,0,0,1,0-6.14,6.75,6.75,0,0,1,1.55-2.33,6.91,6.91,0,0,1,2.33-1.48,8.47,8.47,0,0,1,5.79,0,6.91,6.91,0,0,1,2.33,1.48,6.75,6.75,0,0,1,1.55,2.33A8.27,8.27,0,0,1,264.62,27.93Zm-12.24,0a6.53,6.53,0,0,0,.38,2.24,4.82,4.82,0,0,0,1,1.67,4.48,4.48,0,0,0,1.55,1.05,5.38,5.38,0,0,0,3.87,0,4.62,4.62,0,0,0,1.56-1.05,5,5,0,0,0,1-1.67,6.53,6.53,0,0,0,.38-2.24,6.43,6.43,0,0,0-.38-2.23,4.86,4.86,0,0,0-1-1.67,4.59,4.59,0,0,0-1.56-1,5.52,5.52,0,0,0-3.87,0,4.46,4.46,0,0,0-1.55,1,4.73,4.73,0,0,0-1,1.67A6.43,6.43,0,0,0,252.38,27.93Z"/><path class="a" d="M267.83,35.07V13.31h2.41V35.07h-2.41Z"/><path class="a" d="M274.89,35.07V13.31h2.41V35.07h-2.41Z"/><path class="a" d="M283.57,28.85a5.29,5.29,0,0,0,.4,1.85,4.1,4.1,0,0,0,.95,1.38,4,4,0,0,0,1.39.87,4.85,4.85,0,0,0,1.74.3,5.86,5.86,0,0,0,1.44-.17,4.15,4.15,0,0,0,1.17-.51,3.13,3.13,0,0,0,.86-.8,3.07,3.07,0,0,0,.53-1.07l.61,0,.6,0,.6,0,.6,0a5.28,5.28,0,0,1-.77,1.79,5.72,5.72,0,0,1-1.39,1.43,6.45,6.45,0,0,1-1.89.95,8.07,8.07,0,0,1-5.14-.17A6.35,6.35,0,0,1,283,33.38a6.73,6.73,0,0,1-1.48-2.33,9.45,9.45,0,0,1,0-6.24A6.56,6.56,0,0,1,283,22.49,6.42,6.42,0,0,1,285.24,21a7.72,7.72,0,0,1,2.81-.5,7.45,7.45,0,0,1,2.75.49,5.76,5.76,0,0,1,2.06,1.42,6.14,6.14,0,0,1,1.29,2.21,8.66,8.66,0,0,1,.45,2.88v1.31h-11Zm0-2h8.62a5.42,5.42,0,0,0-.29-1.71,3.94,3.94,0,0,0-.79-1.35,3.41,3.41,0,0,0-1.3-.88,4.89,4.89,0,0,0-1.79-.31,5.24,5.24,0,0,0-1.71.27,4.15,4.15,0,0,0-1.38.81,4,4,0,0,0-.94,1.34A5.35,5.35,0,0,0,283.57,26.89Z"/><path class="a" d="M309.47,23.14V20.79h2.27V35.88a7.41,7.41,0,0,1-.49,2.75,5.9,5.9,0,0,1-1.39,2.07A6.14,6.14,0,0,1,307.7,42a8.21,8.21,0,0,1-2.79.45,9.33,9.33,0,0,1-2.7-.37,6.5,6.5,0,0,1-2-1.05,5.68,5.68,0,0,1-1.42-1.6,6.37,6.37,0,0,1-.75-2l.6,0,.6,0,.61,0,.6,0a3.37,3.37,0,0,0,.51,1.3,3.52,3.52,0,0,0,1,1,4.49,4.49,0,0,0,1.33.61,5.89,5.89,0,0,0,1.6.22,5.57,5.57,0,0,0,1.83-.29,3.88,3.88,0,0,0,1.42-.84,3.59,3.59,0,0,0,.93-1.37,5.12,5.12,0,0,0,.33-1.87V32.94a4.06,4.06,0,0,1-.77,1,5,5,0,0,1-1.1.76,6.16,6.16,0,0,1-1.39.51,8,8,0,0,1-1.67.18,7.37,7.37,0,0,1-2.73-.51,6.27,6.27,0,0,1-2.18-1.47A6.67,6.67,0,0,1,298,31a8.93,8.93,0,0,1-.53-3.11,8.74,8.74,0,0,1,.53-3.09,6.67,6.67,0,0,1,1.45-2.33A6.27,6.27,0,0,1,301.67,21a7.36,7.36,0,0,1,2.73-.5,7.72,7.72,0,0,1,1.71.19,6.51,6.51,0,0,1,1.44.55,4.78,4.78,0,0,1,1.13.83A4.29,4.29,0,0,1,309.47,23.14ZM300,28a6.53,6.53,0,0,0,.37,2.26,4.46,4.46,0,0,0,1,1.66,4.21,4.21,0,0,0,1.51,1,5.44,5.44,0,0,0,3.73,0A3.94,3.94,0,0,0,308,32a4.16,4.16,0,0,0,1-1.52,6,6,0,0,0,.35-2.12v-.84A6,6,0,0,0,309,25.4a4,4,0,0,0-2.41-2.46,5.4,5.4,0,0,0-1.83-.3,5.13,5.13,0,0,0-1.9.34,4.21,4.21,0,0,0-1.51,1,4.59,4.59,0,0,0-1,1.67A6.71,6.71,0,0,0,300,28Z"/><path class="a" d="M317.82,28.85a5.29,5.29,0,0,0,.4,1.85,4.1,4.1,0,0,0,.95,1.38,4,4,0,0,0,1.39.87,4.85,4.85,0,0,0,1.74.3,5.8,5.8,0,0,0,1.44-.17,4.15,4.15,0,0,0,1.17-.51,3.13,3.13,0,0,0,.86-.8,3.07,3.07,0,0,0,.53-1.07l.61,0,.6,0,.6,0,.6,0a5.28,5.28,0,0,1-.77,1.79,5.72,5.72,0,0,1-1.39,1.43,6.45,6.45,0,0,1-1.89.95,8.07,8.07,0,0,1-5.14-.17,6.35,6.35,0,0,1-2.24-1.46,6.73,6.73,0,0,1-1.48-2.33,9.45,9.45,0,0,1,0-6.24,6.56,6.56,0,0,1,1.46-2.32A6.42,6.42,0,0,1,319.49,21a7.75,7.75,0,0,1,2.81-.5,7.45,7.45,0,0,1,2.75.49,5.76,5.76,0,0,1,2.06,1.42,6.14,6.14,0,0,1,1.29,2.21,8.66,8.66,0,0,1,.45,2.88v1.31h-11Zm0-2h8.62a5.42,5.42,0,0,0-.29-1.71,3.94,3.94,0,0,0-.79-1.35,3.41,3.41,0,0,0-1.3-.88,4.89,4.89,0,0,0-1.79-.31,5.24,5.24,0,0,0-1.71.27,4.15,4.15,0,0,0-1.38.81,4,4,0,0,0-.94,1.34A5.35,5.35,0,0,0,317.82,26.89Z"/><path class="b" d="M47,6.73l-.91-.42L45.38,6l-.69-.32a47.87,47.87,0,0,0-6.25-2.25A50.27,50.27,0,0,0,24.51,1.3,50.27,50.27,0,0,0,10.58,3.43,49.08,49.08,0,0,0,4.32,5.68L3.64,6,3,6.31l-.91.42-.9.42V28.81A22,22,0,0,0,4,39.7a27.57,27.57,0,0,0,8.25,8.9l.71.48.71.47a39.15,39.15,0,0,0,5.28,2.87c1.44.65,2.48,1,2.81,1.12l1.64.54.47.15.68.22.68-.22.47-.15.82-.27.81-.27c.33-.11,1.37-.47,2.82-1.12a39.4,39.4,0,0,0,5.26-2.86l.73-.48c.24-.16.48-.32.71-.49a27.3,27.3,0,0,0,8.24-8.89,22,22,0,0,0,2.82-10.89V7.15Z"/><path class="c" d="M48.07,5.7l-1-.44-.72-.34-.72-.33a50.3,50.3,0,0,0-6.55-2.36A52.91,52.91,0,0,0,24.51,0,52.91,52.91,0,0,0,9.89,2.23,51.51,51.51,0,0,0,3.33,4.59l-.71.34-.72.33L1,5.7,0,6.14V28.86A23,23,0,0,0,3,40.28a28.6,28.6,0,0,0,8.65,9.33c.25.18.49.35.74.51l.75.49a40.79,40.79,0,0,0,5.53,3c1.52.69,2.61,1.06,3,1.18l.85.28.86.28.5.17.71.23.71-.23.5-.17.85-.28.86-.28c.35-.12,1.44-.49,2.95-1.17a41.08,41.08,0,0,0,5.52-3l.77-.51.74-.51a28.7,28.7,0,0,0,8.65-9.33,23.14,23.14,0,0,0,3-11.42V6.14ZM46.76,18.22V28.86a20.91,20.91,0,0,1-2.71,10.38,26.41,26.41,0,0,1-7.95,8.53l-.69.49-.73.47a39.13,39.13,0,0,1-5.19,2.83c-1.42.64-2.44,1-2.76,1.1l-1,.33-1.2.39L23.3,53l-1-.33c-.32-.11-1.34-.46-2.77-1.1a39.72,39.72,0,0,1-5.21-2.85l-.7-.45-.69-.49A26.41,26.41,0,0,1,5,39.24,20.92,20.92,0,0,1,2.25,28.86V7.58l1-.47,1-.47a47.32,47.32,0,0,1,6.27-2.26,50.37,50.37,0,0,1,14-2.13,50.37,50.37,0,0,1,14,2.13,48,48,0,0,1,6.27,2.26l1,.47,1,.47ZM43.87,8.5a43.74,43.74,0,0,0-6-2.16,48.47,48.47,0,0,0-13.37-2,48.47,48.47,0,0,0-13.37,2,44.85,44.85,0,0,0-6,2.16l-.42.19-.42.2v20A18.88,18.88,0,0,0,6.8,38.3a24.6,24.6,0,0,0,7.3,7.8c.21.15.43.31.66.46l.66.43a38.07,38.07,0,0,0,4.92,2.69c1.34.6,2.29.93,2.59,1l.7.23.71.23.17,0,.17,0,.7-.23.7-.23a27.65,27.65,0,0,0,2.6-1A37.53,37.53,0,0,0,33.57,47l.69-.45c.23-.15.44-.31.66-.46a24.6,24.6,0,0,0,7.3-7.8,18.88,18.88,0,0,0,2.5-9.44v-20l-.42-.2Zm-5.62,9.13-4.8,4.64a9.59,9.59,0,0,0-1.62-2.81Zm-5.81-5.81-1.83,6.42a9.59,9.59,0,0,0-2.81-1.62ZM24.51,9.7l1.62,6.47a9.44,9.44,0,0,0-3.24,0Zm-3.29,6.92a9.59,9.59,0,0,0-2.81,1.62l-1.83-6.42Zm-4,2.84a9.61,9.61,0,0,0-1.63,2.81l-4.79-4.64Zm-8.55,6.1,6.48-1.62a9.44,9.44,0,0,0,0,3.24Zm2.13,7.93,4.79-4.64a9.61,9.61,0,0,0,1.63,2.81h0Zm5.81,5.81,1.83-6.42a9.37,9.37,0,0,0,2.81,1.62Zm8.81-5.76c0,.43,0,.86.06,1.31.05,1,.12,2,.21,2.89s.19,1.8.31,2.6H23.05c.12-.8.22-1.68.31-2.6s.16-1.89.21-2.89c0-.45,0-.88.06-1.31l0-1.28a6.74,6.74,0,1,1,1.7,0Zm2.41,1a9.37,9.37,0,0,0,2.81-1.62l1.83,6.42Zm4-2.84a9.59,9.59,0,0,0,1.62-2.81l4.8,4.64Zm2.07-4.48a9.44,9.44,0,0,0,0-3.24l6.47,1.62Z"/><path class="a" d="M336,32.94a2.21,2.21,0,1,1-2.2-2.14A2.14,2.14,0,0,1,336,32.94Zm-.3,0a1.91,1.91,0,0,0-3.81,0,1.91,1.91,0,0,0,3.81,0Zm-1.38.22.55,1.08h-.45l-.53-1h-.58v1h-.42V31.65h1.05a.74.74,0,0,1,.8.79A.73.73,0,0,1,334.32,33.16Zm-.49-.28c.27,0,.49-.11.49-.44s-.22-.44-.49-.44h-.52v.88Z"/></svg>