<svg xmlns="http://www.w3.org/2000/svg" viewBox="0 0 200 118"><defs><style>.a,.b,.c{fill:#fff;}.b{stroke:#fff;stroke-miterlimit:3.86;stroke-width:0.5px;}.c{fill-rule:evenodd;}</style></defs><title>culinard-full-logo-white</title><path class="a" d="M80.86,56.53a2.52,2.52,0,0,0,.84.54,2.78,2.78,0,0,0,1,.19,2.9,2.9,0,0,0,.8-.12,3.31,3.31,0,0,0,.77-.35h0v-.59l0,0a2.7,2.7,0,0,1-.75.42,2.52,2.52,0,0,1-.82.14,2.1,2.1,0,0,1-.8-.16,2,2,0,0,1-.66-.44,2,2,0,0,1-.44-.68,2.42,2.42,0,0,1-.15-.86,2.1,2.1,0,0,1,.59-1.55,2.05,2.05,0,0,1,1.52-.59,2.22,2.22,0,0,1,.79.14,2.66,2.66,0,0,1,.74.46l0,0v-.56h0a2.32,2.32,0,0,0-.73-.39,2.9,2.9,0,0,0-1.9.06,2.6,2.6,0,0,0-.84.53,2.34,2.34,0,0,0-.55.83,2.75,2.75,0,0,0-.19,1,2.82,2.82,0,0,0,.18,1A2.42,2.42,0,0,0,80.86,56.53Z"/><path class="a" d="M88.74,57.26a1.74,1.74,0,0,0,1.35-.5,2.19,2.19,0,0,0,.45-1.5V52.2H90v3.22a1.5,1.5,0,0,1-.32,1.05,1.59,1.59,0,0,1-2,0,1.5,1.5,0,0,1-.32-1.05V52.2h-.49v3.07a2.2,2.2,0,0,0,.45,1.5A1.76,1.76,0,0,0,88.74,57.26Z"/><polygon class="a" points="95.56 56.66 93.89 56.66 93.89 52.2 93.39 52.2 93.39 57.14 95.56 57.14 95.56 56.66"/><rect class="a" x="97.92" y="52.2" width="0.49" height="4.94"/><polygon class="a" points="105.22 52.2 105.22 57.32 105.18 57.27 101.77 53.23 101.77 57.14 101.29 57.14 101.29 51.95 101.34 52 101.58 52.28 104.76 56.03 104.76 52.2 105.22 52.2"/><path class="a" d="M108.58,55.48h2l.63,1.66h.54L109.63,52l0-.06-2.17,5.14v0h.51Zm1-2.45.8,2h-1.62Z"/><path class="a" d="M114.38,54.81h.23l1.71,2.32h.62l-1.76-2.33a1.3,1.3,0,0,0,.9-.33,1.22,1.22,0,0,0,.35-.92,1.26,1.26,0,0,0-.4-1,1.87,1.87,0,0,0-1.21-.34h-.92v4.94h.49Zm0-2.18h.42a1.32,1.32,0,0,1,.84.21.87.87,0,0,1,.25.7.81.81,0,0,1-.24.66,1.41,1.41,0,0,1-.85.19h-.42Z"/><path class="a" d="M121.46,57a2,2,0,0,0,.73-.35,2,2,0,0,0,.62-.83,3.34,3.34,0,0,0,0-2.36,2.09,2.09,0,0,0-.63-.84,1.85,1.85,0,0,0-.75-.35,7.39,7.39,0,0,0-1.45-.1h-.79v4.94h.94A6,6,0,0,0,121.46,57Zm-1.76-4.41h.46a5.67,5.67,0,0,1,1.17.08,1.29,1.29,0,0,1,.56.29,1.67,1.67,0,0,1,.46.69,2.77,2.77,0,0,1,.16,1,2.83,2.83,0,0,1-.15,1,1.82,1.82,0,0,1-.46.7,1.26,1.26,0,0,1-.53.28,4.45,4.45,0,0,1-1.07.09h-.6Z"/><path class="a" d="M107.18,28.8c1.31-2.18,1.64-6,1.64-6s-2.34.93-3.5,1.3a20.87,20.87,0,0,1-3.73.64v8.89A12.27,12.27,0,0,0,107.18,28.8Z"/><rect class="a" x="101.58" y="33.59" height="0.8"/><path class="a" d="M96,28.8c-1.31-2.18-1.64-6-1.64-6s2.34.93,3.5,1.3a20.86,20.86,0,0,0,3.73.64v-.87c-.2,0-2.57-.43-3.75-.79a16.07,16.07,0,0,1-3.35-1.25l-1.81-6.57a12.2,12.2,0,0,0,2.51,1.07,19.21,19.21,0,0,0,3.19.19h0l.09-1.29c-5.33.46-9.06-3-9.38-7.13a7.09,7.09,0,0,1,.57-3.12l-2.15.34v5h.4l-.4.3v12l1.57-.24v-10a7.24,7.24,0,0,0,.46.66v9.3L91,22V14l.47.43V21.9l1.84-.24h0v0c.53,6.15,3.24,11.51,8.28,12.7v-.8A12.27,12.27,0,0,1,96,28.8Z"/><rect class="a" x="101.58" y="23.83" height="0.87"/><polygon class="a" points="120.21 11.93 122.49 10.2 119.7 10.2 118.84 7.55 117.99 10.2 115.2 10.2 117.46 11.9 116.58 14.59 118.83 12.95 121.1 14.59 120.21 11.93"/><polygon class="a" points="126.09 17.03 123.61 17.03 122.86 14.68 122.12 17.03 119.63 17.03 121.64 18.53 120.89 20.76 120.89 20.89 122.85 19.46 124.85 20.91 124.07 18.56 126.09 17.03"/><path class="a" d="M105.34,23a16.05,16.05,0,0,0,3.34-1.25l1.81-6.57A12.21,12.21,0,0,1,108,16.27a19.2,19.2,0,0,1-3.19.19h0l-.09-1.29c5.33.46,9.06-3,9.38-7.13a7.12,7.12,0,0,0-.57-3.11l-.14,0A88.2,88.2,0,0,0,101.85,4h-.27v19.8C101.77,23.79,104.15,23.39,105.34,23Z"/><path class="a" d="M83.48,10l.79-2.47L85,9.82V5.71L83.48,6Z"/><path class="a" d="M79.47,16.62l.77-2.36L81,16.46v-6l-.33-.25H81V6.61L79.47,7Z"/><path class="a" d="M85.46,10.2h1.6V5.32l-1.6.29Z"/><path class="a" d="M77.41,7.57v9.32H79V7.11l-.74.2Z"/><path class="a" d="M75,23.21V8.39l-.91.33C74.1,9.81,74.24,16.2,75,23.21Z"/><path class="a" d="M75.45,26.22q.74-.44,1.5-.81V17.16l-.35-.26H77V7.72l-1.5.51Z"/><path class="a" d="M85,13.47,84.28,13l-.81.58v3.36h.41l-.41.31v6L85,22.9Z"/><path class="a" d="M87.05,10.85l-1.4,1.05.87,2.68-1.07-.78v9l1.6-.28Z"/><circle class="a" cx="87.27" cy="38.8" r="1.04"/><path class="a" d="M81.42,10.2H83V6.12l-1.6.37Z"/><circle class="a" cx="87.27" cy="33.21" r="1.04"/><path class="a" d="M100.45,36.65a1.13,1.13,0,0,0,1.13,1.13V35.53A1.13,1.13,0,0,0,100.45,36.65Z"/><rect class="a" x="101.58" y="35.53" height="2.26"/><path class="a" d="M78.88,18.62l-1.47-1.11v7.68c.52-.25,1-.47,1.6-.67v-4l-1,.73Z"/><path class="a" d="M79.47,20.21v4.13c.48-.17,1-.33,1.49-.48V20.15l-.7-.51Z"/><polygon class="a" points="83.01 13.87 82.01 14.59 82.9 11.93 81.42 10.8 81.42 16.89 83.01 16.89 83.01 13.87"/><path class="a" d="M83,17.55l-1.39,1,.86,2.67-1.07-.78v3.24c.52-.14,1-.28,1.6-.41Z"/><path class="a" d="M131.64,6.23c-.18-.06-3-1.12-4.71-1.59a95.6,95.6,0,0,0-21.57-3.48q-1.71-.08-3.48-.1h-.59q-1.77,0-3.48.1A95.62,95.62,0,0,0,76.23,4.64c-1.69.47-4.54,1.53-4.71,1.59h0s0,.06,0,.17,0,.07,0,.11,0,.28,0,.47,0,.27,0,.43c.11,4.37.7,19.77,3.61,29.25.58,1.88,1.32,4.59,2.59,7.77l.14.35.3.72.32.73H71.56V56.46h4.81v3.45H87.69l.21.22.32.32c6.58,6.72,11.12,9.91,11.41,10l1.95,1.4,2-1.4a69,69,0,0,0,9.58-8.21c.68-.67,1.4-1.39,2.14-2.15l.21-.22h11.28V56.55h4.85V46.34h-7A74.51,74.51,0,0,0,128,36.66c2.91-9.47,3.5-24.88,3.61-29.25,0-.16,0-.31,0-.43s0-.35,0-.47,0-.08,0-.11,0-.17,0-.17ZM76.38,49.35v6.22h-4V47.1h6.19L76.4,49.35Zm2.78-1.7c.27.55.56,1.12.87,1.7H77.6Zm24.39,21.18-2,1.43-2-1.43A70.81,70.81,0,0,1,89.36,59.9h1.55l.49.49v-.48h.46v.92q.83.8,1.6,1.51V59.91h.47v2.86q.8.73,1.52,1.35V59.91h.47v4.61c.59.51,1.12.95,1.59,1.33V59.91H98v6.31c.66.52,1.16.89,1.48,1.12V59.91h.47v7.73l1.66,1.09V59.9H113.8A70.77,70.77,0,0,1,103.55,68.84Zm22-10.09h-48V50.53h48ZM121.73,33s-1.27.12-1.55.8c-.08.2-.16.38-.22.55a5.21,5.21,0,0,1-3.69,3.59c-.78.14-1,.78-1.13,1.29a3.33,3.33,0,0,1-.11.32l-.06.14-.14-.06s-.89-.34-.84-.64a3.65,3.65,0,0,1,1.17-1.56c.4-.21.77-.4,1.14-.58a6.5,6.5,0,0,0,1.69-1,9.57,9.57,0,0,0,1.44-2.65,2.23,2.23,0,0,1,2-1.25c.18,0,.24.21.34.65,0,.08,0,.14.05.17l.08.21Zm-3.35,7.54c-.63.12-.78.62-.9,1,0,.1-.06.19-.09.26l-.06.14-.14-.05s-.74-.28-.7-.55a3,3,0,0,1,1-1.28c.32-.17.64-.33.93-.47a5.26,5.26,0,0,0,1.36-.82,7.74,7.74,0,0,0,1.16-2.15,1.82,1.82,0,0,1,1.68-1c.17,0,.22.21.31.54a1,1,0,0,0,0,.14l.08.2-.21,0c-.28,0-1.05.19-1.24.64l-.18.45a4.62,4.62,0,0,1-.84,1.56m.09-10.23s-1.72.16-2.1,1.1l-.29.73a6.86,6.86,0,0,1-4.87,4.74c-1.07.2-1.35,1.09-1.55,1.75a3.07,3.07,0,0,1-.14.42l-.06.15-.16-.06s-1.13-.45-1.08-.81a4.82,4.82,0,0,1,1.53-2c.52-.29,1-.53,1.52-.77a8.82,8.82,0,0,0,2.26-1.35,12.76,12.76,0,0,0,1.92-3.54,2.94,2.94,0,0,1,2.66-1.63c.19,0,.28.24.42.82l.07.24.09.22ZM118.2,49.35H101.58V37.81h0A17.91,17.91,0,0,1,118.2,49.35Zm4.93,0c.3-.55.58-1.11.85-1.65l1.58,1.65Zm7.63-2.16v8.48h-4V49.37h0l-2.17-2.16Zm-.5-39.35a172.52,172.52,0,0,1-1.41,19,65.37,65.37,0,0,1-2,9.89l-.32,1.06a55.35,55.35,0,0,1-4.65,11.6h-1.22a52.56,52.56,0,0,0,4.81-11.79c.11-.36.21-.69.3-1a64,64,0,0,0,2.06-10.19v-.1c-4.49-2.65-9.31-3.53-17.91-4.61h0v0c-.53,6.15-3.24,11.51-8.28,12.7v1.14a1.13,1.13,0,1,1,0,2.26v0h0A17.91,17.91,0,0,0,85,49.33l0,0h-.81V29.52h5.67V28.07h-7V49.35H81.32a55.78,55.78,0,0,1-4.66-11.62c-.11-.37-.21-.72-.31-1C73.14,26.26,72.9,8,72.89,7.84V7.67L73,7.62s2.85-1.06,4.48-1.51A90.89,90.89,0,0,1,101.3,2.72h.56a90.88,90.88,0,0,1,23.77,3.39c1.64.46,4.46,1.5,4.49,1.51l.15.06Z"/><path class="a" d="M27.36,115.21,28,110H26.46l.06-.45H30l-.06.45H28.48l-.65,5.24Z"/><path class="a" d="M30.65,115.21l.76-6h.44l-.41,3.15a1.79,1.79,0,0,1,.56-.52,1.32,1.32,0,0,1,.66-.17,1,1,0,0,1,.75.27,1,1,0,0,1,.27.73c0,.05,0,.11,0,.18s0,.13,0,.21l-.27,2.19h-.45l.27-2.16c0-.06,0-.11,0-.17s0-.11,0-.17a.64.64,0,0,0-.19-.5.82.82,0,0,0-.56-.17,1,1,0,0,0-.78.36,2.14,2.14,0,0,0-.38,1.09l-.22,1.72Z"/><path class="a" d="M38.27,113.55H35.53v.09a1.41,1.41,0,0,0,.3,1,1.07,1.07,0,0,0,.85.34,1.15,1.15,0,0,0,.6-.16,1.5,1.5,0,0,0,.48-.48l.3.3a1.8,1.8,0,0,1-.61.57,1.63,1.63,0,0,1-.79.18,1.55,1.55,0,0,1-1.17-.45,1.65,1.65,0,0,1-.44-1.2,2.2,2.2,0,0,1,.5-1.49,1.61,1.61,0,0,1,1.28-.58,1.4,1.4,0,0,1,1.08.41,1.64,1.64,0,0,1,.38,1.16s0,.1,0,.16S38.28,113.49,38.27,113.55Zm-.41-.4a1.24,1.24,0,0,0-.25-.83.89.89,0,0,0-.71-.29,1.24,1.24,0,0,0-.84.29,1.59,1.59,0,0,0-.48.84Z"/><path class="a" d="M47.27,110l-.13.52a2,2,0,0,0-.74-.54,2.43,2.43,0,0,0-1-.18,2.49,2.49,0,0,0-1,.19,2.23,2.23,0,0,0-.78.54,2.79,2.79,0,0,0-.58.93,3.11,3.11,0,0,0-.2,1.11,2.32,2.32,0,0,0,.61,1.69,2.2,2.2,0,0,0,1.65.63,2.36,2.36,0,0,0,.74-.13,4.49,4.49,0,0,0,.85-.4l-.13.6a5,5,0,0,1-.83.29,3.2,3.2,0,0,1-.75.09,2.52,2.52,0,0,1-1.92-.77,2.81,2.81,0,0,1-.73-2,3.56,3.56,0,0,1,.23-1.3,3,3,0,0,1,.67-1,2.81,2.81,0,0,1,1-.63,3.16,3.16,0,0,1,1.18-.22,3,3,0,0,1,1,.15A2.53,2.53,0,0,1,47.27,110Z"/><path class="a" d="M48.52,111.75H49l-.18,1.47q-.05.41-.07.61t0,.35a.7.7,0,0,0,.22.55.87.87,0,0,0,.6.2.85.85,0,0,0,.73-.34,2.65,2.65,0,0,0,.35-1.18l.21-1.66h.44l-.21,1.7a5.83,5.83,0,0,1-.19,1,1.41,1.41,0,0,1-.27.49,1.17,1.17,0,0,1-.46.32,1.72,1.72,0,0,1-.63.11,1.34,1.34,0,0,1-.92-.3,1,1,0,0,1-.34-.82q0-.16,0-.36t.07-.57Z"/><path class="a" d="M52.62,115.21l.76-6h.44l-.76,6Z"/><path class="a" d="M54.9,115.21l.42-3.46h.45l-.43,3.46Zm.45-4.73a.35.35,0,0,1,.1-.25.34.34,0,0,1,.48,0,.35.35,0,0,1,.1.25.34.34,0,0,1-.1.25.34.34,0,0,1-.48,0A.35.35,0,0,1,55.35,110.48Z"/><path class="a" d="M57.14,115.21l.43-3.46H58l-.07.57a1.79,1.79,0,0,1,.56-.52,1.32,1.32,0,0,1,.66-.17,1,1,0,0,1,.75.27,1,1,0,0,1,.27.73c0,.05,0,.11,0,.18s0,.13,0,.21l-.27,2.19h-.45l.28-2.16c0-.06,0-.11,0-.17s0-.11,0-.17a.64.64,0,0,0-.19-.5A.82.82,0,0,0,59,112a1,1,0,0,0-.78.36,2.14,2.14,0,0,0-.38,1.09l-.22,1.72Z"/><path class="a" d="M64.89,111.75l-.43,3.46H64l.07-.52a1.42,1.42,0,0,1-.49.5,1.27,1.27,0,0,1-.65.17,1.2,1.2,0,0,1-1-.49,2,2,0,0,1-.38-1.26A2.13,2.13,0,0,1,62,112.2a1.46,1.46,0,0,1,1.17-.56,1.18,1.18,0,0,1,.7.2,1.35,1.35,0,0,1,.45.62l.09-.7ZM63.06,115a1,1,0,0,0,.84-.46,1.89,1.89,0,0,0,.34-1.15,1.53,1.53,0,0,0-.28-1,.88.88,0,0,0-.73-.36,1,1,0,0,0-.86.45,1.85,1.85,0,0,0-.34,1.15,1.54,1.54,0,0,0,.28,1A.9.9,0,0,0,63.06,115Z"/><path class="a" d="M66.26,115.21l.43-3.46h.43l-.09.59a2.06,2.06,0,0,1,.49-.54.87.87,0,0,1,.51-.18l.2,0,.18.05-.1.48-.23-.08-.13,0a.83.83,0,0,0-.7.34,2.17,2.17,0,0,0-.34,1l-.22,1.75Z"/><path class="a" d="M69.23,116.94h-.49l1.14-2-1-3.18h.49l.77,2.73,1.5-2.73h.5Z"/><path class="a" d="M75.79,115.21l.72-5.7H77l-.72,5.7Z"/><path class="a" d="M78.12,115.21l.43-3.46H79l-.07.57a1.79,1.79,0,0,1,.56-.52,1.32,1.32,0,0,1,.66-.17,1,1,0,0,1,.75.27,1,1,0,0,1,.27.73c0,.05,0,.11,0,.18s0,.13,0,.21l-.27,2.19H80.4l.27-2.16c0-.06,0-.11,0-.17s0-.11,0-.17a.64.64,0,0,0-.19-.5.82.82,0,0,0-.56-.17,1,1,0,0,0-.78.36,2.14,2.14,0,0,0-.38,1.09l-.22,1.72Z"/><path class="a" d="M82.61,114.37a1.53,1.53,0,0,0,.47.44,1.12,1.12,0,0,0,.56.14.79.79,0,0,0,.53-.18.57.57,0,0,0,.21-.45.53.53,0,0,0-.12-.36,1.65,1.65,0,0,0-.55-.32,2.27,2.27,0,0,1-.77-.46.78.78,0,0,1-.19-.54,1,1,0,0,1,.3-.76,1.13,1.13,0,0,1,.81-.29,1.26,1.26,0,0,1,.55.13,1.91,1.91,0,0,1,.52.38l-.27.31a1.51,1.51,0,0,0-.41-.33.94.94,0,0,0-.44-.11.65.65,0,0,0-.47.17.59.59,0,0,0-.18.45q0,.33.62.59l.21.09a1.8,1.8,0,0,1,.64.43.82.82,0,0,1,.19.55,1,1,0,0,1-.33.78,1.27,1.27,0,0,1-.88.29,1.55,1.55,0,0,1-.73-.17,1.64,1.64,0,0,1-.56-.52Z"/><path class="a" d="M86.59,112.16H86l0-.41h.56l.17-1.41h.44l-.18,1.41h.67l-.06.41H87l-.38,3h-.44Z"/><path class="a" d="M88.61,115.21l.42-3.46h.45L89,115.21Zm.45-4.73a.35.35,0,0,1,.1-.25.34.34,0,0,1,.48,0,.35.35,0,0,1,.1.25.34.34,0,0,1-.1.25.34.34,0,0,1-.48,0A.35.35,0,0,1,89.06,110.48Z"/><path class="a" d="M91.29,112.16h-.55l0-.41h.56l.17-1.41H92l-.18,1.41h.67l-.06.41h-.67l-.38,3h-.44Z"/><path class="a" d="M93.68,111.75h.44l-.18,1.47q-.05.41-.07.61t0,.35a.7.7,0,0,0,.22.55.87.87,0,0,0,.6.2.85.85,0,0,0,.73-.34,2.65,2.65,0,0,0,.35-1.18l.21-1.66h.44l-.21,1.7a5.84,5.84,0,0,1-.19,1,1.41,1.41,0,0,1-.27.49,1.17,1.17,0,0,1-.46.32,1.72,1.72,0,0,1-.63.11,1.34,1.34,0,0,1-.92-.3,1,1,0,0,1-.34-.82q0-.16,0-.36t.07-.57Z"/><path class="a" d="M98.18,112.16h-.55l0-.41h.56l.17-1.41h.44l-.18,1.41h.67l-.06.41h-.67l-.38,3H97.8Z"/><path class="a" d="M103.3,113.55h-2.74v.09a1.41,1.41,0,0,0,.3,1,1.07,1.07,0,0,0,.85.34,1.15,1.15,0,0,0,.6-.16,1.5,1.5,0,0,0,.48-.48l.3.3a1.8,1.8,0,0,1-.61.57,1.63,1.63,0,0,1-.79.18,1.55,1.55,0,0,1-1.17-.45,1.65,1.65,0,0,1-.44-1.2,2.2,2.2,0,0,1,.5-1.49,1.61,1.61,0,0,1,1.28-.58,1.4,1.4,0,0,1,1.08.41,1.64,1.64,0,0,1,.38,1.16s0,.1,0,.16S103.31,113.49,103.3,113.55Zm-.41-.4a1.24,1.24,0,0,0-.25-.83.89.89,0,0,0-.71-.29,1.24,1.24,0,0,0-.84.29,1.6,1.6,0,0,0-.48.84Z"/><path class="a" d="M107.22,113.63a2,2,0,0,1,.53-1.43,1.75,1.75,0,0,1,1.33-.57,1.6,1.6,0,0,1,1.2.48,1.7,1.7,0,0,1,.46,1.23,2,2,0,0,1-.52,1.44,1.73,1.73,0,0,1-1.33.57,1.62,1.62,0,0,1-1.22-.48A1.72,1.72,0,0,1,107.22,113.63Zm1.84-1.57a1.26,1.26,0,0,0-1,.44,1.61,1.61,0,0,0-.39,1.11,1.36,1.36,0,0,0,.34,1,1.13,1.13,0,0,0,.88.37,1.25,1.25,0,0,0,1-.44,1.61,1.61,0,0,0,.39-1.1,1.36,1.36,0,0,0-.34-1A1.12,1.12,0,0,0,109.06,112.06Z"/><path class="a" d="M112.15,115.21l.39-3h-.6l.05-.41h.59l.2-1.55a1.85,1.85,0,0,1,.27-.87.71.71,0,0,1,.59-.23,1.28,1.28,0,0,1,.28,0,1.1,1.1,0,0,1,.24.08l-.06.41-.23-.08-.17,0a.37.37,0,0,0-.33.15,1.38,1.38,0,0,0-.16.57l-.19,1.51h.78l-.05.41H113l-.38,3Z"/><path class="a" d="M118.71,115.36l-1.43-5.85h.49l1.09,4.64,2.23-4.64h.5Z"/><path class="a" d="M122.2,115.21l.43-3.46h.45l-.43,3.46Zm.45-4.73a.35.35,0,0,1,.1-.25.34.34,0,0,1,.48,0,.35.35,0,0,1,.1.25.34.34,0,0,1-.1.25.34.34,0,0,1-.48,0A.35.35,0,0,1,122.65,110.48Z"/><path class="a" d="M124.45,115.21l.43-3.46h.44l-.09.59a2.06,2.06,0,0,1,.49-.54.87.87,0,0,1,.51-.18l.2,0,.18.05-.1.48-.23-.08-.13,0a.83.83,0,0,0-.7.34,2.17,2.17,0,0,0-.34,1l-.22,1.75Z"/><path class="a" d="M130.61,111.75l-.42,3.33a2.61,2.61,0,0,1-.52,1.42,1.44,1.44,0,0,1-1.13.43,1.36,1.36,0,0,1-1-.36,1.38,1.38,0,0,1-.42-1h.45v0a.84.84,0,0,0,.27.65,1,1,0,0,0,.7.25,1,1,0,0,0,.8-.33,2.44,2.44,0,0,0,.38-1.17l.05-.4a1.46,1.46,0,0,1-.49.5,1.25,1.25,0,0,1-.65.17,1.22,1.22,0,0,1-1-.48,1.91,1.91,0,0,1-.39-1.24,2.08,2.08,0,0,1,.47-1.39,1.47,1.47,0,0,1,1.17-.55,1.19,1.19,0,0,1,.71.2,1.33,1.33,0,0,1,.45.61l.09-.69Zm-1.83,3.15a1,1,0,0,0,.84-.45,1.84,1.84,0,0,0,.34-1.14,1.49,1.49,0,0,0-.28-.94A.88.88,0,0,0,129,112a1,1,0,0,0-.86.44,1.79,1.79,0,0,0-.34,1.13,1.51,1.51,0,0,0,.28,1A.9.9,0,0,0,128.78,114.9Z"/><path class="a" d="M132,115.21l.42-3.46h.45l-.43,3.46Zm.45-4.73a.35.35,0,0,1,.1-.25.34.34,0,0,1,.48,0,.35.35,0,0,1,.1.25.34.34,0,0,1-.1.25.34.34,0,0,1-.48,0A.35.35,0,0,1,132.46,110.48Z"/><path class="a" d="M134.26,115.21l.43-3.46h.43l-.07.57a1.79,1.79,0,0,1,.56-.52,1.32,1.32,0,0,1,.66-.17,1,1,0,0,1,.75.27,1,1,0,0,1,.27.73c0,.05,0,.11,0,.18s0,.13,0,.21l-.27,2.19h-.45l.28-2.16c0-.06,0-.11,0-.17s0-.11,0-.17a.64.64,0,0,0-.19-.5.82.82,0,0,0-.56-.17,1,1,0,0,0-.78.36,2.14,2.14,0,0,0-.38,1.09l-.22,1.72Z"/><path class="a" d="M138.77,115.21l.42-3.46h.45l-.43,3.46Zm.45-4.73a.35.35,0,0,1,.1-.25.34.34,0,0,1,.48,0,.35.35,0,0,1,.1.25.34.34,0,0,1-.1.25.34.34,0,0,1-.48,0A.35.35,0,0,1,139.22,110.48Z"/><path class="a" d="M144.28,111.75l-.43,3.46h-.44l.07-.52a1.41,1.41,0,0,1-.49.5,1.27,1.27,0,0,1-.65.17,1.2,1.2,0,0,1-1-.49,2,2,0,0,1-.38-1.26,2.13,2.13,0,0,1,.47-1.41,1.46,1.46,0,0,1,1.17-.56,1.18,1.18,0,0,1,.7.2,1.34,1.34,0,0,1,.45.62l.09-.7ZM142.45,115a1,1,0,0,0,.84-.46,1.89,1.89,0,0,0,.34-1.15,1.53,1.53,0,0,0-.28-1,.88.88,0,0,0-.73-.36,1,1,0,0,0-.86.45,1.84,1.84,0,0,0-.34,1.15,1.54,1.54,0,0,0,.28,1A.9.9,0,0,0,142.45,115Z"/><path class="a" d="M153.34,110l-.13.52a2,2,0,0,0-.74-.54,2.43,2.43,0,0,0-1-.18,2.49,2.49,0,0,0-1,.19,2.23,2.23,0,0,0-.78.54,2.79,2.79,0,0,0-.58.93,3.11,3.11,0,0,0-.2,1.11,2.32,2.32,0,0,0,.61,1.69,2.2,2.2,0,0,0,1.65.63,2.36,2.36,0,0,0,.74-.13,4.47,4.47,0,0,0,.85-.4l-.13.6a5,5,0,0,1-.83.29,3.2,3.2,0,0,1-.75.09,2.52,2.52,0,0,1-1.92-.77,2.81,2.81,0,0,1-.73-2,3.55,3.55,0,0,1,.24-1.3,3,3,0,0,1,.67-1,2.81,2.81,0,0,1,1-.63,3.16,3.16,0,0,1,1.18-.22,3,3,0,0,1,1,.15A2.53,2.53,0,0,1,153.34,110Z"/><path class="a" d="M154.09,113.63a2,2,0,0,1,.53-1.43,1.75,1.75,0,0,1,1.33-.57,1.6,1.6,0,0,1,1.2.48,1.7,1.7,0,0,1,.46,1.23,2,2,0,0,1-.52,1.44,1.73,1.73,0,0,1-1.33.57,1.62,1.62,0,0,1-1.22-.48A1.72,1.72,0,0,1,154.09,113.63Zm1.84-1.57a1.25,1.25,0,0,0-1,.44,1.61,1.61,0,0,0-.39,1.11,1.37,1.37,0,0,0,.34,1,1.13,1.13,0,0,0,.88.37,1.25,1.25,0,0,0,1-.44,1.61,1.61,0,0,0,.39-1.1,1.36,1.36,0,0,0-.34-1A1.12,1.12,0,0,0,155.93,112.06Z"/><path class="a" d="M158.92,115.21l.76-6h.44l-.76,6Z"/><path class="a" d="M161.2,115.21l.76-6h.44l-.76,6Z"/><path class="a" d="M166.59,113.55h-2.74v.09a1.41,1.41,0,0,0,.3,1,1.07,1.07,0,0,0,.85.34,1.15,1.15,0,0,0,.6-.16,1.5,1.5,0,0,0,.48-.48l.3.3a1.81,1.81,0,0,1-.61.57,1.63,1.63,0,0,1-.79.18,1.55,1.55,0,0,1-1.17-.45,1.65,1.65,0,0,1-.44-1.2,2.2,2.2,0,0,1,.5-1.49,1.62,1.62,0,0,1,1.28-.58,1.4,1.4,0,0,1,1.08.41,1.64,1.64,0,0,1,.38,1.16s0,.1,0,.16S166.6,113.49,166.59,113.55Zm-.41-.4a1.24,1.24,0,0,0-.25-.83.89.89,0,0,0-.71-.29,1.25,1.25,0,0,0-.84.29,1.6,1.6,0,0,0-.48.84Z"/><path class="a" d="M171.17,111.75l-.42,3.33a2.61,2.61,0,0,1-.52,1.42,1.44,1.44,0,0,1-1.13.43,1.36,1.36,0,0,1-1-.36,1.38,1.38,0,0,1-.42-1h.45v0a.84.84,0,0,0,.27.65,1,1,0,0,0,.7.25,1,1,0,0,0,.8-.33,2.46,2.46,0,0,0,.38-1.17l.05-.4a1.46,1.46,0,0,1-.49.5,1.25,1.25,0,0,1-.65.17,1.22,1.22,0,0,1-1-.48,1.91,1.91,0,0,1-.39-1.24,2.08,2.08,0,0,1,.47-1.39,1.47,1.47,0,0,1,1.17-.55,1.19,1.19,0,0,1,.7.2,1.32,1.32,0,0,1,.45.61l.09-.69Zm-1.83,3.15a1,1,0,0,0,.84-.45,1.84,1.84,0,0,0,.34-1.14,1.49,1.49,0,0,0-.28-.94.88.88,0,0,0-.73-.36,1,1,0,0,0-.86.44,1.79,1.79,0,0,0-.34,1.13,1.51,1.51,0,0,0,.28,1A.9.9,0,0,0,169.34,114.9Z"/><path class="a" d="M175.68,113.55h-2.74v.09a1.41,1.41,0,0,0,.3,1,1.07,1.07,0,0,0,.85.34,1.15,1.15,0,0,0,.6-.16,1.5,1.5,0,0,0,.48-.48l.3.3a1.8,1.8,0,0,1-.61.57,1.63,1.63,0,0,1-.79.18,1.55,1.55,0,0,1-1.17-.45,1.65,1.65,0,0,1-.44-1.2,2.2,2.2,0,0,1,.5-1.49,1.62,1.62,0,0,1,1.28-.58,1.4,1.4,0,0,1,1.08.41,1.64,1.64,0,0,1,.38,1.16s0,.1,0,.16S175.68,113.49,175.68,113.55Zm-.41-.4a1.24,1.24,0,0,0-.25-.83.89.89,0,0,0-.71-.29,1.25,1.25,0,0,0-.84.29,1.6,1.6,0,0,0-.48.84Z"/><path class="b" d="M29.21,84.73a11.75,11.75,0,0,0-3.34-2.08A9.7,9.7,0,0,0,22.28,82a9.26,9.26,0,0,0-6.91,2.7,9.61,9.61,0,0,0-2.66,7,11.13,11.13,0,0,0,.65,3.92,8.7,8.7,0,0,0,2,3.09,9,9,0,0,0,3,2,9.56,9.56,0,0,0,3.64.69,10.68,10.68,0,0,0,3.68-.65,12,12,0,0,0,3.39-1.93v2.37a14.32,14.32,0,0,1-3.42,1.5,12.74,12.74,0,0,1-3.57.53,12.33,12.33,0,0,1-4.55-.85A10.88,10.88,0,0,1,13.8,100a10.57,10.57,0,0,1-2.43-3.69,12.49,12.49,0,0,1-.82-4.6,12.29,12.29,0,0,1,.85-4.59,10.42,10.42,0,0,1,2.44-3.67,11,11,0,0,1,3.73-2.37,12.33,12.33,0,0,1,4.54-.86,12.62,12.62,0,0,1,3.89.58,10.39,10.39,0,0,1,3.26,1.73Z"/><path class="b" d="M39.55,80.68h2V95.05A6.9,6.9,0,0,0,43,99.9a5.9,5.9,0,0,0,4.52,1.59A5.83,5.83,0,0,0,52,99.9a6.9,6.9,0,0,0,1.48-4.85V80.68h2V94.41q0,4.45-2,6.64t-6,2.19q-4,0-6-2.19t-2-6.64Z"/><path class="b" d="M67,102.66v-22h2v20.1h7.5v1.88Z"/><path class="b" d="M85.81,102.66v-22h2v22Z"/><path class="b" d="M99.39,102.66V79.74l15.53,18.4V80.68h1.88V103.3L101.26,84.88v17.77Z"/><path class="b" d="M125.33,102.66,135,79.86l9.22,22.8H142l-2.8-7.44h-9l-2.9,7.44ZM131,93.52h7.63L134.84,84Z"/><path class="b" d="M166.13,102.66h-2.42L156,92.17h-1.2v10.49h-2v-22h4a8.17,8.17,0,0,1,5.34,1.48,5.53,5.53,0,0,1,1.77,4.5,5.35,5.35,0,0,1-1.52,4,5.77,5.77,0,0,1-4.19,1.47ZM154.82,82.44v8.09h2a6.31,6.31,0,0,0,3.87-.89,3.69,3.69,0,0,0,1.1-3,4,4,0,0,0-1.14-3.21,6,6,0,0,0-3.84-1Z"/><path class="b" d="M175.14,102.66v-22h3.42a32.08,32.08,0,0,1,6.48.45,8.26,8.26,0,0,1,3.29,1.55,9.27,9.27,0,0,1,2.78,3.75,14.9,14.9,0,0,1,0,10.52,8.62,8.62,0,0,1-6,5.25,26.36,26.36,0,0,1-5.88.47h-4.09Zm2-1.7h2.8a20.91,20.91,0,0,0,4.83-.38,5.64,5.64,0,0,0,2.41-1.3,8.18,8.18,0,0,0,2.08-3.22,14.15,14.15,0,0,0,0-8.84,7.68,7.68,0,0,0-2.11-3.16,6,6,0,0,0-2.56-1.34,24.3,24.3,0,0,0-5.29-.39h-2.16Z"/><path class="c" d="M197.89,98.5a2.14,2.14,0,0,1,1,.27,1.93,1.93,0,0,1,.79.78,2.12,2.12,0,0,1,0,2.11,2,2,0,0,1-.78.78,2.13,2.13,0,0,1-2.1,0,2,2,0,0,1-.78-.78,2.11,2.11,0,0,1,0-2.11,2,2,0,0,1,.79-.78,2.14,2.14,0,0,1,1-.27Zm0,.35a1.79,1.79,0,0,0-.87.23,1.62,1.62,0,0,0-.66.65,1.76,1.76,0,0,0,0,1.75,1.67,1.67,0,0,0,.65.65,1.77,1.77,0,0,0,1.75,0,1.66,1.66,0,0,0,.65-.65,1.8,1.8,0,0,0,.23-.88,1.77,1.77,0,0,0-.24-.88,1.6,1.6,0,0,0-.66-.65,1.79,1.79,0,0,0-.86-.23Zm-.93,2.93V99.5h.78a1.82,1.82,0,0,1,.58.07.55.55,0,0,1,.29.22.59.59,0,0,1,.11.33.6.6,0,0,1-.18.43.7.7,0,0,1-.47.21.62.62,0,0,1,.19.12,2.57,2.57,0,0,1,.34.45l.28.44h-.45l-.2-.36a1.82,1.82,0,0,0-.38-.53.47.47,0,0,0-.29-.08h-.21v1Zm.37-1.28h.44a.71.71,0,0,0,.43-.1.31.31,0,0,0,.12-.25.32.32,0,0,0-.06-.18.34.34,0,0,0-.16-.12,1.16,1.16,0,0,0-.37,0h-.42v.69Z"/></svg>