<svg xmlns="http://www.w3.org/2000/svg" viewBox="0 0 67.93 80"><defs><style>.a{fill:#fff;}</style></defs><title>culinard-shield-white</title><path class="a" d="M10.56,62.65a2.85,2.85,0,0,0,1,.61,3.13,3.13,0,0,0,1.16.22,3.28,3.28,0,0,0,.91-.13,3.74,3.74,0,0,0,.87-.39h0v-.66l-.05,0a3,3,0,0,1-.84.47,2.85,2.85,0,0,1-.92.16,2.38,2.38,0,0,1-.91-.18,2.24,2.24,0,0,1-.75-.5,2.21,2.21,0,0,1-.49-.77,2.74,2.74,0,0,1-.17-1A2.37,2.37,0,0,1,11,58.8a2.32,2.32,0,0,1,1.72-.67,2.5,2.5,0,0,1,.89.16,3,3,0,0,1,.83.52l.05,0v-.63h0a2.62,2.62,0,0,0-.83-.44,3.27,3.27,0,0,0-2.14.07,2.94,2.94,0,0,0-.95.6,2.64,2.64,0,0,0-.62.94,3.11,3.11,0,0,0-.22,1.16,3.18,3.18,0,0,0,.21,1.17A2.73,2.73,0,0,0,10.56,62.65Z"/><path class="a" d="M19.46,63.48A2,2,0,0,0,21,62.92a2.48,2.48,0,0,0,.51-1.69V57.76h-.56v3.63a1.69,1.69,0,0,1-.37,1.19,1.47,1.47,0,0,1-1.11.39,1.49,1.49,0,0,1-1.12-.39A1.7,1.7,0,0,1,18,61.39V57.76h-.55v3.47a2.48,2.48,0,0,0,.5,1.69A2,2,0,0,0,19.46,63.48Z"/><polygon class="a" points="27.17 62.8 25.28 62.8 25.28 57.76 24.71 57.76 24.71 63.34 27.17 63.34 27.17 62.8"/><rect class="a" x="29.84" y="57.76" width="0.56" height="5.58"/><polygon class="a" points="38.08 57.76 38.08 63.55 38.03 63.49 34.18 58.92 34.18 63.34 33.64 63.34 33.64 57.47 33.7 57.53 33.97 57.85 37.55 62.09 37.55 57.76 38.08 57.76"/><path class="a" d="M41.87,61.46h2.21l.71,1.88h.61l-2.34-5.78,0-.07L40.58,63.3l0,0h.57ZM43,58.69,43.9,61H42.06Z"/><path class="a" d="M48.43,60.71h.26l1.93,2.62h.7l-2-2.63a1.47,1.47,0,0,0,1-.38,1.38,1.38,0,0,0,.4-1,1.43,1.43,0,0,0-.46-1.15,2.11,2.11,0,0,0-1.37-.38h-1v5.58h.56Zm0-2.46h.48a1.49,1.49,0,0,1,.95.24,1,1,0,0,1,.28.79.91.91,0,0,1-.27.74,1.59,1.59,0,0,1-1,.22h-.48Z"/><path class="a" d="M56.42,63.22a2.27,2.27,0,0,0,.83-.4,2.22,2.22,0,0,0,.7-.94,3.77,3.77,0,0,0,0-2.67,2.36,2.36,0,0,0-.71-1,2.09,2.09,0,0,0-.85-.4,8.34,8.34,0,0,0-1.64-.11h-.89v5.58h1.06A6.78,6.78,0,0,0,56.42,63.22Zm-2-5h.51a6.41,6.41,0,0,1,1.32.1,1.46,1.46,0,0,1,.63.33,1.88,1.88,0,0,1,.52.78,3.13,3.13,0,0,1,.18,1.11,3.19,3.19,0,0,1-.17,1.08,2.05,2.05,0,0,1-.51.79,1.42,1.42,0,0,1-.6.32,5,5,0,0,1-1.2.1h-.67Z"/><path class="a" d="M40.29,31.33c1.48-2.46,1.85-6.82,1.85-6.82s-2.64,1-4,1.46A23.57,23.57,0,0,1,34,26.7v10A13.86,13.86,0,0,0,40.29,31.33Z"/><rect class="a" x="33.97" y="36.74" height="0.91"/><path class="a" d="M27.64,31.33c-1.48-2.46-1.85-6.82-1.85-6.82s2.64,1,4,1.46A23.56,23.56,0,0,0,34,26.7v-1c-.22,0-2.9-.49-4.24-.9a18.16,18.16,0,0,1-3.78-1.42l-2-7.42a13.78,13.78,0,0,0,2.83,1.2,21.7,21.7,0,0,0,3.6.21h0l.1-1.46c-6,.52-10.23-3.44-10.59-8.06a8,8,0,0,1,.64-3.52l-2.43.38v5.6h.45l-.45.33V24.17l1.78-.27V12.58a8.17,8.17,0,0,0,.52.74v10.5L22,23.61V14.66l.53.49v8.38l2.08-.27h0v0c.6,6.95,3.65,13,9.35,14.34v-.91A13.86,13.86,0,0,1,27.64,31.33Z"/><rect class="a" x="33.97" y="25.71" height="0.99"/><polygon class="a" points="55.01 12.27 57.59 10.32 54.43 10.32 53.47 7.33 52.5 10.32 49.35 10.32 51.9 12.25 50.91 15.28 53.45 13.43 56.01 15.28 55.01 12.27"/><polygon class="a" points="61.65 18.04 58.84 18.04 58.01 15.38 57.16 18.04 54.36 18.04 56.63 19.73 55.78 22.25 55.78 22.39 57.98 20.78 60.25 22.42 59.36 19.77 61.65 18.04"/><path class="a" d="M38.21,24.82A18.13,18.13,0,0,0,42,23.4L44,16a13.79,13.79,0,0,1-2.83,1.2,21.69,21.69,0,0,1-3.6.21h0l-.1-1.46c6,.52,10.23-3.44,10.59-8.06a8,8,0,0,0-.64-3.52l-.16,0a99.62,99.62,0,0,0-13-1H34V25.71C34.18,25.68,36.86,25.22,38.21,24.82Z"/><path class="a" d="M13.52,10.11l.9-2.8.82,2.57V5.25l-1.71.36Z"/><path class="a" d="M9,17.57l.87-2.67.8,2.5V10.61l-.38-.28h.38V6.26L9,6.69Z"/><path class="a" d="M15.76,10.33h1.8V4.81l-1.8.33Z"/><path class="a" d="M6.67,7.35V17.88h1.8V6.83l-.84.23Z"/><path class="a" d="M3.93,25V8.28l-1,.37C2.92,9.88,3.08,17.1,3.93,25Z"/><path class="a" d="M4.45,28.41q.83-.49,1.69-.91V18.18l-.4-.3h.4V7.52L4.45,8.1Z"/><path class="a" d="M15.23,14l-.8-.59-.91.66v3.79H14l-.47.35V25q.83-.18,1.71-.35Z"/><path class="a" d="M17.56,11.06,16,12.25l1,3-1.2-.88V24.56l1.8-.31Z"/><circle class="a" cx="17.8" cy="42.62" r="1.18"/><path class="a" d="M11.19,10.33H13V5.72l-1.8.42Z"/><circle class="a" cx="17.8" cy="36.32" r="1.18"/><path class="a" d="M32.69,40.2A1.28,1.28,0,0,0,34,41.48V38.93A1.28,1.28,0,0,0,32.69,40.2Z"/><rect class="a" x="33.97" y="38.93" height="2.55"/><path class="a" d="M8.32,19.83,6.67,18.58v8.68c.59-.28,1.18-.53,1.8-.76V22l-1.15.83Z"/><path class="a" d="M9,21.63V26.3c.54-.19,1.1-.38,1.68-.55v-4.2L9.88,21Z"/><polygon class="a" points="12.99 14.47 11.87 15.28 12.87 12.27 11.19 11.01 11.19 17.88 12.99 17.88 12.99 14.47"/><path class="a" d="M13,18.63,11.43,19.8l1,3-1.21-.88V25.6c.58-.16,1.18-.31,1.8-.46Z"/><path class="a" d="M67.92,5.84c-.2-.07-3.42-1.26-5.32-1.8A108,108,0,0,0,38.24.11Q36.3,0,34.3,0h-.67q-2,0-3.94.11A108,108,0,0,0,5.33,4C3.43,4.58.21,5.76,0,5.84H0S0,5.91,0,6s0,.08,0,.12,0,.32,0,.54S0,7,0,7.18c.13,4.93.79,22.33,4.08,33C4.76,42.34,5.59,45.4,7,49l.16.4.34.81L7.9,51H.06V62.57H5.5v3.9H18.28l.24.25.36.37c7.43,7.59,12.56,11.19,12.89,11.33L34,80l2.2-1.58c.3-.13,4.52-3.08,10.83-9.27.77-.76,1.58-1.57,2.41-2.43l.24-.25H62.39v-3.8h5.48V51.14H60a84.16,84.16,0,0,0,3.85-10.93c3.29-10.7,4-28.1,4.08-33,0-.18,0-.35,0-.49s0-.4,0-.54,0-.09,0-.12,0-.19,0-.19ZM5.5,54.55v7H1V52H8L5.52,54.55Zm3.14-1.92c.31.62.63,1.27,1,1.92H6.88ZM36.19,76.55,34,78.17l-2.23-1.62c-.53-.3-5-3.44-11.57-10.09h1.76l.56.55v-.54H23v1q.94.91,1.8,1.7V66.47h.53V69.7q.91.83,1.71,1.53V66.47h.53v5.21c.67.57,1.27,1.07,1.8,1.5V66.47h.53V73.6c.74.58,1.31,1,1.67,1.26V66.47h.53V75.2L34,76.44v-10h13.8C41.18,73.11,36.72,76.25,36.19,76.55Zm24.88-11.4H6.82V55.87H61.07ZM56.72,36s-1.44.14-1.75.9c-.09.23-.18.43-.25.62a5.88,5.88,0,0,1-4.17,4.05c-.88.16-1.11.88-1.28,1.46a3.76,3.76,0,0,1-.13.37l-.07.16-.16-.06s-1-.38-1-.72A4.12,4.12,0,0,1,49.29,41c.45-.24.87-.45,1.29-.65a7.34,7.34,0,0,0,1.91-1.15,10.81,10.81,0,0,0,1.63-3,2.52,2.52,0,0,1,2.3-1.41c.2,0,.27.24.39.73,0,.09,0,.16.06.19L57,36Zm-3.78,8.51c-.71.13-.88.7-1,1.17,0,.11-.07.21-.1.3l-.07.16-.16-.06s-.83-.31-.79-.62A3.37,3.37,0,0,1,51.89,44c.36-.2.72-.37,1.05-.53a5.94,5.94,0,0,0,1.54-.92,8.75,8.75,0,0,0,1.31-2.42A2.05,2.05,0,0,1,57.7,39c.19,0,.25.23.35.61a1.15,1.15,0,0,0,0,.15l.08.23-.24,0c-.32,0-1.19.22-1.4.72l-.2.51A5.22,5.22,0,0,1,55.39,43m.1-11.55s-1.94.19-2.37,1.24l-.33.83a7.75,7.75,0,0,1-5.5,5.35c-1.21.23-1.53,1.24-1.75,2a3.47,3.47,0,0,1-.16.47l-.07.17-.18-.06s-1.28-.51-1.22-.92a5.44,5.44,0,0,1,1.73-2.29c.59-.32,1.16-.6,1.72-.87a10,10,0,0,0,2.55-1.53,14.41,14.41,0,0,0,2.17-4,3.32,3.32,0,0,1,3-1.84c.22,0,.31.27.48.93,0,.12.06.23.08.27l.11.24Zm-2.75,23.1H34v-13h0A20.23,20.23,0,0,1,52.74,54.55Zm5.57,0c.34-.63.66-1.25,1-1.86L61,54.55Zm8.62-2.44v9.58H62.39V54.56h0l-2.45-2.44ZM66.37,7.66a194.87,194.87,0,0,1-1.59,21.42,73.84,73.84,0,0,1-2.3,11.18l-.36,1.2a62.52,62.52,0,0,1-5.25,13.1H55.48a59.37,59.37,0,0,0,5.43-13.32c.12-.4.23-.78.34-1.14a72.24,72.24,0,0,0,2.33-11.51v-.11c-5.07-3-10.51-4-20.23-5.2h0v0c-.6,6.95-3.66,13-9.35,14.34v1.29a1.27,1.27,0,1,1,0,2.55v0h0a20.23,20.23,0,0,0-18.72,13l0,0h-.92V32.14h6.41V30.5H12.78v24h-1.7A63,63,0,0,1,5.82,41.43c-.12-.41-.24-.81-.35-1.17C1.84,28.46,1.57,7.86,1.56,7.66V7.47l.17-.06S5,6.21,6.8,5.7A102.66,102.66,0,0,1,33.65,1.87h.63A102.64,102.64,0,0,1,61.13,5.7c1.85.51,5,1.7,5.07,1.71l.17.06Z"/></svg>