<svg xmlns="http://www.w3.org/2000/svg" viewBox="0 0 196.01 25"><defs><style>.a,.b{fill:#fff;}.b{fill-rule:evenodd;}</style></defs><title>culinard-logo-text-only-white</title><path class="a" d="M5.19,5.51A9.86,9.86,0,0,0,2.49,12.7a11.41,11.41,0,0,0,.66,4,8.89,8.89,0,0,0,2,3.15,9.21,9.21,0,0,0,3.07,2.05,9.84,9.84,0,0,0,3.72.7,10.9,10.9,0,0,0,3.76-.67,12.22,12.22,0,0,0,3.47-2l.19-.15v2.77l-.06,0a14.84,14.84,0,0,1-3.56,1.57,13.39,13.39,0,0,1-3.73.55,12.94,12.94,0,0,1-4.75-.89A11.45,11.45,0,0,1,3.4,21.33,11,11,0,0,1,.86,17.48,13.05,13.05,0,0,1,0,12.68,12.88,12.88,0,0,1,.89,7.9,10.87,10.87,0,0,1,3.43,4.06,11.45,11.45,0,0,1,7.32,1.58,13,13,0,0,1,12.05.69a13.31,13.31,0,0,1,4.05.6,10.89,10.89,0,0,1,3.41,1.82l0,0,0,2.59-.19-.17a12.09,12.09,0,0,0-3.42-2.13,10,10,0,0,0-3.67-.69A9.48,9.48,0,0,0,5.19,5.51Z"/><path class="a" d="M46.68,1.18v14.3c0,3.08-.7,5.42-2.07,6.95s-3.49,2.31-6.28,2.31S33.42,24,32,22.42,30,18.56,30,15.48V1.18h2.3v15a7,7,0,0,0,1.49,4.93,6,6,0,0,0,4.58,1.6,5.94,5.94,0,0,0,4.54-1.6,7,7,0,0,0,1.5-4.93v-15Z"/><polygon class="a" points="68.4 21.95 68.4 24.13 58.35 24.13 58.35 1.18 60.65 1.18 60.65 21.95 68.4 21.95"/><rect class="a" x="77.77" y="1.18" width="2.3" height="22.95"/><polygon class="a" points="110.03 1.18 110.03 25 93.98 5.97 93.98 24.13 91.8 24.13 91.8 0 107.85 19 107.85 1.18 110.03 1.18"/><path class="a" d="M128.7.14,118.61,24l-.07.17h2.38l3-7.69H133L135.87,24l0,.08h2.5Zm-4,14.31L128.55,5l3.69,9.41Z"/><path class="a" d="M153,13.28a6,6,0,0,0,4.17-1.55,5.68,5.68,0,0,0,1.61-4.26,5.87,5.87,0,0,0-1.88-4.74,8.62,8.62,0,0,0-5.59-1.56H147v23h2.3V13.29h1.05l7.92,10.79,0,.05h2.81Zm-3.67-10h1.94a6.14,6.14,0,0,1,3.89,1,4,4,0,0,1,1.13,3.23,3.71,3.71,0,0,1-1.09,3,6.45,6.45,0,0,1-3.93.89h-1.94Z"/><path class="a" d="M186.82,7.19a9.73,9.73,0,0,0-2.91-3.93,8.69,8.69,0,0,0-3.45-1.62,33.55,33.55,0,0,0-6.73-.47h-3.65v23h4.35a27.6,27.6,0,0,0,6.11-.48,9,9,0,0,0,6.28-5.49,14.23,14.23,0,0,0,1-5.48A14.16,14.16,0,0,0,186.82,7.19ZM175.15,22.13h-2.78v-19h2.11a25,25,0,0,1,5.44.4,6,6,0,0,1,2.6,1.36,7.86,7.86,0,0,1,2.14,3.21,13.18,13.18,0,0,1,.73,4.56,13.1,13.1,0,0,1-.72,4.5,8.37,8.37,0,0,1-2.12,3.27,5.72,5.72,0,0,1-2.45,1.32A21.49,21.49,0,0,1,175.15,22.13Z"/><path class="b" d="M193.83,19.82a2.21,2.21,0,0,1,1.07.28,2,2,0,0,1,.81.81,2.19,2.19,0,0,1,0,2.17,2,2,0,0,1-.81.81,2.2,2.2,0,0,1-2.17,0,2.05,2.05,0,0,1-.81-.81,2.18,2.18,0,0,1,0-2.17,2,2,0,0,1,.82-.81,2.21,2.21,0,0,1,1.07-.28Zm0,.36a1.85,1.85,0,0,0-.9.24,1.68,1.68,0,0,0-.68.67,1.81,1.81,0,0,0,0,1.81,1.73,1.73,0,0,0,.68.67,1.82,1.82,0,0,0,1.81,0,1.71,1.71,0,0,0,.67-.67,1.86,1.86,0,0,0,.24-.9,1.82,1.82,0,0,0-.25-.91,1.65,1.65,0,0,0-.68-.67,1.84,1.84,0,0,0-.89-.24Zm-1,3V20.86h.81a1.91,1.91,0,0,1,.6.07.57.57,0,0,1,.3.23.61.61,0,0,1,.11.34.62.62,0,0,1-.19.45.72.72,0,0,1-.49.22.62.62,0,0,1,.2.12,2.62,2.62,0,0,1,.35.47l.29.46h-.46l-.21-.37a1.88,1.88,0,0,0-.4-.55.49.49,0,0,0-.3-.08h-.22v1Zm.38-1.32h.46a.73.73,0,0,0,.45-.1.32.32,0,0,0,.12-.26.33.33,0,0,0-.06-.19.36.36,0,0,0-.16-.12,1.2,1.2,0,0,0-.38,0h-.43v.71Z"/></svg>