<svg xmlns="http://www.w3.org/2000/svg" viewBox="0 0 321 40"><defs><style>.a{fill:#e71812;}</style></defs><title>flame-divider-red</title><rect class="a" y="19.5" width="130" height="1"/><rect class="a" x="191" y="19.5" width="130" height="1"/><path class="a" d="M163.08,9.05A9.85,9.85,0,0,1,161.87,0C160.89,1.6,158.09,5.1,163.08,9.05Zm-1.59,15.86c-2.29-2.93-5.63-3.85-7.29-5.2s-3-3.14-1.94-7.19c-1.47,2.92-3.56,7.84-.53,12.9-3.11-3-2.59-5.43-2.46-7.47a14.85,14.85,0,0,0-.65,3.25,8.88,8.88,0,0,0,3,7.62c2,1.69,3.13,2,6.27,4,2.85,1.86,2.89,4.19,2.12,7.13C164.74,32.58,163.8,27.88,161.49,24.91Zm3.36-14.36s6,5.39,3.54,12.67a8.46,8.46,0,0,0-2.66-7.85c-2.84-2.55-5.07-3-6.51-6.56a10.45,10.45,0,0,1,.1-6.84c-2.95,3.44-6.6,7.25-6,12.44.38,3.16,2.52,4.77,4.35,6,2.71,1.85,5,3,6.12,5.64a11,11,0,0,1-1.2,10.65,36.06,36.06,0,0,0,8.15-9.21,12,12,0,0,0,1.66-6.22C172.26,16.89,168.29,12.53,164.85,10.56Z"/></svg>