<svg id="Layer_1" data-name="Layer 1" xmlns="http://www.w3.org/2000/svg" xmlns:xlink="http://www.w3.org/1999/xlink" viewBox="0 0 150 150"><defs><style>.cls-1{fill:url(#radial-gradient);}.cls-2{fill:#31c5f0;}</style><radialGradient id="radial-gradient" cx="-1032.67" cy="-177.66" r="0.03" gradientTransform="matrix(2291.67, 0, 0, -2218.75, 2366596.21, -394140.55)" gradientUnits="userSpaceOnUse"><stop offset="0" stop-color="#34364e" stop-opacity="0.98"/><stop offset="1" stop-color="#0c0824"/></radialGradient></defs><title>photoshop</title><path class="cls-1" d="M23.29,24.7H126.71V125.3H23.29Z"/><path class="cls-2" d="M23.29,24.7H126.71V125.3H23.29ZM18.59,130H131.41V20H18.59ZM94.65,65.13c-3.71,0-5,1.88-5,3.43s.84,2.87,5.83,5.45c7.38,3.58,9.68,7,9.68,12,0,7.52-5.73,11.56-13.49,11.56-4.09,0-7.62-.84-9.64-2-.33-.14-.37-.37-.37-.75V87.93c0-.47.23-.61.56-.38a17.44,17.44,0,0,0,9.45,2.78c3.71,0,5.27-1.55,5.27-3.67,0-1.69-1.09-3.2-5.83-5.64-6.68-3.2-9.45-6.44-9.45-11.85,0-6.06,4.75-11.09,13-11.09a21.58,21.58,0,0,1,8.42,1.32,1,1,0,0,1,.47.94v6.44c0,.37-.24.61-.71.47a15.84,15.84,0,0,0-8.18-2.12ZM54.22,70.72c1.09.1,1.93.1,3.81.1,5.5,0,10.67-1.93,10.67-9.4,0-6-3.71-9-10-9-1.88,0-3.67.09-4.52.14Zm-8.36-25c0-.33.66-.56,1-.56,3-.14,7.48-.24,12.13-.24,13,0,18.1,7.15,18.1,16.27,0,11.94-8.65,17.06-19.28,17.06-1.78,0-2.39-.09-3.66-.09v18c0,.38-.14.56-.57.56H46.42c-.37,0-.56-.14-.56-.56V45.76Z"/></svg>