<svg id="Layer_1" data-name="Layer 1" xmlns="http://www.w3.org/2000/svg" viewBox="0 0 150 150"><defs><style>.cls-1{fill:#fff;}.cls-2{fill:#0071bc;}.cls-3{fill:#29abe2;}.cls-4{fill:#b3b3b3;}.cls-5{fill:#e6e6e6;}</style></defs><title>css3</title><polygon class="cls-1" points="62.67 20.68 62.67 15.16 49.48 15.16 49.48 31.32 62.67 31.32 62.67 25.79 55.01 25.79 55.01 20.68 62.67 20.68"/><polygon class="cls-1" points="81.38 15.16 68.19 15.16 68.19 20.83 73.7 25.79 68.19 25.79 68.19 31.32 81.38 31.32 81.38 25.93 76.38 20.68 81.38 20.68 81.38 15.16"/><polygon class="cls-1" points="100.52 15.16 87.33 15.16 87.33 20.83 92.62 25.79 87.33 25.79 87.33 31.32 100.52 31.32 100.52 25.93 95.3 20.68 100.52 20.68 100.52 15.16"/><polygon class="cls-2" points="40.21 125.51 32.47 38.69 117.53 38.69 109.78 125.5 74.95 135.16 40.21 125.51"/><polygon class="cls-3" points="75.07 127.77 103.18 120.04 109.77 45.92 75.07 45.92 75.07 127.77"/><polygon class="cls-4" points="50.19 77.82 51.12 88.45 75.07 77.82 75.07 67.17 50.19 77.82"/><polygon class="cls-5" points="101.6 55.8 75.07 67.17 75.07 77.82 100.68 66.44 101.6 55.8"/><polygon class="cls-5" points="75.07 105.64 74.99 105.65 63.11 102.46 62.34 93.98 51.65 93.98 53.14 110.69 74.99 116.74 75.07 116.72 75.07 105.64"/><polygon class="cls-1" points="75.07 77.82 75.07 88.45 88.08 88.45 86.89 102.35 75.07 105.65 75.07 116.73 96.85 110.68 99.72 77.82 75.07 77.82"/><polygon class="cls-5" points="75.07 77.82 50.19 77.82 51.12 88.45 75.07 88.45 75.07 77.82"/><polygon class="cls-5" points="75.07 66.44 75.07 55.8 74.96 55.8 48.3 55.8 49.24 66.44 75.07 66.44"/><polygon class="cls-1" points="75.07 55.8 75.07 66.3 75.07 66.44 100.68 66.44 101.6 55.8 75.07 55.8"/></svg>