<svg id="Layer_1" data-name="Layer 1" xmlns="http://www.w3.org/2000/svg" viewBox="0 0 150 150"><defs><style>.cls-1{fill:#e54f26;}.cls-2{fill:#fff;}.cls-3{fill:#f16529;}.cls-4{fill:#ebeaea;}</style></defs><title>html5</title><polygon class="cls-1" points="116.49 38.39 73.87 38.39 73.87 38.39 31.24 38.39 39.23 125.05 73.87 134.87 73.87 134.87 73.87 134.87 73.87 134.87 73.87 134.87 108.49 125.05 116.49 38.39"/><path class="cls-2" d="M49.53,20.23H44.61V14.87H39.17V31.05h5.44V25.68h4.92v5.37H55V14.87H49.53Zm38-5.36H87L83.65,20.4l-3.37-5.53H74.63V31.05H79.9V23l3.73,5.82,0,0h0v0l3.84-6v8.25h5.27V14.87H87.5ZM57.34,20.31h4.73V31.05h5.45V20.31h4.73V14.87H57.34ZM101,25.6V14.87H95.54V31.05h13V25.6Z"/><polygon class="cls-3" points="73.87 45.45 73.87 127.53 73.87 127.53 101.91 119.58 108.74 45.45 73.87 45.45"/><polygon class="cls-2" points="100.68 56.08 47.04 56.08 50.04 88.53 50.11 88.32 86.75 88.32 85.56 102.05 73.87 105.42 62 102 61.29 93.69 50.51 93.69 52.05 110.29 73.87 116.49 95.68 110.29 98.68 77.72 59.8 77.72 58.79 66.85 99.69 66.85 100.68 56.08"/><path class="cls-4" d="M73.87,56.08H47l3,32.45.07-.21H73.87V77.72H59.8l-1-10.87H73.87ZM61.29,93.69H50.51l1.54,16.6,21.82,6.18v-11L62,102Z"/></svg>