<svg id="Layer_1" data-name="Layer 1" xmlns="http://www.w3.org/2000/svg" viewBox="0 0 150 150"><defs><style>.cls-1{fill:#cd6799;}</style></defs><title>sass</title><path class="cls-1" d="M118.43,83.92a24.82,24.82,0,0,0-10.87,2.52c-1.12-2.21-2.24-4.19-2.43-5.63a14.93,14.93,0,0,1-.22-4.74A41.35,41.35,0,0,1,106.33,71c0-.21-.26-1.25-2.67-1.27s-4.5.46-4.74,1.1a26.74,26.74,0,0,0-1,3.57c-.41,2.19-4.82,10-7.34,14.12a15.2,15.2,0,0,1-1.66-4.12,14.93,14.93,0,0,1-.22-4.74,41,41,0,0,1,1.42-5.1c0-.22-.26-1.25-2.67-1.28s-4.5.46-4.74,1.1-.5,2.13-1,3.57S75.34,92.42,73.8,95.8c-.79,1.73-1.46,3.11-2,4h0a1,1,0,0,1-.08.18c-.42.81-.66,1.25-.66,1.25v0c-.33.59-.68,1.14-.86,1.14a7.37,7.37,0,0,1,0-3.73c.87-4.53,3-11.59,2.93-11.83s.4-1.36-1.35-2a2.19,2.19,0,0,0-2.48.42c-.16,0-.26.37-.26.37s1.9-7.93-3.64-7.93c-3.47,0-8.24,3.79-10.61,7.21l-8.07,4.4c-1.29.73-2.63,1.45-3.88,2.13-.09-.09-.17-.2-.26-.28C36,84,23.57,79,24.09,69.34c.2-3.5,1.41-12.71,23.83-23.89,18.45-9.09,33.14-6.57,35.68-1,3.64,8-7.87,22.8-26.94,24.95-7.27.81-11.09-2-12-3s-1.16-1.16-1.54-.94c-.61.33-.22,1.31,0,1.88.57,1.49,2.92,4.12,6.89,5.42,3.5,1.14,12,1.77,22.35-2.22C83.86,66,92.89,53.6,90.24,43.19S70.06,29.14,53.46,35c-9.86,3.51-20.56,9-28.25,16.22-9.14,8.55-10.59,16-10,19.09C17.34,81.4,32.58,88.59,38.67,93.91l-.83.46c-3.05,1.52-14.67,7.59-17.56,14-3.29,7.28.52,12.49,3,13.19,7.82,2.17,15.86-1.73,20.18-8.17s3.79-14.82,1.8-18.65a.37.37,0,0,0-.09-.14l2.39-1.4c1.56-.92,3.09-1.77,4.41-2.48a28.66,28.66,0,0,0-1.56,8c-.33,4.12,1.36,9.47,3.57,11.58a4,4,0,0,0,2.9.94c2.58,0,3.74-2.15,5-4.69,1.58-3.11,3-6.73,3-6.73s-1.77,9.77,3,9.77c1.75,0,3.53-2.27,4.32-3.44v0l.13-.22c.17-.29.28-.46.28-.46v0c.7-1.23,2.28-4,4.63-8.63,3-6,5.94-13.42,5.94-13.42a37.72,37.72,0,0,0,1.16,4.85A44.92,44.92,0,0,0,87,93.85c-.7,1-1.14,1.53-1.14,1.53l0,0c-.57.75-1.18,1.56-1.86,2.35-2.39,2.85-5.24,6.11-5.64,7.06a1.91,1.91,0,0,0,.53,2.58,4.75,4.75,0,0,0,2.94.49,13.6,13.6,0,0,0,4.4-1,15,15,0,0,0,3.79-2,8.48,8.48,0,0,0,3.64-7.47,15,15,0,0,0-1.38-5.28c.22-.31.42-.62.64-.92a101,101,0,0,0,6.57-11.36,40,40,0,0,0,1.16,4.85,32.64,32.64,0,0,0,2.13,4.82,20.84,20.84,0,0,0-6.4,8.26c-1.38,4-.31,5.79,1.73,6.2a6.13,6.13,0,0,0,3.2-.65,14.7,14.7,0,0,0,4.06-2.09c2.34-1.73,4.6-4.14,4.47-7.4a14.08,14.08,0,0,0-1-4.39,22.92,22.92,0,0,1,11.64-1.34c10.43,1.23,12.49,7.74,12.1,10.48a7,7,0,0,1-3.31,4.69c-.73.46-1,.62-.9.94.09.49.44.46,1,.38a8.17,8.17,0,0,0,5.68-7.26c.33-6.44-5.81-13.48-16.66-13.41ZM38,111.05c-3.47,3.77-8.29,5.2-10.37,4-2.24-1.29-1.36-6.86,2.89-10.85a55.73,55.73,0,0,1,8.13-6.07l2.15-1.29L41,96.7h0l.53-.33A15,15,0,0,1,38,111.05Zm25.2-17.14c-1.2,2.94-3.72,10.46-5.26,10-1.31-.35-2.13-6-.26-11.68a26.57,26.57,0,0,1,4.1-7.52c1.88-2.1,4-2.8,4.47-2,.63,1.12-2.3,9.27-3.05,11.11Zm20.8,10c-.5.27-1,.44-1.2.31s.22-.44.22-.44,2.6-2.8,3.63-4.07c.6-.75,1.3-1.63,2-2.61v.28c0,3.36-3.24,5.61-4.69,6.53Zm16-3.66c-.38-.26-.31-1.14.94-3.88a14.59,14.59,0,0,1,3.57-4.6,6.23,6.23,0,0,1,.35,2A6.61,6.61,0,0,1,100,100.2Z"/></svg>