<svg id="Layer_1" data-name="Layer 1" xmlns="http://www.w3.org/2000/svg" xmlns:xlink="http://www.w3.org/1999/xlink" viewBox="0 0 150 150"><defs><style>.cls-1{fill:url(#radial-gradient);}.cls-2{fill:#ff7f18;}</style><radialGradient id="radial-gradient" cx="-862.74" cy="-177.66" r="0.03" gradientTransform="matrix(2291.67, 0, 0, -2218.75, 1977182.05, -394140.55)" gradientUnits="userSpaceOnUse"><stop offset="0" stop-color="#423325" stop-opacity="0.98"/><stop offset="1" stop-color="#1c0a00"/></radialGradient></defs><title>illustrator</title><path class="cls-1" d="M23.29,24.7H126.71V125.3H23.29Z"/><path class="cls-2" d="M23.29,24.7H126.71V125.3H23.29ZM18.59,130H131.41V20H18.59Zm73.9-70.79c0-.38.14-.57.56-.57h7.38c.38,0,.57.14.57.57V96.3c0,.37-.1.56-.57.56H93.15c-.47,0-.61-.23-.61-.61v-37ZM92,48.54a4.8,4.8,0,1,1,9.59,0c0,3.1-2,4.79-4.89,4.79A4.42,4.42,0,0,1,92,48.54ZM70.82,74.67c-1.32-5.22-4.42-16.59-5.6-22.09h-.09c-1,5.5-3.48,14.81-5.45,22.09ZM57.75,82.29,54,96.39c-.1.38-.24.47-.71.47H46.42c-.47,0-.56-.14-.47-.7L59.3,49.43a14.85,14.85,0,0,0,.47-3.9c0-.33.14-.47.38-.47H70c.33,0,.47.09.56.47l15,50.72c.1.38,0,.61-.37.61H77.35c-.37,0-.61-.09-.7-.42L72.79,82.29Z"/></svg>