<svg id="Layer_1" data-name="Layer 1" xmlns="http://www.w3.org/2000/svg" viewBox="0 0 150 150"><defs><style>.cls-1{fill:#563d7c;}.cls-2{fill:#fff;}</style></defs><title>bootstrap</title><path class="cls-1" d="M20,115.82A14.18,14.18,0,0,0,34.18,130h81.64A14.18,14.18,0,0,0,130,115.82V34.18A14.18,14.18,0,0,0,115.82,20H34.18A14.18,14.18,0,0,0,20,34.18Z"/><path class="cls-2" d="M65.61,68.66V53.08H79.33a21.07,21.07,0,0,1,3.77.33,9.2,9.2,0,0,1,3.22,1.16,6.19,6.19,0,0,1,2.24,2.33,7.76,7.76,0,0,1,.84,3.83q0,4.2-2.52,6.06a10.48,10.48,0,0,1-6.43,1.87ZM51,41.7v66.6H83.24A33.93,33.93,0,0,0,92,107.18a23.27,23.27,0,0,0,7.55-3.45,16.86,16.86,0,0,0,5.27-6,18.25,18.25,0,0,0,2-8.72,18.49,18.49,0,0,0-3-10.68,16,16,0,0,0-9.19-6.2,16.53,16.53,0,0,0,6.76-5.51,14.5,14.5,0,0,0,2.29-8.39A17.84,17.84,0,0,0,102,50.37a12.85,12.85,0,0,0-4.34-5.08A18.76,18.76,0,0,0,91,42.54a41.57,41.57,0,0,0-8.68-.84ZM65.61,96.92V78.64h16a12.31,12.31,0,0,1,7.64,2.19q2.9,2.19,2.9,7.32a9.16,9.16,0,0,1-.89,4.29,7,7,0,0,1-2.38,2.66,10.05,10.05,0,0,1-3.45,1.4,19.52,19.52,0,0,1-4.1.42Z"/></svg>