<svg xmlns="http://www.w3.org/2000/svg" viewBox="0 0 644.13 121.98"><defs><style>.a{fill:#a0a1a2;}.b{fill:#fff;}.c{fill:#a41f35;}.d,.e{fill:#231f20;}.e{fill-rule:evenodd;}</style></defs><title>vc_logo</title><path class="a" d="M107.76,5.92v39.5c0,54.66-51.16,75.5-51.67,75.7l-2.2.87-2.21-.87c-.52-.19-51.67-21-51.67-75.7V6l4.6-1.1C5.45,4.75,25.66,0,54.41,0A234.83,234.83,0,0,1,103,4.91Z"/><path class="b" d="M102,9.55A229.91,229.91,0,0,0,54.41,4.73C26.21,4.73,5.9,9.51,5.71,9.56l-1,.23V45.42c0,51.47,48.21,71.09,48.69,71.29l.45.18.45-.18c.49-.19,48.69-19.82,48.69-71.29V9.76Zm-1.51,35.87c0,47.07-41.77,66.65-46.65,68.78C49,112.07,7.25,92.49,7.25,45.42V11.78A237.12,237.12,0,0,1,54.41,7.25a228.34,228.34,0,0,1,46.12,4.54Z"/><path class="c" d="M100.53,11.78V45.42c0,47.07-41.77,66.65-46.65,68.78C49,112.07,7.25,92.49,7.25,45.42V11.78A237.12,237.12,0,0,1,54.41,7.25,228.34,228.34,0,0,1,100.53,11.78Z"/><path class="b" d="M96.27,21.88c0,.45-.18,1.95-2.46,1.95a8.15,8.15,0,0,0-4.3,1.05c-1.1.76-2.53,2.42-5.19,9.11-.86,2.2-4.13,10.08-7.91,19.19l-4.59,11C66,78.24,61.71,88.41,59.46,93.22c-.7,1.49-1.25,2.72-1.7,3.73-1.62,3.6-2.17,4.81-3.74,4.81-2,0-2.66-1.65-4.6-6.55l-.24-.62L23.91,31.41c-2.16-5.51-3.47-6.32-6.63-7.21a14.67,14.67,0,0,0-3.58-.37,1.89,1.89,0,0,1-2-1.95c0-1.94,2.45-1.94,3.91-1.94,3.32,0,7.05.15,9.53.24,1.22,0,2.12.06,2.53.06l2.9-.08c2.84-.08,7.13-.23,9.74-.23,1.39,0,4,0,4,1.94,0,.45-.16,1.95-2.25,1.95a10.87,10.87,0,0,0-3.42.41.88.88,0,0,0-.62,1c0,1.09,1.28,4.41,2.63,7.93l.08.19L58.17,79.57C64.37,64.76,75,36.1,77.17,29A15.72,15.72,0,0,0,78,25.38a1.39,1.39,0,0,0-.6-1.23A12.41,12.41,0,0,0,74,23.83c-2.19,0-2.35-1.41-2.35-1.83,0-2.06,2.45-2.06,3.48-2.06,2.69,0,5.59.13,7.72.23,1.1,0,2,.08,2.38.08.19,0,.73,0,1.48-.06,1.69-.08,4.49-.24,6.58-.24C95.75,19.94,96.27,21,96.27,21.88Z"/><path class="d" d="M184.66,37.44a6.16,6.16,0,1,1-12.32,0,6.07,6.07,0,0,1,1.13-3.52A4.63,4.63,0,0,1,173,34c-.78.1-2.24.29-4.15,5.33L149.24,90.09h-5.66L123.77,37.46c-1-2.76-2-2.92-2.82-3.06-1.09-.19-2.24-.6-2.24-2.92V28.87h19.64v2.61c0,2.5-1.88,2.85-2.88,3s-1.1.26-1.1.88a7.15,7.15,0,0,0,.5,1.86l.19.54,13.58,36.07,12.79-33.94a13.78,13.78,0,0,0,1.09-4.18c0-1.07-.34-1.17-1.33-1.44s-2.58-.68-2.58-2.82V28.87h16.32v2.61a3.93,3.93,0,0,1-.11,1.05,6.06,6.06,0,0,1,3.66-1.25A6.24,6.24,0,0,1,184.66,37.44Z"/><path class="d" d="M219.15,52.16c0,3.34-3,5.33-5.92,5.33a8.31,8.31,0,0,1-3.47-.83,3.56,3.56,0,0,0-.94-.34c-3.1,0-6.73,11.44-6.73,17.31v7.72c0,2.51.58,2.51,1.86,2.54,1,0,3.21,0,3.21,3v2.59H170V86.91a2.71,2.71,0,0,1,2.56-3c.94-.19,1.51-.31,1.51-2.58V55.74c0-2.27-.57-2.38-1.51-2.58a2.71,2.71,0,0,1-2.56-3V47.61l14.25-.39V81.34c0,2.27.55,2.38,1.46,2.58a3,3,0,0,1,2,1.05,3,3,0,0,1,2.58-1.1c1.2,0,1.75-.08,1.75-2.51V55.79c0-2.46-.58-2.48-1.75-2.53-1,0-3.08-.15-3.08-3.06V47.62l15-.41V55c2.09-4.41,5.56-8.72,10.47-8.72C216.47,46.33,219.15,48.72,219.15,52.16Z"/><path class="d" d="M272.74,37.44a6.17,6.17,0,1,1-6.18-6.16A6.26,6.26,0,0,1,272.74,37.44Z"/><path class="d" d="M331.72,37.44a6.17,6.17,0,1,1-6.18-6.16A6.26,6.26,0,0,1,331.72,37.44Z"/><path class="d" d="M332.77,83.92c-.92-.19-1.48-.31-1.48-2.58V47.22l-14.25.39v2.56a2.71,2.71,0,0,0,2.58,3c.94.19,1.51.31,1.51,2.58v25.6c0,2.27-.57,2.38-1.51,2.58a4.09,4.09,0,0,0-1.43.5,3.8,3.8,0,0,0-1.62-.5c-1.05-.15-1.64-.23-1.64-2.58V58.65c0-7.94-5.09-12.32-14.31-12.32a18.62,18.62,0,0,0-11.8,3.84V47.22l-13.75.39v2.72a2.61,2.61,0,0,0,2.53,2.84c1,.18,1.56.28,1.56,2.58v25.6c0,2.27-.57,2.38-1.52,2.58a3.17,3.17,0,0,0-2,1,3,3,0,0,0-1.9-1c-.92-.19-1.48-.31-1.48-2.58V47.22l-14.13.39c-.31-3-3.06-4.6-5.8-4.6a7.46,7.46,0,0,0-7.12,5.37,20.11,20.11,0,0,0-8.59-2c-9,0-18.56,5.64-18.56,16.06a14.17,14.17,0,0,0,6.66,11.88l-6.79,14A1.82,1.82,0,0,0,218,90a1.66,1.66,0,0,0,1.44.75,12.91,12.91,0,0,0,2-.32A60.41,60.41,0,0,1,233.51,89c3.24,0,13.79.45,13.79,6.22,0,4.7-7.55,6.22-11.22,6.22-5.64,0-8.22-1-8.22-2a3.55,3.55,0,0,1,.18-.84,6.59,6.59,0,0,0,.32-1.82c0-3-2.9-4.77-5.59-4.77-3.47,0-6,2.35-6,5.59,0,7.5,12.25,9.48,18.72,9.48,10.18,0,21.14-4.47,21.14-14.31,0-1.31-.58-12.8-20.55-12.8a43,43,0,0,0-7.94.84l2-4.12a20.49,20.49,0,0,0,6.35.79c10.24,0,18-6.94,18-16.13A13.61,13.61,0,0,0,251,52.73a13.74,13.74,0,0,1-1-1.44,4.46,4.46,0,0,0,3.47,1.39,4.56,4.56,0,0,0,4.6-3.39v.88a2.71,2.71,0,0,0,2.56,3c1,.19,1.52.31,1.52,2.58v25.6c0,2.27-.57,2.38-1.52,2.58a2.71,2.71,0,0,0-2.56,3v2.59h35.76V86.91c0-2.61-1.83-2.87-2.8-3s-1.69-.24-1.69-2.58V56.65a11.4,11.4,0,0,1,8.22-4.15c6.73,0,7.23,3.36,7.23,8.48V81.34c0,2.33-.6,2.43-1.69,2.58s-2.8.39-2.8,3v2.59h35V86.91A2.7,2.7,0,0,0,332.77,83.92ZM236.41,72.68c-5.69,0-7.72-5.4-7.72-10.45,0-1.85.37-11.05,7.81-11.05,5.45,0,7.37,5.59,7.37,10.39C243.88,65.7,242.31,72.68,236.41,72.68Z"/><path class="d" d="M376.15,84.08,375,82.44l-.94.83c-.62.55-.94.81-1.52.81a1.66,1.66,0,0,1-1.23-.49c-1.36-1.36-1.34-5.14-1.33-7V63.22c0-4-1.26-16.89-17.64-16.89-4.28,0-13.65,2.06-13.65,8.17a5.17,5.17,0,0,0,5.41,5.17,5.8,5.8,0,0,0,5.9-5.46c.24-2.09.71-2.61,2.42-2.61,4.52,0,6.92,3.61,7.12,10.73-20.42,2.25-24.75,9.76-24.75,15.69,0,8.36,7.52,12.74,15,12.74,5.2,0,8.45-1.88,11.62-5a8.73,8.73,0,0,0,8,5c3.27,0,7.5-2.38,7.5-4.93A2.8,2.8,0,0,0,376.15,84.08Zm-16.29-9.71c0,8.06-5.22,10.21-8.32,10.21-4.21,0-5.72-3.31-5.72-6.39,0-7.93,9.58-10,14-10.6Z"/><path class="d" d="M450.91,46.36c-12.19,0-21.72,9.9-21.72,22.55a22.66,22.66,0,0,0,1,6.61l-.83-.65-1.48,1.72c-3.37,3.94-6.84,8-13.84,8-12.64,0-17.12-13.79-17.12-25.59,0-6.09,1.09-25.93,15.21-25.93,8.19,0,10.08,5.32,11.6,9.6,1,2.8,1.93,5.46,4.6,5.46h3.18V30.65h-5.19l-.21.83c0,.1-.13.42-.28.42a7,7,0,0,1-2.16-1,22.38,22.38,0,0,0-12.06-3.48c-18,0-26.13,18.58-26.13,31.77,0,15.84,9.29,31.85,27,31.85C421,91,426.8,88,432.33,80.45a21.83,21.83,0,0,0,19.06,10.34c12.19,0,21.72-9.9,21.72-22.55C473.11,55.76,463.57,46.36,450.91,46.36Zm.41,39.16c-9.32,0-10.71-10.88-10.71-17.36,0-3.87.76-16.53,10.39-16.53,8.85,0,10.71,9.45,10.71,17.36C461.7,74,460.68,85.52,451.31,85.52Z"/><path class="d" d="M507.9,86.95v2.59H471.66V86.95c0-2.61,1.8-2.87,2.77-3s1.64-.23,1.64-2.58V37.07c0-2.35-.58-2.43-1.64-2.58s-2.77-.39-2.77-3V28.93l14.57-.39V81.37c0,2.32.55,2.42,1.57,2.59a2.8,2.8,0,0,0,4.05,0c1.07-.15,1.64-.23,1.64-2.58V37.07c0-2.35-.57-2.43-1.64-2.58a2.69,2.69,0,0,1-2.76-3V28.93l14.57-.39V81.37c0,2.32.55,2.42,1.57,2.59A2.68,2.68,0,0,1,507.9,86.95Z"/><path class="d" d="M543.45,77.29l-.66.81c-3.75,4.51-7.25,6.52-11.38,6.52a11.92,11.92,0,0,1-9-3.76c-2.82-3-4.43-7.6-4.38-12.51h28.75l0-1.07c.19-6.29-1.73-11.86-5.46-15.71a17.62,17.62,0,0,0-13-5.2c-12.19,0-21.06,9.17-21.06,21.8,0,13.11,9.45,22.63,22.46,22.63,7.38,0,13-2.92,17.59-9.17l.65-.88ZM527.82,52a7.21,7.21,0,0,1,5.51,2.17c1.65,1.77,2.54,4.62,2.51,7.94H518.4C518.89,58.74,520.75,52,527.82,52Z"/><path class="d" d="M589.07,48.21c0-3.39-2.93-5.17-5.83-5.17a7.5,7.5,0,0,0-7.13,5.35,20.44,20.44,0,0,0-8.57-2c-9,0-18.56,5.62-18.56,16.06a14.17,14.17,0,0,0,6.66,11.88l-6.79,14a1.82,1.82,0,0,0,0,1.75,1.61,1.61,0,0,0,1.44.76,13,13,0,0,0,2-.32A60.29,60.29,0,0,1,564.37,89c3.23,0,13.8.45,13.8,6.22,0,4.7-7.55,6.22-11.22,6.22-5.64,0-8.22-1-8.22-2a3.44,3.44,0,0,1,.18-.84,6.56,6.56,0,0,0,.32-1.83c0-2.93-2.9-4.75-5.59-4.75-3.47,0-6,2.35-6,5.59,0,7.51,12.25,9.48,18.72,9.48,10.18,0,21.14-4.47,21.14-14.31C587.5,91.53,586.92,80,567,80a43,43,0,0,0-7.94.86l2-4.12a20.53,20.53,0,0,0,6.35.79c10.24,0,18-6.94,18-16.15a13.6,13.6,0,0,0-3.45-8.66,12.17,12.17,0,0,1-1-1.46,4.38,4.38,0,0,0,3.47,1.41A4.54,4.54,0,0,0,589.07,48.21Zm-21.8,24.51c-5.69,0-7.72-5.4-7.72-10.46,0-1.85.37-11.05,7.81-11.05,5.45,0,7.37,5.59,7.37,10.39C574.75,65.73,573.17,72.71,567.27,72.71Z"/><path class="d" d="M623.19,77.29l-.66.81c-3.74,4.51-7.25,6.52-11.38,6.52a11.92,11.92,0,0,1-9-3.76c-2.82-3-4.42-7.6-4.39-12.51H626.5l0-1.07c.19-6.29-1.73-11.86-5.46-15.71a17.63,17.63,0,0,0-13-5.2c-12.2,0-21.05,9.17-21.05,21.8,0,13.11,9.45,22.63,22.46,22.63,7.37,0,13-2.92,17.59-9.17l.65-.88ZM607.57,52a7.21,7.21,0,0,1,5.51,2.17c1.65,1.77,2.54,4.62,2.5,7.94H598.15C598.64,58.74,600.5,52,607.57,52Z"/><path class="e" d="M637.57,77.63a6.72,6.72,0,0,1,3.23.85,6,6,0,0,1,2.46,2.43,6.58,6.58,0,0,1,0,6.55,6.09,6.09,0,0,1-2.43,2.44,6.63,6.63,0,0,1-6.54,0,6.17,6.17,0,0,1-2.43-2.44,6.56,6.56,0,0,1,0-6.55,6.07,6.07,0,0,1,2.46-2.43,6.72,6.72,0,0,1,3.23-.85Zm0,1.09a5.59,5.59,0,0,0-2.7.71,5.05,5.05,0,0,0-2,2,5.46,5.46,0,0,0,0,5.47,5.21,5.21,0,0,0,2,2,5.5,5.5,0,0,0,5.45,0,5.15,5.15,0,0,0,2-2,5.6,5.6,0,0,0,.73-2.73,5.51,5.51,0,0,0-.74-2.74,5,5,0,0,0-2-2,5.56,5.56,0,0,0-2.69-.71Zm-2.88,9.11V80.77h2.43a5.77,5.77,0,0,1,1.8.2,1.73,1.73,0,0,1,.89.68,1.82,1.82,0,0,1,.33,1,1.88,1.88,0,0,1-.56,1.35,2.18,2.18,0,0,1-1.46.65,1.94,1.94,0,0,1,.6.37,8,8,0,0,1,1,1.4l.86,1.38h-1.39l-.63-1.11a5.68,5.68,0,0,0-1.19-1.65,1.47,1.47,0,0,0-.91-.24h-.67v3Zm1.14-4h1.38a2.21,2.21,0,0,0,1.35-.3,1,1,0,0,0,.19-1.34,1,1,0,0,0-.49-.37,3.59,3.59,0,0,0-1.14-.12h-1.29v2.13Z"/></svg>