<?xml version="1.0" encoding="utf-8"?>
<!-- Generator: Adobe Illustrator 21.1.0, SVG Export Plug-In . SVG Version: 6.00 Build 0)  -->
<!DOCTYPE svg PUBLIC "-//W3C//DTD SVG 1.1//EN" "http://www.w3.org/Graphics/SVG/1.1/DTD/svg11.dtd">
<svg version="1.1" id="Layer_1" xmlns="http://www.w3.org/2000/svg" xmlns:xlink="http://www.w3.org/1999/xlink" x="0px" y="0px"
	 viewBox="0 0 508.4 55.7" style="enable-background:new 0 0 508.4 55.7;" xml:space="preserve">
<style type="text/css">
	.st0{fill:none;stroke:#FFFFFF;stroke-miterlimit:10;}
	.st1{fill:#FFFFFF;}
	.st2{fill:#B30838;}
</style>
<title>vc-pf-logo</title>
<g>
	<line class="st0" x1="312.1" y1="1.4" x2="312.1" y2="54.3"/>
	<g>
		<path class="st1" d="M35.3,11.3C34.5,12.1,27,16.2,15.6,34l-2.2,2c4.8-10.2,12.5-18.9,22-25C35.4,11,35.8,10.9,35.3,11.3
			 M36.8,6.5c-2.7,1-5.3,2.3-7.7,3.7c-0.6,0.4-1,0.6-1,0.6c-1,0.6-1.7,4.4-1.7,4.4c0.1-1,0-2.1-0.2-3.1
			c-6.9,4.4-13.5,16.3-13.5,16.3c-0.6,0.7,0,4.7,0.3,5.9l0,0L11.7,31c-1.7,0.2-1.5,6.5-1.5,6.5l-0.7,3c-1.3,2.5-2.4,5-3.3,7.6
			l3.1-2.7c0.6-1.1,1.2-2.2,1.8-3.3c0.7-1,1.1-1.5,1.1-1.5c0.9-0.9,1.8-1.6,2.8-2.3c0.4-0.3,0.9-0.6,1.4-0.9l1.3-0.7
			c1.7-1,3.3-2.1,4.9-3.3c1.5-1.2,2.8-2.4,4.1-3.8c1.2-1.2,2.3-2.5,3.3-3.8s1.8-2.3,2.6-3.4c0.6-0.9,1.2-1.8,1.7-2.6
			c-1.5-0.3-3-0.4-4.5-0.5c1.8-0.2,3.6-0.5,5.3-1l5-6.9l3-4.1l2-2.7c-2.9,0.4-5.8,1-8.6,2"/>
		<polygon class="st1" points="40.4,45.6 4.9,47.3 3.1,12.1 25.7,10.9 33,6.9 0,6.9 0,51.2 43.9,51.2 43.9,8.6 40.4,14 		"/>
		<path class="st1" d="M65.1,24.1c0-1.4-1.1-2.6-2.6-2.6c-0.1,0-0.2,0-0.4,0h-4.8v5h4.8c1.4,0.2,2.7-0.8,2.9-2.3c0-0.1,0-0.2,0-0.2
			 M51.3,39.6V16.2H63c4.2-0.3,7.8,2.8,8.2,7c0,0.3,0,0.6,0,0.8c0.1,4.2-3.1,7.7-7.3,7.8c-0.3,0-0.6,0-0.8,0h-5.7v7.9L51.3,39.6z"/>
		<polygon class="st1" points="74.7,39.8 74.7,16.2 92,16.2 92,21.5 80.8,21.5 80.8,25.2 91.7,25.2 91.7,30.5 80.8,30.5 80.8,34.4 
			92,34.4 92,39.8 		"/>
		<polygon class="st1" points="112.2,39.8 102.3,26.1 102.3,39.8 96.2,39.8 96.2,16.2 102.4,16.2 111.9,29.2 111.9,16.2 118.1,16.2 
			118.1,39.8 		"/>
		<polygon class="st1" points="139,39.8 129.1,26.1 129.1,39.8 123,39.8 123,16.2 129.2,16.2 138.8,29.2 138.8,16.2 144.9,16.2 
			144.9,39.8 		"/>
		<polygon class="st1" points="154.2,39.7 154.2,16.2 171.4,16.2 171.4,21.5 160.2,21.5 160.2,25.2 171.2,25.2 171.2,30.4 
			160.2,30.4 160.2,39.7 		"/>
		<path class="st1" d="M193.2,28c0.2-3.5-2.5-6.5-6.1-6.7c-3.5-0.2-6.5,2.5-6.7,6.1c0,0.2,0,0.4,0,0.7c-0.2,3.5,2.5,6.5,6.1,6.7
			c3.5,0.2,6.5-2.5,6.7-6.1C193.2,28.4,193.2,28.2,193.2,28 M174.2,28c-0.2-6.9,5.2-12.8,12.2-13c6.9-0.2,12.8,5.2,13,12.2
			c0.2,6.9-5.2,12.8-12.2,13c-0.1,0-0.3,0-0.4,0c-6.6,0.3-12.2-4.8-12.6-11.4C174.2,28.5,174.2,28.3,174.2,28"/>
		<path class="st1" d="M201.4,36.5l3.2-4.7c2,2,4.7,3.1,7.5,3c2,0,3.3-0.7,3.3-1.9c0-3.1-13.3-0.5-13.3-9.6c0-3.9,3.3-7.5,9.3-7.5
			c3.5-0.1,6.9,1.1,9.6,3.3l-3.3,4.6c-1.9-1.6-4.4-2.5-6.9-2.5c-1.8,0-2.5,0.6-2.5,1.7c0,2.9,13.3,0.7,13.3,9.5
			c0,4.7-3.5,7.9-9.8,7.9C208,40.4,204.3,39.1,201.4,36.5"/>
		<polygon class="st1" points="229.8,39.7 229.8,21.5 223.3,21.5 223.3,16.2 242.5,16.2 242.5,21.5 235.9,21.5 235.9,39.7 		"/>
		<polygon class="st1" points="246.1,39.7 246.1,16.2 263.3,16.2 263.3,21.5 252.1,21.5 252.1,25.2 263.1,25.2 263.1,30.4 
			252.1,30.4 252.1,34.4 263.3,34.4 263.3,39.7 		"/>
		<path class="st1" d="M281.3,24c0-1.4-1.2-2.6-2.7-2.5c-0.1,0-0.2,0-0.3,0h-4.8v5h4.8c1.4,0.2,2.7-0.8,2.9-2.2
			C281.3,24.2,281.4,24.1,281.3,24 M280.7,39.7l-3.9-7.9h-3.1v7.9h-6.1V16.2h11.7c4.2-0.3,7.8,2.8,8.2,6.9c0,0.3,0,0.6,0,0.9
			c0.2,3.1-1.7,6-4.7,7.1l4.8,8.6H280.7z"/>
	</g>
	<g>
		<g>
			<path class="st1" d="M365.2,21.3v10.5c0,14.6-13.7,20.1-13.8,20.2l-0.6,0.2l-0.6-0.2c-0.1-0.1-13.7-5.6-13.7-20.2V21.4l1.2-0.3
				c4.4-0.9,8.8-1.4,13.3-1.3c4.4,0,8.7,0.4,13,1.3L365.2,21.3z"/>
			<path class="st2" d="M363.7,22.3c-4.2-0.9-8.4-1.3-12.7-1.3c-4.4,0-8.7,0.4-13,1.3l-0.3,0.1v9.5c0,13.7,12.9,19,13,19h0.1h0.1
				c0.1-0.1,13-5.3,13-19v-9.5L363.7,22.3z M363.3,31.9c0,12.6-11.1,17.8-12.5,18.4c-1.3-0.6-12.4-5.8-12.4-18.4v-9
				c4.1-0.8,8.4-1.2,12.6-1.2c4.1,0,8.3,0.4,12.3,1.2V31.9z"/>
			<path class="st2" d="M363.3,22.9v9c0,12.6-11.1,17.8-12.5,18.4c-1.3-0.6-12.4-5.8-12.4-18.4v-9c4.1-0.8,8.4-1.2,12.6-1.2
				C355.1,21.7,359.2,22.1,363.3,22.9z"/>
			<path class="st1" d="M362.2,25.6c0,0.1,0,0.5-0.7,0.5c-0.4,0-0.8,0.1-1.1,0.3c-0.3,0.2-0.7,0.6-1.4,2.4c-0.2,0.6-1.1,2.7-2.1,5.1
				l-1.2,2.9c-1.6,3.7-2.7,6.5-3.3,7.8c-0.2,0.4-0.3,0.7-0.5,1c-0.4,1-0.6,1.3-1,1.3c-0.5,0-0.7-0.4-1.2-1.7l-0.1-0.2l-6.8-16.9
				c-0.6-1.5-0.9-1.7-1.8-1.9c-0.3-0.1-0.6-0.1-1-0.1c-0.3,0-0.5-0.2-0.5-0.5c0,0,0,0,0-0.1c0-0.5,0.7-0.5,1-0.5
				c0.9,0,1.9,0,2.5,0.1h0.7h0.8c0.8,0,1.9-0.1,2.6-0.1c0.4,0,1.1,0,1.1,0.5c0,0.1,0,0.5-0.6,0.5c-0.3,0-0.6,0-0.9,0.1
				c-0.1,0-0.2,0.1-0.2,0.3c0.2,0.7,0.4,1.4,0.7,2.1v0.1l4.7,12.3c1.6-4,4.5-11.6,5.1-13.5c0.1-0.3,0.2-0.6,0.2-0.9
				c0-0.1-0.1-0.3-0.2-0.3c-0.3-0.1-0.6-0.1-0.9-0.1c-0.6,0-0.6-0.4-0.6-0.5c0-0.5,0.7-0.5,0.9-0.5c0.7,0,1.5,0,2.1,0.1h0.6h0.4
				c0.4,0,1.2-0.1,1.8-0.1C362,25.1,362.2,25.4,362.2,25.6z"/>
			<path class="st1" d="M385.7,29.8c0,0.9-0.7,1.6-1.6,1.6s-1.6-0.7-1.6-1.6c0-0.3,0.1-0.7,0.3-0.9h-0.1c-0.2,0-0.6,0.1-1.1,1.4
				l-5.2,13.5h-1.5l-5.3-14c-0.3-0.7-0.5-0.8-0.8-0.8s-0.6-0.2-0.6-0.8v-0.7h5.2v0.7c0,0.7-0.5,0.8-0.8,0.8
				c-0.3,0.1-0.3,0.1-0.3,0.2c0,0.2,0.1,0.3,0.1,0.5l0.1,0.1l3.6,9.6l3.4-9.1c0.2-0.4,0.3-0.7,0.3-1.1c0-0.3-0.1-0.3-0.4-0.4
				c-0.4,0-0.7-0.4-0.7-0.8v-0.7h4.4v0.9c0,0.1,0,0.2,0,0.3c0.3-0.2,0.6-0.3,1-0.3C385,28.1,385.7,28.9,385.7,29.8z"/>
			<path class="st1" d="M394.9,33.7c0,0.8-0.7,1.5-1.6,1.4l0,0c-0.3,0-0.6-0.1-0.9-0.2c-0.1,0-0.2-0.1-0.3-0.1
				c-0.8,0-1.8,3.1-1.8,4.6v2.1c0,0.7,0.2,0.7,0.5,0.7s0.9,0,0.9,0.8v0.7h-9.9V43c0-0.4,0.2-0.8,0.6-0.8l0,0
				c0.3-0.1,0.4-0.1,0.4-0.7v-6.8c0-0.6-0.1-0.6-0.4-0.7c-0.4,0-0.7-0.4-0.7-0.8l0,0v-0.7l3.8-0.1v9.1c0,0.6,0.1,0.6,0.4,0.7
				c0.2,0,0.4,0.1,0.5,0.3c0.2-0.2,0.4-0.3,0.7-0.3c0.3,0,0.5,0,0.5-0.7v-6.8c0-0.7-0.2-0.7-0.5-0.7c-0.4,0.1-0.8-0.2-0.8-0.6
				c0-0.1,0-0.1,0-0.2v-0.7l4-0.1v2.1c0.6-1.2,1.5-2.3,2.8-2.3c0.9-0.1,1.6,0.6,1.7,1.4C394.9,33.6,394.9,33.6,394.9,33.7z"/>
			<path class="st1" d="M409.2,29.8c0,0.9-0.7,1.6-1.6,1.6s-1.6-0.7-1.6-1.6s0.7-1.6,1.6-1.6C408.5,28.1,409.2,28.8,409.2,29.8z"/>
			<path class="st1" d="M425,29.8c0,0.9-0.7,1.6-1.6,1.6s-1.6-0.7-1.6-1.6s0.7-1.6,1.6-1.6C424.2,28.1,425,28.8,425,29.8z"/>
			<path class="st1" d="M425.3,42.2c-0.2-0.1-0.4-0.1-0.4-0.7v-9.1l-3.8,0.1v0.7c0,0.4,0.2,0.8,0.6,0.8l0,0c0.3,0.1,0.4,0.1,0.4,0.7
				v6.8c0,0.6-0.1,0.6-0.4,0.7c-0.1,0-0.3,0.1-0.4,0.1c-0.1-0.1-0.3-0.1-0.4-0.1c-0.3,0-0.4-0.1-0.4-0.7v-6.1c0-2.1-1.4-3.3-3.8-3.3
				c-1.1,0-2.2,0.3-3.1,1v-0.8l-3.7,0.1v0.8c0,0.4,0.2,0.7,0.6,0.8c0,0,0,0,0.1,0c0.3,0,0.4,0.1,0.4,0.7v6.8c0,0.6-0.1,0.6-0.4,0.7
				c-0.2,0-0.4,0.1-0.5,0.3c-0.1-0.1-0.3-0.2-0.5-0.3s-0.4-0.1-0.4-0.7v-9.1l-3.8,0.1c-0.1-0.8-0.8-1.3-1.5-1.2
				c-0.9,0-1.7,0.6-1.9,1.4c-0.7-0.3-1.5-0.5-2.3-0.5c-2.4,0-5,1.5-5,4.3c0,1.3,0.7,2.5,1.8,3.2l-1.8,3.7c-0.1,0.1-0.1,0.3,0,0.5
				c0.1,0.1,0.2,0.2,0.4,0.2c0.2,0,0.4,0,0.5-0.1c1.1-0.2,2.1-0.4,3.2-0.4c0.9,0,3.7,0.1,3.7,1.7c0,1.3-2,1.7-3,1.7
				c-1.5,0-2.2-0.3-2.2-0.5c0-0.1,0-0.2,0-0.2c0.1-0.2,0.1-0.3,0.1-0.5c-0.1-0.8-0.7-1.3-1.5-1.3c-0.8-0.1-1.5,0.6-1.6,1.4V46
				c0,2,3.3,2.5,5,2.5c2.7,0,5.6-1.2,5.6-3.8c0-0.4-0.2-3.4-5.5-3.4c-0.7,0-1.4,0.1-2.1,0.2l0.5-1.1c0.6,0.2,1.1,0.2,1.7,0.2
				c2.7,0,4.8-1.9,4.8-4.3c0-0.9-0.4-1.7-0.9-2.3c-0.1-0.1-0.2-0.2-0.3-0.4c0.2,0.3,0.6,0.4,0.9,0.4c0.6,0,1.1-0.3,1.2-0.9v0.2
				c0,0.4,0.2,0.8,0.6,0.8l0,0c0.3,0.1,0.4,0.1,0.4,0.7v6.8c0,0.6-0.1,0.6-0.4,0.7c-0.4,0-0.7,0.4-0.7,0.8l0,0v0.7h9.6v-0.7
				c0-0.4-0.2-0.8-0.6-0.8H414c-0.3,0-0.4-0.1-0.4-0.7V35c0.5-0.7,1.3-1.1,2.2-1.1c1.8,0,1.9,0.9,1.9,2.3v5.4c0,0.6-0.2,0.7-0.4,0.7
				c-0.4,0-0.7,0.3-0.8,0.7v0.1v0.7h9.3v-0.7C426,42.6,425.7,42.2,425.3,42.2L425.3,42.2z M399.6,39.2c-1.5,0-2.1-1.4-2.1-2.8
				c0-0.5,0.1-3,2.1-3c1.5,0,2,1.5,2,2.8C401.5,37.3,401.1,39.2,399.6,39.2L399.6,39.2z"/>
			<path class="st1" d="M436.8,42.2l-0.3-0.4l-0.3,0.2c-0.2,0.1-0.3,0.2-0.4,0.2s-0.2,0-0.3-0.1c-0.4-0.4-0.4-1.4-0.4-1.9v-3.6
				c0-1.1-0.3-4.5-4.7-4.5c-1.1,0-3.6,0.5-3.6,2.2c0,0.8,0.6,1.4,1.4,1.4c0,0,0,0,0.1,0c0.8,0,1.5-0.6,1.6-1.5
				c0.1-0.6,0.2-0.7,0.6-0.7c1.2,0,1.8,1,1.9,2.9c-5.5,0.6-6.6,2.6-6.6,4.2c0,2.2,2,3.4,4,3.4c1.2,0,2.3-0.5,3.1-1.3
				c0.4,0.8,1.2,1.3,2.1,1.3s2-0.6,2-1.3C437.1,42.5,437,42.3,436.8,42.2z M432.5,39.6c0,2.2-1.4,2.7-2.2,2.7
				c-1.1,0-1.5-0.9-1.5-1.7c0-2.1,2.6-2.7,3.7-2.8V39.6z"/>
			<path class="st1" d="M456.8,32.1c-3.2,0-5.8,2.7-5.8,5.9v0.1c0,0.6,0.1,1.2,0.3,1.8l-0.2-0.2l-0.4,0.5c-0.9,1.1-1.8,2.1-3.7,2.1
				c-3.4,0-4.6-3.7-4.6-6.8c0-1.6,0.3-6.9,4.1-6.9c2.2,0,2.7,1.4,3.1,2.6c0.3,0.7,0.5,1.5,1.2,1.5h0.8V28h-1.4l-0.1,0.2
				c0,0,0,0.1-0.1,0.1c-0.2-0.1-0.4-0.1-0.6-0.3c-1-0.6-2.1-0.9-3.2-0.9c-4.8,0-7,5-7,8.5c0,4.2,2.5,8.5,7.2,8.5
				c2.3,0,3.8-0.8,5.3-2.8c1.7,2.8,5.4,3.6,8.1,1.9c1.8-1.1,2.8-3,2.8-5.1c0-3.2-2.5-5.8-5.7-5.8C456.9,32.1,456.9,32.1,456.8,32.1z
				 M456.9,42.6c-2.5,0-2.9-2.9-2.9-4.6c0-1,0.2-4.4,2.8-4.4c2.4,0,2.9,2.5,2.9,4.6C459.7,39.5,459.4,42.6,456.9,42.6z"/>
			<path class="st1" d="M472,43v0.7h-9.7V43c0-0.4,0.2-0.8,0.6-0.8h0.1c0.3,0,0.4-0.1,0.4-0.7V29.7c0-0.6-0.2-0.7-0.4-0.7
				c-0.4,0-0.7-0.3-0.7-0.7v-0.1v-0.7l3.9-0.1v14.1c0,0.6,0.1,0.6,0.4,0.7c0.3,0.3,0.8,0.3,1.1,0l0,0c0.3,0,0.4-0.1,0.4-0.7V29.7
				c0-0.6-0.1-0.7-0.4-0.7c-0.4,0-0.7-0.3-0.7-0.7v-0.1v-0.7l3.9-0.1v14.1c0,0.6,0.1,0.6,0.4,0.7C471.7,42.2,472,42.5,472,43
				C472,42.9,472,42.9,472,43z"/>
			<path class="st1" d="M481.5,40.4l-0.2,0.2c-1,1.2-1.9,1.7-3,1.7c-0.9,0-1.8-0.3-2.4-1c-0.8-0.9-1.2-2.1-1.2-3.3h7.7v-0.3
				c0.1-1.5-0.4-3-1.5-4.2c-0.9-0.9-2.2-1.4-3.5-1.4c-3.3,0-5.6,2.5-5.6,5.8c-0.1,3.2,2.4,5.9,5.6,6c0.1,0,0.3,0,0.4,0
				c1.9,0,3.7-0.9,4.7-2.5l0.2-0.2L481.5,40.4z M477.3,33.6c0.6,0,1.1,0.2,1.5,0.6c0.5,0.6,0.7,1.4,0.7,2.1h-4.7
				C474.9,35.4,475.4,33.7,477.3,33.6L477.3,33.6z"/>
			<path class="st1" d="M493.7,32.6c0-0.8-0.7-1.4-1.5-1.4c0,0,0,0-0.1,0c-0.9,0-1.6,0.6-1.9,1.4c-0.7-0.3-1.5-0.5-2.3-0.5
				c-2.4,0-5,1.5-5,4.3c0,1.3,0.7,2.5,1.8,3.2l-1.9,3.7c-0.1,0.1-0.1,0.3,0,0.5c0.1,0.1,0.2,0.2,0.4,0.2c0.2,0,0.4,0,0.5-0.1
				c1.1-0.2,2.1-0.4,3.2-0.4c0.9,0,3.7,0.1,3.7,1.7c0,1.3-2,1.7-3,1.7c-1.5,0-2.2-0.3-2.2-0.5c0-0.1,0-0.2,0-0.2
				c0.1-0.2,0.1-0.3,0.1-0.5c-0.1-0.8-0.7-1.3-1.5-1.3c-0.8-0.1-1.5,0.6-1.6,1.4v0.1c0,2,3.3,2.5,5,2.5c2.7,0,5.6-1.2,5.6-3.8
				c0-0.4-0.2-3.4-5.5-3.4c-0.7,0-1.4,0.1-2.1,0.2l0.5-1.1c0.6,0.2,1.1,0.2,1.7,0.2c2.7,0,4.8-1.9,4.8-4.3c0-0.9-0.4-1.7-0.9-2.3
				c-0.1-0.1-0.2-0.3-0.3-0.4c0.2,0.3,0.6,0.4,0.9,0.4c0.7,0.1,1.2-0.4,1.3-1.1C493.7,32.7,493.7,32.7,493.7,32.6z M487.8,39.2
				c-1.5,0-2.1-1.4-2.1-2.8c0-0.5,0.1-3,2.1-3c1.5,0,2,1.5,2,2.8C489.8,37.3,489.4,39.2,487.8,39.2L487.8,39.2z"/>
			<path class="st1" d="M502.8,40.4l-0.2,0.2c-1,1.2-1.9,1.7-3,1.7c-0.9,0-1.8-0.3-2.4-1c-0.8-0.9-1.2-2.1-1.2-3.3h7.7v-0.3
				c0.1-1.5-0.4-3-1.5-4.2c-0.9-0.9-2.2-1.4-3.5-1.4c-3.3,0-5.6,2.5-5.6,5.8c-0.1,3.2,2.4,5.9,5.6,6c0.1,0,0.3,0,0.4,0
				c1.9,0,3.7-0.9,4.7-2.5l0.2-0.2L502.8,40.4z M498.6,33.6c0.6,0,1.1,0.2,1.5,0.6c0.5,0.6,0.7,1.4,0.7,2.1h-4.7
				C496.2,35.4,496.7,33.7,498.6,33.6L498.6,33.6z"/>
			<path class="st1" d="M506.6,40.5c0.3,0,0.6,0.1,0.9,0.2c0.3,0.1,0.5,0.4,0.7,0.6c0.3,0.5,0.3,1.2,0,1.8c-0.1,0.3-0.4,0.5-0.6,0.7
				c-0.5,0.3-1.2,0.3-1.7,0c-0.3-0.2-0.5-0.4-0.6-0.7c-0.3-0.5-0.3-1.2,0-1.8c0.2-0.3,0.4-0.5,0.7-0.6
				C506,40.6,506.3,40.5,506.6,40.5L506.6,40.5z M506.6,40.8c-0.3,0-0.5,0.1-0.7,0.2c-0.2,0.1-0.4,0.3-0.5,0.5c-0.3,0.5-0.3,1,0,1.5
				c0.1,0.2,0.3,0.4,0.5,0.5c0.5,0.3,1,0.3,1.5,0c0.2-0.1,0.4-0.3,0.5-0.5s0.2-0.5,0.2-0.7c0-0.3-0.1-0.5-0.2-0.7s-0.3-0.4-0.5-0.5
				C507.1,40.8,506.9,40.8,506.6,40.8L506.6,40.8z M505.8,43.2v-1.9h0.6c0.2,0,0.3,0,0.5,0.1c0.1,0,0.2,0.1,0.2,0.2
				c0.1,0.1,0.1,0.2,0.1,0.3s-0.1,0.3-0.1,0.4c-0.1,0.1-0.2,0.2-0.4,0.2c0.1,0,0.1,0.1,0.2,0.1c0.1,0.1,0.2,0.2,0.3,0.4l0.2,0.4H507
				l-0.2-0.3c-0.1-0.2-0.2-0.3-0.3-0.4c-0.1,0-0.2-0.1-0.2-0.1h-0.2v0.6H505.8z M506.1,42.1h0.4c0.1,0,0.3,0,0.4-0.1
				s0.1-0.2,0.1-0.4l-0.1-0.1c-0.1,0-0.2,0-0.3,0h-0.3v0.6H506.1z"/>
		</g>
		<g>
			<path class="st1" d="M356.7,7.8l-1.9,0.1c0-0.8-0.5-1.2-1.4-1.2s-1.3,0.4-1.3,1.1c0,0.7,0.5,0.9,1.8,1.2c1.8,0.5,3,1,3,2.6
				c0,1.9-1.5,2.7-3.3,2.7c-2.1,0-3.6-1-3.6-2.9l1.9-0.1c0,0.8,0.7,1.4,1.7,1.4c0.8,0,1.4-0.3,1.4-1c0-0.7-0.6-0.9-1.8-1.2
				c-1.6-0.4-3-0.9-3-2.6c0-1.5,1-2.7,3.2-2.7C355.3,5,356.6,6,356.7,7.8z"/>
			<path class="st1" d="M360.4,6.8v1.9h3.4v1.6h-3.4v2.2h3.9v1.6h-5.8v-9h5.8v1.6H360.4z"/>
			<path class="st1" d="M369.5,10.9H368v3.2h-1.9v-9h3.8c1.7,0,2.9,1,2.9,2.9c0,1.2-0.6,2.1-1.4,2.6l1.9,3.5h-2.1L369.5,10.9z
				 M369.7,9.2c0.7,0,1.2-0.4,1.2-1.2c0-0.8-0.5-1.2-1.2-1.2h-1.8v2.5H369.7z"/>
			<path class="st1" d="M377.8,14.1l-3.8-9h2l2.5,6.1l2.5-6.1h2l-3.8,9H377.8z"/>
			<path class="st1" d="M384.5,14.1v-9h1.9v9H384.5z"/>
			<path class="st1" d="M396.9,8.4L395,8.6c-0.3-1.3-1.2-1.9-2.4-1.9c-1.6,0-2.6,1.2-2.6,3c0,1.9,1.2,3,2.6,3c1.2,0,2.1-0.7,2.4-1.9
				l1.9,0.2c-0.3,2.1-2.1,3.4-4.3,3.4c-2.6,0-4.6-1.7-4.6-4.6c0-2.9,1.9-4.6,4.6-4.6C394.9,5,396.6,6.3,396.9,8.4z"/>
			<path class="st1" d="M400.5,6.8v1.9h3.4v1.6h-3.4v2.2h3.9v1.6h-5.8v-9h5.8v1.6H400.5z"/>
			<path class="st1" d="M412.5,7.8l-1.9,0.1c0-0.8-0.5-1.2-1.4-1.2s-1.3,0.4-1.3,1.1c0,0.7,0.5,0.9,1.8,1.2c1.8,0.5,3,1,3,2.6
				c0,1.9-1.5,2.7-3.3,2.7c-2.1,0-3.6-1-3.6-2.9l1.9-0.1c0,0.8,0.7,1.4,1.7,1.4c0.8,0,1.4-0.3,1.4-1c0-0.7-0.6-0.9-1.8-1.2
				c-1.6-0.4-3-0.9-3-2.6c0-1.5,1-2.7,3.2-2.7C411.2,5,412.5,6,412.5,7.8z"/>
			<path class="st1" d="M426.5,9.6c0,2.8-2,4.6-4.7,4.6c-2.7,0-4.7-1.8-4.7-4.6s2-4.6,4.7-4.6C424.5,5,426.5,6.8,426.5,9.6z
				 M419,9.6c0,1.8,1.1,3,2.8,3c1.6,0,2.8-1.1,2.8-3c0-1.9-1.1-3-2.8-3C420.2,6.6,419,7.8,419,9.6z"/>
			<path class="st1" d="M430.1,6.8v1.9h3.2v1.6h-3.2v3.8h-1.9v-9h5.8v1.6H430.1z"/>
			<path class="st1" d="M437.5,6.8v1.9h3.2v1.6h-3.2v3.8h-1.9v-9h5.8v1.6H437.5z"/>
			<path class="st1" d="M444.8,6.8v1.9h3.4v1.6h-3.4v2.2h3.9v1.6H443v-9h5.8v1.6H444.8z"/>
			<path class="st1" d="M453.8,10.9h-1.5v3.2h-1.9v-9h3.8c1.7,0,2.9,1,2.9,2.9c0,1.2-0.6,2.1-1.4,2.6l1.9,3.5h-2.1L453.8,10.9z
				 M454.1,9.2c0.7,0,1.2-0.4,1.2-1.2c0-0.8-0.5-1.2-1.2-1.2h-1.8v2.5H454.1z"/>
			<path class="st1" d="M461.1,6.8v1.9h3.4v1.6h-3.4v2.2h3.9v1.6h-5.8v-9h5.8v1.6H461.1z"/>
			<path class="st1" d="M470.5,5.1c2.6,0,4.4,1.7,4.4,4.5s-1.9,4.5-4.5,4.5h-3.7v-9H470.5z M468.6,12.5h1.9c1.6,0,2.6-1,2.6-2.9
				s-1-2.9-2.6-2.9h-1.9V12.5z"/>
			<path class="st1" d="M486.2,14.1l-0.7-1.7h-3.7l-0.7,1.7h-2l3.9-9h1.6l3.9,9H486.2z M484.8,10.9L483.6,8l-1.2,2.9H484.8z"/>
			<path class="st1" d="M492,6.8v7.3h-1.8V6.8h-3V5.1h7.9v1.6H492z"/>
		</g>
	</g>
</g>
</svg>
