<?xml version="1.0" standalone="no"?>
<!DOCTYPE svg PUBLIC "-//W3C//DTD SVG 1.1//EN" "http://www.w3.org/Graphics/SVG/1.1/DTD/svg11.dtd" >
<svg xmlns="http://www.w3.org/2000/svg" xmlns:xlink="http://www.w3.org/1999/xlink" version="1.1">
<metadata>
Created by FontForge 20160407 at Mon Oct  3 20:15:54 2016
 By Jimmy Warting
Copyright 1985, 1987, 1990, 1994, 2002 Adobe Systems Incorporated. All Rights Reserved.
</metadata>
<defs>
<font id="NewBaskerville-Italic" horiz-adv-x="1065" >
  <font-face 
    font-family="New Baskerville"
    font-weight="400"
    font-style="italic"
    font-stretch="normal"
    units-per-em="2048"
    panose-1="2 2 6 2 6 2 0 9 2 3"
    ascent="1638"
    descent="-410"
    x-height="883"
    cap-height="1352"
    bbox="-283 -561 2759 1870"
    underline-thickness="102"
    underline-position="-256"
    slope="-12"
    unicode-range="U+0020-F006"
  />
<missing-glyph horiz-adv-x="1024" 
d="M51 0v1536h922v-1536h-922zM179 128h666v1280h-666v-1280z" />
    <glyph glyph-name=".notdef" horiz-adv-x="1024" 
d="M51 0v1536h922v-1536h-922zM179 128h666v1280h-666v-1280z" />
    <glyph glyph-name=".null" horiz-adv-x="0" 
 />
    <glyph glyph-name="nonmarkingreturn" horiz-adv-x="532" 
 />
    <glyph glyph-name="space" unicode=" " horiz-adv-x="532" 
 />
    <glyph glyph-name="exclam" unicode="!" horiz-adv-x="614" 
d="M762 1280q0 -45 -53 -198.5t-99 -272.5l-149 -399l-47 14l123 704q5 32 11 74t19.5 80.5t38 63t64.5 24.5q41 0 66.5 -25.5t25.5 -64.5zM457 84q0 -45 -33 -78t-78 -33q-46 0 -79.5 32.5t-33.5 78.5q0 50 33.5 81.5t83.5 31.5q29 0 54 -15.5t39 -41.5t14 -56z" />
    <glyph glyph-name="quotedbl" unicode="&#x22;" horiz-adv-x="942" 
d="M1049 1366q0 -29 -37 -125l-162 -393q-28 -80 -51 -80q-15 0 -15 18q0 17 4 25l107 471q13 60 34.5 98.5t67.5 38.5q26 0 39 -14.5t13 -38.5zM729 1366q0 -37 -37 -125l-162 -393q-28 -80 -51 -80q-14 0 -14 18q0 17 4 25l106 471q17 64 37.5 100.5t65.5 36.5
q25 0 38 -14t13 -39z" />
    <glyph glyph-name="numbersign" unicode="#" 
d="M1208 838h-211l-43 -281h205v-113h-221l-68 -444h-114l67 444h-268l-70 -444h-114l69 444h-213v113h230l43 281h-224v112h242l64 420h114l-63 -420h268l64 420h114l-63 -420h192v-112zM883 838h-269l-43 -281h269z" />
    <glyph glyph-name="dollar" unicode="$" 
d="M1196 1147q0 -32 -21 -51t-53 -19q-70 0 -80 97q-5 49 -16.5 70.5t-54.5 37.5l-121 -516q107 -79 154.5 -121t81.5 -109t34 -163q0 -122 -61.5 -211t-165.5 -136t-227 -53l-66 -278h-59l63 278q-27 6 -158 25l-71 -303h-64l74 319q-81 28 -159.5 87t-78.5 124
q0 22 9.5 41.5t28.5 31t38 11.5q36 0 60 -26t26 -62q4 -68 18.5 -101t69.5 -48l156 669q-94 50 -147.5 126.5t-53.5 174.5q0 91 47 160.5t125 109.5t168 46l39 164h70l-39 -156q103 0 158 -16l41 172h63l-41 -183q49 -17 96 -44t82 -65.5t35 -82.5zM909 1305q-70 12 -104 12
q-37 0 -55 -4l-101 -432l144 -80zM682 1307q-82 -15 -142.5 -69t-60.5 -134q0 -63 26.5 -101.5t86.5 -82.5zM973 324q0 78 -47 151.5t-117 114.5l-131 -561q78 0 145.5 41t108.5 108.5t41 145.5zM756 625l-146 82l-153 -656q51 -21 155 -26z" />
    <glyph glyph-name="percent" unicode="%" horiz-adv-x="2130" 
d="M1993 403q0 -81 -25 -170t-72 -163t-118 -121t-160 -47q-135 0 -222 89.5t-87 223.5q0 85 32 171.5t87.5 155.5t133.5 111.5t164 42.5q85 0 144.5 -38.5t91 -104.5t31.5 -150zM1774 1497l-979 -1647h-84l866 1463l-4 4q-79 -41 -129 -60.5t-111 -19.5q-48 0 -159 37
q22 -71 22 -141q0 -104 -46 -219.5t-130 -193t-191 -77.5q-92 0 -163.5 42t-111.5 116t-40 166q0 108 55.5 219t150.5 182.5t204 71.5q65 0 106.5 -17.5t92.5 -53.5t94.5 -53.5t111.5 -17.5q200 0 377 199h68zM1931 418q0 87 -46 152t-132 65q-83 0 -150 -85t-104 -199.5
t-37 -194.5q0 -79 43.5 -136t118.5 -57q91 0 161 75t108 183.5t38 196.5zM1135 1161q0 88 -42.5 152.5t-125.5 64.5q-66 0 -122 -50.5t-95 -127.5t-60.5 -160.5t-21.5 -142.5q0 -49 18.5 -92.5t54.5 -71.5t86 -28q73 0 131 45.5t98 118.5t59.5 149t19.5 143z" />
    <glyph glyph-name="ampersand" unicode="&#x26;" horiz-adv-x="2007" 
d="M2165 1161q0 -89 -42.5 -161.5t-110 -119t-152 -72.5t-168.5 -26q-19 1 -35 1.5t-41 0.5q59 -88 59 -190q0 -141 -66.5 -258t-176 -197t-245 -123t-265.5 -43q-156 0 -301.5 51.5t-239.5 159.5t-94 267q0 104 43 205t118.5 180.5t174.5 128.5q-11 47 -11 92
q0 80 31.5 150.5t84.5 123.5t125 84t148 31q63 0 118 -23t55 -77q0 -33 -23.5 -55.5t-54.5 -22.5q-25 0 -39.5 11t-36.5 35t-46.5 37t-66.5 13q-62 0 -115.5 -34.5t-85.5 -92.5t-32 -119q0 -68 41 -117q40 15 78 15q48 0 86.5 -21t38.5 -67q0 -45 -38.5 -75t-86.5 -30
q-49 0 -81 22t-75 73q-65 -26 -115 -79.5t-76 -120.5t-26 -138q0 -143 90 -242t226.5 -145t275.5 -46q105 0 213 29.5t196 88.5t140.5 146.5t52.5 202.5q0 110 -74 161.5t-190 51.5q-46 0 -101.5 -14t-93 -45t-37.5 -82q0 -53 43 -53q12 0 43.5 11t55.5 11q34 0 56.5 -19.5
t22.5 -51.5q0 -34 -18.5 -59.5t-48.5 -40.5t-64 -15q-68 0 -109.5 44t-41.5 112q0 90 55 166t142.5 118.5t177.5 42.5q56 0 171 -12t173 -12q127 0 211 47q54 32 85 80t31 106q0 49 -27.5 86t-74.5 37q-25 0 -55.5 -37.5t-49 -54t-67.5 -16.5q-28 0 -49 18t-21 45
q0 36 29.5 68t74.5 51.5t85 19.5q62 0 112 -27.5t77.5 -77.5t27.5 -112z" />
    <glyph glyph-name="quotesingle" unicode="'" horiz-adv-x="573" 
d="M702 1366q0 -32 -36 -125l-162 -393q-28 -80 -51 -80q-15 0 -15 18q0 17 4 25l107 471q13 60 34.5 98.5t67.5 38.5q25 0 38 -14t13 -39z" />
    <glyph glyph-name="parenleft" unicode="(" horiz-adv-x="696" 
d="M848 1331q-161 -135 -265.5 -319t-153 -394.5t-48.5 -427.5q0 -107 13.5 -205t44 -192.5t83.5 -185.5l-39 -25q-67 102 -121 232.5t-84 265.5t-30 256q0 150 42.5 296.5t120.5 279t179.5 245t222.5 207.5z" />
    <glyph glyph-name="parenright" unicode=")" horiz-adv-x="696" 
d="M735 610q0 -198 -73 -386t-200.5 -350t-291.5 -292l-35 33q121 101 211 232.5t145.5 278.5t83 305.5t27.5 322.5q0 85 -7.5 158.5t-24 147.5t-43.5 144t-66 135l39 25q67 -105 121 -235t84 -264t30 -255z" />
    <glyph glyph-name="asterisk" unicode="*" horiz-adv-x="1024" 
d="M1202 1055q0 -39 -29 -60.5t-71 -21.5q-14 0 -56 7t-67 7q-32 0 -84 -10q-8 -2 -23 -4.5t-28 -8.5t-13 -14q0 -6 14.5 -20.5t20.5 -18.5q36 -38 56.5 -52t74.5 -38q109 -42 109 -108q0 -32 -25 -55t-57 -23q-43 0 -63.5 30t-40.5 85q-14 43 -30.5 72t-45.5 57
q-43 43 -49 43q-15 0 -25 -56q-16 -62 -16 -88q0 -11 5 -48.5t5 -61.5v-9q-2 -43 -21 -74.5t-61 -31.5q-33 0 -54.5 24t-21.5 58q0 27 13.5 49.5t39.5 54.5q34 41 60 95t26 96q0 6 -4 6q-2 1 -4 1.5t-6 0.5q-23 0 -43 -8q-79 -19 -145 -72q-37 -30 -58 -42.5t-51 -12.5
q-32 0 -55 25t-23 57q0 41 30 60.5t71 19.5q25 0 63.5 -6.5t59.5 -6.5q35 0 84 11q10 2 25 4.5t26.5 7t11.5 12.5q0 6 -14.5 21.5t-20.5 19.5q-37 37 -62 55.5t-69 34.5q-108 44 -108 109q0 32 25 55t57 23q45 0 66.5 -32.5t37.5 -82.5q30 -85 74 -129q43 -43 51 -43
q12 0 26.5 60t14.5 83q0 28 -5 72t-5 53q0 39 22.5 68.5t59.5 29.5q34 0 54.5 -22t20.5 -57q0 -44 -53 -105q-30 -37 -43.5 -60.5t-26.5 -64.5q-2 -12 -8 -36t-6 -31t10 -7q14 0 45 9q48 11 76.5 24.5t69.5 46.5q39 32 58.5 44t49.5 12q32 0 55 -25t23 -57z" />
    <glyph glyph-name="plus" unicode="+" 
d="M1116 399h-399v-399h-109v399h-399v109h399v399h109v-399h399v-109z" />
    <glyph glyph-name="comma" unicode="," horiz-adv-x="573" 
d="M430 23q0 -84 -51.5 -155.5t-129.5 -123.5t-161 -82l-14 45q78 40 121.5 69.5t78.5 73.5q58 72 58 140q-17 -7 -27 -13q-16 -4 -29 -4q-39 0 -68.5 30.5t-29.5 70.5q0 50 32.5 86.5t82.5 36.5q63 0 100 -53.5t37 -120.5z" />
    <glyph glyph-name="hyphen" unicode="-" horiz-adv-x="492" 
d="M608 502l-14 -109h-473l16 109h471z" />
    <glyph glyph-name="period" unicode="." horiz-adv-x="573" 
d="M428 82q0 -43 -33 -76t-76 -33q-46 0 -80 31.5t-34 79.5q0 50 32.5 81.5t81.5 31.5q48 0 78.5 -34t30.5 -81z" />
    <glyph glyph-name="slash" unicode="/" horiz-adv-x="901" 
d="M1108 1419l-907 -1695h-115l907 1695h115z" />
    <glyph glyph-name="zero" unicode="0" 
d="M1212 936q0 -142 -43.5 -299t-113.5 -285q-53 -95 -123.5 -180.5t-159.5 -142t-186 -56.5q-120 0 -198.5 67.5t-113 173t-34.5 226.5q0 100 20.5 199t59.5 197t86 178q82 146 201.5 251t258.5 105q115 0 193.5 -61.5t115.5 -160t37 -212.5zM1065 1114q0 93 -45 152
t-139 59q-143 0 -223.5 -134t-149.5 -345q-35 -114 -59.5 -207.5t-43 -201t-18.5 -193.5q0 -95 47.5 -160.5t138.5 -65.5q73 0 132 48.5t104 124.5t76 155t57 158q31 88 59.5 196.5t46 217.5t17.5 196z" />
    <glyph glyph-name="one" unicode="1" 
d="M1010 1380l-244 -909q-17 -59 -49.5 -186.5t-32.5 -161.5q0 -40 27 -57t62 -20t122 -5l-12 -45q-55 1 -147 4.5t-173 3.5q-76 0 -164 -3.5t-141 -4.5l12 45q72 3 123.5 9.5t77.5 33.5q27 27 43.5 79t34.5 124l199 755q24 87 24 123q0 60 -86 60h-10q-41 0 -127 -4l10 47
q77 4 153.5 18t151 37t146.5 57z" />
    <glyph glyph-name="two" unicode="2" 
d="M1165 1020q0 -84 -35.5 -154.5t-91 -130.5t-120 -114t-144.5 -119l-416 -352h363h92q68 0 107.5 10.5t72 46.5t72.5 117h43l-131 -328q-20 1 -55 4.5t-66 3.5q-76 0 -210 -1.5t-249 -3t-229 -3.5v29l278 278l371 367q76 76 125 157.5t49 180.5q0 108 -67.5 171.5
t-175.5 63.5q-68 0 -130.5 -30.5t-101.5 -86t-39 -125.5q0 -44 12.5 -94t12.5 -53q0 -12 -13 -12q-26 0 -49.5 69.5t-23.5 126.5q0 152 106.5 242t259.5 90q108 0 195 -41t137.5 -121.5t50.5 -187.5z" />
    <glyph glyph-name="three" unicode="3" 
d="M1171 1128q0 -117 -84 -184t-233 -133v-4q65 -1 112 -34.5t71 -88.5t24 -119q0 -149 -108 -274t-257 -195q-84 -41 -183.5 -69t-199 -41t-202.5 -13l14 52q103 10 171.5 20.5t142 31.5t139.5 54q126 63 212.5 173.5t86.5 240.5q0 94 -59 140t-154 46q-51 0 -121 -12
t-72 -12q-35 0 -35 24q0 14 12 23.5t28.5 13t35 5.5t27.5 3q181 21 333 93.5t152 213.5q0 47 -30.5 77.5t-76 43.5t-96.5 13q-113 0 -293 -56l37 168q115 41 236 41q64 0 130 -11t119.5 -37.5t87 -74t33.5 -119.5z" />
    <glyph glyph-name="four" unicode="4" 
d="M1147 1399l-223 -830h39h22q86 0 133 25q1 0 2 1t2 1q8 0 8 -10v-2l-24 -97h-203l-125 -487h-166l131 487h-546l18 66l899 846h33zM918 1128l-5 5l-598 -564h451z" />
    <glyph glyph-name="five" unicode="5" 
d="M1171 1403q0 -28 -43 -74q-120 -135 -403 -135h-10q-25 0 -158 10l-47 -184l121 6h31q164 0 272 -83.5t108 -248.5t-95 -309t-247 -242q-129 -83 -273.5 -120t-326.5 -50l13 52q154 17 280 56t234 112q111 75 186.5 188t75.5 235q0 244 -299 244q-24 0 -56 -3t-71 -6.5
t-57 -4.5l163 571q111 -38 179 -53.5t153 -15.5q65 0 125 13.5t101 29.5t38 16q6 0 6 -4z" />
    <glyph glyph-name="six" unicode="6" 
d="M1255 1348q-138 -43 -236 -85.5t-187 -110t-164 -165.5q-113 -145 -186.5 -350.5t-73.5 -386.5q0 -95 46 -163.5t138 -68.5q80 0 145.5 53.5t110 134t68.5 173t24 164.5q0 83 -34 138.5t-113 55.5q-56 0 -96.5 -32.5t-77 -79.5t-48.5 -47q-20 0 -20 22q0 29 43 84
q104 135 254 135q67 0 118.5 -21.5t87.5 -64t53 -96.5t17 -119q0 -101 -40 -198t-111 -175.5t-164.5 -125t-194.5 -46.5q-114 0 -198 58t-128 155t-44 209q0 119 46.5 243.5t123.5 234t172 196.5q282 260 659 315z" />
    <glyph glyph-name="seven" unicode="7" 
d="M1276 1343l-668 -1370h-237l587 875q23 34 197 342h-412h-51q-69 0 -99.5 -4.5t-51.5 -20.5t-40 -55.5t-57 -134.5h-43l129 477h41q1 -7 2 -22t3.5 -30t7.5 -24.5t16 -17.5q26 -15 109 -15h45h522z" />
    <glyph glyph-name="eight" unicode="8" 
d="M1196 1110q0 -133 -92 -213.5t-250 -148.5q89 -89 141 -175.5t52 -189.5q0 -123 -61.5 -217t-165 -143.5t-224.5 -49.5q-71 0 -138 19.5t-120 60.5t-83 100.5t-30 135.5q0 107 56 188t140 135.5t197 102.5q-53 51 -86.5 95t-54 97t-20.5 115q0 108 57 190.5t151 127
t201 44.5q86 0 161 -32t122 -94t47 -148zM1063 1110q0 66 -25.5 118t-75.5 81.5t-116 29.5q-100 0 -168 -69t-68 -170q0 -84 49.5 -152.5t137.5 -146.5l20 -19q112 52 179 133t67 195zM883 317q0 106 -60.5 189.5t-167.5 175.5q-84 -35 -151.5 -90.5t-106.5 -132t-39 -168.5
q0 -123 64.5 -198t185.5 -75q82 0 144 40.5t96.5 110t34.5 148.5z" />
    <glyph glyph-name="nine" unicode="9" 
d="M1257 961q0 -121 -46.5 -243.5t-125 -233.5t-172.5 -197q-279 -261 -657 -314l-10 35q139 43 236 85.5t187.5 112t161.5 163.5q74 96 134 222t94.5 262t34.5 253q0 60 -19.5 113t-61.5 85.5t-104 32.5q-104 0 -184.5 -88t-123 -213t-42.5 -223q0 -83 35.5 -139t112.5 -56
q56 0 97 33t77 80t47 47q20 0 20 -22q0 -32 -40.5 -85.5t-108 -93.5t-148.5 -40q-132 0 -204 84t-72 217q0 131 70 259t189.5 207.5t252.5 79.5q114 0 198 -58t128 -155.5t44 -209.5z" />
    <glyph glyph-name="colon" unicode=":" horiz-adv-x="573" 
d="M602 768q0 -43 -32 -76t-76 -33q-47 0 -81 32t-34 79q0 33 15 58t41 40t59 15q46 0 77 -35t31 -80zM428 82q0 -43 -33 -76t-76 -33q-46 0 -80 31.5t-34 79.5q0 50 32.5 81.5t81.5 31.5q48 0 78.5 -34t30.5 -81z" />
    <glyph glyph-name="semicolon" unicode=";" horiz-adv-x="573" 
d="M602 768q0 -43 -32 -76t-76 -33q-47 0 -81 32t-34 79q0 33 15 58t41 40t59 15q46 0 77 -35t31 -80zM430 23q0 -84 -51.5 -155.5t-129.5 -123.5t-161 -82l-14 45q78 40 121.5 69.5t78.5 73.5q58 72 58 140q-17 -7 -27 -13q-16 -4 -29 -4q-39 0 -68.5 30.5t-29.5 70.5
q0 50 32.5 86.5t82.5 36.5q63 0 100 -53.5t37 -120.5z" />
    <glyph glyph-name="less" unicode="&#x3c;" 
d="M1028 74l-737 332v100l737 342v-111l-612 -284l612 -277v-102z" />
    <glyph glyph-name="equal" unicode="=" 
d="M1116 532h-907v109h907v-109zM1116 264h-907v109h907v-109z" />
    <glyph glyph-name="greater" unicode="&#x3e;" 
d="M1028 406l-737 -332v102l612 277l-612 284v111l737 -342v-100z" />
    <glyph glyph-name="question" unicode="?" horiz-adv-x="901" 
d="M1040 1063q0 -165 -200 -332l-68 -57q-68 -55 -117 -103t-49 -90q0 -26 19 -42.5t47 -16.5q60 0 129 59l33 -32q-37 -40 -84 -64.5t-99 -24.5q-69 0 -112 48t-43 116q0 102 127 219l114 105q88 82 129 134.5t41 127.5q0 93 -53 146t-147 53q-79 0 -137 -45.5t-58 -120.5
q0 -49 33 -88t82 -39q12 0 25.5 7t13.5 17q0 4 -19.5 28.5t-19.5 51.5q0 28 20 48t49 20q37 0 60.5 -25t23.5 -63t-23 -70t-59 -48.5t-73 -16.5q-76 0 -125 49t-49 123q0 72 36.5 124.5t97.5 80.5t132 28q65 0 125.5 -23t103 -61t68.5 -97t26 -126zM676 84q0 -45 -33 -78
t-78 -33q-44 0 -78 33t-34 78q0 50 34 81.5t84 31.5q45 0 75 -34t30 -79z" />
    <glyph glyph-name="at" unicode="@" horiz-adv-x="1475" 
d="M1597 838q0 -158 -76 -291.5t-191 -211t-226 -77.5q-53 0 -97.5 29.5t-48.5 79.5q-114 -109 -239 -109q-88 0 -139.5 69.5t-51.5 159.5q0 126 64.5 267t174 235t234.5 94q63 0 116 -28.5t61 -83.5h4l32 84h158l-221 -516q-59 -134 -59 -181q0 -36 38 -36q77 0 167.5 67.5
t152 184.5t61.5 255q0 131 -67 235t-180 161t-238 57q-179 0 -324 -89.5t-226 -243.5t-81 -339q0 -156 65 -281.5t184 -196.5t271 -71q162 0 311 82.5t236 223.5h80q-55 -116 -155 -205.5t-226.5 -139t-253.5 -49.5q-173 0 -316 83t-223.5 228t-80.5 322q0 199 100 376
t268.5 282.5t364.5 105.5q155 0 287.5 -65t211 -186.5t78.5 -280.5zM1135 924q0 46 -24 76t-73 30q-67 0 -133.5 -68t-123 -174.5t-89.5 -210t-33 -165.5q0 -41 28 -69t69 -28q142 0 245 244l113 270q21 54 21 95z" />
    <glyph glyph-name="A" unicode="A" horiz-adv-x="1311" 
d="M1331 41l-12 -45q-43 1 -123 4.5t-149 3.5q-67 0 -144 -3.5t-121 -4.5l11 45q97 7 136.5 20.5t39.5 79.5q0 51 -13 123l-45 295h-397l-90 -170q-46 -93 -81.5 -170.5t-35.5 -114.5q0 -29 30.5 -42t68.5 -16t67 -5l-12 -45q-39 1 -107 4.5t-127 3.5q-51 0 -112.5 -3.5
t-96.5 -4.5l13 45q55 8 90 24.5t69 53.5q24 25 49.5 66t65.5 113.5t57 102.5l558 967h61l162 -1106q24 -154 41 -178q12 -18 38 -27t47.5 -11t61.5 -5zM901 621l-61 505h-4l-287 -505h352z" />
    <glyph glyph-name="B" unicode="B" horiz-adv-x="1229" 
d="M1327 1049q0 -153 -120 -227.5t-294 -98.5v-4q161 -29 255 -104t94 -226q0 -136 -77 -224.5t-196.5 -128.5t-249.5 -40h-14q-62 1 -170.5 4.5t-202.5 3.5q-71 0 -153.5 -3.5t-132.5 -4.5l12 45h28q74 0 112 21t55.5 59.5t41.5 128.5l222 827q38 133 38 158
q0 28 -20.5 44.5t-45 21t-57 5.5t-57.5 1l13 45q48 -1 138.5 -5t135.5 -4q105 0 213 9q109 -2 207.5 -29.5t161.5 -94t63 -179.5zM1133 1092q0 215 -254 215q-65 0 -86 -31q-13 -18 -39 -111l-111 -417h131q172 0 265.5 85.5t93.5 258.5zM1057 451q0 149 -86.5 200
t-237.5 51h-102l-103 -376q-36 -129 -36 -179q0 -63 47.5 -84.5t119.5 -21.5q122 0 211.5 50t138 142.5t48.5 217.5z" />
    <glyph glyph-name="C" unicode="C" horiz-adv-x="1270" 
d="M1460 1337l-78 -381h-41q-7 114 -31 192.5t-85 127.5t-170 49q-137 0 -248 -92t-188 -237t-116.5 -301t-39.5 -281q0 -179 86 -287.5t260 -108.5q126 0 213.5 54t143 134t130.5 222h43l-108 -432h-23l-24 106q-99 -70 -194 -99.5t-222 -29.5q-150 0 -266.5 66.5t-180 184
t-63.5 270.5q0 157 59.5 312.5t167.5 284t251.5 204t305.5 75.5q93 0 165 -25.5t161 -80.5l72 73h20z" />
    <glyph glyph-name="D" unicode="D" horiz-adv-x="1352" 
d="M1446 788q0 -162 -65.5 -312.5t-182.5 -266.5q-118 -115 -252 -164t-305 -49h-33q-59 1 -164 4.5t-194 3.5q-64 0 -139.5 -3.5t-118.5 -4.5l12 45h29q75 0 112.5 21.5t55 59.5t41.5 128l221 827q5 18 16 54t17 61.5t6 42.5q0 28 -20.5 44.5t-45 21t-57 5.5t-57.5 1l12 45
q47 -1 137.5 -5t134.5 -4q35 0 102 4t101 5h39q238 0 405 -138q95 -78 144 -189t49 -237zM1241 891q0 94 -26 171.5t-74.5 132.5t-118.5 84.5t-158 29.5q-33 0 -51 -2q-74 -7 -86 -15q-9 -6 -16 -30.5t-15 -53.5l-223 -829q-45 -160 -45 -217q0 -78 55.5 -99.5t147.5 -21.5
q82 0 152 19t128.5 57.5t106 96t86.5 130.5q63 120 100 266t37 281z" />
    <glyph glyph-name="E" unicode="E" horiz-adv-x="1147" 
d="M1323 1040h-39q-41 152 -109 209.5t-188 57.5h-272l-148 -557h158q61 0 102 17.5t74.5 63.5t73.5 136h37l-107 -523h-41q0 14 2 50t2 55q0 104 -57 135q-37 21 -111 21h-145l-117 -435q-20 -68 -20 -108q0 -74 69.5 -97.5t169.5 -23.5h68q122 0 199.5 31t129.5 95.5
t107 180.5h47l-94 -352q-137 1 -381.5 4.5t-453.5 3.5q-72 0 -154.5 -3.5t-132.5 -4.5l12 45h29q73 0 111 21t55 59.5t41 128.5l221 827q12 43 16 59t11.5 49t7.5 46q0 49 -44 62.5t-110 13.5l12 45q45 -1 129.5 -5t126.5 -4q114 0 343.5 4t340.5 5z" />
    <glyph glyph-name="F" unicode="F" horiz-adv-x="983" 
d="M1319 1024h-41q-24 113 -67.5 174.5t-114 85t-181.5 23.5h-20q-26 0 -73 -3.5t-87 -7.5l-153 -542h170q56 0 95.5 19.5t72 66.5t65.5 129h41l-104 -523h-41v68q0 96 -28.5 145.5t-123.5 49.5h-162l-118 -443q-35 -128 -35 -153q0 -46 36 -59t101 -13h24h21l-12 -45
q-51 2 -102 3.5t-109.5 3t-93.5 1.5q-71 0 -153.5 -3.5t-131.5 -4.5l12 45h29q73 0 111 21t54 56.5t44 131.5l233 827q5 18 16 54t17 61.5t6 42.5q0 72 -135 72h-33h-12l12 45q45 -1 135 -5t135 -4q112 0 337.5 4t334.5 5z" />
    <glyph glyph-name="G" unicode="G" horiz-adv-x="1393" 
d="M1567 537l-13 -45q-12 0 -26.5 -1t-36.5 -3t-37 -7t-24 -14q-12 -12 -22.5 -43t-19 -63t-20.5 -76q-9 -34 -18 -69.5t-15 -67.5t-8 -70q-18 2 -30.5 2.5t-26.5 1.5q-52 0 -91.5 -11.5t-115 -41t-133 -43t-137.5 -13.5q-155 0 -275.5 62t-190 178t-69.5 270t58.5 313.5
t164 289t248 207t305.5 77.5q109 0 186.5 -29.5t186.5 -101.5l59 82h23l-78 -379h-41q-1 181 -83.5 282t-211.5 101q-143 0 -258.5 -91t-194 -235t-119 -302.5t-40.5 -288.5q0 -173 88.5 -281.5t259.5 -108.5q116 0 202.5 46.5t131.5 132.5t45 200q0 48 -25.5 67t-64.5 22
t-86 6l10 45q45 -1 135 -5t135 -4q46 0 137 4t136 5z" />
    <glyph glyph-name="H" unicode="H" horiz-adv-x="1597" 
d="M1868 1352l-13 -45q-71 -3 -110 -10t-64 -42q-35 -44 -86 -237l-200 -752q0 2 -19.5 -69.5t-19.5 -87.5q0 -27 15.5 -41t46 -20t59.5 -6.5t57 -0.5l-14 -45q-50 1 -133.5 4.5t-155.5 3.5q-70 0 -151 -3.5t-130 -4.5l13 45h28q74 0 112 21t55.5 59.5t41.5 128.5l109 407
h-682l-119 -391q-15 -48 -27 -91t-12 -66q0 -27 15.5 -41t46 -20t59.5 -6.5t57 -0.5l-14 -45q-51 2 -102 3.5t-109.5 3t-93.5 1.5q-65 0 -140.5 -3.5t-121.5 -4.5l12 45h28q75 0 112 21t53 56.5t44 131.5l236 827q5 18 16 54t17 61.5t6 42.5q0 28 -20.5 44.5t-45 21t-57 5.5
t-57.5 1l12 45q48 -1 144 -5t145 -4t144.5 4t141.5 5l-12 -45q-71 -3 -110 -10t-64 -42q-19 -24 -43 -96.5t-43 -140.5l-82 -299h682l96 358q5 17 20 73.5t15 80.5q0 55 -41 64t-141 12l12 45q44 -1 132 -5t132 -4q53 0 159 4t159 5z" />
    <glyph glyph-name="I" unicode="I" horiz-adv-x="696" 
d="M987 1352l-12 -45q-71 -3 -110 -10t-64 -42q-19 -24 -43 -96.5t-43 -140.5l-217 -752q-39 -117 -39 -157q0 -27 15.5 -41t46 -20t59.5 -6.5t57 -0.5l-14 -45q-50 1 -133.5 4.5t-155.5 3.5q-70 0 -151 -3.5t-130 -4.5l13 45h28q75 0 112 21t53 56.5t44 131.5l238 827
q34 112 34 154q0 55 -41 64t-141 12l13 45q44 -1 132 -5t132 -4q54 0 159 4t158 5z" />
    <glyph glyph-name="J" unicode="J" horiz-adv-x="614" 
d="M987 1352l-12 -45q-71 -3 -110 -10t-64 -42q-21 -26 -47.5 -107.5t-38.5 -129.5l-209 -821q-21 -87 -43 -168t-44 -151.5t-54 -141.5q-62 -136 -165.5 -212.5t-250.5 -76.5q-84 0 -158 34.5t-74 106.5q0 34 22 58t58 24q37 0 57.5 -23.5t20.5 -60.5v-6q0 -9 -0.5 -13.5
t-1.5 -10.5q0 -20 12 -37q34 -27 74 -27q156 0 217 227l365 1358q34 140 34 154q0 55 -41 64t-141 12l13 45q44 -1 132 -5t132 -4q54 0 159 4t158 5z" />
    <glyph glyph-name="K" unicode="K" horiz-adv-x="1352" 
d="M1608 1352l-13 -45q-73 -9 -121 -39.5t-122 -98.5l-527 -401l279 -422q127 -194 178 -248q37 -35 66.5 -43t101.5 -14l-12 -45q-49 1 -135.5 4.5t-161.5 3.5q-70 0 -151 -3.5t-130 -4.5l12 45q13 1 40 3t51.5 7.5t41.5 18.5t17 34q0 15 -10.5 39.5t-30 57.5t-33.5 53
t-26 37l-252 385l-56 -25l-104 -385q-33 -136 -33 -153q0 -46 35 -59t98 -13h25h22l-12 -45q-49 1 -134.5 4.5t-160.5 3.5q-70 0 -152.5 -3.5t-131.5 -4.5l10 45h28q75 0 112 21t54 59.5t41 128.5l221 827q5 17 20 73.5t15 80.5q0 55 -41 64t-139 12l12 45q45 -1 137.5 -5
t137.5 -4q52 0 155 4t154 5l-12 -45q-70 -2 -109.5 -9.5t-64.5 -42.5q-18 -25 -45 -107t-39 -130l-78 -289l412 266q32 25 92.5 73t107.5 97.5t47 81.5q0 60 -151 60l12 45q37 -1 110 -5t109 -4q39 0 117 4t117 5z" />
    <glyph glyph-name="L" unicode="L" horiz-adv-x="1229" 
d="M1305 340l-93 -344q-145 1 -399.5 4.5t-474.5 3.5q-67 0 -146 -3.5t-126 -4.5l12 45h28q74 0 112 21t55.5 59.5t41.5 128.5l224 827q5 18 16 54t17 61.5t6 42.5q0 72 -144 72h-37l13 45q47 -1 135.5 -5t132.5 -4q53 0 156 4t155 5l-12 -45q-136 0 -174 -54
q-29 -36 -86 -237l-191 -707q-30 -112 -30 -162q0 -44 28 -68.5t69.5 -32t96.5 -7.5q24 1 42.5 1.5t41.5 0.5q143 0 226.5 21.5t144.5 85t115 192.5h45z" />
    <glyph glyph-name="M" unicode="M" horiz-adv-x="1802" 
d="M2025 1352l-12 -45h-6q-87 0 -127 -27t-51 -66t-31 -151l-151 -891q-2 -12 -2 -33q0 -64 41 -77.5t139 -20.5l-10 -45q-50 1 -133.5 4.5t-155.5 3.5q-70 0 -151 -3.5t-130 -4.5l12 45q93 9 125.5 18t49 40t30.5 114l178 1004l-4 4l-723 -1221h-32l-219 1231h-5l-194 -733
q-76 -282 -76 -344q0 -77 39.5 -93t134.5 -20l-12 -45q-40 1 -115 4.5t-139 3.5q-55 0 -120.5 -3.5t-102.5 -4.5l12 45q72 0 119 23t76 83q43 90 120 361l207 713q2 6 2 16q0 30 -32 46t-67 20t-73 4l10 45q34 -1 102 -5t101 -4q30 0 89.5 4t86.5 5l193 -1061l635 1061
q124 -9 166 -9q35 0 102.5 4t103.5 5z" />
    <glyph glyph-name="N" unicode="N" horiz-adv-x="1434" 
d="M1757 1352l-10 -45q-72 -1 -114 -29t-63 -72t-44 -125l-297 -1118h-47l-568 1143l-159 -594q-74 -270 -74 -360q0 -50 25.5 -73.5t61.5 -29.5t93 -8l-12 -45q-38 1 -109.5 4.5t-132.5 3.5q-58 0 -127 -3.5t-108 -4.5l10 45q83 11 124.5 29t72.5 77q32 62 59 152t65 233
l170 639q-36 69 -55.5 93t-50.5 32t-111 11l13 45q28 -1 87.5 -5t90.5 -4q26 0 76 4t75 5l545 -1100l180 670q17 60 33.5 141.5t16.5 124.5q0 53 -23 78t-58.5 31t-95.5 10l13 45q37 -1 110 -5t109 -4q38 0 115.5 4t113.5 5z" />
    <glyph glyph-name="O" unicode="O" horiz-adv-x="1434" 
d="M1552 844q0 -155 -63 -311t-174 -282.5t-258.5 -202t-304.5 -75.5q-232 0 -363 144.5t-131 376.5q0 154 61.5 311.5t168.5 284.5t252.5 203.5t303.5 76.5q151 0 267 -68.5t178.5 -188.5t62.5 -269zM1348 965q0 61 -18 125.5t-52.5 117t-86.5 85t-120 32.5
q-138 0 -251 -97.5t-193 -248.5t-122 -315t-42 -287q0 -93 30 -175t92.5 -133t159.5 -51q140 0 253.5 95.5t191.5 247t118 314t40 290.5z" />
    <glyph glyph-name="P" unicode="P" horiz-adv-x="1147" 
d="M1370 1032q0 -151 -90.5 -240.5t-225.5 -126t-282 -36.5h-8q-21 0 -51 1.5t-65.5 3.5t-65.5 3l-101 -371q0 2 -19.5 -69.5t-19.5 -87.5q0 -27 15.5 -41t46 -20t60 -6.5t57.5 -0.5l-15 -45q-43 1 -130 4.5t-163 3.5q-69 0 -151.5 -3.5t-130.5 -4.5l12 45h29
q75 0 112.5 21.5t55 59.5t41.5 128l221 827q5 18 16 54t17 61.5t6 42.5q0 28 -20.5 44.5t-45.5 21t-57.5 5.5t-57.5 1l13 45q35 -1 113.5 -5t119.5 -4q42 0 116 4.5t128 4.5h8q134 -2 246 -26t189 -95t77 -199zM1165 1071q0 81 -39 134t-102.5 77.5t-140.5 24.5h-2
q-105 0 -127 -35q-7 -11 -23 -76l-137 -508q34 -2 63 -4t72 -6q95 0 173 24.5t138.5 75.5t92.5 124.5t32 168.5z" />
    <glyph glyph-name="Q" unicode="Q" horiz-adv-x="1434" 
d="M1683 -293q0 -43 -31.5 -105.5t-97 -108.5t-159.5 -46q-58 0 -113.5 15t-113.5 46.5t-110 70.5t-165 132q-72 61 -144.5 91t-160.5 30q-62 0 -110.5 -15.5t-104.5 -47.5q-42 -29 -60 -29q-20 0 -31.5 13t-11.5 34q0 34 64 49q68 18 89 26t77 38l143 77
q-191 44 -288 180.5t-97 338.5q0 155 59.5 311t166 284.5t249 203.5t305.5 75q120 0 212.5 -35t158.5 -101.5t100.5 -162t34.5 -209.5q0 -110 -31.5 -220t-86.5 -210.5t-130 -185.5q-110 -126 -243.5 -192t-309.5 -81l-186 -92v-4h78q112 0 208 -32.5t228.5 -96.5t221 -95.5
t188.5 -31.5q64 0 104.5 21.5t65.5 50t26 28.5q6 0 6 -14zM1339 975q0 146 -71.5 248t-212.5 102q-135 0 -245 -95t-188 -244t-118.5 -308t-40.5 -283q0 -95 29.5 -181t94 -141t161.5 -55q137 0 249.5 100t188.5 253t114.5 315t38.5 289z" />
    <glyph glyph-name="R" unicode="R" horiz-adv-x="1311" 
d="M1475 115q-40 -62 -116 -102t-151 -40t-123.5 35t-72 92.5t-23.5 126.5v19l8 192v25q0 120 -56.5 160.5t-186.5 40.5h-13q-57 0 -125 -5l-106 -393q0 2 -19.5 -69.5t-19.5 -87.5q0 -27 15.5 -41t46 -20t59.5 -6.5t57 -0.5l-14 -45q-40 1 -125 4.5t-160 3.5
q-70 0 -152.5 -3.5t-131.5 -4.5l10 45h28q75 0 112 21t54 59.5t41 128.5l221 827q39 124 39 158q0 28 -20.5 44.5t-45 21t-57 5.5t-57.5 1l12 45q42 -1 130 -5t133 -4q42 0 125.5 4t123.5 5h41q121 0 226.5 -24t177.5 -90t72 -185q0 -92 -49.5 -159.5t-126.5 -110
t-163 -65.5t-180 -34v-4q110 -31 169 -78.5t81 -118t25 -188.5q2 -100 24 -170t97 -70q37 0 64.5 20t64.5 62zM1227 1057q0 131 -79.5 190.5t-213.5 59.5q-33 0 -77.5 -8t-59.5 -25q-9 -11 -21.5 -43t-19.5 -57l-127 -467q129 4 213 11.5t162 33.5q103 36 163 117t60 188z
" />
    <glyph glyph-name="S" unicode="S" horiz-adv-x="983" 
d="M1139 1325l-74 -348h-35q-5 160 -71.5 254t-204.5 94q-92 0 -155.5 -59t-63.5 -148q0 -91 53 -156.5t176 -178.5t186.5 -208t63.5 -221q0 -112 -54.5 -198.5t-149 -134.5t-204.5 -48q-101 0 -204.5 40.5t-174.5 111.5l-65 -84h-27l68 381h41q6 -82 25 -154.5t58 -130
t101.5 -88.5t151.5 -31q107 0 178 75t71 183q0 106 -57.5 182t-176 185.5t-177 194t-58.5 202.5q0 101 50.5 176t134.5 114.5t184 39.5q174 0 322 -119l61 74h27z" />
    <glyph glyph-name="T" unicode="T" horiz-adv-x="1311" 
d="M1561 1006h-41q-23 137 -62.5 199.5t-118 82t-245.5 19.5l-277 -1041q0 2 -19.5 -69.5t-19.5 -87.5q0 -27 15.5 -41t46 -20t59.5 -6.5t57 -0.5l-14 -45q-42 1 -130.5 4.5t-166.5 3.5q-70 0 -152.5 -3.5t-130.5 -4.5l13 45h28q74 0 112 21t55.5 59.5t41.5 128.5l281 1057
q-135 0 -211 -6.5t-145 -35t-121.5 -89.5t-91.5 -170h-39l90 346q102 -1 308.5 -5t309.5 -4q94 0 284 4t284 5v-346z" />
    <glyph glyph-name="U" unicode="U" horiz-adv-x="1393" 
d="M1731 1352l-13 -45q-76 0 -119.5 -30t-61.5 -73t-46 -139l-107 -381q-54 -195 -88 -294.5t-97 -199t-166 -158.5t-255 -59q-117 0 -225 36.5t-176 116t-68 202.5q0 34 9.5 82.5t25.5 102t29 101.5l125 463q5 18 16 54t17 61.5t6 42.5q0 28 -20.5 44.5t-45.5 21t-57.5 5.5
t-57.5 1l13 45q45 -1 135 -5t135 -4q51 0 154.5 4t152.5 5l-12 -45q-70 -2 -109.5 -11t-64.5 -43q-21 -27 -47.5 -107t-38.5 -130l-125 -469q-14 -52 -23 -87t-15.5 -74t-6.5 -73q0 -130 89 -204t222 -74q136 0 224.5 62.5t136.5 158.5t96 248q16 47 44 145.5t56.5 213.5
t46 202t17.5 125q0 72 -42.5 92.5t-125.5 24.5l12 45q167 -9 219 -9h21q49 0 211 9z" />
    <glyph glyph-name="V" unicode="V" horiz-adv-x="1188" 
d="M1583 1352l-12 -45q-115 -15 -185 -111q-28 -38 -61 -94t-74.5 -133.5t-70.5 -130.5q-22 -40 -66.5 -119t-70 -124.5t-97.5 -171t-80 -138.5l-194 -322h-58l-161 1198q-6 47 -16.5 76t-29 42.5t-47.5 19t-86 8.5l13 45q44 -1 132 -5t132 -4q47 0 140.5 4t142.5 5l-13 -45
q-82 -6 -129 -20t-47 -70q0 -53 17 -189l98 -813h4q51 87 121 208t173.5 308.5t168.5 323t65 174.5q0 51 -39.5 63.5t-109.5 14.5l10 45q35 -1 104 -5t103 -4q37 0 112.5 4t110.5 5z" />
    <glyph glyph-name="W" unicode="W" horiz-adv-x="1720" 
d="M2122 1352l-8 -45q-68 -13 -114 -58.5t-70 -92.5t-70 -146l-506 -1047h-66l-129 1098h-4l-520 -1098h-68l-123 1120q-10 101 -18 139t-43 61t-119 24l12 45q43 -1 130 -5t129 -4q46 0 138 4t138 5l-12 -45q-46 -3 -84 -6.5t-63 -21.5t-25 -65v-2v-16v-22q0 -35 2 -54
l84 -860h4l358 764q20 40 38.5 78t33 75t14.5 60q0 26 -17.5 39.5t-45 19.5t-58 8t-45.5 3l11 45q41 -1 124 -5t123 -4q44 0 129.5 4t126.5 5l-10 -45q-38 -5 -69 -10.5t-50 -15t-30 -30.5t-11 -59v-18l13 -193l75 -735h5l266 559q46 96 75.5 161t60 144.5t30.5 112.5
q0 52 -35.5 64t-116.5 20l12 45q33 -1 98 -5t97 -4q35 0 102 4t101 5z" />
    <glyph glyph-name="X" unicode="X" horiz-adv-x="1311" 
d="M1585 1352l-12 -45q-81 -12 -133 -45q-57 -34 -189 -185l-307 -338l207 -448q6 -12 20 -42t35.5 -71t35.5 -62t30 -38q26 -24 53.5 -29.5t83.5 -7.5l-10 -45q-47 1 -128.5 4.5t-152.5 3.5q-66 0 -143 -3.5t-121 -4.5l10 45q73 2 109.5 12t36.5 53q0 28 -17.5 72.5
t-42.5 97.5l-30 70l-113 250l-148 -162q-227 -244 -227 -323q0 -24 17 -37.5t43.5 -20.5t57.5 -9t44 -3l-10 -45q-40 1 -113 4.5t-137 3.5q-55 0 -120.5 -3.5t-102.5 -4.5l12 45q86 10 135 43.5t119 114.5l401 463l-205 450q-41 90 -58.5 120.5t-56 50.5t-116.5 24l12 45
q46 -1 132.5 -5t129.5 -4q47 0 143.5 4t141.5 5l-12 -45q-33 -3 -66.5 -6t-57.5 -16t-24 -46q0 -49 78 -223l99 -219l151 170q77 83 135 159t58 125q0 27 -25.5 39t-63.5 14l-57 3l14 45q39 -1 111.5 -5t108.5 -4q39 0 118.5 4t116.5 5z" />
    <glyph glyph-name="Y" unicode="Y" horiz-adv-x="1188" 
d="M1516 1352l-13 -45h-8q-29 0 -54.5 -13t-45 -32.5t-43 -49t-39.5 -49.5l-479 -581l-99 -369q-20 -74 -20 -100q0 -46 35.5 -59t99.5 -13h24h21l-10 -45q-54 1 -144.5 4.5t-169.5 3.5q-67 0 -146 -3.5t-124 -4.5l10 45h29q75 0 112 21t54 59.5t41 128.5l96 362l-149 506
q-11 35 -18 59t-15.5 46t-18.5 37q-21 30 -50 37.5t-85 9.5l12 45q41 -1 123 -5t123 -4q43 0 129 4t129 5l-12 -45q-73 -3 -110 -12.5t-37 -57.5q0 -28 8 -57l149 -518q37 45 104 120t143.5 166t130.5 171t54 114q0 49 -39 60t-112 14l12 45q33 -1 98 -5t97 -4q35 0 104.5 4
t102.5 5z" />
    <glyph glyph-name="Z" unicode="Z" horiz-adv-x="1147" 
d="M1384 1352l-956 -1311h240q155 0 248.5 19t169 82.5t147.5 197.5h41q-29 -79 -69 -182.5t-62 -161.5q-141 2 -282.5 3.5t-306.5 3t-259 1.5q-33 0 -73.5 -3.5t-63.5 -4.5l948 1311h-178q-129 0 -213 -20.5t-151.5 -77.5t-143.5 -171h-41l125 314q122 -1 367 -5t366 -4
q24 0 72.5 4t74.5 5z" />
    <glyph glyph-name="bracketleft" unicode="[" horiz-adv-x="778" 
d="M977 1364l-19 -61h-225l-360 -1518h229l-18 -61h-363l387 1640h369z" />
    <glyph glyph-name="backslash" unicode="\" horiz-adv-x="573" 
d="M803 -276h-115l-461 1695h115z" />
    <glyph glyph-name="bracketright" unicode="]" horiz-adv-x="778" 
d="M834 1364l-388 -1640h-368l18 61h226l360 1518h-229l18 61h363z" />
    <glyph glyph-name="asciicircum" unicode="^" 
d="M1085 584h-112l-275 630l-262 -630h-112l327 759h101z" />
    <glyph glyph-name="underscore" unicode="_" horiz-adv-x="1024" 
d="M1024 -256h-1024v102h1024v-102z" />
    <glyph glyph-name="grave" unicode="`" horiz-adv-x="696" 
d="M879 1071h-58l-235 148q-40 26 -58 42t-18 42q0 27 19.5 49t45.5 22q24 0 49.5 -19t51 -49t39.5 -46z" />
    <glyph glyph-name="a" unicode="a" horiz-adv-x="1024" 
d="M1116 295q-24 -50 -51.5 -107.5t-59.5 -105t-76 -78.5t-98 -31q-55 0 -88.5 31t-33.5 86q0 27 8 66t10 51l-4 4q-135 -238 -305 -238q-66 0 -119 32t-83 87t-30 123q0 97 46 213.5t127 222t180 169t202 63.5q112 0 156 -111l31 84h145l-90 -244q-42 -116 -88.5 -281
t-46.5 -247q0 -49 26 -49q45 0 92 78.5t107 199.5zM854 729q0 28 -12 53t-33.5 40.5t-50.5 15.5q-72 0 -145.5 -75t-138 -193.5t-102.5 -234t-38 -177.5q0 -54 25.5 -97t74.5 -43q96 0 169 92.5t132 219.5q43 90 81 204t38 195z" />
    <glyph glyph-name="b" unicode="b" horiz-adv-x="860" 
d="M942 629q0 -101 -44.5 -215t-123 -215t-180 -163.5t-205.5 -62.5q-65 0 -115 26t-77 74.5t-27 112.5q0 49 22 133t50 170l200 646q25 67 25 104q0 59 -111 59h-16l12 45l320 21l-127 -375l-94 -301l4 -4q56 91 120 145t150 54q65 0 115.5 -35t76 -93t25.5 -126zM795 700
q0 51 -26 94.5t-71 43.5q-71 0 -141 -80t-127 -198.5t-92 -240.5t-35 -188q0 -48 26 -80.5t72 -32.5q76 0 149 77.5t127 190t86 228.5t32 186z" />
    <glyph glyph-name="c" unicode="c" horiz-adv-x="737" 
d="M858 766q0 -34 -23 -60t-55 -26q-29 0 -49 22.5t-20 49.5q0 17 11 36t11 25q0 25 -45 25q-72 0 -136 -78.5t-112.5 -193t-77 -229t-28.5 -173.5q0 -58 29.5 -102t85.5 -44q160 0 290 263l41 -25q-143 -283 -358 -283q-114 0 -175 78.5t-61 194.5q0 95 42.5 207.5
t113.5 209t166 158.5t194 62q61 0 108.5 -30.5t47.5 -86.5z" />
    <glyph glyph-name="d" unicode="d" horiz-adv-x="1024" 
d="M1159 1364l-98 -352l-86 -320q-18 -64 -51 -188t-54.5 -231t-21.5 -179q0 -59 33 -59q45 0 104 99.5t92 182.5l45 -16q-25 -68 -67 -143.5t-99 -130t-120 -54.5q-57 0 -89 40t-32 98q0 39 18 131l-4 4q-57 -117 -131 -195t-174 -78q-109 0 -173.5 76t-64.5 187
q0 92 43 205.5t118 214.5t172 164t198 63q43 0 78.5 -24.5t54.5 -61.5l96 336q27 99 27 114q0 21 -17 32t-33.5 13t-52.5 3.5t-47 2.5l15 45zM817 709q0 51 -23.5 90t-70.5 39q-70 0 -140.5 -78t-126.5 -193.5t-89 -232t-33 -178.5q0 -54 27.5 -96t80.5 -42q75 0 142 78.5
t121 199t83 235t29 178.5z" />
    <glyph glyph-name="e" unicode="e" horiz-adv-x="696" 
d="M838 741q0 -99 -75.5 -175t-157.5 -119t-232 -109l-33 -14q-35 -117 -35 -189q0 -50 26 -83.5t75 -33.5t92.5 23t78 56t77.5 88t61 79l37 -26q-82 -120 -168 -192.5t-197 -72.5q-107 0 -168 64t-61 170q0 98 42.5 214.5t117.5 223t173 172.5t199 66q64 0 106 -39t42 -103
zM725 770q0 32 -16.5 50t-46.5 18q-69 0 -131.5 -81.5t-108 -190.5t-66.5 -187q83 37 167.5 94.5t143 135.5t58.5 161z" />
    <glyph glyph-name="f" unicode="f" horiz-adv-x="573" 
d="M1024 1241q0 -25 -14 -42t-37 -17q-52 0 -72 73q-7 34 -19.5 49t-41.5 15q-54 0 -96 -52.5t-70 -129.5t-44.5 -146t-33.5 -137h178l-14 -45h-174l-164 -668q-34 -145 -60.5 -239.5t-78.5 -203t-133 -180t-191 -71.5q-64 0 -119 30.5t-55 88.5q0 23 15 40t40 17
q30 0 42 -17t23.5 -50.5t24.5 -48.5t45 -15q33 0 60 22t48 55.5t39 75.5t25 62l283 1102h-168l14 45h166q52 165 91 259.5t119 172.5t198 78q62 0 118 -32.5t56 -90.5z" />
    <glyph glyph-name="g" unicode="g" horiz-adv-x="901" 
d="M1137 762q0 -32 -23 -57t-57 -25q-25 0 -45 17.5t-23 43.5q-3 24 -4 30t-7 13t-20 7q-22 0 -39 -12t-47 -40q23 -52 23 -108q0 -83 -28.5 -158.5t-83 -136.5t-127 -96.5t-154.5 -36.5q-221 0 -221 -86q0 -58 111 -80.5t221 -39.5t192 -74.5t82 -186.5q0 -79 -38.5 -136.5
t-102 -91t-137.5 -47.5t-152 -14q-158 0 -285 62t-127 200q0 43 20.5 77t54.5 54.5t77 20.5q34 0 82 -25q-46 -16 -73.5 -55t-27.5 -86q0 -111 85.5 -157t209.5 -46q118 0 209.5 43.5t91.5 147.5q0 91 -61.5 116t-196.5 45q-42 6 -108.5 18t-121.5 33.5t-91.5 59.5t-36.5 94
q0 149 223 195q-62 38 -99.5 95.5t-37.5 123.5q0 100 55 198t148.5 160t195.5 62q127 0 205 -97q82 86 160 86q51 0 90 -31t39 -79zM748 690q0 58 -31.5 103t-85.5 45q-55 0 -101 -48.5t-75.5 -118.5t-46.5 -146t-17 -128q0 -60 34 -104.5t93 -44.5q76 0 127.5 78t77 182.5
t25.5 181.5z" />
    <glyph glyph-name="h" unicode="h" horiz-adv-x="1024" 
d="M1102 276q-34 -78 -74.5 -143.5t-97.5 -112.5t-125 -47q-119 0 -119 131v5q2 106 70 284l41 109q67 180 67 248q0 28 -16.5 45.5t-44.5 17.5q-100 0 -195 -131t-159 -285t-109 -291l-35 -106h-137l326 1116q24 79 24 117q0 43 -31 54t-84 11h-30l12 45l332 21l-223 -758
l4 -4q67 95 106 142.5t101.5 88.5t136.5 41q145 0 145 -172v-4q0 -108 -65 -290l-91 -242q-24 -72 -24 -94q0 -37 31 -37q37 0 79.5 46t80 107.5t59.5 106.5z" />
    <glyph glyph-name="i" unicode="i" horiz-adv-x="573" 
d="M676 1247q0 -37 -27.5 -63.5t-66.5 -26.5q-37 0 -65 26t-28 64q0 40 27 68t66 28q40 0 67 -28t27 -68zM653 260q-138 -287 -291 -287q-61 0 -97 43.5t-36 104.5q0 41 14 86t36.5 97.5t39.5 92.5l58 138q76 186 76 245q0 18 -9.5 29.5t-25.5 11.5q-41 0 -98 -76.5
t-95 -146.5l-41 23q44 73 61.5 102t52.5 70.5t75 65.5t86 24q57 0 92 -41.5t35 -98.5q0 -32 -8.5 -70.5t-23 -79.5t-31 -81t-34.5 -82l-65 -166q-62 -155 -62 -194q0 -13 9 -24t22 -11q50 0 117.5 87t101.5 159z" />
    <glyph glyph-name="j" unicode="j" horiz-adv-x="532" 
d="M686 1247q0 -37 -26.5 -63.5t-65.5 -26.5q-38 0 -66 26t-28 64q0 41 27.5 68.5t66.5 27.5q40 0 66 -28t26 -68zM580 778q0 -66 -32.5 -214t-58.5 -228l-184 -610q-34 -117 -123.5 -198t-210.5 -81q-62 0 -116 27t-54 82q0 21 16 38t38 17q29 0 41.5 -16t23.5 -45
t25 -43.5t43 -14.5q68 0 116 77.5t72 166.5l125 440q18 63 52.5 206.5t60.5 259t26 128.5q0 31 -22 31q-37 0 -109.5 -93.5t-105.5 -154.5l-39 25q57 113 145 209t178 96q43 0 68 -30t25 -75z" />
    <glyph glyph-name="k" unicode="k" horiz-adv-x="901" 
d="M985 238q-38 -89 -63 -137.5t-71 -88t-112 -39.5q-60 0 -95.5 41t-35.5 101q0 17 5 89.5t5 119.5q0 49 -13.5 70.5t-55.5 31.5l-162 -74l-102 -352h-154l311 1180q15 47 15 75q0 45 -105 45q-22 0 -31.5 -0.5t-19.5 -1.5l14 45l334 21q-11 -42 -35 -126t-34 -126
l-111 -438l4 -4q67 95 143.5 154t174.5 59q37 0 72.5 -16t58 -44.5t22.5 -64.5q0 -73 -52 -125.5t-131 -95.5t-155 -84q95 -25 127.5 -78.5t32.5 -149.5v-37l-2 -59q-4 -20 -4 -45q0 -49 31 -49q30 0 58 38.5t52.5 89t44.5 91.5zM797 758q0 29 -18 46t-50 17
q-106 0 -196.5 -137t-131.5 -274q156 63 276 149.5t120 198.5z" />
    <glyph glyph-name="l" unicode="l" horiz-adv-x="532" 
d="M721 1364l-244 -776q-53 -168 -88 -296t-35 -198q0 -59 39 -59q46 0 114.5 97.5t94.5 160.5l47 -23q-57 -106 -87.5 -154.5t-86 -95.5t-125.5 -47q-69 0 -106 46.5t-37 115.5q0 85 78 328l209 686q20 67 20 84q0 34 -24 47t-58.5 15t-64.5 3l12 45z" />
    <glyph glyph-name="m" unicode="m" horiz-adv-x="1475" 
d="M1569 276q-27 -66 -69 -134t-99.5 -118.5t-116.5 -50.5q-57 0 -92 40.5t-35 99.5q0 64 21.5 136.5t60.5 180.5l41 113q24 66 32.5 88.5t18.5 64.5t10 66q0 23 -11.5 40t-33.5 17q-59 0 -130 -85t-117 -167q-47 -80 -84.5 -170.5t-73 -195t-68.5 -201.5h-145l106 326
q36 105 77.5 244t41.5 200q0 19 -9.5 35t-27.5 16q-59 0 -127 -82.5t-124 -192.5t-80 -177l-138 -369h-137l111 371q29 98 53.5 209.5t24.5 173.5q0 67 -31 67q-47 0 -104.5 -92.5t-88.5 -175.5l-41 16q45 126 115 220t168 94q57 0 86 -43t29 -101q0 -31 -9 -92t-12 -90
l4 -4q81 149 158.5 239.5t185.5 90.5q39 0 67 -19t44 -50t16 -69q0 -59 -28 -149l4 -4q44 74 89.5 137t105 108.5t126.5 45.5q41 0 71 -22.5t45 -58.5t15 -77q0 -55 -19.5 -130.5t-51.5 -168.5l-78 -219q-35 -101 -35 -125q0 -47 33 -47q48 0 113 92.5t104 171.5z" />
    <glyph glyph-name="n" unicode="n" horiz-adv-x="1147" 
d="M1214 272q-141 -299 -292 -299q-64 0 -100 41.5t-36 104.5q0 39 13 91.5t30 102.5t33 95l37 100q15 39 32 83.5t29.5 88t12.5 72.5q0 28 -19.5 48.5t-50.5 20.5q-71 0 -145.5 -83.5t-130.5 -180.5q-40 -70 -75 -150.5t-63.5 -160.5t-58.5 -183l-18 -63h-154l45 129
q54 157 105 345.5t51 281.5q0 65 -39 65q-37 0 -76 -50t-73 -116t-54 -106l-41 14q48 108 78 164.5t84 106t127 49.5q60 0 92.5 -39.5t32.5 -102.5q0 -66 -17 -151l-6 -37l4 -4q72 140 160 237t205 97q45 0 81.5 -22.5t57.5 -60t21 -83.5q0 -119 -70 -301l-37 -99
q-8 -22 -27.5 -77t-30.5 -90t-11 -54t12 -40t31 -21q38 0 79 46.5t76 106.5t53 105z" />
    <glyph glyph-name="o" unicode="o" horiz-adv-x="860" 
d="M942 551q0 -121 -64 -258t-172.5 -228.5t-234.5 -91.5q-131 0 -208 82.5t-77 216.5q0 93 36 199.5t100 200t151 152.5t186 59q71 0 124.5 -27t88 -72.5t52.5 -107t18 -125.5zM795 686q0 61 -33 106.5t-92 45.5q-97 0 -174 -122t-119.5 -283.5t-42.5 -260.5q0 -70 35 -112
t104 -42q80 0 141 75t101 185.5t60 222.5t20 185z" />
    <glyph glyph-name="p" unicode="p" horiz-adv-x="983" 
d="M1065 623q0 -133 -70 -286.5t-187.5 -258.5t-256.5 -105q-51 0 -95.5 31t-60.5 78h-4l-76 -277q-2 -6 -21 -75.5t-29.5 -113t-10.5 -65.5q0 -44 37.5 -54t101.5 -13l-14 -45q-35 1 -99.5 4.5t-119.5 3.5q-50 0 -108.5 -3.5t-92.5 -4.5l12 45q81 5 107 31q11 14 25 50
t24 72t18 64l285 1040q-87 -60 -123 -88.5t-69.5 -71.5t-59.5 -112l-41 16q18 64 46 107.5t68 79.5t93 76q51 37 77.5 63.5t43.5 63.5t31 92l57 225l141 -21l-137 -487l4 -4q50 73 82 111t81 65t114 27q105 0 166 -76t61 -184zM918 700q0 53 -29 95.5t-78 42.5
q-72 0 -141 -77.5t-120.5 -190t-82.5 -230.5t-31 -182q0 -52 27 -96t76 -44q95 0 181.5 126.5t142 294.5t55.5 261z" />
    <glyph glyph-name="q" unicode="q" horiz-adv-x="901" 
d="M1028 883l-301 -1078q-68 -242 -68 -266q0 -33 30.5 -44t80.5 -11h31h12l-12 -45q-36 1 -104 4.5t-126 3.5q-55 0 -119.5 -3.5t-103.5 -4.5l14 45q18 1 41 2.5t45 5.5t31 12q16 13 33 56.5t25 72.5l159 562l-4 4q-120 -226 -284 -226q-112 0 -167 71t-55 185
q0 95 42 209.5t116 216.5t168.5 165t194.5 63q122 0 153 -125h4l31 125h133zM815 713q0 51 -24 88t-72 37q-93 0 -181.5 -128t-146 -292.5t-57.5 -249.5q0 -57 21.5 -103.5t72.5 -46.5q74 0 144 77.5t124 193.5t86.5 237t32.5 187z" />
    <glyph glyph-name="r" unicode="r" horiz-adv-x="696" 
d="M924 788q0 -31 -24 -53t-56 -22q-29 0 -48.5 17t-19.5 48v15q0 28 -14 28q-29 0 -71.5 -55.5t-57.5 -87.5q-26 -50 -52 -112.5t-49 -125t-42 -116.5t-44 -129l-65 -195h-152l105 338q22 68 40.5 181t18.5 190v16q0 96 -33 96q-22 0 -61 -51.5t-74.5 -116.5t-44.5 -88
l-43 17q22 57 64.5 127t95 122t102.5 52q69 0 102.5 -55t33.5 -128v-8q-1 -15 -4 -37.5t-7.5 -52.5t-5.5 -45l4 -4q25 69 66.5 145.5t98 130.5t122.5 54q45 0 80 -25.5t35 -69.5z" />
    <glyph glyph-name="s" unicode="s" horiz-adv-x="696" 
d="M786 754q0 -23 -14.5 -38.5t-36.5 -15.5q-34 0 -42 14.5t-13.5 51t-22.5 54.5t-67 18q-55 0 -96 -35.5t-41 -89.5q0 -46 21.5 -81.5t85.5 -117.5t96.5 -142.5t33.5 -129.5v-6q0 -125 -91 -194t-222 -69q-93 0 -170.5 41t-77.5 125q0 76 53 76q25 0 43.5 -17.5t18.5 -43.5
q0 -14 -3 -34.5t-3 -21.5q0 -40 40 -60t87 -20q77 0 127.5 40.5t50.5 113.5q0 47 -29.5 96.5t-89.5 127.5t-89.5 132.5t-29.5 112.5q0 114 82.5 178t200.5 64q42 0 88 -13t78 -42t32 -74z" />
    <glyph glyph-name="t" unicode="t" horiz-adv-x="573" 
d="M719 856l-14 -45h-160l-17 -53q-34 -112 -102 -365.5t-68 -302.5q0 -26 7.5 -40.5t27.5 -14.5q30 0 61.5 30.5t59.5 75.5t51.5 90t36.5 72l41 -22q-35 -72 -58 -115.5t-56.5 -88.5t-78.5 -74.5t-102 -29.5q-58 0 -97.5 39.5t-39.5 98.5q0 27 6 63t18.5 86.5t23.5 88.5
t17 59l117 403h-162l17 45h162l96 285h141l-88 -285h160z" />
    <glyph glyph-name="u" unicode="u" horiz-adv-x="1147" 
d="M1227 276q-111 -303 -266 -303q-66 0 -102 38.5t-36 99.5v18q4 42 6.5 73.5t4.5 51.5l-5 4q-78 -130 -154 -207.5t-183 -77.5q-73 0 -123 48t-50 122q0 44 8 80t31 111l37 121q9 30 28.5 90t30.5 102.5t15 85.5q0 4 2 19t2 24q0 45 -27 45q-48 0 -113 -93t-110 -181
l-43 20q65 133 139 224.5t173 91.5q57 0 90.5 -46.5t33.5 -105.5q0 -86 -49 -237l-86 -271q-28 -84 -28 -121q0 -30 20 -48.5t53 -18.5q61 0 122.5 58.5t111 139.5t78.5 146l166 493h151l-78 -258q-16 -52 -40 -136.5t-38 -140.5t-25 -121t-11 -122q0 -59 34 -59
q46 0 107 99t78 159z" />
    <glyph glyph-name="v" unicode="v" horiz-adv-x="983" 
d="M1065 764q0 -110 -39.5 -246t-113 -260t-177.5 -204.5t-225 -80.5q-64 0 -117 28t-82.5 78.5t-29.5 115.5q0 72 35 157t88.5 173.5t99.5 164.5l-4 4q-75 -32 -113 -32q-30 0 -72 18t-55 18q-21 0 -32 -17.5t-11 -39.5v-14q0 -19 -12 -19q-18 0 -25.5 27.5t-7.5 48.5
q0 59 35 97t92 38q50 0 96 -41q9 -8 18.5 -17t18.5 -13.5t21 -4.5q28 0 63.5 17.5t42.5 42.5q13 43 23.5 61.5t35.5 18.5q15 0 24 -10.5t9 -26.5q0 -12 -9 -31.5t-21.5 -40t-20.5 -35.5q-63 -106 -102 -243t-39 -263q0 -198 121 -198q68 0 130.5 60.5t108.5 137.5
q50 82 75.5 175.5t25.5 191.5v33l-5 92q0 22 -4 68q0 90 72 90q45 0 63.5 -35t18.5 -84z" />
    <glyph glyph-name="w" unicode="w" horiz-adv-x="1311" 
d="M1401 727q0 -133 -62.5 -314.5t-175 -310.5t-250.5 -129q-81 0 -126.5 53t-47.5 134h-4q-52 -81 -129.5 -134t-165.5 -53q-89 0 -148 52t-59 139q0 80 44.5 176t109.5 194t121 181l-4 4q-14 -9 -26 -16.5t-30 -16t-36 -12.5t-33 -4q-7 2 -24 4.5t-23.5 4.5t-22.5 11
q-40 15 -51 15q-20 0 -28.5 -17t-8.5 -39v-18q0 -15 -10 -15q-19 0 -27 28.5t-8 51.5q0 58 33 96.5t88 38.5q34 0 53 -12.5t49.5 -39.5t46.5 -27q51 0 73.5 18t30 42t17 47.5t33.5 23.5q14 0 24.5 -9.5t10.5 -23.5t-10.5 -35.5t-26 -46.5t-18.5 -31q-35 -57 -76 -155
t-66.5 -192t-25.5 -165q0 -73 23.5 -131.5t84.5 -58.5q105 0 166 135t107 315l24 93q2 6 22.5 83.5t32.5 100.5q22 37 60 37q31 0 50 -19t19 -51q0 -30 -65.5 -251.5t-65.5 -301.5q0 -54 24 -97.5t71 -43.5q86 0 154 95.5t105.5 222.5t37.5 206q0 61 -17 156q-10 55 -10 69
q0 99 78 99q88 0 88 -156z" />
    <glyph glyph-name="x" unicode="x" horiz-adv-x="942" 
d="M1057 799q0 -89 -119 -213l-35 26q18 27 33 50t27 48t12 46q0 16 -9.5 26.5t-27.5 10.5q-34 0 -88 -65t-96 -126l-84 -113l108 -296q6 -13 18 -38.5t25 -42t27 -16.5q24 0 44.5 30t30 55.5t29.5 82.5l49 -16q-15 -55 -46.5 -119t-75 -110t-95.5 -46q-30 0 -54.5 18.5
t-43 50t-35 76t-18.5 48.5l-68 182l-180 -266q-77 -109 -147 -109q-37 0 -61.5 28.5t-24.5 64.5q0 84 102 210l45 -28q-13 -20 -29 -44.5t-26.5 -48.5t-10.5 -42q0 -47 35 -47q40 0 92 81l181 263l-107 299q-13 51 -47 51q-37 0 -56 -52.5t-32 -121.5l-45 14q5 57 29 123.5
t65 113t98 46.5q35 0 58 -17t43 -51q20 -30 39.5 -84t40.5 -121l20 -61l37 51q18 25 53 74.5t76 98.5t81.5 80.5t74.5 31.5q35 0 61.5 -26.5t26.5 -59.5z" />
    <glyph glyph-name="y" unicode="y" horiz-adv-x="778" 
d="M813 688v0v-8q0 -97 -17 -193.5t-49 -194.5t-75 -193.5t-90 -174.5q-102 -171 -247.5 -324t-277.5 -153q-32 0 -57 16t-25 41q0 76 107 76h12h37q62 0 104 15.5t91 58.5q139 145 139 330q0 104 -21.5 255.5t-48.5 243.5q-16 69 -58.5 173t-74.5 104q-30 0 -44.5 -62.5
t-14.5 -111.5v-4q0 -28 4 -80h-45q-4 60 -4 90v6q0 55 16.5 122t51 115t89.5 48q49 0 91 -55t70.5 -124.5t47.5 -132.5q62 -217 72 -512h4q41 79 75.5 167t55.5 177t21 164q0 69 -18 107t-48.5 79.5t-30.5 65.5q0 28 20 46t46 18q58 0 75 -56t17 -139z" />
    <glyph glyph-name="z" unicode="z" horiz-adv-x="737" 
d="M807 193q0 -96 -51.5 -158t-145.5 -62q-33 0 -65 9t-64 27t-57 34q-47 34 -79 52t-64 18q-74 0 -101 -82q-10 -30 -18.5 -44t-30.5 -14q-13 0 -23 9t-10 20q0 25 17.5 55t42.5 60.5t43 52.5l417 541l-4 4q-87 -25 -149 -25q-28 0 -76 10.5t-76 10.5q-35 0 -52 -27.5
t-17 -62.5v-7q1 -3 1.5 -5.5t0.5 -6.5q0 -16 -13 -16q-18 0 -29 38t-11 62q0 47 26.5 90t70 66.5t91.5 23.5q41 0 71.5 -15.5t56 -37.5t53 -42.5t52.5 -20.5q35 0 51 19.5t35 64.5q6 14 11 24.5t13.5 17.5t20.5 7q14 0 23.5 -7.5t9.5 -21.5q0 -24 -43 -80l-461 -608
q100 16 144 16q26 0 37.5 -1t33 -5t40 -7.5t30.5 -6.5q50 -12 78 -12q113 0 119 112q0 31 12 31q20 0 29.5 -36.5t9.5 -63.5z" />
    <glyph glyph-name="braceleft" unicode="{" horiz-adv-x="901" 
d="M987 1364l-4 -4q-149 -27 -199 -217l-88 -328q-31 -118 -78 -180t-151 -84h-4v-4q59 -10 89 -39.5t30 -91.5q0 -44 -19 -115l-94 -354q-16 -59 -16 -99q0 -45 24.5 -73.5t81.5 -46.5l-4 -4q-67 2 -106 9.5t-65.5 23.5t-39 42.5t-12.5 63.5q0 47 18 119l94 354
q15 50 15 90q0 51 -28 78t-81 45l4 2q97 23 137.5 68.5t65.5 144.5l82 311q29 109 65.5 169.5t95.5 90t154 29.5h33z" />
    <glyph glyph-name="bar" unicode="|" horiz-adv-x="778" 
d="M635 -512h-109v2048h109v-2048z" />
    <glyph glyph-name="braceright" unicode="}" horiz-adv-x="901" 
d="M809 1223q0 -49 -18 -117l-95 -354q-14 -49 -14 -88q0 -54 26.5 -80.5t82.5 -44.5l-5 -2q-95 -22 -136 -67.5t-66 -145.5l-82 -312q-40 -155 -109 -221.5t-207 -66.5h-32l4 4q86 15 132.5 77t65.5 140l88 327q20 77 45 128.5t69.5 87t115.5 49.5h4v4q-59 10 -89 40
t-30 91q0 45 19 114l94 355q16 59 16 94v4q0 87 -106 121l4 4q118 -1 169.5 -32t53.5 -105v-4z" />
    <glyph glyph-name="asciitilde" unicode="~" 
d="M1159 526q-44 -62 -75.5 -97t-77.5 -60t-105 -25q-25 0 -51 5t-62 17t-65 23.5t-49 18.5q-81 32 -127 46.5t-84 14.5q-64 0 -106 -37t-87 -106l-82 53q60 94 122.5 144t154.5 50q74 0 227 -61q25 -9 60 -23t59.5 -22.5t45.5 -13t40 -4.5q60 0 98.5 33.5t81.5 97.5z" />
    <glyph glyph-name="Adieresis" unicode="&#xc4;" horiz-adv-x="1311" 
d="M1331 41l-12 -45q-43 1 -123 4.5t-149 3.5q-67 0 -144 -3.5t-121 -4.5l11 45q97 7 136.5 20.5t39.5 79.5q0 51 -13 123l-45 295h-397l-90 -170q-46 -93 -81.5 -170.5t-35.5 -114.5q0 -29 30.5 -42t68.5 -16t67 -5l-12 -45q-39 1 -107 4.5t-127 3.5q-51 0 -112.5 -3.5
t-96.5 -4.5l13 45q55 8 90 24.5t69 53.5q24 25 49.5 66t65.5 113.5t57 102.5l558 967h61l162 -1106q24 -154 41 -178q12 -18 38 -27t47.5 -11t61.5 -5zM901 621l-61 505h-4l-287 -505h352zM1266 1688q0 -41 -29 -71t-71 -30q-41 0 -71 28.5t-30 70.5q0 27 13 50.5t36 37.5
t52 14q20 0 39 -8t32 -21t21 -32t8 -39zM930 1688q0 -41 -29 -71t-71 -30q-41 0 -71 28.5t-30 70.5q0 27 13 50.5t36 37.5t52 14q20 0 39 -8t32 -21t21 -32t8 -39z" />
    <glyph glyph-name="Aring" unicode="&#xc5;" horiz-adv-x="1311" 
d="M1331 41l-12 -45q-43 1 -123 4.5t-149 3.5q-67 0 -144 -3.5t-121 -4.5l11 45q97 7 136.5 20.5t39.5 79.5q0 51 -13 123l-45 295h-397l-90 -170q-46 -93 -81.5 -170.5t-35.5 -114.5q0 -29 30.5 -42t68.5 -16t67 -5l-12 -45q-39 1 -107 4.5t-127 3.5q-51 0 -112.5 -3.5
t-96.5 -4.5l13 45q55 8 90 24.5t69 53.5q24 25 49.5 66t65.5 113.5t57 102.5l558 967h61l162 -1106q24 -154 41 -178q12 -18 38 -27t47.5 -11t61.5 -5zM901 621l-61 505h-4l-287 -505h352zM1204 1642q0 -87 -63 -147t-150 -60q-55 0 -105 27.5t-79 75t-29 104.5
q0 88 63.5 150.5t151.5 62.5q89 0 150 -63t61 -150zM1130 1642q0 61 -38.5 103t-100.5 42q-59 0 -99 -43t-40 -102q0 -58 40 -99t99 -41q58 0 98.5 41.5t40.5 98.5z" />
    <glyph glyph-name="Ccedilla" unicode="&#xc7;" horiz-adv-x="1270" 
d="M1460 1337l-78 -381h-41q-7 114 -31 192.5t-85 127.5t-170 49q-137 0 -248 -92t-188 -237t-116.5 -301t-39.5 -281q0 -179 86 -287.5t260 -108.5q126 0 213.5 54t143 134t130.5 222h43l-108 -432h-23l-24 106q-99 -70 -194 -99.5t-222 -29.5q-20 0 -31 4l-22 -73
q53 0 93 -28.5t40 -78.5q0 -64 -49 -100.5t-117 -36.5q-53 0 -109.5 23.5t-56.5 68.5q0 17 12 31t31 14q33 0 43 -39q11 -32 22 -42.5t40 -10.5q39 0 68.5 25.5t29.5 64.5q0 35 -31 49.5t-72 14.5h-10l39 123q-130 15 -227 83.5t-150 180t-53 248.5q0 157 59.5 312.5
t167.5 284t251.5 204t305.5 75.5q93 0 165 -25.5t161 -80.5l72 73h20z" />
    <glyph glyph-name="Eacute" unicode="&#xc9;" horiz-adv-x="1147" 
d="M1323 1040h-39q-41 152 -109 209.5t-188 57.5h-272l-148 -557h158q61 0 102 17.5t74.5 63.5t73.5 136h37l-107 -523h-41q0 14 2 50t2 55q0 104 -57 135q-37 21 -111 21h-145l-117 -435q-20 -68 -20 -108q0 -74 69.5 -97.5t169.5 -23.5h68q122 0 199.5 31t129.5 95.5
t107 180.5h47l-94 -352q-137 1 -381.5 4.5t-453.5 3.5q-72 0 -154.5 -3.5t-132.5 -4.5l12 45h29q73 0 111 21t55 59.5t41 128.5l221 827q12 43 16 59t11.5 49t7.5 46q0 49 -44 62.5t-110 13.5l12 45q45 -1 129.5 -5t126.5 -4q114 0 343.5 4t340.5 5zM1188 1763
q0 -38 -31.5 -61.5t-93.5 -52.5l-227 -113h-68l219 201q3 3 34.5 31.5t56.5 43.5t47 15q25 0 44 -19t19 -45z" />
    <glyph glyph-name="Ntilde" unicode="&#xd1;" horiz-adv-x="1434" 
d="M1757 1352l-10 -45q-72 -1 -114 -29t-63 -72t-44 -125l-297 -1118h-47l-568 1143l-159 -594q-74 -270 -74 -360q0 -50 25.5 -73.5t61.5 -29.5t93 -8l-12 -45q-38 1 -109.5 4.5t-132.5 3.5q-58 0 -127 -3.5t-108 -4.5l10 45q83 11 124.5 29t72.5 77q32 62 59 152t65 233
l170 639q-36 69 -55.5 93t-50.5 32t-111 11l13 45q28 -1 87.5 -5t90.5 -4q26 0 76 4t75 5l545 -1100l180 670q17 60 33.5 141.5t16.5 124.5q0 53 -23 78t-58.5 31t-95.5 10l13 45q37 -1 110 -5t109 -4q38 0 115.5 4t113.5 5zM1382 1741q-10 -64 -57.5 -118t-108.5 -54
q-46 0 -72.5 11t-96.5 43t-99 32q-32 0 -52.5 -18t-41.5 -54l-49 6q24 73 74 120.5t122 47.5q48 0 138 -41t112 -41q53 0 84 72z" />
    <glyph glyph-name="Odieresis" unicode="&#xd6;" horiz-adv-x="1434" 
d="M1552 844q0 -155 -63 -311t-174 -282.5t-258.5 -202t-304.5 -75.5q-232 0 -363 144.5t-131 376.5q0 154 61.5 311.5t168.5 284.5t252.5 203.5t303.5 76.5q151 0 267 -68.5t178.5 -188.5t62.5 -269zM1348 965q0 61 -18 125.5t-52.5 117t-86.5 85t-120 32.5
q-138 0 -251 -97.5t-193 -248.5t-122 -315t-42 -287q0 -93 30 -175t92.5 -133t159.5 -51q140 0 253.5 95.5t191.5 247t118 314t40 290.5zM1368 1688q0 -41 -29 -71t-71 -30q-41 0 -71 28.5t-30 70.5q0 27 13 50.5t36 37.5t52 14q20 0 39 -8t32 -21t21 -32t8 -39zM1032 1688
q0 -41 -29 -71t-71 -30q-41 0 -71 28.5t-30 70.5q0 27 13 50.5t36 37.5t52 14q20 0 39 -8t32 -21t21 -32t8 -39z" />
    <glyph glyph-name="Udieresis" unicode="&#xdc;" horiz-adv-x="1393" 
d="M1731 1352l-13 -45q-76 0 -119.5 -30t-61.5 -73t-46 -139l-107 -381q-54 -195 -88 -294.5t-97 -199t-166 -158.5t-255 -59q-117 0 -225 36.5t-176 116t-68 202.5q0 34 9.5 82.5t25.5 102t29 101.5l125 463q5 18 16 54t17 61.5t6 42.5q0 28 -20.5 44.5t-45.5 21t-57.5 5.5
t-57.5 1l13 45q45 -1 135 -5t135 -4q51 0 154.5 4t152.5 5l-12 -45q-70 -2 -109.5 -11t-64.5 -43q-21 -27 -47.5 -107t-38.5 -130l-125 -469q-14 -52 -23 -87t-15.5 -74t-6.5 -73q0 -130 89 -204t222 -74q136 0 224.5 62.5t136.5 158.5t96 248q16 47 44 145.5t56.5 213.5
t46 202t17.5 125q0 72 -42.5 92.5t-125.5 24.5l12 45q167 -9 219 -9h21q49 0 211 9zM1368 1688q0 -41 -29 -71t-71 -30q-41 0 -71 28.5t-30 70.5q0 27 13 50.5t36 37.5t52 14q20 0 39 -8t32 -21t21 -32t8 -39zM1032 1688q0 -41 -29 -71t-71 -30q-41 0 -71 28.5t-30 70.5
q0 27 13 50.5t36 37.5t52 14q20 0 39 -8t32 -21t21 -32t8 -39z" />
    <glyph glyph-name="aacute" unicode="&#xe1;" horiz-adv-x="1024" 
d="M1116 295q-24 -50 -51.5 -107.5t-59.5 -105t-76 -78.5t-98 -31q-55 0 -88.5 31t-33.5 86q0 27 8 66t10 51l-4 4q-135 -238 -305 -238q-66 0 -119 32t-83 87t-30 123q0 97 46 213.5t127 222t180 169t202 63.5q112 0 156 -111l31 84h145l-90 -244q-42 -116 -88.5 -281
t-46.5 -247q0 -49 26 -49q45 0 92 78.5t107 199.5zM854 729q0 28 -12 53t-33.5 40.5t-50.5 15.5q-72 0 -145.5 -75t-138 -193.5t-102.5 -234t-38 -177.5q0 -54 25.5 -97t74.5 -43q96 0 169 92.5t132 219.5q43 90 81 204t38 195zM1065 1296q0 -38 -31.5 -61.5t-93.5 -52.5
l-227 -113h-68l219 201q3 3 34.5 31.5t56.5 43.5t47 15q25 0 44 -19t19 -45z" />
    <glyph glyph-name="agrave" unicode="&#xe0;" horiz-adv-x="1024" 
d="M1116 295q-24 -50 -51.5 -107.5t-59.5 -105t-76 -78.5t-98 -31q-55 0 -88.5 31t-33.5 86q0 27 8 66t10 51l-4 4q-135 -238 -305 -238q-66 0 -119 32t-83 87t-30 123q0 97 46 213.5t127 222t180 169t202 63.5q112 0 156 -111l31 84h145l-90 -244q-42 -116 -88.5 -281
t-46.5 -247q0 -49 26 -49q45 0 92 78.5t107 199.5zM854 729q0 28 -12 53t-33.5 40.5t-50.5 15.5q-72 0 -145.5 -75t-138 -193.5t-102.5 -234t-38 -177.5q0 -54 25.5 -97t74.5 -43q96 0 169 92.5t132 219.5q43 90 81 204t38 195zM951 1071h-58l-235 148q-40 26 -58 42t-18 42
q0 27 19.5 49t45.5 22q24 0 49.5 -19t51 -49t39.5 -46z" />
    <glyph glyph-name="acircumflex" unicode="&#xe2;" horiz-adv-x="1024" 
d="M1116 295q-24 -50 -51.5 -107.5t-59.5 -105t-76 -78.5t-98 -31q-55 0 -88.5 31t-33.5 86q0 27 8 66t10 51l-4 4q-135 -238 -305 -238q-66 0 -119 32t-83 87t-30 123q0 97 46 213.5t127 222t180 169t202 63.5q112 0 156 -111l31 84h145l-90 -244q-42 -116 -88.5 -281
t-46.5 -247q0 -49 26 -49q45 0 92 78.5t107 199.5zM854 729q0 28 -12 53t-33.5 40.5t-50.5 15.5q-72 0 -145.5 -75t-138 -193.5t-102.5 -234t-38 -177.5q0 -54 25.5 -97t74.5 -43q96 0 169 92.5t132 219.5q43 90 81 204t38 195zM1106 1087h-52l-170 168l-260 -168h-76
l295 291h103z" />
    <glyph glyph-name="adieresis" unicode="&#xe4;" horiz-adv-x="1024" 
d="M1116 295q-24 -50 -51.5 -107.5t-59.5 -105t-76 -78.5t-98 -31q-55 0 -88.5 31t-33.5 86q0 27 8 66t10 51l-4 4q-135 -238 -305 -238q-66 0 -119 32t-83 87t-30 123q0 97 46 213.5t127 222t180 169t202 63.5q112 0 156 -111l31 84h145l-90 -244q-42 -116 -88.5 -281
t-46.5 -247q0 -49 26 -49q45 0 92 78.5t107 199.5zM854 729q0 28 -12 53t-33.5 40.5t-50.5 15.5q-72 0 -145.5 -75t-138 -193.5t-102.5 -234t-38 -177.5q0 -54 25.5 -97t74.5 -43q96 0 169 92.5t132 219.5q43 90 81 204t38 195zM1123 1221q0 -41 -29 -71t-71 -30
q-41 0 -71 28.5t-30 70.5q0 27 13 50.5t36 37.5t52 14q20 0 39 -8t32 -21t21 -32t8 -39zM787 1221q0 -41 -29 -71t-71 -30q-41 0 -71 28.5t-30 70.5q0 27 13 50.5t36 37.5t52 14q20 0 39 -8t32 -21t21 -32t8 -39z" />
    <glyph glyph-name="atilde" unicode="&#xe3;" horiz-adv-x="1024" 
d="M1116 295q-24 -50 -51.5 -107.5t-59.5 -105t-76 -78.5t-98 -31q-55 0 -88.5 31t-33.5 86q0 27 8 66t10 51l-4 4q-135 -238 -305 -238q-66 0 -119 32t-83 87t-30 123q0 97 46 213.5t127 222t180 169t202 63.5q112 0 156 -111l31 84h145l-90 -244q-42 -116 -88.5 -281
t-46.5 -247q0 -49 26 -49q45 0 92 78.5t107 199.5zM854 729q0 28 -12 53t-33.5 40.5t-50.5 15.5q-72 0 -145.5 -75t-138 -193.5t-102.5 -234t-38 -177.5q0 -54 25.5 -97t74.5 -43q96 0 169 92.5t132 219.5q43 90 81 204t38 195zM1137 1274q-10 -64 -57.5 -118t-108.5 -54
q-46 0 -72.5 11t-96.5 43t-99 32q-32 0 -52.5 -18t-41.5 -54l-49 6q24 73 74 120.5t122 47.5q48 0 138 -41t112 -41q53 0 84 72z" />
    <glyph glyph-name="aring" unicode="&#xe5;" horiz-adv-x="1024" 
d="M1116 295q-24 -50 -51.5 -107.5t-59.5 -105t-76 -78.5t-98 -31q-55 0 -88.5 31t-33.5 86q0 27 8 66t10 51l-4 4q-135 -238 -305 -238q-66 0 -119 32t-83 87t-30 123q0 97 46 213.5t127 222t180 169t202 63.5q112 0 156 -111l31 84h145l-90 -244q-42 -116 -88.5 -281
t-46.5 -247q0 -49 26 -49q45 0 92 78.5t107 199.5zM854 729q0 28 -12 53t-33.5 40.5t-50.5 15.5q-72 0 -145.5 -75t-138 -193.5t-102.5 -234t-38 -177.5q0 -54 25.5 -97t74.5 -43q96 0 169 92.5t132 219.5q43 90 81 204t38 195zM1061 1176q0 -87 -63 -147t-150 -60
q-55 0 -105 27.5t-79 75t-29 104.5q0 88 63.5 150.5t151.5 62.5q89 0 150 -63t61 -150zM987 1176q0 61 -38.5 103t-100.5 42q-59 0 -99 -43t-40 -102q0 -58 40 -99t99 -41q58 0 98.5 41.5t40.5 98.5z" />
    <glyph glyph-name="ccedilla" unicode="&#xe7;" horiz-adv-x="737" 
d="M858 766q0 -34 -23 -60t-55 -26q-29 0 -49 22.5t-20 49.5q0 17 11 36t11 25q0 25 -45 25q-72 0 -136 -78.5t-112.5 -193t-77 -229t-28.5 -173.5q0 -58 29.5 -102t85.5 -44q160 0 290 263l41 -25q-57 -113 -140 -191.5t-189 -89.5l-23 -71q53 0 93 -28.5t40 -78.5
q0 -64 -49 -100.5t-117 -36.5q-53 0 -109.5 23.5t-56.5 68.5q0 17 12 31t31 14q33 0 43 -39q13 -33 23 -43t39 -10q39 0 68.5 25.5t29.5 64.5q0 35 -30.5 49.5t-71.5 14.5h-11l37 114q-104 12 -158.5 88t-54.5 185q0 95 42.5 207.5t113.5 209t166 158.5t194 62
q61 0 108.5 -30.5t47.5 -86.5z" />
    <glyph glyph-name="eacute" unicode="&#xe9;" horiz-adv-x="696" 
d="M838 741q0 -99 -75.5 -175t-157.5 -119t-232 -109l-33 -14q-35 -117 -35 -189q0 -50 26 -83.5t75 -33.5t92.5 23t78 56t77.5 88t61 79l37 -26q-82 -120 -168 -192.5t-197 -72.5q-107 0 -168 64t-61 170q0 98 42.5 214.5t117.5 223t173 172.5t199 66q64 0 106 -39t42 -103
zM725 770q0 32 -16.5 50t-46.5 18q-69 0 -131.5 -81.5t-108 -190.5t-66.5 -187q83 37 167.5 94.5t143 135.5t58.5 161zM901 1296q0 -38 -31.5 -61.5t-93.5 -52.5l-227 -113h-68l219 201q3 3 34.5 31.5t56.5 43.5t47 15q25 0 44 -19t19 -45z" />
    <glyph glyph-name="egrave" unicode="&#xe8;" horiz-adv-x="696" 
d="M838 741q0 -99 -75.5 -175t-157.5 -119t-232 -109l-33 -14q-35 -117 -35 -189q0 -50 26 -83.5t75 -33.5t92.5 23t78 56t77.5 88t61 79l37 -26q-82 -120 -168 -192.5t-197 -72.5q-107 0 -168 64t-61 170q0 98 42.5 214.5t117.5 223t173 172.5t199 66q64 0 106 -39t42 -103
zM725 770q0 32 -16.5 50t-46.5 18q-69 0 -131.5 -81.5t-108 -190.5t-66.5 -187q83 37 167.5 94.5t143 135.5t58.5 161zM787 1071h-58l-235 148q-40 26 -58 42t-18 42q0 27 19.5 49t45.5 22q24 0 49.5 -19t51 -49t39.5 -46z" />
    <glyph glyph-name="ecircumflex" unicode="&#xea;" horiz-adv-x="696" 
d="M838 741q0 -99 -75.5 -175t-157.5 -119t-232 -109l-33 -14q-35 -117 -35 -189q0 -50 26 -83.5t75 -33.5t92.5 23t78 56t77.5 88t61 79l37 -26q-82 -120 -168 -192.5t-197 -72.5q-107 0 -168 64t-61 170q0 98 42.5 214.5t117.5 223t173 172.5t199 66q64 0 106 -39t42 -103
zM725 770q0 32 -16.5 50t-46.5 18q-69 0 -131.5 -81.5t-108 -190.5t-66.5 -187q83 37 167.5 94.5t143 135.5t58.5 161zM942 1087h-52l-170 168l-260 -168h-76l295 291h103z" />
    <glyph glyph-name="edieresis" unicode="&#xeb;" horiz-adv-x="696" 
d="M838 741q0 -99 -75.5 -175t-157.5 -119t-232 -109l-33 -14q-35 -117 -35 -189q0 -50 26 -83.5t75 -33.5t92.5 23t78 56t77.5 88t61 79l37 -26q-82 -120 -168 -192.5t-197 -72.5q-107 0 -168 64t-61 170q0 98 42.5 214.5t117.5 223t173 172.5t199 66q64 0 106 -39t42 -103
zM725 770q0 32 -16.5 50t-46.5 18q-69 0 -131.5 -81.5t-108 -190.5t-66.5 -187q83 37 167.5 94.5t143 135.5t58.5 161zM959 1221q0 -41 -29 -71t-71 -30q-41 0 -71 28.5t-30 70.5q0 27 13 50.5t36 37.5t52 14q20 0 39 -8t32 -21t21 -32t8 -39zM623 1221q0 -41 -29 -71
t-71 -30q-41 0 -71 28.5t-30 70.5q0 27 13 50.5t36 37.5t52 14q20 0 39 -8t32 -21t21 -32t8 -39z" />
    <glyph glyph-name="iacute" unicode="&#xed;" horiz-adv-x="573" 
d="M653 260q-138 -287 -291 -287q-61 0 -97 43.5t-36 104.5q0 41 14 86t36.5 97.5t39.5 92.5l58 138q76 186 76 245q0 18 -9.5 29.5t-25.5 11.5q-41 0 -98 -76.5t-95 -146.5l-41 23q44 73 61.5 102t52.5 70.5t75 65.5t86 24q57 0 92 -41.5t35 -98.5q0 -32 -8.5 -70.5
t-23 -79.5t-31 -81t-34.5 -82l-65 -166q-62 -155 -62 -194q0 -13 9 -24t22 -11q50 0 117.5 87t101.5 159zM840 1296q0 -38 -31.5 -61.5t-93.5 -52.5l-227 -113h-68l219 201q3 3 34.5 31.5t56.5 43.5t47 15q25 0 44 -19t19 -45z" />
    <glyph glyph-name="igrave" unicode="&#xec;" horiz-adv-x="573" 
d="M653 260q-138 -287 -291 -287q-61 0 -97 43.5t-36 104.5q0 41 14 86t36.5 97.5t39.5 92.5l58 138q76 186 76 245q0 18 -9.5 29.5t-25.5 11.5q-41 0 -98 -76.5t-95 -146.5l-41 23q44 73 61.5 102t52.5 70.5t75 65.5t86 24q57 0 92 -41.5t35 -98.5q0 -32 -8.5 -70.5
t-23 -79.5t-31 -81t-34.5 -82l-65 -166q-62 -155 -62 -194q0 -13 9 -24t22 -11q50 0 117.5 87t101.5 159zM684 1071h-58l-235 148q-40 26 -58 42t-18 42q0 27 19.5 49t45.5 22q24 0 49.5 -19t51 -49t39.5 -46z" />
    <glyph glyph-name="icircumflex" unicode="&#xee;" horiz-adv-x="573" 
d="M653 260q-138 -287 -291 -287q-61 0 -97 43.5t-36 104.5q0 41 14 86t36.5 97.5t39.5 92.5l58 138q76 186 76 245q0 18 -9.5 29.5t-25.5 11.5q-41 0 -98 -76.5t-95 -146.5l-41 23q44 73 61.5 102t52.5 70.5t75 65.5t86 24q57 0 92 -41.5t35 -98.5q0 -32 -8.5 -70.5
t-23 -79.5t-31 -81t-34.5 -82l-65 -166q-62 -155 -62 -194q0 -13 9 -24t22 -11q50 0 117.5 87t101.5 159zM799 1087h-52l-170 168l-260 -168h-76l295 291h103z" />
    <glyph glyph-name="idieresis" unicode="&#xef;" horiz-adv-x="573" 
d="M653 260q-138 -287 -291 -287q-61 0 -97 43.5t-36 104.5q0 41 14 86t36.5 97.5t39.5 92.5l58 138q76 186 76 245q0 18 -9.5 29.5t-25.5 11.5q-41 0 -98 -76.5t-95 -146.5l-41 23q44 73 61.5 102t52.5 70.5t75 65.5t86 24q57 0 92 -41.5t35 -98.5q0 -32 -8.5 -70.5
t-23 -79.5t-31 -81t-34.5 -82l-65 -166q-62 -155 -62 -194q0 -13 9 -24t22 -11q50 0 117.5 87t101.5 159zM836 1221q0 -41 -29 -71t-71 -30q-41 0 -71 28.5t-30 70.5q0 27 13 50.5t36 37.5t52 14q20 0 39 -8t32 -21t21 -32t8 -39zM500 1221q0 -41 -29 -71t-71 -30
q-41 0 -71 28.5t-30 70.5q0 27 13 50.5t36 37.5t52 14q20 0 39 -8t32 -21t21 -32t8 -39z" />
    <glyph glyph-name="ntilde" unicode="&#xf1;" horiz-adv-x="1147" 
d="M1214 272q-141 -299 -292 -299q-64 0 -100 41.5t-36 104.5q0 39 13 91.5t30 102.5t33 95l37 100q15 39 32 83.5t29.5 88t12.5 72.5q0 28 -19.5 48.5t-50.5 20.5q-71 0 -145.5 -83.5t-130.5 -180.5q-40 -70 -75 -150.5t-63.5 -160.5t-58.5 -183l-18 -63h-154l45 129
q54 157 105 345.5t51 281.5q0 65 -39 65q-37 0 -76 -50t-73 -116t-54 -106l-41 14q48 108 78 164.5t84 106t127 49.5q60 0 92.5 -39.5t32.5 -102.5q0 -66 -17 -151l-6 -37l4 -4q72 140 160 237t205 97q45 0 81.5 -22.5t57.5 -60t21 -83.5q0 -119 -70 -301l-37 -99
q-8 -22 -27.5 -77t-30.5 -90t-11 -54t12 -40t31 -21q38 0 79 46.5t76 106.5t53 105zM1157 1274q-10 -64 -57.5 -118t-108.5 -54q-46 0 -72.5 11t-96.5 43t-99 32q-32 0 -52.5 -18t-41.5 -54l-49 6q24 73 74 120.5t122 47.5q48 0 138 -41t112 -41q53 0 84 72z" />
    <glyph glyph-name="oacute" unicode="&#xf3;" horiz-adv-x="860" 
d="M942 551q0 -121 -64 -258t-172.5 -228.5t-234.5 -91.5q-131 0 -208 82.5t-77 216.5q0 93 36 199.5t100 200t151 152.5t186 59q71 0 124.5 -27t88 -72.5t52.5 -107t18 -125.5zM795 686q0 61 -33 106.5t-92 45.5q-97 0 -174 -122t-119.5 -283.5t-42.5 -260.5q0 -70 35 -112
t104 -42q80 0 141 75t101 185.5t60 222.5t20 185zM983 1296q0 -38 -31.5 -61.5t-93.5 -52.5l-227 -113h-68l219 201q3 3 34.5 31.5t56.5 43.5t47 15q25 0 44 -19t19 -45z" />
    <glyph glyph-name="ograve" unicode="&#xf2;" horiz-adv-x="860" 
d="M942 551q0 -121 -64 -258t-172.5 -228.5t-234.5 -91.5q-131 0 -208 82.5t-77 216.5q0 93 36 199.5t100 200t151 152.5t186 59q71 0 124.5 -27t88 -72.5t52.5 -107t18 -125.5zM795 686q0 61 -33 106.5t-92 45.5q-97 0 -174 -122t-119.5 -283.5t-42.5 -260.5q0 -70 35 -112
t104 -42q80 0 141 75t101 185.5t60 222.5t20 185zM869 1071h-58l-235 148q-40 26 -58 42t-18 42q0 27 19.5 49t45.5 22q24 0 49.5 -19t51 -49t39.5 -46z" />
    <glyph glyph-name="ocircumflex" unicode="&#xf4;" horiz-adv-x="860" 
d="M942 551q0 -121 -64 -258t-172.5 -228.5t-234.5 -91.5q-131 0 -208 82.5t-77 216.5q0 93 36 199.5t100 200t151 152.5t186 59q71 0 124.5 -27t88 -72.5t52.5 -107t18 -125.5zM795 686q0 61 -33 106.5t-92 45.5q-97 0 -174 -122t-119.5 -283.5t-42.5 -260.5q0 -70 35 -112
t104 -42q80 0 141 75t101 185.5t60 222.5t20 185zM1024 1087h-52l-170 168l-260 -168h-76l295 291h103z" />
    <glyph glyph-name="odieresis" unicode="&#xf6;" horiz-adv-x="860" 
d="M942 551q0 -121 -64 -258t-172.5 -228.5t-234.5 -91.5q-131 0 -208 82.5t-77 216.5q0 93 36 199.5t100 200t151 152.5t186 59q71 0 124.5 -27t88 -72.5t52.5 -107t18 -125.5zM795 686q0 61 -33 106.5t-92 45.5q-97 0 -174 -122t-119.5 -283.5t-42.5 -260.5q0 -70 35 -112
t104 -42q80 0 141 75t101 185.5t60 222.5t20 185zM1041 1221q0 -41 -29 -71t-71 -30q-41 0 -71 28.5t-30 70.5q0 27 13 50.5t36 37.5t52 14q20 0 39 -8t32 -21t21 -32t8 -39zM705 1221q0 -41 -29 -71t-71 -30q-41 0 -71 28.5t-30 70.5q0 27 13 50.5t36 37.5t52 14
q20 0 39 -8t32 -21t21 -32t8 -39z" />
    <glyph glyph-name="otilde" unicode="&#xf5;" horiz-adv-x="860" 
d="M942 551q0 -121 -64 -258t-172.5 -228.5t-234.5 -91.5q-131 0 -208 82.5t-77 216.5q0 93 36 199.5t100 200t151 152.5t186 59q71 0 124.5 -27t88 -72.5t52.5 -107t18 -125.5zM795 686q0 61 -33 106.5t-92 45.5q-97 0 -174 -122t-119.5 -283.5t-42.5 -260.5q0 -70 35 -112
t104 -42q80 0 141 75t101 185.5t60 222.5t20 185zM1055 1274q-10 -64 -57.5 -118t-108.5 -54q-46 0 -72.5 11t-96.5 43t-99 32q-32 0 -52.5 -18t-41.5 -54l-49 6q24 73 74 120.5t122 47.5q48 0 138 -41t112 -41q53 0 84 72z" />
    <glyph glyph-name="uacute" unicode="&#xfa;" horiz-adv-x="1147" 
d="M1227 276q-111 -303 -266 -303q-66 0 -102 38.5t-36 99.5v18q4 42 6.5 73.5t4.5 51.5l-5 4q-78 -130 -154 -207.5t-183 -77.5q-73 0 -123 48t-50 122q0 44 8 80t31 111l37 121q9 30 28.5 90t30.5 102.5t15 85.5q0 4 2 19t2 24q0 45 -27 45q-48 0 -113 -93t-110 -181
l-43 20q65 133 139 224.5t173 91.5q57 0 90.5 -46.5t33.5 -105.5q0 -86 -49 -237l-86 -271q-28 -84 -28 -121q0 -30 20 -48.5t53 -18.5q61 0 122.5 58.5t111 139.5t78.5 146l166 493h151l-78 -258q-16 -52 -40 -136.5t-38 -140.5t-25 -121t-11 -122q0 -59 34 -59
q46 0 107 99t78 159zM1126 1296q0 -38 -31.5 -61.5t-93.5 -52.5l-227 -113h-68l219 201q3 3 34.5 31.5t56.5 43.5t47 15q25 0 44 -19t19 -45z" />
    <glyph glyph-name="ugrave" unicode="&#xf9;" horiz-adv-x="1147" 
d="M1227 276q-111 -303 -266 -303q-66 0 -102 38.5t-36 99.5v18q4 42 6.5 73.5t4.5 51.5l-5 4q-78 -130 -154 -207.5t-183 -77.5q-73 0 -123 48t-50 122q0 44 8 80t31 111l37 121q9 30 28.5 90t30.5 102.5t15 85.5q0 4 2 19t2 24q0 45 -27 45q-48 0 -113 -93t-110 -181
l-43 20q65 133 139 224.5t173 91.5q57 0 90.5 -46.5t33.5 -105.5q0 -86 -49 -237l-86 -271q-28 -84 -28 -121q0 -30 20 -48.5t53 -18.5q61 0 122.5 58.5t111 139.5t78.5 146l166 493h151l-78 -258q-16 -52 -40 -136.5t-38 -140.5t-25 -121t-11 -122q0 -59 34 -59
q46 0 107 99t78 159zM930 1071h-58l-235 148q-40 26 -58 42t-18 42q0 27 19.5 49t45.5 22q24 0 49.5 -19t51 -49t39.5 -46z" />
    <glyph glyph-name="ucircumflex" unicode="&#xfb;" horiz-adv-x="1147" 
d="M1227 276q-111 -303 -266 -303q-66 0 -102 38.5t-36 99.5v18q4 42 6.5 73.5t4.5 51.5l-5 4q-78 -130 -154 -207.5t-183 -77.5q-73 0 -123 48t-50 122q0 44 8 80t31 111l37 121q9 30 28.5 90t30.5 102.5t15 85.5q0 4 2 19t2 24q0 45 -27 45q-48 0 -113 -93t-110 -181
l-43 20q65 133 139 224.5t173 91.5q57 0 90.5 -46.5t33.5 -105.5q0 -86 -49 -237l-86 -271q-28 -84 -28 -121q0 -30 20 -48.5t53 -18.5q61 0 122.5 58.5t111 139.5t78.5 146l166 493h151l-78 -258q-16 -52 -40 -136.5t-38 -140.5t-25 -121t-11 -122q0 -59 34 -59
q46 0 107 99t78 159zM1085 1087h-52l-170 168l-260 -168h-76l295 291h103z" />
    <glyph glyph-name="udieresis" unicode="&#xfc;" horiz-adv-x="1147" 
d="M1227 276q-111 -303 -266 -303q-66 0 -102 38.5t-36 99.5v18q4 42 6.5 73.5t4.5 51.5l-5 4q-78 -130 -154 -207.5t-183 -77.5q-73 0 -123 48t-50 122q0 44 8 80t31 111l37 121q9 30 28.5 90t30.5 102.5t15 85.5q0 4 2 19t2 24q0 45 -27 45q-48 0 -113 -93t-110 -181
l-43 20q65 133 139 224.5t173 91.5q57 0 90.5 -46.5t33.5 -105.5q0 -86 -49 -237l-86 -271q-28 -84 -28 -121q0 -30 20 -48.5t53 -18.5q61 0 122.5 58.5t111 139.5t78.5 146l166 493h151l-78 -258q-16 -52 -40 -136.5t-38 -140.5t-25 -121t-11 -122q0 -59 34 -59
q46 0 107 99t78 159zM1133 1221q0 -41 -29 -71t-71 -30q-41 0 -71 28.5t-30 70.5q0 27 13 50.5t36 37.5t52 14q20 0 39 -8t32 -21t21 -32t8 -39zM797 1221q0 -41 -29 -71t-71 -30q-41 0 -71 28.5t-30 70.5q0 27 13 50.5t36 37.5t52 14q20 0 39 -8t32 -21t21 -32t8 -39z" />
    <glyph glyph-name="dagger" unicode="&#x2020;" horiz-adv-x="1024" 
d="M1161 907q0 -36 -27 -61t-63 -25q-37 0 -76 19q-61 26 -106.5 38.5t-102.5 12.5q-20 -92 -20 -162q0 -92 33 -182q-54 -90 -93.5 -189.5t-64.5 -189.5t-49.5 -199.5t-56.5 -251.5h-52q14 69 45.5 217.5t42 201t23 152t12.5 177.5q0 23 -1 35t-2 29.5t-3 39.5
q99 132 131 322q-5 1 -9.5 1.5t-12.5 0.5q-18 0 -35 -3t-35.5 -9.5t-37.5 -14t-32 -12.5q-72 -29 -96 -29q-38 0 -65 25t-27 63t26 63t62 25q16 0 27 -2.5t18.5 -5.5t30.5 -12q107 -45 188 -45h12q25 92 25 170q0 25 -8 74t-8 75q0 115 94 115q40 0 64 -25t24 -65
q0 -32 -12.5 -57t-40.5 -68q-61 -94 -82 -219h14q50 0 85.5 9t100.5 34q57 18 72 18q39 0 63.5 -25.5t24.5 -64.5z" />
    <glyph glyph-name="degree" unicode="&#xb0;" horiz-adv-x="819" 
d="M911 1114q0 -69 -34.5 -128t-94 -93.5t-127.5 -34.5q-69 0 -127.5 34.5t-93 93.5t-35.5 128q0 68 34.5 127.5t93.5 94t128 34.5q68 0 127 -35t94 -94t35 -127zM844 1114q0 79 -56 134t-135 55q-77 0 -131.5 -55.5t-54.5 -133.5t55 -133t133 -55t133.5 54.5t55.5 133.5z
" />
    <glyph glyph-name="cent" unicode="&#xa2;" 
d="M1102 1030q0 -31 -22 -55.5t-54 -24.5q-28 0 -50 18.5t-22 47.5q0 20 10.5 38t10.5 27q0 23 -45 29l-273 -809h17q100 0 166.5 64.5t140.5 185.5l41 -25q-61 -123 -153.5 -204.5t-209.5 -81.5h-18l-88 -267h-78l90 277q-58 15 -105 58t-71 101.5t-24 122.5
q0 125 72 263.5t189.5 239t241.5 120.5l80 229h78l-78 -229q57 0 105.5 -35t48.5 -90zM852 1096q-61 -18 -121.5 -90t-109 -173t-76 -198.5t-27.5 -157.5q0 -49 17.5 -92t54.5 -59z" />
    <glyph glyph-name="sterling" unicode="&#xa3;" 
d="M1229 1212q0 -33 -20.5 -59.5t-53.5 -26.5q-46 0 -64 23.5t-33.5 74.5t-34.5 76t-69 25q-89 0 -142.5 -103t-74.5 -216.5t-39 -257.5h297l-18 -66h-291q-37 -277 -135 -471q191 -80 307 -80q94 0 143.5 34.5t80.5 82t44 47.5q21 0 21 -21q0 -55 -57 -141
q-103 -160 -261 -160q-42 0 -82 11t-86.5 34.5t-71 40t-83.5 58.5q-87 -144 -213 -144q-60 0 -104 43t-44 101q0 46 27.5 81t72 54.5t87.5 19.5q21 0 46 -4.5t47.5 -10.5t49.5 -13l14 215l13 223h-256l18 66h246q23 134 42 213.5t58 158.5q60 117 156 183.5t221 66.5
q82 0 162 -41.5t80 -116.5zM451 158q-42 26 -72 39.5t-66 13.5q-44 0 -75 -25.5t-31 -70.5q0 -39 28 -64.5t66 -25.5q88 0 150 133z" />
    <glyph glyph-name="section" unicode="&#xa7;" horiz-adv-x="1024" 
d="M1090 1171q0 -49 -29.5 -80.5t-79.5 -31.5q-39 0 -63.5 25.5t-24.5 62.5q0 43 31 74q30 26 30 45q0 27 -42.5 43t-77.5 16q-46 0 -88.5 -20.5t-67.5 -57.5t-25 -84q0 -32 10 -60.5t25.5 -52.5t37 -51t46.5 -57l51 -59l82 -99q62 -74 96.5 -143.5t34.5 -144.5
q0 -65 -26.5 -124.5t-76 -96.5t-116.5 -37q-36 0 -90 16l-4 -4q64 -64 97.5 -124t33.5 -140q0 -125 -94 -198t-223 -73q-61 0 -122.5 26t-100 75t-38.5 114q0 50 29 83.5t78 33.5q40 0 68 -24t28 -64q0 -60 -61 -98q-25 -15 -25 -27q0 -34 52.5 -54t86.5 -20q55 0 102 21.5
t75 63t28 96.5q0 62 -40 118.5t-117 143.5l-60 69l-55 68q-115 137 -115 266q0 107 60 180.5t165 73.5q37 0 91 -20l4 4q-133 139 -133 268q0 81 40 139.5t108 88.5t146 30q62 0 122 -23t98.5 -68.5t38.5 -107.5zM920 432q0 57 -39.5 122.5t-89.5 123.5q-46 55 -92 88
t-103 33q-54 0 -91.5 -35.5t-37.5 -89.5q0 -53 28.5 -105.5t79.5 -124.5q118 -145 209 -145q57 0 96.5 38.5t39.5 94.5z" />
    <glyph glyph-name="bullet" unicode="&#x2022;" 
d="M1044 668q0 -82 -45 -157.5t-120.5 -120t-159.5 -44.5q-92 0 -171.5 42.5t-127 117.5t-47.5 166q0 96 45.5 176t124.5 125t176 45q94 0 168 -48t115.5 -128.5t41.5 -173.5z" />
    <glyph glyph-name="paragraph" unicode="&#xb6;" horiz-adv-x="1024" 
d="M1401 1352l-12 -45q-80 -2 -121 -13.5t-74 -58.5q-23 -36 -48.5 -112.5t-45.5 -155.5l-240 -861q-55 -203 -55 -251q0 -51 34 -66.5t97 -15.5h27l-11 -45h-325l430 1552h-117l-430 -1552h-344l10 45q55 2 91 4t69 14.5t57 46.5q26 35 45.5 97.5t48.5 170.5l146 525
q-112 0 -184.5 14.5t-117 68t-44.5 163.5q0 108 55 217t143 168q74 48 167 70t188 22q16 0 26.5 -0.5t22.5 -1.5q26 -2 48 -4t57 -3.5t73 -1.5q55 0 167 4t167 5z" />
    <glyph glyph-name="germandbls" unicode="&#xdf;" horiz-adv-x="942" 
d="M1073 1106q0 -146 -86 -237.5t-231 -114.5v-4q114 -16 172.5 -90.5t58.5 -198.5q0 -98 -48.5 -214.5t-134.5 -195t-188 -78.5q-57 0 -97 26.5t-40 80.5q0 34 17 58t49 24q27 0 42 -16t15 -44q0 -22 -9 -39t-9 -20q0 -9 5.5 -17t14.5 -8q34 0 74 47t65 95q28 55 49 119
t34.5 134.5t13.5 123.5q0 76 -24.5 114.5t-68 55.5t-66 25t-22.5 24q0 23 43 28q79 11 129.5 72t72.5 144.5t22 164.5q0 174 -107 174q-48 0 -82.5 -51.5t-58.5 -133t-53 -204.5l-215 -860q-50 -192 -92 -312.5t-133.5 -225.5t-227.5 -105q-64 0 -118 28t-54 85
q0 25 14.5 42t38.5 17q49 0 70 -74q8 -27 19 -40t40 -13q109 0 164 178q80 252 129 436l234 904q23 87 61 168.5t107 143.5t165 62q116 0 181 -79.5t65 -198.5z" />
    <glyph glyph-name="registered" unicode="&#xae;" horiz-adv-x="1475" 
d="M1614 674q0 -199 -85.5 -360t-242 -251t-358.5 -90q-148 0 -271.5 53t-213 149.5t-136.5 223t-47 269.5q0 146 47.5 274t135.5 223.5t213.5 150t273.5 54.5q152 0 280 -53.5t217 -147t138 -221.5t49 -274zM1516 674q0 136 -42.5 249.5t-120.5 193.5t-185 122.5t-236 42.5
q-125 0 -230 -44t-181.5 -124t-119.5 -192.5t-43 -245.5q0 -183 74.5 -323.5t207 -216t304.5 -75.5q123 0 228.5 44t182 126t119 197t42.5 246zM1341 297h-53q-16 0 -26.5 -0.5t-22.5 -1.5q-56 0 -88 24q-36 27 -73.5 133t-77.5 161t-136 55q-20 0 -30 -2v-273
q0 -35 14.5 -47t77.5 -12v-37h-322v37q64 0 79 12t15 47v621q0 35 -15 47t-79 12v37h326q100 0 169.5 -16t108.5 -59.5t39 -125.5q0 -56 -30.5 -105t-83 -77t-105.5 -29v-4q54 -7 92.5 -59.5t79.5 -142.5q50 -102 69 -130t68 -28h4v-37zM1114 893q0 90 -46.5 130t-139.5 40
q-64 0 -79 -12t-15 -72v-264h26q78 0 132.5 12t88 51t33.5 115z" />
    <glyph glyph-name="copyright" unicode="&#xa9;" horiz-adv-x="1475" 
d="M1614 674q0 -199 -85.5 -360t-242 -251t-358.5 -90q-148 0 -271.5 53t-213 149.5t-136.5 223t-47 269.5q0 146 47.5 274t135.5 223.5t213.5 150t273.5 54.5q152 0 280 -53.5t217 -147t138 -221.5t49 -274zM1516 674q0 136 -42.5 249.5t-120.5 193.5t-185 122.5t-236 42.5
q-125 0 -230 -44t-181.5 -124t-119.5 -192.5t-43 -245.5q0 -183 74.5 -323.5t207 -216t304.5 -75.5q123 0 228.5 44t182 126t119 197t42.5 246zM1260 451q-37 -95 -134 -148t-204 -53q-118 0 -210 54.5t-141 149t-49 214.5q0 125 53 224t149 153.5t222 54.5q135 0 291 -56
v-223h-61q-5 65 -31 114t-73.5 76t-110.5 27q-136 0 -206.5 -101t-70.5 -243q0 -93 33.5 -179.5t99.5 -139.5t160 -53q146 0 235 147z" />
    <glyph glyph-name="trademark" unicode="&#x2122;" horiz-adv-x="1638" 
d="M1855 641h-290v39q43 2 59 7.5t22.5 21.5t6.5 55v502h-15l-245 -625h-17l-250 625h-14v-531q0 -34 25.5 -43.5t74.5 -11.5v-39h-249v39q50 2 75 11.5t25 43.5v543q0 16 -11.5 21.5t-35.5 5.5h-23v38h205l217 -518l207 518h223v-38q-45 0 -61.5 -5.5t-16.5 -27.5v-508
q0 -26 3 -42.5t13 -25.5t25 -11.5t47 -4.5v-39zM870 1174h-45q0 78 -30.5 100t-110.5 22h-55v-561q0 -33 26 -43t74 -12v-39h-315v39q50 2 75 11.5t25 43.5v561h-41q-63 0 -93 -6t-46.5 -32.5t-16.5 -83.5h-45v169h598v-169z" />
    <glyph glyph-name="acute" unicode="&#xb4;" horiz-adv-x="614" 
d="M860 1296q0 -38 -31.5 -61.5t-93.5 -52.5l-227 -113h-68l219 201q3 3 34.5 31.5t56.5 43.5t47 15q25 0 44 -19t19 -45z" />
    <glyph glyph-name="dieresis" unicode="&#xa8;" horiz-adv-x="819" 
d="M1020 1221q0 -41 -29 -71t-71 -30q-41 0 -71 28.5t-30 70.5q0 27 13 50.5t36 37.5t52 14q20 0 39 -8t32 -21t21 -32t8 -39zM684 1221q0 -41 -29 -71t-71 -30q-41 0 -71 28.5t-30 70.5q0 27 13 50.5t36 37.5t52 14q20 0 39 -8t32 -21t21 -32t8 -39z" />
    <glyph glyph-name="notequal" unicode="&#x2260;" horiz-adv-x="1124" 
d="M1087 289h-602l-163 -289h-111l166 289h-340v96h393l158 279h-551v96h604l164 291h108l-163 -291h337v-96h-391l-155 -279h546v-96z" />
    <glyph glyph-name="AE" unicode="&#xc6;" horiz-adv-x="1884" 
d="M1991 1040h-39q-32 120 -75.5 176.5t-101 73.5t-155.5 17h-117h-123l-145 -557h154q66 0 107.5 17t74 62.5t71.5 137.5h41l-106 -523h-45l6 84q1 7 1.5 13t0.5 14q0 102 -61 129q-46 21 -133 21h-123l-117 -435q-16 -66 -16 -100q0 -82 53.5 -105.5t161.5 -23.5h88
q121 0 198.5 31t130.5 96t109 180h45l-94 -352q-137 2 -274.5 3.5t-297.5 3t-252 1.5q-32 0 -90 -1.5t-107.5 -3t-98.5 -3.5l10 45h28q74 0 112 21t56 61.5t39 126.5l109 412h-324q-78 -99 -114 -143.5t-102.5 -134t-111.5 -166t-45 -112.5q0 -24 16 -38t36 -18.5t52 -7.5
t50 -7l-10 -39q-33 1 -95.5 4.5t-115.5 3.5q-49 0 -105.5 -3.5t-91.5 -4.5l11 39q59 7 93.5 35.5t82.5 91.5l243 323q55 74 152 193.5t209.5 258.5t167.5 213.5t55 90.5q0 25 -11.5 37t-29 16t-47 6.5t-84.5 6.5l10 45q59 -1 180.5 -5t182.5 -4q87 1 188 2t173 2.5t173 3
t158 1.5zM1174 1239l-5 4l-434 -536h295z" />
    <glyph glyph-name="Oslash" unicode="&#xd8;" horiz-adv-x="1434" 
d="M1542 858q0 -212 -108 -419.5t-292.5 -336.5t-400.5 -129q-95 0 -206 33l-144 -235h-92l164 270q-108 70 -156.5 187t-48.5 261q0 152 60 309.5t165 286.5t246.5 207t300.5 78q104 0 215 -37l133 209h84l-147 -239q116 -78 171.5 -190t55.5 -255zM1337 954q0 169 -67 260
l-697 -1144q60 -52 158 -52q147 0 261.5 94.5t191 242t115 310t38.5 289.5zM1210 1274q-66 51 -149 51q-138 0 -250 -97t-190 -249.5t-118 -312.5t-40 -283q0 -67 14 -127t45 -117z" />
    <glyph glyph-name="infinity" unicode="&#x221e;" horiz-adv-x="1460" 
d="M1407 526q0 -186 -115 -307q-50 -53 -111.5 -83t-123.5 -30q-60 0 -112 25t-101.5 80t-98.5 139l-24 43q-44 -83 -90.5 -134.5t-103 -75t-130.5 -23.5q-100 0 -177.5 47t-122 132t-44.5 189q0 102 40.5 186.5t110.5 132.5t156 48q112 0 183 -68q54 -54 110 -159
q48 108 95 166q95 110 276 110q72 0 128 -19.5t110 -64.5q145 -124 145 -334zM1350 526q0 90 -38 169.5t-104 125t-141 45.5q-104 0 -172 -84q-29 -36 -54.5 -92t-78.5 -196l-12 -29q49 -101 93 -156.5t97.5 -81.5t120.5 -26q83 0 149 41.5t103 115.5t37 168zM625 590
q-38 80 -75 125t-84.5 67.5t-107.5 22.5q-74 0 -130 -35t-87.5 -97t-31.5 -143q0 -79 30.5 -147t83 -106.5t115.5 -38.5q60 0 115 36.5t84 92.5q39 77 77 190z" />
    <glyph glyph-name="plusminus" unicode="&#xb1;" 
d="M1116 502h-399v-297h-109v297h-399v108h399v297h109v-297h399v-108zM1116 0h-907v109h907v-109z" />
    <glyph glyph-name="lessequal" unicode="&#x2264;" horiz-adv-x="1124" 
d="M1065 221l-1006 498v51l1006 502v-111l-842 -416l842 -417v-107zM1065 0h-1006v96h1006v-96z" />
    <glyph glyph-name="greaterequal" unicode="&#x2265;" horiz-adv-x="1124" 
d="M1065 723l-1006 -502v111l842 416l-842 417v107l1006 -498v-51zM1065 0h-1006v96h1006v-96z" />
    <glyph glyph-name="yen" unicode="&#xa5;" 
d="M1475 1352l-13 -45q-46 -7 -86 -34.5t-67 -57t-76 -85.5l-299 -329h240l-19 -66h-285l-61 -65l-37 -138h313l-18 -65h-313l-58 -207q-30 -101 -30 -133q0 -42 26.5 -59t83.5 -21.5t62 -5.5l-13 -45q-46 1 -129.5 4.5t-156.5 3.5q-75 0 -161 -3.5t-138 -4.5l12 45
q18 2 50.5 4t60.5 7.5t51.5 17t40.5 30.5q22 23 47 109l71 258h-297l19 65h297l33 117l-27 86h-258l18 66h222l-82 274q-21 71 -40.5 126t-45.5 77q-27 26 -68 29l12 45q44 -1 126.5 -5t123.5 -4q43 0 129 4t129 5l-12 -45q-83 0 -130.5 -21.5t-47.5 -93.5q0 -27 11.5 -78
t28.5 -113.5t27 -97.5l54 -170l211 234q188 204 188 266q0 42 -33.5 55.5t-91.5 18.5l12 45q34 -1 102 -5t101 -4t96 4t95 5z" />
    <glyph glyph-name="uni00B5" unicode="&#xb5;" horiz-adv-x="1147" 
d="M1227 276q-111 -303 -266 -303q-66 0 -102 38.5t-36 99.5v18q4 42 6.5 73.5t4.5 51.5l-5 4q-78 -130 -154 -207.5t-183 -77.5q-52 0 -86 25l-48 -270q-5 -31 -11 -73t-19.5 -79.5t-37.5 -62.5t-65 -25q-33 0 -56.5 20t-23.5 48q0 12 2 18q153 570 211 760l37 121
q9 30 28.5 90t30.5 102.5t15 85.5q0 4 2 19t2 24q0 45 -27 45q-48 0 -113 -93t-110 -181l-43 20q65 133 139 224.5t173 91.5q57 0 90.5 -46.5t33.5 -105.5q0 -86 -49 -237l-86 -271q-28 -84 -28 -121q0 -30 20 -48.5t53 -18.5q61 0 122.5 58.5t111 139.5t78.5 146l166 493
h151l-78 -258q-16 -52 -40 -136.5t-38 -140.5t-25 -121t-11 -122q0 -59 34 -59q46 0 107 99t78 159z" />
    <glyph glyph-name="partialdiff" unicode="&#x2202;" horiz-adv-x="1012" 
d="M995 920q0 -140 -28 -281t-81.5 -263.5t-127.5 -219.5q-143 -187 -355 -187q-154 0 -245.5 91.5t-91.5 244.5q0 157 76.5 296.5t203.5 222.5t270 83q106 0 189 -51q44 -27 72 -58t51 -81h4q10 147 10 186q0 117 -41.5 202t-120 130t-184.5 45q-100 0 -171.5 -37.5
t-129.5 -122.5h-45q35 74 61.5 116t63.5 79q49 51 117 79.5t137 28.5q47 0 94 -13.5t88 -39.5t70 -59q114 -130 114 -391zM911 629q-36 105 -111 165t-173 60q-81 0 -157.5 -49t-121.5 -127q-33 -57 -60 -132t-41 -146.5t-14 -135.5q0 -108 53.5 -172.5t143.5 -64.5
q72 0 152 49.5t147 136.5q70 93 112 188.5t70 227.5z" />
    <glyph glyph-name="summation" unicode="&#x2211;" horiz-adv-x="1460" 
d="M1419 212l-63 -416h-1313v37l670 831l-670 814v39h1278l27 -338h-39q-16 133 -76 194.5t-174 61.5h-740l562 -685l-629 -778h819q54 0 114.5 17t90.5 39q36 25 60.5 71t43.5 121z" />
    <glyph glyph-name="product" unicode="&#x220f;" horiz-adv-x="1686" 
d="M1640 -204h-598v37h35q87 0 125.5 37.5t38.5 118.5v1450h-797v-1450q0 -79 39.5 -117.5t122.5 -38.5h37v-37h-598v37h35q87 0 125.5 37.5t38.5 118.5v1335q0 83 -38.5 119.5t-125.5 36.5h-35v37h1595v-37h-34q-85 0 -124.5 -36.5t-39.5 -119.5v-1335q0 -81 39.5 -118.5
t124.5 -37.5h34v-37z" />
    <glyph glyph-name="uniF006" unicode="&#xf006;" horiz-adv-x="1124" 
d="M1049 258q-7 -61 -18.5 -104.5t-31.5 -79.5q-24 -48 -66.5 -76.5t-90.5 -28.5q-35 0 -69.5 16.5t-53.5 43.5q-32 44 -46 107.5t-14 168.5q0 62 7 158q3 27 5 52.5t9 98.5q2 18 5.5 48t6.5 55l6 53h-260l-4 -61q-17 -294 -39.5 -450t-58.5 -223t-94 -67q-34 0 -59 25
t-25 59q0 27 12 52t43 67q46 59 68.5 113t37.5 143q15 85 22.5 160.5t12.5 181.5h-45q-50 0 -74 -6.5t-51 -26.5q-46 -36 -90 -110h-39q52 160 116.5 224t174.5 64h703v-145h-242q-17 -109 -26 -222.5t-9 -215.5q0 -93 33 -142t92 -49q97 0 117 117h35z" />
    <glyph glyph-name="integral" unicode="&#x222b;" horiz-adv-x="561" 
d="M561 1755q0 -29 -12.5 -53t-34 -36.5t-47.5 -12.5q-36 0 -76 35q-20 20 -39 20q-41 0 -41 -63q0 -46 11 -146q18 -204 27 -371t9 -294l-2 -121l-14 -471q-6 -190 -49 -320q-22 -67 -68 -104t-106 -37q-54 0 -86.5 33.5t-32.5 87.5q0 44 25 71t65 27q42 0 70 -33
q13 -14 24 -22t25 -8q39 0 39 61q0 37 -10 119q-20 170 -29 395q-3 104 -6 229q-2 70 -2 154l16 553q6 191 66 317q19 40 63.5 69.5t87.5 29.5q31 0 61.5 -15t48 -41t17.5 -53z" />
    <glyph glyph-name="ordfeminine" unicode="&#xaa;" horiz-adv-x="737" 
d="M948 1020q-13 -24 -34 -65t-42 -69.5t-50.5 -47.5t-65.5 -19q-35 0 -59.5 20.5t-24.5 55.5q0 17 4 37l-4 4q-77 -117 -180 -117q-64 0 -109 42.5t-45 107.5q0 63 31.5 135t83 132t117 97t130.5 37q68 0 99 -55l16 39h107l-62 -154q-22 -54 -40.5 -105.5t-34 -110
t-15.5 -91.5q0 -21 14 -21q25 0 62.5 58t60.5 106zM764 1274q0 22 -15.5 38.5t-37.5 16.5q-58 0 -119.5 -72.5t-103.5 -169.5t-42 -151q0 -30 15 -51t41 -21q48 0 95 45t85.5 115t60 139t21.5 111z" />
    <glyph glyph-name="ordmasculine" unicode="&#xba;" horiz-adv-x="696" 
d="M852 1167q0 -55 -24 -116t-66 -114t-98 -85.5t-115 -32.5q-86 0 -140.5 49.5t-54.5 135.5q0 81 44 168t117 142.5t157 55.5q82 0 131 -60t49 -143zM743 1247q0 35 -19.5 56.5t-53.5 21.5q-59 0 -106.5 -69t-74 -161.5t-26.5 -150.5q0 -80 82 -80q62 0 107 69t68 162
t23 152z" />
    <glyph glyph-name="uni2126" unicode="&#x2126;" horiz-adv-x="1573" 
d="M1518 0h-568l23 279q97 39 158 102t89.5 154.5t28.5 218.5q0 259 -123 405q-64 76 -152 117t-192 41q-102 0 -187 -39.5t-147 -112.5t-95.5 -175t-33.5 -222q0 -133 38 -242.5t106 -171.5q31 -28 57 -42.5t76 -32.5l22 -279h-563v279h35q3 -61 31 -82q26 -20 55.5 -27.5
t83.5 -7.5h270v69q-137 40 -236.5 118.5t-150.5 190t-51 248.5q0 130 50.5 241t142.5 191t218.5 123t278.5 43q154 0 283.5 -43.5t221 -121.5t143 -189.5t51.5 -243.5q0 -137 -54.5 -253t-154.5 -195.5t-230 -108.5l-8 -69h275q88 0 125 24.5t45 92.5h39v-279z" />
    <glyph glyph-name="ae" unicode="&#xe6;" horiz-adv-x="1229" 
d="M1346 741q0 -98 -82 -180t-194.5 -137.5t-221.5 -91.5q-18 -64 -26.5 -107t-8.5 -88q0 -47 28.5 -83t73.5 -36q57 0 110.5 37.5t91.5 83.5t93 121l39 -27q-81 -114 -166 -187t-190 -73q-83 0 -145 47t-80 125q-45 -50 -89 -88t-96 -61t-110 -23q-91 0 -137 62t-46 158
q0 139 75.5 262t195.5 209q101 73 216.5 111t272.5 65l140 24q65 19 96 19q69 0 114.5 -37t45.5 -105zM1233 770q0 20 -9.5 35.5t-28 24t-38.5 8.5q-64 0 -124.5 -82t-105.5 -190.5t-63 -180.5q175 69 281 193q34 41 61 96t27 96zM995 807l-2 2q-267 -22 -448 -203
q-88 -88 -147.5 -209.5t-59.5 -236.5q0 -125 82 -125q34 0 82 30.5t89.5 70.5t67.5 77q22 182 105 324t231 270z" />
    <glyph glyph-name="oslash" unicode="&#xf8;" horiz-adv-x="860" 
d="M936 555q0 -125 -63.5 -261.5t-171.5 -228.5t-236 -92q-44 0 -86 13l-117 -234h-76l129 260q-39 24 -67.5 69.5t-41.5 101.5t-13 106q0 86 35 191t100.5 198.5t149.5 149t179 55.5q42 0 86 -11l107 220h76l-119 -236q129 -97 129 -301zM717 829q-17 9 -53 9
q-73 0 -133.5 -71.5t-103 -180t-65 -215.5t-22.5 -176q0 -47 16 -97zM788 674q0 63 -20 100l-362 -737q34 -19 57 -19v0q82 1 143 73t102 181.5t60.5 218.5t19.5 183z" />
    <glyph glyph-name="questiondown" unicode="&#xbf;" horiz-adv-x="901" 
d="M727 772q0 -51 -33 -82t-82 -31q-44 0 -76 33.5t-32 79.5q0 47 34 79t78 32q47 0 79 -32t32 -79zM733 -285q0 -72 -36.5 -124.5t-97 -80.5t-132.5 -28q-87 0 -162 38.5t-118.5 109t-43.5 159.5q0 164 201 332l68 57q72 59 119 106t47 87q0 26 -19 42.5t-47 16.5
q-60 0 -129 -59l-33 32q37 40 84 64.5t98 24.5q47 0 82.5 -22.5t54.5 -60.5t19 -81q0 -102 -127 -219l-115 -105q-92 -87 -131 -137t-39 -125q0 -94 53.5 -146.5t147.5 -52.5q77 0 136 46t59 120q0 49 -33 88t-82 39q-12 0 -25.5 -7t-13.5 -17q0 -7 11.5 -19t19.5 -25.5
t8 -35.5q0 -26 -21 -47t-49 -21q-36 0 -60 26t-24 62q0 60 47.5 97.5t108.5 37.5q76 0 125 -48t49 -124z" />
    <glyph glyph-name="exclamdown" unicode="&#xa1;" horiz-adv-x="614" 
d="M649 772q0 -48 -33.5 -80.5t-80.5 -32.5q-46 0 -77.5 35t-31.5 80t34 77t79 32q46 0 78 -31t32 -80zM471 432l-123 -704q-5 -31 -11 -73t-19.5 -79.5t-37.5 -62.5t-65 -25q-39 0 -65.5 25.5t-26.5 64.5q0 33 28 122.5t55.5 166t65.5 180.5l150 399z" />
    <glyph glyph-name="logicalnot" unicode="&#xac;" 
d="M1116 111h-108v421h-799v109h907v-530z" />
    <glyph glyph-name="radical" unicode="&#x221a;" horiz-adv-x="1124" 
d="M1124 1870l-311 -1948l-496 1022l-198 -92l-35 63l301 152l403 -823h5l258 1626h73z" />
    <glyph glyph-name="florin" unicode="&#x192;" 
d="M1296 1393q0 -37 -22.5 -63.5t-59.5 -26.5q-33 0 -53.5 18.5t-40.5 53t-32.5 51t-32.5 16.5q-70 0 -113 -89t-65 -207t-35 -192h223l-23 -65h-211l-83 -469q-26 -144 -55.5 -264.5t-83 -240t-142.5 -198.5t-213 -79q-64 0 -117 27t-53 85q0 39 25 66.5t63 27.5t55.5 -19
t31.5 -56t26 -53.5t41 -16.5q49 0 84.5 48.5t56.5 107.5q46 122 84 374l102 660h-192l22 65h181q30 114 58.5 196t68.5 146q39 64 93.5 110.5t120 71.5t140.5 25q57 0 104 -28.5t47 -81.5z" />
    <glyph glyph-name="approxequal" unicode="&#x2248;" horiz-adv-x="1124" 
d="M1073 874q-20 -152 -93.5 -236.5t-188.5 -84.5q-56 0 -123.5 26.5t-180.5 90.5q-140 78 -211 78q-72 0 -118.5 -49.5t-59.5 -137.5h-47q20 151 93 236.5t182 85.5q48 0 123 -25q56 -21 208 -102q118 -62 193 -62q41 0 68.5 13.5t54.5 46.5q39 47 49 120h51zM1073 487
q-20 -152 -93.5 -236.5t-188.5 -84.5q-56 0 -121 25t-183 90q-71 42 -121 60.5t-90 18.5q-72 0 -118.5 -49t-59.5 -137h-47q12 98 49 170.5t95 111t131 38.5q48 0 123 -25q52 -16 208 -100q118 -62 193 -62q41 0 68.5 13.5t54.5 46.5q39 47 49 120h51z" />
    <glyph glyph-name="uni2206" unicode="&#x2206;" horiz-adv-x="1253" 
d="M1227 0h-1200l628 1386zM991 82l-399 967l-440 -967h839z" />
    <glyph glyph-name="guillemotleft" unicode="&#xab;" horiz-adv-x="983" 
d="M1040 694q0 -7 -13.5 -21t-25.5 -26l-223 -237l129 -244q11 -16 11 -27q0 -14 -13 -14q-6 0 -26 20l-226 269l324 260q7 6 15 12.5t18.5 14.5t15.5 8q14 0 14 -15zM705 694q0 -4 -7 -12.5t-19 -20.5t-13 -14l-224 -237l129 -244q11 -16 11 -27q0 -14 -13 -14q-6 0 -26 20
l-226 269l324 260q7 6 15 12.5t18.5 14.5t15.5 8q15 0 15 -15z" />
    <glyph glyph-name="guillemotright" unicode="&#xbb;" horiz-adv-x="983" 
d="M942 420l-324 -258q-4 -7 -23 -22t-26 -15q-12 0 -12 14q0 10 37 47l223 240l-129 242q-10 20 -10 28q0 13 14 13q7 0 14.5 -7.5t10.5 -13.5zM606 420l-323 -258q-2 -3 -23 -20t-27 -17q-12 0 -12 14q0 10 37 47l223 240l-129 242q-10 20 -10 28q0 13 14 13q15 0 25 -21z
" />
    <glyph glyph-name="ellipsis" unicode="&#x2026;" horiz-adv-x="2048" 
d="M1817 82q0 -43 -33 -76t-76 -33q-46 0 -80.5 32t-34.5 79q0 49 34 81t81 32q49 0 79 -34t30 -81zM1135 82q0 -43 -33 -76t-76 -33q-46 0 -80.5 32t-34.5 79q0 48 33.5 80.5t81.5 32.5t78.5 -34t30.5 -81zM453 82q0 -43 -33 -76t-76 -33q-46 0 -80.5 32t-34.5 79
q0 48 33.5 80.5t81.5 32.5t78.5 -34t30.5 -81z" />
    <glyph glyph-name="uni00A0" unicode="&#xa0;" horiz-adv-x="532" 
 />
    <glyph glyph-name="Agrave" unicode="&#xc0;" horiz-adv-x="1311" 
d="M1331 41l-12 -45q-43 1 -123 4.5t-149 3.5q-67 0 -144 -3.5t-121 -4.5l11 45q97 7 136.5 20.5t39.5 79.5q0 51 -13 123l-45 295h-397l-90 -170q-46 -93 -81.5 -170.5t-35.5 -114.5q0 -29 30.5 -42t68.5 -16t67 -5l-12 -45q-39 1 -107 4.5t-127 3.5q-51 0 -112.5 -3.5
t-96.5 -4.5l13 45q55 8 90 24.5t69 53.5q24 25 49.5 66t65.5 113.5t57 102.5l558 967h61l162 -1106q24 -154 41 -178q12 -18 38 -27t47.5 -11t61.5 -5zM901 621l-61 505h-4l-287 -505h352zM1186 1538h-58l-235 148q-40 26 -58 42t-18 42q0 27 19.5 49t45.5 22q24 0 49.5 -19
t51 -49t39.5 -46z" />
    <glyph glyph-name="Atilde" unicode="&#xc3;" horiz-adv-x="1311" 
d="M1331 41l-12 -45q-43 1 -123 4.5t-149 3.5q-67 0 -144 -3.5t-121 -4.5l11 45q97 7 136.5 20.5t39.5 79.5q0 51 -13 123l-45 295h-397l-90 -170q-46 -93 -81.5 -170.5t-35.5 -114.5q0 -29 30.5 -42t68.5 -16t67 -5l-12 -45q-39 1 -107 4.5t-127 3.5q-51 0 -112.5 -3.5
t-96.5 -4.5l13 45q55 8 90 24.5t69 53.5q24 25 49.5 66t65.5 113.5t57 102.5l558 967h61l162 -1106q24 -154 41 -178q12 -18 38 -27t47.5 -11t61.5 -5zM901 621l-61 505h-4l-287 -505h352zM1280 1741q-10 -64 -57.5 -118t-108.5 -54q-46 0 -72.5 11t-96.5 43t-99 32
q-32 0 -52.5 -18t-41.5 -54l-49 6q24 73 74 120.5t122 47.5q48 0 138 -41t112 -41q53 0 84 72z" />
    <glyph glyph-name="Otilde" unicode="&#xd5;" horiz-adv-x="1434" 
d="M1552 844q0 -155 -63 -311t-174 -282.5t-258.5 -202t-304.5 -75.5q-232 0 -363 144.5t-131 376.5q0 154 61.5 311.5t168.5 284.5t252.5 203.5t303.5 76.5q151 0 267 -68.5t178.5 -188.5t62.5 -269zM1348 965q0 61 -18 125.5t-52.5 117t-86.5 85t-120 32.5
q-138 0 -251 -97.5t-193 -248.5t-122 -315t-42 -287q0 -93 30 -175t92.5 -133t159.5 -51q140 0 253.5 95.5t191.5 247t118 314t40 290.5zM1382 1741q-10 -64 -57.5 -118t-108.5 -54q-46 0 -72.5 11t-96.5 43t-99 32q-32 0 -52.5 -18t-41.5 -54l-49 6q24 73 74 120.5
t122 47.5q48 0 138 -41t112 -41q53 0 84 72z" />
    <glyph glyph-name="OE" unicode="&#x152;" horiz-adv-x="2048" 
d="M2193 1034h-43q-45 118 -89.5 174.5t-115.5 77.5t-200 21h-148l-143 -564h158q69 0 111 27t65.5 66.5t60.5 121.5h39l-100 -514h-41q1 19 1.5 34.5t0.5 39.5q0 83 -27 131.5t-104 48.5h-178l-105 -391q-5 -20 -17.5 -71t-12.5 -78q0 -52 49 -77t102.5 -31t122.5 -9
q16 0 26.5 -0.5t22.5 -1.5q82 0 140.5 18t103 55t82 92t84.5 144h47l-94 -352q-145 1 -388 4.5t-442 3.5q-92 0 -188.5 -3.5t-145.5 -4.5h-14q-116 0 -217 28.5t-177.5 86.5t-118.5 150t-42 214q0 170 59 331t172 288q86 95 180.5 151.5t202 81.5t240.5 25h8
q77 0 182.5 -4.5t161.5 -4.5q117 0 350.5 4t348.5 5zM1343 1153q0 91 -58 122.5t-159 31.5q-156 0 -281.5 -80t-209 -209t-128 -283.5t-44.5 -300.5q0 -119 44 -208.5t129.5 -137t205.5 -47.5q111 0 171.5 43.5t86 106.5t63.5 204l127 479q53 197 53 279z" />
    <glyph glyph-name="oe" unicode="&#x153;" horiz-adv-x="1270" 
d="M1386 743q0 -138 -158.5 -247t-338.5 -168q-31 -95 -31 -176q0 -52 26.5 -93t73.5 -41q46 0 89 24.5t79.5 62t67.5 77.5t63 84l39 -28q-95 -130 -172.5 -197.5t-187.5 -67.5q-85 0 -142 44t-75 124q-110 -168 -260 -168q-128 0 -200.5 93.5t-72.5 226.5q0 129 65 268
t177 230.5t244 91.5q85 0 142 -36.5t101 -113.5q86 73 157.5 111.5t156.5 38.5q66 0 111.5 -37t45.5 -103zM1274 772q0 32 -21 49t-55 17q-108 0 -179 -145t-112 -310q74 25 161.5 88t146.5 144t59 157zM807 670q0 72 -32.5 120t-102.5 48q-78 0 -141 -69.5t-108 -179.5
t-67 -214t-22 -176q0 -75 31.5 -128t103.5 -53q79 0 143.5 73t108.5 183.5t65 219t21 176.5z" />
    <glyph glyph-name="endash" unicode="&#x2013;" horiz-adv-x="1024" 
d="M1157 502l-16 -109h-1024l16 109h1024z" />
    <glyph glyph-name="emdash" unicode="&#x2014;" horiz-adv-x="2048" 
d="M2181 502l-16 -109h-2048l16 109h2048z" />
    <glyph glyph-name="quotedblleft" unicode="&#x201c;" horiz-adv-x="860" 
d="M1053 1339q-61 -25 -134 -101.5t-73 -129.5q0 -9 4 -23q28 19 53 19q20 0 39.5 -8t32.5 -21t21 -33.5t8 -40.5q0 -47 -32.5 -77.5t-80.5 -30.5q-61 0 -98 49t-37 113q0 107 78 185t198 144zM717 1339q-61 -25 -134 -101.5t-73 -129.5q0 -9 4 -23q28 19 53 19
q20 0 39.5 -8t32.5 -21t21 -33.5t8 -40.5q0 -47 -32.5 -77.5t-80.5 -30.5q-61 0 -98 49t-37 113q0 107 78 185t198 144z" />
    <glyph glyph-name="quotedblright" unicode="&#x201d;" horiz-adv-x="860" 
d="M1063 1223q0 -107 -77.5 -184.5t-199.5 -145.5l-20 45q62 27 134.5 103t72.5 128q0 11 -4 23q-31 -18 -54 -18q-41 0 -70.5 29.5t-29.5 72.5q0 32 14.5 56t40.5 38t58 14q62 0 98.5 -48.5t36.5 -112.5zM727 1223q0 -106 -77.5 -184t-198.5 -146l-21 45q62 27 134.5 103
t72.5 128q0 11 -4 23q-31 -18 -53 -18q-42 0 -71.5 29.5t-29.5 72.5q0 32 14.5 56t40.5 38t58 14q62 0 98.5 -48.5t36.5 -112.5z" />
    <glyph glyph-name="quoteleft" unicode="&#x2018;" horiz-adv-x="492" 
d="M717 1339q-61 -25 -134 -101.5t-73 -129.5q0 -9 4 -23q28 19 53 19q20 0 39.5 -8t32.5 -21t21 -33.5t8 -40.5q0 -47 -32.5 -77.5t-80.5 -30.5q-61 0 -98 49t-37 113q0 107 78 185t198 144z" />
    <glyph glyph-name="quoteright" unicode="&#x2019;" horiz-adv-x="492" 
d="M727 1223q0 -106 -77.5 -184t-198.5 -146l-21 45q62 27 134.5 103t72.5 128q0 11 -4 23q-31 -18 -53 -18q-42 0 -71.5 29.5t-29.5 72.5q0 32 14.5 56t40.5 38t58 14q62 0 98.5 -48.5t36.5 -112.5z" />
    <glyph glyph-name="divide" unicode="&#xf7;" 
d="M762 807q0 -27 -13.5 -50t-36.5 -36.5t-50 -13.5q-41 0 -71 28.5t-30 69.5q0 27 13 50.5t36 37.5t52 14q20 0 39 -8t32 -21t21 -32t8 -39zM1116 399h-907v109h907v-109zM762 100q0 -27 -13.5 -50t-36.5 -36.5t-50 -13.5q-41 0 -71 28.5t-30 69.5q0 43 29 73t72 30
q20 0 39.5 -8t32 -21.5t20.5 -32.5t8 -39z" />
    <glyph glyph-name="lozenge" unicode="&#x25ca;" horiz-adv-x="1012" 
d="M967 709l-418 -709h-111l-391 709l391 714h111zM854 709l-358 616l-340 -616l340 -615z" />
    <glyph glyph-name="ydieresis" unicode="&#xff;" horiz-adv-x="778" 
d="M813 688v0v-8q0 -97 -17 -193.5t-49 -194.5t-75 -193.5t-90 -174.5q-102 -171 -247.5 -324t-277.5 -153q-32 0 -57 16t-25 41q0 76 107 76h12h37q62 0 104 15.5t91 58.5q139 145 139 330q0 104 -21.5 255.5t-48.5 243.5q-16 69 -58.5 173t-74.5 104q-30 0 -44.5 -62.5
t-14.5 -111.5v-4q0 -28 4 -80h-45q-4 60 -4 90v6q0 55 16.5 122t51 115t89.5 48q49 0 91 -55t70.5 -124.5t47.5 -132.5q62 -217 72 -512h4q41 79 75.5 167t55.5 177t21 164q0 69 -18 107t-48.5 79.5t-30.5 65.5q0 28 20 46t46 18q58 0 75 -56t17 -139zM836 1221
q0 -41 -29 -71t-71 -30q-41 0 -71 28.5t-30 70.5q0 27 13 50.5t36 37.5t52 14q20 0 39 -8t32 -21t21 -32t8 -39zM500 1221q0 -41 -29 -71t-71 -30q-41 0 -71 28.5t-30 70.5q0 27 13 50.5t36 37.5t52 14q20 0 39 -8t32 -21t21 -32t8 -39z" />
    <glyph glyph-name="Ydieresis" unicode="&#x178;" horiz-adv-x="1188" 
d="M1516 1352l-13 -45h-8q-29 0 -54.5 -13t-45 -32.5t-43 -49t-39.5 -49.5l-479 -581l-99 -369q-20 -74 -20 -100q0 -46 35.5 -59t99.5 -13h24h21l-10 -45q-54 1 -144.5 4.5t-169.5 3.5q-67 0 -146 -3.5t-124 -4.5l10 45h29q75 0 112 21t54 59.5t41 128.5l96 362l-149 506
q-11 35 -18 59t-15.5 46t-18.5 37q-21 30 -50 37.5t-85 9.5l12 45q41 -1 123 -5t123 -4q43 0 129 4t129 5l-12 -45q-73 -3 -110 -12.5t-37 -57.5q0 -28 8 -57l149 -518q37 45 104 120t143.5 166t130.5 171t54 114q0 49 -39 60t-112 14l12 45q33 -1 98 -5t97 -4q35 0 104.5 4
t102.5 5zM1205 1688q0 -41 -29 -71t-71 -30q-41 0 -71 28.5t-30 70.5q0 27 13 50.5t36 37.5t52 14q20 0 39 -8t32 -21t21 -32t8 -39zM869 1688q0 -41 -29 -71t-71 -30q-41 0 -71 28.5t-30 70.5q0 27 13 50.5t36 37.5t52 14q20 0 39 -8t32 -21t21 -32t8 -39z" />
    <glyph glyph-name="fraction" unicode="&#x2215;" horiz-adv-x="246" 
d="M846 1370l-979 -1370h-84l979 1370h84z" />
    <glyph glyph-name="Euro" unicode="&#x20ac;" 
d="M1333 1337l-86 -364h-43q4 52 4 86q0 103 -34.5 184.5t-124.5 81.5q-89 0 -178 -91t-171 -265q-21 -45 -51 -125h367l-19 -66h-372q-29 -82 -47 -164h372l-18 -65h-371q-26 -133 -26 -225q0 -99 14.5 -166t55 -104.5t114.5 -37.5q81 0 152.5 59t123 141.5t84.5 164.5h45
l-108 -385h-23l-14 86q-61 -53 -125.5 -81t-157.5 -28q-105 0 -177 51.5t-108 148.5t-36 230q0 64 10 146h-172l18 65h166q19 81 47 164h-174l19 66h182q42 100 84 168q65 108 144.5 188.5t168 125t174.5 44.5q70 0 121 -21t90 -75l58 63h22z" />
    <glyph glyph-name="guilsinglleft" unicode="&#x2039;" horiz-adv-x="655" 
d="M705 694q0 -8 -39 -47l-224 -237l129 -244q11 -16 11 -27q0 -14 -13 -14q-6 0 -26 20l-226 269l324 260q7 6 15 12.5t18.5 14.5t15.5 8q15 0 15 -15z" />
    <glyph glyph-name="guilsinglright" unicode="&#x203a;" horiz-adv-x="655" 
d="M606 420l-323 -258q-2 -3 -23 -20t-27 -17q-12 0 -12 14q0 10 37 47l223 240l-129 242q-10 20 -10 28q0 13 14 13q15 0 25 -21z" />
    <glyph glyph-name="uniF001" unicode="&#xf001;" horiz-adv-x="1106" 
d="M1186 1270q0 -26 -16 -42t-42 -16q-27 0 -41.5 17t-25.5 49q-14 41 -30 52t-64 11q-79 0 -135.5 -47t-94.5 -122t-61 -149.5t-51 -166.5h485l-141 -496q-64 -205 -64 -260q0 -65 25 -65q22 0 51 32t54.5 72.5t52.5 90t38 71.5l41 -20q-57 -121 -126.5 -214.5
t-159.5 -93.5q-54 0 -88.5 38.5t-34.5 94.5q0 24 5.5 48.5t14 52.5t15.5 51l135 475q3 9 6 19t6.5 25.5t3.5 17.5q0 18 -29 18q-8 0 -13 -0.5t-11 -1.5h-281l-157 -555q-12 -42 -28 -109t-26 -102q-37 -145 -88.5 -276t-141 -226.5t-218.5 -95.5q-59 0 -112.5 29t-53.5 84
q0 25 14 44t39 19q28 0 41 -19t23 -50q7 -30 18.5 -46t38.5 -16q83 0 156 146q21 43 44 106.5t37.5 107.5t41.5 138l229 821h-252l12 45h252q36 108 76 201t95 165.5t137.5 118t193.5 45.5q68 0 136.5 -28.5t68.5 -87.5z" />
    <glyph glyph-name="uniF001" unicode="&#xfb01;" horiz-adv-x="1106" 
d="M1186 1270q0 -26 -16 -42t-42 -16q-27 0 -41.5 17t-25.5 49q-14 41 -30 52t-64 11q-79 0 -135.5 -47t-94.5 -122t-61 -149.5t-51 -166.5h485l-141 -496q-64 -205 -64 -260q0 -65 25 -65q22 0 51 32t54.5 72.5t52.5 90t38 71.5l41 -20q-57 -121 -126.5 -214.5
t-159.5 -93.5q-54 0 -88.5 38.5t-34.5 94.5q0 24 5.5 48.5t14 52.5t15.5 51l135 475q3 9 6 19t6.5 25.5t3.5 17.5q0 18 -29 18q-8 0 -13 -0.5t-11 -1.5h-281l-157 -555q-12 -42 -28 -109t-26 -102q-37 -145 -88.5 -276t-141 -226.5t-218.5 -95.5q-59 0 -112.5 29t-53.5 84
q0 25 14 44t39 19q28 0 41 -19t23 -50q7 -30 18.5 -46t38.5 -16q83 0 156 146q21 43 44 106.5t37.5 107.5t41.5 138l229 821h-252l12 45h252q36 108 76 201t95 165.5t137.5 118t193.5 45.5q68 0 136.5 -28.5t68.5 -87.5z" />
    <glyph glyph-name="uniF002" unicode="&#xf002;" horiz-adv-x="1188" 
d="M1317 1409l-295 -940q-24 -80 -54 -201t-30 -168q0 -65 35 -65q47 0 108.5 90.5t110.5 181.5l45 -20q-72 -144 -138.5 -229t-170.5 -85q-68 0 -106 40.5t-38 107.5q0 33 13 87.5t37 132.5l28 91l172 551q22 66 53 173t31 130q0 35 -40.5 50.5t-82.5 15.5
q-79 0 -137.5 -49t-97.5 -124t-66 -159.5t-53 -165.5h209l-14 -45h-207l-195 -692q-46 -170 -99.5 -309.5t-149 -250t-230.5 -110.5q-55 0 -112.5 34.5t-57.5 88.5q0 26 18.5 42.5t44.5 16.5q28 0 40.5 -17.5t24 -53t23 -51t37.5 -15.5q53 0 102 68.5t86.5 164t60 173.5
t42.5 155l213 756h-227l12 45h227q58 155 94 234.5t91 142.5q88 99 170.5 128.5t234.5 37.5z" />
    <glyph glyph-name="uniF002" unicode="&#xfb02;" horiz-adv-x="1188" 
d="M1317 1409l-295 -940q-24 -80 -54 -201t-30 -168q0 -65 35 -65q47 0 108.5 90.5t110.5 181.5l45 -20q-72 -144 -138.5 -229t-170.5 -85q-68 0 -106 40.5t-38 107.5q0 33 13 87.5t37 132.5l28 91l172 551q22 66 53 173t31 130q0 35 -40.5 50.5t-82.5 15.5
q-79 0 -137.5 -49t-97.5 -124t-66 -159.5t-53 -165.5h209l-14 -45h-207l-195 -692q-46 -170 -99.5 -309.5t-149 -250t-230.5 -110.5q-55 0 -112.5 34.5t-57.5 88.5q0 26 18.5 42.5t44.5 16.5q28 0 40.5 -17.5t24 -53t23 -51t37.5 -15.5q53 0 102 68.5t86.5 164t60 173.5
t42.5 155l213 756h-227l12 45h227q58 155 94 234.5t91 142.5q88 99 170.5 128.5t234.5 37.5z" />
    <glyph glyph-name="daggerdbl" unicode="&#x2021;" horiz-adv-x="1024" 
d="M1126 905q0 -32 -25 -58t-57 -26q-24 0 -50.5 10t-51.5 19q-49 20 -85.5 28t-94.5 9q-29 -89 -29 -178q0 -92 33 -168q-43 -43 -72.5 -100.5t-45.5 -110.5t-36 -135l37 -2h15q28 0 41.5 4.5t64.5 25.5q72 29 104 29q26 0 46 -10t31.5 -28t11.5 -44q0 -34 -24 -59t-58 -25
q-39 0 -111 29q-76 30 -147 30h-25q-4 -20 -12 -55t-10.5 -55.5t-2.5 -38.5q0 -21 9.5 -80.5t9.5 -87.5q0 -45 -24.5 -81t-67.5 -36q-40 0 -63 25t-23 63q0 32 10.5 55.5t42.5 75.5q58 98 78 215h-13q-61 0 -147 -28q-78 -29 -109 -29q-35 0 -58 27t-23 61q0 33 24.5 58.5
t56.5 25.5q29 0 103 -29q49 -19 85.5 -27t94.5 -9q4 17 9.5 41t11.5 56t8 52t2 43q0 77 -31 154q116 124 150 346l-37 2h-15q-28 0 -44 -5.5t-62 -25.5q-13 -5 -34 -13.5t-38.5 -12t-32.5 -3.5q-37 0 -62.5 22.5t-25.5 59.5q0 36 24 60t58 24q37 0 111 -28q50 -19 79 -25
t68 -6h25q8 37 16.5 78t8.5 71t-9.5 88.5t-9.5 79.5q0 45 24.5 81t67.5 36q40 0 63 -24t23 -64q0 -34 -12.5 -60.5t-40.5 -70.5q-60 -102 -78 -215h12q64 0 148 29q27 10 56.5 19t51.5 9q36 0 59 -25.5t23 -62.5z" />
    <glyph glyph-name="periodcentered" unicode="&#x2219;" horiz-adv-x="532" 
d="M487 457q0 -47 -31 -82t-81 -35q-47 0 -79 32t-32 79q0 31 15 56t40.5 40.5t55.5 15.5q48 0 80 -29.5t32 -76.5z" />
    <glyph glyph-name="quotesinglbase" unicode="&#x201a;" horiz-adv-x="492" 
d="M391 23q0 -106 -76 -183.5t-200 -146.5l-21 45q62 27 134.5 103t72.5 128q0 11 -4 23q-23 -12 -25 -12q-11 -7 -28 -7q-42 0 -71.5 29.5t-29.5 73.5q0 47 32.5 77.5t80.5 30.5q62 0 98.5 -48.5t36.5 -112.5z" />
    <glyph glyph-name="quotedblbase" unicode="&#x201e;" horiz-adv-x="860" 
d="M727 23q0 -106 -76 -183t-200 -147l-21 45q62 27 134.5 103t72.5 128q0 11 -4 23q-23 -12 -25 -12q-11 -7 -28 -7q-42 0 -71.5 29.5t-29.5 73.5q0 32 14.5 56t40.5 38t58 14q62 0 98.5 -48.5t36.5 -112.5zM391 23q0 -106 -76 -183.5t-200 -146.5l-21 45q62 27 134.5 103
t72.5 128q0 11 -4 23q-23 -12 -25 -12q-11 -7 -28 -7q-42 0 -71.5 29.5t-29.5 73.5q0 47 32.5 77.5t80.5 30.5q62 0 98.5 -48.5t36.5 -112.5z" />
    <glyph glyph-name="perthousand" unicode="&#x2030;" horiz-adv-x="2826" 
d="M2759 403q0 -81 -25 -170t-72 -163t-118 -121t-160 -47q-135 0 -222 89.5t-87 223.5q0 85 32 171.5t87.5 155.5t133.5 111.5t164 42.5q85 0 144.5 -38.5t91 -104.5t31.5 -150zM1952 403q0 -81 -25 -170t-72 -163t-118 -121t-160 -47q-135 0 -222 89.5t-87 223.5
q0 85 32 171.5t89 156.5t133.5 111.5t163.5 41.5q85 0 144.5 -38.5t90.5 -104.5t31 -150zM1733 1497l-979 -1647h-84l866 1463l-4 4q-79 -41 -129 -60.5t-111 -19.5q-48 0 -159 37q22 -71 22 -141q0 -104 -46 -219.5t-130 -193t-191 -77.5q-92 0 -163.5 42t-111.5 116
t-40 166q0 108 55.5 219t150.5 182.5t204 71.5q65 0 106.5 -17.5t92.5 -53.5t94.5 -53.5t111.5 -17.5q200 0 377 199h68zM2697 420q0 86 -42.5 149.5t-125.5 63.5q-86 -1 -155 -84t-107.5 -198.5t-38.5 -194.5q0 -76 44.5 -134.5t117.5 -58.5t130.5 45t97 116.5t59.5 150
t20 145.5zM1890 420q0 85 -43.5 150t-126.5 65q-66 0 -121.5 -50t-95.5 -128t-61 -159t-21 -142q0 -48 18.5 -92.5t55 -72.5t86.5 -28q94 0 164.5 75.5t107.5 184.5t37 197zM1094 1161q0 88 -42.5 152.5t-125.5 64.5q-66 0 -122 -50.5t-95 -127.5t-60.5 -160.5t-21.5 -142.5
q0 -49 18.5 -92.5t54.5 -71.5t86 -28q73 0 131 45.5t98 118.5t59.5 149t19.5 143z" />
    <glyph glyph-name="Acircumflex" unicode="&#xc2;" horiz-adv-x="1311" 
d="M1331 41l-12 -45q-43 1 -123 4.5t-149 3.5q-67 0 -144 -3.5t-121 -4.5l11 45q97 7 136.5 20.5t39.5 79.5q0 51 -13 123l-45 295h-397l-90 -170q-46 -93 -81.5 -170.5t-35.5 -114.5q0 -29 30.5 -42t68.5 -16t67 -5l-12 -45q-39 1 -107 4.5t-127 3.5q-51 0 -112.5 -3.5
t-96.5 -4.5l13 45q55 8 90 24.5t69 53.5q24 25 49.5 66t65.5 113.5t57 102.5l558 967h61l162 -1106q24 -154 41 -178q12 -18 38 -27t47.5 -11t61.5 -5zM901 621l-61 505h-4l-287 -505h352zM1249 1554h-52l-170 168l-260 -168h-76l295 291h103z" />
    <glyph glyph-name="Ecircumflex" unicode="&#xca;" horiz-adv-x="1147" 
d="M1323 1040h-39q-41 152 -109 209.5t-188 57.5h-272l-148 -557h158q61 0 102 17.5t74.5 63.5t73.5 136h37l-107 -523h-41q0 14 2 50t2 55q0 104 -57 135q-37 21 -111 21h-145l-117 -435q-20 -68 -20 -108q0 -74 69.5 -97.5t169.5 -23.5h68q122 0 199.5 31t129.5 95.5
t107 180.5h47l-94 -352q-137 1 -381.5 4.5t-453.5 3.5q-72 0 -154.5 -3.5t-132.5 -4.5l12 45h29q73 0 111 21t55 59.5t41 128.5l221 827q12 43 16 59t11.5 49t7.5 46q0 49 -44 62.5t-110 13.5l12 45q45 -1 129.5 -5t126.5 -4q114 0 343.5 4t340.5 5zM1167 1554h-52l-170 168
l-260 -168h-76l295 291h103z" />
    <glyph glyph-name="Aacute" unicode="&#xc1;" horiz-adv-x="1311" 
d="M1331 41l-12 -45q-43 1 -123 4.5t-149 3.5q-67 0 -144 -3.5t-121 -4.5l11 45q97 7 136.5 20.5t39.5 79.5q0 51 -13 123l-45 295h-397l-90 -170q-46 -93 -81.5 -170.5t-35.5 -114.5q0 -29 30.5 -42t68.5 -16t67 -5l-12 -45q-39 1 -107 4.5t-127 3.5q-51 0 -112.5 -3.5
t-96.5 -4.5l13 45q55 8 90 24.5t69 53.5q24 25 49.5 66t65.5 113.5t57 102.5l558 967h61l162 -1106q24 -154 41 -178q12 -18 38 -27t47.5 -11t61.5 -5zM901 621l-61 505h-4l-287 -505h352zM1270 1763q0 -38 -31.5 -61.5t-93.5 -52.5l-227 -113h-68l219 201q3 3 34.5 31.5
t56.5 43.5t47 15q25 0 44 -19t19 -45z" />
    <glyph glyph-name="Edieresis" unicode="&#xcb;" horiz-adv-x="1147" 
d="M1323 1040h-39q-41 152 -109 209.5t-188 57.5h-272l-148 -557h158q61 0 102 17.5t74.5 63.5t73.5 136h37l-107 -523h-41q0 14 2 50t2 55q0 104 -57 135q-37 21 -111 21h-145l-117 -435q-20 -68 -20 -108q0 -74 69.5 -97.5t169.5 -23.5h68q122 0 199.5 31t129.5 95.5
t107 180.5h47l-94 -352q-137 1 -381.5 4.5t-453.5 3.5q-72 0 -154.5 -3.5t-132.5 -4.5l12 45h29q73 0 111 21t55 59.5t41 128.5l221 827q12 43 16 59t11.5 49t7.5 46q0 49 -44 62.5t-110 13.5l12 45q45 -1 129.5 -5t126.5 -4q114 0 343.5 4t340.5 5zM1184 1688
q0 -41 -29 -71t-71 -30q-41 0 -71 28.5t-30 70.5q0 27 13 50.5t36 37.5t52 14q20 0 39 -8t32 -21t21 -32t8 -39zM848 1688q0 -41 -29 -71t-71 -30q-41 0 -71 28.5t-30 70.5q0 27 13 50.5t36 37.5t52 14q20 0 39 -8t32 -21t21 -32t8 -39z" />
    <glyph glyph-name="Egrave" unicode="&#xc8;" horiz-adv-x="1147" 
d="M1323 1040h-39q-41 152 -109 209.5t-188 57.5h-272l-148 -557h158q61 0 102 17.5t74.5 63.5t73.5 136h37l-107 -523h-41q0 14 2 50t2 55q0 104 -57 135q-37 21 -111 21h-145l-117 -435q-20 -68 -20 -108q0 -74 69.5 -97.5t169.5 -23.5h68q122 0 199.5 31t129.5 95.5
t107 180.5h47l-94 -352q-137 1 -381.5 4.5t-453.5 3.5q-72 0 -154.5 -3.5t-132.5 -4.5l12 45h29q73 0 111 21t55 59.5t41 128.5l221 827q12 43 16 59t11.5 49t7.5 46q0 49 -44 62.5t-110 13.5l12 45q45 -1 129.5 -5t126.5 -4q114 0 343.5 4t340.5 5zM1104 1538h-58l-235 148
q-40 26 -58 42t-18 42q0 27 19.5 49t45.5 22q24 0 49.5 -19t51 -49t39.5 -46z" />
    <glyph glyph-name="Iacute" unicode="&#xcd;" horiz-adv-x="696" 
d="M987 1352l-12 -45q-71 -3 -110 -10t-64 -42q-19 -24 -43 -96.5t-43 -140.5l-217 -752q-39 -117 -39 -157q0 -27 15.5 -41t46 -20t59.5 -6.5t57 -0.5l-14 -45q-50 1 -133.5 4.5t-155.5 3.5q-70 0 -151 -3.5t-130 -4.5l13 45h28q75 0 112 21t53 56.5t44 131.5l238 827
q34 112 34 154q0 55 -41 64t-141 12l13 45q44 -1 132 -5t132 -4q54 0 159 4t158 5zM1024 1763q0 -38 -31.5 -61.5t-93.5 -52.5l-227 -113h-68l219 201q3 3 34.5 31.5t56.5 43.5t47 15q25 0 44 -19t19 -45z" />
    <glyph glyph-name="Icircumflex" unicode="&#xce;" horiz-adv-x="696" 
d="M987 1352l-12 -45q-71 -3 -110 -10t-64 -42q-19 -24 -43 -96.5t-43 -140.5l-217 -752q-39 -117 -39 -157q0 -27 15.5 -41t46 -20t59.5 -6.5t57 -0.5l-14 -45q-50 1 -133.5 4.5t-155.5 3.5q-70 0 -151 -3.5t-130 -4.5l13 45h28q75 0 112 21t53 56.5t44 131.5l238 827
q34 112 34 154q0 55 -41 64t-141 12l13 45q44 -1 132 -5t132 -4q54 0 159 4t158 5zM983 1554h-52l-170 168l-260 -168h-76l295 291h103z" />
    <glyph glyph-name="Idieresis" unicode="&#xcf;" horiz-adv-x="696" 
d="M987 1352l-12 -45q-71 -3 -110 -10t-64 -42q-19 -24 -43 -96.5t-43 -140.5l-217 -752q-39 -117 -39 -157q0 -27 15.5 -41t46 -20t59.5 -6.5t57 -0.5l-14 -45q-50 1 -133.5 4.5t-155.5 3.5q-70 0 -151 -3.5t-130 -4.5l13 45h28q75 0 112 21t53 56.5t44 131.5l238 827
q34 112 34 154q0 55 -41 64t-141 12l13 45q44 -1 132 -5t132 -4q54 0 159 4t158 5zM1041 1688q0 -41 -29 -71t-71 -30q-41 0 -71 28.5t-30 70.5q0 27 13 50.5t36 37.5t52 14q20 0 39 -8t32 -21t21 -32t8 -39zM705 1688q0 -41 -29 -71t-71 -30q-41 0 -71 28.5t-30 70.5
q0 27 13 50.5t36 37.5t52 14q20 0 39 -8t32 -21t21 -32t8 -39z" />
    <glyph glyph-name="Igrave" unicode="&#xcc;" horiz-adv-x="696" 
d="M987 1352l-12 -45q-71 -3 -110 -10t-64 -42q-19 -24 -43 -96.5t-43 -140.5l-217 -752q-39 -117 -39 -157q0 -27 15.5 -41t46 -20t59.5 -6.5t57 -0.5l-14 -45q-50 1 -133.5 4.5t-155.5 3.5q-70 0 -151 -3.5t-130 -4.5l13 45h28q75 0 112 21t53 56.5t44 131.5l238 827
q34 112 34 154q0 55 -41 64t-141 12l13 45q44 -1 132 -5t132 -4q54 0 159 4t158 5zM879 1538h-58l-235 148q-40 26 -58 42t-18 42q0 27 19.5 49t45.5 22q24 0 49.5 -19t51 -49t39.5 -46z" />
    <glyph glyph-name="Oacute" unicode="&#xd3;" horiz-adv-x="1434" 
d="M1552 844q0 -155 -63 -311t-174 -282.5t-258.5 -202t-304.5 -75.5q-232 0 -363 144.5t-131 376.5q0 154 61.5 311.5t168.5 284.5t252.5 203.5t303.5 76.5q151 0 267 -68.5t178.5 -188.5t62.5 -269zM1348 965q0 61 -18 125.5t-52.5 117t-86.5 85t-120 32.5
q-138 0 -251 -97.5t-193 -248.5t-122 -315t-42 -287q0 -93 30 -175t92.5 -133t159.5 -51q140 0 253.5 95.5t191.5 247t118 314t40 290.5zM1331 1763q0 -38 -31.5 -61.5t-93.5 -52.5l-227 -113h-68l219 201q3 3 34.5 31.5t56.5 43.5t47 15q25 0 44 -19t19 -45z" />
    <glyph glyph-name="Ocircumflex" unicode="&#xd4;" horiz-adv-x="1434" 
d="M1552 844q0 -155 -63 -311t-174 -282.5t-258.5 -202t-304.5 -75.5q-232 0 -363 144.5t-131 376.5q0 154 61.5 311.5t168.5 284.5t252.5 203.5t303.5 76.5q151 0 267 -68.5t178.5 -188.5t62.5 -269zM1348 965q0 61 -18 125.5t-52.5 117t-86.5 85t-120 32.5
q-138 0 -251 -97.5t-193 -248.5t-122 -315t-42 -287q0 -93 30 -175t92.5 -133t159.5 -51q140 0 253.5 95.5t191.5 247t118 314t40 290.5zM1352 1554h-52l-170 168l-260 -168h-76l295 291h103z" />
    <glyph glyph-name="Ograve" unicode="&#xd2;" horiz-adv-x="1434" 
d="M1552 844q0 -155 -63 -311t-174 -282.5t-258.5 -202t-304.5 -75.5q-232 0 -363 144.5t-131 376.5q0 154 61.5 311.5t168.5 284.5t252.5 203.5t303.5 76.5q151 0 267 -68.5t178.5 -188.5t62.5 -269zM1348 965q0 61 -18 125.5t-52.5 117t-86.5 85t-120 32.5
q-138 0 -251 -97.5t-193 -248.5t-122 -315t-42 -287q0 -93 30 -175t92.5 -133t159.5 -51q140 0 253.5 95.5t191.5 247t118 314t40 290.5zM1248 1538h-58l-235 148q-40 26 -58 42t-18 42q0 27 19.5 49t45.5 22q24 0 49.5 -19t51 -49t39.5 -46z" />
    <glyph glyph-name="Uacute" unicode="&#xda;" horiz-adv-x="1393" 
d="M1731 1352l-13 -45q-76 0 -119.5 -30t-61.5 -73t-46 -139l-107 -381q-54 -195 -88 -294.5t-97 -199t-166 -158.5t-255 -59q-117 0 -225 36.5t-176 116t-68 202.5q0 34 9.5 82.5t25.5 102t29 101.5l125 463q5 18 16 54t17 61.5t6 42.5q0 28 -20.5 44.5t-45.5 21t-57.5 5.5
t-57.5 1l13 45q45 -1 135 -5t135 -4q51 0 154.5 4t152.5 5l-12 -45q-70 -2 -109.5 -11t-64.5 -43q-21 -27 -47.5 -107t-38.5 -130l-125 -469q-14 -52 -23 -87t-15.5 -74t-6.5 -73q0 -130 89 -204t222 -74q136 0 224.5 62.5t136.5 158.5t96 248q16 47 44 145.5t56.5 213.5
t46 202t17.5 125q0 72 -42.5 92.5t-125.5 24.5l12 45q167 -9 219 -9h21q49 0 211 9zM1372 1763q0 -38 -31.5 -61.5t-93.5 -52.5l-227 -113h-68l219 201q3 3 34.5 31.5t56.5 43.5t47 15q25 0 44 -19t19 -45z" />
    <glyph glyph-name="Ucircumflex" unicode="&#xdb;" horiz-adv-x="1393" 
d="M1731 1352l-13 -45q-76 0 -119.5 -30t-61.5 -73t-46 -139l-107 -381q-54 -195 -88 -294.5t-97 -199t-166 -158.5t-255 -59q-117 0 -225 36.5t-176 116t-68 202.5q0 34 9.5 82.5t25.5 102t29 101.5l125 463q5 18 16 54t17 61.5t6 42.5q0 28 -20.5 44.5t-45.5 21t-57.5 5.5
t-57.5 1l13 45q45 -1 135 -5t135 -4q51 0 154.5 4t152.5 5l-12 -45q-70 -2 -109.5 -11t-64.5 -43q-21 -27 -47.5 -107t-38.5 -130l-125 -469q-14 -52 -23 -87t-15.5 -74t-6.5 -73q0 -130 89 -204t222 -74q136 0 224.5 62.5t136.5 158.5t96 248q16 47 44 145.5t56.5 213.5
t46 202t17.5 125q0 72 -42.5 92.5t-125.5 24.5l12 45q167 -9 219 -9h21q49 0 211 9zM1290 1554h-52l-170 168l-260 -168h-76l295 291h103z" />
    <glyph glyph-name="Ugrave" unicode="&#xd9;" horiz-adv-x="1393" 
d="M1731 1352l-13 -45q-76 0 -119.5 -30t-61.5 -73t-46 -139l-107 -381q-54 -195 -88 -294.5t-97 -199t-166 -158.5t-255 -59q-117 0 -225 36.5t-176 116t-68 202.5q0 34 9.5 82.5t25.5 102t29 101.5l125 463q5 18 16 54t17 61.5t6 42.5q0 28 -20.5 44.5t-45.5 21t-57.5 5.5
t-57.5 1l13 45q45 -1 135 -5t135 -4q51 0 154.5 4t152.5 5l-12 -45q-70 -2 -109.5 -11t-64.5 -43q-21 -27 -47.5 -107t-38.5 -130l-125 -469q-14 -52 -23 -87t-15.5 -74t-6.5 -73q0 -130 89 -204t222 -74q136 0 224.5 62.5t136.5 158.5t96 248q16 47 44 145.5t56.5 213.5
t46 202t17.5 125q0 72 -42.5 92.5t-125.5 24.5l12 45q167 -9 219 -9h21q49 0 211 9zM1227 1538h-58l-235 148q-40 26 -58 42t-18 42q0 27 19.5 49t45.5 22q24 0 49.5 -19t51 -49t39.5 -46z" />
    <glyph glyph-name="dotlessi" unicode="&#x131;" horiz-adv-x="573" 
d="M653 260q-138 -287 -291 -287q-61 0 -97 43.5t-36 104.5q0 41 14 86t36.5 97.5t39.5 92.5l58 138q76 186 76 245q0 18 -9.5 29.5t-25.5 11.5q-41 0 -98 -76.5t-95 -146.5l-41 23q44 73 61.5 102t52.5 70.5t75 65.5t86 24q57 0 92 -41.5t35 -98.5q0 -32 -8.5 -70.5
t-23 -79.5t-31 -81t-34.5 -82l-65 -166q-62 -155 -62 -194q0 -13 9 -24t22 -11q50 0 117.5 87t101.5 159z" />
    <glyph glyph-name="circumflex" unicode="&#x2c6;" horiz-adv-x="819" 
d="M1004 1087h-52l-170 168l-260 -168h-76l295 291h103z" />
    <glyph glyph-name="tilde" unicode="&#x2dc;" horiz-adv-x="819" 
d="M1034 1274q-10 -64 -57.5 -118t-108.5 -54q-46 0 -72.5 11t-96.5 43t-99 32q-32 0 -52.5 -18t-41.5 -54l-49 6q24 73 74 120.5t122 47.5q48 0 138 -41t112 -41q53 0 84 72z" />
    <glyph glyph-name="macron" unicode="&#x2c9;" horiz-adv-x="819" 
d="M1032 1196h-534v70h534v-70z" />
    <glyph glyph-name="breve" unicode="&#x2d8;" horiz-adv-x="860" 
d="M1112 1337q-31 -46 -74 -91t-94 -81t-107 -58t-110 -22q-109 0 -159 64.5t-50 173.5v14h47q1 -76 55 -103.5t138 -27.5q154 0 297 131h57z" />
    <glyph glyph-name="dotaccent" unicode="&#x2d9;" horiz-adv-x="451" 
d="M684 1221q0 -41 -29 -71t-71 -30q-41 0 -71 28.5t-30 70.5q0 27 13 50.5t36 37.5t52 14q20 0 39 -8t32 -21t21 -32t8 -39z" />
    <glyph glyph-name="ring" unicode="&#x2da;" horiz-adv-x="696" 
d="M897 1176q0 -87 -63 -147t-150 -60q-55 0 -105 27.5t-79 75t-29 104.5q0 88 63.5 150.5t151.5 62.5q89 0 150 -63t61 -150zM823 1176q0 61 -38.5 103t-100.5 42q-59 0 -99 -43t-40 -102q0 -58 40 -99t99 -41q58 0 98.5 41.5t40.5 98.5z" />
    <glyph glyph-name="cedilla" unicode="&#xb8;" horiz-adv-x="573" 
d="M418 -203q0 -64 -49 -100.5t-117 -36.5q-53 0 -109.5 23.5t-56.5 68.5q0 17 12 31t31 14q33 0 43 -39q11 -32 22 -42.5t39 -10.5q40 0 69.5 25.5t29.5 64.5q0 35 -31 49.5t-72 14.5h-10l45 141h51l-30 -96q53 0 93 -28.5t40 -78.5z" />
    <glyph glyph-name="hungarumlaut" unicode="&#x2dd;" horiz-adv-x="901" 
d="M1155 1296q0 -39 -32.5 -63t-92.5 -51l-227 -113h-66l217 201q48 45 76.5 67.5t61.5 22.5q25 0 44 -19t19 -45zM860 1296q0 -38 -31.5 -61.5t-93.5 -52.5l-227 -113h-68l219 201q3 3 34.5 31.5t56.5 43.5t47 15q25 0 44 -19t19 -45z" />
    <glyph glyph-name="ogonek" unicode="&#x2db;" horiz-adv-x="614" 
d="M438 -213q-43 -46 -110.5 -79.5t-124.5 -33.5q-48 0 -90.5 24t-42.5 71q0 152 346 231l-86 -49q-60 -36 -96.5 -65t-36.5 -70q0 -25 15.5 -41.5t41.5 -16.5q57 0 152 80z" />
    <glyph glyph-name="caron" unicode="&#x2c7;" horiz-adv-x="819" 
d="M1075 1380l-295 -293h-104l-158 293h51l170 -170l258 170h78z" />
    <glyph glyph-name="Lslash" unicode="&#x141;" horiz-adv-x="1229" 
d="M1305 340l-93 -344q-145 1 -399.5 4.5t-474.5 3.5q-67 0 -146 -3.5t-126 -4.5l12 45h28q74 0 112 21t55.5 59.5t41.5 128.5l95 344l-191 -86l23 86l190 88l107 395q5 18 16 54t17 61.5t6 42.5q0 72 -144 72h-37l13 45q47 -1 135.5 -5t132.5 -4q53 0 156 4t155 5l-12 -45
q-136 0 -174 -54q-21 -27 -47.5 -107t-38.5 -130l-66 -248l330 147l-25 -88l-329 -145l-101 -373q-30 -112 -30 -162q0 -44 28 -68.5t69.5 -32t96.5 -7.5q24 1 42.5 1.5t41.5 0.5q143 0 226.5 21.5t144.5 85t115 192.5h45z" />
    <glyph glyph-name="lslash" unicode="&#x142;" horiz-adv-x="532" 
d="M770 954l-31 -98l-213 -111l-49 -157q-24 -75 -51.5 -167t-49.5 -185.5t-22 -141.5q0 -59 39 -59q46 0 114.5 97.5t94.5 160.5l47 -23q-57 -106 -87.5 -154.5t-86 -95.5t-125.5 -47q-69 0 -106 46.5t-37 115.5q0 85 78 328l65 211l-200 -109l28 92l195 109l121 383
q20 67 20 84q0 34 -24 47t-58.5 15t-64.5 3l12 45l342 21l-164 -522z" />
    <glyph glyph-name="Scaron" unicode="&#x160;" horiz-adv-x="983" 
d="M1139 1325l-74 -348h-35q-5 160 -71.5 254t-204.5 94q-92 0 -155.5 -59t-63.5 -148q0 -91 53 -156.5t176 -178.5t186.5 -208t63.5 -221q0 -112 -54.5 -198.5t-149 -134.5t-204.5 -48q-101 0 -204.5 40.5t-174.5 111.5l-65 -84h-27l68 381h41q6 -82 25 -154.5t58 -130
t101.5 -88.5t151.5 -31q107 0 178 75t71 183q0 106 -57.5 182t-176 185.5t-177 194t-58.5 202.5q0 101 50.5 176t134.5 114.5t184 39.5q174 0 322 -119l61 74h27zM1157 1847l-295 -293h-104l-158 293h51l170 -170l258 170h78z" />
    <glyph glyph-name="scaron" unicode="&#x161;" horiz-adv-x="696" 
d="M786 754q0 -23 -14.5 -38.5t-36.5 -15.5q-34 0 -42 14.5t-13.5 51t-22.5 54.5t-67 18q-55 0 -96 -35.5t-41 -89.5q0 -46 21.5 -81.5t85.5 -117.5t96.5 -142.5t33.5 -129.5v-6q0 -125 -91 -194t-222 -69q-93 0 -170.5 41t-77.5 125q0 76 53 76q25 0 43.5 -17.5t18.5 -43.5
q0 -14 -3 -34.5t-3 -21.5q0 -40 40 -60t87 -20q77 0 127.5 40.5t50.5 113.5q0 47 -29.5 96.5t-89.5 127.5t-89.5 132.5t-29.5 112.5q0 114 82.5 178t200.5 64q42 0 88 -13t78 -42t32 -74zM952 1380l-295 -293h-104l-158 293h51l170 -170l258 170h78z" />
    <glyph glyph-name="Zcaron" unicode="&#x17d;" horiz-adv-x="1147" 
d="M1384 1352l-956 -1311h240q155 0 248.5 19t169 82.5t147.5 197.5h41q-29 -79 -69 -182.5t-62 -161.5q-141 2 -282.5 3.5t-306.5 3t-259 1.5q-33 0 -73.5 -3.5t-63.5 -4.5l948 1311h-178q-129 0 -213 -20.5t-151.5 -77.5t-143.5 -171h-41l125 314q122 -1 367 -5t366 -4
q24 0 72.5 4t74.5 5zM1239 1847l-295 -293h-104l-158 293h51l170 -170l258 170h78z" />
    <glyph glyph-name="zcaron" unicode="&#x17e;" horiz-adv-x="737" 
d="M807 193q0 -96 -51.5 -158t-145.5 -62q-33 0 -65 9t-64 27t-57 34q-47 34 -79 52t-64 18q-74 0 -101 -82q-10 -30 -18.5 -44t-30.5 -14q-13 0 -23 9t-10 20q0 25 17.5 55t42.5 60.5t43 52.5l417 541l-4 4q-87 -25 -149 -25q-28 0 -76 10.5t-76 10.5q-35 0 -52 -27.5
t-17 -62.5v-7q1 -3 1.5 -5.5t0.5 -6.5q0 -16 -13 -16q-18 0 -29 38t-11 62q0 47 26.5 90t70 66.5t91.5 23.5q41 0 71.5 -15.5t56 -37.5t53 -42.5t52.5 -20.5q35 0 51 19.5t35 64.5q6 14 11 24.5t13.5 17.5t20.5 7q14 0 23.5 -7.5t9.5 -21.5q0 -24 -43 -80l-461 -608
q100 16 144 16q26 0 37.5 -1t33 -5t40 -7.5t30.5 -6.5q50 -12 78 -12q113 0 119 112q0 31 12 31q20 0 29.5 -36.5t9.5 -63.5zM891 1380l-295 -293h-104l-158 293h51l170 -170l258 170h78z" />
    <glyph glyph-name="brokenbar" unicode="&#xa6;" horiz-adv-x="778" 
d="M635 666h-109v716h109v-716zM635 -358h-109v716h109v-716z" />
    <glyph glyph-name="Eth" unicode="&#xd0;" horiz-adv-x="1352" 
d="M1446 788q0 -79 -16.5 -159.5t-48 -154t-78 -141t-105.5 -124.5q-122 -118 -261.5 -165.5t-313.5 -47.5q-68 0 -192 4t-181 4q-64 0 -139.5 -3.5t-118.5 -4.5l12 45h37q68 0 105.5 22t56 64.5t39.5 122.5l116 434h-170l25 66h164l86 327q4 16 14.5 53t17.5 64t7 41
q0 72 -142 72h-38l12 45q47 -1 137.5 -5t134.5 -4q32 0 113.5 4.5t144.5 4.5q220 0 389 -138q95 -78 144 -189t49 -237zM1241 891q0 200 -105.5 308t-289.5 108q-66 0 -89.5 -5.5t-36 -25.5t-24.5 -68l-123 -458h271l-25 -66h-264l-82 -305q-45 -160 -45 -217
q0 -78 55.5 -99.5t147.5 -21.5q114 0 200 33.5t151 98t122 171.5q63 120 100 266t37 281z" />
    <glyph glyph-name="eth" unicode="&#xf0;" horiz-adv-x="860" 
d="M1026 1335l-215 -110q47 -73 80.5 -155.5t50 -174t16.5 -184.5q0 -169 -57.5 -340t-168 -284.5t-261.5 -113.5q-131 0 -208 82.5t-77 216.5q0 93 36 199.5t100 200t151 152.5t186 59q50 0 84 -21.5t66 -58.5q-3 195 -86 377l-215 -111l-41 59l225 113q-72 125 -166 203
l43 35q124 -95 201 -199l219 111zM795 686q0 61 -33 106.5t-92 45.5q-97 0 -174 -122t-119.5 -283.5t-42.5 -260.5q0 -70 35 -112t104 -42q80 0 141 75t101 185.5t60 222.5t20 185z" />
    <glyph glyph-name="Yacute" unicode="&#xdd;" horiz-adv-x="1188" 
d="M1516 1352l-13 -45h-8q-29 0 -54.5 -13t-45 -32.5t-43 -49t-39.5 -49.5l-479 -581l-99 -369q-20 -74 -20 -100q0 -46 35.5 -59t99.5 -13h24h21l-10 -45q-54 1 -144.5 4.5t-169.5 3.5q-67 0 -146 -3.5t-124 -4.5l10 45h29q75 0 112 21t54 59.5t41 128.5l96 362l-149 506
q-11 35 -18 59t-15.5 46t-18.5 37q-21 30 -50 37.5t-85 9.5l12 45q41 -1 123 -5t123 -4q43 0 129 4t129 5l-12 -45q-73 -3 -110 -12.5t-37 -57.5q0 -28 8 -57l149 -518q37 45 104 120t143.5 166t130.5 171t54 114q0 49 -39 60t-112 14l12 45q33 -1 98 -5t97 -4q35 0 104.5 4
t102.5 5zM1270 1763q0 -38 -31.5 -61.5t-93.5 -52.5l-227 -113h-68l219 201q3 3 34.5 31.5t56.5 43.5t47 15q25 0 44 -19t19 -45z" />
    <glyph glyph-name="yacute" unicode="&#xfd;" horiz-adv-x="778" 
d="M813 688v0v-8q0 -97 -17 -193.5t-49 -194.5t-75 -193.5t-90 -174.5q-102 -171 -247.5 -324t-277.5 -153q-32 0 -57 16t-25 41q0 76 107 76h12h37q62 0 104 15.5t91 58.5q139 145 139 330q0 104 -21.5 255.5t-48.5 243.5q-16 69 -58.5 173t-74.5 104q-30 0 -44.5 -62.5
t-14.5 -111.5v-4q0 -28 4 -80h-45q-4 60 -4 90v6q0 55 16.5 122t51 115t89.5 48q49 0 91 -55t70.5 -124.5t47.5 -132.5q62 -217 72 -512h4q41 79 75.5 167t55.5 177t21 164q0 69 -18 107t-48.5 79.5t-30.5 65.5q0 28 20 46t46 18q58 0 75 -56t17 -139zM942 1296
q0 -38 -31.5 -61.5t-93.5 -52.5l-227 -113h-68l219 201q3 3 34.5 31.5t56.5 43.5t47 15q25 0 44 -19t19 -45z" />
    <glyph glyph-name="Thorn" unicode="&#xde;" horiz-adv-x="1147" 
d="M1284 715q0 -150 -90.5 -240.5t-225.5 -127t-282 -36.5h-8q-21 0 -51 1.5t-65.5 3.5t-65.5 3l-15 -53q0 2 -19.5 -69.5t-19.5 -87.5q0 -27 15.5 -41t46 -20t60 -6.5t57.5 -0.5l-15 -45q-43 1 -130 4.5t-163 3.5q-69 0 -151.5 -3.5t-130.5 -4.5l12 45h29q75 0 112.5 21.5
t55 59.5t41.5 128l221 827q5 18 16 54t17 61.5t6 42.5q0 28 -20.5 44.5t-45.5 21t-57.5 5.5t-57.5 1l13 45q25 -1 114.5 -5t149.5 -4q54 0 159 4t158 5l-12 -45q-71 -3 -110 -10t-64 -42q-34 -41 -74 -194l-6 -25q19 -2 45 -2h33h6q217 -4 364.5 -69t147.5 -250zM1079 754
q0 81 -39 133.5t-102.5 77t-140.5 24.5h-2q-105 0 -127 -35q-7 -11 -23 -75l-137 -508q34 -2 62.5 -4.5t72.5 -6.5q90 0 171 25.5t141 76t92 124t32 168.5z" />
    <glyph glyph-name="thorn" unicode="&#xfe;" horiz-adv-x="983" 
d="M1065 623q0 -133 -70 -286.5t-187.5 -258.5t-256.5 -105q-51 0 -95.5 31t-60.5 78h-4l-76 -277q-2 -6 -21 -75.5t-29.5 -113t-10.5 -65.5q0 -44 37.5 -54t101.5 -13l-14 -45q-35 1 -99.5 4.5t-119.5 3.5q-50 0 -108.5 -3.5t-92.5 -4.5l12 45q81 5 107 31q11 14 25 50
t24 72t18 64l400 1434q7 26 15.5 55.5t8.5 48.5q0 59 -110 59h-17l13 45l301 21l-199 -680l4 -4q50 73 82 111t81 65t114 27q105 0 166 -76t61 -184zM918 700q0 53 -29 95.5t-78 42.5q-72 0 -141 -77.5t-120.5 -190t-82.5 -230.5t-31 -182q0 -52 27 -96t76 -44
q95 0 181.5 126.5t142 294.5t55.5 261z" />
    <glyph glyph-name="minus" unicode="&#x2212;" 
d="M1116 399h-907v109h907v-109z" />
    <glyph glyph-name="multiply" unicode="&#xd7;" 
d="M1059 135l-78 -76l-319 320l-318 -320l-78 76l320 320l-320 319l78 76l318 -320l319 320l78 -76l-320 -319z" />
    <glyph glyph-name="onesuperior" unicode="&#xb9;" horiz-adv-x="639" 
d="M737 1364l-157 -545q-1 -3 -18.5 -62.5t-26.5 -97.5t-9 -49q0 -33 30.5 -40t107.5 -9l-9 -26q-35 0 -103 2t-103 2q-33 0 -100 -2t-99 -2l8 26q53 3 83 6.5t48 20.5q10 9 18.5 27.5t16 42.5t14.5 51l129 452q17 54 17 74q0 37 -54 37h-8q-28 -2 -84 -2l6 26
q161 11 293 68z" />
    <glyph glyph-name="twosuperior" unicode="&#xb2;" horiz-adv-x="639" 
d="M819 1155q0 -49 -22.5 -92t-60 -80.5t-71 -63.5t-100.5 -75l-270 -207v-4h235h60q46 0 70.5 6.5t46.5 28.5t47 69h28l-86 -196q-13 0 -38 2t-40 2q-99 0 -161.5 -1l-125 -2t-161.5 -1v16q31 28 92.5 85.5t89.5 82.5l256 233q99 89 99 189q0 45 -21 76t-57.5 48t-81.5 17
q-68 0 -122 -41.5t-54 -103.5q0 -25 8 -57t8 -31q0 -6 -8 -6q-17 0 -32 42t-15 74q0 90 68 144.5t169 54.5q73 0 129.5 -24.5t88.5 -72t32 -112.5z" />
    <glyph glyph-name="threesuperior" unicode="&#xb3;" horiz-adv-x="639" 
d="M854 1221q0 -71 -53.5 -110t-153.5 -81v-4q64 0 99.5 -42t35.5 -101q0 -89 -68.5 -164t-168.5 -119q-170 -74 -381 -74l10 31q186 15 293 64q85 40 140 105.5t55 143.5q0 56 -37.5 83.5t-100.5 27.5q-39 0 -84.5 -7t-40.5 -7q-24 0 -24 14q0 9 8.5 15t16.5 7.5t21.5 3
t20.5 1.5q117 13 216.5 56.5t99.5 127.5q0 42 -41 61t-90 19q-81 0 -191 -33l23 100q72 25 153 25q98 0 170 -32t72 -111z" />
    <glyph glyph-name="onehalf" unicode="&#xbd;" horiz-adv-x="1597" 
d="M1831 610q0 -49 -22.5 -92t-60 -80.5t-82 -71t-89.5 -67.5l-270 -207v-4h235h60q67 0 97 17.5t66 87.5h29l-86 -197q-13 0 -39 2t-39 2q-99 0 -161.5 -1l-125 -2t-161.5 -1v16q31 28 77 71t105 97l256 234q98 88 98 188q0 45 -20.5 76t-57 48t-81.5 17q-69 0 -123 -41.5
t-54 -103.5q0 -25 8.5 -55.5t8.5 -32.5q0 -6 -8 -6q-17 0 -32.5 41t-15.5 76q0 60 32 104.5t86.5 69t119.5 24.5q72 0 128.5 -24.5t89 -72t32.5 -112.5zM1563 1370l-979 -1370h-84l979 1370h84zM737 1364l-157 -545q-1 -3 -18.5 -62.5t-26.5 -97.5t-9 -49q0 -33 30.5 -40
t107.5 -9l-9 -26q-35 0 -103 2t-103 2q-33 0 -100 -2t-99 -2l8 26q53 3 83 6.5t48 20.5q10 9 18.5 27.5t16 42.5t14.5 51l129 452q17 54 17 74q0 37 -54 37h-8q-28 -2 -84 -2l6 26q161 11 293 68z" />
    <glyph glyph-name="onequarter" unicode="&#xbc;" horiz-adv-x="1597" 
d="M1688 840l-146 -498h27h20q49 0 80 14h2q6 0 6 -6l-16 -57h-131l-82 -293h-109l86 293h-356l12 39l586 508h21zM1563 1370l-979 -1370h-84l979 1370h84zM737 1364l-157 -545q-1 -3 -18.5 -62.5t-26.5 -97.5t-9 -49q0 -33 30.5 -40t107.5 -9l-9 -26q-35 0 -103 2t-103 2
q-33 0 -100 -2t-99 -2l8 26q53 3 83 6.5t48 20.5q10 9 18.5 27.5t16 42.5t14.5 51l129 452q17 54 17 74q0 37 -54 37h-8q-28 -2 -84 -2l6 26q161 11 293 68zM1538 676l-4 4l-387 -338h293z" />
    <glyph glyph-name="threequarters" unicode="&#xbe;" horiz-adv-x="1597" 
d="M1688 840l-146 -498h27h20q49 0 80 14h2q6 0 6 -6l-16 -57h-131l-82 -293h-109l86 293h-356l12 39l586 508h21zM1542 1370l-979 -1370h-84l979 1370h84zM854 1227q0 -71 -53.5 -110t-153.5 -81v-4q64 0 99.5 -41.5t35.5 -101.5q0 -89 -68.5 -164t-168.5 -119
q-170 -74 -381 -74l10 31q186 15 293 64q85 40 140 105.5t55 144.5q0 55 -37.5 82.5t-100.5 27.5q-39 0 -84.5 -7t-40.5 -7q-24 0 -24 14q0 9 8.5 15t16.5 7.5t21.5 3t20.5 1.5q117 13 216.5 56.5t99.5 127.5q0 42 -39.5 61t-91.5 19q-87 0 -191 -33l23 101q74 24 153 24
q98 0 170 -32t72 -111zM1538 676l-4 4l-387 -338h293z" />
    <glyph glyph-name="uni00AD" unicode="&#xad;" horiz-adv-x="492" 
d="M608 502l-14 -109h-473l16 109h471z" />
    <glyph glyph-name="uni00AF" unicode="&#xaf;" horiz-adv-x="1024" 
d="M1474 1506h-1024v102h1024v-102z" />
    <glyph glyph-name="uni00B7" unicode="&#xb7;" horiz-adv-x="532" 
d="M487 457q0 -47 -31 -82t-81 -35q-47 0 -79 32t-32 79q0 31 15 56t40.5 40.5t55.5 15.5q48 0 80 -29.5t32 -76.5z" />
    <glyph glyph-name="uni2044" unicode="&#x2044;" horiz-adv-x="246" 
d="M846 1370l-979 -1370h-84l979 1370h84z" />
    <glyph glyph-name="currency" unicode="&#xa4;" 
d="M1161 256l-55 -53l-100 100q-119 -102 -275 -102h-8q-151 3 -274 102l-101 -100l-55 53l102 102q-33 40 -55 86t-33.5 96t-11.5 99q0 76 26 147t74 125l-102 101l55 55l101 -100q54 46 126 72t148 28h8q78 0 148.5 -25t126.5 -75l100 100l55 -55l-100 -101
q47 -54 72.5 -126.5t25.5 -149.5v-4q0 -76 -25 -146.5t-73 -126.5zM1067 633q0 93 -45 174t-123 129.5t-170 48.5q-90 0 -169.5 -48t-126 -128t-46.5 -172q0 -91 46 -173t124 -131.5t168 -49.5q89 0 169 48t126.5 128.5t46.5 173.5z" />
    </font>
</defs>
</svg>
