<?xml version="1.0" standalone="no"?>
<!DOCTYPE svg PUBLIC "-//W3C//DTD SVG 1.1//EN" "http://www.w3.org/Graphics/SVG/1.1/DTD/svg11.dtd" >
<svg xmlns="http://www.w3.org/2000/svg" xmlns:xlink="http://www.w3.org/1999/xlink" version="1.1">
<metadata>
Created by FontForge 20160407 at Mon Oct  3 20:15:54 2016
 By Jimmy Warting
Copyright 1985, 1987, 1990, 1994, 2001, 2002 Adobe Systems Incorporated. All Rights Reserved.
</metadata>
<defs>
<font id="NewBaskerville-Roman" horiz-adv-x="1065" >
  <font-face 
    font-family="New Baskerville"
    font-weight="400"
    font-stretch="normal"
    units-per-em="2048"
    panose-1="2 2 6 2 6 2 0 2 2 3"
    ascent="1638"
    descent="-410"
    x-height="874"
    cap-height="1352"
    bbox="-420 -557 2472 1870"
    underline-thickness="102"
    underline-position="-256"
    unicode-range="U+0020-F006"
  />
<missing-glyph horiz-adv-x="1024" 
d="M51 0v1536h922v-1536h-922zM179 128h666v1280h-666v-1280z" />
    <glyph glyph-name=".notdef" horiz-adv-x="1024" 
d="M51 0v1536h922v-1536h-922zM179 128h666v1280h-666v-1280z" />
    <glyph glyph-name=".null" horiz-adv-x="0" 
 />
    <glyph glyph-name="nonmarkingreturn" horiz-adv-x="532" 
 />
    <glyph glyph-name="space" unicode=" " horiz-adv-x="532" 
 />
    <glyph glyph-name="exclam" unicode="!" horiz-adv-x="655" 
d="M436 1233q0 -25 -4.5 -62.5t-11 -75.5t-14.5 -75q-56 -258 -56 -612v-86h-49q1 29 1.5 52.5t0.5 61.5q0 162 -13.5 309.5t-41.5 274.5q-33 168 -33 221t29.5 94t81.5 41q56 0 83 -42.5t27 -100.5zM444 94q0 -49 -33.5 -85t-82.5 -36q-47 0 -82 34t-35 81t32 83t79 36
q49 0 85.5 -32.5t36.5 -80.5z" />
    <glyph glyph-name="quotedbl" unicode="&#x22;" horiz-adv-x="778" 
d="M662 1315v-8l-68 -402h-41l-68 402v8q0 31 27.5 56.5t60.5 25.5q35 0 62 -25.5t27 -56.5zM291 1315v-8l-68 -402h-41l-67 402v8q0 31 27.5 56.5t60.5 25.5q35 0 61.5 -25.5t26.5 -56.5z" />
    <glyph glyph-name="numbersign" unicode="#" 
d="M1061 946l-14 -94h-244l-41 -301h248l-15 -94h-252l-63 -457h-115l64 457h-258l-68 -457h-115l68 457h-252l14 94h256l43 301h-258l15 94h260l63 438h115l-63 -438h256l61 438h115l-62 -438h242zM688 852h-256l-43 -301h258z" />
    <glyph glyph-name="dollar" unicode="$" 
d="M997 371q0 -70 -23.5 -130.5t-66.5 -109t-101 -84t-128 -57.5v-293h-57v285q-23 -2 -46.5 -4.5t-46.5 -2.5q-32 0 -69 5v-283h-58v283q-64 3 -142.5 26t-134.5 68.5t-56 111.5q0 40 25.5 66.5t64.5 26.5q40 0 61 -23.5t21 -60.5v-9l-2 -34v-9q0 -101 163 -118v657
q-130 49 -214.5 133t-84.5 203q0 85 40 154t109.5 115.5t149.5 64.5v168h58v-156q56 4 86 4q26 0 76 -4v156h57v-154q56 -3 121.5 -31.5t111 -74t45.5 -101.5q0 -40 -23.5 -66t-64.5 -26q-34 0 -55.5 24t-21.5 58q0 13 4 38t4 38q0 67 -121 92v-547q111 -63 173 -109
t104 -118.5t42 -171.5zM621 797v522q-27 2 -78 2q-56 0 -84 -2v-457zM401 887v416q-165 -67 -165 -211q0 -128 165 -205zM858 307q0 79 -46 131.5t-134 110.5v-502q83 30 131.5 99.5t48.5 160.5zM621 33v549l-162 73v-630q15 0 25 -0.5t22 -1.5h10q35 2 105 10z" />
    <glyph glyph-name="percent" unicode="%" horiz-adv-x="1843" 
d="M1659 403q0 -81 -25 -170t-72 -163t-118 -121t-160 -47q-135 0 -222 89.5t-87 223.5q0 85 32 171.5t89 156.5t133.5 111.5t163.5 41.5q85 0 144.5 -38.5t90.5 -104.5t31 -150zM1440 1497l-979 -1647h-84l866 1463l-4 4q-37 -21 -77 -38t-80.5 -26.5t-82.5 -9.5
q-66 0 -159 31q22 -62 22 -141q0 -104 -46 -219.5t-130 -193t-190 -77.5q-93 0 -164 42t-110.5 116t-39.5 166q0 106 55 218t150 183.5t205 71.5q64 0 105 -17.5t92 -53.5t94.5 -53.5t111.5 -17.5q200 0 377 199h68zM1593 418q0 42 -10.5 81.5t-32 71t-53.5 51t-78 19.5
q-64 0 -118.5 -52t-91.5 -129t-59 -162t-22 -142q0 -79 43 -139t119 -60q91 0 160.5 77t106 186.5t36.5 197.5zM797 1161q0 55 -17 106t-53.5 84t-93.5 33q-86 0 -153.5 -84.5t-105.5 -202t-38 -200.5q0 -79 42.5 -139t117.5 -60q94 0 162.5 77.5t103.5 187t35 198.5z" />
    <glyph glyph-name="ampersand" unicode="&#x26;" horiz-adv-x="1516" 
d="M1481 156q-66 -84 -139 -130t-171 -46q-73 0 -133 26t-110 65.5t-113 100.5q-178 -199 -424 -199q-74 0 -142.5 31t-111.5 88t-43 131q0 98 47 174.5t120.5 134t170.5 113.5q-143 201 -143 393q0 92 40 168.5t113 123t164 46.5q123 0 201 -73t78 -195q0 -77 -39.5 -150
t-100.5 -133t-135 -110l293 -348l107 178q27 46 57.5 96.5t61 87t73.5 60.5t94 24q59 0 103.5 -39.5t44.5 -97.5q0 -44 -31.5 -78.5t-75.5 -34.5q-42 0 -67 27.5t-25 71.5q1 6 1.5 11t0.5 15q0 35 -22 35q-26 0 -56 -34t-57 -79.5t-41 -70.5l-108 -187l-19 -28
q118 -118 190 -177t144 -59q51 0 89 27t79 73zM754 1090q0 57 -17 109.5t-55 87t-98 34.5q-83 0 -127.5 -55t-44.5 -138q0 -89 46.5 -180.5t119.5 -189.5q83 56 129.5 142.5t46.5 189.5zM776 211l-10 10l-307 381q-77 -69 -104.5 -96.5t-51.5 -76.5t-24 -112
q0 -101 64.5 -175t164.5 -74q72 0 142.5 40.5t125.5 102.5z" />
    <glyph glyph-name="quotesingle" unicode="'" horiz-adv-x="451" 
d="M313 1315v-8l-67 -402h-41l-68 402v8q0 31 27.5 56.5t60.5 25.5q35 0 61.5 -25.5t26.5 -56.5z" />
    <glyph glyph-name="parenleft" unicode="(" horiz-adv-x="901" 
d="M758 -356l-45 -41q-97 97 -174 199.5t-132 214.5t-86.5 237t-31.5 254q0 165 51 324t142 299.5t216 265.5l45 -39q-117 -158 -179.5 -275t-90 -250t-27.5 -317q0 -264 72 -477t240 -395z" />
    <glyph glyph-name="parenright" unicode=")" horiz-adv-x="901" 
d="M610 494q0 -152 -29.5 -268.5t-80.5 -210t-139 -208.5t-158 -204l-45 41q84 111 140.5 205t90 187t49 203.5t15.5 245.5q0 173 -30.5 324t-98.5 287.5t-181 261.5l43 39q95 -90 175 -197t134.5 -218.5t84.5 -235.5t30 -252z" />
    <glyph glyph-name="asterisk" unicode="*" horiz-adv-x="1024" 
d="M899 776q0 -32 -24 -55t-56 -23q-30 0 -48.5 14.5t-50 56t-56 68.5t-64.5 48q-47 28 -57 28q-13 0 -13 -39q1 -11 1.5 -20t0.5 -23q3 -51 15 -84t27 -68.5t16 -64.5q-2 -36 -21.5 -62t-56.5 -26q-33 0 -55.5 25.5t-22.5 58.5q0 21 7.5 43.5t21 54.5t21.5 62.5t8 69.5
q1 6 1.5 12t0.5 20q0 41 -13 41q-15 0 -45 -20q-44 -23 -72 -52t-56.5 -68.5t-50.5 -57t-52 -17.5t-55 23t-25 55q0 69 86 88q37 9 69.5 11.5t46.5 6.5t52 23q26 14 52 28.5t26 22.5q0 10 -78 50q-31 17 -105.5 29t-111.5 31.5t-37 68.5q0 32 24.5 54.5t55.5 22.5
t53.5 -17.5t42 -44t53 -65t70.5 -61.5q14 -7 33 -17t24 -10q13 0 13 33q0 12 -0.5 17.5t-1.5 11.5q0 64 -9.5 93.5t-29 74t-19.5 73.5q0 35 22 59.5t56 24.5t56 -24.5t22 -59.5q0 -30 -29 -100t-29 -129q0 -6 -0.5 -14t-1.5 -19q0 -41 13 -41q9 0 67 33q36 21 57.5 44.5
t51.5 65t49.5 57t50.5 15.5q33 0 56.5 -22.5t23.5 -52.5q0 -52 -31 -67.5t-111 -30.5t-126 -42q-64 -30 -64 -41q0 -5 11 -13t26 -16t37 -20q37 -21 116 -35t110.5 -30t31.5 -66z" />
    <glyph glyph-name="plus" unicode="+" 
d="M997 473h-417v-473h-95v473h-417v94h417v467h95v-467h417v-94z" />
    <glyph glyph-name="comma" unicode="," horiz-adv-x="532" 
d="M412 33q0 -88 -34 -148t-78 -93.5t-155 -106.5l-22 39q92 65 147.5 127.5t55.5 138.5q0 16 -2 24q-33 -22 -64 -22q-46 0 -77 29.5t-31 76.5q0 49 33 80t79 31q68 0 108 -52.5t40 -123.5z" />
    <glyph glyph-name="hyphen" unicode="-" horiz-adv-x="492" 
d="M494 391h-494v137h494v-137z" />
    <glyph glyph-name="period" unicode="." horiz-adv-x="532" 
d="M383 94q0 -49 -34 -85t-83 -36q-46 0 -81 34t-35 81t32 83t78 36q51 0 87 -32t36 -81z" />
    <glyph glyph-name="slash" unicode="/" horiz-adv-x="1188" 
d="M1065 1397l-903 -1673h-86l897 1673h92z" />
    <glyph glyph-name="zero" unicode="0" 
d="M987 688q0 -108 -27 -230.5t-83.5 -232t-148.5 -181t-212 -71.5q-107 0 -191 69.5t-138 176t-81.5 225.5t-27.5 213q0 142 50.5 311t155 288.5t257.5 119.5q114 0 199.5 -67.5t139 -172t80.5 -225t27 -223.5zM784 823q0 118 -19.5 231.5t-72.5 194t-143 80.5
q-109 0 -160.5 -85.5t-75.5 -215.5l-30 -407q-4 -54 -4 -103q0 -120 19.5 -231t72.5 -189t145 -78q117 0 173 97t65 225l28 401q2 23 2 80z" />
    <glyph glyph-name="one" unicode="1" 
d="M846 -4q-53 1 -141.5 4.5t-165.5 3.5q-36 0 -96.5 -1.5t-104 -3t-113.5 -3.5v47q14 1 56.5 2t68.5 4.5t52 14.5t34 28q19 39 19 207v4v729q0 144 -23 182q-20 37 -129 37h-119v41q60 4 122 9.5t119 17.5t108.5 30.5t103.5 47.5v-1094v-8q0 -137 14 -191q8 -29 40.5 -42
t81.5 -15.5t73 -3.5v-47z" />
    <glyph glyph-name="two" unicode="2" 
d="M967 993q0 -108 -45.5 -194.5t-106.5 -142.5t-186 -152q-81 -62 -137.5 -108.5t-112.5 -103.5t-100 -118h665l-57 -289h-45l4 74v6q0 21 -9 28t-28 7h-23h-591h-105q53 100 131 195.5t180 199.5q89 87 145.5 146t107 131.5t79.5 154t29 179.5q0 85 -29 158.5t-89.5 119
t-147.5 45.5q-108 0 -180 -65t-72 -172q0 -49 22 -97t64 -78t94 -30q60 0 115 59q-7 -67 -66.5 -110t-130.5 -43q-107 0 -171.5 72t-64.5 182q0 156 126 242.5t288 86.5q120 0 222 -43.5t163.5 -129.5t61.5 -210z" />
    <glyph glyph-name="three" unicode="3" 
d="M981 440q0 -104 -46 -190.5t-125.5 -149t-175 -95t-198.5 -32.5q-69 0 -146.5 19.5t-132.5 63.5t-55 114q0 33 27.5 56.5t60.5 23.5q55 0 73.5 -26t40 -84.5t59.5 -89t122 -30.5q106 0 171 51.5t92.5 135t27.5 188.5q0 138 -45.5 226t-171.5 88q-63 0 -86.5 -21t-67 -74
t-77.5 -53q-17 0 -28 11t-11 26q0 22 20.5 42t48.5 36t45 26q100 64 159 111.5t96.5 117t37.5 165.5q0 97 -47.5 156t-146.5 59q-92 0 -154.5 -50.5t-62.5 -136.5q0 -56 35 -99.5t90 -43.5q59 0 120 49q-13 -43 -41 -72t-67 -44t-84 -15q-49 0 -91 22t-65.5 62t-23.5 88
q0 72 36 130.5t94 96.5t127.5 58t139.5 20q84 0 162.5 -28t127 -87t48.5 -147q0 -128 -90.5 -207t-245.5 -151l4 -4q7 1 19.5 1.5l25 1t19.5 1.5q97 0 179 -35.5t129.5 -107.5t47.5 -173z" />
    <glyph glyph-name="four" unicode="4" 
d="M1034 438h-237v-133v-6q0 -41 1 -73t4 -62.5t11 -59.5q11 -34 43.5 -46t75.5 -13.5t76 -1.5v-47q-51 1 -134.5 4.5t-154.5 3.5q-79 0 -170 -3.5t-143 -4.5v47q71 3 116.5 8t63.5 27q37 41 37 227v133h-547v72l672 874h49v-872h237v-74zM623 512v612h-5l-464 -612h469z
" />
    <glyph glyph-name="five" unicode="5" 
d="M961 483q0 -148 -76.5 -265.5t-203.5 -181t-275 -63.5q-111 0 -219.5 48t-108.5 145q0 35 24.5 60.5t61.5 25.5q49 0 66 -26t38 -85t57.5 -90t112.5 -31q176 0 247 130t71 323q0 90 -21.5 161t-75.5 116t-143 45q-44 0 -100 -20.5t-98 -58t-42 -83.5q0 -4 2.5 -22.5
t2.5 -35.5q0 -59 -39 -59q-23 0 -37.5 15.5t-14.5 37.5v4l31 824q38 -37 90 -65t108.5 -42t108.5 -14q68 0 121.5 15t98.5 45t96 81q-15 -100 -68.5 -169t-137.5 -104.5t-183 -35.5q-88 0 -193 27l-8 -416l4 -4q31 44 83.5 78.5t112 50.5t121.5 16q86 0 156 -27t121.5 -77
t80 -120.5t28.5 -152.5z" />
    <glyph glyph-name="six" unicode="6" 
d="M1014 444q0 -91 -34 -176.5t-96 -152.5t-144 -104.5t-177 -37.5q-157 0 -262 91.5t-153 232.5t-48 293q0 136 29 272.5t92 252.5t169 188.5t253 72.5q51 0 114 -16.5t106.5 -52t43.5 -90.5q0 -36 -24.5 -62.5t-61.5 -26.5q-42 0 -63.5 24t-44.5 71.5t-50.5 72.5t-78.5 25
q-98 0 -155.5 -65t-82 -164t-31.5 -207.5t-10 -184.5l4 -4q63 87 134.5 132.5t170.5 45.5q117 0 209 -58.5t141.5 -157t49.5 -214.5zM809 426q0 172 -43 277.5t-188 105.5q-152 0 -273 -195v-120q0 -117 16.5 -220t74.5 -178.5t167 -75.5q148 0 197 117t49 289z" />
    <glyph glyph-name="seven" unicode="7" 
d="M1014 1309q-266 -514 -393 -1080q-29 -125 -54.5 -190.5t-97.5 -65.5q-41 0 -69.5 30t-28.5 71q0 55 50 173t114 243.5t114 218.5l244 460h-453h-43q-75 0 -108.5 -8.5t-54.5 -38.5t-48 -110l-22 -70h-49l118 561h54l-4 -20q-13 -75 -13 -84q0 -34 18.5 -45t59.5 -11h62
h604v-34z" />
    <glyph glyph-name="eight" unicode="8" 
d="M981 371q0 -119 -62.5 -210t-166.5 -139.5t-222 -48.5q-104 0 -207.5 38t-171 114t-67.5 184q0 131 80 222t215 157q-115 61 -181.5 141.5t-66.5 196.5q0 70 30.5 135.5t84.5 116.5q109 98 284 98q156 0 265 -73q60 -41 97.5 -102.5t37.5 -133.5q0 -76 -29 -133.5
t-78 -100t-118 -83.5q276 -141 276 -379zM791 1038q0 84 -32 150t-91.5 103.5t-143.5 37.5q-109 0 -185.5 -61t-76.5 -166q0 -68 37 -118.5t91.5 -82.5t131.5 -67l140 -66q129 131 129 270zM846 295q0 78 -36.5 132t-89 87.5t-138.5 75.5l-156 76q-95 -51 -142.5 -142
t-47.5 -205q0 -95 38 -162.5t108 -102t165 -34.5q80 0 148.5 34.5t109.5 97t41 143.5z" />
    <glyph glyph-name="nine" unicode="9" 
d="M975 760q0 -182 -54 -364t-175.5 -302.5t-313.5 -120.5q-91 0 -177.5 41t-86.5 119q0 36 24 62t62 26q42 0 63.5 -24t46.5 -72t51 -72t77 -24q99 0 156 65.5t81.5 163t31 214t9.5 181.5h-4q-64 -87 -136 -131.5t-169 -44.5q-118 0 -210 58t-142 155t-50 215
q0 93 33.5 177t95.5 151t145 105t179 38q121 0 211 -55t145 -144.5t81 -197.5t26 -219zM770 735v119q0 117 -16.5 221t-73.5 179t-168 75q-103 0 -158 -60.5t-72.5 -150t-17.5 -194.5q0 -75 6.5 -137.5t29 -119t71 -90.5t125.5 -34q84 0 154 54.5t120 137.5z" />
    <glyph glyph-name="colon" unicode=":" horiz-adv-x="532" 
d="M383 782q0 -48 -33.5 -84t-83.5 -36q-46 0 -81 33.5t-35 80.5t32 83t78 36q51 0 87 -32t36 -81zM383 94q0 -49 -34 -85t-83 -36q-46 0 -81 34t-35 81t32 83t78 36q51 0 87 -32t36 -81z" />
    <glyph glyph-name="semicolon" unicode=";" horiz-adv-x="532" 
d="M387 782q0 -48 -33.5 -84t-83.5 -36q-46 0 -81 33.5t-35 80.5t32 83t78 36q51 0 87 -32t36 -81zM412 27q0 -67 -20 -117.5t-56 -88.5t-95.5 -78.5t-95.5 -64.5l-22 39q89 64 146 127.5t57 139.5q0 16 -2 24q-33 -22 -64 -22q-46 0 -77 29.5t-31 76.5q0 49 33 80t79 31
q68 0 108 -52.5t40 -123.5z" />
    <glyph glyph-name="less" unicode="&#x3c;" 
d="M1001 -41l-938 475v131l938 475v-108l-851 -432l851 -437v-104z" />
    <glyph glyph-name="equal" unicode="=" 
d="M997 641h-929v94h929v-94zM997 301h-929v94h929v-94z" />
    <glyph glyph-name="greater" unicode="&#x3e;" 
d="M1001 434l-938 -475v104l852 437l-852 432v108l938 -475v-131z" />
    <glyph glyph-name="question" unicode="?" horiz-adv-x="819" 
d="M694 877q0 -178 -113.5 -259t-297.5 -81v-207h-56v383h125q80 0 142 21.5t98.5 71.5t36.5 130q0 73 -30.5 139t-87.5 108t-130 42q-31 0 -94 -11.5t-86 -11.5q-42 0 -73.5 21t-31.5 61q0 46 34 69t83 23q125 0 236 -71t178 -188t67 -240zM383 94q0 -49 -34 -85t-83 -36
q-46 0 -81 34t-35 81t32 83t78 36q51 0 87 -32t36 -81z" />
    <glyph glyph-name="at" unicode="@" horiz-adv-x="1679" 
d="M1556 788q0 -63 -18 -129t-48.5 -123.5t-74.5 -109.5q-65 -75 -158.5 -121.5t-193.5 -46.5q-58 0 -109.5 28t-58.5 79q-52 -48 -118 -77.5t-130 -29.5q-112 0 -179 77.5t-67 184.5q0 93 32.5 191t96 184t151 138t193.5 52q42 0 86.5 -12.5t76.5 -38t42 -63.5h4l25 86h174
l-192 -518q-52 -128 -52 -177q0 -43 52 -43q55 0 123 30.5t112 68.5q166 139 166 375q0 99 -43 192.5t-123 166.5t-194 116t-254 43q-178 0 -322.5 -84.5t-225.5 -230t-81 -312.5q0 -175 78 -322t220.5 -235t325.5 -88q130 0 244 41.5t205 117.5t147 173h68
q-50 -121 -154 -211.5t-239 -138.5t-273 -48q-204 0 -376 94.5t-271.5 256.5t-99.5 352q0 139 58 267.5t160 225t237 152t288 55.5q187 0 344.5 -73.5t251.5 -207.5t94 -307zM1040 897q0 55 -31.5 94t-90.5 39q-76 0 -142 -66.5t-113.5 -165t-74.5 -204t-27 -168.5
q0 -48 32.5 -80.5t84.5 -32.5q151 0 244 246l102 279q16 40 16 59z" />
    <glyph glyph-name="A" unicode="A" horiz-adv-x="1352" 
d="M1399 -4q-48 1 -133 4.5t-158 3.5q-74 0 -160 -3.5t-137 -4.5v47q73 3 115.5 14.5t42.5 63.5q0 51 -41 160l-80 211h-506l-18 -52q-14 -35 -39.5 -99t-42.5 -120t-17 -90q0 -30 15 -47.5t38.5 -25t55.5 -10.5t57 -5v-47q-36 1 -102 4.5t-123 3.5q-53 0 -115 -3.5
t-98 -4.5v47q82 9 123 40t74 105q31 75 60.5 139t56.5 125.5t52 127.5l314 804h69l414 -1040q14 -34 33.5 -81t37 -83t36.5 -61q32 -41 70.5 -54.5t105.5 -21.5v-47zM821 557l-225 578l-227 -578h452z" />
    <glyph glyph-name="B" unicode="B" horiz-adv-x="1311" 
d="M1247 346q0 -96 -53.5 -172t-144.5 -125q-64 -33 -141.5 -43t-170.5 -10h-65q-44 0 -134 4t-135 4q-86 0 -186 -3.5t-160 -4.5v47h11q64 0 106.5 12.5t56.5 57.5q11 32 15 108.5t4 163.5v578q0 217 -19 272q-15 46 -55.5 58t-107.5 12h-11v47q48 -1 146.5 -5t146.5 -4
q42 0 123.5 4t120.5 5h31q87 0 168 -14t151.5 -50.5t112 -100t41.5 -157.5q0 -87 -42 -148.5t-107.5 -98.5t-157.5 -66v-4q73 -8 119.5 -16t94.5 -25.5t85 -42.5q74 -51 115.5 -122.5t41.5 -160.5zM874 1020q0 137 -70.5 204.5t-209.5 67.5h-43q-65 0 -78 -10
q-12 -12 -12 -70v-16v-461h65h49q63 0 107.5 8.5t87.5 34.5q60 37 82 97t22 145zM991 365q0 193 -147 272q-82 43 -250 43h-70h-63v-285q0 -83 4 -150.5t20 -107.5q22 -55 74.5 -70.5t130.5 -15.5h10q99 0 163.5 37t96 107.5t31.5 169.5z" />
    <glyph glyph-name="C" unicode="C" horiz-adv-x="1393" 
d="M1323 23h-27l-49 104q-66 -53 -137 -87.5t-148 -50.5t-167 -16q-153 0 -282.5 48t-223 139.5t-143.5 218.5t-50 280t53 285.5t150 229.5t228.5 149.5t285.5 52.5q122 0 213 -28.5t203 -98.5l33 97h30l17 -404h-47q-12 85 -48 156.5t-92.5 123t-131 79.5t-161.5 28
q-132 0 -225 -58.5t-148.5 -156t-79.5 -214.5t-24 -241q0 -169 47.5 -313t155.5 -235t279 -91q103 0 180 35t128 95.5t85 140t59 180.5h37v-448z" />
    <glyph glyph-name="D" unicode="D" horiz-adv-x="1516" 
d="M1407 645q0 -157 -48 -279t-138.5 -204.5t-214.5 -124t-279 -41.5h-27q-60 1 -166 4.5t-198 3.5q-69 0 -150.5 -3.5t-128.5 -4.5v47q71 0 115.5 12.5t58.5 57.5q11 32 15 108.5t4 163.5v573q0 218 -19 273q-14 45 -55 57t-108 12h-11v52q42 -1 129 -5t129 -4
q56 0 167.5 4t164.5 5h19q211 0 380.5 -85.5t265 -247t95.5 -374.5zM1151 612q0 333 -122.5 508.5t-432.5 175.5h-35q-74 0 -88 -14q-12 -12 -12 -63v-863v-63q0 -115 33 -164q32 -46 92.5 -62t136.5 -16q171 0 265 73.5t128.5 197t34.5 290.5z" />
    <glyph glyph-name="E" unicode="E" horiz-adv-x="1270" 
d="M1186 330l-19 -330h-1114v47q71 0 115 12t61 58q21 53 21 266v2v4v565v7q0 213 -21 266q-17 46 -61 57.5t-115 11.5v56h1018v-310h-47q-19 116 -61.5 170.5t-110.5 69t-190 14.5h-148h-25q-22 0 -26 -8q-2 -4 -2 -22v-54v-485h39q167 0 225.5 64t69.5 188h47
q-1 -40 -2.5 -80t-3.5 -87t-2 -73v-39v-30q0 -24 2 -68t3.5 -81.5t2.5 -74.5h-47q-15 105 -54.5 153t-101.5 60.5t-178 12.5v-336q0 -158 37 -207q55 -74 237 -74h25q120 2 195.5 21.5t123 78t60.5 175.5h47z" />
    <glyph glyph-name="F" unicode="F" horiz-adv-x="1106" 
d="M1096 1030h-47q-24 88 -50 138t-88 75q-53 23 -119.5 30t-164.5 7v0h-19h-78q-49 0 -67 -10q-17 -11 -17 -105v-458h41q115 0 177.5 31t85.5 83.5t30 132.5h47q-1 -27 -2.5 -73t-3.5 -92.5t-2 -73.5v-39v-31q0 -24 2 -67.5t3.5 -81t2.5 -74.5h-47q-13 102 -53 149
t-100 58.5t-181 11.5v-258v-2q0 -213 21 -268q12 -30 32.5 -43.5t46.5 -18.5t66 -6t58 -2v-47q-52 1 -144.5 4.5t-171.5 3.5q-78 0 -168.5 -3.5t-146.5 -4.5v47q70 0 114.5 12.5t61.5 57.5q21 53 21 266v2v4v578v6q0 213 -21 266q-18 47 -62 58.5t-114 11.5v47q63 -1 185 -5
t182 -4q83 1 165 2t164 2.5t178 3t150 1.5z" />
    <glyph glyph-name="G" unicode="G" horiz-adv-x="1516" 
d="M1522 510h-6q-74 0 -97.5 -36t-23.5 -120v-217q-72 0 -111 -6.5t-69 -21.5t-109 -58q-78 -41 -156.5 -59.5t-165.5 -18.5q-198 0 -355 82.5t-245 235.5t-88 350q0 206 90 374.5t254 264.5t373 96q254 0 426 -129l43 92h23l-23 -405h-43q-11 175 -118.5 285t-282.5 110
q-142 0 -238.5 -59.5t-151 -160t-75.5 -221t-21 -251.5q0 -164 46 -301t151 -222t270 -85q159 0 250.5 77t91.5 230q0 98 -38 132t-138 42v47h537v-47z" />
    <glyph glyph-name="H" unicode="H" horiz-adv-x="1679" 
d="M1614 -4q-49 1 -135.5 4.5t-161.5 3.5q-77 0 -166.5 -3.5t-140.5 -4.5v47q70 0 114.5 12.5t61.5 57.5q20 53 20 266v2v4v274h-731v-274v-6q0 -213 21 -266q17 -45 61.5 -57.5t114.5 -12.5v-47q-49 1 -135.5 4.5t-161.5 3.5q-77 0 -167 -3.5t-140 -4.5v47q70 0 114.5 12.5
t61.5 57.5q20 53 20 266v2v4v578v6q0 213 -20 266q-18 47 -62 58.5t-114 11.5v47q50 -1 146.5 -5t145.5 -4q52 0 156 4t156 5v-47q-70 0 -114 -11.5t-62 -58.5q-21 -53 -21 -266v-6v-238h731v238v6q0 213 -20 266q-18 47 -62 58.5t-114 11.5v47q52 -1 150.5 -5t148.5 -4
q52 0 153 4t152 5v-47q-70 0 -114 -11.5t-62 -58.5q-21 -53 -21 -266v-6v-578v-6q0 -213 21 -266q17 -45 61.5 -57.5t114.5 -12.5v-47z" />
    <glyph glyph-name="I" unicode="I" horiz-adv-x="737" 
d="M672 -4q-50 1 -135 4.5t-160 3.5q-77 0 -166.5 -3.5t-142.5 -4.5v47q70 0 114.5 12.5t61.5 57.5q20 53 20 266v2v4v578v6q0 213 -20 266q-18 47 -62 58.5t-114 11.5v47q49 -1 147 -5t147 -4q52 0 154.5 4t155.5 5v-47q-70 0 -114 -11.5t-62 -58.5q-21 -53 -21 -266v-6
v-578v-6q0 -213 21 -266q17 -45 61.5 -57.5t114.5 -12.5v-47z" />
    <glyph glyph-name="J" unicode="J" horiz-adv-x="696" 
d="M651 1305q-69 0 -111.5 -12t-64.5 -58q-20 -45 -20 -227v-1096q0 -185 -70 -289q-61 -91 -150.5 -126.5t-211.5 -35.5q-65 0 -137.5 10.5t-128.5 45t-56 94.5q0 36 24.5 58t59.5 22q68 0 102 -86q24 -54 53 -76.5t85 -22.5q170 0 206 172q13 54 13 134v1302q0 69 -21 121
q-19 48 -62.5 59t-113.5 11v47q49 -1 148 -5t147 -4q50 0 152.5 4t156.5 5v-47z" />
    <glyph glyph-name="K" unicode="K" horiz-adv-x="1352" 
d="M1464 -4q-52 1 -148 4.5t-177 3.5q-78 0 -169.5 -3.5t-142.5 -4.5v47h23q149 0 149 61q0 38 -161 234l-250 301l-127 -133v-242q0 -105 10 -144.5t49 -54t144 -22.5v-47q-50 1 -136.5 4.5t-162.5 3.5q-78 0 -169.5 -3.5t-142.5 -4.5v47q71 0 115 12t61 58q21 53 21 266v2
v4v578v6q0 213 -21 266q-18 48 -61.5 59t-114.5 11v47q48 -1 146.5 -5t146.5 -4q53 0 159 4t159 5v-47q-107 -10 -145 -24t-48 -54t-10 -144v-499q72 75 189.5 205.5t210.5 256t93 177.5q0 30 -14.5 47.5t-36.5 23.5t-54 8l-48 3v47q43 -1 122.5 -5t120.5 -4q37 0 106.5 4
t106.5 5v-47q-58 -2 -88.5 -12t-54.5 -32t-63 -71l-328 -406l285 -327q4 -4 45 -56t109 -134t107 -124.5t74 -68.5q22 -16 39 -21t36 -6.5t46 -3.5v-47z" />
    <glyph glyph-name="L" unicode="L" horiz-adv-x="1270" 
d="M1237 358l-18 -362q-74 4 -107 8q-176 -3 -485 -4.5t-574 -3.5v47q71 0 115 12t61 58q21 53 21 266v2v4v578v6q0 213 -21 266q-18 48 -61.5 59t-114.5 11v47q48 -1 146.5 -5t146.5 -4q52 0 156.5 4t154.5 5v-47q-70 0 -113.5 -11t-62.5 -59q-20 -53 -20 -266v-6v-607
q0 -135 21 -198t83 -85t197 -22h29q84 0 147.5 9.5t114.5 41.5q49 32 74 68t37 79t22 109h51z" />
    <glyph glyph-name="M" unicode="M" horiz-adv-x="1802" 
d="M1745 -4q-55 1 -143.5 4.5t-163.5 3.5q-77 0 -168.5 -3.5t-141.5 -4.5v47q105 8 144 22.5t49 54t10 144.5v893h-4l-233 -571q-29 -70 -63 -151.5t-59 -137.5t-51 -113.5t-83 -187.5h-21l-498 1161h-4v-862q0 -88 15 -139.5t58.5 -80t123.5 -32.5v-47q-38 1 -104.5 4.5
t-122.5 3.5q-54 0 -117.5 -3.5t-97.5 -4.5v47q106 0 145 51.5t39 134.5v873q0 84 -18 133q-18 47 -62 58.5t-115 11.5v47q158 -9 207 -9q45 0 189 9l450 -1049l438 1049q144 -9 193 -9q41 0 203 9v-49q-65 0 -110.5 -13t-65.5 -57q-21 -45 -21 -227v-742q0 -105 10 -144.5
t49 -54t144 -22.5v-47z" />
    <glyph glyph-name="N" unicode="N" horiz-adv-x="1556" 
d="M1511 1305q-79 -9 -108.5 -21t-46.5 -70q-15 -47 -20 -154.5t-5 -203.5v-883h-61q-62 79 -86.5 111t-48.5 59l-801 971h-4v-688q0 -229 30 -299q13 -28 31.5 -44.5t41.5 -24t51 -10.5t55 -5v-47q-37 1 -106.5 4.5t-129.5 3.5q-57 0 -122 -3.5t-105 -4.5v47
q82 8 122.5 24.5t53.5 75.5q10 46 13 113.5t3 159.5v0v10v756q-47 68 -93.5 95t-129.5 28v47q33 -1 98 -5t97 -4q27 0 81 4t80 5l865 -1055h4v569q0 102 -4 185.5t-15 130.5q-16 77 -48.5 92t-133.5 31v47q40 -1 113.5 -5t111.5 -4q37 0 107.5 4t109.5 5v-47z" />
    <glyph glyph-name="O" unicode="O" horiz-adv-x="1679" 
d="M1583 684q0 -206 -99 -368.5t-269.5 -252.5t-374.5 -90q-147 0 -282.5 50.5t-239.5 144.5t-163 223.5t-59 278.5q0 150 60.5 279t167.5 226t243 149t281 52q193 0 362.5 -88.5t271 -248t101.5 -355.5zM1327 676q0 123 -26.5 237t-84 206t-152 147t-224.5 55
q-126 0 -220.5 -56t-153.5 -151t-86.5 -208.5t-27.5 -235.5q0 -272 121 -456.5t379 -184.5q130 0 223 55t148 148t79.5 208t24.5 236z" />
    <glyph glyph-name="P" unicode="P" horiz-adv-x="1188" 
d="M1130 997q0 -107 -45.5 -179.5t-124.5 -115t-172 -59t-190 -16.5q-14 0 -39 1.5t-46.5 2.5t-32 1.5t-19.5 0.5v-248q0 -217 20 -272q11 -29 30 -42.5t51.5 -19.5t60 -6.5t55.5 -1.5v-47q-55 1 -147 4.5t-173 3.5q-74 0 -161.5 -3.5t-139.5 -4.5v47q71 0 115.5 12.5
t58.5 57.5q11 32 15 108.5t4 163.5v576v6q0 88 -4 163.5t-15 104.5q-15 46 -55 58t-108 12v0h-11v47q51 -1 154.5 -5t155.5 -4q46 0 127.5 4.5t140.5 4.5h24q120 -2 227.5 -38.5t175.5 -115t68 -201.5zM895 991q0 152 -72 226.5t-221 74.5h-2q-104 0 -125 -12
q-14 -9 -14 -55v-29v-508q20 -1 40 -2.5t43 -3.5t36 -2q160 0 237.5 74t77.5 237z" />
    <glyph glyph-name="Q" unicode="Q" horiz-adv-x="1638" 
d="M1772 -188v-25q0 -84 -48.5 -154t-129 -108.5t-167.5 -38.5q-114 0 -206.5 44t-207.5 131t-184 127t-151 40q-51 0 -88 -18t-94 -53.5t-78 -35.5q-18 0 -28.5 13t-10.5 30q0 50 149 89l207 116q-139 36 -251.5 92t-201 142t-137.5 199t-49 255q0 203 104.5 367.5
t279.5 258t376 93.5q144 0 277 -49t235.5 -139.5t161.5 -217t59 -272.5q0 -134 -51.5 -256t-144.5 -220t-213 -163q-65 -34 -114.5 -48.5t-139 -33.5t-141 -36t-111.5 -58v-4q27 0 71 4q95 0 180 -22t206.5 -67t195.5 -65t164 -20q75 0 125 18.5t77.5 42.5t44.5 47t21 23
q13 0 13 -28zM1333 659q0 117 -26 233t-83 214t-150 156.5t-220 58.5q-172 0 -285.5 -92t-165 -240.5t-51.5 -314.5q0 -165 49 -315t158.5 -244.5t282.5 -94.5q125 0 218.5 55t153.5 148.5t89.5 205t29.5 230.5z" />
    <glyph glyph-name="R" unicode="R" horiz-adv-x="1352" 
d="M1403 -4q-33 1 -85.5 4.5t-98.5 3.5q-39 0 -84.5 -3.5t-69.5 -4.5l-96 119l-340 422q-49 59 -58.5 68.5t-32 15.5t-77.5 6v-242v-6q0 -87 4 -161t14 -105q11 -32 35.5 -47t54.5 -19t74 -4h10v-47q-45 1 -129.5 4.5t-158.5 3.5q-77 0 -166.5 -3.5t-141.5 -4.5v47
q71 0 115.5 12.5t58.5 57.5q11 32 15 108.5t4 163.5v578q0 217 -19 272q-15 46 -55.5 58t-107.5 12h-11v47q59 -1 127 -3.5t127.5 -4t98.5 -1.5q44 0 123.5 4.5t136.5 4.5h8q207 0 334 -72.5t127 -265.5q0 -158 -105 -248t-266 -104l434 -498q54 -62 90.5 -86t110.5 -35v-47
zM903 985q0 92 -33.5 161t-98.5 107.5t-155 38.5q-18 1 -34.5 1.5t-51.5 0.5q-38 0 -47 -4q-22 -11 -22 -55v-18v-535q156 0 245 15.5t143 82t54 205.5z" />
    <glyph glyph-name="S" unicode="S" 
d="M1012 371q0 -126 -70 -217t-182.5 -136t-237.5 -45q-103 0 -188 30t-170 93l-49 -86h-23v400h47q35 -172 129 -276.5t258 -104.5q80 0 147.5 30t106.5 88.5t39 137.5q0 66 -26.5 118t-68.5 86.5t-97.5 63t-118.5 51.5q-111 43 -194 92t-137 126.5t-54 185.5
q0 113 53.5 196.5t146.5 127.5t205 44q161 0 310 -104l47 80h22l11 -355h-48q-90 324 -342 324q-101 0 -170 -59.5t-69 -157.5q0 -75 38.5 -125t85.5 -76t148 -69q143 -60 234 -112.5t154 -139.5t63 -211z" />
    <glyph glyph-name="T" unicode="T" horiz-adv-x="1352" 
d="M1319 1032h-55q-6 98 -36 154t-89 78t-158 22h-59q-66 0 -103 -11t-37 -44v-971q0 -58 8 -98t32.5 -65t69 -38t118.5 -16v-47q-56 1 -155.5 4.5t-184.5 3.5q-81 0 -175.5 -3.5t-150.5 -4.5v47q98 4 147 26t64.5 65.5t15.5 125.5v971q0 34 -33.5 44.5t-97.5 10.5h-41
q-119 0 -178.5 -14t-93 -67.5t-37.5 -172.5h-47v320h1257z" />
    <glyph glyph-name="U" unicode="U" horiz-adv-x="1597" 
d="M1528 1305q-71 -2 -108.5 -13.5t-57.5 -60.5q-29 -74 -29 -313v-379q0 -191 -53 -315.5t-171 -187.5t-310 -63q-140 0 -242 26.5t-169.5 86t-100.5 154t-33 233.5v490v6q0 213 -21 266q-18 48 -61.5 59t-114.5 11v47q47 -1 145.5 -5t145.5 -4q52 0 156.5 4t154.5 5v-47
h-10q-68 0 -109 -12t-57 -58q-8 -24 -12 -70t-5 -94.5t-1 -101.5v-6v-504q0 -136 37.5 -226.5t123.5 -138t222 -47.5q210 0 317 107.5t107 314.5v449v8q0 223 -21 284q-19 59 -66.5 77t-123.5 18v47q42 -1 119.5 -5t117.5 -4q38 0 115.5 4t114.5 5v-47z" />
    <glyph glyph-name="V" unicode="V" horiz-adv-x="1311" 
d="M1370 1305q-62 0 -105 -26.5t-70 -71t-54 -116.5t-37 -98l-416 -1034h-61l-441 1094q-13 33 -35 87.5t-46 87.5t-65.5 54.5t-100.5 22.5v47q48 -1 144 -5t144 -4q51 0 151 4t150 5v-47q-69 0 -114 -15t-45 -69q0 -46 52 -194t103 -277l209 -521l195 476q14 32 41.5 106
t51.5 148t42 143.5t18 101.5q0 66 -37.5 83.5t-113.5 17.5v0h-8v47q37 -1 115.5 -5t117.5 -4q37 0 108 4t107 5v-47z" />
    <glyph glyph-name="W" unicode="W" horiz-adv-x="1843" 
d="M1886 1305h-6q-51 0 -86 -24.5t-55.5 -63.5t-37.5 -93t-28 -90l-338 -1075h-71l-320 1047h-4l-162 -557q-27 -93 -94 -280.5t-74 -209.5h-69l-359 1102q-10 32 -21.5 67t-27.5 72.5t-27 50.5q-24 30 -60 40.5t-87 13.5v47q49 -1 148 -5t147 -4q51 0 152 4t151 5v-47
q-87 -8 -135.5 -23.5t-48.5 -77.5q0 -52 61 -250l215 -702h4l322 1100h65l336 -1084h4l140 447q21 69 46 160t43.5 173.5t18.5 118.5q0 85 -39 106.5t-137 31.5v47q39 -1 111.5 -5t109.5 -4t106.5 4t106.5 5v-47z" />
    <glyph glyph-name="X" unicode="X" horiz-adv-x="1516" 
d="M1489 -4q-46 1 -131.5 4.5t-157.5 3.5q-77 0 -166.5 -3.5t-142.5 -4.5v47q9 2 53.5 2.5t72 8.5t27.5 30q0 42 -108 180l-246 320l-137 -174q-47 -62 -81 -109t-63.5 -102.5t-29.5 -87.5q0 -27 16.5 -40.5t45 -19t58 -6.5t40.5 -2v-47q-39 1 -112 4.5t-136 3.5
q-60 0 -130 -3.5t-110 -4.5v47q65 6 113.5 28.5t81 54.5t82.5 95l321 410l-422 536q-50 62 -67.5 81t-50 36.5t-80.5 20.5v47q48 -1 140.5 -5t137.5 -4q50 0 152.5 4t150.5 5v-47q-77 -3 -114 -10.5t-37 -45.5q0 -35 71 -129l263 -336l81 113q13 17 62 83.5t68.5 95t42 74
t22.5 73.5q0 38 -21.5 52.5t-72 21.5t-53.5 8v47q43 -1 123.5 -5t121.5 -4q37 0 106.5 4t106.5 5v-47q-50 -8 -81 -17t-60 -33q-28 -22 -75.5 -83.5t-86.5 -114.5l-250 -320l453 -569q49 -62 91 -93.5t102 -31.5h16v-47z" />
    <glyph glyph-name="Y" unicode="Y" 
d="M1202 1305q-57 -6 -94 -30t-63 -59t-60 -94l-354 -585v-273q0 -105 10 -144.5t49 -54t144 -22.5v-47q-53 1 -141.5 4.5t-166.5 3.5q-77 0 -169 -3.5t-144 -4.5v47q81 6 120.5 15.5t58 29t23.5 55.5t5 121v254l-189 326q-66 127 -137.5 254t-111.5 170q-15 15 -33 22
t-44.5 9.5t-41.5 5.5v47q48 -1 140.5 -5t137.5 -4q49 0 145 4t144 5v-47h-16q-138 0 -138 -66q0 -24 7.5 -47.5t21 -48t25.5 -47.5l266 -494l131 209q203 325 203 408q0 50 -39.5 64.5t-108.5 21.5v47q39 -1 110.5 -5t108.5 -4q35 0 100.5 4t100.5 5v-47z" />
    <glyph glyph-name="Z" unicode="Z" horiz-adv-x="1229" 
d="M1153 373l-31 -373h-1050l784 1296h-297q-127 0 -198 -16.5t-116.5 -75t-62.5 -180.5h-55l20 328h975l-780 -1297h346q145 0 220 22t118 88t72 208h55z" />
    <glyph glyph-name="bracketleft" unicode="[" horiz-adv-x="901" 
d="M754 -307h-432v1704h432v-66h-297v-1573h297v-65z" />
    <glyph glyph-name="backslash" unicode="\" horiz-adv-x="532" 
d="M762 -276h-86l-903 1673h92z" />
    <glyph glyph-name="bracketright" unicode="]" horiz-adv-x="901" 
d="M580 -307h-433v65h297v1573h-297v66h433v-1704z" />
    <glyph glyph-name="asciicircum" unicode="^" 
d="M995 514h-104l-359 727l-366 -727h-96l391 829h143z" />
    <glyph glyph-name="underscore" unicode="_" horiz-adv-x="1024" 
d="M1024 -256h-1024v102h1024v-102z" />
    <glyph glyph-name="grave" unicode="`" horiz-adv-x="737" 
d="M616 1085h-75l-277 119q-6 3 -36.5 15.5t-49.5 25t-31 30t-12 40.5q0 28 20.5 49.5t49.5 21.5q34 0 90 -47z" />
    <glyph glyph-name="a" unicode="a" horiz-adv-x="983" 
d="M985 111q-26 -54 -78 -96t-106 -42q-62 0 -111.5 42.5t-64.5 103.5q-182 -146 -342 -146q-86 0 -149.5 49t-63.5 132q0 62 30 108t78.5 81.5t104.5 62t112 53.5l203 98q16 7 16 39v20q0 84 -11 132.5t-51 77t-118 28.5q-93 0 -140 -21.5t-52 -95.5q-2 -36 -23 -63
t-59 -27q-34 0 -56 20t-22 54q0 69 66.5 109t153 55.5t157.5 15.5q117 0 190 -25.5t107.5 -90.5t34.5 -179v-338v-32q0 -170 71 -170q27 0 40 13t44 52zM616 172v334q-51 -24 -113.5 -53t-116.5 -64t-90 -81.5t-36 -104.5q0 -60 35 -104t96 -44q54 0 114 34t111 83z" />
    <glyph glyph-name="b" unicode="b" horiz-adv-x="1147" 
d="M1085 442q0 -129 -60 -236t-164 -170t-234 -63q-56 0 -114 15t-109.5 44t-88.5 72l-98 -118h-29v1032v2q0 174 -20 217q-8 18 -22 28t-31 14.5t-35.5 6.5t-44.5 4v41l327 66v-611q59 60 126.5 87.5t152.5 27.5q95 0 177.5 -36t142.5 -98.5t92 -146t32 -178.5zM881 436
q0 106 -27.5 195t-93.5 147t-172 58q-56 0 -115.5 -29t-85.5 -78q-25 -51 -25 -151v-336q0 -104 57 -158.5t165 -54.5q160 0 228.5 117t68.5 290z" />
    <glyph glyph-name="c" unicode="c" horiz-adv-x="942" 
d="M883 131q-61 -75 -159 -116.5t-202 -41.5q-95 0 -175 31.5t-139.5 90.5t-92.5 140t-33 173q0 139 66 252.5t181 177t255 63.5q90 0 178 -31t88 -106q0 -27 -20.5 -51.5t-47.5 -24.5q-59 0 -90 80q-18 47 -40 62.5t-77 15.5q-104 0 -169 -61t-92 -152t-27 -193
q0 -170 67.5 -285.5t227.5 -115.5q74 0 140.5 35t117.5 94z" />
    <glyph glyph-name="d" unicode="d" horiz-adv-x="1188" 
d="M1149 41l-275 -68q-30 64 -40 156q-66 -80 -143 -118t-177 -38q-127 0 -226 59.5t-154.5 164t-55.5 229.5q0 126 55 235t156 174.5t225 65.5q87 0 162.5 -31.5t130.5 -95.5v324q0 70 -8.5 108.5t-41 60.5t-104.5 23v41l328 66v-1035q0 -159 20 -212q18 -44 47.5 -56
t81.5 -12h19v-41zM807 336v291q0 93 -74.5 151t-169.5 58q-102 0 -165 -61.5t-89 -156.5t-26 -192q0 -163 65 -280t215 -117q131 0 187.5 85.5t56.5 221.5z" />
    <glyph glyph-name="e" unicode="e" horiz-adv-x="1024" 
d="M934 567q0 -20 -27 -20q-6 1 -11 1.5t-13 0.5h-588l-8 -98q0 -12 -0.5 -19t-1.5 -16q0 -94 38.5 -181t112.5 -141.5t172 -54.5q73 0 141 43t117 108l43 -43q-71 -88 -159.5 -131t-204.5 -43q-126 0 -232.5 56t-168.5 156.5t-62 228.5t60 240t165.5 179.5t235.5 67.5
q77 0 147 -21t125 -63.5t87 -106t32 -143.5zM743 645q0 98 -51 153.5t-147 55.5q-108 0 -163 -67.5t-77 -182.5h338h35q65 0 65 41z" />
    <glyph glyph-name="f" unicode="f" horiz-adv-x="655" 
d="M825 1247q0 -29 -21.5 -47t-49.5 -18q-50 0 -72 57q-17 47 -43 68.5t-76 21.5q-123 0 -164 -98q-19 -47 -24.5 -107t-5.5 -145v-141h252v-56h-252v-542q0 -80 18 -127q11 -30 34.5 -46t47.5 -21t59 -6.5t64 -2.5v-41q-49 1 -134 4.5t-159 3.5q-69 0 -152 -3.5t-129 -4.5
v41q84 4 121 24.5t46.5 60t9.5 120.5v20v520h-164v56h164v110q0 209 88 318.5t292 109.5q87 0 168.5 -29t81.5 -100z" />
    <glyph glyph-name="g" unicode="g" 
d="M1061 807q0 -27 -19.5 -47.5t-48.5 -20.5q-27 0 -46.5 18t-39.5 36t-47 18q-37 0 -84 -39q74 -83 74 -201q0 -167 -106.5 -240t-286.5 -81q-95 -3 -157 -17.5t-62 -68.5q0 -25 17 -39t42 -20t56 -7t42 -2l137 -6q96 -4 168 -14t131.5 -38t95.5 -88t36 -159
q0 -94 -38.5 -160t-106.5 -107t-148.5 -59t-171.5 -18q-160 0 -295 65t-135 207q0 65 43.5 117.5t107.5 52.5q47 0 86 -36q-48 -9 -77 -52.5t-29 -93.5q0 -119 95 -166t230 -47q122 0 210.5 56.5t88.5 170.5q0 72 -34 112.5t-89.5 58.5t-110 22t-132.5 6q-110 5 -168 13
t-106 48t-48 123q0 71 55 119t125 58v4q-93 32 -156 109.5t-63 172.5q0 105 53 180t142 114.5t190 39.5q74 0 142.5 -23t117.5 -69q112 86 199 86q47 0 84 -22t37 -66zM676 571q0 115 -49.5 199t-155.5 84q-73 0 -118.5 -41.5t-64 -106t-18.5 -135.5q0 -108 48 -191t149 -83
q73 0 120.5 39t68 102t20.5 133z" />
    <glyph glyph-name="h" unicode="h" horiz-adv-x="1229" 
d="M1157 -4q-38 1 -107.5 4.5t-129.5 3.5q-55 0 -120 -3.5t-100 -4.5v41q65 4 95.5 19t38.5 43t8 81v51v304q0 134 -35.5 217.5t-151.5 83.5q-67 0 -132.5 -41.5t-96.5 -102.5q-37 -73 -37 -223v-225v-64q0 -75 25 -106t118 -37v-41q-39 1 -103 4.5t-122 3.5t-127 -3.5
t-108 -4.5v41q67 4 97 20t38 44.5t8 84.5v45v787v2q0 174 -20 217q-8 18 -22 28t-31 14.5t-36 6.5t-45 4v41l328 66v-672h4q53 84 135.5 130t180.5 46q149 0 228 -71.5t79 -215.5v-370v-68q0 -50 9 -77t38.5 -42.5t93.5 -19.5v-41z" />
    <glyph glyph-name="i" unicode="i" horiz-adv-x="573" 
d="M373 1266q0 -44 -30.5 -76.5t-74.5 -32.5q-47 0 -80.5 31t-33.5 78q0 46 32 78t78 32t77.5 -32.5t31.5 -77.5zM518 -4q-34 1 -98 4.5t-121 3.5q-60 0 -130 -3.5t-110 -4.5v41q66 5 96 20.5t38 44t8 84.5v45v293v8q0 191 -8 220q-13 47 -107 47q-13 0 -20 -0.5t-15 -1.5
v41l324 63v-657v-68q0 -50 9 -77t38.5 -42t95.5 -20v-41z" />
    <glyph glyph-name="j" unicode="j" horiz-adv-x="532" 
d="M354 1266q0 -44 -30 -76.5t-74 -32.5q-48 0 -81.5 31t-33.5 78q0 45 31.5 77.5t77.5 32.5q47 0 78.5 -32.5t31.5 -77.5zM354 -166q0 -191 -104 -287t-297 -96q-87 0 -174.5 33t-87.5 104q0 26 21 44t48 18q36 0 71 -54t57 -76t92 -22q85 0 129.5 48.5t58.5 120t14 165.5
q0 41 -0.5 64t-1.5 49v579v8q0 191 -8 220q-12 47 -106 47q-14 0 -20.5 -0.5t-14.5 -1.5v41l323 63v-1067z" />
    <glyph glyph-name="k" unicode="k" 
d="M1071 -4q-20 1 -41 2.5l-42 3t-42 2.5q-21 -1 -42 -2.5t-42.5 -2.5t-42.5 -3l-389 416l-41 -41v-127v-68q0 -50 9 -77t38.5 -42t95.5 -20v-41q-39 1 -105 4.5t-124 3.5q-57 0 -123 -3.5t-108 -4.5v41q67 4 97 20t38 44.5t8 84.5v45v811q0 156 -22 195q-9 17 -24.5 27.5
t-32.5 15t-34 6.5t-43 4v41l330 66v-961l137 146q156 161 156 209q0 51 -109 51v41q30 -1 91 -5t90 -4t87 4t87 5v-41q-51 -1 -84 -13.5t-56 -34.5t-63 -69l-188 -211l393 -385q24 -25 43.5 -44t41 -30.5t56.5 -17.5v-41z" />
    <glyph glyph-name="l" unicode="l" horiz-adv-x="573" 
d="M518 -4q-38 1 -107.5 4.5t-127.5 3.5q-56 0 -121 -3.5t-105 -4.5v41q67 4 97.5 20t38.5 44.5t8 84.5v45v787v2q0 174 -21 217q-8 18 -22.5 28t-31 14.5t-35 6.5t-44.5 4v41l328 66v-1153v-68q0 -50 9 -77t38.5 -42t95.5 -20v-41z" />
    <glyph glyph-name="m" unicode="m" horiz-adv-x="1761" 
d="M1698 -4q-38 1 -104.5 4.5t-123.5 3.5q-56 0 -122.5 -3.5t-104.5 -4.5v41q67 5 96 20.5t37 44t8 84.5v45v258v62q0 85 -11.5 144.5t-54 100t-124.5 40.5q-61 0 -116 -38.5t-83 -97.5q-16 -34 -21 -82.5t-5 -123.5v-5v-245q0 -28 -0.5 -44t-1.5 -34q0 -67 25.5 -95
t115.5 -34v-41q-35 1 -101 4.5t-122 3.5q-57 0 -124 -3.5t-108 -4.5v41q65 4 95 18.5t38.5 43t8.5 81.5v51v258v62q0 85 -12 144.5t-54.5 100t-124.5 40.5q-61 0 -117 -39.5t-81 -96.5q-17 -37 -22 -84t-5 -122v-5v-245q0 -29 -0.5 -44.5t-1.5 -33.5q0 -67 25.5 -95
t113.5 -34v-41q-37 1 -101 4.5t-120 3.5q-58 0 -126.5 -3.5t-107.5 -4.5v41q67 4 97.5 20t38.5 44.5t8 84.5v45v252v4q0 199 -10 244q-8 41 -33 53.5t-70 12.5h-35v41q60 7 154 32t129 31l22 -166q123 166 310 166q99 0 175.5 -40t104.5 -126q53 81 133.5 123.5t178.5 42.5
q161 0 239 -98q37 -45 46.5 -111.5t9.5 -159.5v-288v-74q0 -48 9 -74t38 -40t92 -19v-41z" />
    <glyph glyph-name="n" unicode="n" horiz-adv-x="1229" 
d="M1157 -4q-35 1 -101 4.5t-122 3.5q-59 0 -127.5 -3.5t-110.5 -4.5v41q67 4 97 19.5t38.5 44.5t8.5 85v45v263v26q0 146 -33.5 231t-155.5 85q-76 0 -136 -37t-93 -99.5t-33 -138.5v-317v-68q0 -50 9 -77t38.5 -42t95.5 -20v-41q-38 1 -102 4.5t-121 3.5q-59 0 -128 -3.5
t-109 -4.5v41q67 4 97 20t38 44.5t8 84.5v45v252v4q0 199 -10 244q-8 42 -32.5 54t-70.5 12h-34v41q63 7 155 32t127 31l27 -186h4q52 93 135.5 139.5t192.5 46.5q305 0 305 -283v-374v-64q0 -75 25 -106t118 -37v-41z" />
    <glyph glyph-name="o" unicode="o" horiz-adv-x="1147" 
d="M1067 440q0 -134 -66.5 -241t-180 -166.5t-247.5 -59.5q-130 0 -243.5 62.5t-180.5 172t-67 241.5q0 97 40.5 179t110.5 144.5t159 95.5t181 33q125 0 240 -60.5t184.5 -166t69.5 -234.5zM862 428q0 112 -25.5 207t-92 157t-179.5 62q-150 0 -214 -124.5t-64 -289.5
q0 -176 67.5 -298t229.5 -122q151 0 214.5 121t63.5 287z" />
    <glyph glyph-name="p" unicode="p" horiz-adv-x="1188" 
d="M1110 432q0 -124 -57 -229.5t-158 -167.5t-227 -62q-89 0 -159.5 29t-135.5 88v-397v-58q0 -59 9.5 -88.5t42.5 -44.5t105 -18v-41q-37 1 -103.5 4.5t-123.5 3.5q-61 0 -133 -3.5t-113 -4.5v41q65 4 95 18.5t38.5 42.5t8.5 84v52v802v4q0 199 -11 244q-8 42 -32.5 54
t-69.5 12h-35v41q66 9 297 63v-170h4q119 170 303 170q99 0 183 -35t146 -100t94 -149t32 -185zM905 438q0 101 -25.5 192.5t-88.5 148.5t-168 57q-64 0 -119 -31t-88 -86q-28 -50 -35.5 -99.5t-7.5 -130.5v-145q0 -77 7 -131t38 -92q70 -82 200 -82q152 0 219.5 117.5
t67.5 281.5z" />
    <glyph glyph-name="q" unicode="q" horiz-adv-x="1147" 
d="M1108 -557q-35 1 -101 4.5t-122 3.5q-62 0 -134 -3.5t-116 -4.5v41q75 6 107.5 21.5t41.5 47t9 99.5v29v425h-5q-41 -66 -113 -99.5t-159 -33.5q-128 0 -228.5 59.5t-155 163.5t-54.5 234q0 129 60.5 237t167 171t237.5 63q71 0 152.5 -27t129.5 -71l142 98v-1208v-68
q0 -50 9 -77t39.5 -43.5t92.5 -20.5v-41zM793 336v219q0 122 -50.5 201.5t-169.5 79.5q-109 0 -174.5 -61t-90.5 -154t-25 -201q0 -102 24 -190t85.5 -144.5t164.5 -56.5q125 0 180.5 87t55.5 220z" />
    <glyph glyph-name="r" unicode="r" horiz-adv-x="819" 
d="M815 795q0 -29 -21.5 -51.5t-50.5 -22.5q-28 0 -44 13.5t-31.5 39.5t-29.5 39.5t-42 13.5q-44 0 -89 -30t-71 -72q-31 -54 -39 -114.5t-8 -153.5v-11v-202v-64q0 -81 26.5 -110t129.5 -33v-41q-37 1 -106.5 4.5t-129.5 3.5q-59 0 -128 -3.5t-109 -4.5v41q67 4 97 20
t38 44.5t8 84.5v45v252v17q0 188 -12 231q-11 43 -34.5 54.5t-68.5 11.5h-32v41q56 3 154 30.5t122 32.5q25 -83 25 -184v-23h4q42 97 117 152t180 55q55 0 100 -27t45 -79z" />
    <glyph glyph-name="s" unicode="s" horiz-adv-x="737" 
d="M672 244q0 -80 -41.5 -142t-110 -95.5t-149.5 -33.5q-132 0 -226 74l-51 -59h-20l-8 293h40q66 -261 254 -261q73 0 122.5 37t49.5 107q0 44 -18.5 75.5t-48.5 55t-73.5 45.5t-65.5 33q-75 37 -127 73t-85.5 87t-33.5 122q0 70 34 126t91 88t129 32q52 0 106.5 -14
t91.5 -37l41 49h25l-4 -256h-41q-35 99 -80 155t-131 56q-54 0 -92.5 -30.5t-38.5 -82.5q0 -38 18 -66.5t43.5 -47.5t70.5 -42t58 -30q109 -58 155.5 -88t81 -83.5t34.5 -139.5z" />
    <glyph glyph-name="t" unicode="t" horiz-adv-x="655" 
d="M682 104q-17 -46 -54 -76t-85 -42.5t-99 -12.5q-247 0 -247 211v627h-105v37q194 111 248 258h31v-240h233v-55h-233v-584q0 -83 26.5 -135.5t100.5 -52.5q30 0 57.5 11.5t47 30.5t42.5 50z" />
    <glyph glyph-name="u" unicode="u" horiz-adv-x="1188" 
d="M1147 47l-285 -74l-43 193q-58 -88 -149.5 -140.5t-192.5 -52.5q-102 0 -164 35t-90 99.5t-28 158.5v350v56q0 63 -9 94t-42.5 49.5t-104.5 28.5v39q29 -1 85 -5t85 -4q28 0 81 4t79 5v-559q0 -124 32.5 -204.5t137.5 -80.5q77 0 141.5 42t101.5 112t37 149v274v56
q0 62 -9 93.5t-41.5 50t-104.5 28.5v41q42 -2 78 -4.5t92 -6.5q53 4 85.5 6t73.5 5v-660q0 -62 13 -99.5t63 -37.5q12 0 31 2t47 4v-47z" />
    <glyph glyph-name="v" unicode="v" horiz-adv-x="860" 
d="M893 842q-49 -11 -80 -49q-19 -25 -47 -91t-59 -147l-242 -596h-43l-307 731q-25 62 -37.5 86.5t-38.5 43.5t-70 22v41q39 -1 110.5 -5t108.5 -4q54 0 209 9v-41q-116 -5 -116 -68q0 -38 26 -100l199 -494q16 44 51.5 132t69.5 173t59 161t25 112q0 44 -32 61t-85 23v41
q26 -1 76 -5t75 -4q26 0 75 4t73 5v-41z" />
    <glyph glyph-name="w" unicode="w" horiz-adv-x="1311" 
d="M1341 844q-28 -2 -77 -33q-39 -28 -86 -178l-215 -674h-54l-256 643l-233 -643h-51l-219 662q-15 49 -28.5 90t-31.5 65q-19 28 -52.5 46.5t-66.5 21.5v39q38 -1 114 -5t114 -4q36 0 110 4t111 5v-39q-51 -2 -90 -22.5t-39 -67.5q0 -39 45 -174l119 -379h4l233 676h29
l262 -676h4l127 420q25 85 25 124q0 82 -123 99v39q27 -1 81 -5t81 -4q28 0 82 4t81 5v-39z" />
    <glyph glyph-name="x" unicode="x" 
d="M1044 -4q-39 1 -105 4.5t-124 3.5q-60 0 -130 -3.5t-110 -4.5v41h15h8q96 0 96 41q0 21 -47 74l-174 206l-84 -106q-28 -36 -61 -80.5t-33 -69.5q0 -35 32 -47.5t79 -17.5v-41q-32 1 -87 4.5t-104 3.5q-48 0 -104 -3.5t-88 -4.5v41q78 1 132 42.5t119 123.5l160 198
l-276 349q-36 49 -60.5 68t-74.5 24v41q34 -1 106.5 -5t108.5 -4t110 4t111 5v-41q-3 -1 -36.5 -5t-55 -12.5t-21.5 -25.5q0 -13 18.5 -40t41 -54.5t43.5 -51.5l104 -127l100 127q3 4 17.5 22t29.5 39.5t22 35.5t7 26q0 35 -35.5 50.5t-72.5 15.5v41q31 -1 93 -5t93 -4
q30 0 87.5 4t88.5 5v-41q-71 -4 -109.5 -34t-101.5 -103l-186 -218l282 -327q33 -40 55.5 -63t49.5 -38t71 -22v-41z" />
    <glyph glyph-name="y" unicode="y" horiz-adv-x="860" 
d="M891 842q-39 -1 -59.5 -17t-33 -46t-28.5 -68l-27 -60l-426 -983q-10 -25 -28 -66t-38 -73.5t-47.5 -57t-58.5 -24.5q-4 0 -6.5 -0.5t-5.5 -1.5q-22 0 -35.5 16t-13.5 35q0 39 21.5 58t69.5 43.5t65 50.5q29 45 92 188l78 174l-289 674q-39 90 -60 115q-14 15 -44.5 29
t-47.5 14v41q35 -1 105 -5t104 -4q40 0 117.5 4t114.5 5v-41q-6 -3 -43.5 -9.5t-59.5 -20t-22 -42.5q0 -22 14.5 -67.5t35.5 -96t34 -82.5l131 -313l153 369q58 135 58 190q0 38 -35 54t-78 18v41q27 -1 79 -5t79 -4q22 0 66.5 4t68.5 5v-41z" />
    <glyph glyph-name="z" unicode="z" horiz-adv-x="860" 
d="M813 227l-18 -227h-746l533 827h-189q-88 0 -131.5 -8t-74 -42.5t-44.5 -108.5h-39l19 206h690l-530 -827h217q98 0 144.5 9.5t79 47.5t54.5 123h35z" />
    <glyph glyph-name="braceleft" unicode="{" horiz-adv-x="573" 
d="M508 -307q-108 0 -167.5 23.5t-86.5 80t-27 162.5v369q0 43 -8 79t-25.5 65.5t-49 49.5t-72.5 23v8q65 14 98 38.5t45 67t12 111.5v330q0 111 20.5 173t73.5 93t148 31h33v-4q-78 -20 -111 -74t-33 -148v-348q0 -120 -33 -184t-137 -86v-8q99 -17 134.5 -75t35.5 -171
v-381q0 -66 12.5 -107.5t46 -69.5t91.5 -44v-4z" />
    <glyph glyph-name="bar" unicode="|" horiz-adv-x="532" 
d="M336 -512h-137v2048h137v-2048z" />
    <glyph glyph-name="braceright" unicode="}" horiz-adv-x="573" 
d="M502 537q-94 -19 -125 -65.5t-31 -152.5v-329q0 -111 -20.5 -173t-73.5 -93t-148 -31h-32v4q79 22 111 75t32 146v348q0 75 12.5 130t50 91t107.5 50v8q-99 17 -134.5 76t-35.5 170v380q0 97 -32.5 148t-116.5 74v4q107 0 166.5 -23.5t86.5 -81t27 -162.5v-368
q0 -88 37.5 -149t118.5 -68v-8z" />
    <glyph glyph-name="asciitilde" unicode="~" 
d="M1040 606q-126 -227 -290 -227q-31 0 -66.5 11.5t-81 32.5t-86.5 40q-130 57 -215 57q-70 0 -111 -45t-98 -139l-67 76q63 112 129 176.5t163 64.5q51 0 102.5 -17t137.5 -54q39 -18 81 -36t73.5 -28t56.5 -10q62 0 115.5 52.5t87.5 121.5z" />
    <glyph glyph-name="Adieresis" unicode="&#xc4;" horiz-adv-x="1352" 
d="M1399 -4q-48 1 -133 4.5t-158 3.5q-74 0 -160 -3.5t-137 -4.5v47q73 3 115.5 14.5t42.5 63.5q0 51 -41 160l-80 211h-506l-18 -52q-14 -35 -39.5 -99t-42.5 -120t-17 -90q0 -30 15 -47.5t38.5 -25t55.5 -10.5t57 -5v-47q-36 1 -102 4.5t-123 3.5q-53 0 -115 -3.5
t-98 -4.5v47q82 9 123 40t74 105q31 75 60.5 139t56.5 125.5t52 127.5l314 804h69l414 -1040q14 -34 33.5 -81t37 -83t36.5 -61q32 -41 70.5 -54.5t105.5 -21.5v-47zM821 557l-225 578l-227 -578h452zM911 1714q0 -44 -29.5 -76t-75.5 -32q-44 0 -74 32t-30 76q0 42 32 71.5
t72 29.5q43 0 74 -29.5t31 -71.5zM630 1714q0 -44 -29.5 -76t-74.5 -32q-46 0 -75.5 32t-29.5 76q0 43 31.5 72t73.5 29t73 -30t31 -71z" />
    <glyph glyph-name="Aring" unicode="&#xc5;" horiz-adv-x="1352" 
d="M1399 -4q-48 1 -133 4.5t-158 3.5q-74 0 -160 -3.5t-137 -4.5v47q73 3 115.5 14.5t42.5 63.5q0 51 -41 160l-80 211h-506l-18 -52q-14 -35 -39.5 -99t-42.5 -120t-17 -90q0 -30 15 -47.5t38.5 -25t55.5 -10.5t57 -5v-47q-36 1 -102 4.5t-123 3.5q-53 0 -115 -3.5
t-98 -4.5v47q82 9 123 40t74 105q31 75 60.5 139t56.5 125.5t52 127.5l314 804h69l414 -1040q14 -34 33.5 -81t37 -83t36.5 -61q32 -41 70.5 -54.5t105.5 -21.5v-47zM821 557l-225 578l-227 -578h452zM866 1643q0 -82 -55.5 -136.5t-136.5 -54.5q-77 0 -134 55t-57 132
q0 49 26 92t69.5 67.5t93.5 24.5q49 0 94 -23.5t72.5 -65t27.5 -91.5zM797 1637q0 54 -36 91.5t-89 37.5q-52 0 -85.5 -38.5t-33.5 -88.5q0 -52 36.5 -89.5t88.5 -37.5q48 0 83.5 37.5t35.5 87.5z" />
    <glyph glyph-name="Ccedilla" unicode="&#xc7;" horiz-adv-x="1393" 
d="M1323 23h-27l-49 104q-102 -81 -210 -117.5t-240 -36.5l-27 -75h8q67 0 121.5 -31t54.5 -94q0 -60 -47.5 -92.5t-109.5 -32.5q-51 0 -110.5 29.5t-59.5 74.5q0 17 10.5 29t26.5 12q19 0 29.5 -13.5t17.5 -33.5q17 -53 71 -53q37 0 60.5 20t23.5 54q0 48 -36 68t-87 20
q-16 0 -26 -0.5t-23 -1.5l47 122q-146 9 -264 60t-203.5 141t-131.5 212.5t-46 270.5q0 153 53 285.5t150 229.5t228.5 149.5t285.5 52.5q122 0 213 -28.5t203 -98.5l33 97h30l17 -404h-47q-12 85 -48 156.5t-92.5 123t-131 79.5t-161.5 28q-132 0 -225 -58.5t-148.5 -156
t-79.5 -214.5t-24 -241q0 -169 47.5 -313t155.5 -235t279 -91q103 0 180 35t128 95.5t85 140t59 180.5h37v-448z" />
    <glyph glyph-name="Eacute" unicode="&#xc9;" horiz-adv-x="1270" 
d="M1186 330l-19 -330h-1114v47q71 0 115 12t61 58q21 53 21 266v2v4v565v7q0 213 -21 266q-17 46 -61 57.5t-115 11.5v56h1018v-310h-47q-19 116 -61.5 170.5t-110.5 69t-190 14.5h-148h-25q-22 0 -26 -8q-2 -4 -2 -22v-54v-485h39q167 0 225.5 64t69.5 188h47
q-1 -40 -2.5 -80t-3.5 -87t-2 -73v-39v-30q0 -24 2 -68t3.5 -81.5t2.5 -74.5h-47q-15 105 -54.5 153t-101.5 60.5t-178 12.5v-336q0 -158 37 -207q55 -74 237 -74h25q120 2 195.5 21.5t123 78t60.5 175.5h47zM1006 1784q0 -30 -19 -50t-52 -35t-60 -26l-274 -119h-76
l320 254q54 47 90 47q30 0 50.5 -20.5t20.5 -50.5z" />
    <glyph glyph-name="Ntilde" unicode="&#xd1;" horiz-adv-x="1556" 
d="M1511 1305q-79 -9 -108.5 -21t-46.5 -70q-15 -47 -20 -154.5t-5 -203.5v-883h-61q-62 79 -86.5 111t-48.5 59l-801 971h-4v-688q0 -229 30 -299q13 -28 31.5 -44.5t41.5 -24t51 -10.5t55 -5v-47q-37 1 -106.5 4.5t-129.5 3.5q-57 0 -122 -3.5t-105 -4.5v47
q82 8 122.5 24.5t53.5 75.5q10 46 13 113.5t3 159.5v0v10v756q-47 68 -93.5 95t-129.5 28v47q33 -1 98 -5t97 -4q27 0 81 4t80 5l865 -1055h4v569q0 102 -4 185.5t-15 130.5q-16 77 -48.5 92t-133.5 31v47q40 -1 113.5 -5t111.5 -4q37 0 107.5 4t109.5 5v-47zM1065 1821
q-6 -65 -55 -125q-55 -62 -117 -62q-22 0 -50.5 6.5t-53 16t-50.5 20.5q-90 41 -129 41q-46 0 -72 -69h-55q15 72 66.5 126t120.5 54q32 0 61 -9.5t82 -31.5q28 -12 48.5 -20t41.5 -13.5t37 -5.5q49 0 72 72h53z" />
    <glyph glyph-name="Odieresis" unicode="&#xd6;" horiz-adv-x="1679" 
d="M1583 684q0 -206 -99 -368.5t-269.5 -252.5t-374.5 -90q-147 0 -282.5 50.5t-239.5 144.5t-163 223.5t-59 278.5q0 150 60.5 279t167.5 226t243 149t281 52q193 0 362.5 -88.5t271 -248t101.5 -355.5zM1327 676q0 123 -26.5 237t-84 206t-152 147t-224.5 55
q-126 0 -220.5 -56t-153.5 -151t-86.5 -208.5t-27.5 -235.5q0 -272 121 -456.5t379 -184.5q130 0 223 55t148 148t79.5 208t24.5 236zM1075 1714q0 -44 -29.5 -76t-75.5 -32q-44 0 -74 32t-30 76q0 42 32 71.5t72 29.5q43 0 74 -29.5t31 -71.5zM794 1714q0 -44 -29.5 -76
t-74.5 -32q-46 0 -75.5 32t-29.5 76q0 43 31.5 72t73.5 29t73 -30t31 -71z" />
    <glyph glyph-name="Udieresis" unicode="&#xdc;" horiz-adv-x="1597" 
d="M1528 1305q-71 -2 -108.5 -13.5t-57.5 -60.5q-29 -74 -29 -313v-379q0 -191 -53 -315.5t-171 -187.5t-310 -63q-140 0 -242 26.5t-169.5 86t-100.5 154t-33 233.5v490v6q0 213 -21 266q-18 48 -61.5 59t-114.5 11v47q47 -1 145.5 -5t145.5 -4q52 0 156.5 4t154.5 5v-47
h-10q-68 0 -109 -12t-57 -58q-8 -24 -12 -70t-5 -94.5t-1 -101.5v-6v-504q0 -136 37.5 -226.5t123.5 -138t222 -47.5q210 0 317 107.5t107 314.5v449v8q0 223 -21 284q-19 59 -66.5 77t-123.5 18v47q42 -1 119.5 -5t117.5 -4q38 0 115.5 4t114.5 5v-47zM1075 1714
q0 -44 -29.5 -76t-75.5 -32q-44 0 -74 32t-30 76q0 42 32 71.5t72 29.5q43 0 74 -29.5t31 -71.5zM794 1714q0 -44 -29.5 -76t-74.5 -32q-46 0 -75.5 32t-29.5 76q0 43 31.5 72t73.5 29t73 -30t31 -71z" />
    <glyph glyph-name="aacute" unicode="&#xe1;" horiz-adv-x="983" 
d="M985 111q-26 -54 -78 -96t-106 -42q-62 0 -111.5 42.5t-64.5 103.5q-182 -146 -342 -146q-86 0 -149.5 49t-63.5 132q0 62 30 108t78.5 81.5t104.5 62t112 53.5l203 98q16 7 16 39v20q0 84 -11 132.5t-51 77t-118 28.5q-93 0 -140 -21.5t-52 -95.5q-2 -36 -23 -63
t-59 -27q-34 0 -56 20t-22 54q0 69 66.5 109t153 55.5t157.5 15.5q117 0 190 -25.5t107.5 -90.5t34.5 -179v-338v-32q0 -170 71 -170q27 0 40 13t44 52zM616 172v334q-51 -24 -113.5 -53t-116.5 -64t-90 -81.5t-36 -104.5q0 -60 35 -104t96 -44q54 0 114 34t111 83z
M813 1315q0 -30 -19 -50t-52 -35t-60 -26l-274 -119h-76l320 254q54 47 90 47q30 0 50.5 -20.5t20.5 -50.5z" />
    <glyph glyph-name="agrave" unicode="&#xe0;" horiz-adv-x="983" 
d="M985 111q-26 -54 -78 -96t-106 -42q-62 0 -111.5 42.5t-64.5 103.5q-182 -146 -342 -146q-86 0 -149.5 49t-63.5 132q0 62 30 108t78.5 81.5t104.5 62t112 53.5l203 98q16 7 16 39v20q0 84 -11 132.5t-51 77t-118 28.5q-93 0 -140 -21.5t-52 -95.5q-2 -36 -23 -63
t-59 -27q-34 0 -56 20t-22 54q0 69 66.5 109t153 55.5t157.5 15.5q117 0 190 -25.5t107.5 -90.5t34.5 -179v-338v-32q0 -170 71 -170q27 0 40 13t44 52zM616 172v334q-51 -24 -113.5 -53t-116.5 -64t-90 -81.5t-36 -104.5q0 -60 35 -104t96 -44q54 0 114 34t111 83z
M739 1085h-75l-277 119q-6 3 -36.5 15.5t-49.5 25t-31 30t-12 40.5q0 28 20.5 49.5t49.5 21.5q34 0 90 -47z" />
    <glyph glyph-name="acircumflex" unicode="&#xe2;" horiz-adv-x="983" 
d="M985 111q-26 -54 -78 -96t-106 -42q-62 0 -111.5 42.5t-64.5 103.5q-182 -146 -342 -146q-86 0 -149.5 49t-63.5 132q0 62 30 108t78.5 81.5t104.5 62t112 53.5l203 98q16 7 16 39v20q0 84 -11 132.5t-51 77t-118 28.5q-93 0 -140 -21.5t-52 -95.5q-2 -36 -23 -63
t-59 -27q-34 0 -56 20t-22 54q0 69 66.5 109t153 55.5t157.5 15.5q117 0 190 -25.5t107.5 -90.5t34.5 -179v-338v-32q0 -170 71 -170q27 0 40 13t44 52zM616 172v334q-51 -24 -113.5 -53t-116.5 -64t-90 -81.5t-36 -104.5q0 -60 35 -104t96 -44q54 0 114 34t111 83z
M768 1085h-64l-219 164l-227 -164h-62l234 301h112z" />
    <glyph glyph-name="adieresis" unicode="&#xe4;" horiz-adv-x="983" 
d="M985 111q-26 -54 -78 -96t-106 -42q-62 0 -111.5 42.5t-64.5 103.5q-182 -146 -342 -146q-86 0 -149.5 49t-63.5 132q0 62 30 108t78.5 81.5t104.5 62t112 53.5l203 98q16 7 16 39v20q0 84 -11 132.5t-51 77t-118 28.5q-93 0 -140 -21.5t-52 -95.5q-2 -36 -23 -63
t-59 -27q-34 0 -56 20t-22 54q0 69 66.5 109t153 55.5t157.5 15.5q117 0 190 -25.5t107.5 -90.5t34.5 -179v-338v-32q0 -170 71 -170q27 0 40 13t44 52zM616 172v334q-51 -24 -113.5 -53t-116.5 -64t-90 -81.5t-36 -104.5q0 -60 35 -104t96 -44q54 0 114 34t111 83z
M727 1245q0 -44 -29.5 -76t-75.5 -32q-44 0 -74 32t-30 76q0 42 32 71.5t72 29.5q43 0 74 -29.5t31 -71.5zM446 1245q0 -44 -29.5 -76t-74.5 -32q-46 0 -75.5 32t-29.5 76q0 43 31.5 72t73.5 29t73 -30t31 -71z" />
    <glyph glyph-name="atilde" unicode="&#xe3;" horiz-adv-x="983" 
d="M985 111q-26 -54 -78 -96t-106 -42q-62 0 -111.5 42.5t-64.5 103.5q-182 -146 -342 -146q-86 0 -149.5 49t-63.5 132q0 62 30 108t78.5 81.5t104.5 62t112 53.5l203 98q16 7 16 39v20q0 84 -11 132.5t-51 77t-118 28.5q-93 0 -140 -21.5t-52 -95.5q-2 -36 -23 -63
t-59 -27q-34 0 -56 20t-22 54q0 69 66.5 109t153 55.5t157.5 15.5q117 0 190 -25.5t107.5 -90.5t34.5 -179v-338v-32q0 -170 71 -170q27 0 40 13t44 52zM616 172v334q-51 -24 -113.5 -53t-116.5 -64t-90 -81.5t-36 -104.5q0 -60 35 -104t96 -44q54 0 114 34t111 83z
M778 1352q-6 -65 -55 -125q-55 -62 -117 -62q-22 0 -50.5 6.5t-53 16t-50.5 20.5q-90 41 -129 41q-46 0 -72 -69h-55q15 72 66.5 126t120.5 54q32 0 61 -9.5t82 -31.5q28 -12 48.5 -20t41.5 -13.5t37 -5.5q49 0 72 72h53z" />
    <glyph glyph-name="aring" unicode="&#xe5;" horiz-adv-x="983" 
d="M985 111q-26 -54 -78 -96t-106 -42q-62 0 -111.5 42.5t-64.5 103.5q-182 -146 -342 -146q-86 0 -149.5 49t-63.5 132q0 62 30 108t78.5 81.5t104.5 62t112 53.5l203 98q16 7 16 39v20q0 84 -11 132.5t-51 77t-118 28.5q-93 0 -140 -21.5t-52 -95.5q-2 -36 -23 -63
t-59 -27q-34 0 -56 20t-22 54q0 69 66.5 109t153 55.5t157.5 15.5q117 0 190 -25.5t107.5 -90.5t34.5 -179v-338v-32q0 -170 71 -170q27 0 40 13t44 52zM616 172v334q-51 -24 -113.5 -53t-116.5 -64t-90 -81.5t-36 -104.5q0 -60 35 -104t96 -44q54 0 114 34t111 83z
M682 1266q0 -82 -55.5 -136.5t-136.5 -54.5q-77 0 -134 55t-57 132q0 49 26 92t69.5 67.5t93.5 24.5q49 0 94 -23.5t72.5 -65t27.5 -91.5zM613 1260q0 54 -36 91.5t-89 37.5q-52 0 -85.5 -38.5t-33.5 -88.5q0 -52 36.5 -89.5t88.5 -37.5q48 0 83.5 37.5t35.5 87.5z" />
    <glyph glyph-name="ccedilla" unicode="&#xe7;" horiz-adv-x="942" 
d="M883 131q-58 -72 -147 -112t-191 -46l-29 -75h8q67 0 121.5 -31t54.5 -94q0 -60 -47.5 -92.5t-109.5 -32.5q-51 0 -110.5 29.5t-59.5 74.5q0 17 10.5 29t26.5 12q31 0 47 -47q17 -53 71 -53q37 0 60.5 20t23.5 54q0 48 -36 68t-87 20q-16 0 -26 -0.5t-23 -1.5l47 122
q-116 7 -208.5 64.5t-144.5 154.5t-52 214q0 139 66 252.5t181 177t255 63.5q90 0 178 -31t88 -106q0 -27 -20.5 -51.5t-47.5 -24.5q-59 0 -90 80q-18 47 -40 62.5t-77 15.5q-104 0 -169 -61t-92 -152t-27 -193q0 -170 67.5 -285.5t227.5 -115.5q74 0 140.5 35t117.5 94z
" />
    <glyph glyph-name="eacute" unicode="&#xe9;" horiz-adv-x="1024" 
d="M934 567q0 -20 -27 -20q-6 1 -11 1.5t-13 0.5h-588l-8 -98q0 -12 -0.5 -19t-1.5 -16q0 -94 38.5 -181t112.5 -141.5t172 -54.5q73 0 141 43t117 108l43 -43q-71 -88 -159.5 -131t-204.5 -43q-126 0 -232.5 56t-168.5 156.5t-62 228.5t60 240t165.5 179.5t235.5 67.5
q77 0 147 -21t125 -63.5t87 -106t32 -143.5zM743 645q0 98 -51 153.5t-147 55.5q-108 0 -163 -67.5t-77 -182.5h338h35q65 0 65 41zM834 1315q0 -30 -19 -50t-52 -35t-60 -26l-274 -119h-76l320 254q54 47 90 47q30 0 50.5 -20.5t20.5 -50.5z" />
    <glyph glyph-name="egrave" unicode="&#xe8;" horiz-adv-x="1024" 
d="M934 567q0 -20 -27 -20q-6 1 -11 1.5t-13 0.5h-588l-8 -98q0 -12 -0.5 -19t-1.5 -16q0 -94 38.5 -181t112.5 -141.5t172 -54.5q73 0 141 43t117 108l43 -43q-71 -88 -159.5 -131t-204.5 -43q-126 0 -232.5 56t-168.5 156.5t-62 228.5t60 240t165.5 179.5t235.5 67.5
q77 0 147 -21t125 -63.5t87 -106t32 -143.5zM743 645q0 98 -51 153.5t-147 55.5q-108 0 -163 -67.5t-77 -182.5h338h35q65 0 65 41zM760 1085h-75l-277 119q-6 3 -36.5 15.5t-49.5 25t-31 30t-12 40.5q0 28 20.5 49.5t49.5 21.5q34 0 90 -47z" />
    <glyph glyph-name="ecircumflex" unicode="&#xea;" horiz-adv-x="1024" 
d="M934 567q0 -20 -27 -20q-6 1 -11 1.5t-13 0.5h-588l-8 -98q0 -12 -0.5 -19t-1.5 -16q0 -94 38.5 -181t112.5 -141.5t172 -54.5q73 0 141 43t117 108l43 -43q-71 -88 -159.5 -131t-204.5 -43q-126 0 -232.5 56t-168.5 156.5t-62 228.5t60 240t165.5 179.5t235.5 67.5
q77 0 147 -21t125 -63.5t87 -106t32 -143.5zM743 645q0 98 -51 153.5t-147 55.5q-108 0 -163 -67.5t-77 -182.5h338h35q65 0 65 41zM788 1085h-64l-219 164l-227 -164h-62l234 301h112z" />
    <glyph glyph-name="edieresis" unicode="&#xeb;" horiz-adv-x="1024" 
d="M934 567q0 -20 -27 -20q-6 1 -11 1.5t-13 0.5h-588l-8 -98q0 -12 -0.5 -19t-1.5 -16q0 -94 38.5 -181t112.5 -141.5t172 -54.5q73 0 141 43t117 108l43 -43q-71 -88 -159.5 -131t-204.5 -43q-126 0 -232.5 56t-168.5 156.5t-62 228.5t60 240t165.5 179.5t235.5 67.5
q77 0 147 -21t125 -63.5t87 -106t32 -143.5zM743 645q0 98 -51 153.5t-147 55.5q-108 0 -163 -67.5t-77 -182.5h338h35q65 0 65 41zM748 1245q0 -44 -29.5 -76t-75.5 -32q-44 0 -74 32t-30 76q0 42 32 71.5t72 29.5q43 0 74 -29.5t31 -71.5zM467 1245q0 -44 -29.5 -76
t-74.5 -32q-46 0 -75.5 32t-29.5 76q0 43 31.5 72t73.5 29t73 -30t31 -71z" />
    <glyph glyph-name="iacute" unicode="&#xed;" horiz-adv-x="614" 
d="M539 -4q-33 1 -98 4.5t-122 3.5q-59 0 -129 -3.5t-110 -4.5v41q67 5 96 20.5t37 44t8 84.5v45v293v8q0 191 -8 220q-12 47 -107 47q-13 0 -19.5 -0.5t-14.5 -1.5v41l323 63v-657v-68q0 -50 9.5 -76.5t39 -42t95.5 -20.5v-41zM629 1315q0 -30 -19 -50t-52 -35t-60 -26
l-274 -119h-76l320 254q54 47 90 47q30 0 50.5 -20.5t20.5 -50.5z" />
    <glyph glyph-name="igrave" unicode="&#xec;" horiz-adv-x="614" 
d="M539 -4q-33 1 -98 4.5t-122 3.5q-59 0 -129 -3.5t-110 -4.5v41q67 5 96 20.5t37 44t8 84.5v45v293v8q0 191 -8 220q-12 47 -107 47q-13 0 -19.5 -0.5t-14.5 -1.5v41l323 63v-657v-68q0 -50 9.5 -76.5t39 -42t95.5 -20.5v-41zM555 1085h-75l-277 119q-6 3 -36.5 15.5
t-49.5 25t-31 30t-12 40.5q0 28 20.5 49.5t49.5 21.5q34 0 90 -47z" />
    <glyph glyph-name="icircumflex" unicode="&#xee;" horiz-adv-x="614" 
d="M539 -4q-33 1 -98 4.5t-122 3.5q-59 0 -129 -3.5t-110 -4.5v41q67 5 96 20.5t37 44t8 84.5v45v293v8q0 191 -8 220q-12 47 -107 47q-13 0 -19.5 -0.5t-14.5 -1.5v41l323 63v-657v-68q0 -50 9.5 -76.5t39 -42t95.5 -20.5v-41zM584 1085h-64l-219 164l-227 -164h-62
l234 301h112z" />
    <glyph glyph-name="idieresis" unicode="&#xef;" horiz-adv-x="614" 
d="M539 -4q-33 1 -98 4.5t-122 3.5q-59 0 -129 -3.5t-110 -4.5v41q67 5 96 20.5t37 44t8 84.5v45v293v8q0 191 -8 220q-12 47 -107 47q-13 0 -19.5 -0.5t-14.5 -1.5v41l323 63v-657v-68q0 -50 9.5 -76.5t39 -42t95.5 -20.5v-41zM543 1245q0 -44 -29.5 -76t-75.5 -32
q-44 0 -74 32t-30 76q0 42 32 71.5t72 29.5q43 0 74 -29.5t31 -71.5zM262 1245q0 -44 -29.5 -76t-74.5 -32q-46 0 -75.5 32t-29.5 76q0 43 31.5 72t73.5 29t73 -30t31 -71z" />
    <glyph glyph-name="ntilde" unicode="&#xf1;" horiz-adv-x="1229" 
d="M1157 -4q-35 1 -101 4.5t-122 3.5q-59 0 -127.5 -3.5t-110.5 -4.5v41q67 4 97 19.5t38.5 44.5t8.5 85v45v263v26q0 146 -33.5 231t-155.5 85q-76 0 -136 -37t-93 -99.5t-33 -138.5v-317v-68q0 -50 9 -77t38.5 -42t95.5 -20v-41q-38 1 -102 4.5t-121 3.5q-59 0 -128 -3.5
t-109 -4.5v41q67 4 97 20t38 44.5t8 84.5v45v252v4q0 199 -10 244q-8 42 -32.5 54t-70.5 12h-34v41q63 7 155 32t127 31l27 -186h4q52 93 135.5 139.5t192.5 46.5q305 0 305 -283v-374v-64q0 -75 25 -106t118 -37v-41zM901 1352q-6 -65 -55 -125q-55 -62 -117 -62
q-22 0 -50.5 6.5t-53 16t-50.5 20.5q-90 41 -129 41q-46 0 -72 -69h-55q15 72 66.5 126t120.5 54q32 0 61 -9.5t82 -31.5q28 -12 48.5 -20t41.5 -13.5t37 -5.5q49 0 72 72h53z" />
    <glyph glyph-name="oacute" unicode="&#xf3;" horiz-adv-x="1147" 
d="M1067 440q0 -134 -66.5 -241t-180 -166.5t-247.5 -59.5q-130 0 -243.5 62.5t-180.5 172t-67 241.5q0 97 40.5 179t110.5 144.5t159 95.5t181 33q125 0 240 -60.5t184.5 -166t69.5 -234.5zM862 428q0 112 -25.5 207t-92 157t-179.5 62q-150 0 -214 -124.5t-64 -289.5
q0 -176 67.5 -298t229.5 -122q151 0 214.5 121t63.5 287zM895 1315q0 -30 -19 -50t-52 -35t-60 -26l-274 -119h-76l320 254q54 47 90 47q30 0 50.5 -20.5t20.5 -50.5z" />
    <glyph glyph-name="ograve" unicode="&#xf2;" horiz-adv-x="1147" 
d="M1067 440q0 -134 -66.5 -241t-180 -166.5t-247.5 -59.5q-130 0 -243.5 62.5t-180.5 172t-67 241.5q0 97 40.5 179t110.5 144.5t159 95.5t181 33q125 0 240 -60.5t184.5 -166t69.5 -234.5zM862 428q0 112 -25.5 207t-92 157t-179.5 62q-150 0 -214 -124.5t-64 -289.5
q0 -176 67.5 -298t229.5 -122q151 0 214.5 121t63.5 287zM821 1085h-75l-277 119q-6 3 -36.5 15.5t-49.5 25t-31 30t-12 40.5q0 28 20.5 49.5t49.5 21.5q34 0 90 -47z" />
    <glyph glyph-name="ocircumflex" unicode="&#xf4;" horiz-adv-x="1147" 
d="M1067 440q0 -134 -66.5 -241t-180 -166.5t-247.5 -59.5q-130 0 -243.5 62.5t-180.5 172t-67 241.5q0 97 40.5 179t110.5 144.5t159 95.5t181 33q125 0 240 -60.5t184.5 -166t69.5 -234.5zM862 428q0 112 -25.5 207t-92 157t-179.5 62q-150 0 -214 -124.5t-64 -289.5
q0 -176 67.5 -298t229.5 -122q151 0 214.5 121t63.5 287zM850 1085h-64l-219 164l-227 -164h-62l234 301h112z" />
    <glyph glyph-name="odieresis" unicode="&#xf6;" horiz-adv-x="1147" 
d="M1067 440q0 -134 -66.5 -241t-180 -166.5t-247.5 -59.5q-130 0 -243.5 62.5t-180.5 172t-67 241.5q0 97 40.5 179t110.5 144.5t159 95.5t181 33q125 0 240 -60.5t184.5 -166t69.5 -234.5zM862 428q0 112 -25.5 207t-92 157t-179.5 62q-150 0 -214 -124.5t-64 -289.5
q0 -176 67.5 -298t229.5 -122q151 0 214.5 121t63.5 287zM809 1245q0 -44 -29.5 -76t-75.5 -32q-44 0 -74 32t-30 76q0 42 32 71.5t72 29.5q43 0 74 -29.5t31 -71.5zM528 1245q0 -44 -29.5 -76t-74.5 -32q-46 0 -75.5 32t-29.5 76q0 43 31.5 72t73.5 29t73 -30t31 -71z" />
    <glyph glyph-name="otilde" unicode="&#xf5;" horiz-adv-x="1147" 
d="M1067 440q0 -134 -66.5 -241t-180 -166.5t-247.5 -59.5q-130 0 -243.5 62.5t-180.5 172t-67 241.5q0 97 40.5 179t110.5 144.5t159 95.5t181 33q125 0 240 -60.5t184.5 -166t69.5 -234.5zM862 428q0 112 -25.5 207t-92 157t-179.5 62q-150 0 -214 -124.5t-64 -289.5
q0 -176 67.5 -298t229.5 -122q151 0 214.5 121t63.5 287zM860 1352q-6 -65 -55 -125q-55 -62 -117 -62q-22 0 -50.5 6.5t-53 16t-50.5 20.5q-90 41 -129 41q-46 0 -72 -69h-55q15 72 66.5 126t120.5 54q32 0 61 -9.5t82 -31.5q28 -12 48.5 -20t41.5 -13.5t37 -5.5
q49 0 72 72h53z" />
    <glyph glyph-name="uacute" unicode="&#xfa;" horiz-adv-x="1188" 
d="M1147 47l-285 -74l-43 193q-58 -88 -149.5 -140.5t-192.5 -52.5q-102 0 -164 35t-90 99.5t-28 158.5v350v56q0 63 -9 94t-42.5 49.5t-104.5 28.5v39q29 -1 85 -5t85 -4q28 0 81 4t79 5v-559q0 -124 32.5 -204.5t137.5 -80.5q77 0 141.5 42t101.5 112t37 149v274v56
q0 62 -9 93.5t-41.5 50t-104.5 28.5v41q42 -2 78 -4.5t92 -6.5q53 4 85.5 6t73.5 5v-660q0 -62 13 -99.5t63 -37.5q12 0 31 2t47 4v-47zM915 1315q0 -30 -19 -50t-52 -35t-60 -26l-274 -119h-76l320 254q54 47 90 47q30 0 50.5 -20.5t20.5 -50.5z" />
    <glyph glyph-name="ugrave" unicode="&#xf9;" horiz-adv-x="1188" 
d="M1147 47l-285 -74l-43 193q-58 -88 -149.5 -140.5t-192.5 -52.5q-102 0 -164 35t-90 99.5t-28 158.5v350v56q0 63 -9 94t-42.5 49.5t-104.5 28.5v39q29 -1 85 -5t85 -4q28 0 81 4t79 5v-559q0 -124 32.5 -204.5t137.5 -80.5q77 0 141.5 42t101.5 112t37 149v274v56
q0 62 -9 93.5t-41.5 50t-104.5 28.5v41q42 -2 78 -4.5t92 -6.5q53 4 85.5 6t73.5 5v-660q0 -62 13 -99.5t63 -37.5q12 0 31 2t47 4v-47zM842 1085h-75l-277 119q-6 3 -36.5 15.5t-49.5 25t-31 30t-12 40.5q0 28 20.5 49.5t49.5 21.5q34 0 90 -47z" />
    <glyph glyph-name="ucircumflex" unicode="&#xfb;" horiz-adv-x="1188" 
d="M1147 47l-285 -74l-43 193q-58 -88 -149.5 -140.5t-192.5 -52.5q-102 0 -164 35t-90 99.5t-28 158.5v350v56q0 63 -9 94t-42.5 49.5t-104.5 28.5v39q29 -1 85 -5t85 -4q28 0 81 4t79 5v-559q0 -124 32.5 -204.5t137.5 -80.5q77 0 141.5 42t101.5 112t37 149v274v56
q0 62 -9 93.5t-41.5 50t-104.5 28.5v41q42 -2 78 -4.5t92 -6.5q53 4 85.5 6t73.5 5v-660q0 -62 13 -99.5t63 -37.5q12 0 31 2t47 4v-47zM870 1085h-64l-219 164l-227 -164h-62l234 301h112z" />
    <glyph glyph-name="udieresis" unicode="&#xfc;" horiz-adv-x="1188" 
d="M1147 47l-285 -74l-43 193q-58 -88 -149.5 -140.5t-192.5 -52.5q-102 0 -164 35t-90 99.5t-28 158.5v350v56q0 63 -9 94t-42.5 49.5t-104.5 28.5v39q29 -1 85 -5t85 -4q28 0 81 4t79 5v-559q0 -124 32.5 -204.5t137.5 -80.5q77 0 141.5 42t101.5 112t37 149v274v56
q0 62 -9 93.5t-41.5 50t-104.5 28.5v41q42 -2 78 -4.5t92 -6.5q53 4 85.5 6t73.5 5v-660q0 -62 13 -99.5t63 -37.5q12 0 31 2t47 4v-47zM829 1245q0 -44 -29.5 -76t-75.5 -32q-44 0 -74 32t-30 76q0 42 32 71.5t72 29.5q43 0 74 -29.5t31 -71.5zM548 1245q0 -44 -29.5 -76
t-74.5 -32q-46 0 -75.5 32t-29.5 76q0 43 31.5 72t73.5 29t73 -30t31 -71z" />
    <glyph glyph-name="dagger" unicode="&#x2020;" horiz-adv-x="1024" 
d="M961 836q0 -41 -29.5 -68t-69.5 -27q-17 0 -31.5 4t-27.5 9.5t-37 17.5q-56 31 -90 31q-36 0 -66.5 -25t-50.5 -61l66 -68l-82 -1089h-49q-4 107 -5 171.5t-2.5 143.5t-6 158t-15.5 155l-59 461l63 68q-16 34 -51 62t-70 28q-36 0 -88 -31q-56 -33 -94 -33
q-40 0 -70 28.5t-30 70.5q0 26 16.5 42.5t44.5 16.5q55 0 55 -49v-12v-21q0 -20 13 -20q9 0 17 7t16 21.5t16 26.5q31 47 86 47q51 0 88 -37q10 -10 20 -21t17 -16.5t12 -5.5q20 0 20 25q0 20 -28.5 95.5t-28.5 117.5q0 49 27.5 108t27.5 62q0 11 -21.5 39.5t-21.5 58.5
t22 50t52 20q26 0 47 -20t21 -46q0 -30 -22.5 -60.5t-22.5 -39.5q0 -15 17 -45.5t28.5 -59t11.5 -67.5q0 -31 -7.5 -57.5t-18 -57t-20 -59.5t-9.5 -45q0 -21 12 -21q4 0 11.5 4t16 11t16 14.5l15.5 15.5q41 37 88 37q51 0 82 -47q10 -17 18 -29.5t15 -19t16 -6.5q15 0 15 20
q0 4 -0.5 6.5t-1.5 5.5v13q0 57 51 57q32 0 49 -17t17 -48z" />
    <glyph glyph-name="degree" unicode="&#xb0;" horiz-adv-x="819" 
d="M666 1120q0 -69 -34.5 -128t-94 -93.5t-127.5 -34.5q-105 0 -180 75.5t-76 180.5q0 68 34.5 127.5t93.5 94t128 34.5q68 0 127 -35t94 -94t35 -127zM598 1120q0 40 -14 73.5t-41 60.5t-61 41t-74 14q-78 0 -132.5 -55.5t-54.5 -133.5t55 -133t134 -55q50 0 93.5 25t69 68
t25.5 95z" />
    <glyph glyph-name="cent" unicode="&#xa2;" 
d="M948 369q-62 -76 -150.5 -117t-187.5 -41q-79 0 -168 27l-100 -261h-76l113 287q-107 48 -169.5 158t-62.5 231q0 102 37.5 192t105 156.5t157 103t192.5 36.5q26 0 84 -4l92 227h76l-94 -240q50 -15 87.5 -46t37.5 -77q0 -28 -19.5 -47.5t-48.5 -19.5q-77 0 -90 110h-4
l-277 -710q53 -31 92 -44.5t87 -13.5q67 0 126 37t119 97zM702 1083q-28 11 -61 11q-156 0 -222.5 -127t-66.5 -299q0 -183 76 -277z" />
    <glyph glyph-name="sterling" unicode="&#xa3;" 
d="M1030 266q0 -116 -67.5 -204.5t-180.5 -88.5q-41 0 -83 11t-77.5 26t-79 39t-73.5 41l-35 21q-37 -60 -105 -99t-139 -39q-63 0 -108 38t-45 98q0 72 47.5 115.5t120.5 43.5q110 0 201 -53l10 117q0 39 -6.5 80t-17.5 81.5t-24.5 83t-29.5 89.5h-246v73h223
q-47 172 -47 269q0 109 47 193.5t133 129.5t195 45q162 0 258 -80q27 -22 46.5 -54t19.5 -66t-22 -60t-56 -26q-43 0 -64 28t-30 74q-18 65 -25 76q-19 30 -55.5 45.5t-77.5 15.5q-93 0 -148 -61t-55 -156q0 -78 23 -172l49 -201h323v-73h-307q29 -109 29 -193
q0 -163 -66 -283q56 -23 139 -40t144 -17q171 0 262 152v-19zM387 145q-38 20 -62.5 33.5t-54 24t-61.5 10.5q-50 0 -85.5 -26t-35.5 -74q0 -84 113 -84q122 0 186 116z" />
    <glyph glyph-name="section" unicode="&#xa7;" horiz-adv-x="1024" 
d="M913 463q0 -84 -39.5 -144.5t-117.5 -119.5q44 -33 74.5 -75.5t47.5 -93t17 -102.5q0 -107 -52.5 -185.5t-142.5 -119.5t-196 -41q-89 0 -181 32t-152 97t-60 158q0 51 33.5 90t82.5 39q45 0 79 -35t34 -80q0 -40 -39 -90q-10 -11 -19.5 -20.5t-15.5 -18.5t-6 -18
q0 -54 90 -80.5t162 -26.5q116 0 199.5 59.5t83.5 172.5q0 49 -21 85t-55.5 64t-63.5 44t-98 52l-108 58q-103 55 -171.5 104.5t-114.5 122.5t-46 168q0 89 49.5 156.5t132.5 99.5q-60 52 -96.5 125.5t-36.5 149.5q0 97 44 166.5t120.5 105t173.5 35.5q77 0 156.5 -24.5
t134.5 -77t55 -130.5q0 -50 -31.5 -85.5t-79.5 -35.5q-46 0 -76 28t-30 75q0 42 37 80t37 51q0 38 -74 55t-127 17q-63 0 -118 -20.5t-89.5 -63.5t-34.5 -105q0 -82 59.5 -135.5t165.5 -112.5l111 -61q143 -79 228 -169t85 -220zM836 406q0 68 -62 116.5t-158 100.5l-133 73
l-147 92q-68 -37 -105.5 -72.5t-37.5 -92.5q0 -42 31.5 -80t69.5 -63t93 -56l182 -105l148 -92q55 42 87 84t32 95z" />
    <glyph glyph-name="bullet" unicode="&#x2022;" horiz-adv-x="942" 
d="M823 698q0 -94 -48 -175t-130 -128t-180 -47q-91 0 -170.5 47t-127.5 128t-48 175q0 95 48 175.5t131 127t179 46.5q92 0 171.5 -46.5t127 -127.5t47.5 -175z" />
    <glyph glyph-name="paragraph" unicode="&#xb6;" horiz-adv-x="1229" 
d="M1047 -338h-328v1616h-94v-1616h-349v47q95 3 137.5 11t59.5 59q11 31 15 104.5t4 159.5v6v584q-19 0 -31 -0.5t-27 -1.5q-174 0 -270 90t-96 262q0 132 67 213t174.5 114t241.5 33h496v-47h-35q-52 0 -88.5 -13t-53.5 -50q-18 -43 -18 -221v-963v-6q0 -213 22 -270
q13 -32 39.5 -44t63.5 -15t70 -5v-47z" />
    <glyph glyph-name="germandbls" unicode="&#xdf;" horiz-adv-x="1106" 
d="M1016 350q0 -75 -24 -142.5t-71.5 -122t-109.5 -83.5t-139 -29q-41 0 -83.5 13.5t-73 42t-30.5 69.5q0 32 18 51t50 19q30 0 50.5 -22t23.5 -52q6 -45 14 -59.5t45 -14.5q79 0 109 109t30 219q0 124 -25.5 209t-84.5 131.5t-156 46.5q-31 0 -49 -2v55q86 3 133.5 20.5
t71.5 70.5t24 168q0 303 -188 303q-120 0 -159.5 -101t-39.5 -256q1 -28 1.5 -52t0.5 -56v-672q0 -22 -0.5 -35t-1.5 -28q0 -50 18.5 -77t75.5 -32v-45q-31 1 -87 4.5t-103 3.5q-54 0 -118 -3.5t-101 -4.5v47q69 5 98 18.5t37 39.5t8 79v51v709q0 100 12 175t56 134
q53 73 136 110.5t177 37.5q149 0 259 -89t110 -235q0 -118 -77.5 -196t-201.5 -113v-4q80 -7 148 -41.5t117 -89.5t74.5 -126t25.5 -153z" />
    <glyph glyph-name="registered" unicode="&#xae;" horiz-adv-x="1516" 
d="M1444 676q0 -141 -52.5 -270t-147 -226.5t-220.5 -152t-264 -54.5t-263.5 54t-222 152t-149.5 226t-53 271q0 144 53 271t148 223.5t222 151t265 54.5q185 0 342.5 -94t249.5 -256t92 -350zM1354 676q0 165 -78.5 306t-215 222.5t-300.5 81.5q-123 0 -231.5 -46
t-191 -130.5t-129 -197t-46.5 -236.5q0 -167 79.5 -308t217.5 -223t301 -82q164 0 300.5 81.5t215 223.5t78.5 308zM1118 313h-86q-54 0 -82 23q-31 25 -78 147q-1 1 -21 47.5t-32 69.5t-28 39q-31 29 -105 29h-14h-35v-252q0 -36 7 -50t26 -17t61 -5v-31h-291v31
q64 6 78 11.5t14 50.5v585q0 29 -7.5 40t-22 13.5t-64.5 6.5v30h342q110 0 179 -43.5t69 -148.5q0 -88 -61 -139.5t-148 -61.5v-4h4v-2h4q50 0 82.5 -52t73.5 -145q46 -99 61 -118q26 -23 74 -23v-31zM922 879q0 83 -48 125.5t-131 42.5h-53q-33 0 -43 -17t-10 -51v-16v-258
h53q105 0 168.5 38t63.5 136z" />
    <glyph glyph-name="copyright" unicode="&#xa9;" horiz-adv-x="1516" 
d="M1444 674q0 -190 -92.5 -351t-252 -255.5t-345.5 -94.5q-138 0 -261.5 54t-220 152.5t-148.5 224.5t-52 268q0 190 91 352t248 257t341 95q187 0 347 -94t252.5 -255.5t92.5 -352.5zM1354 702q0 122 -47.5 228.5t-131 186.5t-193 124.5t-230.5 44.5q-163 0 -298.5 -82.5
t-213.5 -222.5t-78 -309q0 -125 45 -235t126 -194.5t190 -132t231 -47.5q163 0 297 81.5t214 221.5t89 308v28zM1067 463q-23 -60 -71.5 -103.5t-110 -65.5t-127.5 -22q-109 0 -195 51t-132 140.5t-46 202.5q0 119 49 210.5t138.5 142t205.5 50.5q128 0 273 -51v-207h-52
q-2 98 -54 152.5t-152 54.5q-92 0 -154.5 -45.5t-93.5 -121.5t-31 -167q0 -88 32 -169t96 -133t151 -52q81 0 141.5 39t91.5 110z" />
    <glyph glyph-name="trademark" unicode="&#x2122;" horiz-adv-x="2007" 
d="M1905 569h-318v41q49 2 69 7t28 24t8 64v610h-4l-308 -746h-16l-309 746h-4v-635q0 -44 24 -57t78 -13v-41h-252v41q59 2 78.5 11.5t19.5 56.5v606v27q0 32 -11.5 38.5t-69.5 6.5v41h223l264 -631l270 631h230v-41h-37q-62 0 -62 -37v-612q0 -44 7 -62.5t26 -25t66 -9.5
v-41zM762 1200h-47q0 88 -33 117t-125 29h-84v-646q0 -63 23 -77q21 -13 82 -13h24v-41h-373v41h25q60 0 82 13q22 14 22 77v646h-84q-61 0 -94.5 -11.5t-48 -42t-14.5 -92.5h-47v197h692v-197z" />
    <glyph glyph-name="acute" unicode="&#xb4;" horiz-adv-x="737" 
d="M616 1315q0 -30 -19 -50t-52 -35t-60 -26l-274 -119h-76l320 254q54 47 90 47q30 0 50.5 -20.5t20.5 -50.5z" />
    <glyph glyph-name="dieresis" unicode="&#xa8;" horiz-adv-x="778" 
d="M625 1245q0 -44 -29.5 -76t-75.5 -32q-44 0 -74 32t-30 76q0 42 32 71.5t72 29.5q43 0 74 -29.5t31 -71.5zM344 1245q0 -44 -29.5 -76t-74.5 -32q-46 0 -75.5 32t-29.5 76q0 43 31.5 72t73.5 29t73 -30t31 -71z" />
    <glyph glyph-name="notequal" unicode="&#x2260;" horiz-adv-x="1124" 
d="M1087 289h-602l-163 -289h-111l166 289h-340v96h393l158 279h-551v96h604l164 291h108l-163 -291h337v-96h-391l-155 -279h546v-96z" />
    <glyph glyph-name="AE" unicode="&#xc6;" horiz-adv-x="1802" 
d="M1733 330l-19 -330h-1114v47q71 0 115 12t61 58q21 53 21 266v2v4v268h-322l-205 -395q-18 -36 -32 -68t-15 -55v-6q0 -53 44.5 -68.5t117.5 -17.5v-51q-104 8 -233 8q-118 0 -213 -8v51q71 7 127 43q18 12 43 43t45.5 65.5t37 64.5l27.5 50l459 877q39 70 39 90
q0 16 -51 16h-13h-127v56h1092v-310h-47q-19 116 -61.5 170.5t-111 69t-190.5 14.5h-147q-47 0 -51 -8q-2 -6 -2 -24v-52v-485h39q167 0 225 63.5t69 188.5h48q-2 -52 -3.5 -86t-3.5 -81t-2 -73v-39v-30q0 -24 2 -68t3.5 -76t3.5 -80h-48q-13 102 -53 151.5t-102 62
t-178 12.5v-336q0 -158 36 -207q56 -74 238 -74h25q120 2 195.5 21.5t123 78t60.5 175.5h47zM797 723v559h-4l-285 -559h289z" />
    <glyph glyph-name="Oslash" unicode="&#xd8;" horiz-adv-x="1679" 
d="M1583 672q0 -148 -58.5 -276.5t-161.5 -223.5t-238 -147t-281 -52q-222 0 -379 90l-156 -223h-108l188 269q-139 98 -216 241t-77 312q0 149 59.5 281.5t163 229t240 150t287.5 53.5q100 0 188.5 -21.5t167.5 -66.5l135 197h107l-170 -242q151 -97 230 -244t79 -327z
M1141 1204q-56 56 -134.5 86.5t-162.5 30.5q-168 0 -279 -92.5t-162 -238t-51 -308.5q0 -273 117 -457zM1327 662q0 305 -127 473l-674 -979q140 -127 301 -127q175 0 287.5 86.5t162.5 229t50 317.5z" />
    <glyph glyph-name="infinity" unicode="&#x221e;" horiz-adv-x="1460" 
d="M1407 526q0 -186 -115 -307q-50 -53 -111.5 -83t-123.5 -30q-60 0 -112 25t-101.5 80t-98.5 139l-24 43q-44 -83 -90.5 -134.5t-103 -75t-130.5 -23.5q-100 0 -177.5 47t-122 132t-44.5 189q0 102 40.5 186.5t110.5 132.5t156 48q112 0 183 -68q54 -54 110 -159
q48 108 95 166q95 110 276 110q72 0 128 -19.5t110 -64.5q145 -124 145 -334zM1350 526q0 90 -38 169.5t-104 125t-141 45.5q-104 0 -172 -84q-29 -36 -54.5 -92t-78.5 -196l-12 -29q49 -101 93 -156.5t97.5 -81.5t120.5 -26q83 0 149 41.5t103 115.5t37 168zM625 590
q-38 80 -75 125t-84.5 67.5t-107.5 22.5q-74 0 -130 -35t-87.5 -97t-31.5 -143q0 -79 30.5 -147t83 -106.5t115.5 -38.5q60 0 115 36.5t84 92.5q39 77 77 190z" />
    <glyph glyph-name="plusminus" unicode="&#xb1;" 
d="M997 575h-417v-370h-95v370h-417v95h417v364h95v-364h417v-95zM997 0h-929v94h929v-94z" />
    <glyph glyph-name="lessequal" unicode="&#x2264;" horiz-adv-x="1124" 
d="M1065 221l-1006 498v51l1006 502v-111l-842 -416l842 -417v-107zM1065 0h-1006v96h1006v-96z" />
    <glyph glyph-name="greaterequal" unicode="&#x2265;" horiz-adv-x="1124" 
d="M1065 723l-1006 -502v111l842 416l-842 417v107l1006 -498v-51zM1065 0h-1006v96h1006v-96z" />
    <glyph glyph-name="yen" unicode="&#xa5;" 
d="M1094 1305q-42 -9 -72.5 -32.5t-51.5 -50.5t-55 -79l-210 -332h237v-74h-285l-43 -65v-129h314v-74h-314v-268q0 -71 10.5 -98.5t51.5 -39.5t143 -20v-47q-46 1 -132 4.5t-159 3.5t-161 -3.5t-136 -4.5v47q104 8 145.5 20t52.5 39t11 99v268h-303v74h303v108l-53 86h-262
v74h219l-156 270q-42 75 -76.5 128.5t-62.5 72.5q-20 13 -76 23v47q42 -1 126 -5t126 -4q43 0 129 4t129 5v-47h-16q-139 0 -139 -66q0 -71 153 -332l101 -172l145 230q119 190 119 254q0 51 -35.5 63t-110.5 23v47q34 -1 102 -5t101 -4t96 4t95 5v-47z" />
    <glyph glyph-name="uni00B5" unicode="&#xb5;" horiz-adv-x="1188" 
d="M1147 47l-285 -74l-43 193q-58 -88 -149.5 -140.5t-192.5 -52.5q-70 0 -123 23q9 -92 37 -229q8 -46 12.5 -72.5t8.5 -53t4 -53.5q0 -57 -27.5 -100t-83.5 -43q-49 0 -79.5 41.5t-30.5 93.5v1036v56q0 63 -9 94t-42.5 49.5t-104.5 28.5v39q29 -1 85 -5t85 -4q28 0 81 4
t79 5v-559q0 -124 32.5 -204.5t137.5 -80.5q77 0 141.5 42t101.5 112t37 149v274v56q0 62 -9 93.5t-41.5 50t-104.5 28.5v41q42 -2 78 -4.5t92 -6.5q53 4 85.5 6t73.5 5v-660q0 -62 13 -99.5t63 -37.5q12 0 31 2t47 4v-47z" />
    <glyph glyph-name="partialdiff" unicode="&#x2202;" horiz-adv-x="1012" 
d="M995 920q0 -140 -28 -281t-81.5 -263.5t-127.5 -219.5q-143 -187 -355 -187q-154 0 -245.5 91.5t-91.5 244.5q0 157 76.5 296.5t203.5 222.5t270 83q106 0 189 -51q44 -27 72 -58t51 -81h4q10 147 10 186q0 117 -41.5 202t-120 130t-184.5 45q-100 0 -171.5 -37.5
t-129.5 -122.5h-45q35 74 61.5 116t63.5 79q49 51 117 79.5t137 28.5q47 0 94 -13.5t88 -39.5t70 -59q114 -130 114 -391zM911 629q-36 105 -111 165t-173 60q-81 0 -157.5 -49t-121.5 -127q-33 -57 -60 -132t-41 -146.5t-14 -135.5q0 -108 53.5 -172.5t143.5 -64.5
q72 0 152 49.5t147 136.5q70 93 112 188.5t70 227.5z" />
    <glyph glyph-name="summation" unicode="&#x2211;" horiz-adv-x="1460" 
d="M1419 212l-63 -416h-1313v37l670 831l-670 814v39h1278l27 -338h-39q-16 133 -76 194.5t-174 61.5h-740l562 -685l-629 -778h819q54 0 114.5 17t90.5 39q36 25 60.5 71t43.5 121z" />
    <glyph glyph-name="product" unicode="&#x220f;" horiz-adv-x="1686" 
d="M1640 -204h-598v37h35q87 0 125.5 37.5t38.5 118.5v1450h-797v-1450q0 -79 39.5 -117.5t122.5 -38.5h37v-37h-598v37h35q87 0 125.5 37.5t38.5 118.5v1335q0 83 -38.5 119.5t-125.5 36.5h-35v37h1595v-37h-34q-85 0 -124.5 -36.5t-39.5 -119.5v-1335q0 -81 39.5 -118.5
t124.5 -37.5h34v-37z" />
    <glyph glyph-name="uniF006" unicode="&#xf006;" horiz-adv-x="1124" 
d="M1049 258q-7 -61 -18.5 -104.5t-31.5 -79.5q-24 -48 -66.5 -76.5t-90.5 -28.5q-35 0 -69.5 16.5t-53.5 43.5q-32 44 -46 107.5t-14 168.5q0 62 7 158q3 27 5 52.5t9 98.5q2 18 5.5 48t6.5 55l6 53h-260l-4 -61q-17 -294 -39.5 -450t-58.5 -223t-94 -67q-34 0 -59 25
t-25 59q0 27 12 52t43 67q46 59 68.5 113t37.5 143q15 85 22.5 160.5t12.5 181.5h-45q-50 0 -74 -6.5t-51 -26.5q-46 -36 -90 -110h-39q52 160 116.5 224t174.5 64h703v-145h-242q-17 -109 -26 -222.5t-9 -215.5q0 -93 33 -142t92 -49q97 0 117 117h35z" />
    <glyph glyph-name="integral" unicode="&#x222b;" horiz-adv-x="561" 
d="M561 1755q0 -29 -12.5 -53t-34 -36.5t-47.5 -12.5q-36 0 -76 35q-20 20 -39 20q-41 0 -41 -63q0 -46 11 -146q18 -204 27 -371t9 -294l-2 -121l-14 -471q-6 -190 -49 -320q-22 -67 -68 -104t-106 -37q-54 0 -86.5 33.5t-32.5 87.5q0 44 25 71t65 27q42 0 70 -33
q13 -14 24 -22t25 -8q39 0 39 61q0 37 -10 119q-20 170 -29 395q-3 104 -6 229q-2 70 -2 154l16 553q6 191 66 317q19 40 63.5 69.5t87.5 29.5q31 0 61.5 -15t48 -41t17.5 -53z" />
    <glyph glyph-name="ordfeminine" unicode="&#xaa;" horiz-adv-x="696" 
d="M629 907q-15 -34 -47.5 -62t-65.5 -28q-35 0 -65 24t-41 58q-102 -82 -195 -82q-52 0 -87.5 31.5t-35.5 81.5q0 72 52 110t159 88l88 43q10 9 10 27q0 73 -17 107t-81 34q-35 0 -69 -11.5t-35 -39.5q-4 -74 -54 -74q-22 0 -36.5 14.5t-14.5 35.5q0 62 71 87t148 25
q76 0 119.5 -16.5t62.5 -58t19 -115.5v-178v-25q0 -98 37 -98q10 0 17.5 5.5t14.5 14.5t15 21zM401 944v184l-60 -30t-69 -38.5t-44 -43.5t-19 -58q0 -32 19.5 -55.5t50.5 -23.5q30 0 62.5 18t59.5 47z" />
    <glyph glyph-name="ordmasculine" unicode="&#xba;" horiz-adv-x="737" 
d="M657 1100q0 -80 -38.5 -144.5t-105 -101.5t-146.5 -37q-78 0 -144 38.5t-104.5 104t-38.5 144.5q0 76 40 138.5t106.5 98t140.5 35.5q77 0 143 -36.5t106.5 -100.5t40.5 -139zM528 1092q0 60 -14 116t-48 93.5t-95 37.5q-60 0 -96.5 -34.5t-51 -87t-14.5 -109.5
q0 -254 168 -254q82 0 116.5 72.5t34.5 165.5z" />
    <glyph glyph-name="uni2126" unicode="&#x2126;" horiz-adv-x="1573" 
d="M1518 0h-568l23 279q97 39 158 102t89.5 154.5t28.5 218.5q0 259 -123 405q-64 76 -152 117t-192 41q-102 0 -187 -39.5t-147 -112.5t-95.5 -175t-33.5 -222q0 -133 38 -242.5t106 -171.5q31 -28 57 -42.5t76 -32.5l22 -279h-563v279h35q3 -61 31 -82q26 -20 55.5 -27.5
t83.5 -7.5h270v69q-137 40 -236.5 118.5t-150.5 190t-51 248.5q0 130 50.5 241t142.5 191t218.5 123t278.5 43q154 0 283.5 -43.5t221 -121.5t143 -189.5t51.5 -243.5q0 -137 -54.5 -253t-154.5 -195.5t-230 -108.5l-8 -69h275q88 0 125 24.5t45 92.5h39v-279z" />
    <glyph glyph-name="ae" unicode="&#xe6;" horiz-adv-x="1475" 
d="M1401 578q0 -27 -27 -27q-7 1 -13.5 1.5t-17.5 0.5q-2 0 -4.5 -0.5t-5.5 -1.5h-559q-2 -16 -2 -53q0 -175 78.5 -317t239.5 -142q70 0 133.5 38.5t109.5 100.5l41 -33q-59 -77 -146 -124.5t-179 -47.5q-109 0 -217 49t-162 136q-100 -91 -188.5 -138t-196.5 -47
q-91 0 -153 47t-62 138q0 72 51.5 129.5t130.5 100.5t157 72.5t140 53.5q43 16 53 33q5 9 7.5 47t2.5 70q0 101 -45.5 145.5t-148.5 44.5q-94 0 -115 -28.5t-49 -99.5t-80 -71q-30 0 -53 20.5t-23 51.5q0 69 59 107.5t137 52.5t144 14q102 0 178 -24t107 -95q72 62 147 90.5
t172 28.5q70 0 134.5 -23t115.5 -65.5t80 -103t29 -131.5zM1210 670q0 51 -24 93.5t-67 66.5t-95 24q-102 0 -166.5 -71t-75.5 -177h340h31q32 0 44.5 11.5t12.5 52.5zM651 195q-28 63 -39.5 137.5t-11.5 152.5q-31 -13 -100.5 -43.5t-121 -63.5t-85 -78t-33.5 -103
q0 -60 35.5 -101t95.5 -41q56 0 128 43t132 97z" />
    <glyph glyph-name="oslash" unicode="&#xf8;" horiz-adv-x="1147" 
d="M1061 442q0 -102 -38 -187.5t-107 -149t-159.5 -98t-189.5 -34.5q-136 0 -237 56l-129 -195h-92l161 232q-60 38 -102 97t-64 129.5t-22 143.5q0 131 67 237.5t181 167t241 60.5q130 0 230 -53l117 170h88l-142 -209q91 -60 144 -158t53 -209zM754 776q-30 37 -77 57.5
t-95 20.5q-85 0 -143 -35.5t-90.5 -93.5t-47 -131t-14.5 -150q0 -79 9.5 -148t39.5 -130zM856 430q0 197 -57 285l-422 -619q34 -37 87 -56.5t107 -19.5q106 0 169 60t89.5 154.5t26.5 195.5z" />
    <glyph glyph-name="questiondown" unicode="&#xbf;" horiz-adv-x="819" 
d="M657 784q0 -44 -32 -80t-78 -36q-50 0 -86.5 31.5t-36.5 78.5q0 34 15 62t40.5 44.5t59.5 16.5q47 0 82.5 -34.5t35.5 -82.5zM711 -412q0 -45 -34.5 -68.5t-82.5 -23.5q-93 0 -180.5 41.5t-156 114t-106.5 162t-38 182.5q0 118 53.5 195t147 111t210.5 34v207h56v-383
h-125q-82 0 -143 -21.5t-97.5 -71.5t-36.5 -130q0 -73 30.5 -139t86.5 -108t131 -42q25 0 85.5 11t94.5 11q42 0 73.5 -20.5t31.5 -61.5z" />
    <glyph glyph-name="exclamdown" unicode="&#xa1;" horiz-adv-x="655" 
d="M444 788q0 -48 -33 -84t-83 -36q-47 0 -82 33.5t-35 80.5t32 83t79 36q49 0 85.5 -32.5t36.5 -80.5zM442 -360q0 -60 -27 -102t-83 -42q-50 0 -80.5 41.5t-30.5 93.5q0 51 33 222q19 86 32 187.5t18 205.5t5 190q0 39 -0.5 63t-1.5 52h49v-86q0 -349 56 -612
q30 -140 30 -213z" />
    <glyph glyph-name="logicalnot" unicode="&#xac;" 
d="M997 225h-94v416h-835v94h929v-510z" />
    <glyph glyph-name="radical" unicode="&#x221a;" horiz-adv-x="1124" 
d="M1124 1870l-311 -1948l-496 1022l-198 -92l-35 63l301 152l403 -823h5l258 1626h73z" />
    <glyph glyph-name="florin" unicode="&#x192;" 
d="M1102 1503q0 -35 -27.5 -61.5t-62.5 -26.5q-43 0 -56.5 17t-44.5 65.5t-57 48.5q-75 0 -117 -116q-5 -14 -20.5 -78.5t-25.5 -119t-15 -83.5l-19 -102h224l-15 -56h-213l-61 -377q-31 -194 -63.5 -334t-84.5 -251q-62 -135 -140 -212t-204 -77q-68 0 -124 25.5t-56 84.5
q0 38 25.5 65.5t64.5 27.5q35 0 52.5 -20t31.5 -56.5t26 -54t40 -17.5q56 0 98 66t66.5 161t37.5 177t23 155l96 637h-186l16 56h181l20 106q15 73 25.5 112.5t31.5 82.5t58 92q138 172 325 172q57 0 103.5 -28.5t46.5 -80.5z" />
    <glyph glyph-name="approxequal" unicode="&#x2248;" horiz-adv-x="1124" 
d="M1073 874q-20 -152 -93.5 -236.5t-188.5 -84.5q-56 0 -123.5 26.5t-180.5 90.5q-140 78 -211 78q-72 0 -118.5 -49.5t-59.5 -137.5h-47q20 151 93 236.5t182 85.5q48 0 123 -25q56 -21 208 -102q118 -62 193 -62q41 0 68.5 13.5t54.5 46.5q39 47 49 120h51zM1073 487
q-20 -152 -93.5 -236.5t-188.5 -84.5q-56 0 -121 25t-183 90q-71 42 -121 60.5t-90 18.5q-72 0 -118.5 -49t-59.5 -137h-47q12 98 49 170.5t95 111t131 38.5q48 0 123 -25q52 -16 208 -100q118 -62 193 -62q41 0 68.5 13.5t54.5 46.5q39 47 49 120h51z" />
    <glyph glyph-name="uni2206" unicode="&#x2206;" horiz-adv-x="1253" 
d="M1227 0h-1200l628 1386zM991 82l-399 967l-440 -967h839z" />
    <glyph glyph-name="guillemotleft" unicode="&#xab;" horiz-adv-x="983" 
d="M840 737q0 -20 -39.5 -75.5t-73.5 -94.5l-94 -114l90 -113q39 -50 77 -103.5t38 -72.5q0 -8 -5.5 -14.5t-13.5 -6.5t-25.5 15.5l-17.5 15.5l-299 279q140 116 187 159l120 115q3 2 10.5 9.5t14 12.5t14.5 5q7 0 12 -5t5 -12zM506 737q0 -20 -39.5 -75.5t-73.5 -94.5
l-94 -114l90 -113q115 -145 115 -176q0 -7 -6 -14t-13 -7q-6 0 -13.5 5t-15.5 13.5t-14 12.5l-299 279q140 116 187 159l121 115l11.5 11.5t12 10.5t14.5 5t12.5 -5.5t4.5 -11.5z" />
    <glyph glyph-name="guillemotright" unicode="&#xbb;" horiz-adv-x="983" 
d="M840 453q-157 -132 -187 -160l-121 -115q-5 -4 -11 -10t-13 -11t-14 -5t-12 5t-5 11q0 22 38.5 75t74.5 95l94 115l-90 112q-115 145 -115 176q0 21 19 21q6 0 13.5 -5t15.5 -13t14 -13zM506 453q-157 -132 -187 -160l-120 -115q-4 -3 -16.5 -14.5t-22.5 -11.5
q-5 0 -11 5t-6 11q0 22 38.5 75t74.5 95l94 115l-90 112q-17 23 -43 56.5t-49 69t-23 50.5q0 9 5.5 15t13.5 6q6 0 14.5 -5.5t15.5 -12.5l13 -13z" />
    <glyph glyph-name="ellipsis" unicode="&#x2026;" horiz-adv-x="2048" 
d="M1823 94q0 -49 -34 -85t-83 -36q-47 0 -82 34t-35 81t32 83t79 36q48 0 85.5 -31.5t37.5 -81.5zM1141 94q0 -49 -34 -85t-83 -36q-48 0 -82.5 34.5t-34.5 80.5q0 47 32 83t79 36q48 0 85.5 -31.5t37.5 -81.5zM459 94q0 -49 -34 -85t-83 -36q-48 0 -82.5 34.5t-34.5 80.5
q0 47 32 83t79 36q49 0 86 -32t37 -81z" />
    <glyph glyph-name="uni00A0" unicode="&#xa0;" horiz-adv-x="532" 
 />
    <glyph glyph-name="Agrave" unicode="&#xc0;" horiz-adv-x="1352" 
d="M1399 -4q-48 1 -133 4.5t-158 3.5q-74 0 -160 -3.5t-137 -4.5v47q73 3 115.5 14.5t42.5 63.5q0 51 -41 160l-80 211h-506l-18 -52q-14 -35 -39.5 -99t-42.5 -120t-17 -90q0 -30 15 -47.5t38.5 -25t55.5 -10.5t57 -5v-47q-36 1 -102 4.5t-123 3.5q-53 0 -115 -3.5
t-98 -4.5v47q82 9 123 40t74 105q31 75 60.5 139t56.5 125.5t52 127.5l314 804h69l414 -1040q14 -34 33.5 -81t37 -83t36.5 -61q32 -41 70.5 -54.5t105.5 -21.5v-47zM821 557l-225 578l-227 -578h452zM924 1554h-75l-277 119q-6 3 -36.5 15.5t-49.5 25t-31 30t-12 40.5
q0 28 20.5 49.5t49.5 21.5q34 0 90 -47z" />
    <glyph glyph-name="Atilde" unicode="&#xc3;" horiz-adv-x="1352" 
d="M1399 -4q-48 1 -133 4.5t-158 3.5q-74 0 -160 -3.5t-137 -4.5v47q73 3 115.5 14.5t42.5 63.5q0 51 -41 160l-80 211h-506l-18 -52q-14 -35 -39.5 -99t-42.5 -120t-17 -90q0 -30 15 -47.5t38.5 -25t55.5 -10.5t57 -5v-47q-36 1 -102 4.5t-123 3.5q-53 0 -115 -3.5
t-98 -4.5v47q82 9 123 40t74 105q31 75 60.5 139t56.5 125.5t52 127.5l314 804h69l414 -1040q14 -34 33.5 -81t37 -83t36.5 -61q32 -41 70.5 -54.5t105.5 -21.5v-47zM821 557l-225 578l-227 -578h452zM963 1821q-6 -65 -55 -125q-55 -62 -117 -62q-22 0 -50.5 6.5t-53 16
t-50.5 20.5q-90 41 -129 41q-46 0 -72 -69h-55q15 72 66.5 126t120.5 54q32 0 61 -9.5t82 -31.5q28 -12 48.5 -20t41.5 -13.5t37 -5.5q49 0 72 72h53z" />
    <glyph glyph-name="Otilde" unicode="&#xd5;" horiz-adv-x="1679" 
d="M1583 684q0 -206 -99 -368.5t-269.5 -252.5t-374.5 -90q-147 0 -282.5 50.5t-239.5 144.5t-163 223.5t-59 278.5q0 150 60.5 279t167.5 226t243 149t281 52q193 0 362.5 -88.5t271 -248t101.5 -355.5zM1327 676q0 123 -26.5 237t-84 206t-152 147t-224.5 55
q-126 0 -220.5 -56t-153.5 -151t-86.5 -208.5t-27.5 -235.5q0 -272 121 -456.5t379 -184.5q130 0 223 55t148 148t79.5 208t24.5 236zM1126 1821q-6 -65 -55 -125q-55 -62 -117 -62q-22 0 -50.5 6.5t-53 16t-50.5 20.5q-90 41 -129 41q-46 0 -72 -69h-55q15 72 66.5 126
t120.5 54q32 0 61 -9.5t82 -31.5q28 -12 48.5 -20t41.5 -13.5t37 -5.5q49 0 72 72h53z" />
    <glyph glyph-name="OE" unicode="&#x152;" horiz-adv-x="2048" 
d="M2003 326l-18 -330q-128 1 -329 4.5t-368 3.5q-178 0 -538 -8h-17q-140 0 -260 49t-207 139t-133.5 212t-46.5 261q0 156 51.5 284t146.5 220t224 141.5t285 49.5h155q77 0 180.5 -4.5t159.5 -4.5q90 0 285.5 4t314.5 5v-301h-47q-19 116 -61.5 167.5t-108 64.5
t-192.5 13h-148q-41 0 -51 -10q-2 -2 -2 -20v-52v-491h39q168 0 226 64t69 188h47q-1 -40 -2.5 -80t-3.5 -87t-2 -73v-39v-30q0 -24 2 -68t3.5 -81.5t2.5 -74.5h-47q-15 103 -54 151.5t-101.5 61.5t-178.5 13v-336v-19q0 -140 37 -188q59 -74 239 -74h23q120 2 195.5 21.5
t123 78t60.5 175.5h47zM1067 403v95v497q0 105 -22 171t-80.5 102.5t-165.5 36.5q-457 0 -457 -607q0 -296 97.5 -475.5t363.5 -179.5q116 0 173.5 48.5t74 124t16.5 187.5z" />
    <glyph glyph-name="oe" unicode="&#x153;" horiz-adv-x="1720" 
d="M1647 578q0 -29 -39 -29h-588q-1 -13 -2.5 -33.5t-3.5 -39.5t-2 -30v-4q0 -95 36.5 -187.5t108.5 -154t172 -61.5q52 0 95 17t69 38.5t84 77.5l41 -33q-68 -83 -153 -124.5t-195 -41.5q-214 0 -350 166q-48 -54 -104 -91.5t-119.5 -56t-137.5 -18.5q-133 0 -242.5 60
t-172 168t-62.5 239q0 128 63.5 234t172 166.5t237.5 60.5q71 0 139 -17t127 -52t99 -89q65 74 157.5 116t192.5 42q99 0 186.5 -38.5t139 -112t51.5 -172.5zM1456 659q0 90 -50.5 142.5t-143.5 52.5q-97 0 -163 -75.5t-77 -174.5h362h23q29 0 39 9.5t10 45.5zM807 442
q0 175 -48.5 293.5t-197.5 118.5q-160 0 -217 -124t-57 -302q0 -171 57.5 -289.5t212.5 -118.5q160 0 205 115t45 307z" />
    <glyph glyph-name="endash" unicode="&#x2013;" horiz-adv-x="1024" 
d="M1024 391h-1024v137h1024v-137z" />
    <glyph glyph-name="emdash" unicode="&#x2014;" horiz-adv-x="2048" 
d="M2048 391h-2048v137h2048v-137z" />
    <glyph glyph-name="quotedblleft" unicode="&#x201c;" horiz-adv-x="819" 
d="M713 1010q0 -47 -35.5 -77t-81.5 -30q-64 0 -101.5 58t-37.5 122q0 106 51.5 174t157.5 140l26 -35q-83 -70 -117 -119t-34 -131v-18q33 26 67 26q29 0 53.5 -15.5t38 -42t13.5 -52.5zM362 1010q0 -47 -35 -77t-81 -30q-43 0 -75 27.5t-48.5 69t-16.5 83.5q0 106 53 175
t156 139l27 -35q-83 -70 -117.5 -119t-34.5 -131v-18q34 26 68 26q30 0 53.5 -15.5t37 -42t13.5 -52.5z" />
    <glyph glyph-name="quotedblright" unicode="&#x201d;" horiz-adv-x="819" 
d="M713 1217q0 -73 -26.5 -129t-70 -97t-112.5 -88l-27 35q83 70 117.5 120t34.5 130v18q-34 -26 -68 -26q-44 0 -74 33t-30 77q0 48 35.5 77.5t80.5 29.5q65 0 102.5 -57t37.5 -123zM362 1217q0 -106 -52 -175t-156 -139l-27 35q83 70 117.5 120t34.5 130v18
q-34 -26 -68 -26q-46 0 -75.5 33t-29.5 77q0 46 35.5 76.5t81.5 30.5q64 0 101.5 -57t37.5 -123z" />
    <glyph glyph-name="quoteleft" unicode="&#x2018;" horiz-adv-x="614" 
d="M436 1010q0 -47 -35.5 -77t-81.5 -30q-64 0 -101.5 58t-37.5 122q0 106 51.5 174t157.5 140l27 -35q-83 -70 -117.5 -119t-34.5 -131v-18q34 26 68 26q30 0 53.5 -15.5t37 -42t13.5 -52.5z" />
    <glyph glyph-name="quoteright" unicode="&#x2019;" horiz-adv-x="614" 
d="M436 1217q0 -73 -26.5 -129t-70 -97t-112.5 -88l-26 35q83 70 117 120t34 130v18q-32 -26 -67 -26q-45 0 -75 33t-30 77q0 46 35.5 76.5t81.5 30.5q64 0 101.5 -57t37.5 -123z" />
    <glyph glyph-name="divide" unicode="&#xf7;" 
d="M639 934q0 -45 -29.5 -77t-74.5 -32q-46 0 -75.5 32t-29.5 77q0 43 31.5 71.5t73.5 28.5q41 0 72.5 -29.5t31.5 -70.5zM997 473h-929v94h929v-94zM639 115q0 -45 -29.5 -77t-74.5 -32q-46 0 -75.5 32t-29.5 77q0 43 31.5 71.5t73.5 28.5q41 0 72.5 -29.5t31.5 -70.5z" />
    <glyph glyph-name="lozenge" unicode="&#x25ca;" horiz-adv-x="1012" 
d="M967 709l-418 -709h-111l-391 709l391 714h111zM854 709l-358 616l-340 -616l340 -615z" />
    <glyph glyph-name="ydieresis" unicode="&#xff;" horiz-adv-x="860" 
d="M891 842q-39 -1 -59.5 -17t-33 -46t-28.5 -68l-27 -60l-426 -983q-10 -25 -28 -66t-38 -73.5t-47.5 -57t-58.5 -24.5q-4 0 -6.5 -0.5t-5.5 -1.5q-22 0 -35.5 16t-13.5 35q0 39 21.5 58t69.5 43.5t65 50.5q29 45 92 188l78 174l-289 674q-39 90 -60 115q-14 15 -44.5 29
t-47.5 14v41q35 -1 105 -5t104 -4q40 0 117.5 4t114.5 5v-41q-6 -3 -43.5 -9.5t-59.5 -20t-22 -42.5q0 -22 14.5 -67.5t35.5 -96t34 -82.5l131 -313l153 369q58 135 58 190q0 38 -35 54t-78 18v41q27 -1 79 -5t79 -4q22 0 66.5 4t68.5 5v-41zM707 1245q0 -44 -29.5 -76
t-75.5 -32q-44 0 -74 32t-30 76q0 42 32 71.5t72 29.5q43 0 74 -29.5t31 -71.5zM426 1245q0 -44 -29.5 -76t-74.5 -32q-46 0 -75.5 32t-29.5 76q0 43 31.5 72t73.5 29t73 -30t31 -71z" />
    <glyph glyph-name="Ydieresis" unicode="&#x178;" 
d="M1202 1305q-57 -6 -94 -30t-63 -59t-60 -94l-354 -585v-273q0 -105 10 -144.5t49 -54t144 -22.5v-47q-53 1 -141.5 4.5t-166.5 3.5q-77 0 -169 -3.5t-144 -4.5v47q81 6 120.5 15.5t58 29t23.5 55.5t5 121v254l-189 326q-66 127 -137.5 254t-111.5 170q-15 15 -33 22
t-44.5 9.5t-41.5 5.5v47q48 -1 140.5 -5t137.5 -4q49 0 145 4t144 5v-47h-16q-138 0 -138 -66q0 -24 7.5 -47.5t21 -48t25.5 -47.5l266 -494l131 209q203 325 203 408q0 50 -39.5 64.5t-108.5 21.5v47q39 -1 110.5 -5t108.5 -4q35 0 100.5 4t100.5 5v-47zM915 1714
q0 -44 -29.5 -76t-75.5 -32q-44 0 -74 32t-30 76q0 42 32 71.5t72 29.5q43 0 74 -29.5t31 -71.5zM634 1714q0 -44 -29.5 -76t-74.5 -32q-46 0 -75.5 32t-29.5 76q0 43 31.5 72t73.5 29t73 -30t31 -71z" />
    <glyph glyph-name="fraction" unicode="&#x2215;" horiz-adv-x="246" 
d="M668 1384l-979 -1384h-109l977 1384h111z" />
    <glyph glyph-name="Euro" unicode="&#x20ac;" 
d="M1022 23h-39l-20 90q-115 -140 -306 -140q-98 0 -183.5 40.5t-150 115t-104.5 178t-53 230.5v4h-148v67h144q-2 17 -2 47q0 59 6 117h-150v68h160q41 245 174 390.5t322 145.5q86 0 150 -26.5t136 -94.5l15 88h39l10 -370h-49q-14 82 -39 146.5t-59 110t-81.5 71.5
t-107.5 26q-132 0 -212 -127.5t-103 -359.5h401v-68h-405q-2 -37 -2 -113v-51h407v-67h-405v-4q0 -150 51 -287q41 -107 108.5 -169.5t159.5 -62.5q170 0 250 242q18 58 37 182h49v-419z" />
    <glyph glyph-name="guilsinglleft" unicode="&#x2039;" horiz-adv-x="655" 
d="M510 737q0 -20 -39.5 -75.5t-73.5 -94.5l-94 -114l90 -113q115 -145 115 -176q0 -7 -6 -14t-13 -7q-6 0 -13.5 5t-15.5 13.5t-14 12.5l-299 279q140 116 187 159l121 115q6 6 12.5 12t13 10.5t13.5 4.5t11.5 -5.5t4.5 -11.5z" />
    <glyph glyph-name="guilsinglright" unicode="&#x203a;" horiz-adv-x="655" 
d="M508 453q-151 -128 -186 -160l-121 -115q-4 -3 -11 -9.5t-14 -11.5t-14 -5q-5 0 -11 5t-6 11q0 22 38.5 75t74.5 95l94 115l-90 112q-17 23 -43 56.5t-49 69t-23 50.5q0 9 5.5 15t13.5 6q6 0 14.5 -5.5t15.5 -12.5l13 -13z" />
    <glyph glyph-name="uniF001" unicode="&#xf001;" horiz-adv-x="1229" 
d="M1165 -4q-39 1 -103 4.5t-122 3.5q-59 0 -127.5 -3.5t-110.5 -4.5v41q98 7 122 37.5t24 118.5v36v398v71q0 38 -6.5 55t-27.5 23t-73 6h-360v-540v-62q0 -75 25 -106t118 -37v-41q-39 1 -103 4.5t-122 3.5t-127 -3.5t-106 -4.5v41q51 3 78.5 12t41 26.5t17.5 40.5t4 68
v45v553h-148v56h148v106q0 223 105.5 327.5t330.5 104.5q53 0 107 -6t106.5 -23t86.5 -51t34 -88q0 -35 -26.5 -58.5t-63.5 -23.5q-46 0 -56.5 18t-27.5 74t-53 83.5t-119 27.5q-111 0 -165.5 -46t-69.5 -121.5t-15 -188.5v-135h352q148 0 289 30v-626v-68q0 -49 9 -75.5
t38.5 -41.5t95.5 -20v-41z" />
    <glyph glyph-name="uniF001" unicode="&#xfb01;" horiz-adv-x="1229" 
d="M1165 -4q-39 1 -103 4.5t-122 3.5q-59 0 -127.5 -3.5t-110.5 -4.5v41q98 7 122 37.5t24 118.5v36v398v71q0 38 -6.5 55t-27.5 23t-73 6h-360v-540v-62q0 -75 25 -106t118 -37v-41q-39 1 -103 4.5t-122 3.5t-127 -3.5t-106 -4.5v41q51 3 78.5 12t41 26.5t17.5 40.5t4 68
v45v553h-148v56h148v106q0 223 105.5 327.5t330.5 104.5q53 0 107 -6t106.5 -23t86.5 -51t34 -88q0 -35 -26.5 -58.5t-63.5 -23.5q-46 0 -56.5 18t-27.5 74t-53 83.5t-119 27.5q-111 0 -165.5 -46t-69.5 -121.5t-15 -188.5v-135h352q148 0 289 30v-626v-68q0 -49 9 -75.5
t38.5 -41.5t95.5 -20v-41z" />
    <glyph glyph-name="uniF002" unicode="&#xf002;" horiz-adv-x="1270" 
d="M1196 -4q-30 1 -99 4.5t-128 3.5q-56 0 -123 -3.5t-107 -4.5v41q67 4 97 19.5t38.5 44.5t8.5 85v43v815q0 153 -46 219t-194 66q-109 0 -165.5 -42t-73.5 -114t-17 -184v-151h262v-56h-262v-538v-70q0 -50 9 -77t39 -42t93 -18v-41q-39 1 -103 4.5t-122 3.5t-127 -3.5
t-106 -4.5v41q67 4 97 20t38 44.5t8 84.5v43v553h-152v56h152v133q0 198 106 301.5t308 103.5q81 0 178 -26l252 26v-1132v-74q0 -72 25.5 -100.5t113.5 -32.5v-41z" />
    <glyph glyph-name="uniF002" unicode="&#xfb02;" horiz-adv-x="1270" 
d="M1196 -4q-30 1 -99 4.5t-128 3.5q-56 0 -123 -3.5t-107 -4.5v41q67 4 97 19.5t38.5 44.5t8.5 85v43v815q0 153 -46 219t-194 66q-109 0 -165.5 -42t-73.5 -114t-17 -184v-151h262v-56h-262v-538v-70q0 -50 9 -77t39 -42t93 -18v-41q-39 1 -103 4.5t-122 3.5t-127 -3.5
t-106 -4.5v41q67 4 97 20t38 44.5t8 84.5v43v553h-152v56h152v133q0 198 106 301.5t308 103.5q81 0 178 -26l252 26v-1132v-74q0 -72 25.5 -100.5t113.5 -32.5v-41z" />
    <glyph glyph-name="daggerdbl" unicode="&#x2021;" horiz-adv-x="1024" 
d="M909 1024q0 -35 -25.5 -59.5t-60.5 -24.5q-41 0 -102 35q-64 33 -109 33q-32 0 -61 -13l61 -65l-75 -424h-48l-73 424l59 65q-26 13 -61 13q-48 0 -109 -33q-36 -19 -55 -27t-41 -8q-37 0 -64.5 23.5t-27.5 60.5q0 33 16 53.5t49 20.5q30 0 38.5 -16.5t12.5 -46t13 -29.5
q10 0 28 18q30 37 56.5 55.5t66.5 18.5q23 0 45 -11v15q0 58 21 100q5 11 14.5 25t9.5 22q0 12 -14 29q-24 32 -24 51q0 26 19 47t46 21q24 0 44 -19t20 -45q0 -25 -21 -49q-18 -24 -18 -31q0 -11 9 -25t13 -22q23 -34 23 -119q22 11 45 11q63 0 121 -68q18 -24 28 -24
q15 0 15 26q3 33 14.5 49.5t42.5 16.5q29 0 44 -21.5t15 -52.5zM909 -70q0 -30 -15 -51.5t-44 -21.5q-31 0 -42 16t-15 49q0 27 -15 27q-9 0 -28 -25q-57 -67 -121 -67q-22 0 -45 10q0 -83 -23 -119q-5 -9 -13.5 -22t-8.5 -25q0 -7 18 -31q21 -24 21 -49q0 -24 -20.5 -43.5
t-43.5 -19.5q-26 0 -45.5 21t-19.5 46q0 19 24 51q14 19 14 29q0 7 -4 14.5t-9 14.5t-11 18q-21 37 -21 101v14q-23 -10 -45 -10q-39 0 -64.5 17t-58.5 56q-17 19 -28 19q-5 0 -7.5 -4.5t-4 -15.5t-3.5 -25q-8 -47 -49 -47q-33 0 -49 20t-16 53q0 39 26.5 61.5t65.5 22.5
q34 0 96 -32q61 -35 109 -35q34 0 61 12l-59 66l73 424h48l75 -424l-61 -66q30 -12 61 -12q45 0 109 35q59 32 102 32q36 0 61 -24t25 -60z" />
    <glyph glyph-name="periodcentered" unicode="&#x2219;" horiz-adv-x="655" 
d="M459 520q0 -53 -38.5 -94t-92.5 -41q-55 0 -93 40t-38 95q0 54 37.5 93.5t91.5 39.5q55 0 94 -38t39 -95z" />
    <glyph glyph-name="quotesinglbase" unicode="&#x201a;" horiz-adv-x="614" 
d="M436 14q0 -107 -52.5 -175.5t-156.5 -137.5l-26 35q83 70 117 120t34 130v18q-34 -27 -67 -27q-44 0 -74.5 34t-30.5 77q0 46 35.5 76.5t81.5 30.5q64 0 101.5 -58t37.5 -123z" />
    <glyph glyph-name="quotedblbase" unicode="&#x201e;" horiz-adv-x="819" 
d="M713 14q0 -107 -52.5 -175.5t-156.5 -137.5l-27 35q83 70 117.5 120t34.5 130v18q-35 -27 -68 -27q-43 0 -73.5 34t-30.5 77q0 48 35.5 77.5t80.5 29.5q65 0 102.5 -58t37.5 -123zM362 14q0 -107 -52 -175t-156 -138l-27 35q83 70 117.5 120t34.5 130v18q-35 -27 -68 -27
q-44 0 -74.5 33.5t-30.5 77.5q0 46 35.5 76.5t81.5 30.5q64 0 101.5 -58t37.5 -123z" />
    <glyph glyph-name="perthousand" unicode="&#x2030;" horiz-adv-x="2662" 
d="M2472 403q0 -81 -25 -170t-72 -163t-118 -121t-160 -47q-134 0 -220.5 89.5t-86.5 223.5q0 85 30.5 169t87 155.5t134 114t164.5 42.5q85 0 144.5 -38.5t90.5 -104.5t31 -150zM1667 403q0 -81 -25 -170t-72 -163t-118 -121t-160 -47q-135 0 -222 89.5t-87 223.5
q0 85 32 171.5t89 156.5t133.5 111.5t163.5 41.5q85 0 144.5 -38.5t90.5 -104.5t31 -150zM1448 1497l-979 -1647h-84l866 1463l-4 4q-66 -37 -119.5 -55.5t-119.5 -18.5q-67 0 -160 31q22 -62 22 -141q0 -104 -46 -219.5t-130 -193t-190 -77.5q-93 0 -164 42t-110.5 116
t-39.5 166q0 108 55.5 219t150 182.5t204.5 71.5q65 0 106 -17.5t92 -53.5t94.5 -53.5t111.5 -17.5q105 0 201 55t175 144h68zM2406 418q0 42 -10.5 81t-30.5 70.5t-52.5 51.5t-78.5 20q-63 0 -117.5 -52t-91.5 -129t-59 -162t-22 -142q0 -80 42 -139.5t119 -59.5
q70 0 126 46t95.5 119t59.5 152t20 144zM1602 418q0 42 -10.5 81.5t-32 71t-54.5 51t-78 19.5q-63 0 -117.5 -52t-91.5 -129t-59 -162t-22 -142q0 -81 42.5 -140t118.5 -59q91 0 160.5 77t106.5 186.5t37 197.5zM805 1161q0 55 -17 106t-53.5 84t-93.5 33
q-85 0 -153.5 -85.5t-106 -202t-37.5 -199.5q0 -78 42.5 -136.5t117.5 -58.5q71 0 128.5 45.5t96.5 119t57.5 152t18.5 142.5z" />
    <glyph glyph-name="Acircumflex" unicode="&#xc2;" horiz-adv-x="1352" 
d="M1399 -4q-48 1 -133 4.5t-158 3.5q-74 0 -160 -3.5t-137 -4.5v47q73 3 115.5 14.5t42.5 63.5q0 51 -41 160l-80 211h-506l-18 -52q-14 -35 -39.5 -99t-42.5 -120t-17 -90q0 -30 15 -47.5t38.5 -25t55.5 -10.5t57 -5v-47q-36 1 -102 4.5t-123 3.5q-53 0 -115 -3.5
t-98 -4.5v47q82 9 123 40t74 105q31 75 60.5 139t56.5 125.5t52 127.5l314 804h69l414 -1040q14 -34 33.5 -81t37 -83t36.5 -61q32 -41 70.5 -54.5t105.5 -21.5v-47zM821 557l-225 578l-227 -578h452zM952 1554h-64l-219 164l-227 -164h-62l234 301h112z" />
    <glyph glyph-name="Ecircumflex" unicode="&#xca;" horiz-adv-x="1270" 
d="M1186 330l-19 -330h-1114v47q71 0 115 12t61 58q21 53 21 266v2v4v565v7q0 213 -21 266q-17 46 -61 57.5t-115 11.5v56h1018v-310h-47q-19 116 -61.5 170.5t-110.5 69t-190 14.5h-148h-25q-22 0 -26 -8q-2 -4 -2 -22v-54v-485h39q167 0 225.5 64t69.5 188h47
q-1 -40 -2.5 -80t-3.5 -87t-2 -73v-39v-30q0 -24 2 -68t3.5 -81.5t2.5 -74.5h-47q-15 105 -54.5 153t-101.5 60.5t-178 12.5v-336q0 -158 37 -207q55 -74 237 -74h25q120 2 195.5 21.5t123 78t60.5 175.5h47zM911 1554h-64l-219 164l-227 -164h-62l234 301h112z" />
    <glyph glyph-name="Aacute" unicode="&#xc1;" horiz-adv-x="1352" 
d="M1399 -4q-48 1 -133 4.5t-158 3.5q-74 0 -160 -3.5t-137 -4.5v47q73 3 115.5 14.5t42.5 63.5q0 51 -41 160l-80 211h-506l-18 -52q-14 -35 -39.5 -99t-42.5 -120t-17 -90q0 -30 15 -47.5t38.5 -25t55.5 -10.5t57 -5v-47q-36 1 -102 4.5t-123 3.5q-53 0 -115 -3.5
t-98 -4.5v47q82 9 123 40t74 105q31 75 60.5 139t56.5 125.5t52 127.5l314 804h69l414 -1040q14 -34 33.5 -81t37 -83t36.5 -61q32 -41 70.5 -54.5t105.5 -21.5v-47zM821 557l-225 578l-227 -578h452zM1006 1784q0 -30 -19 -50t-52 -35t-60 -26l-274 -119h-76l320 254
q54 47 90 47q30 0 50.5 -20.5t20.5 -50.5z" />
    <glyph glyph-name="Edieresis" unicode="&#xcb;" horiz-adv-x="1270" 
d="M1186 330l-19 -330h-1114v47q71 0 115 12t61 58q21 53 21 266v2v4v565v7q0 213 -21 266q-17 46 -61 57.5t-115 11.5v56h1018v-310h-47q-19 116 -61.5 170.5t-110.5 69t-190 14.5h-148h-25q-22 0 -26 -8q-2 -4 -2 -22v-54v-485h39q167 0 225.5 64t69.5 188h47
q-1 -40 -2.5 -80t-3.5 -87t-2 -73v-39v-30q0 -24 2 -68t3.5 -81.5t2.5 -74.5h-47q-15 105 -54.5 153t-101.5 60.5t-178 12.5v-336q0 -158 37 -207q55 -74 237 -74h25q120 2 195.5 21.5t123 78t60.5 175.5h47zM870 1714q0 -44 -29.5 -76t-75.5 -32q-44 0 -74 32t-30 76
q0 42 32 71.5t72 29.5q43 0 74 -29.5t31 -71.5zM589 1714q0 -44 -29.5 -76t-74.5 -32q-46 0 -75.5 32t-29.5 76q0 43 31.5 72t73.5 29t73 -30t31 -71z" />
    <glyph glyph-name="Egrave" unicode="&#xc8;" horiz-adv-x="1270" 
d="M1186 330l-19 -330h-1114v47q71 0 115 12t61 58q21 53 21 266v2v4v565v7q0 213 -21 266q-17 46 -61 57.5t-115 11.5v56h1018v-310h-47q-19 116 -61.5 170.5t-110.5 69t-190 14.5h-148h-25q-22 0 -26 -8q-2 -4 -2 -22v-54v-485h39q167 0 225.5 64t69.5 188h47
q-1 -40 -2.5 -80t-3.5 -87t-2 -73v-39v-30q0 -24 2 -68t3.5 -81.5t2.5 -74.5h-47q-15 105 -54.5 153t-101.5 60.5t-178 12.5v-336q0 -158 37 -207q55 -74 237 -74h25q120 2 195.5 21.5t123 78t60.5 175.5h47zM883 1554h-75l-277 119q-6 3 -36.5 15.5t-49.5 25t-31 30
t-12 40.5q0 28 20.5 49.5t49.5 21.5q34 0 90 -47z" />
    <glyph glyph-name="Iacute" unicode="&#xcd;" horiz-adv-x="737" 
d="M672 -4q-50 1 -135 4.5t-160 3.5q-77 0 -166.5 -3.5t-142.5 -4.5v47q70 0 114.5 12.5t61.5 57.5q20 53 20 266v2v4v578v6q0 213 -20 266q-18 47 -62 58.5t-114 11.5v47q49 -1 147 -5t147 -4q52 0 154.5 4t155.5 5v-47q-70 0 -114 -11.5t-62 -58.5q-21 -53 -21 -266v-6
v-578v-6q0 -213 21 -266q17 -45 61.5 -57.5t114.5 -12.5v-47zM616 1784q0 -30 -19 -50t-52 -35t-60 -26l-274 -119h-76l320 254q54 47 90 47q30 0 50.5 -20.5t20.5 -50.5z" />
    <glyph glyph-name="Icircumflex" unicode="&#xce;" horiz-adv-x="737" 
d="M672 -4q-50 1 -135 4.5t-160 3.5q-77 0 -166.5 -3.5t-142.5 -4.5v47q70 0 114.5 12.5t61.5 57.5q20 53 20 266v2v4v578v6q0 213 -20 266q-18 47 -62 58.5t-114 11.5v47q49 -1 147 -5t147 -4q52 0 154.5 4t155.5 5v-47q-70 0 -114 -11.5t-62 -58.5q-21 -53 -21 -266v-6
v-578v-6q0 -213 21 -266q17 -45 61.5 -57.5t114.5 -12.5v-47zM645 1554h-64l-219 164l-227 -164h-62l234 301h112z" />
    <glyph glyph-name="Idieresis" unicode="&#xcf;" horiz-adv-x="737" 
d="M672 -4q-50 1 -135 4.5t-160 3.5q-77 0 -166.5 -3.5t-142.5 -4.5v47q70 0 114.5 12.5t61.5 57.5q20 53 20 266v2v4v578v6q0 213 -20 266q-18 47 -62 58.5t-114 11.5v47q49 -1 147 -5t147 -4q52 0 154.5 4t155.5 5v-47q-70 0 -114 -11.5t-62 -58.5q-21 -53 -21 -266v-6
v-578v-6q0 -213 21 -266q17 -45 61.5 -57.5t114.5 -12.5v-47zM604 1714q0 -44 -29.5 -76t-75.5 -32q-44 0 -74 32t-30 76q0 42 32 71.5t72 29.5q43 0 74 -29.5t31 -71.5zM323 1714q0 -44 -29.5 -76t-74.5 -32q-46 0 -75.5 32t-29.5 76q0 43 31.5 72t73.5 29t73 -30t31 -71z
" />
    <glyph glyph-name="Igrave" unicode="&#xcc;" horiz-adv-x="737" 
d="M672 -4q-50 1 -135 4.5t-160 3.5q-77 0 -166.5 -3.5t-142.5 -4.5v47q70 0 114.5 12.5t61.5 57.5q20 53 20 266v2v4v578v6q0 213 -20 266q-18 47 -62 58.5t-114 11.5v47q49 -1 147 -5t147 -4q52 0 154.5 4t155.5 5v-47q-70 0 -114 -11.5t-62 -58.5q-21 -53 -21 -266v-6
v-578v-6q0 -213 21 -266q17 -45 61.5 -57.5t114.5 -12.5v-47zM616 1554h-75l-277 119q-6 3 -36.5 15.5t-49.5 25t-31 30t-12 40.5q0 28 20.5 49.5t49.5 21.5q34 0 90 -47z" />
    <glyph glyph-name="Oacute" unicode="&#xd3;" horiz-adv-x="1679" 
d="M1583 684q0 -206 -99 -368.5t-269.5 -252.5t-374.5 -90q-147 0 -282.5 50.5t-239.5 144.5t-163 223.5t-59 278.5q0 150 60.5 279t167.5 226t243 149t281 52q193 0 362.5 -88.5t271 -248t101.5 -355.5zM1327 676q0 123 -26.5 237t-84 206t-152 147t-224.5 55
q-126 0 -220.5 -56t-153.5 -151t-86.5 -208.5t-27.5 -235.5q0 -272 121 -456.5t379 -184.5q130 0 223 55t148 148t79.5 208t24.5 236zM1210 1784q0 -30 -19 -50t-52 -35t-60 -26l-274 -119h-76l320 254q54 47 90 47q30 0 50.5 -20.5t20.5 -50.5z" />
    <glyph glyph-name="Ocircumflex" unicode="&#xd4;" horiz-adv-x="1679" 
d="M1583 684q0 -206 -99 -368.5t-269.5 -252.5t-374.5 -90q-147 0 -282.5 50.5t-239.5 144.5t-163 223.5t-59 278.5q0 150 60.5 279t167.5 226t243 149t281 52q193 0 362.5 -88.5t271 -248t101.5 -355.5zM1327 676q0 123 -26.5 237t-84 206t-152 147t-224.5 55
q-126 0 -220.5 -56t-153.5 -151t-86.5 -208.5t-27.5 -235.5q0 -272 121 -456.5t379 -184.5q130 0 223 55t148 148t79.5 208t24.5 236zM1116 1554h-64l-219 164l-227 -164h-62l234 301h112z" />
    <glyph glyph-name="Ograve" unicode="&#xd2;" horiz-adv-x="1679" 
d="M1583 684q0 -206 -99 -368.5t-269.5 -252.5t-374.5 -90q-147 0 -282.5 50.5t-239.5 144.5t-163 223.5t-59 278.5q0 150 60.5 279t167.5 226t243 149t281 52q193 0 362.5 -88.5t271 -248t101.5 -355.5zM1327 676q0 123 -26.5 237t-84 206t-152 147t-224.5 55
q-126 0 -220.5 -56t-153.5 -151t-86.5 -208.5t-27.5 -235.5q0 -272 121 -456.5t379 -184.5q130 0 223 55t148 148t79.5 208t24.5 236zM1087 1554h-75l-277 119q-6 3 -36.5 15.5t-49.5 25t-31 30t-12 40.5q0 28 20.5 49.5t49.5 21.5q34 0 90 -47z" />
    <glyph glyph-name="Uacute" unicode="&#xda;" horiz-adv-x="1597" 
d="M1528 1305q-71 -2 -108.5 -13.5t-57.5 -60.5q-29 -74 -29 -313v-379q0 -191 -53 -315.5t-171 -187.5t-310 -63q-140 0 -242 26.5t-169.5 86t-100.5 154t-33 233.5v490v6q0 213 -21 266q-18 48 -61.5 59t-114.5 11v47q47 -1 145.5 -5t145.5 -4q52 0 156.5 4t154.5 5v-47
h-10q-68 0 -109 -12t-57 -58q-8 -24 -12 -70t-5 -94.5t-1 -101.5v-6v-504q0 -136 37.5 -226.5t123.5 -138t222 -47.5q210 0 317 107.5t107 314.5v449v8q0 223 -21 284q-19 59 -66.5 77t-123.5 18v47q42 -1 119.5 -5t117.5 -4q38 0 115.5 4t114.5 5v-47zM1169 1784
q0 -30 -19 -50t-52 -35t-60 -26l-274 -119h-76l320 254q54 47 90 47q30 0 50.5 -20.5t20.5 -50.5z" />
    <glyph glyph-name="Ucircumflex" unicode="&#xdb;" horiz-adv-x="1597" 
d="M1528 1305q-71 -2 -108.5 -13.5t-57.5 -60.5q-29 -74 -29 -313v-379q0 -191 -53 -315.5t-171 -187.5t-310 -63q-140 0 -242 26.5t-169.5 86t-100.5 154t-33 233.5v490v6q0 213 -21 266q-18 48 -61.5 59t-114.5 11v47q47 -1 145.5 -5t145.5 -4q52 0 156.5 4t154.5 5v-47
h-10q-68 0 -109 -12t-57 -58q-8 -24 -12 -70t-5 -94.5t-1 -101.5v-6v-504q0 -136 37.5 -226.5t123.5 -138t222 -47.5q210 0 317 107.5t107 314.5v449v8q0 223 -21 284q-19 59 -66.5 77t-123.5 18v47q42 -1 119.5 -5t117.5 -4q38 0 115.5 4t114.5 5v-47zM1075 1554h-64
l-219 164l-227 -164h-62l234 301h112z" />
    <glyph glyph-name="Ugrave" unicode="&#xd9;" horiz-adv-x="1597" 
d="M1528 1305q-71 -2 -108.5 -13.5t-57.5 -60.5q-29 -74 -29 -313v-379q0 -191 -53 -315.5t-171 -187.5t-310 -63q-140 0 -242 26.5t-169.5 86t-100.5 154t-33 233.5v490v6q0 213 -21 266q-18 48 -61.5 59t-114.5 11v47q47 -1 145.5 -5t145.5 -4q52 0 156.5 4t154.5 5v-47
h-10q-68 0 -109 -12t-57 -58q-8 -24 -12 -70t-5 -94.5t-1 -101.5v-6v-504q0 -136 37.5 -226.5t123.5 -138t222 -47.5q210 0 317 107.5t107 314.5v449v8q0 223 -21 284q-19 59 -66.5 77t-123.5 18v47q42 -1 119.5 -5t117.5 -4q38 0 115.5 4t114.5 5v-47zM1047 1554h-75
l-277 119q-6 3 -36.5 15.5t-49.5 25t-31 30t-12 40.5q0 28 20.5 49.5t49.5 21.5q34 0 90 -47z" />
    <glyph glyph-name="dotlessi" unicode="&#x131;" horiz-adv-x="614" 
d="M539 -4q-33 1 -98 4.5t-122 3.5q-59 0 -129 -3.5t-110 -4.5v41q67 5 96 20.5t37 44t8 84.5v45v293v8q0 191 -8 220q-12 47 -107 47q-13 0 -19.5 -0.5t-14.5 -1.5v41l323 63v-657v-68q0 -50 9.5 -76.5t39 -42t95.5 -20.5v-41z" />
    <glyph glyph-name="circumflex" unicode="&#x2c6;" horiz-adv-x="860" 
d="M707 1085h-64l-219 164l-227 -164h-62l234 301h112z" />
    <glyph glyph-name="tilde" unicode="&#x2dc;" horiz-adv-x="860" 
d="M717 1352q-6 -65 -55 -125q-55 -62 -117 -62q-22 0 -50.5 6.5t-53 16t-50.5 20.5q-90 41 -129 41q-46 0 -72 -69h-55q15 72 66.5 126t120.5 54q32 0 61 -9.5t82 -31.5q28 -12 48.5 -20t41.5 -13.5t37 -5.5q49 0 72 72h53z" />
    <glyph glyph-name="macron" unicode="&#x2c9;" horiz-adv-x="819" 
d="M668 1190h-533v84h533v-84z" />
    <glyph glyph-name="breve" unicode="&#x2d8;" horiz-adv-x="819" 
d="M700 1343q-4 -74 -43.5 -133t-101.5 -91t-137 -32q-77 0 -139.5 32t-101 90.5t-42.5 133.5h53q26 -68 89.5 -101.5t140.5 -33.5q75 0 141.5 34.5t85.5 100.5h55z" />
    <glyph glyph-name="dotaccent" unicode="&#x2d9;" horiz-adv-x="492" 
d="M344 1245q0 -44 -29.5 -76t-74.5 -32q-46 0 -75.5 32t-29.5 76q0 43 31.5 72t73.5 29t73 -30t31 -71z" />
    <glyph glyph-name="ring" unicode="&#x2da;" horiz-adv-x="655" 
d="M518 1266q0 -82 -55.5 -136.5t-136.5 -54.5q-77 0 -134 55t-57 132q0 49 26 92t69.5 67.5t93.5 24.5q49 0 94 -23.5t72.5 -65t27.5 -91.5zM449 1260q0 54 -36 91.5t-89 37.5q-52 0 -85.5 -38.5t-33.5 -88.5q0 -52 36.5 -89.5t88.5 -37.5q48 0 83.5 37.5t35.5 87.5z" />
    <glyph glyph-name="cedilla" unicode="&#xb8;" horiz-adv-x="614" 
d="M463 -227q0 -60 -47.5 -92.5t-110.5 -32.5q-51 0 -110.5 29.5t-59.5 74.5q0 17 11 29t26 12q31 0 47 -47q10 -29 26 -41t46 -12q37 0 60.5 20t23.5 54q0 48 -36.5 68t-86.5 20q-16 0 -26.5 -0.5t-22.5 -1.5l55 147h57l-36 -102h8q68 0 122 -30.5t54 -94.5z" />
    <glyph glyph-name="hungarumlaut" unicode="&#x2dd;" horiz-adv-x="1106" 
d="M965 1315q0 -23 -11 -39.5t-32.5 -31t-41.5 -22.5t-44 -18l-277 -119h-76l322 254q54 47 90 47q29 0 49.5 -21.5t20.5 -49.5zM616 1315q0 -30 -19 -50t-52 -35t-60 -26l-274 -119h-76l320 254q54 47 90 47q30 0 50.5 -20.5t20.5 -50.5z" />
    <glyph glyph-name="ogonek" unicode="&#x2db;" horiz-adv-x="614" 
d="M500 -211q-37 -48 -97.5 -80.5t-117.5 -32.5q-55 0 -103.5 29t-48.5 82q0 138 270 213h41v-4q-190 -93 -190 -168q0 -27 21.5 -47.5t46.5 -20.5q57 0 137 80z" />
    <glyph glyph-name="caron" unicode="&#x2c7;" horiz-adv-x="860" 
d="M707 1386l-234 -301h-115l-223 301h64l217 -161l227 161h64z" />
    <glyph glyph-name="Lslash" unicode="&#x141;" horiz-adv-x="1270" 
d="M1237 358l-18 -362q-17 1 -48.5 4.5t-58.5 3.5q-263 0 -573.5 -3.5t-485.5 -4.5v47q71 0 115 12t61 58q21 53 21 266v2v4v143l-201 -129v82l201 135v347v6q0 213 -21 266q-18 48 -61.5 59t-114.5 11v47q48 -1 146.5 -5t146.5 -4q52 0 156.5 4t154.5 5v-47
q-70 0 -113.5 -11t-62.5 -59q-20 -53 -20 -266v-6v-226l282 193v-84l-282 -199v-289q0 -140 21 -201.5t83 -83.5t197 -22h16q87 0 154 9.5t121 41.5q69 43 93 98t40 158h51z" />
    <glyph glyph-name="lslash" unicode="&#x142;" horiz-adv-x="573" 
d="M516 -4q-39 1 -107 4.5t-126 3.5q-56 0 -121 -3.5t-105 -4.5v41q67 4 97.5 20t38.5 44.5t8 84.5v45v416l-133 -100v94l133 100v277v2q0 174 -21 217q-8 18 -22.5 28t-31 14.5t-35 6.5t-44.5 4v41l328 66v-566l135 101v-92l-135 -99v-497v-74q0 -48 9 -74t39 -40.5
t93 -18.5v-41z" />
    <glyph glyph-name="Scaron" unicode="&#x160;" 
d="M1012 371q0 -126 -70 -217t-182.5 -136t-237.5 -45q-103 0 -188 30t-170 93l-49 -86h-23v400h47q35 -172 129 -276.5t258 -104.5q80 0 147.5 30t106.5 88.5t39 137.5q0 66 -26.5 118t-68.5 86.5t-97.5 63t-118.5 51.5q-111 43 -194 92t-137 126.5t-54 185.5
q0 113 53.5 196.5t146.5 127.5t205 44q161 0 310 -104l47 80h22l11 -355h-48q-90 324 -342 324q-101 0 -170 -59.5t-69 -157.5q0 -75 38.5 -125t85.5 -76t148 -69q143 -60 234 -112.5t154 -139.5t63 -211zM809 1855l-234 -301h-115l-223 301h64l217 -161l227 161h64z" />
    <glyph glyph-name="scaron" unicode="&#x161;" horiz-adv-x="737" 
d="M672 244q0 -80 -41.5 -142t-110 -95.5t-149.5 -33.5q-132 0 -226 74l-51 -59h-20l-8 293h40q66 -261 254 -261q73 0 122.5 37t49.5 107q0 44 -18.5 75.5t-48.5 55t-73.5 45.5t-65.5 33q-75 37 -127 73t-85.5 87t-33.5 122q0 70 34 126t91 88t129 32q52 0 106.5 -14
t91.5 -37l41 49h25l-4 -256h-41q-35 99 -80 155t-131 56q-54 0 -92.5 -30.5t-38.5 -82.5q0 -38 18 -66.5t43.5 -47.5t70.5 -42t58 -30q109 -58 155.5 -88t81 -83.5t34.5 -139.5zM645 1386l-234 -301h-115l-223 301h64l217 -161l227 161h64z" />
    <glyph glyph-name="Zcaron" unicode="&#x17d;" horiz-adv-x="1229" 
d="M1153 373l-31 -373h-1050l784 1296h-297q-127 0 -198 -16.5t-116.5 -75t-62.5 -180.5h-55l20 328h975l-780 -1297h346q145 0 220 22t118 88t72 208h55zM891 1855l-234 -301h-115l-223 301h64l217 -161l227 161h64z" />
    <glyph glyph-name="zcaron" unicode="&#x17e;" horiz-adv-x="860" 
d="M813 227l-18 -227h-746l533 827h-189q-88 0 -131.5 -8t-74 -42.5t-44.5 -108.5h-39l19 206h690l-530 -827h217q98 0 144.5 9.5t79 47.5t54.5 123h35zM707 1386l-234 -301h-115l-223 301h64l217 -161l227 161h64z" />
    <glyph glyph-name="brokenbar" unicode="&#xa6;" horiz-adv-x="532" 
d="M336 666h-137v716h137v-716zM336 -358h-137v716h137v-716z" />
    <glyph glyph-name="Eth" unicode="&#xd0;" horiz-adv-x="1516" 
d="M1407 645q0 -157 -48 -279t-138.5 -204.5t-214.5 -124t-279 -41.5h-27q-60 1 -166 4.5t-198 3.5q-69 0 -150.5 -3.5t-128.5 -4.5v47q71 0 115.5 12.5t58.5 57.5q11 32 15 108.5t4 163.5v283h-162v73h162v217q0 218 -19 273q-14 45 -55 57t-108 12h-11v52q42 -1 129 -5
t129 -4q56 0 167.5 4t164.5 5h19q211 0 380.5 -85.5t265 -247t95.5 -374.5zM1151 612q0 333 -122.5 508.5t-432.5 175.5h-35q-74 0 -88 -14q-12 -12 -12 -63v-478h205v-73h-205v-312v-63q0 -115 33 -164q32 -46 92.5 -62t136.5 -16q171 0 265 73.5t128.5 197t34.5 290.5z
" />
    <glyph glyph-name="eth" unicode="&#xf0;" horiz-adv-x="1147" 
d="M1067 535q0 -150 -50 -277t-160.5 -206t-283.5 -79q-130 0 -243.5 62.5t-180.5 172t-67 241.5q0 97 40.5 179t110.5 144.5t159 95.5t181 33q95 0 165 -42.5t104 -102.5l4 4q-33 140 -89 249.5t-139 186.5l-239 -139l-70 55l244 141q-98 77 -250 129l37 52
q167 -46 305 -127l250 143l70 -55l-242 -140q344 -247 344 -720zM862 428q0 112 -25.5 207t-92 157t-179.5 62q-150 0 -214 -124.5t-64 -289.5q0 -176 67.5 -298t229.5 -122q151 0 214.5 121t63.5 287z" />
    <glyph glyph-name="Yacute" unicode="&#xdd;" 
d="M1202 1305q-57 -6 -94 -30t-63 -59t-60 -94l-354 -585v-273q0 -105 10 -144.5t49 -54t144 -22.5v-47q-53 1 -141.5 4.5t-166.5 3.5q-77 0 -169 -3.5t-144 -4.5v47q81 6 120.5 15.5t58 29t23.5 55.5t5 121v254l-189 326q-66 127 -137.5 254t-111.5 170q-15 15 -33 22
t-44.5 9.5t-41.5 5.5v47q48 -1 140.5 -5t137.5 -4q49 0 145 4t144 5v-47h-16q-138 0 -138 -66q0 -24 7.5 -47.5t21 -48t25.5 -47.5l266 -494l131 209q203 325 203 408q0 50 -39.5 64.5t-108.5 21.5v47q39 -1 110.5 -5t108.5 -4q35 0 100.5 4t100.5 5v-47zM944 1784
q0 -30 -19 -50t-52 -35t-60 -26l-274 -119h-76l320 254q54 47 90 47q30 0 50.5 -20.5t20.5 -50.5z" />
    <glyph glyph-name="yacute" unicode="&#xfd;" horiz-adv-x="860" 
d="M891 842q-39 -1 -59.5 -17t-33 -46t-28.5 -68l-27 -60l-426 -983q-10 -25 -28 -66t-38 -73.5t-47.5 -57t-58.5 -24.5q-4 0 -6.5 -0.5t-5.5 -1.5q-22 0 -35.5 16t-13.5 35q0 39 21.5 58t69.5 43.5t65 50.5q29 45 92 188l78 174l-289 674q-39 90 -60 115q-14 15 -44.5 29
t-47.5 14v41q35 -1 105 -5t104 -4q40 0 117.5 4t114.5 5v-41q-6 -3 -43.5 -9.5t-59.5 -20t-22 -42.5q0 -22 14.5 -67.5t35.5 -96t34 -82.5l131 -313l153 369q58 135 58 190q0 38 -35 54t-78 18v41q27 -1 79 -5t79 -4q22 0 66.5 4t68.5 5v-41zM752 1315q0 -30 -19 -50
t-52 -35t-60 -26l-274 -119h-76l320 254q54 47 90 47q30 0 50.5 -20.5t20.5 -50.5z" />
    <glyph glyph-name="Thorn" unicode="&#xde;" horiz-adv-x="1188" 
d="M1130 688q0 -202 -155.5 -286.5t-376.5 -84.5q-12 0 -52 2t-61.5 3.5t-23.5 1.5q2 -81 6 -133t14 -78q11 -29 30 -42.5t51.5 -19.5t60 -6.5t55.5 -1.5v-47q-55 1 -147 4.5t-173 3.5q-74 0 -161.5 -3.5t-139.5 -4.5v47q71 0 115.5 12.5t58.5 57.5q11 32 15 108.5t4 163.5
v576v6q0 88 -4 163.5t-15 104.5q-15 46 -55 58t-108 12v0h-11v47q57 -1 154 -5t135 -4q52 0 155 4t154 5v-47q-70 0 -114 -11t-62 -59q-18 -52 -18 -141v-58q42 2 92 4t82 2h24q120 -2 228 -38.5t175.5 -114.5t67.5 -201zM895 676q0 150 -72.5 225.5t-220.5 75.5
q-104 0 -127 -12q-14 -10 -14 -56v-28v-508q20 -1 40 -2.5t43 -3.5t36 -2q160 0 237.5 74t77.5 237z" />
    <glyph glyph-name="thorn" unicode="&#xfe;" horiz-adv-x="1188" 
d="M1110 432q0 -124 -57 -229.5t-158 -167.5t-227 -62q-89 0 -159.5 29t-135.5 88v-397v-58q0 -59 9.5 -88.5t42.5 -44.5t105 -18v-41q-37 1 -103.5 4.5t-123.5 3.5q-61 0 -133 -3.5t-113 -4.5v41q65 4 95 18.5t38.5 42.5t8.5 84v52v1253v4q0 199 -11 244q-8 41 -32.5 53
t-69.5 12h-35v41q84 12 322 64v-592h4q105 141 278 141q99 0 183 -35t146 -100t94 -149t32 -185zM905 438q0 101 -25.5 192.5t-88.5 148.5t-168 57q-64 0 -119 -31t-88 -86q-28 -50 -35.5 -99.5t-7.5 -130.5v-145q0 -77 7 -131t38 -92q70 -82 200 -82q152 0 219.5 117.5
t67.5 281.5z" />
    <glyph glyph-name="minus" unicode="&#x2212;" 
d="M997 473h-929v94h929v-94z" />
    <glyph glyph-name="multiply" unicode="&#xd7;" 
d="M961 160l-68 -66l-361 361l-362 -361l-66 68l361 360l-359 359l66 67l360 -358l361 360l65 -67l-360 -361z" />
    <glyph glyph-name="onesuperior" unicode="&#xb9;" horiz-adv-x="639" 
d="M535 537q-33 0 -100 2t-101 2t-101 -2t-102 -2v28h27q97 0 110 29q13 24 13 127v436v6q0 82 -15 105q-14 22 -82 22h-2h-78v25q102 5 165 16.5t130 44.5v-655v-19q0 -73 9 -100q4 -13 18.5 -21t35 -11.5t42.5 -3.5t31 -1v-28z" />
    <glyph glyph-name="twosuperior" unicode="&#xb2;" horiz-adv-x="639" 
d="M604 1147q0 -96 -56 -158.5t-163 -134.5q-163 -114 -229 -199h434l-39 -174h-29l2 45v9q0 16 -22 16h-15h-385h-67q61 110 201 237q34 32 82.5 79t80.5 88t52 92t20 108q0 51 -19 95.5t-57.5 71t-97.5 26.5q-69 0 -116.5 -39.5t-47.5 -102.5q0 -47 34 -85t85 -38
q33 0 74 35q-3 -26 -22.5 -47t-46.5 -33t-58 -12q-72 0 -113 44t-41 110q0 94 82 145t186 51q80 0 145.5 -26t105.5 -78t40 -125z" />
    <glyph glyph-name="threesuperior" unicode="&#xb3;" horiz-adv-x="639" 
d="M604 815q0 -82 -51 -146t-133 -99t-170 -35q-75 0 -145 28.5t-70 89.5q0 19 16.5 33t38.5 14q37 0 48.5 -15t25.5 -50.5t40 -53.5t79 -18q101 0 144.5 64t43.5 161q0 189 -141 189q-40 0 -56.5 -14t-44 -45t-49.5 -31q-24 0 -24 22q0 12 12 24.5t29.5 22.5t31.5 17
q97 54 144 102.5t47 132.5q0 39 -13 67t-41.5 45t-72.5 17q-58 0 -99.5 -29.5t-41.5 -82.5q0 -33 22.5 -59.5t58.5 -26.5q41 0 78 30q-12 -37 -46 -58t-79 -21q-48 0 -82 30t-34 74q0 57 39 98.5t100 62.5t119 21q56 0 106 -17t81.5 -52t31.5 -88q0 -76 -56.5 -122
t-156.5 -91l2 -5q10 3 37 3q101 0 166 -48.5t65 -140.5z" />
    <glyph glyph-name="onehalf" unicode="&#xbd;" horiz-adv-x="1597" 
d="M1540 596q0 -96 -56 -158.5t-163 -134.5q-163 -114 -229 -199h434l-39 -174h-29l2 45v9q0 16 -22 16h-15h-385h-67q59 106 200 238q127 118 181.5 188.5t54.5 177.5q0 51 -19 95.5t-57.5 71t-97.5 26.5q-69 0 -116.5 -39.5t-47.5 -102.5q0 -47 34 -85t85 -38q33 0 74 35
q-3 -26 -22.5 -47t-46.5 -33t-58 -12q-72 0 -113 44t-41 110q0 94 82 145t186 51q80 0 146 -26t105.5 -77t39.5 -126zM1341 1384l-979 -1384h-108l977 1384h110zM489 545q-34 0 -100 2t-100 2t-101 -2t-102 -2v28h27q97 0 110 29q13 25 13 127v436v6q0 82 -15 105
q-14 22 -82 22h-2h-78v25q102 5 165 16.5t130 44.5v-655v-18q0 -74 8 -101q5 -13 19 -21.5t35 -11.5t42.5 -3t30.5 -1v-28z" />
    <glyph glyph-name="onequarter" unicode="&#xbc;" horiz-adv-x="1597" 
d="M1493 262h-154v-80v-2q0 -84 11 -117q11 -36 96 -36h14h17v-29q-33 0 -96 2t-93 2q-33 0 -101 -2t-102 -2v29q99 0 117 20q25 25 25 135v80h-357v43l437 526h32v-524h154v-45zM1389 1384l-979 -1384h-109l977 1384h111zM537 545q-33 0 -100 2t-101 2t-101 -2t-102 -2v28
h27q97 0 110 29q13 25 13 127v436v6q0 82 -15 105q-14 22 -82 22h-2h-78v25q102 5 165 16.5t130 44.5v-655v-18q0 -74 9 -101q4 -13 18.5 -21t35 -11.5t42.5 -3.5t31 -1v-28zM1227 307v367h-4l-301 -367h305z" />
    <glyph glyph-name="threequarters" unicode="&#xbe;" horiz-adv-x="1597" 
d="M1493 262h-154v-80v-2q0 -84 11 -117q11 -36 96 -36h14h17v-29q-33 0 -96 2t-93 2q-33 0 -101 -2t-102 -2v29q99 0 117 20q25 25 25 135v80h-357v43l437 526h32v-524h154v-45zM1378 1384l-979 -1384h-108l977 1384h110zM604 823q0 -82 -51 -146t-133 -99t-170 -35
q-75 0 -145 28.5t-70 90.5q0 19 16.5 33t38.5 14q37 0 48.5 -15t25.5 -50.5t39 -54t80 -18.5q69 0 110.5 31t59.5 82.5t18 112.5q0 188 -141 188q-40 0 -56.5 -14t-44 -45t-49.5 -31q-24 0 -24 23q0 13 12 24.5t29.5 21.5t31.5 17q97 54 144 103t47 133q0 39 -13 67
t-41.5 45t-72.5 17q-58 0 -99.5 -30t-41.5 -83q0 -33 22.5 -59.5t58.5 -26.5q42 0 78 31q-12 -39 -45.5 -59.5t-79.5 -20.5q-48 0 -82 30t-34 74q0 57 39 98.5t100 62.5t119 21q56 0 106 -17t81.5 -52t31.5 -88q0 -76 -56.5 -122t-156.5 -91l2 -4q10 2 37 2q101 0 166 -48.5
t65 -140.5zM1227 307v367h-4l-301 -367h305z" />
    <glyph glyph-name="uni00AD" unicode="&#xad;" horiz-adv-x="492" 
d="M494 391h-494v137h494v-137z" />
    <glyph glyph-name="uni00AF" unicode="&#xaf;" horiz-adv-x="1024" 
d="M1024 1506h-1024v102h1024v-102z" />
    <glyph glyph-name="uni00B7" unicode="&#xb7;" horiz-adv-x="655" 
d="M459 520q0 -53 -38.5 -94t-92.5 -41q-55 0 -93 40t-38 95q0 54 37.5 93.5t91.5 39.5q55 0 94 -38t39 -95z" />
    <glyph glyph-name="uni2044" unicode="&#x2044;" horiz-adv-x="246" 
d="M668 1384l-979 -1384h-109l977 1384h111z" />
    <glyph glyph-name="currency" unicode="&#xa4;" 
d="M1042 694q0 -177 -127 -334l111 -110l-53 -53l-111 110q-55 -43 -108.5 -70t-108 -40t-117.5 -15h-8q-159 0 -315 121l-111 -110l-53 53l111 110q-127 157 -127 334t127 334l-111 111l53 53l111 -111q151 118 323 121h11q175 0 323 -117l111 111l53 -53l-111 -111
q127 -157 127 -334zM961 694q0 84 -32 161.5t-91 136.5t-135.5 91.5t-163.5 32.5q-118 0 -218 -56t-157.5 -153.5t-57.5 -216.5q0 -117 57.5 -215t157.5 -154.5t216 -56.5t213 58.5t154 158.5t57 213z" />
    </font>
</defs>
</svg>
