<?xml version="1.0" standalone="no"?>
<!DOCTYPE svg PUBLIC "-//W3C//DTD SVG 1.1//EN" "http://www.w3.org/Graphics/SVG/1.1/DTD/svg11.dtd" >
<svg xmlns="http://www.w3.org/2000/svg" xmlns:xlink="http://www.w3.org/1999/xlink" version="1.1">
<metadata>
Created by FontForge 20160407 at Mon Oct  3 21:17:21 2016
 By Jimmy Warting
Copyright (c) 2014 by Type Dynamic. All rights reserved.
</metadata>
<defs>
<font id="Sailec-Regular" horiz-adv-x="591" >
  <font-face 
    font-family="Sailec"
    font-weight="400"
    font-stretch="normal"
    units-per-em="1000"
    panose-1="0 0 5 0 0 0 0 0 0 0"
    ascent="750"
    descent="-250"
    x-height="510"
    cap-height="748"
    bbox="-209 -306 1188 1063"
    underline-thickness="50"
    underline-position="-100"
    stemh="91"
    stemv="81"
    unicode-range="U+000D-FB02"
  />
<missing-glyph horiz-adv-x="703" 
d="M622 0h-541v748h541v-748zM196 686l157 -256l156 256h-313zM147 108l166 265l-166 265v-530zM394 373l162 -260v521zM198 62h311l-156 255z" />
    <glyph glyph-name="f_j" unicode="fj" horiz-adv-x="604" 
d="M292 781c17 0 27 -1 38 -2v-75c-8 1 -16 2 -29 2c-62 0 -104 -40 -104 -109v-87h131v-75h-131v-435h-86v435h-99v75h99v85c0 117 71 186 181 186zM474 751c31 0 57 -25 57 -57c0 -31 -26 -56 -57 -56c-32 0 -57 25 -57 56c0 32 25 57 57 57zM517 510v-585
c0 -118 -67 -185 -173 -185c-17 0 -27 1 -40 3v75c9 -2 17 -3 30 -3c59 0 97 38 97 108v587h86z" />
    <glyph glyph-name="fi" unicode="fi" horiz-adv-x="604" 
d="M292 781c17 0 27 -1 38 -2v-75c-8 1 -16 2 -29 2c-62 0 -104 -40 -104 -109v-87h131v-75h-131v-435h-86v435h-99v75h99v85c0 117 71 186 181 186zM474 751c31 0 57 -25 57 -57c0 -31 -26 -56 -57 -56c-32 0 -57 25 -57 56c0 32 26 57 57 57zM516 0h-86v510h86v-510z" />
    <glyph glyph-name=".notdef" horiz-adv-x="703" 
d="M622 0h-541v748h541v-748zM196 686l157 -256l156 256h-313zM147 108l166 265l-166 265v-530zM394 373l162 -260v521zM198 62h311l-156 255z" />
    <glyph glyph-name="A" unicode="A" horiz-adv-x="735" 
d="M719 0h-100l-78 190h-347l-79 -190h-100l313 748h78zM228 270h279l-139 337z" />
    <glyph glyph-name="Aacute" unicode="&#xc1;" horiz-adv-x="735" 
d="M408 795h-82l149 141h120zM719 0h-100l-78 190h-347l-79 -190h-100l313 748h78zM228 270h279l-139 337z" />
    <glyph glyph-name="Abreve" unicode="&#x102;" horiz-adv-x="735" 
d="M454 938h71c0 -88 -64 -133 -157 -133s-157 45 -157 133h71c0 -45 33 -73 86 -73c52 0 86 28 86 73zM719 0h-100l-78 190h-347l-79 -190h-100l313 748h78zM228 270h279l-139 337z" />
    <glyph glyph-name="Acircumflex" unicode="&#xc2;" horiz-adv-x="735" 
d="M528 795h-75l-85 90l-86 -90h-74l119 143h82zM719 0h-100l-78 190h-347l-79 -190h-100l313 748h78zM228 270h279l-139 337z" />
    <glyph glyph-name="Adieresis" unicode="&#xc4;" horiz-adv-x="735" 
d="M294 920c29 0 52 -23 52 -51c0 -30 -23 -52 -52 -52s-52 22 -52 52c0 28 23 51 52 51zM444 920c29 0 51 -23 51 -51c0 -30 -22 -52 -51 -52s-53 22 -53 52c0 28 24 51 53 51zM719 0h-100l-78 190h-347l-79 -190h-100l313 748h78zM228 270h279l-139 337z" />
    <glyph glyph-name="Agrave" unicode="&#xc0;" horiz-adv-x="735" 
d="M406 795h-82l-187 141h121zM719 0h-100l-78 190h-347l-79 -190h-100l313 748h78zM228 270h279l-139 337z" />
    <glyph glyph-name="Amacron" unicode="&#x100;" horiz-adv-x="735" 
d="M500 834h-264v67h264v-67zM719 0h-100l-78 190h-347l-79 -190h-100l313 748h78zM228 270h279l-139 337z" />
    <glyph glyph-name="Aogonek" unicode="&#x104;" horiz-adv-x="735" 
d="M642 -140c22 0 39 4 56 12l9 -44c-23 -10 -45 -16 -79 -16c-60 0 -108 28 -108 84c0 49 37 83 97 110l-76 184h-347l-79 -190h-100l313 748h78l313 -748h-41c-57 -29 -92 -54 -92 -94c0 -31 23 -46 56 -46zM507 270l-139 337l-140 -337h279z" />
    <glyph glyph-name="Aring" unicode="&#xc5;" horiz-adv-x="735" 
d="M368 989c57 0 103 -41 103 -98s-46 -98 -103 -98c-58 0 -103 41 -103 98s45 98 103 98zM368 942c-31 0 -53 -20 -53 -51c0 -30 22 -51 53 -51c30 0 52 21 52 51c0 31 -22 51 -52 51zM719 0h-100l-78 190h-347l-79 -190h-100l313 748h78zM228 270h279l-139 337z" />
    <glyph glyph-name="Aringacute" unicode="&#x1fa;" horiz-adv-x="734" 
d="M373 772c-58 0 -103 41 -103 98c0 37 19 67 48 84l130 109h111l-151 -101c39 -13 67 -47 67 -92c0 -57 -45 -98 -102 -98zM425 870c0 31 -22 51 -52 51c-31 0 -53 -20 -53 -51c0 -30 22 -51 53 -51c30 0 52 21 52 51zM719 0h-100l-78 190h-347l-79 -190h-100l313 748h78z
M507 270l-139 337l-140 -337h279z" />
    <glyph glyph-name="Atilde" unicode="&#xc3;" horiz-adv-x="735" 
d="M295 936c62 0 88 -62 136 -62c33 0 49 24 50 55h49c4 -64 -31 -120 -90 -120c-62 0 -88 61 -136 61c-32 0 -48 -23 -49 -54h-50c-4 64 31 120 90 120zM719 0h-100l-78 190h-347l-79 -190h-100l313 748h78zM228 270h279l-139 337z" />
    <glyph glyph-name="AE" unicode="&#xc6;" horiz-adv-x="1019" 
d="M610 667v-241h327v-79h-327v-266h371v-81h-463v190h-272l-126 -190h-111l499 748h473v-81h-371zM518 270v332l-219 -332h219z" />
    <glyph glyph-name="AEacute" unicode="&#x1fc;" horiz-adv-x="1019" 
d="M692 795h-82l149 141h120zM610 667v-241h327v-79h-327v-266h371v-81h-463v190h-272l-126 -190h-111l499 748h473v-81h-371zM518 270v332l-219 -332h219z" />
    <glyph glyph-name="B" unicode="B" horiz-adv-x="686" 
d="M90 748h280c128 0 223 -66 223 -199c0 -83 -37 -135 -85 -159c62 -21 117 -81 117 -183c0 -140 -100 -207 -229 -207h-306v748zM181 667v-244h203c67 0 116 33 116 120c0 83 -58 124 -141 124h-178zM181 344v-263h204c80 0 147 37 147 131c0 96 -68 132 -139 132h-212z
" />
    <glyph glyph-name="C" unicode="C" horiz-adv-x="808" 
d="M423 758c176 0 318 -105 341 -277l-95 -9c-19 130 -119 204 -249 204c-159 0 -271 -112 -271 -302c0 -196 119 -302 273 -302c128 0 225 69 248 193l95 -8c-28 -166 -164 -267 -340 -267c-210 0 -369 141 -369 384s156 384 367 384z" />
    <glyph glyph-name="Cacute" unicode="&#x106;" horiz-adv-x="808" 
d="M454 795h-82l149 141h120zM423 758c176 0 318 -105 341 -277l-95 -9c-19 130 -119 204 -249 204c-159 0 -271 -112 -271 -302c0 -196 119 -302 273 -302c128 0 225 69 248 193l95 -8c-28 -166 -164 -267 -340 -267c-210 0 -369 141 -369 384s156 384 367 384z" />
    <glyph glyph-name="Ccaron" unicode="&#x10c;" horiz-adv-x="808" 
d="M455 795h-82l-119 143h74l86 -90l85 90h75zM423 758c176 0 318 -105 341 -277l-95 -9c-19 130 -119 204 -249 204c-159 0 -271 -112 -271 -302c0 -196 119 -302 273 -302c128 0 225 69 248 193l95 -8c-28 -166 -164 -267 -340 -267c-210 0 -369 141 -369 384
s156 384 367 384z" />
    <glyph glyph-name="Ccedilla" unicode="&#xc7;" horiz-adv-x="808" 
d="M670 265l95 -8c-27 -160 -154 -260 -321 -267l-10 -44c64 -5 111 -35 111 -95c0 -68 -61 -101 -126 -101c-39 0 -71 8 -97 21l16 53c19 -12 43 -20 73 -20c34 0 69 14 69 48c0 36 -30 50 -78 50c-12 0 -20 -2 -29 -4l25 93c-197 12 -342 151 -342 383
c0 243 156 384 367 384c176 0 318 -105 341 -277l-95 -9c-19 130 -119 204 -249 204c-159 0 -271 -112 -271 -302c0 -196 119 -302 273 -302c128 0 225 69 248 193z" />
    <glyph glyph-name="Ccircumflex" unicode="&#x108;" horiz-adv-x="808" 
d="M574 795h-75l-85 90l-86 -90h-74l119 143h82zM423 758c176 0 318 -105 341 -277l-95 -9c-19 130 -119 204 -249 204c-159 0 -271 -112 -271 -302c0 -196 119 -302 273 -302c128 0 225 69 248 193l95 -8c-28 -166 -164 -267 -340 -267c-210 0 -369 141 -369 384
s156 384 367 384z" />
    <glyph glyph-name="Cdotaccent" unicode="&#x10a;" horiz-adv-x="808" 
d="M415 925c31 0 57 -27 57 -58c0 -33 -26 -58 -57 -58c-32 0 -59 25 -59 58c0 31 27 58 59 58zM423 758c176 0 318 -105 341 -277l-95 -9c-19 130 -119 204 -249 204c-159 0 -271 -112 -271 -302c0 -196 119 -302 273 -302c128 0 225 69 248 193l95 -8
c-28 -166 -164 -267 -340 -267c-210 0 -369 141 -369 384s156 384 367 384z" />
    <glyph glyph-name="D" unicode="D" horiz-adv-x="799" 
d="M90 748h292c206 0 360 -137 360 -374s-157 -374 -362 -374h-290v748zM181 670v-592h200c156 0 270 103 270 296s-111 296 -268 296h-202z" />
    <glyph glyph-name="Eth" unicode="&#xd0;" horiz-adv-x="794" 
d="M110 748h292c206 0 360 -137 360 -374s-157 -374 -362 -374h-290v338h-107v71h107v339zM201 78h200c156 0 270 103 270 296s-111 296 -268 296h-202v-261h150v-71h-150v-260z" />
    <glyph glyph-name="Dcaron" unicode="&#x10e;" horiz-adv-x="799" 
d="M392 795h-82l-119 143h74l86 -90l85 90h75zM90 748h292c206 0 360 -137 360 -374s-157 -374 -362 -374h-290v748zM181 670v-592h200c156 0 270 103 270 296s-111 296 -268 296h-202z" />
    <glyph glyph-name="Dcroat" unicode="&#x110;" horiz-adv-x="794" 
d="M110 748h292c206 0 360 -137 360 -374s-157 -374 -362 -374h-290v338h-107v71h107v339zM201 78h200c156 0 270 103 270 296s-111 296 -268 296h-202v-261h150v-71h-150v-260z" />
    <glyph glyph-name="E" unicode="E" horiz-adv-x="593" 
d="M553 667h-371v-241h327v-79h-327v-266h371v-81h-463v748h463v-81z" />
    <glyph glyph-name="Eacute" unicode="&#xc9;" horiz-adv-x="593" 
d="M365 795h-82l149 141h120zM553 667h-371v-241h327v-79h-327v-266h371v-81h-463v748h463v-81z" />
    <glyph glyph-name="Ebreve" unicode="&#x114;" horiz-adv-x="593" 
d="M411 938h71c0 -88 -64 -133 -157 -133s-157 45 -157 133h71c0 -45 33 -73 86 -73c52 0 86 28 86 73zM553 667h-371v-241h327v-79h-327v-266h371v-81h-463v748h463v-81z" />
    <glyph glyph-name="Ecaron" unicode="&#x11a;" horiz-adv-x="593" 
d="M367 795h-82l-119 143h74l86 -90l85 90h75zM553 667h-371v-241h327v-79h-327v-266h371v-81h-463v748h463v-81z" />
    <glyph glyph-name="Ecircumflex" unicode="&#xca;" horiz-adv-x="593" 
d="M486 795h-75l-85 90l-86 -90h-74l119 143h82zM553 667h-371v-241h327v-79h-327v-266h371v-81h-463v748h463v-81z" />
    <glyph glyph-name="Edieresis" unicode="&#xcb;" horiz-adv-x="593" 
d="M252 920c29 0 52 -23 52 -51c0 -30 -23 -52 -52 -52s-52 22 -52 52c0 28 23 51 52 51zM402 920c29 0 51 -23 51 -51c0 -30 -22 -52 -51 -52s-53 22 -53 52c0 28 24 51 53 51zM553 667h-371v-241h327v-79h-327v-266h371v-81h-463v748h463v-81z" />
    <glyph glyph-name="Edotaccent" unicode="&#x116;" horiz-adv-x="593" 
d="M326 925c31 0 57 -27 57 -58c0 -33 -26 -58 -57 -58c-32 0 -59 25 -59 58c0 31 27 58 59 58zM553 667h-371v-241h327v-79h-327v-266h371v-81h-463v748h463v-81z" />
    <glyph glyph-name="Egrave" unicode="&#xc8;" horiz-adv-x="593" 
d="M363 795h-82l-187 141h121zM553 667h-371v-241h327v-79h-327v-266h371v-81h-463v748h463v-81z" />
    <glyph glyph-name="Emacron" unicode="&#x112;" horiz-adv-x="593" 
d="M457 834h-264v67h264v-67zM553 667h-371v-241h327v-79h-327v-266h371v-81h-463v748h463v-81z" />
    <glyph glyph-name="Eogonek" unicode="&#x118;" horiz-adv-x="593" 
d="M562 -128l9 -44c-23 -10 -45 -16 -79 -16c-60 0 -108 28 -108 84c0 46 32 78 85 104h-379v748h463v-81h-371v-241h327v-79h-327v-266h371v-81h-11c-57 -29 -92 -54 -92 -94c0 -31 23 -46 56 -46c22 0 39 4 56 12z" />
    <glyph glyph-name="F" unicode="F" horiz-adv-x="583" 
d="M553 667h-371v-245h309v-81h-309v-341h-92v748h463v-81z" />
    <glyph glyph-name="G" unicode="G" horiz-adv-x="821" 
d="M767 380v-31c0 -223 -135 -359 -345 -359c-208 0 -366 141 -366 384s156 384 365 384c171 0 310 -97 340 -265l-95 -15c-19 124 -116 198 -246 198c-159 0 -271 -104 -271 -302s114 -302 271 -302c136 0 234 72 249 227h-246v81h344z" />
    <glyph glyph-name="Gbreve" unicode="&#x11e;" horiz-adv-x="821" 
d="M416 805c-93 0 -157 45 -157 133h71c0 -45 33 -73 86 -73c52 0 86 28 86 73h71c0 -88 -64 -133 -157 -133zM767 380v-31c0 -223 -135 -359 -345 -359c-208 0 -366 141 -366 384s156 384 365 384c171 0 310 -97 340 -265l-95 -15c-19 124 -116 198 -246 198
c-159 0 -271 -104 -271 -302s114 -302 271 -302c136 0 234 72 249 227h-246v81h344z" />
    <glyph glyph-name="Gcircumflex" unicode="&#x11c;" horiz-adv-x="821" 
d="M331 795h-74l119 143h82l119 -143h-75l-85 90zM767 380v-31c0 -223 -135 -359 -345 -359c-208 0 -366 141 -366 384s156 384 365 384c171 0 310 -97 340 -265l-95 -15c-19 124 -116 198 -246 198c-159 0 -271 -104 -271 -302s114 -302 271 -302c136 0 234 72 249 227
h-246v81h344z" />
    <glyph glyph-name="Gcommaaccent" unicode="&#x122;" horiz-adv-x="821" 
d="M767 380v-31c0 -223 -135 -359 -345 -359c-208 0 -366 141 -366 384s156 384 365 384c171 0 310 -97 340 -265l-95 -15c-19 124 -116 198 -246 198c-159 0 -271 -104 -271 -302s114 -302 271 -302c136 0 234 72 249 227h-246v81h344zM418 -46c35 0 55 -28 55 -67
c0 -78 -34 -145 -113 -190v39c35 26 54 61 59 102c-31 0 -58 25 -58 57s24 59 57 59z" />
    <glyph glyph-name="Gdotaccent" unicode="&#x120;" horiz-adv-x="821" 
d="M417 809c-32 0 -59 25 -59 58c0 31 27 58 59 58c31 0 57 -27 57 -58c0 -33 -26 -58 -57 -58zM767 380v-31c0 -223 -135 -359 -345 -359c-208 0 -366 141 -366 384s156 384 365 384c171 0 310 -97 340 -265l-95 -15c-19 124 -116 198 -246 198c-159 0 -271 -104 -271 -302
s114 -302 271 -302c136 0 234 72 249 227h-246v81h344z" />
    <glyph glyph-name="H" unicode="H" horiz-adv-x="753" 
d="M663 0h-91v347h-390v-347h-92v748h92v-319h390v319h91v-748z" />
    <glyph glyph-name="Hbar" unicode="&#x126;" horiz-adv-x="763" 
d="M756 550h-88v-550h-91v347h-391v-347h-91v550h-88v70h88v128h91v-128h391v128h91v-128h88v-70zM577 550h-391v-121h391v121z" />
    <glyph glyph-name="Hcircumflex" unicode="&#x124;" horiz-adv-x="753" 
d="M537 795h-75l-85 90l-86 -90h-74l119 143h82zM663 0h-91v347h-390v-347h-92v748h92v-319h390v319h91v-748z" />
    <glyph glyph-name="I" unicode="I" horiz-adv-x="271" 
d="M182 0h-92v748h92v-748z" />
    <glyph glyph-name="Iacute" unicode="&#xcd;" horiz-adv-x="271" 
d="M179 795h-82l149 141h120zM182 0h-92v748h92v-748z" />
    <glyph glyph-name="Ibreve" unicode="&#x12c;" horiz-adv-x="271" 
d="M224 938h71c0 -88 -64 -133 -157 -133s-157 45 -157 133h71c0 -45 33 -73 86 -73c52 0 86 28 86 73zM182 0h-92v748h92v-748z" />
    <glyph glyph-name="Icircumflex" unicode="&#xce;" horiz-adv-x="271" 
d="M299 795h-75l-85 90l-86 -90h-74l119 143h82zM182 0h-92v748h92v-748z" />
    <glyph glyph-name="Idieresis" unicode="&#xcf;" horiz-adv-x="271" 
d="M65 920c29 0 52 -23 52 -51c0 -30 -23 -52 -52 -52s-52 22 -52 52c0 28 23 51 52 51zM215 920c29 0 51 -23 51 -51c0 -30 -22 -52 -51 -52s-53 22 -53 52c0 28 24 51 53 51zM182 0h-92v748h92v-748z" />
    <glyph glyph-name="Idotaccent" unicode="&#x130;" horiz-adv-x="271" 
d="M140 925c31 0 57 -27 57 -58c0 -33 -26 -58 -57 -58c-32 0 -59 25 -59 58c0 31 27 58 59 58zM182 0h-92v748h92v-748z" />
    <glyph glyph-name="Igrave" unicode="&#xcc;" horiz-adv-x="271" 
d="M176 795h-82l-187 141h121zM182 0h-92v748h92v-748z" />
    <glyph glyph-name="Imacron" unicode="&#x12a;" horiz-adv-x="271" 
d="M271 834h-264v67h264v-67zM182 0h-92v748h92v-748z" />
    <glyph glyph-name="Iogonek" unicode="&#x12e;" horiz-adv-x="271" 
d="M182 0h-39c-56 -28 -90 -54 -90 -93c0 -31 23 -46 56 -46c22 0 39 4 56 12l9 -44c-23 -10 -45 -16 -79 -16c-60 0 -108 28 -108 84c0 51 40 85 103 112v739h92v-748z" />
    <glyph glyph-name="Itilde" unicode="&#x128;" horiz-adv-x="271" 
d="M66 936c62 0 88 -62 136 -62c33 0 49 24 50 55h49c4 -64 -31 -120 -90 -120c-62 0 -88 61 -136 61c-32 0 -48 -23 -49 -54h-50c-4 64 31 120 90 120zM182 0h-92v748h92v-748z" />
    <glyph glyph-name="J" unicode="J" horiz-adv-x="579" 
d="M495 748v-511c0 -157 -89 -247 -233 -247c-142 0 -231 89 -239 233l92 15c5 -106 60 -166 147 -166c89 0 141 55 141 163v513h92z" />
    <glyph glyph-name="Jcircumflex" unicode="&#x134;" horiz-adv-x="579" 
d="M614 795h-75l-85 90l-86 -90h-74l119 143h82zM495 748v-511c0 -157 -89 -247 -233 -247c-142 0 -231 89 -239 233l92 15c5 -106 60 -166 147 -166c89 0 141 55 141 163v513h92z" />
    <glyph glyph-name="K" unicode="K" horiz-adv-x="675" 
d="M333 430l327 -430h-112l-276 358l-90 -101v-257h-92v748h92v-355l319 355h118z" />
    <glyph glyph-name="Kcommaaccent" unicode="&#x136;" horiz-adv-x="675" 
d="M660 0h-112l-276 358l-90 -101v-257h-92v748h92v-355l319 355h118l-286 -318zM348 -41c35 0 55 -28 55 -67c0 -78 -34 -145 -113 -190v39c35 26 54 61 59 102c-31 0 -58 25 -58 57s24 59 57 59z" />
    <glyph glyph-name="L" unicode="L" 
d="M182 81h375v-81h-467v748h92v-667z" />
    <glyph glyph-name="Lacute" unicode="&#x139;" 
d="M180 795h-82l149 141h120zM182 81h375v-81h-467v748h92v-667z" />
    <glyph glyph-name="Lcaron" unicode="&#x13d;" 
d="M574 683c0 -78 -34 -145 -113 -190v39c35 26 54 61 59 102c-31 0 -58 25 -58 57s24 59 57 59c35 0 55 -28 55 -67zM182 81h375v-81h-467v748h92v-667z" />
    <glyph glyph-name="Lcommaaccent" unicode="&#x13b;" 
d="M557 81v-81h-467v748h92v-667h375zM332 -41c35 0 55 -28 55 -67c0 -78 -34 -145 -113 -190v39c35 26 54 61 59 102c-31 0 -58 25 -58 57s24 59 57 59z" />
    <glyph glyph-name="Ldot" unicode="&#x13f;" 
d="M182 81h375v-81h-467v748h92v-667zM440 445c33 0 60 -27 60 -60c0 -32 -27 -59 -60 -59c-32 0 -58 27 -58 59c0 33 26 60 58 60z" />
    <glyph glyph-name="Lslash" unicode="&#x141;" horiz-adv-x="601" 
d="M569 81v-81h-466v267l-95 -30l-12 70l107 33v408h91v-380l112 35l11 -69l-123 -39v-214h375z" />
    <glyph glyph-name="M" unicode="M" horiz-adv-x="981" 
d="M891 0h-91v541l-278 -536h-61l-279 536v-541h-92v748h80l321 -610l321 610h79v-748z" />
    <glyph glyph-name="N" unicode="N" horiz-adv-x="750" 
d="M660 0h-78l-400 578v-578h-92v748h77l402 -579v579h91v-748z" />
    <glyph glyph-name="Nacute" unicode="&#x143;" horiz-adv-x="750" 
d="M412 795h-82l149 141h120zM660 0h-78l-400 578v-578h-92v748h77l402 -579v579h91v-748z" />
    <glyph glyph-name="Ncaron" unicode="&#x147;" horiz-adv-x="750" 
d="M413 795h-82l-119 143h74l86 -90l85 90h75zM660 0h-78l-400 578v-578h-92v748h77l402 -579v579h91v-748z" />
    <glyph glyph-name="Ncommaaccent" unicode="&#x145;" horiz-adv-x="750" 
d="M660 748v-748h-78l-400 578v-578h-92v748h77l402 -579v579h91zM382 -41c35 0 55 -28 55 -67c0 -78 -34 -145 -113 -190v39c35 26 54 61 59 102c-31 0 -58 25 -58 57s24 59 57 59z" />
    <glyph glyph-name="Eng" unicode="&#x14a;" horiz-adv-x="750" 
d="M660 748v-780c0 -134 -89 -223 -234 -223v81c88 0 143 56 143 163v30l-387 559v-578h-92v748h77l402 -579v579h91z" />
    <glyph glyph-name="Ntilde" unicode="&#xd1;" horiz-adv-x="750" 
d="M299 936c62 0 88 -62 136 -62c33 0 49 24 50 55h49c4 -64 -31 -120 -90 -120c-62 0 -88 61 -136 61c-32 0 -48 -23 -49 -54h-50c-4 64 31 120 90 120zM660 0h-78l-400 578v-578h-92v748h77l402 -579v579h91v-748z" />
    <glyph glyph-name="O" unicode="O" horiz-adv-x="866" 
d="M433 758c212 0 376 -146 376 -384s-164 -384 -376 -384c-213 0 -377 146 -377 384s164 384 377 384zM433 676c-160 0 -284 -111 -284 -302c0 -190 124 -302 284 -302s283 112 283 302c0 191 -123 302 -283 302z" />
    <glyph glyph-name="Oacute" unicode="&#xd3;" horiz-adv-x="866" 
d="M463 795h-82l149 141h120zM433 758c212 0 376 -146 376 -384s-164 -384 -376 -384c-213 0 -377 146 -377 384s164 384 377 384zM433 676c-160 0 -284 -111 -284 -302c0 -190 124 -302 284 -302s283 112 283 302c0 191 -123 302 -283 302z" />
    <glyph glyph-name="Obreve" unicode="&#x14e;" horiz-adv-x="866" 
d="M509 938h71c0 -88 -64 -133 -157 -133s-157 45 -157 133h71c0 -45 33 -73 86 -73c52 0 86 28 86 73zM433 758c212 0 376 -146 376 -384s-164 -384 -376 -384c-213 0 -377 146 -377 384s164 384 377 384zM433 676c-160 0 -284 -111 -284 -302c0 -190 124 -302 284 -302
s283 112 283 302c0 191 -123 302 -283 302z" />
    <glyph glyph-name="Ocircumflex" unicode="&#xd4;" horiz-adv-x="866" 
d="M583 795h-75l-85 90l-86 -90h-74l119 143h82zM433 758c212 0 376 -146 376 -384s-164 -384 -376 -384c-213 0 -377 146 -377 384s164 384 377 384zM433 676c-160 0 -284 -111 -284 -302c0 -190 124 -302 284 -302s283 112 283 302c0 191 -123 302 -283 302z" />
    <glyph glyph-name="Odieresis" unicode="&#xd6;" horiz-adv-x="866" 
d="M349 920c29 0 52 -23 52 -51c0 -30 -23 -52 -52 -52s-52 22 -52 52c0 28 23 51 52 51zM499 920c29 0 51 -23 51 -51c0 -30 -22 -52 -51 -52s-53 22 -53 52c0 28 24 51 53 51zM433 758c212 0 376 -146 376 -384s-164 -384 -376 -384c-213 0 -377 146 -377 384
s164 384 377 384zM433 676c-160 0 -284 -111 -284 -302c0 -190 124 -302 284 -302s283 112 283 302c0 191 -123 302 -283 302z" />
    <glyph glyph-name="Ograve" unicode="&#xd2;" horiz-adv-x="866" 
d="M461 795h-82l-187 141h121zM433 758c212 0 376 -146 376 -384s-164 -384 -376 -384c-213 0 -377 146 -377 384s164 384 377 384zM433 676c-160 0 -284 -111 -284 -302c0 -190 124 -302 284 -302s283 112 283 302c0 191 -123 302 -283 302z" />
    <glyph glyph-name="Ohungarumlaut" unicode="&#x150;" horiz-adv-x="866" 
d="M366 798h-69l61 148h82zM536 798h-68l60 148h82zM433 758c212 0 376 -146 376 -384s-164 -384 -376 -384c-213 0 -377 146 -377 384s164 384 377 384zM433 676c-160 0 -284 -111 -284 -302c0 -190 124 -302 284 -302s283 112 283 302c0 191 -123 302 -283 302z" />
    <glyph glyph-name="Omacron" unicode="&#x14c;" horiz-adv-x="866" 
d="M555 834h-264v67h264v-67zM433 758c212 0 376 -146 376 -384s-164 -384 -376 -384c-213 0 -377 146 -377 384s164 384 377 384zM433 676c-160 0 -284 -111 -284 -302c0 -190 124 -302 284 -302s283 112 283 302c0 191 -123 302 -283 302z" />
    <glyph glyph-name="Oslash" unicode="&#xd8;" horiz-adv-x="847" 
d="M748 742l-59 -76c75 -67 120 -167 120 -292c0 -238 -164 -384 -376 -384c-81 0 -154 21 -215 60l-65 -85l-56 43l66 86c-67 66 -107 162 -107 280c0 238 164 384 377 384c74 0 142 -18 199 -51l60 78zM149 374c0 -87 26 -157 69 -208l362 473c-42 24 -93 37 -147 37
c-160 0 -284 -111 -284 -302zM433 72c160 0 283 112 283 302c0 95 -30 170 -80 221l-365 -476c46 -31 101 -47 162 -47z" />
    <glyph glyph-name="Oslashacute" unicode="&#x1fe;" horiz-adv-x="847" 
d="M463 795h-82l149 141h120zM748 742l-59 -76c75 -67 120 -167 120 -292c0 -238 -164 -384 -376 -384c-81 0 -154 21 -215 60l-65 -85l-56 43l66 86c-67 66 -107 162 -107 280c0 238 164 384 377 384c74 0 142 -18 199 -51l60 78zM149 374c0 -87 26 -157 69 -208l362 473
c-42 24 -93 37 -147 37c-160 0 -284 -111 -284 -302zM433 72c160 0 283 112 283 302c0 95 -30 170 -80 221l-365 -476c46 -31 101 -47 162 -47z" />
    <glyph glyph-name="Otilde" unicode="&#xd5;" horiz-adv-x="866" 
d="M350 936c62 0 88 -62 136 -62c33 0 49 24 50 55h49c4 -64 -31 -120 -90 -120c-62 0 -88 61 -136 61c-32 0 -48 -23 -49 -54h-50c-4 64 31 120 90 120zM433 758c212 0 376 -146 376 -384s-164 -384 -376 -384c-213 0 -377 146 -377 384s164 384 377 384zM433 676
c-160 0 -284 -111 -284 -302c0 -190 124 -302 284 -302s283 112 283 302c0 191 -123 302 -283 302z" />
    <glyph glyph-name="OE" unicode="&#x152;" horiz-adv-x="1218" 
d="M808 667v-241h327v-79h-327v-5v-261h371v-81h-462v110c-68 -77 -169 -120 -284 -120c-213 0 -377 146 -377 384s164 384 377 384c115 0 216 -43 284 -120v110h462v-81h-371zM433 72c160 0 283 112 283 302c0 191 -123 302 -283 302s-284 -111 -284 -302
c0 -190 124 -302 284 -302z" />
    <glyph glyph-name="P" unicode="P" horiz-adv-x="649" 
d="M90 748h293c130 0 230 -77 230 -227c0 -149 -100 -226 -230 -226h-201v-295h-92v748zM181 667v-291h191c80 0 147 47 147 145c0 100 -67 146 -147 146h-191z" />
    <glyph glyph-name="Thorn" unicode="&#xde;" horiz-adv-x="635" 
d="M182 644h186c129 0 229 -78 229 -224s-100 -225 -229 -225h-186v-195h-92v748h92v-104zM181 562v-286h175c80 0 148 48 148 144c0 95 -68 142 -148 142h-175z" />
    <glyph glyph-name="Q" unicode="Q" horiz-adv-x="868" 
d="M789 -76l-133 132c-62 -43 -139 -66 -223 -66c-213 0 -377 146 -377 384s164 384 377 384c212 0 376 -146 376 -384c0 -105 -32 -192 -86 -257l129 -128zM433 72c60 0 115 16 160 46l-149 148l64 65l151 -150c36 49 57 114 57 193c0 191 -123 302 -283 302
s-284 -111 -284 -302c0 -190 124 -302 284 -302z" />
    <glyph glyph-name="R" unicode="R" horiz-adv-x="686" 
d="M545 0l-168 300h-195v-300h-92v748h289c129 0 230 -75 230 -224c0 -110 -55 -180 -137 -209l176 -315h-103zM181 381h187c79 0 147 45 147 143s-68 143 -147 143h-187v-286z" />
    <glyph glyph-name="Racute" unicode="&#x154;" horiz-adv-x="686" 
d="M354 795h-82l149 141h120zM545 0l-168 300h-195v-300h-92v748h289c129 0 230 -75 230 -224c0 -110 -55 -180 -137 -209l176 -315h-103zM181 381h187c79 0 147 45 147 143s-68 143 -147 143h-187v-286z" />
    <glyph glyph-name="Rcaron" unicode="&#x158;" horiz-adv-x="686" 
d="M273 795l-119 143h74l86 -90l85 90h75l-119 -143h-82zM545 0l-168 300h-195v-300h-92v748h289c129 0 230 -75 230 -224c0 -110 -55 -180 -137 -209l176 -315h-103zM181 381h187c79 0 147 45 147 143s-68 143 -147 143h-187v-286z" />
    <glyph glyph-name="Rcommaaccent" unicode="&#x156;" horiz-adv-x="686" 
d="M648 0h-103l-168 300h-195v-300h-92v748h289c129 0 230 -75 230 -224c0 -110 -55 -180 -137 -209zM181 381h187c79 0 147 45 147 143s-68 143 -147 143h-187v-286zM353 -41c35 0 55 -28 55 -67c0 -78 -34 -145 -113 -190v39c35 26 54 61 59 102c-31 0 -58 25 -58 57
s24 59 57 59z" />
    <glyph glyph-name="S" unicode="S" horiz-adv-x="656" 
d="M326 758c147 0 252 -76 258 -208l-93 -6c-5 84 -69 134 -163 134c-107 0 -162 -56 -162 -129c0 -89 70 -108 182 -133c161 -38 258 -79 258 -210c0 -150 -120 -216 -266 -216c-157 0 -277 78 -284 218l92 5c7 -88 88 -143 192 -143c99 0 173 38 173 129
c0 89 -74 109 -198 139c-134 32 -242 66 -242 208c0 114 83 212 253 212z" />
    <glyph glyph-name="Sacute" unicode="&#x15a;" horiz-adv-x="656" 
d="M367 795h-82l149 141h120zM326 758c147 0 252 -76 258 -208l-93 -6c-5 84 -69 134 -163 134c-107 0 -162 -56 -162 -129c0 -89 70 -108 182 -133c161 -38 258 -79 258 -210c0 -150 -120 -216 -266 -216c-157 0 -277 78 -284 218l92 5c7 -88 88 -143 192 -143
c99 0 173 38 173 129c0 89 -74 109 -198 139c-134 32 -242 66 -242 208c0 114 83 212 253 212z" />
    <glyph glyph-name="Scaron" unicode="&#x160;" horiz-adv-x="656" 
d="M369 795h-82l-119 143h74l86 -90l85 90h75zM326 758c147 0 252 -76 258 -208l-93 -6c-5 84 -69 134 -163 134c-107 0 -162 -56 -162 -129c0 -89 70 -108 182 -133c161 -38 258 -79 258 -210c0 -150 -120 -216 -266 -216c-157 0 -277 78 -284 218l92 5
c7 -88 88 -143 192 -143c99 0 173 38 173 129c0 89 -74 109 -198 139c-134 32 -242 66 -242 208c0 114 83 212 253 212z" />
    <glyph glyph-name="Scedilla" unicode="&#x15e;" horiz-adv-x="656" 
d="M606 206c0 -143 -109 -209 -245 -216l-10 -44c64 -5 111 -35 111 -95c0 -68 -61 -101 -126 -101c-39 0 -71 8 -97 21l16 53c19 -12 43 -20 73 -20c34 0 69 14 69 48c0 36 -30 50 -78 50c-12 0 -20 -2 -29 -4l25 93c-145 8 -252 85 -259 217l92 5c7 -88 88 -143 192 -143
c99 0 173 38 173 129c0 89 -74 109 -198 139c-134 32 -242 66 -242 208c0 114 83 212 253 212c147 0 252 -76 258 -208l-93 -6c-5 84 -69 134 -163 134c-107 0 -162 -56 -162 -129c0 -89 70 -108 182 -133c161 -38 258 -79 258 -210z" />
    <glyph glyph-name="Scircumflex" unicode="&#x15c;" horiz-adv-x="656" 
d="M488 795h-75l-85 90l-86 -90h-74l119 143h82zM326 758c147 0 252 -76 258 -208l-93 -6c-5 84 -69 134 -163 134c-107 0 -162 -56 -162 -129c0 -89 70 -108 182 -133c161 -38 258 -79 258 -210c0 -150 -120 -216 -266 -216c-157 0 -277 78 -284 218l92 5
c7 -88 88 -143 192 -143c99 0 173 38 173 129c0 89 -74 109 -198 139c-134 32 -242 66 -242 208c0 114 83 212 253 212z" />
    <glyph glyph-name="Scommaaccent" unicode="&#x218;" horiz-adv-x="656" 
d="M348 416c161 -38 258 -79 258 -210c0 -150 -120 -216 -266 -216c-157 0 -277 78 -284 218l92 5c7 -88 88 -143 192 -143c99 0 173 38 173 129c0 89 -74 109 -198 139c-134 32 -242 66 -242 208c0 114 83 212 253 212c147 0 252 -76 258 -208l-93 -6
c-5 84 -69 134 -163 134c-107 0 -162 -56 -162 -129c0 -89 70 -108 182 -133zM338 -46c35 0 55 -28 55 -67c0 -78 -34 -145 -113 -190v39c35 26 54 61 59 102c-31 0 -58 25 -58 57s24 59 57 59z" />
    <glyph glyph-name="T" unicode="T" horiz-adv-x="682" 
d="M665 667h-278v-667h-92v667h-278v81h648v-81z" />
    <glyph glyph-name="Tbar" unicode="&#x166;" horiz-adv-x="682" 
d="M387 667v-263h141v-71h-141v-333h-92v333h-140v71h140v263h-278v81h648v-81h-278z" />
    <glyph glyph-name="Tcaron" unicode="&#x164;" horiz-adv-x="682" 
d="M384 795h-82l-119 143h74l86 -90l85 90h75zM665 667h-278v-667h-92v667h-278v81h648v-81z" />
    <glyph glyph-name="uni021A" unicode="&#x21a;" horiz-adv-x="682" 
d="M665 748v-81h-278v-667h-92v667h-278v81h648zM342 -41c35 0 55 -28 55 -67c0 -78 -34 -145 -113 -190v39c35 26 54 61 59 102c-31 0 -58 25 -58 57s24 59 57 59z" />
    <glyph glyph-name="U" unicode="U" horiz-adv-x="764" 
d="M680 748v-467c0 -188 -117 -291 -298 -291c-182 0 -298 103 -298 291v467h91v-466c0 -139 78 -210 207 -210c127 0 207 71 207 210v466h91z" />
    <glyph glyph-name="Uacute" unicode="&#xda;" horiz-adv-x="764" 
d="M421 795h-82l149 141h120zM680 748v-467c0 -188 -117 -291 -298 -291c-182 0 -298 103 -298 291v467h91v-466c0 -139 78 -210 207 -210c127 0 207 71 207 210v466h91z" />
    <glyph glyph-name="Ubreve" unicode="&#x16c;" horiz-adv-x="764" 
d="M467 938h71c0 -88 -64 -133 -157 -133s-157 45 -157 133h71c0 -45 33 -73 86 -73c52 0 86 28 86 73zM680 748v-467c0 -188 -117 -291 -298 -291c-182 0 -298 103 -298 291v467h91v-466c0 -139 78 -210 207 -210c127 0 207 71 207 210v466h91z" />
    <glyph glyph-name="Ucircumflex" unicode="&#xdb;" horiz-adv-x="764" 
d="M542 795h-75l-85 90l-86 -90h-74l119 143h82zM680 748v-467c0 -188 -117 -291 -298 -291c-182 0 -298 103 -298 291v467h91v-466c0 -139 78 -210 207 -210c127 0 207 71 207 210v466h91z" />
    <glyph glyph-name="Udieresis" unicode="&#xdc;" horiz-adv-x="764" 
d="M308 920c29 0 52 -23 52 -51c0 -30 -23 -52 -52 -52s-52 22 -52 52c0 28 23 51 52 51zM458 920c29 0 51 -23 51 -51c0 -30 -22 -52 -51 -52s-53 22 -53 52c0 28 24 51 53 51zM680 748v-467c0 -188 -117 -291 -298 -291c-182 0 -298 103 -298 291v467h91v-466
c0 -139 78 -210 207 -210c127 0 207 71 207 210v466h91z" />
    <glyph glyph-name="Ugrave" unicode="&#xd9;" horiz-adv-x="764" 
d="M419 795h-82l-187 141h121zM680 748v-467c0 -188 -117 -291 -298 -291c-182 0 -298 103 -298 291v467h91v-466c0 -139 78 -210 207 -210c127 0 207 71 207 210v466h91z" />
    <glyph glyph-name="Uhungarumlaut" unicode="&#x170;" horiz-adv-x="764" 
d="M324 798h-69l61 148h82zM494 798h-68l60 148h82zM680 748v-467c0 -188 -117 -291 -298 -291c-182 0 -298 103 -298 291v467h91v-466c0 -139 78 -210 207 -210c127 0 207 71 207 210v466h91z" />
    <glyph glyph-name="Umacron" unicode="&#x16a;" horiz-adv-x="764" 
d="M513 834h-264v67h264v-67zM680 748v-467c0 -188 -117 -291 -298 -291c-182 0 -298 103 -298 291v467h91v-466c0 -139 78 -210 207 -210c127 0 207 71 207 210v466h91z" />
    <glyph glyph-name="Uogonek" unicode="&#x172;" horiz-adv-x="764" 
d="M680 748v-467c0 -157 -81 -254 -213 -282c-54 -28 -87 -54 -87 -92c0 -31 23 -46 56 -46c22 0 39 4 56 12l9 -44c-23 -10 -45 -16 -79 -16c-60 0 -108 28 -108 84c0 40 24 69 64 93c-180 1 -294 104 -294 291v467h91v-466c0 -139 78 -210 207 -210c127 0 207 71 207 210
v466h91z" />
    <glyph glyph-name="Uring" unicode="&#x16e;" horiz-adv-x="764" 
d="M381 989c57 0 103 -41 103 -98s-46 -98 -103 -98c-58 0 -103 41 -103 98s45 98 103 98zM381 942c-31 0 -53 -20 -53 -51c0 -30 22 -51 53 -51c30 0 52 21 52 51c0 31 -22 51 -52 51zM680 748v-467c0 -188 -117 -291 -298 -291c-182 0 -298 103 -298 291v467h91v-466
c0 -139 78 -210 207 -210c127 0 207 71 207 210v466h91z" />
    <glyph glyph-name="Utilde" unicode="&#x168;" horiz-adv-x="764" 
d="M309 936c62 0 88 -62 136 -62c33 0 49 24 50 55h49c4 -64 -31 -120 -90 -120c-62 0 -88 61 -136 61c-32 0 -48 -23 -49 -54h-50c-4 64 31 120 90 120zM680 748v-467c0 -188 -117 -291 -298 -291c-182 0 -298 103 -298 291v467h91v-466c0 -139 78 -210 207 -210
c127 0 207 71 207 210v466h91z" />
    <glyph glyph-name="V" unicode="V" horiz-adv-x="745" 
d="M411 0h-77l-314 748h100l253 -606l252 606h100z" />
    <glyph glyph-name="W" unicode="W" horiz-adv-x="1118" 
d="M837 0h-77l-201 580l-200 -580h-77l-262 748h99l203 -587l200 587h75l201 -587l202 587h98z" />
    <glyph glyph-name="Wacute" unicode="&#x1e82;" horiz-adv-x="1118" 
d="M599 795h-82l149 141h120zM837 0h-77l-201 580l-200 -580h-77l-262 748h99l203 -587l200 587h75l201 -587l202 587h98z" />
    <glyph glyph-name="Wcircumflex" unicode="&#x174;" horiz-adv-x="1118" 
d="M719 795h-75l-85 90l-86 -90h-74l119 143h82zM837 0h-77l-201 580l-200 -580h-77l-262 748h99l203 -587l200 587h75l201 -587l202 587h98z" />
    <glyph glyph-name="Wdieresis" unicode="&#x1e84;" horiz-adv-x="1118" 
d="M485 920c29 0 52 -23 52 -51c0 -30 -23 -52 -52 -52s-52 22 -52 52c0 28 23 51 52 51zM635 920c29 0 51 -23 51 -51c0 -30 -22 -52 -51 -52s-53 22 -53 52c0 28 24 51 53 51zM837 0h-77l-201 580l-200 -580h-77l-262 748h99l203 -587l200 587h75l201 -587l202 587h98z
" />
    <glyph glyph-name="Wgrave" unicode="&#x1e80;" horiz-adv-x="1118" 
d="M597 795h-82l-187 141h121zM837 0h-77l-201 580l-200 -580h-77l-262 748h99l203 -587l200 587h75l201 -587l202 587h98z" />
    <glyph glyph-name="X" unicode="X" horiz-adv-x="691" 
d="M413 380l253 -380h-106l-214 319l-215 -319h-106l254 380l-242 368h105l204 -306l204 306h105z" />
    <glyph glyph-name="Y" unicode="Y" horiz-adv-x="692" 
d="M392 311v-311h-91v311l-284 437h106l224 -347l222 347h106z" />
    <glyph glyph-name="Yacute" unicode="&#xdd;" horiz-adv-x="692" 
d="M386 795h-82l149 141h120zM392 311v-311h-91v311l-284 437h106l224 -347l222 347h106z" />
    <glyph glyph-name="Ycircumflex" unicode="&#x176;" horiz-adv-x="692" 
d="M507 795h-75l-85 90l-86 -90h-74l119 143h82zM392 311v-311h-91v311l-284 437h106l224 -347l222 347h106z" />
    <glyph glyph-name="Ydieresis" unicode="&#x178;" horiz-adv-x="692" 
d="M272 920c29 0 52 -23 52 -51c0 -30 -23 -52 -52 -52s-52 22 -52 52c0 28 23 51 52 51zM422 920c29 0 51 -23 51 -51c0 -30 -22 -52 -51 -52s-53 22 -53 52c0 28 24 51 53 51zM392 311v-311h-91v311l-284 437h106l224 -347l222 347h106z" />
    <glyph glyph-name="Ygrave" unicode="&#x1ef2;" horiz-adv-x="692" 
d="M384 795h-82l-187 141h121zM392 311v-311h-91v311l-284 437h106l224 -347l222 347h106z" />
    <glyph glyph-name="Z" unicode="Z" horiz-adv-x="618" 
d="M575 679l-422 -598h430v-81h-547v69l421 598h-407v81h525v-69z" />
    <glyph glyph-name="Zacute" unicode="&#x179;" horiz-adv-x="618" 
d="M349 795h-82l149 141h120zM575 679l-422 -598h430v-81h-547v69l421 598h-407v81h525v-69z" />
    <glyph glyph-name="Zcaron" unicode="&#x17d;" horiz-adv-x="618" 
d="M350 795h-82l-119 143h74l86 -90l85 90h75zM575 679l-422 -598h430v-81h-547v69l421 598h-407v81h525v-69z" />
    <glyph glyph-name="Zdotaccent" unicode="&#x17b;" horiz-adv-x="618" 
d="M310 925c31 0 57 -27 57 -58c0 -33 -26 -58 -57 -58c-32 0 -59 25 -59 58c0 31 27 58 59 58zM575 679l-422 -598h430v-81h-547v69l421 598h-407v81h525v-69z" />
    <glyph glyph-name="a" unicode="a" horiz-adv-x="542" 
d="M264 519c126 0 195 -72 195 -198v-321h-87v60c-37 -44 -89 -70 -152 -70c-99 0 -167 52 -167 145c0 106 80 146 187 152l132 8v24c0 77 -34 124 -107 124c-76 0 -111 -52 -111 -106l-87 4c0 88 73 178 197 178zM373 226l-122 -8c-66 -4 -111 -25 -111 -81
c0 -54 39 -73 93 -73c77 0 140 39 140 141v21z" />
    <glyph glyph-name="aacute" unicode="&#xe1;" horiz-adv-x="542" 
d="M309 595h-69l103 191h98zM264 519c126 0 195 -72 195 -198v-321h-87v60c-37 -44 -89 -70 -152 -70c-99 0 -167 52 -167 145c0 106 80 146 187 152l132 8v24c0 77 -34 124 -107 124c-76 0 -111 -52 -111 -106l-87 4c0 88 73 178 197 178zM373 226l-122 -8
c-66 -4 -111 -25 -111 -81c0 -54 39 -73 93 -73c77 0 140 39 140 141v21z" />
    <glyph glyph-name="abreve" unicode="&#x103;" horiz-adv-x="542" 
d="M362 732h71c0 -88 -64 -134 -157 -134s-157 46 -157 134h71c0 -46 33 -73 86 -73c52 0 86 27 86 73zM264 519c126 0 195 -72 195 -198v-321h-87v60c-37 -44 -89 -70 -152 -70c-99 0 -167 52 -167 145c0 106 80 146 187 152l132 8v24c0 77 -34 124 -107 124
c-76 0 -111 -52 -111 -106l-87 4c0 88 73 178 197 178zM373 226l-122 -8c-66 -4 -111 -25 -111 -81c0 -54 39 -73 93 -73c77 0 140 39 140 141v21z" />
    <glyph glyph-name="acircumflex" unicode="&#xe2;" horiz-adv-x="542" 
d="M438 596h-74l-87 110l-87 -110h-74l120 169h82zM264 519c126 0 195 -72 195 -198v-321h-87v60c-37 -44 -89 -70 -152 -70c-99 0 -167 52 -167 145c0 106 80 146 187 152l132 8v24c0 77 -34 124 -107 124c-76 0 -111 -52 -111 -106l-87 4c0 88 73 178 197 178zM373 226
l-122 -8c-66 -4 -111 -25 -111 -81c0 -54 39 -73 93 -73c77 0 140 39 140 141v21z" />
    <glyph glyph-name="adieresis" unicode="&#xe4;" horiz-adv-x="542" 
d="M199 732c29 0 52 -23 52 -51c0 -30 -23 -51 -52 -51s-52 21 -52 51c0 28 23 51 52 51zM349 732c29 0 51 -23 51 -51c0 -30 -22 -51 -51 -51s-53 21 -53 51c0 28 24 51 53 51zM264 519c126 0 195 -72 195 -198v-321h-87v60c-37 -44 -89 -70 -152 -70
c-99 0 -167 52 -167 145c0 106 80 146 187 152l132 8v24c0 77 -34 124 -107 124c-76 0 -111 -52 -111 -106l-87 4c0 88 73 178 197 178zM373 226l-122 -8c-66 -4 -111 -25 -111 -81c0 -54 39 -73 93 -73c77 0 140 39 140 141v21z" />
    <glyph glyph-name="agrave" unicode="&#xe0;" horiz-adv-x="542" 
d="M309 595h-68l-133 191h99zM264 519c126 0 195 -72 195 -198v-321h-87v60c-37 -44 -89 -70 -152 -70c-99 0 -167 52 -167 145c0 106 80 146 187 152l132 8v24c0 77 -34 124 -107 124c-76 0 -111 -52 -111 -106l-87 4c0 88 73 178 197 178zM373 226l-122 -8
c-66 -4 -111 -25 -111 -81c0 -54 39 -73 93 -73c77 0 140 39 140 141v21z" />
    <glyph glyph-name="amacron" unicode="&#x101;" horiz-adv-x="542" 
d="M408 635h-264v67h264v-67zM264 519c126 0 195 -72 195 -198v-321h-87v60c-37 -44 -89 -70 -152 -70c-99 0 -167 52 -167 145c0 106 80 146 187 152l132 8v24c0 77 -34 124 -107 124c-76 0 -111 -52 -111 -106l-87 4c0 88 73 178 197 178zM373 226l-122 -8
c-66 -4 -111 -25 -111 -81c0 -54 39 -73 93 -73c77 0 140 39 140 141v21z" />
    <glyph glyph-name="aogonek" unicode="&#x105;" horiz-adv-x="542" 
d="M456 -127l9 -44c-23 -10 -45 -16 -79 -16c-60 0 -108 28 -108 84c0 49 36 82 94 108v55c-37 -44 -89 -70 -152 -70c-99 0 -167 52 -167 145c0 106 80 146 187 152l132 8v24c0 77 -34 124 -107 124c-76 0 -111 -52 -111 -106l-87 4c0 88 73 178 197 178
c126 0 195 -72 195 -198v-321h-25c-56 -28 -90 -54 -90 -93c0 -31 23 -46 56 -46c22 0 39 4 56 12zM233 64c77 0 140 39 140 141v21l-122 -8c-66 -4 -111 -25 -111 -81c0 -54 39 -73 93 -73z" />
    <glyph glyph-name="aring" unicode="&#xe5;" horiz-adv-x="542" 
d="M277 798c62 0 113 -44 113 -106s-51 -107 -113 -107c-64 0 -115 45 -115 107s51 106 115 106zM276 746c-34 0 -58 -22 -58 -54c0 -33 24 -55 58 -55s58 22 58 55c0 32 -24 54 -58 54zM264 519c126 0 195 -72 195 -198v-321h-87v60c-37 -44 -89 -70 -152 -70
c-99 0 -167 52 -167 145c0 106 80 146 187 152l132 8v24c0 77 -34 124 -107 124c-76 0 -111 -52 -111 -106l-87 4c0 88 73 178 197 178zM373 226l-122 -8c-66 -4 -111 -25 -111 -81c0 -54 39 -73 93 -73c77 0 140 39 140 141v21z" />
    <glyph glyph-name="aringacute" unicode="&#x1fb;" horiz-adv-x="542" 
d="M273 582c-58 0 -104 41 -104 98c0 35 17 64 43 81l136 112h111l-152 -100c40 -13 68 -47 68 -93c0 -57 -45 -98 -102 -98zM325 680c0 31 -22 51 -52 51c-31 0 -53 -20 -53 -51c0 -30 22 -51 53 -51c30 0 52 21 52 51zM264 519c126 0 195 -72 195 -198v-321h-87v60
c-37 -44 -89 -70 -152 -70c-99 0 -167 52 -167 145c0 106 80 146 187 152l132 8v24c0 77 -34 124 -107 124c-76 0 -111 -52 -111 -106l-87 4c0 88 73 178 197 178zM373 226l-122 -8c-66 -4 -111 -25 -111 -81c0 -54 39 -73 93 -73c77 0 140 39 140 141v21z" />
    <glyph glyph-name="atilde" unicode="&#xe3;" horiz-adv-x="542" 
d="M202 736c62 0 88 -61 136 -61c33 0 49 23 50 54h49c4 -63 -31 -120 -90 -120c-62 0 -88 61 -136 61c-32 0 -48 -23 -49 -54h-50c-4 64 31 120 90 120zM264 519c126 0 195 -72 195 -198v-321h-87v60c-37 -44 -89 -70 -152 -70c-99 0 -167 52 -167 145
c0 106 80 146 187 152l132 8v24c0 77 -34 124 -107 124c-76 0 -111 -52 -111 -106l-87 4c0 88 73 178 197 178zM373 226l-122 -8c-66 -4 -111 -25 -111 -81c0 -54 39 -73 93 -73c77 0 140 39 140 141v21z" />
    <glyph glyph-name="ae" unicode="&#xe6;" horiz-adv-x="911" 
d="M859 222h-394c5 -98 70 -157 159 -157c76 0 127 34 143 91l87 -5c-22 -92 -110 -161 -228 -161c-88 0 -162 37 -207 103c-40 -63 -107 -103 -196 -103c-102 0 -170 54 -170 147c0 106 80 144 187 150l132 8v18c0 81 -34 132 -107 132c-76 0 -111 -53 -111 -108l-87 4
c0 88 73 178 197 178c77 0 132 -30 164 -89c45 58 114 89 196 89c146 0 235 -99 235 -250v-47zM623 444c-87 0 -152 -53 -158 -152h307c-2 89 -51 152 -149 152zM373 226l-122 -8c-66 -4 -111 -24 -111 -80c0 -53 39 -73 93 -73c70 0 140 33 140 140v21z" />
    <glyph glyph-name="aeacute" unicode="&#x1fd;" horiz-adv-x="911" 
d="M472 595h-69l103 191h98zM859 222h-394c5 -98 70 -157 159 -157c76 0 127 34 143 91l87 -5c-22 -92 -110 -161 -228 -161c-88 0 -162 37 -207 103c-40 -63 -107 -103 -196 -103c-102 0 -170 54 -170 147c0 106 80 144 187 150l132 8v18c0 81 -34 132 -107 132
c-76 0 -111 -53 -111 -108l-87 4c0 88 73 178 197 178c77 0 132 -30 164 -89c45 58 114 89 196 89c146 0 235 -99 235 -250v-47zM623 444c-87 0 -152 -53 -158 -152h307c-2 89 -51 152 -149 152zM373 226l-122 -8c-66 -4 -111 -24 -111 -80c0 -53 39 -73 93 -73
c70 0 140 33 140 140v21z" />
    <glyph glyph-name="b" unicode="b" horiz-adv-x="649" 
d="M173 777v-344c29 49 91 86 177 86c140 0 246 -100 246 -265c0 -164 -106 -264 -246 -264c-88 0 -152 40 -181 93v-83h-82v777h86zM337 444c-93 0 -163 -59 -163 -174v-30c0 -116 70 -175 163 -175c97 0 171 67 171 190c0 122 -74 189 -171 189z" />
    <glyph glyph-name="c" unicode="c" horiz-adv-x="578" 
d="M304 519c120 0 214 -72 229 -191l-84 -7c-9 77 -68 124 -145 124c-95 0 -163 -69 -163 -190c0 -122 70 -190 163 -190c80 0 134 44 146 116l84 -8c-19 -113 -107 -183 -230 -183c-143 0 -251 97 -251 265s107 264 251 264z" />
    <glyph glyph-name="cacute" unicode="&#x107;" horiz-adv-x="578" 
d="M329 595h-69l103 191h98zM304 519c120 0 214 -72 229 -191l-84 -7c-9 77 -68 124 -145 124c-95 0 -163 -69 -163 -190c0 -122 70 -190 163 -190c80 0 134 44 146 116l84 -8c-19 -113 -107 -183 -230 -183c-143 0 -251 97 -251 265s107 264 251 264z" />
    <glyph glyph-name="ccaron" unicode="&#x10d;" horiz-adv-x="578" 
d="M337 594h-82l-120 168h74l87 -110l87 110h74zM304 519c120 0 214 -72 229 -191l-84 -7c-9 77 -68 124 -145 124c-95 0 -163 -69 -163 -190c0 -122 70 -190 163 -190c80 0 134 44 146 116l84 -8c-19 -113 -107 -183 -230 -183c-143 0 -251 97 -251 265s107 264 251 264z
" />
    <glyph glyph-name="ccedilla" unicode="&#xe7;" horiz-adv-x="578" 
d="M450 181l84 -8c-18 -107 -98 -176 -212 -182l-10 -44c64 -5 111 -35 111 -95c0 -68 -61 -101 -126 -101c-39 0 -71 8 -97 21l16 53c19 -12 43 -20 73 -20c34 0 69 14 69 48c0 36 -30 50 -78 50c-12 0 -20 -2 -29 -4l25 92c-129 12 -223 107 -223 264
c0 168 107 264 251 264c120 0 214 -72 229 -191l-84 -7c-9 77 -68 124 -145 124c-95 0 -163 -69 -163 -190c0 -122 70 -190 163 -190c80 0 134 44 146 116z" />
    <glyph glyph-name="ccircumflex" unicode="&#x109;" horiz-adv-x="578" 
d="M457 596h-74l-87 110l-87 -110h-74l120 169h82zM304 519c120 0 214 -72 229 -191l-84 -7c-9 77 -68 124 -145 124c-95 0 -163 -69 -163 -190c0 -122 70 -190 163 -190c80 0 134 44 146 116l84 -8c-19 -113 -107 -183 -230 -183c-143 0 -251 97 -251 265s107 264 251 264z
" />
    <glyph glyph-name="cdotaccent" unicode="&#x10b;" horiz-adv-x="578" 
d="M297 738c31 0 57 -26 57 -57c0 -32 -26 -58 -57 -58c-32 0 -59 26 -59 58c0 31 27 57 59 57zM304 519c120 0 214 -72 229 -191l-84 -7c-9 77 -68 124 -145 124c-95 0 -163 -69 -163 -190c0 -122 70 -190 163 -190c80 0 134 44 146 116l84 -8
c-19 -113 -107 -183 -230 -183c-143 0 -251 97 -251 265s107 264 251 264z" />
    <glyph glyph-name="d" unicode="d" horiz-adv-x="649" 
d="M561 0h-81v83c-29 -53 -94 -93 -181 -93c-140 0 -246 100 -246 264c0 165 106 265 246 265c85 0 148 -37 176 -86v344h86v-777zM311 444c-97 0 -171 -67 -171 -189c0 -123 74 -190 171 -190c94 0 164 59 164 175v30c0 115 -70 174 -164 174z" />
    <glyph glyph-name="eth" unicode="&#xf0;" horiz-adv-x="605" 
d="M488 755l-94 -74c99 -91 148 -242 148 -424c0 -176 -106 -267 -247 -267c-133 0 -243 91 -243 247c0 152 109 247 242 247c55 0 104 -16 144 -43c-20 85 -55 149 -103 193l-95 -75l-39 40l86 68c-44 24 -97 37 -158 38v72c87 0 161 -22 221 -61l98 77zM298 65
c91 0 160 63 160 173c0 105 -65 171 -160 171c-93 0 -161 -66 -161 -172c0 -108 69 -172 161 -172z" />
    <glyph glyph-name="dcaron" unicode="&#x10f;" horiz-adv-x="755" 
d="M475 777h86v-777h-81v83c-29 -53 -94 -93 -181 -93c-140 0 -246 100 -246 264c0 165 106 265 246 265c85 0 148 -37 176 -86v344zM684 750c35 0 55 -28 55 -67c0 -78 -34 -145 -113 -190v39c35 26 54 61 59 102c-31 0 -58 25 -58 57s24 59 57 59zM475 240v30
c0 115 -70 174 -164 174c-97 0 -171 -67 -171 -189c0 -123 74 -190 171 -190c94 0 164 59 164 175z" />
    <glyph glyph-name="dcroat" unicode="&#x111;" horiz-adv-x="643" 
d="M642 612h-81v-612h-81v83c-29 -53 -94 -93 -181 -93c-140 0 -246 100 -246 264c0 165 106 265 246 265c85 0 148 -37 176 -86v179h-96v67h96v98h86v-98h81v-67zM475 240v30c0 115 -70 174 -164 174c-97 0 -171 -67 -171 -189c0 -123 74 -190 171 -190
c94 0 164 59 164 175z" />
    <glyph glyph-name="e" unicode="e" 
d="M538 222h-394c5 -98 70 -157 160 -157c75 0 126 34 143 91l86 -5c-21 -92 -109 -161 -227 -161c-146 0 -253 99 -253 265s106 264 251 264c146 0 234 -99 234 -250v-47zM303 444c-88 0 -153 -53 -159 -152h308c-2 89 -52 152 -149 152z" />
    <glyph glyph-name="eacute" unicode="&#xe9;" 
d="M335 595h-69l103 191h98zM538 222h-394c5 -98 70 -157 160 -157c75 0 126 34 143 91l86 -5c-21 -92 -109 -161 -227 -161c-146 0 -253 99 -253 265s106 264 251 264c146 0 234 -99 234 -250v-47zM303 444c-88 0 -153 -53 -159 -152h308c-2 89 -52 152 -149 152z" />
    <glyph glyph-name="ebreve" unicode="&#x115;" 
d="M301 598c-93 0 -157 46 -157 134h71c0 -46 33 -73 86 -73c52 0 86 27 86 73h71c0 -88 -64 -134 -157 -134zM538 222h-394c5 -98 70 -157 160 -157c75 0 126 34 143 91l86 -5c-21 -92 -109 -161 -227 -161c-146 0 -253 99 -253 265s106 264 251 264
c146 0 234 -99 234 -250v-47zM303 444c-88 0 -153 -53 -159 -152h308c-2 89 -52 152 -149 152z" />
    <glyph glyph-name="ecaron" unicode="&#x11b;" 
d="M261 594l-120 168h74l87 -110l87 110h74l-120 -168h-82zM538 222h-394c5 -98 70 -157 160 -157c75 0 126 34 143 91l86 -5c-21 -92 -109 -161 -227 -161c-146 0 -253 99 -253 265s106 264 251 264c146 0 234 -99 234 -250v-47zM303 444c-88 0 -153 -53 -159 -152h308
c-2 89 -52 152 -149 152z" />
    <glyph glyph-name="ecircumflex" unicode="&#xea;" 
d="M215 596h-74l120 169h82l120 -169h-74l-87 110zM538 222h-394c5 -98 70 -157 160 -157c75 0 126 34 143 91l86 -5c-21 -92 -109 -161 -227 -161c-146 0 -253 99 -253 265s106 264 251 264c146 0 234 -99 234 -250v-47zM303 444c-88 0 -153 -53 -159 -152h308
c-2 89 -52 152 -149 152z" />
    <glyph glyph-name="edieresis" unicode="&#xeb;" 
d="M224 630c-29 0 -52 21 -52 51c0 28 23 51 52 51s52 -23 52 -51c0 -30 -23 -51 -52 -51zM374 630c-29 0 -53 21 -53 51c0 28 24 51 53 51s51 -23 51 -51c0 -30 -22 -51 -51 -51zM538 222h-394c5 -98 70 -157 160 -157c75 0 126 34 143 91l86 -5
c-21 -92 -109 -161 -227 -161c-146 0 -253 99 -253 265s106 264 251 264c146 0 234 -99 234 -250v-47zM303 444c-88 0 -153 -53 -159 -152h308c-2 89 -52 152 -149 152z" />
    <glyph glyph-name="edotaccent" unicode="&#x117;" 
d="M303 623c-32 0 -59 26 -59 58c0 31 27 57 59 57c31 0 57 -26 57 -57c0 -32 -26 -58 -57 -58zM538 222h-394c5 -98 70 -157 160 -157c75 0 126 34 143 91l86 -5c-21 -92 -109 -161 -227 -161c-146 0 -253 99 -253 265s106 264 251 264c146 0 234 -99 234 -250v-47z
M303 444c-88 0 -153 -53 -159 -152h308c-2 89 -52 152 -149 152z" />
    <glyph glyph-name="egrave" unicode="&#xe8;" 
d="M266 595l-133 191h99l102 -191h-68zM538 222h-394c5 -98 70 -157 160 -157c75 0 126 34 143 91l86 -5c-21 -92 -109 -161 -227 -161c-146 0 -253 99 -253 265s106 264 251 264c146 0 234 -99 234 -250v-47zM303 444c-88 0 -153 -53 -159 -152h308c-2 89 -52 152 -149 152
z" />
    <glyph glyph-name="emacron" unicode="&#x113;" 
d="M434 635h-264v67h264v-67zM538 222h-394c5 -98 70 -157 160 -157c75 0 126 34 143 91l86 -5c-21 -92 -109 -161 -227 -161c-146 0 -253 99 -253 265s106 264 251 264c146 0 234 -99 234 -250v-47zM303 444c-88 0 -153 -53 -159 -152h308c-2 89 -52 152 -149 152z" />
    <glyph glyph-name="eogonek" unicode="&#x119;" 
d="M538 222h-394c5 -98 70 -157 160 -157c75 0 126 34 143 91l86 -5c-17 -76 -80 -136 -168 -155c-54 -28 -88 -53 -88 -92c0 -31 23 -46 56 -46c22 0 39 4 56 12l9 -44c-23 -10 -45 -16 -79 -16c-60 0 -108 28 -108 84c0 42 27 72 71 97c-134 10 -229 107 -229 264
c0 166 106 264 251 264c146 0 234 -99 234 -250v-47zM303 444c-88 0 -153 -53 -159 -152h308c-2 89 -52 152 -149 152z" />
    <glyph glyph-name="f" unicode="f" horiz-adv-x="343" 
d="M292 781c17 0 27 -1 38 -2v-75c-8 1 -16 2 -29 2c-62 0 -104 -40 -104 -109v-87h131v-75h-131v-435h-86v435h-99v75h99v85c0 117 71 186 181 186z" />
    <glyph glyph-name="g" unicode="g" horiz-adv-x="644" 
d="M299 519c87 0 152 -40 181 -93v84h81v-539c0 -146 -98 -235 -244 -235c-143 0 -227 75 -247 181l86 3c12 -69 77 -111 158 -111c95 0 161 55 161 156v111c-28 -49 -91 -86 -176 -86c-140 0 -246 100 -246 265c0 164 106 264 246 264zM311 444c-97 0 -171 -67 -171 -190
c0 -122 74 -189 171 -189c94 0 164 59 164 174v30c0 116 -70 175 -164 175z" />
    <glyph glyph-name="gbreve" unicode="&#x11f;" horiz-adv-x="644" 
d="M402 732h71c0 -88 -64 -134 -157 -134s-157 46 -157 134h71c0 -46 33 -73 86 -73c52 0 86 27 86 73zM299 519c87 0 152 -40 181 -93v84h81v-539c0 -146 -98 -235 -244 -235c-143 0 -227 75 -247 181l86 3c12 -69 77 -111 158 -111c95 0 161 55 161 156v111
c-28 -49 -91 -86 -176 -86c-140 0 -246 100 -246 265c0 164 106 264 246 264zM311 444c-97 0 -171 -67 -171 -190c0 -122 74 -189 171 -189c94 0 164 59 164 174v30c0 116 -70 175 -164 175z" />
    <glyph glyph-name="gcircumflex" unicode="&#x11d;" horiz-adv-x="644" 
d="M477 596h-74l-87 110l-87 -110h-74l120 169h82zM299 519c87 0 152 -40 181 -93v84h81v-539c0 -146 -98 -235 -244 -235c-143 0 -227 75 -247 181l86 3c12 -69 77 -111 158 -111c95 0 161 55 161 156v111c-28 -49 -91 -86 -176 -86c-140 0 -246 100 -246 265
c0 164 106 264 246 264zM311 444c-97 0 -171 -67 -171 -190c0 -122 74 -189 171 -189c94 0 164 59 164 174v30c0 116 -70 175 -164 175z" />
    <glyph glyph-name="gcommaaccent" unicode="&#x123;" horiz-adv-x="644" 
d="M384 771c0 -78 -34 -145 -113 -190v39c35 26 54 61 59 102c-31 0 -58 25 -58 57s24 59 57 59c35 0 55 -28 55 -67zM561 510v-539c0 -146 -98 -235 -244 -235c-143 0 -227 75 -247 181l86 3c12 -69 77 -111 158 -111c95 0 161 55 161 156v111c-28 -49 -91 -86 -176 -86
c-140 0 -246 100 -246 265c0 164 106 264 246 264c87 0 152 -40 181 -93v84h81zM475 239v30c0 116 -70 175 -164 175c-97 0 -171 -67 -171 -190c0 -122 74 -189 171 -189c94 0 164 59 164 174z" />
    <glyph glyph-name="gdotaccent" unicode="&#x121;" horiz-adv-x="644" 
d="M317 738c31 0 57 -26 57 -57c0 -32 -26 -58 -57 -58c-32 0 -59 26 -59 58c0 31 27 57 59 57zM299 519c87 0 152 -40 181 -93v84h81v-539c0 -146 -98 -235 -244 -235c-143 0 -227 75 -247 181l86 3c12 -69 77 -111 158 -111c95 0 161 55 161 156v111
c-28 -49 -91 -86 -176 -86c-140 0 -246 100 -246 265c0 164 106 264 246 264zM311 444c-97 0 -171 -67 -171 -190c0 -122 74 -189 171 -189c94 0 164 59 164 174v30c0 116 -70 175 -164 175z" />
    <glyph glyph-name="h" unicode="h" horiz-adv-x="603" 
d="M173 777v-337c23 40 76 79 155 79c115 0 198 -81 198 -209v-310h-87v299c0 85 -52 140 -129 140c-81 0 -137 -64 -137 -141v-298h-86v777h86z" />
    <glyph glyph-name="hbar" unicode="&#x127;" horiz-adv-x="603" 
d="M328 519c115 0 198 -81 198 -209v-310h-87v299c0 85 -52 140 -129 140c-81 0 -137 -64 -137 -141v-298h-86v612h-82v67h82v98h86v-98h95v-67h-95v-172c23 40 76 79 155 79z" />
    <glyph glyph-name="hcircumflex" unicode="&#x125;" horiz-adv-x="603" 
d="M292 798h-75l-85 90l-86 -90h-74l119 143h82zM173 777v-337c23 40 76 79 155 79c115 0 198 -81 198 -209v-310h-87v299c0 85 -52 140 -129 140c-81 0 -137 -64 -137 -141v-298h-86v777h86z" />
    <glyph glyph-name="i" unicode="i" horiz-adv-x="261" 
d="M131 751c31 0 57 -25 57 -57c0 -31 -26 -56 -57 -56c-32 0 -57 25 -57 56c0 32 26 57 57 57zM173 0h-86v510h86v-510z" />
    <glyph glyph-name="dotlessi" unicode="&#x131;" horiz-adv-x="261" 
d="M173 0h-86v510h86v-510z" />
    <glyph glyph-name="iacute" unicode="&#xed;" horiz-adv-x="261" 
d="M166 595h-69l103 191h98zM173 0h-86v510h86v-510z" />
    <glyph glyph-name="ibreve" unicode="&#x12d;" horiz-adv-x="261" 
d="M218 732h71c0 -88 -64 -134 -157 -134s-157 46 -157 134h71c0 -46 33 -73 86 -73c52 0 86 27 86 73zM173 0h-86v510h86v-510z" />
    <glyph glyph-name="icircumflex" unicode="&#xee;" horiz-adv-x="261" 
d="M294 596h-74l-87 110l-87 -110h-74l120 169h82zM173 0h-86v510h86v-510z" />
    <glyph glyph-name="idieresis" unicode="&#xef;" horiz-adv-x="261" 
d="M55 732c29 0 52 -23 52 -51c0 -30 -23 -51 -52 -51s-52 21 -52 51c0 28 23 51 52 51zM205 732c29 0 51 -23 51 -51c0 -30 -22 -51 -51 -51s-53 21 -53 51c0 28 24 51 53 51zM173 0h-86v510h86v-510z" />
    <glyph glyph-name="igrave" unicode="&#xec;" horiz-adv-x="261" 
d="M165 595h-68l-133 191h99zM173 0h-86v510h86v-510z" />
    <glyph glyph-name="imacron" unicode="&#x12b;" horiz-adv-x="261" 
d="M265 635h-264v67h264v-67zM173 0h-86v510h86v-510z" />
    <glyph glyph-name="iogonek" unicode="&#x12f;" horiz-adv-x="261" 
d="M134 623c-32 0 -59 26 -59 58c0 31 27 57 59 57c31 0 57 -26 57 -57c0 -32 -26 -58 -57 -58zM116 -139c22 0 39 4 56 12l9 -44c-23 -10 -45 -16 -79 -16c-60 0 -108 28 -108 84c0 48 36 82 93 108v505h86v-510h-23c-56 -28 -90 -54 -90 -93c0 -31 23 -46 56 -46z" />
    <glyph glyph-name="itilde" unicode="&#x129;" horiz-adv-x="261" 
d="M59 736c62 0 88 -61 136 -61c33 0 49 23 50 54h49c4 -63 -31 -120 -90 -120c-62 0 -88 61 -136 61c-32 0 -48 -23 -49 -54h-50c-4 64 31 120 90 120zM173 0h-86v510h86v-510z" />
    <glyph glyph-name="j" unicode="j" horiz-adv-x="261" 
d="M131 751c31 0 57 -25 57 -57c0 -31 -26 -56 -57 -56c-32 0 -57 25 -57 56c0 32 25 57 57 57zM174 510v-585c0 -118 -67 -185 -173 -185c-17 0 -27 1 -40 3v75c9 -2 17 -3 30 -3c59 0 97 38 97 108v587h86z" />
    <glyph glyph-name="dotlessj" unicode="&#x237;" horiz-adv-x="261" 
d="M175 510v-586c0 -129 -67 -186 -164 -186c-37 0 -64 9 -83 21l32 71c11 -7 23 -15 42 -15c54 0 87 33 87 105v590h86z" />
    <glyph glyph-name="jcircumflex" unicode="&#x135;" horiz-adv-x="261" 
d="M291 596h-74l-87 110l-87 -110h-74l120 169h82zM175 510v-586c0 -129 -67 -186 -164 -186c-37 0 -64 9 -83 21l32 71c11 -7 23 -15 42 -15c54 0 87 33 87 105v590h86z" />
    <glyph glyph-name="k" unicode="k" horiz-adv-x="537" 
d="M173 286l224 224h107l-215 -222l239 -288h-110l-190 225l-55 -54v-171h-86v777h86v-491z" />
    <glyph glyph-name="kcommaaccent" unicode="&#x137;" horiz-adv-x="537" 
d="M528 0h-110l-190 225l-55 -54v-171h-86v777h86v-491l224 224h107l-215 -222zM287 -41c35 0 55 -28 55 -67c0 -78 -34 -145 -113 -190v39c35 26 54 61 59 102c-31 0 -58 25 -58 57s24 59 57 59z" />
    <glyph glyph-name="l" unicode="l" horiz-adv-x="261" 
d="M173 0h-86v777h86v-777z" />
    <glyph glyph-name="lacute" unicode="&#x13a;" horiz-adv-x="261" 
d="M174 809h-82l149 141h120zM173 0h-86v777h86v-777z" />
    <glyph glyph-name="lcaron" unicode="&#x13e;" horiz-adv-x="373" 
d="M87 777h86v-777h-86v777zM305 750c35 0 55 -28 55 -67c0 -78 -34 -145 -113 -190v39c35 26 54 61 59 102c-31 0 -58 25 -58 57s24 59 57 59z" />
    <glyph glyph-name="lcommaaccent" unicode="&#x13c;" horiz-adv-x="261" 
d="M173 0h-86v777h86v-777zM131 -41c35 0 55 -28 55 -67c0 -78 -34 -145 -113 -190v39c35 26 54 61 59 102c-31 0 -58 25 -58 57s24 59 57 59z" />
    <glyph glyph-name="ldot" unicode="&#x140;" horiz-adv-x="391" 
d="M173 0h-86v777h86v-777zM307 355c33 0 60 -27 60 -60c0 -32 -27 -59 -60 -59c-32 0 -58 27 -58 59c0 33 26 60 58 60z" />
    <glyph glyph-name="lslash" unicode="&#x142;" horiz-adv-x="283" 
d="M186 277v-277h-86v246l-98 -35l-16 68l114 41v457h86v-426l96 35l16 -69z" />
    <glyph glyph-name="m" unicode="m" horiz-adv-x="935" 
d="M662 519c113 0 190 -84 190 -208v-311h-86v299c0 85 -47 140 -124 140c-74 0 -121 -54 -128 -123v-6v-310h-87v299c0 85 -49 140 -121 140c-81 0 -133 -64 -133 -141v-298h-86v510h82v-77c24 47 75 86 155 86c75 0 136 -37 167 -101c30 59 89 101 171 101z" />
    <glyph glyph-name="n" unicode="n" horiz-adv-x="609" 
d="M328 519c115 0 198 -81 198 -209v-310h-87v299c0 85 -52 140 -129 140c-81 0 -137 -64 -137 -141v-298h-86v510h82v-76c25 46 78 85 159 85z" />
    <glyph glyph-name="nacute" unicode="&#x144;" horiz-adv-x="609" 
d="M347 595h-69l103 191h98zM328 519c115 0 198 -81 198 -209v-310h-87v299c0 85 -52 140 -129 140c-81 0 -137 -64 -137 -141v-298h-86v510h82v-76c25 46 78 85 159 85z" />
    <glyph glyph-name="ncaron" unicode="&#x148;" horiz-adv-x="609" 
d="M355 594h-82l-120 168h74l87 -110l87 110h74zM328 519c115 0 198 -81 198 -209v-310h-87v299c0 85 -52 140 -129 140c-81 0 -137 -64 -137 -141v-298h-86v510h82v-76c25 46 78 85 159 85z" />
    <glyph glyph-name="ncommaaccent" unicode="&#x146;" horiz-adv-x="609" 
d="M328 519c115 0 198 -81 198 -209v-310h-87v299c0 85 -52 140 -129 140c-81 0 -137 -64 -137 -141v-298h-86v510h82v-76c25 46 78 85 159 85zM310 -41c35 0 55 -28 55 -67c0 -78 -34 -145 -113 -190v39c35 26 54 61 59 102c-31 0 -58 25 -58 57s24 59 57 59z" />
    <glyph glyph-name="eng" unicode="&#x14b;" horiz-adv-x="609" 
d="M328 519c115 0 198 -81 198 -209v-385c0 -118 -68 -185 -179 -185v75c55 0 92 38 92 108v376c0 85 -52 140 -129 140c-81 0 -137 -64 -137 -141v-298h-86v510h82v-76c25 46 78 85 159 85z" />
    <glyph glyph-name="ntilde" unicode="&#xf1;" horiz-adv-x="609" 
d="M240 736c62 0 88 -61 136 -61c33 0 49 23 50 54h49c4 -63 -31 -120 -90 -120c-62 0 -88 61 -136 61c-32 0 -48 -23 -49 -54h-50c-4 64 31 120 90 120zM328 519c115 0 198 -81 198 -209v-310h-87v299c0 85 -52 140 -129 140c-81 0 -137 -64 -137 -141v-298h-86v510h82v-76
c25 46 78 85 159 85z" />
    <glyph glyph-name="o" unicode="o" horiz-adv-x="631" 
d="M315 519c148 0 262 -102 262 -264s-114 -265 -262 -265s-262 103 -262 265s114 264 262 264zM315 444c-99 0 -175 -70 -175 -189s76 -190 175 -190s175 71 175 190s-76 189 -175 189z" />
    <glyph glyph-name="oacute" unicode="&#xf3;" horiz-adv-x="631" 
d="M347 595h-69l103 191h98zM315 519c148 0 262 -102 262 -264s-114 -265 -262 -265s-262 103 -262 265s114 264 262 264zM315 444c-99 0 -175 -70 -175 -189s76 -190 175 -190s175 71 175 190s-76 189 -175 189z" />
    <glyph glyph-name="obreve" unicode="&#x14f;" horiz-adv-x="631" 
d="M400 732h71c0 -88 -64 -134 -157 -134s-157 46 -157 134h71c0 -46 33 -73 86 -73c52 0 86 27 86 73zM315 519c148 0 262 -102 262 -264s-114 -265 -262 -265s-262 103 -262 265s114 264 262 264zM315 444c-99 0 -175 -70 -175 -189s76 -190 175 -190s175 71 175 190
s-76 189 -175 189z" />
    <glyph glyph-name="ocircumflex" unicode="&#xf4;" horiz-adv-x="631" 
d="M476 596h-74l-87 110l-87 -110h-74l120 169h82zM315 519c148 0 262 -102 262 -264s-114 -265 -262 -265s-262 103 -262 265s114 264 262 264zM315 444c-99 0 -175 -70 -175 -189s76 -190 175 -190s175 71 175 190s-76 189 -175 189z" />
    <glyph glyph-name="odieresis" unicode="&#xf6;" horiz-adv-x="631" 
d="M237 732c29 0 52 -23 52 -51c0 -30 -23 -51 -52 -51s-52 21 -52 51c0 28 23 51 52 51zM387 732c29 0 51 -23 51 -51c0 -30 -22 -51 -51 -51s-53 21 -53 51c0 28 24 51 53 51zM315 519c148 0 262 -102 262 -264s-114 -265 -262 -265s-262 103 -262 265s114 264 262 264z
M315 444c-99 0 -175 -70 -175 -189s76 -190 175 -190s175 71 175 190s-76 189 -175 189z" />
    <glyph glyph-name="ograve" unicode="&#xf2;" horiz-adv-x="631" 
d="M347 595h-68l-133 191h99zM315 519c148 0 262 -102 262 -264s-114 -265 -262 -265s-262 103 -262 265s114 264 262 264zM315 444c-99 0 -175 -70 -175 -189s76 -190 175 -190s175 71 175 190s-76 189 -175 189z" />
    <glyph glyph-name="ohungarumlaut" unicode="&#x151;" horiz-adv-x="631" 
d="M259 605h-68l62 158h82zM429 605h-68l62 158h83zM315 519c148 0 262 -102 262 -264s-114 -265 -262 -265s-262 103 -262 265s114 264 262 264zM315 444c-99 0 -175 -70 -175 -189s76 -190 175 -190s175 71 175 190s-76 189 -175 189z" />
    <glyph glyph-name="omacron" unicode="&#x14d;" horiz-adv-x="631" 
d="M446 635h-264v67h264v-67zM315 519c148 0 262 -102 262 -264s-114 -265 -262 -265s-262 103 -262 265s114 264 262 264zM315 444c-99 0 -175 -70 -175 -189s76 -190 175 -190s175 71 175 190s-76 189 -175 189z" />
    <glyph glyph-name="oslash" unicode="&#xf8;" horiz-adv-x="631" 
d="M541 500l-40 -52c47 -46 76 -112 76 -193c0 -162 -114 -265 -262 -265c-50 0 -96 12 -135 34l-44 -58l-48 36l43 57c-48 46 -78 113 -78 196c0 162 114 264 262 264c51 0 99 -12 138 -35l40 52zM140 255c0 -54 15 -98 42 -130l224 296c-27 15 -57 23 -91 23
c-99 0 -175 -70 -175 -189zM315 65c99 0 175 71 175 190c0 52 -14 95 -39 126l-223 -294c26 -14 55 -22 87 -22z" />
    <glyph glyph-name="oslashacute" unicode="&#x1ff;" horiz-adv-x="631" 
d="M347 595h-69l103 191h98zM541 500l-40 -52c47 -46 76 -112 76 -193c0 -162 -114 -265 -262 -265c-50 0 -96 12 -135 34l-44 -58l-48 36l43 57c-48 46 -78 113 -78 196c0 162 114 264 262 264c51 0 99 -12 138 -35l40 52zM140 255c0 -54 15 -98 42 -130l224 296
c-27 15 -57 23 -91 23c-99 0 -175 -70 -175 -189zM315 65c99 0 175 71 175 190c0 52 -14 95 -39 126l-223 -294c26 -14 55 -22 87 -22z" />
    <glyph glyph-name="otilde" unicode="&#xf5;" horiz-adv-x="631" 
d="M240 736c62 0 88 -61 136 -61c33 0 49 23 50 54h49c4 -63 -31 -120 -90 -120c-62 0 -88 61 -136 61c-32 0 -48 -23 -49 -54h-50c-4 64 31 120 90 120zM315 519c148 0 262 -102 262 -264s-114 -265 -262 -265s-262 103 -262 265s114 264 262 264zM315 444
c-99 0 -175 -70 -175 -189s76 -190 175 -190s175 71 175 190s-76 189 -175 189z" />
    <glyph glyph-name="oe" unicode="&#x153;" horiz-adv-x="1028" 
d="M974 222h-393c5 -98 69 -157 159 -157c76 0 126 34 143 91l86 -5c-21 -92 -109 -161 -227 -161c-90 0 -166 38 -211 107c-46 -68 -125 -107 -216 -107c-148 0 -262 103 -262 265s114 264 262 264c91 0 169 -39 216 -106c44 68 119 106 209 106c146 0 234 -99 234 -250
v-47zM315 65c94 0 167 64 174 172v18v18c-7 108 -80 171 -174 171c-99 0 -175 -70 -175 -189s76 -190 175 -190zM739 444c-88 0 -153 -53 -158 -152h307c-2 89 -52 152 -149 152z" />
    <glyph glyph-name="p" unicode="p" horiz-adv-x="649" 
d="M350 519c140 0 246 -100 246 -264c0 -165 -106 -265 -246 -265c-86 0 -148 37 -177 86v-331h-86v765h82v-84c29 53 93 93 181 93zM337 444c-93 0 -163 -59 -163 -175v-30c0 -115 70 -174 163 -174c97 0 171 67 171 189c0 123 -74 190 -171 190z" />
    <glyph glyph-name="thorn" unicode="&#xfe;" horiz-adv-x="648" 
d="M173 777v-346c29 50 91 88 177 88c140 0 246 -100 246 -264c0 -165 -106 -265 -246 -265c-86 0 -148 37 -177 88v-333h-86v1032h86zM337 444c-93 0 -163 -59 -163 -175v-30c0 -115 70 -174 163 -174c97 0 171 67 171 189c0 123 -74 190 -171 190z" />
    <glyph glyph-name="q" unicode="q" horiz-adv-x="649" 
d="M299 519c87 0 152 -40 181 -93v84h81v-765h-86v331c-28 -49 -91 -86 -176 -86c-140 0 -246 100 -246 265c0 164 106 264 246 264zM311 444c-97 0 -171 -67 -171 -190c0 -122 74 -189 171 -189c94 0 164 59 164 174v30c0 116 -70 175 -164 175z" />
    <glyph glyph-name="r" unicode="r" horiz-adv-x="340" 
d="M321 516v-83c-91 0 -148 -62 -148 -140v-293h-86v510h84v-77c18 42 66 83 150 83z" />
    <glyph glyph-name="racute" unicode="&#x155;" horiz-adv-x="340" 
d="M229 595h-69l103 191h98zM321 516v-83c-91 0 -148 -62 -148 -140v-293h-86v510h84v-77c18 42 66 83 150 83z" />
    <glyph glyph-name="rcaron" unicode="&#x159;" horiz-adv-x="340" 
d="M237 594h-82l-120 168h74l87 -110l87 110h74zM321 516v-83c-91 0 -148 -62 -148 -140v-293h-86v510h84v-77c18 42 66 83 150 83z" />
    <glyph glyph-name="rcommaaccent" unicode="&#x157;" horiz-adv-x="340" 
d="M171 510v-77c18 42 66 83 150 83v-83c-91 0 -148 -62 -148 -140v-293h-86v510h84zM132 -41c35 0 55 -28 55 -67c0 -78 -34 -145 -113 -190v39c35 26 54 61 59 102c-31 0 -58 25 -58 57s24 59 57 59z" />
    <glyph glyph-name="s" unicode="s" horiz-adv-x="499" 
d="M244 518c114 1 176 -65 187 -153l-86 -5c-6 51 -39 85 -104 84c-65 1 -97 -29 -97 -74c0 -54 48 -58 121 -75c108 -26 177 -56 177 -147c0 -101 -75 -158 -193 -158c-115 0 -189 57 -202 155l86 6c8 -56 50 -86 118 -86c61 0 105 25 105 76c0 52 -34 64 -126 86
c-99 23 -173 42 -173 142c0 89 67 150 187 149z" />
    <glyph glyph-name="sacute" unicode="&#x15b;" horiz-adv-x="499" 
d="M274 595h-69l103 191h98zM244 518c114 1 176 -65 187 -153l-86 -5c-6 51 -39 85 -104 84c-65 1 -97 -29 -97 -74c0 -54 48 -58 121 -75c108 -26 177 -56 177 -147c0 -101 -75 -158 -193 -158c-115 0 -189 57 -202 155l86 6c8 -56 50 -86 118 -86c61 0 105 25 105 76
c0 52 -34 64 -126 86c-99 23 -173 42 -173 142c0 89 67 150 187 149z" />
    <glyph glyph-name="scaron" unicode="&#x161;" horiz-adv-x="499" 
d="M283 594h-82l-120 168h74l87 -110l87 110h74zM244 518c114 1 176 -65 187 -153l-86 -5c-6 51 -39 85 -104 84c-65 1 -97 -29 -97 -74c0 -54 48 -58 121 -75c108 -26 177 -56 177 -147c0 -101 -75 -158 -193 -158c-115 0 -189 57 -202 155l86 6c8 -56 50 -86 118 -86
c61 0 105 25 105 76c0 52 -34 64 -126 86c-99 23 -173 42 -173 142c0 89 67 150 187 149z" />
    <glyph glyph-name="scedilla" unicode="&#x15f;" horiz-adv-x="499" 
d="M442 148c0 -95 -66 -150 -171 -157l-10 -45c64 -5 111 -35 111 -95c0 -68 -61 -101 -126 -101c-39 0 -71 8 -97 21l16 53c19 -12 43 -20 73 -20c34 0 69 14 69 48c0 36 -30 50 -78 50c-12 0 -20 -2 -29 -4l25 93c-101 7 -166 63 -178 154l86 6c8 -56 50 -86 118 -86
c61 0 105 25 105 76c0 52 -34 64 -126 86c-99 23 -173 42 -173 142c0 89 67 150 187 149c114 1 176 -65 187 -153l-86 -5c-6 51 -39 85 -104 84c-65 1 -97 -29 -97 -74c0 -54 48 -58 121 -75c108 -26 177 -56 177 -147z" />
    <glyph glyph-name="scircumflex" unicode="&#x15d;" horiz-adv-x="499" 
d="M403 596h-74l-87 110l-87 -110h-74l120 169h82zM244 518c114 1 176 -65 187 -153l-86 -5c-6 51 -39 85 -104 84c-65 1 -97 -29 -97 -74c0 -54 48 -58 121 -75c108 -26 177 -56 177 -147c0 -101 -75 -158 -193 -158c-115 0 -189 57 -202 155l86 6c8 -56 50 -86 118 -86
c61 0 105 25 105 76c0 52 -34 64 -126 86c-99 23 -173 42 -173 142c0 89 67 150 187 149z" />
    <glyph glyph-name="scommaaccent" unicode="&#x219;" horiz-adv-x="499" 
d="M265 295c108 -26 177 -56 177 -147c0 -101 -75 -158 -193 -158c-115 0 -189 57 -202 155l86 6c8 -56 50 -86 118 -86c61 0 105 25 105 76c0 52 -34 64 -126 86c-99 23 -173 42 -173 142c0 89 67 150 187 149c114 1 176 -65 187 -153l-86 -5c-6 51 -39 85 -104 84
c-65 1 -97 -29 -97 -74c0 -54 48 -58 121 -75zM247 -46c35 0 55 -28 55 -67c0 -78 -34 -145 -113 -190v39c35 26 54 61 59 102c-31 0 -58 25 -58 57s24 59 57 59z" />
    <glyph glyph-name="germandbls" unicode="&#xdf;" horiz-adv-x="634" 
d="M295 785c127 0 206 -64 206 -160c0 -99 -90 -114 -90 -183c0 -84 173 -96 173 -265c0 -119 -90 -185 -213 -185c-45 0 -77 7 -101 17l17 70c22 -8 45 -15 77 -15c77 0 133 43 133 120c0 131 -174 142 -174 256c0 93 91 102 91 170c0 62 -42 101 -117 101
c-76 0 -126 -47 -126 -119v-592h-86v595c0 113 84 190 210 190z" />
    <glyph glyph-name="t" unicode="t" horiz-adv-x="357" 
d="M283 71c21 0 38 3 50 5v-77c-17 -3 -37 -6 -69 -6c-93 0 -158 48 -157 160l1 282h-95v75h95l1 176h87l-1 -176h137v-75h-137l-2 -265c0 -74 40 -99 90 -99z" />
    <glyph glyph-name="tbar" unicode="&#x167;" horiz-adv-x="357" 
d="M283 71c21 0 38 3 50 5v-77c-17 -3 -37 -6 -69 -6c-93 0 -158 48 -157 160v85h-94v63h95v134h-95v75h95l1 176h87l-1 -176h137v-75h-137l-1 -134h138v-63h-139v-68c0 -74 40 -99 90 -99z" />
    <glyph glyph-name="tcaron" unicode="&#x165;" horiz-adv-x="512" 
d="M444 750c35 0 55 -28 55 -67c0 -78 -34 -145 -113 -190v39c35 26 54 61 59 102c-31 0 -58 25 -58 57s24 59 57 59zM195 435l-2 -265c0 -74 40 -99 90 -99c21 0 38 3 50 5v-77c-17 -3 -37 -6 -69 -6c-93 0 -158 48 -157 160l1 282h-95v75h95l1 176h87l-1 -176h137v-75
h-137z" />
    <glyph glyph-name="uni021B" unicode="&#x21b;" horiz-adv-x="357" 
d="M283 71c21 0 38 3 50 5v-77c-17 -3 -37 -6 -69 -6c-93 0 -158 48 -157 160l1 282h-95v75h95l1 176h87l-1 -176h137v-75h-137l-2 -265c0 -74 40 -99 90 -99zM212 -49c35 0 55 -28 55 -67c0 -78 -34 -145 -113 -190v39c35 26 54 61 59 102c-31 0 -58 25 -58 57s24 59 57 59
z" />
    <glyph glyph-name="u" unicode="u" 
d="M504 0h-82v76c-19 -41 -68 -86 -153 -86c-114 0 -186 83 -186 205v315h86v-303c0 -83 43 -136 120 -136c81 0 129 66 129 141v298h86v-510z" />
    <glyph glyph-name="uacute" unicode="&#xfa;" 
d="M331 595h-69l103 191h98zM504 0h-82v76c-19 -41 -68 -86 -153 -86c-114 0 -186 83 -186 205v315h86v-303c0 -83 43 -136 120 -136c81 0 129 66 129 141v298h86v-510z" />
    <glyph glyph-name="ubreve" unicode="&#x16d;" 
d="M383 732h71c0 -88 -64 -134 -157 -134s-157 46 -157 134h71c0 -46 33 -73 86 -73c52 0 86 27 86 73zM504 0h-82v76c-19 -41 -68 -86 -153 -86c-114 0 -186 83 -186 205v315h86v-303c0 -83 43 -136 120 -136c81 0 129 66 129 141v298h86v-510z" />
    <glyph glyph-name="ucircumflex" unicode="&#xfb;" 
d="M459 596h-74l-87 110l-87 -110h-74l120 169h82zM504 0h-82v76c-19 -41 -68 -86 -153 -86c-114 0 -186 83 -186 205v315h86v-303c0 -83 43 -136 120 -136c81 0 129 66 129 141v298h86v-510z" />
    <glyph glyph-name="udieresis" unicode="&#xfc;" 
d="M220 732c29 0 52 -23 52 -51c0 -30 -23 -51 -52 -51s-52 21 -52 51c0 28 23 51 52 51zM370 732c29 0 51 -23 51 -51c0 -30 -22 -51 -51 -51s-53 21 -53 51c0 28 24 51 53 51zM504 0h-82v76c-19 -41 -68 -86 -153 -86c-114 0 -186 83 -186 205v315h86v-303
c0 -83 43 -136 120 -136c81 0 129 66 129 141v298h86v-510z" />
    <glyph glyph-name="ugrave" unicode="&#xf9;" 
d="M330 595h-68l-133 191h99zM504 0h-82v76c-19 -41 -68 -86 -153 -86c-114 0 -186 83 -186 205v315h86v-303c0 -83 43 -136 120 -136c81 0 129 66 129 141v298h86v-510z" />
    <glyph glyph-name="uhungarumlaut" unicode="&#x171;" 
d="M242 605h-68l62 158h82zM412 605h-68l62 158h83zM504 0h-82v76c-19 -41 -68 -86 -153 -86c-114 0 -186 83 -186 205v315h86v-303c0 -83 43 -136 120 -136c81 0 129 66 129 141v298h86v-510z" />
    <glyph glyph-name="umacron" unicode="&#x16b;" 
d="M430 635h-264v67h264v-67zM504 0h-82v76c-19 -41 -68 -86 -153 -86c-114 0 -186 83 -186 205v315h86v-303c0 -83 43 -136 120 -136c81 0 129 66 129 141v298h86v-510z" />
    <glyph glyph-name="uogonek" unicode="&#x173;" 
d="M505 -128l9 -44c-23 -10 -45 -16 -79 -16c-60 0 -108 28 -108 84c0 49 37 82 95 109v71c-19 -41 -68 -86 -153 -86c-114 0 -186 83 -186 205v315h86v-303c0 -83 43 -136 120 -136c81 0 129 66 129 141v298h86v-510h-19c-57 -29 -92 -54 -92 -94c0 -31 23 -46 56 -46
c22 0 39 4 56 12z" />
    <glyph glyph-name="uring" unicode="&#x16f;" 
d="M298 798c62 0 113 -44 113 -106s-51 -107 -113 -107c-64 0 -115 45 -115 107s51 106 115 106zM297 746c-34 0 -58 -22 -58 -54c0 -33 24 -55 58 -55s58 22 58 55c0 32 -24 54 -58 54zM504 0h-82v76c-19 -41 -68 -86 -153 -86c-114 0 -186 83 -186 205v315h86v-303
c0 -83 43 -136 120 -136c81 0 129 66 129 141v298h86v-510z" />
    <glyph glyph-name="utilde" unicode="&#x169;" 
d="M224 736c62 0 88 -61 136 -61c33 0 49 23 50 54h49c4 -63 -31 -120 -90 -120c-62 0 -88 61 -136 61c-32 0 -48 -23 -49 -54h-50c-4 64 31 120 90 120zM504 0h-82v76c-19 -41 -68 -86 -153 -86c-114 0 -186 83 -186 205v315h86v-303c0 -83 43 -136 120 -136
c81 0 129 66 129 141v298h86v-510z" />
    <glyph glyph-name="v" unicode="v" horiz-adv-x="530" 
d="M300 0h-69l-221 510h95l161 -380l158 380h96z" />
    <glyph glyph-name="w" unicode="w" horiz-adv-x="820" 
d="M616 0h-69l-137 365l-137 -365h-69l-194 510h94l137 -370l138 370h61l139 -370l138 370h93z" />
    <glyph glyph-name="wacute" unicode="&#x1e83;" horiz-adv-x="820" 
d="M443 595h-69l103 191h98zM616 0h-69l-137 365l-137 -365h-69l-194 510h94l137 -370l138 370h61l139 -370l138 370h93z" />
    <glyph glyph-name="wcircumflex" unicode="&#x175;" horiz-adv-x="820" 
d="M571 596h-74l-87 110l-87 -110h-74l120 169h82zM616 0h-69l-137 365l-137 -365h-69l-194 510h94l137 -370l138 370h61l139 -370l138 370h93z" />
    <glyph glyph-name="wdieresis" unicode="&#x1e85;" horiz-adv-x="820" 
d="M332 732c29 0 52 -23 52 -51c0 -30 -23 -51 -52 -51s-52 21 -52 51c0 28 23 51 52 51zM482 732c29 0 51 -23 51 -51c0 -30 -22 -51 -51 -51s-53 21 -53 51c0 28 24 51 53 51zM616 0h-69l-137 365l-137 -365h-69l-194 510h94l137 -370l138 370h61l139 -370l138 370h93z
" />
    <glyph glyph-name="wgrave" unicode="&#x1e81;" horiz-adv-x="820" 
d="M442 595h-68l-133 191h99zM616 0h-69l-137 365l-137 -365h-69l-194 510h94l137 -370l138 370h61l139 -370l138 370h93z" />
    <glyph glyph-name="x" unicode="x" horiz-adv-x="515" 
d="M320 261l179 -261h-103l-138 202l-140 -202h-101l175 263l-167 247h102l131 -191l128 191h103z" />
    <glyph glyph-name="y" unicode="y" horiz-adv-x="530" 
d="M193 -255h-95l121 283l-203 482h96l154 -385l153 385h96z" />
    <glyph glyph-name="yacute" unicode="&#xfd;" horiz-adv-x="530" 
d="M299 595h-69l103 191h98zM193 -255h-95l121 283l-203 482h96l154 -385l153 385h96z" />
    <glyph glyph-name="ycircumflex" unicode="&#x177;" horiz-adv-x="530" 
d="M427 596h-74l-87 110l-87 -110h-74l120 169h82zM193 -255h-95l121 283l-203 482h96l154 -385l153 385h96z" />
    <glyph glyph-name="ydieresis" unicode="&#xff;" horiz-adv-x="530" 
d="M188 732c29 0 52 -23 52 -51c0 -30 -23 -51 -52 -51s-52 21 -52 51c0 28 23 51 52 51zM338 732c29 0 51 -23 51 -51c0 -30 -22 -51 -51 -51s-53 21 -53 51c0 28 24 51 53 51zM193 -255h-95l121 283l-203 482h96l154 -385l153 385h96z" />
    <glyph glyph-name="ygrave" unicode="&#x1ef3;" horiz-adv-x="530" 
d="M298 595h-68l-133 191h99zM193 -255h-95l121 283l-203 482h96l154 -385l153 385h96z" />
    <glyph glyph-name="z" unicode="z" horiz-adv-x="448" 
d="M405 452l-271 -382h283v-70h-384v57l272 382h-266v71h366v-58z" />
    <glyph glyph-name="zacute" unicode="&#x17a;" horiz-adv-x="448" 
d="M260 595h-69l103 191h98zM405 452l-271 -382h283v-70h-384v57l272 382h-266v71h366v-58z" />
    <glyph glyph-name="zcaron" unicode="&#x17e;" horiz-adv-x="448" 
d="M268 594h-82l-120 168h74l87 -110l87 110h74zM405 452l-271 -382h283v-70h-384v57l272 382h-266v71h366v-58z" />
    <glyph glyph-name="zdotaccent" unicode="&#x17c;" horiz-adv-x="448" 
d="M228 738c31 0 57 -26 57 -57c0 -32 -26 -58 -57 -58c-32 0 -59 26 -59 58c0 31 27 57 59 57zM405 452l-271 -382h283v-70h-384v57l272 382h-266v71h366v-58z" />
    <glyph glyph-name="n.001" horiz-adv-x="609" 
d="M330 519c115 0 196 -78 196 -201v-318h-87v299c0 85 -52 140 -129 140c-81 0 -137 -64 -137 -141v-298h-86v510h82v-89c18 50 77 98 161 98z" />
    <glyph glyph-name="germandbls.cap" horiz-adv-x="689" 
d="M329 756c120 0 201 -50 259 -120l-116 -180c102 -29 174 -97 174 -225c0 -148 -110 -239 -269 -239c-36 0 -64 3 -88 8l18 81c18 -6 39 -8 66 -8c104 0 179 59 179 157c0 112 -79 160 -209 182l127 204c-29 33 -73 59 -145 59c-85 0 -151 -55 -151 -139v-536h-91v535
c0 134 107 221 246 221z" />
    <glyph glyph-name="a.sups" horiz-adv-x="441" 
d="M218 756c106 0 159 -56 159 -160v-256h-73v52c-22 -34 -70 -60 -129 -60c-80 0 -134 39 -134 115c0 85 72 118 164 124l94 6v24c0 56 -28 88 -81 88c-60 0 -89 -40 -89 -81l-76 3c0 72 60 145 165 145zM300 522l-89 -6c-55 -4 -91 -21 -91 -65c0 -41 28 -58 70 -58
c53 -1 110 30 110 111v18z" />
    <glyph glyph-name="b.sups" horiz-adv-x="521" 
d="M145 962v-269c22 37 72 63 136 63c113 0 198 -81 198 -212s-85 -212 -198 -212c-67 0 -118 28 -140 67v-59h-73v622h77zM269 689c-71 0 -124 -46 -124 -133v-24c0 -87 53 -133 124 -133c75 0 132 51 132 144c0 94 -57 146 -132 146z" />
    <glyph glyph-name="c.sups" horiz-adv-x="464" 
d="M244 756c98 0 173 -58 186 -154l-75 -7c-8 59 -52 94 -111 94c-72 0 -124 -52 -124 -146c0 -92 54 -144 124 -144c61 0 102 33 111 88l75 -7c-15 -92 -87 -148 -186 -148c-115 0 -203 78 -203 211c0 135 86 213 203 213z" />
    <glyph glyph-name="d.sups" horiz-adv-x="521" 
d="M452 340h-72v59c-22 -39 -74 -67 -141 -67c-113 0 -198 81 -198 212s85 212 198 212c65 0 115 -26 136 -63v269h77v-622zM251 689c-74 0 -131 -52 -131 -146c0 -93 57 -144 131 -144c71 0 124 46 124 133v24c0 87 -53 133 -124 133z" />
    <glyph glyph-name="e.sups" horiz-adv-x="474" 
d="M433 517h-309c3 -77 51 -118 120 -118c57 0 96 27 107 70l78 -5c-16 -79 -89 -132 -184 -132c-117 0 -204 78 -204 211c0 134 85 213 203 213c117 0 189 -78 189 -202v-37zM243 689c-64 0 -112 -41 -118 -112h230c-3 64 -41 112 -112 112z" />
    <glyph glyph-name="f.sups" horiz-adv-x="276" 
d="M237 965c15 0 24 -1 32 -3v-67c-5 2 -13 2 -22 2c-49 0 -81 -30 -81 -83v-66h102v-67h-102v-341h-78v341h-79v67h79v65c0 95 59 152 149 152z" />
    <glyph glyph-name="g.sups" horiz-adv-x="519" 
d="M239 756c67 0 119 -28 141 -66v58h72v-430c0 -118 -78 -189 -197 -189c-118 0 -185 60 -201 146l78 3c8 -52 57 -84 120 -84c73 0 123 41 123 119v82c-22 -37 -71 -63 -136 -63c-113 0 -198 81 -198 212s85 212 198 212zM251 689c-74 0 -131 -51 -131 -145
s57 -145 131 -145c71 0 124 46 124 133v24c0 88 -53 133 -124 133z" />
    <glyph glyph-name="h.sups" horiz-adv-x="484" 
d="M145 962v-265c17 27 57 59 121 59c93 0 158 -62 158 -162v-254h-78v237c0 66 -39 107 -98 107c-62 0 -103 -48 -103 -108v-236h-77v622h77z" />
    <glyph glyph-name="i.sups" horiz-adv-x="214" 
d="M107 944c27 0 49 -23 49 -50c0 -28 -22 -49 -49 -49c-28 0 -50 21 -50 49c0 27 23 50 50 50zM146 340h-78v408h78v-408z" />
    <glyph glyph-name="j.sups" horiz-adv-x="214" 
d="M106 944c28 0 50 -23 50 -50c0 -28 -22 -49 -50 -49c-27 0 -49 21 -49 49c0 27 22 50 49 50zM146 748v-465c0 -96 -56 -152 -144 -152c-15 0 -24 1 -34 2v68c7 -1 14 -2 24 -2c47 0 77 29 77 82v467h77z" />
    <glyph glyph-name="k.sups" horiz-adv-x="435" 
d="M145 575l170 173h97l-171 -178l189 -230h-98l-145 174l-42 -42v-132h-77v622h77v-387z" />
    <glyph glyph-name="l.sups" horiz-adv-x="213" 
d="M145 340h-77v622h77v-622z" />
    <glyph glyph-name="m.sups" horiz-adv-x="748" 
d="M529 756c93 0 154 -62 154 -162v-254h-78v237c0 66 -34 107 -92 107c-62 0 -99 -48 -99 -108v-236h-78v237c0 66 -34 107 -93 107c-61 0 -98 -48 -98 -108v-236h-77v408h73v-51c15 25 54 59 119 59c63 0 110 -27 135 -75c22 42 67 75 134 75z" />
    <glyph glyph-name="n.sups" horiz-adv-x="488" 
d="M266 756c93 0 158 -62 158 -162v-254h-78v237c0 66 -39 107 -98 107c-62 0 -103 -48 -103 -108v-236h-77v408h73v-51c17 27 59 59 125 59z" />
    <glyph glyph-name="o.sups" horiz-adv-x="506" 
d="M252 756c121 0 212 -83 212 -213s-91 -211 -212 -211c-120 0 -211 81 -211 211s91 213 211 213zM253 689c-76 0 -133 -54 -133 -146c0 -91 57 -144 133 -144s134 53 134 144c0 92 -58 146 -134 146z" />
    <glyph glyph-name="p.sups" horiz-adv-x="521" 
d="M281 756c113 0 198 -81 198 -212s-85 -212 -198 -212c-64 0 -114 26 -136 63v-259h-77v612h73v-58c22 38 73 66 140 66zM269 689c-71 0 -124 -45 -124 -133v-24c0 -87 53 -133 124 -133c75 0 132 51 132 145s-57 145 -132 145z" />
    <glyph glyph-name="q.sups" horiz-adv-x="521" 
d="M239 756c67 0 119 -28 141 -66v58h72v-612h-77v259c-21 -37 -71 -63 -136 -63c-113 0 -198 81 -198 212s85 212 198 212zM251 689c-74 0 -131 -51 -131 -145s57 -145 131 -145c71 0 124 46 124 133v24c0 88 -53 133 -124 133z" />
    <glyph glyph-name="r.sups" horiz-adv-x="274" 
d="M261 753v-74c-71 0 -116 -48 -116 -109v-230h-77v408h74v-50c18 27 54 55 119 55z" />
    <glyph glyph-name="s.sups" horiz-adv-x="400" 
d="M195 756c94 0 145 -53 153 -127l-77 -5c-4 41 -30 65 -76 65c-48 0 -74 -21 -74 -55c0 -41 38 -42 95 -56c88 -20 141 -44 141 -118c0 -82 -61 -128 -158 -128c-94 0 -154 48 -164 128l78 5c5 -44 37 -67 86 -67c48 0 81 18 81 59c0 37 -28 45 -98 61
c-83 19 -138 36 -138 116c0 74 53 122 151 122z" />
    <glyph glyph-name="t.sups" horiz-adv-x="284" 
d="M228 403c18 0 31 2 41 4v-69c-15 -2 -32 -4 -58 -4c-77 0 -130 38 -130 131l1 216h-76v67h76l1 141h78l-1 -141h108v-67h-109l-1 -205c0 -57 32 -73 70 -73z" />
    <glyph glyph-name="u.sups" horiz-adv-x="475" 
d="M407 340h-74v51c-17 -28 -54 -59 -119 -59c-93 0 -150 60 -150 158v258h78v-240c0 -64 32 -103 91 -103c60 0 97 45 97 102v241h77v-408z" />
    <glyph glyph-name="v.sups" horiz-adv-x="430" 
d="M246 340h-61l-177 408h85l123 -288l122 288h84z" />
    <glyph glyph-name="w.sups" horiz-adv-x="661" 
d="M498 340h-60l-107 288l-108 -288h-59l-156 408h85l106 -283l105 283h54l105 -283l106 283h84z" />
    <glyph glyph-name="x.sups" horiz-adv-x="417" 
d="M264 549l142 -209h-92l-105 152l-103 -152h-94l142 208l-136 200h93l98 -144l98 144h92z" />
    <glyph glyph-name="y.sups" horiz-adv-x="431" 
d="M159 136h-84l98 232l-161 380h85l119 -288l118 288h84z" />
    <glyph glyph-name="z.sups" horiz-adv-x="362" 
d="M326 694l-210 -292h219v-62h-309v53l210 292h-206v63h296v-54z" />
    <glyph glyph-name="fl" unicode="&#xfb02;" horiz-adv-x="604" 
d="M292 781c17 0 27 -1 38 -2v-75c-8 1 -16 2 -29 2c-62 0 -104 -40 -104 -109v-87h131v-75h-131v-435h-86v435h-99v75h99v85c0 117 71 186 181 186zM516 0h-86v777h86v-777z" />
    <glyph glyph-name="ordfeminine" unicode="&#xaa;" horiz-adv-x="441" 
d="M218 756c106 0 159 -56 159 -160v-256h-73v52c-22 -34 -70 -60 -129 -60c-80 0 -134 39 -134 115c0 85 72 118 164 124l94 6v24c0 56 -28 88 -81 88c-60 0 -89 -40 -89 -81l-76 3c0 72 60 145 165 145zM300 522l-89 -6c-55 -4 -91 -21 -91 -65c0 -41 28 -58 70 -58
c53 -1 110 30 110 111v18z" />
    <glyph glyph-name="ordmasculine" unicode="&#xba;" horiz-adv-x="506" 
d="M252 756c121 0 212 -83 212 -213s-91 -211 -212 -211c-120 0 -211 81 -211 211s91 213 211 213zM253 689c-76 0 -133 -54 -133 -146c0 -91 57 -144 133 -144s134 53 134 144c0 92 -58 146 -134 146z" />
    <glyph glyph-name="Omega" unicode="&#x3a9;" horiz-adv-x="784" 
d="M392 719c206 0 324 -150 324 -345c0 -140 -83 -254 -140 -307h185v-67h-280v61c73 51 162 175 162 310c0 161 -91 281 -251 281c-161 0 -252 -120 -252 -281c0 -135 89 -259 162 -310v-61h-279v67h184c-57 53 -139 167 -139 307c0 194 117 345 324 345z" />
    <glyph glyph-name="mu" unicode="&#x3bc;" horiz-adv-x="596" 
d="M508 510v-510h-81v76c-19 -41 -68 -86 -153 -86c-39 0 -73 10 -101 27v-272h-86v756h1v9h85v-303c0 -83 44 -136 121 -136c81 0 128 66 128 141v298h86z" />
    <glyph glyph-name="pi" unicode="&#x3c0;" horiz-adv-x="660" 
d="M564 524l67 -39c-23 -55 -61 -104 -141 -104h-20l-32 -261c-5 -35 5 -55 38 -55c20 0 36 9 53 22l39 -51c-29 -28 -60 -44 -105 -44c-76 0 -103 50 -95 124l32 265h-124l-28 -219c-10 -78 -28 -123 -47 -162h-81c28 57 46 101 57 177l25 204h-36c-44 0 -74 -21 -96 -43
l-40 59c36 33 74 61 152 61h267c66 0 93 25 115 66z" />
    <glyph glyph-name="zero" unicode="0" horiz-adv-x="644" 
d="M323 758c162 0 268 -137 268 -384s-106 -384 -268 -384c-164 0 -270 137 -270 384s106 384 270 384zM322 676c-115 0 -176 -104 -176 -302s61 -302 176 -302c114 0 177 104 177 302s-63 302 -177 302z" />
    <glyph glyph-name="one" unicode="1" horiz-adv-x="372" 
d="M280 0h-90v625l-132 -101l-45 71l200 153h67v-748z" />
    <glyph glyph-name="two" unicode="2" horiz-adv-x="536" 
d="M275 757c138 0 215 -79 215 -209c0 -125 -63 -209 -147 -297l-162 -170h318v-81h-443v74l219 231c85 89 123 143 123 239c0 79 -42 132 -121 132c-87 0 -131 -56 -132 -150l-91 5c2 142 82 226 221 226z" />
    <glyph glyph-name="three" unicode="3" horiz-adv-x="557" 
d="M276 758c134 0 215 -80 215 -205c0 -88 -49 -144 -107 -166c71 -17 126 -78 126 -176c0 -136 -93 -221 -232 -221c-146 0 -227 85 -236 220l92 5c8 -90 56 -143 144 -143c87 0 140 53 140 141c0 89 -62 133 -148 133h-73v81h71c76 0 131 48 131 126
c0 80 -48 123 -123 123c-79 0 -126 -49 -132 -135l-90 5c5 131 85 212 222 212z" />
    <glyph glyph-name="four" unicode="4" horiz-adv-x="596" 
d="M442 259h129v-82h-129v-177h-89v177h-326v75l339 496h76v-489zM128 259h225v325z" />
    <glyph glyph-name="five" unicode="5" horiz-adv-x="559" 
d="M289 459c130 0 223 -85 223 -230c0 -140 -87 -239 -235 -239c-142 0 -224 83 -233 214l92 5c8 -85 54 -137 142 -137c94 0 143 66 143 155c0 91 -56 151 -141 151c-50 0 -89 -16 -125 -45h-84v415h413v-81h-323v-244c35 22 77 36 128 36z" />
    <glyph glyph-name="six" unicode="6" horiz-adv-x="592" 
d="M298 478c142 0 250 -97 250 -245s-108 -243 -250 -243c-144 0 -251 95 -251 243c0 62 19 112 51 155l269 360h108l-202 -271c8 1 16 1 25 1zM298 72c90 0 158 63 158 164s-68 162 -158 162c-53 0 -97 -19 -126 -56c-21 -27 -33 -62 -33 -106c0 -101 67 -164 159 -164z
" />
    <glyph glyph-name="seven" unicode="7" horiz-adv-x="539" 
d="M515 674l-351 -674h-101l351 667h-391v81h492v-74z" />
    <glyph glyph-name="eight" unicode="8" horiz-adv-x="599" 
d="M299 758c127 0 225 -75 225 -201c0 -80 -44 -136 -101 -162c68 -29 120 -93 120 -186c0 -136 -105 -219 -244 -219c-138 0 -243 83 -243 219c0 92 51 156 119 185c-59 26 -101 83 -101 163c0 126 96 201 225 201zM300 676c-76 0 -135 -45 -135 -124
c0 -76 59 -121 135 -121c75 0 134 45 134 121c0 79 -59 124 -134 124zM299 351c-86 0 -152 -51 -152 -139s66 -140 152 -140s152 52 152 140s-66 139 -152 139z" />
    <glyph glyph-name="nine" unicode="9" horiz-adv-x="592" 
d="M294 758c144 0 251 -95 251 -243c0 -62 -19 -112 -51 -155l-269 -360h-108l202 271c-8 -1 -16 -1 -25 -1c-142 0 -250 97 -250 245s108 243 250 243zM294 350c53 0 97 19 126 56c21 27 33 62 33 106c0 101 -67 164 -159 164c-90 0 -158 -63 -158 -164s68 -162 158 -162z
" />
    <glyph glyph-name="zero.onum" horiz-adv-x="646" 
d="M323 601c163 0 269 -117 269 -305c0 -189 -106 -306 -269 -306c-164 0 -270 117 -270 306c0 188 106 305 270 305zM323 520c-110 0 -176 -84 -176 -224s66 -224 176 -224c109 0 175 84 175 224s-66 224 -175 224z" />
    <glyph glyph-name="one.onum" horiz-adv-x="372" 
d="M280 0h-90v474l-137 -108l-40 71l200 153h67v-590z" />
    <glyph glyph-name="two.onum" horiz-adv-x="536" 
d="M275 599c143 0 215 -76 215 -197c0 -99 -68 -164 -145 -223l-129 -98h283v-81h-441v70l217 162c66 49 123 89 123 168c0 76 -41 118 -121 118c-83 0 -131 -53 -132 -145l-91 5c2 139 84 221 221 221z" />
    <glyph glyph-name="three.onum" horiz-adv-x="557" 
d="M276 600c134 0 215 -80 215 -205c0 -88 -49 -144 -107 -166c71 -17 126 -78 126 -176c0 -136 -93 -221 -232 -221c-146 0 -227 85 -236 220l92 5c8 -90 56 -143 144 -143c87 0 140 53 140 141c0 89 -62 133 -148 133h-73v81h71c76 0 131 48 131 126
c0 80 -48 123 -123 123c-79 0 -126 -49 -132 -135l-90 5c5 131 85 212 222 212z" />
    <glyph glyph-name="four.onum" horiz-adv-x="596" 
d="M442 101h129v-82h-129v-177h-89v177h-326v75l339 496h76v-489zM128 101h225v325z" />
    <glyph glyph-name="five.onum" horiz-adv-x="559" 
d="M289 301c130 0 223 -85 223 -230c0 -140 -87 -239 -235 -239c-142 0 -224 83 -233 214l92 5c8 -85 54 -137 142 -137c94 0 143 66 143 155c0 91 -56 151 -141 151c-50 0 -89 -16 -125 -45h-84v415h413v-81h-323v-244c35 22 77 36 128 36z" />
    <glyph glyph-name="six.onum" horiz-adv-x="592" 
d="M298 478c142 0 250 -97 250 -245s-108 -243 -250 -243c-144 0 -251 95 -251 243c0 62 19 112 51 155l269 360h108l-202 -271c8 1 16 1 25 1zM298 72c90 0 158 63 158 164s-68 162 -158 162c-53 0 -97 -19 -126 -56c-21 -27 -33 -62 -33 -106c0 -101 67 -164 159 -164z
" />
    <glyph glyph-name="seven.onum" horiz-adv-x="539" 
d="M515 516l-351 -674h-101l351 667h-391v81h492v-74z" />
    <glyph glyph-name="eight.onum" horiz-adv-x="599" 
d="M299 758c127 0 225 -75 225 -201c0 -80 -44 -136 -101 -162c68 -29 120 -93 120 -186c0 -136 -105 -219 -244 -219c-138 0 -243 83 -243 219c0 92 51 156 119 185c-59 26 -101 83 -101 163c0 126 96 201 225 201zM300 676c-76 0 -135 -45 -135 -124
c0 -76 59 -121 135 -121c75 0 134 45 134 121c0 79 -59 124 -134 124zM299 351c-86 0 -152 -51 -152 -139s66 -140 152 -140s152 52 152 140s-66 139 -152 139z" />
    <glyph glyph-name="nine.onum" horiz-adv-x="592" 
d="M294 600c144 0 251 -95 251 -243c0 -62 -19 -112 -51 -155l-269 -360h-108l202 271c-8 -1 -16 -1 -25 -1c-142 0 -250 97 -250 245s108 243 250 243zM294 192c53 0 97 19 126 56c21 27 33 62 33 106c0 101 -67 164 -159 164c-90 0 -158 -63 -158 -164s68 -162 158 -162z
" />
    <glyph glyph-name="zero.slash" horiz-adv-x="645" 
d="M323 758c162 0 268 -137 268 -384s-106 -384 -268 -384c-164 0 -270 137 -270 384s106 384 270 384zM322 676c-115 0 -176 -104 -176 -302c0 -88 12 -158 36 -208l244 469c-28 27 -62 41 -104 41zM322 72c114 0 177 104 177 302c0 86 -12 155 -35 205l-243 -469
c27 -25 61 -38 101 -38z" />
    <glyph glyph-name="zero.subs" horiz-adv-x="370" 
d="M185 337c91 0 152 -75 152 -211c0 -137 -61 -212 -152 -212c-90 0 -152 75 -152 212c0 136 62 211 152 211zM185 277c-56 0 -84 -52 -84 -151s28 -151 84 -151c55 0 84 52 84 151s-29 151 -84 151z" />
    <glyph glyph-name="one.subs" horiz-adv-x="223" 
d="M175 -80h-68v321l-69 -53l-30 53l124 90h43v-411z" />
    <glyph glyph-name="two.subs" horiz-adv-x="314" 
d="M157 337c85 0 126 -53 126 -125c0 -62 -30 -105 -74 -152l-77 -80h155v-60h-256v46l129 135c35 37 55 67 55 112c0 38 -20 64 -57 64c-39 0 -63 -26 -63 -70l-66 4c1 79 50 126 128 126z" />
    <glyph glyph-name="three.subs" horiz-adv-x="323" 
d="M159 337c78 0 124 -44 124 -115c0 -47 -27 -76 -55 -89c34 -10 63 -44 63 -95c0 -77 -53 -124 -131 -124c-84 0 -130 48 -133 123l67 5c4 -42 26 -67 66 -67c39 0 64 24 64 65c0 42 -29 62 -69 62h-41v58h40c34 0 63 22 63 59s-24 58 -58 58c-35 0 -58 -22 -60 -63l-66 4
c2 74 47 119 126 119z" />
    <glyph glyph-name="four.subs" horiz-adv-x="346" 
d="M264 71h62v-61h-62v-90h-68v90h-178v53l182 268h64v-260zM78 71h119v167z" />
    <glyph glyph-name="five.subs" horiz-adv-x="321" 
d="M168 177c72 0 125 -46 125 -129c0 -80 -50 -134 -134 -134c-80 0 -127 47 -131 119l67 4c4 -38 26 -62 65 -62c43 0 66 30 66 72c0 43 -26 70 -66 70c-23 0 -40 -8 -58 -22h-59v236h234v-60h-167v-108c16 9 35 14 58 14z" />
    <glyph glyph-name="six.subs" horiz-adv-x="343" 
d="M282 331l-106 -145c78 -1 138 -55 138 -136c0 -83 -61 -136 -141 -136c-81 0 -143 53 -143 136c0 34 12 62 29 87l142 194h81zM172 -25c43 0 74 30 74 77c0 49 -30 75 -74 75c-25 0 -45 -8 -58 -25c-9 -13 -16 -29 -16 -50c0 -47 32 -77 74 -77z" />
    <glyph glyph-name="seven.subs" horiz-adv-x="314" 
d="M293 280l-179 -360h-75l177 351h-197v60h274v-51z" />
    <glyph glyph-name="eight.subs" horiz-adv-x="346" 
d="M173 337c72 0 128 -43 128 -114c0 -39 -20 -68 -44 -85c31 -19 55 -53 55 -100c0 -77 -60 -124 -139 -124s-139 47 -139 124c0 48 24 80 54 99c-24 18 -44 44 -44 86c0 71 55 114 129 114zM173 277c-36 0 -66 -21 -66 -60c0 -38 30 -58 66 -58c37 0 64 21 64 58
c0 39 -27 60 -64 60zM173 103c-40 0 -72 -22 -72 -64c0 -41 32 -64 72 -64c41 0 71 23 71 64c0 42 -31 64 -71 64z" />
    <glyph glyph-name="nine.subs" horiz-adv-x="343" 
d="M171 337c82 0 143 -53 143 -136c0 -34 -11 -62 -30 -87l-140 -194h-82l106 145c-78 1 -138 55 -138 136c0 83 61 136 141 136zM172 124c25 0 45 8 58 25c10 13 16 29 16 50c0 47 -31 78 -74 78c-42 0 -74 -30 -74 -78c0 -47 31 -75 74 -75z" />
    <glyph glyph-name="zero.sups" horiz-adv-x="370" 
d="M185 819c91 0 152 -75 152 -211c0 -137 -61 -212 -152 -212c-90 0 -152 75 -152 212c0 136 62 211 152 211zM185 759c-56 0 -84 -52 -84 -151s28 -151 84 -151c55 0 84 52 84 151s-29 151 -84 151z" />
    <glyph glyph-name="one.sups" horiz-adv-x="223" 
d="M175 402h-68v321l-69 -53l-30 53l124 90h43v-411z" />
    <glyph glyph-name="two.sups" horiz-adv-x="314" 
d="M157 819c85 0 126 -53 126 -125c0 -62 -30 -105 -74 -152l-77 -80h155v-60h-256v46l129 135c35 37 55 67 55 112c0 38 -20 64 -57 64c-39 0 -63 -26 -63 -70l-66 4c1 79 50 126 128 126z" />
    <glyph glyph-name="three.sups" horiz-adv-x="323" 
d="M159 819c78 0 124 -44 124 -115c0 -47 -27 -76 -55 -89c34 -10 63 -44 63 -95c0 -77 -53 -124 -131 -124c-84 0 -130 48 -133 123l67 5c4 -42 26 -67 66 -67c39 0 64 24 64 65c0 42 -29 62 -69 62h-41v58h40c34 0 63 22 63 59s-24 58 -58 58c-35 0 -58 -22 -60 -63l-66 4
c2 74 47 119 126 119z" />
    <glyph glyph-name="four.sups" horiz-adv-x="346" 
d="M264 553h62v-61h-62v-90h-68v90h-178v53l182 268h64v-260zM78 553h119v167z" />
    <glyph glyph-name="five.sups" horiz-adv-x="321" 
d="M168 659c72 0 125 -46 125 -129c0 -80 -50 -134 -134 -134c-80 0 -127 47 -131 119l67 4c4 -38 26 -62 65 -62c43 0 66 30 66 72c0 43 -26 70 -66 70c-23 0 -40 -8 -58 -22h-59v236h234v-60h-167v-108c16 9 35 14 58 14z" />
    <glyph glyph-name="six.sups" horiz-adv-x="343" 
d="M282 813l-106 -145c78 -1 138 -55 138 -136c0 -83 -61 -136 -141 -136c-81 0 -143 53 -143 136c0 34 12 62 29 87l142 194h81zM172 457c43 0 74 30 74 77c0 49 -30 75 -74 75c-25 0 -45 -8 -58 -25c-9 -13 -16 -29 -16 -50c0 -47 32 -77 74 -77z" />
    <glyph glyph-name="seven.sups" horiz-adv-x="314" 
d="M293 762l-179 -360h-75l177 351h-197v60h274v-51z" />
    <glyph glyph-name="eight.sups" horiz-adv-x="346" 
d="M173 819c72 0 128 -43 128 -114c0 -39 -20 -68 -44 -85c31 -19 55 -53 55 -100c0 -77 -60 -124 -139 -124s-139 47 -139 124c0 48 24 80 54 99c-24 18 -44 44 -44 86c0 71 55 114 129 114zM173 759c-36 0 -66 -21 -66 -60c0 -38 30 -58 66 -58c37 0 64 21 64 58
c0 39 -27 60 -64 60zM173 585c-40 0 -72 -22 -72 -64c0 -41 32 -64 72 -64c41 0 71 23 71 64c0 42 -31 64 -71 64z" />
    <glyph glyph-name="nine.sups" horiz-adv-x="343" 
d="M171 819c82 0 143 -53 143 -136c0 -34 -11 -62 -30 -87l-140 -194h-82l106 145c-78 1 -138 55 -138 136c0 83 61 136 141 136zM172 606c25 0 45 8 58 25c10 13 16 29 16 50c0 47 -31 78 -74 78c-42 0 -74 -30 -74 -78c0 -47 31 -75 74 -75z" />
    <glyph glyph-name="zero.tnum" horiz-adv-x="650" 
d="M325 758c162 0 269 -137 269 -384s-107 -384 -269 -384c-163 0 -270 137 -270 384s107 384 270 384zM325 676c-115 0 -177 -104 -177 -302s62 -302 177 -302c114 0 176 104 176 302s-62 302 -176 302z" />
    <glyph glyph-name="one.tnum" horiz-adv-x="650" 
d="M405 81h156v-81h-416v81h169v545l-144 -109l-43 69l211 162h67v-667z" />
    <glyph glyph-name="two.tnum" horiz-adv-x="650" 
d="M328 757c137 0 214 -79 214 -209c0 -125 -63 -209 -147 -297l-162 -170h318v-81h-443v74l220 231c84 89 123 143 123 239c0 79 -43 132 -121 132c-88 0 -131 -56 -133 -150l-91 5c2 142 82 226 222 226z" />
    <glyph glyph-name="three.tnum" horiz-adv-x="650" 
d="M323 758c135 0 216 -80 216 -205c0 -88 -49 -144 -107 -166c71 -17 125 -78 125 -176c0 -136 -93 -221 -231 -221c-147 0 -227 85 -236 220l91 5c9 -90 57 -143 144 -143c88 0 140 53 140 141c0 89 -61 133 -147 133h-74v81h72c76 0 131 48 131 126
c0 80 -48 123 -124 123c-78 0 -126 -49 -131 -135l-91 5c6 131 85 212 222 212z" />
    <glyph glyph-name="four.tnum" horiz-adv-x="650" 
d="M465 259h129v-82h-129v-177h-89v177h-327v75l340 496h76v-489zM151 259h224v325z" />
    <glyph glyph-name="five.tnum" horiz-adv-x="650" 
d="M332 459c130 0 224 -85 224 -230c0 -140 -87 -239 -236 -239c-142 0 -223 83 -232 214l91 5c8 -85 55 -137 142 -137c94 0 144 66 144 155c0 91 -56 151 -142 151c-50 0 -89 -16 -125 -45h-84v415h413v-81h-323v-244c35 22 76 36 128 36z" />
    <glyph glyph-name="six.tnum" horiz-adv-x="650" 
d="M322 478c142 0 250 -97 250 -245s-108 -243 -250 -243c-143 0 -251 95 -251 243c0 62 19 112 51 155l269 360h109l-202 -271c8 1 16 1 24 1zM322 72c91 0 158 63 158 164s-67 162 -158 162c-53 0 -97 -19 -125 -56c-21 -27 -33 -62 -33 -106c0 -101 66 -164 158 -164z
" />
    <glyph glyph-name="seven.tnum" horiz-adv-x="650" 
d="M566 674l-351 -674h-101l351 667h-391v81h492v-74z" />
    <glyph glyph-name="eight.tnum" horiz-adv-x="650" 
d="M324 758c128 0 226 -75 226 -201c0 -80 -44 -136 -102 -162c68 -29 120 -93 120 -186c0 -136 -105 -219 -243 -219c-139 0 -243 83 -243 219c0 92 50 156 118 185c-58 26 -101 83 -101 163c0 126 96 201 225 201zM325 676c-76 0 -135 -45 -135 -124
c0 -76 59 -121 135 -121s134 45 134 121c0 79 -58 124 -134 124zM324 351c-85 0 -152 -51 -152 -139s67 -140 152 -140c87 0 153 52 153 140s-66 139 -153 139z" />
    <glyph glyph-name="nine.tnum" horiz-adv-x="650" 
d="M328 758c143 0 251 -95 251 -243c0 -62 -19 -112 -51 -155l-269 -360h-109l202 271c-8 -1 -16 -1 -24 -1c-142 0 -250 97 -250 245s108 243 250 243zM328 350c53 0 97 19 125 56c21 27 33 62 33 106c0 101 -66 164 -158 164c-91 0 -158 -63 -158 -164s67 -162 158 -162z
" />
    <glyph glyph-name="fraction" unicode="&#x2044;" horiz-adv-x="197" 
d="M-120 0h-89l527 748h89z" />
    <glyph glyph-name="onehalf" unicode="&#xbd;" horiz-adv-x="728" 
d="M113 0h-89l527 748h89zM175 322h-68v321l-69 -53l-30 53l124 90h43v-411zM571 417c85 0 126 -53 126 -125c0 -62 -30 -105 -74 -152l-77 -80h155v-60h-256v46l129 135c35 37 55 67 55 112c0 38 -20 64 -57 64c-39 0 -63 -26 -63 -70l-66 4c1 79 50 126 128 126z" />
    <glyph glyph-name="onequarter" unicode="&#xbc;" horiz-adv-x="690" 
d="M113 0h-89l527 748h89zM175 322h-68v321l-69 -53l-30 53l124 90h43v-411zM609 151h62v-61h-62v-90h-68v90h-178v53l182 268h64v-260zM423 151h119v167z" />
    <glyph glyph-name="threequarters" unicode="&#xbe;" horiz-adv-x="781" 
d="M203 0h-89l527 748h89zM159 738c78 0 124 -44 124 -115c0 -47 -27 -76 -55 -89c34 -10 63 -44 63 -95c0 -77 -53 -124 -131 -124c-84 0 -130 48 -133 123l67 5c4 -42 26 -67 66 -67c39 0 64 24 64 65c0 42 -29 62 -69 62h-41v58h40c34 0 63 22 63 59s-24 58 -58 58
c-35 0 -58 -22 -60 -63l-66 4c2 74 47 119 126 119zM699 151h62v-61h-62v-90h-68v90h-178v53l182 268h64v-260zM513 151h119v167z" />
    <glyph glyph-name="zero.dnom" horiz-adv-x="370" 
d="M185 417c91 0 152 -75 152 -211c0 -137 -61 -212 -152 -212c-90 0 -152 75 -152 212c0 136 62 211 152 211zM185 357c-56 0 -84 -52 -84 -151s28 -151 84 -151c55 0 84 52 84 151s-29 151 -84 151z" />
    <glyph glyph-name="one.dnom" horiz-adv-x="223" 
d="M175 0h-68v321l-69 -53l-30 53l124 90h43v-411z" />
    <glyph glyph-name="two.dnom" horiz-adv-x="314" 
d="M157 417c85 0 126 -53 126 -125c0 -62 -30 -105 -74 -152l-77 -80h155v-60h-256v46l129 135c35 37 55 67 55 112c0 38 -20 64 -57 64c-39 0 -63 -26 -63 -70l-66 4c1 79 50 126 128 126z" />
    <glyph glyph-name="three.dnom" horiz-adv-x="323" 
d="M159 417c78 0 124 -44 124 -115c0 -47 -27 -76 -55 -89c34 -10 63 -44 63 -95c0 -77 -53 -124 -131 -124c-84 0 -130 48 -133 123l67 5c4 -42 26 -67 66 -67c39 0 64 24 64 65c0 42 -29 62 -69 62h-41v58h40c34 0 63 22 63 59s-24 58 -58 58c-35 0 -58 -22 -60 -63l-66 4
c2 74 47 119 126 119z" />
    <glyph glyph-name="four.dnom" horiz-adv-x="346" 
d="M264 151h62v-61h-62v-90h-68v90h-178v53l182 268h64v-260zM78 151h119v167z" />
    <glyph glyph-name="five.dnom" horiz-adv-x="321" 
d="M168 257c72 0 125 -46 125 -129c0 -80 -50 -134 -134 -134c-80 0 -127 47 -131 119l67 4c4 -38 26 -62 65 -62c43 0 66 30 66 72c0 43 -26 70 -66 70c-23 0 -40 -8 -58 -22h-59v236h234v-60h-167v-108c16 9 35 14 58 14z" />
    <glyph glyph-name="six.dnom" horiz-adv-x="343" 
d="M282 411l-106 -145c78 -1 138 -55 138 -136c0 -83 -61 -136 -141 -136c-81 0 -143 53 -143 136c0 34 12 62 29 87l142 194h81zM172 55c43 0 74 30 74 77c0 49 -30 75 -74 75c-25 0 -45 -8 -58 -25c-9 -13 -16 -29 -16 -50c0 -47 32 -77 74 -77z" />
    <glyph glyph-name="seven.dnom" horiz-adv-x="314" 
d="M293 360l-179 -360h-75l177 351h-197v60h274v-51z" />
    <glyph glyph-name="eight.dnom" horiz-adv-x="346" 
d="M173 417c72 0 128 -43 128 -114c0 -39 -20 -68 -44 -85c31 -19 55 -53 55 -100c0 -77 -60 -124 -139 -124s-139 47 -139 124c0 48 24 80 54 99c-24 18 -44 44 -44 86c0 71 55 114 129 114zM173 357c-36 0 -66 -21 -66 -60c0 -38 30 -58 66 -58c37 0 64 21 64 58
c0 39 -27 60 -64 60zM173 183c-40 0 -72 -22 -72 -64c0 -41 32 -64 72 -64c41 0 71 23 71 64c0 42 -31 64 -71 64z" />
    <glyph glyph-name="nine.dnom" horiz-adv-x="343" 
d="M171 417c82 0 143 -53 143 -136c0 -34 -11 -62 -30 -87l-140 -194h-82l106 145c-78 1 -138 55 -138 136c0 83 61 136 141 136zM172 204c25 0 45 8 58 25c10 13 16 29 16 50c0 47 -31 78 -74 78c-42 0 -74 -30 -74 -78c0 -47 31 -75 74 -75z" />
    <glyph glyph-name="zero.numr" horiz-adv-x="370" 
d="M185 738c91 0 152 -75 152 -211c0 -137 -61 -212 -152 -212c-90 0 -152 75 -152 212c0 136 62 211 152 211zM185 678c-56 0 -84 -52 -84 -151s28 -151 84 -151c55 0 84 52 84 151s-29 151 -84 151z" />
    <glyph glyph-name="one.numr" horiz-adv-x="223" 
d="M175 322h-68v321l-69 -53l-30 53l124 90h43v-411z" />
    <glyph glyph-name="two.numr" horiz-adv-x="314" 
d="M157 738c85 0 126 -53 126 -125c0 -62 -30 -105 -74 -152l-77 -80h155v-60h-256v46l129 135c35 37 55 67 55 112c0 38 -20 64 -57 64c-39 0 -63 -26 -63 -70l-66 4c1 79 50 126 128 126z" />
    <glyph glyph-name="three.numr" horiz-adv-x="323" 
d="M159 738c78 0 124 -44 124 -115c0 -47 -27 -76 -55 -89c34 -10 63 -44 63 -95c0 -77 -53 -124 -131 -124c-84 0 -130 48 -133 123l67 5c4 -42 26 -67 66 -67c39 0 64 24 64 65c0 42 -29 62 -69 62h-41v58h40c34 0 63 22 63 59s-24 58 -58 58c-35 0 -58 -22 -60 -63l-66 4
c2 74 47 119 126 119z" />
    <glyph glyph-name="four.numr" horiz-adv-x="346" 
d="M264 472h62v-61h-62v-90h-68v90h-178v53l182 268h64v-260zM78 472h119v167z" />
    <glyph glyph-name="five.numr" horiz-adv-x="321" 
d="M168 579c72 0 125 -46 125 -129c0 -80 -50 -134 -134 -134c-80 0 -127 47 -131 119l67 4c4 -38 26 -62 65 -62c43 0 66 30 66 72c0 43 -26 70 -66 70c-23 0 -40 -8 -58 -22h-59v236h234v-60h-167v-108c16 9 35 14 58 14z" />
    <glyph glyph-name="six.numr" horiz-adv-x="343" 
d="M282 732l-106 -145c78 -1 138 -55 138 -136c0 -83 -61 -136 -141 -136c-81 0 -143 53 -143 136c0 34 12 62 29 87l142 194h81zM172 376c43 0 74 30 74 77c0 49 -30 75 -74 75c-25 0 -45 -8 -58 -25c-9 -13 -16 -29 -16 -50c0 -47 32 -77 74 -77z" />
    <glyph glyph-name="seven.numr" horiz-adv-x="314" 
d="M293 682l-179 -360h-75l177 351h-197v60h274v-51z" />
    <glyph glyph-name="eight.numr" horiz-adv-x="346" 
d="M173 738c72 0 128 -43 128 -114c0 -39 -20 -68 -44 -85c31 -19 55 -53 55 -100c0 -77 -60 -124 -139 -124s-139 47 -139 124c0 48 24 80 54 99c-24 18 -44 44 -44 86c0 71 55 114 129 114zM173 678c-36 0 -66 -21 -66 -60c0 -38 30 -58 66 -58c37 0 64 21 64 58
c0 39 -27 60 -64 60zM173 504c-40 0 -72 -22 -72 -64c0 -41 32 -64 72 -64c41 0 71 23 71 64c0 42 -31 64 -71 64z" />
    <glyph glyph-name="nine.numr" horiz-adv-x="343" 
d="M171 738c82 0 143 -53 143 -136c0 -34 -11 -62 -30 -87l-140 -194h-82l106 145c-78 1 -138 55 -138 136c0 83 61 136 141 136zM172 525c25 0 45 8 58 25c10 13 16 29 16 50c0 47 -31 78 -74 78c-42 0 -74 -30 -74 -78c0 -47 31 -75 74 -75z" />
    <glyph glyph-name="asterisk" unicode="*" horiz-adv-x="333" 
d="M189 633l118 40l16 -47l-118 -38l74 -98l-41 -30l-71 101l-72 -102l-40 31l73 98l-118 38l16 47l117 -40l-1 124h49z" />
    <glyph glyph-name="backslash" unicode="\" horiz-adv-x="366" 
d="M355 -67h-90l-255 815h90z" />
    <glyph glyph-name="periodcentered" unicode="&#xb7;" horiz-adv-x="217" 
d="M103 355c33 0 60 -27 60 -60c0 -32 -27 -59 -60 -59c-32 0 -58 27 -58 59c0 33 26 60 58 60z" />
    <glyph glyph-name="bullet" unicode="&#x2022;" horiz-adv-x="349" 
d="M175 375c66 0 119 -53 119 -120c0 -68 -53 -121 -119 -121c-68 0 -121 53 -121 121c0 67 53 120 121 120z" />
    <glyph glyph-name="colon" unicode=":" horiz-adv-x="207" 
d="M98 519c33 0 60 -26 60 -60c0 -32 -27 -58 -60 -58c-32 0 -58 26 -58 58c0 34 26 60 58 60zM98 109c33 0 60 -27 60 -60c0 -32 -27 -59 -60 -59c-32 0 -58 27 -58 59c0 33 26 60 58 60z" />
    <glyph glyph-name="comma" unicode="," horiz-adv-x="202" 
d="M102 108c35 0 55 -28 55 -67c0 -78 -34 -145 -113 -190v39c35 26 54 61 59 102c-31 0 -58 25 -58 57s24 59 57 59z" />
    <glyph glyph-name="ellipsis" unicode="&#x2026;" horiz-adv-x="624" 
d="M103 109c33 0 60 -27 60 -60c0 -32 -27 -59 -60 -59c-32 0 -58 27 -58 59c0 33 26 60 58 60zM307 109c33 0 60 -27 60 -60c0 -32 -27 -59 -60 -59c-32 0 -59 27 -59 59c0 33 27 60 59 60zM511 109c34 0 60 -27 60 -60c0 -32 -26 -59 -60 -59c-32 0 -58 27 -58 59
c0 33 26 60 58 60z" />
    <glyph glyph-name="exclam" unicode="!" horiz-adv-x="279" 
d="M184 203h-91l-4 545h100zM139 109c33 0 60 -27 60 -60c0 -32 -27 -59 -60 -59c-32 0 -59 27 -59 59c0 33 27 60 59 60z" />
    <glyph glyph-name="exclamdown" unicode="&#xa1;" horiz-adv-x="279" 
d="M141 391c-33 0 -60 27 -60 60c0 32 27 59 60 59c32 0 58 -27 58 -59c0 -33 -26 -60 -58 -60zM95 297h91l5 -545h-101z" />
    <glyph glyph-name="numbersign" unicode="#" horiz-adv-x="635" 
d="M507 542h120l-16 -70h-121l-47 -198h126l-16 -69h-126l-49 -205h-76l49 205h-148l-49 -205h-76l49 205h-119l16 69h120l47 198h-125l17 70h124l50 206h75l-49 -206h148l50 206h75zM266 472l-47 -198h149l47 198h-149z" />
    <glyph glyph-name="period" unicode="." horiz-adv-x="207" 
d="M103 109c33 0 60 -27 60 -60c0 -32 -27 -59 -60 -59c-32 0 -58 27 -58 59c0 33 26 60 58 60z" />
    <glyph glyph-name="question" unicode="?" horiz-adv-x="501" 
d="M252 758c145 0 230 -89 230 -215c0 -88 -44 -131 -106 -176c-59 -44 -83 -77 -83 -137v-27h-91v31c0 69 31 113 96 165c54 40 90 77 90 143c0 78 -49 136 -136 136s-135 -49 -143 -129l-91 6c8 125 96 203 234 203zM246 109c33 0 60 -27 60 -60c0 -32 -27 -59 -60 -59
c-32 0 -59 27 -59 59c0 33 27 60 59 60z" />
    <glyph glyph-name="questiondown" unicode="&#xbf;" horiz-adv-x="501" 
d="M256 401c-33 0 -60 26 -60 60c0 32 27 58 60 58c32 0 58 -26 58 -58c0 -34 -26 -60 -58 -60zM250 -249c-145 0 -230 90 -230 215c0 88 44 131 106 177c58 44 82 77 82 136v28h92v-32c0 -68 -31 -112 -96 -164c-55 -41 -91 -77 -91 -143c0 -78 49 -136 137 -136
c86 0 134 49 143 128l91 -5c-9 -125 -97 -204 -234 -204z" />
    <glyph glyph-name="quotedbl" unicode="&#x22;" horiz-adv-x="332" 
d="M125 512h-70l-10 230h90zM276 512h-70l-10 230h90z" />
    <glyph glyph-name="quotesingle" unicode="'" horiz-adv-x="181" 
d="M125 512h-70l-10 230h90z" />
    <glyph glyph-name="semicolon" unicode=";" horiz-adv-x="207" 
d="M98 401c-32 0 -58 26 -58 58c0 34 26 60 58 60c33 0 60 -26 60 -60c0 -32 -27 -58 -60 -58zM102 108c35 0 55 -28 55 -67c0 -78 -34 -145 -113 -190v39c35 26 54 61 59 102c-31 0 -58 25 -58 57s24 59 57 59z" />
    <glyph glyph-name="slash" unicode="/" horiz-adv-x="366" 
d="M101 -67h-91l256 815h89z" />
    <glyph glyph-name="underscore" unicode="_" horiz-adv-x="685" 
d="M640 -81h-595v81h595v-81z" />
    <glyph glyph-name="periodcentered.cap" horiz-adv-x="217" 
d="M103 472c33 0 60 -27 60 -60c0 -32 -27 -59 -60 -59c-32 0 -58 27 -58 59c0 33 26 60 58 60z" />
    <glyph glyph-name="exclamdown.cap" horiz-adv-x="279" 
d="M141 639c-33 0 -60 27 -60 60c0 32 27 59 60 59c32 0 58 -27 58 -59c0 -33 -26 -60 -58 -60zM95 545h91l5 -545h-101z" />
    <glyph glyph-name="questiondown.cap" horiz-adv-x="501" 
d="M256 639c-33 0 -60 27 -60 60c0 32 27 59 60 59c32 0 58 -27 58 -59c0 -33 -26 -60 -58 -60zM250 -10c-145 0 -230 89 -230 215c0 88 44 131 106 176c58 44 82 77 82 137v27h92v-31c0 -69 -31 -113 -96 -165c-55 -40 -91 -77 -91 -143c0 -78 49 -136 137 -136
c86 0 134 49 143 129l91 -6c-9 -125 -97 -203 -234 -203z" />
    <glyph glyph-name="braceleft" unicode="{" horiz-adv-x="251" 
d="M228 645h-6c-67 0 -87 -49 -66 -161c15 -80 20 -151 -47 -163c67 -14 62 -85 47 -164c-21 -113 -1 -162 66 -162h6v-72h-6c-117 0 -183 77 -151 227c20 83 27 134 -43 134h-8v72h8c70 0 63 52 43 135c-32 149 34 227 151 227h6v-73z" />
    <glyph glyph-name="braceright" unicode="}" horiz-adv-x="251" 
d="M23 718h6c118 0 183 -78 151 -227c-19 -83 -27 -135 43 -135h8v-72h-8c-70 0 -62 -51 -43 -134c32 -150 -33 -227 -151 -227h-6v72h6c67 0 87 49 66 162c-15 79 -20 150 47 164c-67 12 -62 83 -47 163c21 112 1 161 -66 161h-6v73z" />
    <glyph glyph-name="bracketleft" unicode="[" horiz-adv-x="264" 
d="M243 646h-99v-651h99v-72h-185v795h185v-72z" />
    <glyph glyph-name="bracketright" unicode="]" horiz-adv-x="264" 
d="M207 -77h-184v72h98v651h-98v72h184v-795z" />
    <glyph glyph-name="parenleft" unicode="(" horiz-adv-x="255" 
d="M161 728l75 -27c-60 -95 -110 -225 -110 -381s50 -285 110 -380l-75 -28c-66 99 -121 240 -121 408s55 310 121 408z" />
    <glyph glyph-name="parenright" unicode=")" horiz-adv-x="255" 
d="M20 701l75 27c66 -98 121 -240 121 -408s-55 -309 -121 -408l-75 28c60 95 110 224 110 380s-50 286 -110 381z" />
    <glyph glyph-name="braceleft.cap" horiz-adv-x="251" 
d="M228 697h-6c-67 0 -87 -49 -66 -161c15 -80 20 -151 -47 -163c67 -14 62 -85 47 -164c-21 -113 -1 -162 66 -162h6v-72h-6c-117 0 -183 77 -151 227c20 83 27 134 -43 134h-8v72h8c70 0 63 52 43 135c-32 149 34 227 151 227h6v-73z" />
    <glyph glyph-name="braceright.cap" horiz-adv-x="251" 
d="M23 770h6c118 0 183 -78 151 -227c-19 -83 -27 -135 43 -135h8v-72h-8c-70 0 -62 -51 -43 -134c32 -150 -33 -227 -151 -227h-6v72h6c67 0 87 49 66 162c-15 79 -20 150 47 164c-67 12 -62 83 -47 163c21 112 1 161 -66 161h-6v73z" />
    <glyph glyph-name="bracketleft.cap" horiz-adv-x="264" 
d="M243 698h-99v-651h99v-72h-185v795h185v-72z" />
    <glyph glyph-name="bracketright.cap" horiz-adv-x="271" 
d="M207 -25h-184v72h98v651h-98v72h184v-795z" />
    <glyph glyph-name="parenleft.cap" horiz-adv-x="255" 
d="M161 770l75 -27c-60 -95 -110 -225 -110 -381s50 -285 110 -380l-75 -28c-66 99 -121 240 -121 408s55 310 121 408z" />
    <glyph glyph-name="parenright.cap" horiz-adv-x="253" 
d="M20 743l75 27c66 -98 121 -240 121 -408s-55 -309 -121 -408l-75 28c60 95 110 224 110 380s-50 286 -110 381z" />
    <glyph glyph-name="emdash" unicode="&#x2014;" horiz-adv-x="795" 
d="M750 221h-705v81h705v-81z" />
    <glyph glyph-name="endash" unicode="&#x2013;" horiz-adv-x="563" 
d="M518 221h-473v81h473v-81z" />
    <glyph glyph-name="hyphen" unicode="-" horiz-adv-x="403" 
d="M358 221h-313v81h313v-81z" />
    <glyph glyph-name="emdash.cap" horiz-adv-x="795" 
d="M750 336h-705v81h705v-81z" />
    <glyph glyph-name="endash.cap" horiz-adv-x="563" 
d="M518 336h-473v81h473v-81z" />
    <glyph glyph-name="hyphen.cap" horiz-adv-x="403" 
d="M358 336h-313v81h313v-81z" />
    <glyph glyph-name="guillemotleft" unicode="&#xab;" horiz-adv-x="531" 
d="M262 430l-149 -176l149 -176l-68 -44l-179 220l179 219zM510 430l-149 -176l149 -176l-68 -44l-179 220l179 219z" />
    <glyph glyph-name="guillemotright" unicode="&#xbb;" horiz-adv-x="531" 
d="M268 254l-180 -220l-68 44l150 176l-150 176l68 43zM515 254l-179 -220l-68 44l149 176l-149 176l68 43z" />
    <glyph glyph-name="guilsinglleft" unicode="&#x2039;" horiz-adv-x="306" 
d="M287 417l-167 -163l167 -163l-63 -55l-209 218l209 218z" />
    <glyph glyph-name="guilsinglright" unicode="&#x203a;" horiz-adv-x="306" 
d="M292 254l-210 -218l-62 55l167 163l-167 163l62 55z" />
    <glyph glyph-name="quotedblbase" unicode="&#x201e;" horiz-adv-x="349" 
d="M87 108c35 0 55 -28 55 -67c0 -78 -34 -145 -112 -190v39c34 26 53 61 58 102c-32 1 -57 25 -57 57s23 59 56 59zM254 108c35 0 55 -28 55 -67c0 -78 -34 -145 -113 -190v39c35 26 54 61 59 102c-31 0 -58 25 -58 57s24 59 57 59z" />
    <glyph glyph-name="quotedblleft" unicode="&#x201c;" horiz-adv-x="349" 
d="M35 560c0 78 34 145 113 190v-39c-35 -26 -54 -61 -59 -102c31 0 58 -25 58 -57s-24 -59 -57 -59c-35 0 -55 28 -55 67zM315 750v-39c-35 -26 -54 -61 -59 -102c31 0 58 -25 58 -57s-24 -59 -57 -59c-35 0 -55 28 -55 67c0 78 34 145 113 190z" />
    <glyph glyph-name="quotedblright" unicode="&#x201d;" horiz-adv-x="349" 
d="M82 750c35 0 55 -28 55 -67c0 -78 -34 -145 -113 -190v39c35 26 54 61 59 102c-31 0 -58 25 -58 57s24 59 57 59zM249 750c35 0 55 -28 55 -67c0 -78 -34 -145 -113 -190v39c35 26 54 61 59 102c-31 0 -58 25 -58 57s24 59 57 59z" />
    <glyph glyph-name="quoteleft" unicode="&#x2018;" horiz-adv-x="182" 
d="M153 750v-39c-35 -26 -54 -61 -59 -102c31 0 58 -25 58 -57s-24 -59 -56 -59c-36 0 -56 28 -56 67c0 78 34 145 113 190z" />
    <glyph glyph-name="quoteright" unicode="&#x2019;" horiz-adv-x="182" 
d="M87 750c35 0 55 -28 55 -67c0 -79 -34 -145 -112 -190v38c34 27 53 62 58 103c-32 1 -57 25 -57 57s23 59 56 59z" />
    <glyph glyph-name="quotesinglbase" unicode="&#x201a;" horiz-adv-x="182" 
d="M87 108c35 0 55 -28 55 -67c0 -78 -34 -145 -112 -190v39c34 26 53 61 58 102c-32 1 -57 25 -57 57s23 59 56 59z" />
    <glyph glyph-name="guillemotleft.cap" horiz-adv-x="531" 
d="M262 559l-149 -176l149 -176l-68 -44l-179 220l179 219zM510 559l-149 -176l149 -176l-68 -44l-179 220l179 219z" />
    <glyph glyph-name="guillemotright.cap" horiz-adv-x="531" 
d="M268 383l-180 -220l-68 44l150 176l-150 176l68 43zM515 383l-179 -220l-68 44l149 176l-149 176l68 43z" />
    <glyph glyph-name="guilsinglleft.cap" horiz-adv-x="306" 
d="M287 546l-167 -163l167 -163l-63 -55l-209 218l209 218z" />
    <glyph glyph-name="guilsinglright.cap" horiz-adv-x="306" 
d="M292 383l-210 -218l-62 55l167 163l-167 163l62 55z" />
    <glyph glyph-name="emdash_guilsinglright" horiz-adv-x="852" 
d="M817 258l-230 -236l-61 55l146 146h-627v72h626l-145 143l61 55z" />
    <glyph glyph-name="endash_guilsinglright" 
d="M556 258l-230 -236l-61 55l147 146h-367v72h365l-145 143l61 55z" />
    <glyph glyph-name="guilsinglleft_emdash" horiz-adv-x="852" 
d="M326 438l-145 -143h626v-72h-628l147 -146l-60 -55l-231 236l231 235z" />
    <glyph glyph-name="guilsinglleft_endash" 
d="M326 438l-145 -143h365v-72h-367l147 -146l-60 -55l-231 236l231 235z" />
    <glyph glyph-name="space" unicode=" " horiz-adv-x="238" 
 />
    <glyph glyph-name="CR" unicode="&#xd;" horiz-adv-x="600" 
 />
    <glyph glyph-name="Euro" unicode="&#x20ac;" horiz-adv-x="706" 
d="M620 134l39 -76c-59 -45 -124 -68 -218 -68c-154 0 -283 97 -323 270h-110l20 54h81c-2 19 -3 39 -3 60c0 20 1 39 3 58h-101l20 54h90c38 174 168 272 324 272c88 0 150 -23 206 -65l-29 -75c-45 37 -100 58 -173 58c-115 0 -201 -68 -233 -190h351l-21 -54h-341
c-2 -18 -3 -38 -3 -58c0 -21 1 -41 4 -60h291l-20 -54h-261c33 -122 122 -188 233 -188c72 0 130 24 174 62z" />
    <glyph glyph-name="cent" unicode="&#xa2;" horiz-adv-x="578" 
d="M450 181l84 -8c-17 -102 -91 -169 -196 -181v-110h-73v111c-123 16 -212 110 -212 262s88 246 212 262v110h73v-110c103 -12 181 -81 195 -189l-84 -7c-9 77 -68 124 -145 124c-95 0 -163 -69 -163 -190c0 -122 70 -190 163 -190c80 0 134 44 146 116z" />
    <glyph glyph-name="currency" unicode="&#xa4;" horiz-adv-x="588" 
d="M473 252c0 -44 -10 -83 -28 -114l118 -118l-55 -54l-117 116c-27 -17 -60 -26 -97 -26c-36 0 -69 10 -96 28l-118 -118l-55 54l119 119c-18 30 -29 69 -29 113s11 83 30 114l-120 120l55 54l118 -118c28 17 60 27 96 27s68 -10 96 -27l118 118l55 -54l-120 -120
c19 -31 30 -69 30 -114zM185 252c0 -85 47 -134 109 -134s108 51 108 134c0 85 -46 135 -108 135s-109 -50 -109 -135z" />
    <glyph glyph-name="dollar" unicode="$" horiz-adv-x="656" 
d="M606 206c0 -140 -104 -206 -236 -215v-109h-73v110c-135 13 -235 89 -241 216l92 5c7 -88 88 -143 192 -143c99 0 173 38 173 129c0 89 -74 109 -198 139c-134 32 -242 66 -242 208c0 107 74 200 224 211v108h73v-109c124 -14 209 -88 214 -206l-93 -6
c-5 84 -69 134 -163 134c-107 0 -162 -56 -162 -129c0 -89 70 -108 182 -133c161 -38 258 -79 258 -210z" />
    <glyph glyph-name="florin" unicode="&#x192;" horiz-adv-x="432" 
d="M339 786c61 0 102 -19 133 -44l-36 -71c-20 21 -48 38 -89 38c-49 0 -79 -25 -90 -91l-19 -108h150v-73h-163l-103 -579h-88l102 579h-109v73h122l22 123c19 108 81 153 168 153z" />
    <glyph glyph-name="sterling" unicode="&#xa3;" horiz-adv-x="547" 
d="M519 81v-81h-484v75c78 31 111 89 102 197l-4 56h-105v72h99l-8 107c-14 156 49 251 195 251c128 0 192 -75 194 -184l-91 -5c0 62 -33 108 -105 108c-83 0 -115 -57 -108 -154l10 -123h172v-72h-167l5 -57c8 -96 -30 -150 -77 -190h372z" />
    <glyph glyph-name="yen" unicode="&#xa5;" horiz-adv-x="692" 
d="M417 349h116v-55h-141v-91h141v-55h-141v-148h-91v148h-141v55h141v91h-141v55h116l-259 399h106l224 -347l222 347h106z" />
    <glyph glyph-name="approxequal" unicode="&#x2248;" horiz-adv-x="536" 
d="M475 557l40 -57c-41 -51 -83 -84 -151 -84c-90 0 -118 62 -189 62c-51 0 -79 -17 -114 -58l-40 58c41 51 81 81 146 81c78 0 106 -62 189 -62c54 0 85 19 119 60zM475 323l40 -58c-41 -51 -83 -83 -151 -83c-90 0 -118 62 -189 62c-51 0 -79 -17 -114 -58l-40 57
c41 51 81 82 146 82c78 0 106 -63 189 -63c54 0 85 20 119 61z" />
    <glyph glyph-name="asciitilde" unicode="~" horiz-adv-x="536" 
d="M475 440l40 -57c-41 -52 -83 -84 -151 -84c-90 0 -118 62 -189 62c-51 0 -79 -18 -114 -59l-40 58c41 52 81 82 146 82c78 0 106 -63 189 -63c54 0 85 20 119 61z" />
    <glyph glyph-name="divide" unicode="&#xf7;" horiz-adv-x="546" 
d="M273 642c33 0 60 -26 60 -59s-27 -58 -60 -58c-32 0 -58 25 -58 58s26 59 58 59zM513 330h-480v81h480v-81zM273 217c33 0 60 -27 60 -60c0 -32 -27 -59 -60 -59c-32 0 -58 27 -58 59c0 33 26 60 58 60z" />
    <glyph glyph-name="equal" unicode="=" horiz-adv-x="546" 
d="M513 447h-480v82h480v-82zM513 208h-480v81h480v-81z" />
    <glyph glyph-name="greater" unicode="&#x3e;" horiz-adv-x="518" 
d="M491 369l-457 -232l-1 97l287 135l-287 135l1 97z" />
    <glyph glyph-name="greaterequal" unicode="&#x2265;" horiz-adv-x="518" 
d="M491 451l-457 -213l-1 88l284 125l-284 125l1 88zM491 99h-458v81h458v-81z" />
    <glyph glyph-name="infinity" unicode="&#x221e;" horiz-adv-x="787" 
d="M577 495c106 0 179 -85 179 -189c0 -106 -73 -191 -179 -191c-84 0 -144 57 -181 104l-22 27l-21 -27c-44 -48 -94 -88 -161 -88c-98 0 -161 77 -161 174c0 95 63 174 161 174c69 0 117 -37 160 -90l21 -27l18 22c51 62 102 111 186 111zM577 422c-59 0 -98 -40 -140 -93
l-19 -25l21 -28c34 -41 78 -87 138 -87c64 0 106 53 106 117c0 63 -42 116 -106 116zM194 408c-58 0 -94 -47 -94 -103c0 -57 36 -104 94 -104c46 0 85 30 118 74l23 29l-22 27c-37 47 -73 77 -119 77z" />
    <glyph glyph-name="integral" unicode="&#x222b;" horiz-adv-x="339" 
d="M256 758c37 0 61 -6 86 -14l-15 -66c-17 6 -33 9 -53 9c-48 0 -64 -24 -64 -88v-610c0 -111 -37 -160 -124 -160c-39 0 -64 6 -87 13l15 66c17 -5 32 -9 51 -9c51 0 70 26 70 92v611c0 106 35 156 121 156z" />
    <glyph glyph-name="less" unicode="&#x3c;" horiz-adv-x="518" 
d="M486 504l-288 -135l288 -135l-2 -97l-457 232l457 232z" />
    <glyph glyph-name="lessequal" unicode="&#x2264;" horiz-adv-x="518" 
d="M486 576l-284 -125l284 -125l-2 -88l-457 213l457 213zM486 99h-459v81h459v-81z" />
    <glyph glyph-name="logicalnot" unicode="&#xac;" horiz-adv-x="556" 
d="M511 165h-68v181h-405v68h473v-249z" />
    <glyph glyph-name="minus" unicode="&#x2212;" horiz-adv-x="546" 
d="M513 330h-480v81h480v-81z" />
    <glyph glyph-name="multiply" unicode="&#xd7;" horiz-adv-x="524" 
d="M471 520l-151 -150l153 -154l-57 -58l-154 154l-155 -155l-57 58l155 155l-153 153l56 58l154 -155l152 152z" />
    <glyph glyph-name="notequal" unicode="&#x2260;" horiz-adv-x="546" 
d="M335 447l-54 -158h232v-81h-260l-45 -131l-74 18l39 113h-140v81h167l54 158h-221v82h250l44 130l75 -19l-38 -111h149v-82h-178z" />
    <glyph glyph-name="partialdiff" unicode="&#x2202;" horiz-adv-x="613" 
d="M289 758c222 0 272 -235 272 -476c0 -185 -102 -293 -262 -293c-139 0 -252 98 -252 251c0 147 106 242 250 242c71 0 130 -27 171 -72c-8 151 -51 266 -177 266c-72 0 -121 -27 -166 -72l-49 75c59 49 120 79 213 79zM305 71c94 0 165 65 165 168v4
c-1 99 -72 168 -165 168c-94 0 -165 -69 -165 -170c0 -103 69 -170 165 -170z" />
    <glyph glyph-name="percent" unicode="%" horiz-adv-x="840" 
d="M202 758c94 0 163 -68 163 -178s-69 -179 -163 -179s-164 69 -164 179s70 178 164 178zM198 0h-85l528 748h85zM201 696c-56 0 -99 -43 -99 -116c0 -74 43 -118 99 -118c57 0 99 44 99 118c0 73 -41 116 -99 116zM637 347c95 0 164 -68 164 -178
c0 -109 -69 -179 -164 -179c-93 0 -163 70 -163 179c0 110 70 178 163 178zM637 286c-57 0 -99 -43 -99 -117c0 -73 43 -117 99 -117c58 0 99 43 99 117s-41 117 -99 117z" />
    <glyph glyph-name="perthousand" unicode="&#x2030;" horiz-adv-x="1226" 
d="M202 758c94 0 163 -68 163 -178s-69 -179 -163 -179s-164 69 -164 179s70 178 164 178zM198 0h-85l528 748h85zM201 696c-56 0 -99 -43 -99 -116c0 -74 43 -118 99 -118c57 0 99 44 99 118c0 73 -41 116 -99 116zM637 347c95 0 164 -68 164 -178
c0 -109 -69 -179 -164 -179c-93 0 -163 70 -163 179c0 110 70 178 163 178zM1025 347c94 0 163 -68 163 -178c0 -109 -69 -179 -163 -179s-164 70 -164 179c0 110 70 178 164 178zM637 286c-57 0 -99 -43 -99 -117c0 -73 43 -117 99 -117c58 0 99 43 99 117s-41 117 -99 117
zM1024 286c-57 0 -99 -43 -99 -117c0 -73 43 -117 99 -117c58 0 100 43 100 117s-42 117 -100 117z" />
    <glyph glyph-name="plus" unicode="+" horiz-adv-x="546" 
d="M315 409h198v-79h-198v-203h-84v203h-198v79h198v198h84v-198z" />
    <glyph glyph-name="plusminus" unicode="&#xb1;" horiz-adv-x="546" 
d="M315 509h198v-79h-198v-202h-84v202h-198v79h198v198h84v-198zM513 84h-480v81h480v-81z" />
    <glyph glyph-name="product" unicode="&#x220f;" horiz-adv-x="643" 
d="M618 667h-103v-831h-78v831h-231v-831h-78v831h-103v81h593v-81z" />
    <glyph glyph-name="radical" unicode="&#x221a;" horiz-adv-x="633" 
d="M603 664l-274 -741l-144 341l-112 -73l-44 68l189 120l110 -275l204 590z" />
    <glyph glyph-name="summation" unicode="&#x2211;" horiz-adv-x="600" 
d="M553 667h-398l220 -293l-220 -293h398v-81h-504v67l231 307l-231 307v67h504v-81z" />
    <glyph glyph-name="lozenge" unicode="&#x25ca;" horiz-adv-x="536" 
d="M501 346l-205 -401h-55l-206 401l206 402h55zM126 346l143 -276l142 276l-142 277z" />
    <glyph glyph-name="bar" unicode="|" horiz-adv-x="254" 
d="M169 -67h-86v815h86v-815z" />
    <glyph glyph-name="brokenbar" unicode="&#xa6;" horiz-adv-x="254" 
d="M169 429h-86v319h86v-319zM169 -67h-86v319h86v-319z" />
    <glyph glyph-name="at" unicode="@" horiz-adv-x="806" 
d="M403 605c207 0 361 -153 361 -359c0 -132 -56 -203 -144 -203c-50 0 -82 23 -93 62c-28 -40 -73 -65 -141 -65c-111 0 -188 79 -188 208c0 130 77 209 188 209c70 0 116 -28 138 -66v54h64v-289c0 -37 15 -57 47 -57c44 0 74 53 74 147c0 175 -131 307 -306 307
c-178 0 -306 -132 -306 -307c0 -182 135 -306 302 -306c80 0 134 18 185 50l15 -50c-55 -34 -112 -53 -200 -53c-201 0 -357 149 -357 359c0 206 151 359 361 359zM521 237v23c0 92 -51 137 -125 137c-76 0 -130 -53 -130 -149s54 -149 130 -149c74 0 125 47 125 138z" />
    <glyph glyph-name="ampersand" unicode="&#x26;" horiz-adv-x="697" 
d="M643 -9l-125 112c-65 -77 -144 -111 -232 -111c-159 0 -244 90 -244 209c0 101 54 165 130 217c-37 42 -64 90 -64 151c0 124 85 189 204 189c107 0 187 -63 201 -169l-88 -6c-9 61 -50 96 -113 96c-67 0 -112 -36 -112 -109c0 -70 53 -112 115 -167l191 -171
c23 44 43 99 60 163l81 -22c-22 -79 -48 -144 -79 -197l131 -117zM288 69c63 0 121 28 170 88l-208 186l-26 23c-54 -38 -89 -85 -89 -157c0 -85 58 -140 153 -140z" />
    <glyph glyph-name="paragraph" unicode="&#xb6;" horiz-adv-x="666" 
d="M646 683h-69v-750h-68v750h-130v-750h-67v446h-62c-120 0 -206 62 -206 185c0 121 86 184 206 184h396v-65z" />
    <glyph glyph-name="copyright" unicode="&#xa9;" horiz-adv-x="583" 
d="M292 759c147 0 260 -110 260 -253c0 -142 -113 -252 -260 -252c-150 0 -262 110 -262 252c0 143 112 253 262 253zM291 727c-129 0 -225 -95 -225 -221s96 -220 225 -220s225 94 225 220s-96 221 -225 221zM292 663c72 0 130 -43 139 -113l-50 -3c-7 47 -44 72 -89 72
c-57 0 -98 -41 -98 -112c0 -72 44 -112 99 -112c45 0 80 25 88 67l51 -3c-12 -67 -67 -109 -139 -109c-84 0 -149 60 -149 157c0 98 65 156 148 156z" />
    <glyph glyph-name="registered" unicode="&#xae;" horiz-adv-x="583" 
d="M292 759c147 0 260 -110 260 -253c0 -142 -113 -252 -260 -252c-150 0 -262 110 -262 252c0 143 112 253 262 253zM291 286c129 0 225 94 225 220s-96 221 -225 221s-225 -95 -225 -221s96 -220 225 -220zM403 566c0 -44 -20 -72 -50 -86l66 -127h-54l-62 119h-69v-119
h-49v306h124c54 0 94 -32 94 -93zM234 513h62c31 0 57 14 57 53c0 38 -26 52 -57 52h-62v-105z" />
    <glyph glyph-name="section" unicode="&#xa7;" horiz-adv-x="516" 
d="M398 251c43 -23 67 -58 67 -118c0 -101 -83 -161 -205 -161c-127 0 -213 58 -213 159l86 4c1 -61 51 -94 127 -94c69 0 119 28 119 88s-51 75 -136 93c-111 24 -189 59 -189 155c0 57 25 89 65 116c-37 23 -57 56 -57 110c0 97 77 155 189 155c119 0 196 -56 197 -150
l-86 -3c-1 55 -44 84 -110 84c-59 0 -104 -26 -104 -84c0 -56 46 -69 122 -85c115 -25 189 -60 189 -155c0 -58 -23 -87 -61 -114zM133 381c0 -60 56 -74 142 -92c19 -4 36 -8 52 -12c33 21 52 42 52 84c0 61 -54 74 -141 92c-19 4 -36 8 -52 13c-32 -22 -53 -44 -53 -85z
" />
    <glyph glyph-name="trademark" unicode="&#x2122;" horiz-adv-x="881" 
d="M358 686h-132v-297h-64v297h-130v62h326v-62zM815 389h-65v219l-122 -217h-30l-122 217v-219h-64v359h53l148 -262l148 262h54v-359z" />
    <glyph glyph-name="degree" unicode="&#xb0;" horiz-adv-x="347" 
d="M173 757c85 0 144 -51 144 -140v-22c0 -88 -59 -139 -144 -139c-84 0 -143 51 -143 139v22c0 89 58 140 143 140zM173 703c-50 0 -83 -32 -83 -89v-16c0 -56 33 -88 83 -88s84 32 84 88v16c0 56 -34 89 -84 89z" />
    <glyph glyph-name="estimated" unicode="&#x212e;" horiz-adv-x="614" 
d="M321 538c136 0 249 -91 249 -256h-412v-174c0 -24 6 -42 26 -53c37 -31 83 -44 137 -44c100 0 179 54 227 127l17 -11c-56 -85 -141 -138 -244 -138c-154 0 -276 110 -276 272c0 165 122 277 276 277zM320 516c-55 0 -102 -17 -136 -44c-18 -8 -26 -29 -26 -50v-119h307
v122c0 32 -4 45 -29 58c-34 24 -72 33 -116 33z" />
    <glyph glyph-name="asciicircum" unicode="^" horiz-adv-x="555" 
d="M524 374h-97l-149 252l-150 -252h-98l248 388z" />
    <glyph glyph-name="dagger" unicode="&#x2020;" horiz-adv-x="493" 
d="M290 542h183v-78h-183v-531h-86v531h-184v78h184v206h86v-206z" />
    <glyph glyph-name="daggerdbl" unicode="&#x2021;" horiz-adv-x="493" 
d="M290 542h183v-78h-183v-246h183v-79h-183v-206h-86v206h-184v79h184v246h-184v78h184v206h86v-206z" />
    <glyph glyph-name="at.cap" horiz-adv-x="806" 
d="M403 732c207 0 361 -153 361 -359c0 -132 -56 -203 -144 -203c-50 0 -82 23 -93 62c-28 -40 -73 -65 -141 -65c-111 0 -188 79 -188 208c0 130 77 209 188 209c70 0 116 -28 138 -66v54h64v-289c0 -37 15 -57 47 -57c44 0 74 53 74 147c0 175 -131 307 -306 307
c-178 0 -306 -132 -306 -307c0 -182 135 -306 302 -306c80 0 134 18 185 50l15 -50c-55 -34 -112 -53 -200 -53c-201 0 -357 149 -357 359c0 206 151 359 361 359zM521 364v23c0 92 -51 137 -125 137c-76 0 -130 -53 -130 -149s54 -149 130 -149c74 0 125 47 125 138z" />
    <glyph glyph-name="acute" unicode="&#xb4;" horiz-adv-x="236" 
d="M86 595h-69l103 191h98z" />
    <glyph glyph-name="breve" unicode="&#x2d8;" horiz-adv-x="353" 
d="M262 732h71c0 -88 -64 -134 -157 -134s-157 46 -157 134h71c0 -46 33 -73 86 -73c52 0 86 27 86 73z" />
    <glyph glyph-name="caron" unicode="&#x2c7;" horiz-adv-x="353" 
d="M218 594h-82l-120 168h74l87 -110l87 110h74z" />
    <glyph glyph-name="cedilla" unicode="&#xb8;" horiz-adv-x="274" 
d="M150 8l-13 -57c64 -5 111 -35 111 -95c0 -68 -61 -101 -126 -101c-39 0 -71 8 -97 21l16 53c19 -12 43 -20 73 -20c34 0 69 14 69 48c0 36 -30 50 -78 50c-12 0 -20 -2 -29 -4l28 105h46z" />
    <glyph glyph-name="circumflex" unicode="&#x2c6;" horiz-adv-x="353" 
d="M338 596h-74l-87 110l-87 -110h-74l120 169h82z" />
    <glyph glyph-name="dieresis" unicode="&#xa8;" horiz-adv-x="294" 
d="M72 732c29 0 52 -23 52 -51c0 -30 -23 -51 -52 -51s-52 21 -52 51c0 28 23 51 52 51zM222 732c29 0 51 -23 51 -51c0 -30 -22 -51 -51 -51s-53 21 -53 51c0 28 24 51 53 51z" />
    <glyph glyph-name="dotaccent" unicode="&#x2d9;" horiz-adv-x="155" 
d="M78 738c31 0 57 -26 57 -57c0 -32 -26 -58 -57 -58c-32 0 -59 26 -59 58c0 31 27 57 59 57z" />
    <glyph glyph-name="grave" unicode="`" horiz-adv-x="236" 
d="M219 595h-68l-133 191h99z" />
    <glyph glyph-name="hungarumlaut" unicode="&#x2dd;" horiz-adv-x="349" 
d="M86 605h-68l62 158h82zM256 605h-68l62 158h83z" />
    <glyph glyph-name="macron" unicode="&#xaf;" horiz-adv-x="294" 
d="M279 635h-264v67h264v-67z" />
    <glyph glyph-name="ogonek" unicode="&#x2db;" horiz-adv-x="232" 
d="M173 28l14 -24c-58 -29 -94 -55 -94 -95c0 -31 23 -46 56 -46c22 0 39 4 56 12l9 -44c-23 -10 -45 -16 -79 -16c-60 0 -108 28 -108 84c0 62 59 99 146 129z" />
    <glyph glyph-name="ring" unicode="&#x2da;" horiz-adv-x="265" 
d="M134 798c62 0 113 -44 113 -106s-51 -107 -113 -107c-64 0 -115 45 -115 107s51 106 115 106zM133 746c-34 0 -58 -22 -58 -54c0 -33 24 -55 58 -55s58 22 58 55c0 32 -24 54 -58 54z" />
    <glyph glyph-name="tilde" unicode="&#x2dc;" horiz-adv-x="361" 
d="M108 736c62 0 88 -61 136 -61c33 0 49 23 50 54h49c4 -63 -31 -120 -90 -120c-62 0 -88 61 -136 61c-32 0 -48 -23 -49 -54h-50c-4 64 31 120 90 120z" />
    <glyph glyph-name="acute.case" horiz-adv-x="306" 
d="M99 797h-82l149 141h120z" />
    <glyph glyph-name="breve.case" horiz-adv-x="353" 
d="M262 940h71c0 -88 -64 -133 -157 -133s-157 45 -157 133h71c0 -45 33 -73 86 -73c52 0 86 28 86 73z" />
    <glyph glyph-name="caron.case" horiz-adv-x="356" 
d="M219 797h-82l-119 143h74l86 -90l85 90h75z" />
    <glyph glyph-name="circumflex.case" horiz-adv-x="356" 
d="M338 797h-75l-85 90l-86 -90h-74l119 143h82z" />
    <glyph glyph-name="dieresis.case" horiz-adv-x="294" 
d="M72 922c29 0 52 -23 52 -51c0 -30 -23 -52 -52 -52s-52 22 -52 52c0 28 23 51 52 51zM222 922c29 0 51 -23 51 -51c0 -30 -22 -52 -51 -52s-53 22 -53 52c0 28 24 51 53 51z" />
    <glyph glyph-name="dotaccent.case" horiz-adv-x="155" 
d="M78 927c31 0 57 -27 57 -58c0 -33 -26 -58 -57 -58c-32 0 -59 25 -59 58c0 31 27 58 59 58z" />
    <glyph glyph-name="grave.case" horiz-adv-x="306" 
d="M288 797h-82l-187 141h121z" />
    <glyph glyph-name="hungarumlaut.case" horiz-adv-x="346" 
d="M85 800h-69l61 148h82zM255 800h-68l60 148h82z" />
    <glyph glyph-name="macron.case" horiz-adv-x="294" 
d="M279 836h-264v67h264v-67z" />
    <glyph glyph-name="ring.case" horiz-adv-x="247" 
d="M124 991c57 0 103 -41 103 -98s-46 -98 -103 -98c-58 0 -103 41 -103 98s45 98 103 98zM124 944c-31 0 -53 -20 -53 -51c0 -30 22 -51 53 -51c30 0 52 21 52 51c0 31 -22 51 -52 51z" />
    <glyph glyph-name="tilde.case" horiz-adv-x="361" 
d="M108 938c62 0 88 -62 136 -62c33 0 49 24 50 55h49c4 -64 -31 -120 -90 -120c-62 0 -88 61 -136 61c-32 0 -48 -23 -49 -54h-50c-4 64 31 120 90 120z" />
    <glyph glyph-name="uni0326" unicode="&#x326;" horiz-adv-x="0" 
d="M102 -41c35 0 55 -27 55 -67c0 -78 -34 -144 -113 -189v38c35 26 54 61 59 102c-31 0 -58 25 -58 57c0 33 24 59 57 59z" />
    <glyph glyph-name="anneau" horiz-adv-x="583" 
d="M292 759c147 0 260 -110 260 -253c0 -142 -113 -252 -260 -252c-150 0 -262 110 -262 252c0 143 112 253 262 253zM291 727c-129 0 -225 -95 -225 -221s96 -220 225 -220s225 94 225 220s-96 221 -225 221z" />
    <glyph glyph-name="null" horiz-adv-x="600" 
 />
    </font>
</defs>
</svg>
