<svg xmlns="http://www.w3.org/2000/svg" viewBox="0 0 62.62 37.57"><defs><style>.a{fill:#04648e;}</style></defs><title>finance-primary</title><path class="a" d="M60.53,0H2.09A2.08,2.08,0,0,0,0,2.09V35.48a2.08,2.08,0,0,0,2.09,2.09H60.53a2.09,2.09,0,0,0,2.09-2.09V2.09A2.09,2.09,0,0,0,60.53,0Zm0,35.48H2.09V2.09H60.53Z"/><path class="a" d="M10.44,33.4H52.18a6.27,6.27,0,0,1,6.26-6.27V10.44a6.27,6.27,0,0,1-6.26-6.27H10.44a6.27,6.27,0,0,1-6.27,6.27V27.13A6.27,6.27,0,0,1,10.44,33.4ZM6.26,12.26a8.4,8.4,0,0,0,6-6h38.1a8.4,8.4,0,0,0,6,6V25.31a8.4,8.4,0,0,0-6,6H12.26a8.4,8.4,0,0,0-6-6Z"/><path class="a" d="M29.36,26.89l-.13,1.17a1,1,0,0,0,.92,1.15h.12a1,1,0,0,0,1-.93l.13-1.17c3.45,0,6.14-2,6.14-4.51,0-2.83-2.6-4-5.08-5L33,12.8c1,.34,1.59.92,1.59,1.46a1,1,0,0,0,2.09,0c0-1.65-1.41-3-3.44-3.57l.13-1.18a1,1,0,1,0-2.07-.24l-.13,1.17c-3.16.05-5.27,1.71-5.27,4.17S28,18.14,30.23,19l-.64,5.8c-1.42-.4-2.46-1.26-2.46-2.2a1,1,0,0,0-2.08,0C25.05,24.65,26.84,26.31,29.36,26.89Zm2.89-7.09c2,.8,3.23,1.54,3.23,2.81s-1.74,2.3-3.81,2.41ZM28,14.61c0-1.71,2-2,2.95-2.08l-.48,4.32C29,16.19,28,15.56,28,14.61Z"/></svg>