<svg xmlns="http://www.w3.org/2000/svg" viewBox="0 0 260 100"><defs><style>.a{fill:#fff;}.b{fill:#008acb;}</style></defs><title>footer-logo</title><path class="a" d="M14.3,73.3a7.92,7.92,0,0,1,2.34.33,5.39,5.39,0,0,1,1.87,1,4.49,4.49,0,0,1,1.23,1.64,5.82,5.82,0,0,1,.44,2.3A6.17,6.17,0,0,1,20,80a4.41,4.41,0,0,1-.47,1.19,4.07,4.07,0,0,1-.72.9,3.79,3.79,0,0,1-.88.62,4.22,4.22,0,0,1,1.17.61,4.28,4.28,0,0,1,1,1,4.91,4.91,0,0,1,.67,1.4A6.32,6.32,0,0,1,21,87.57,6,6,0,0,1,20.56,90a4.63,4.63,0,0,1-1.28,1.7,5.42,5.42,0,0,1-1.92,1A8.14,8.14,0,0,1,15,93H6.91V73.3H14.3Zm-5,8.58h5.36a4,4,0,0,0,1.22-.18,2.34,2.34,0,0,0,1-.55,2.46,2.46,0,0,0,.64-1,4.18,4.18,0,0,0,.23-1.46,3.47,3.47,0,0,0-.28-1.43,2.69,2.69,0,0,0-.76-1,3.48,3.48,0,0,0-1.18-.61,5.39,5.39,0,0,0-1.5-.2H9.31v6.44Zm0,9h5.38a5.55,5.55,0,0,0,1.5-.19,3.46,3.46,0,0,0,1.23-.61A2.79,2.79,0,0,0,18.26,89a3.82,3.82,0,0,0,.31-1.59,3.92,3.92,0,0,0-.31-1.61,2.8,2.8,0,0,0-.82-1.08,3.33,3.33,0,0,0-1.17-.6A4.75,4.75,0,0,0,14.91,84H9.31V90.9Z"/><path class="a" d="M30.38,81.61a4.37,4.37,0,0,0-1.62.29,3.57,3.57,0,0,0-1.23.79,3.43,3.43,0,0,0-.78,1.17,3.82,3.82,0,0,0-.27,1.45V93H24.21V79.58h2.22v2a3.36,3.36,0,0,1,.5-.81,4.08,4.08,0,0,1,.82-.7,4.48,4.48,0,0,1,1.15-.49,5.59,5.59,0,0,1,1.48-.19v2.19Z"/><path class="a" d="M36,74.73a1.35,1.35,0,0,1-.12.57,1.4,1.4,0,0,1-.32.47,1.55,1.55,0,0,1-.48.32,1.61,1.61,0,0,1-1.17,0,1.5,1.5,0,0,1-.8-.79,1.52,1.52,0,0,1-.11-.57,1.45,1.45,0,0,1,.12-.59,1.31,1.31,0,0,1,.32-.48,1.53,1.53,0,0,1,1.06-.44,1.43,1.43,0,0,1,.58.12,1.39,1.39,0,0,1,.48.32A1.53,1.53,0,0,1,36,74.73ZM33.33,93V79.58H35.6V93H33.33Z"/><path class="a" d="M50,81.8V79.58h2.14V93.8a7,7,0,0,1-.46,2.59,5.45,5.45,0,0,1-1.31,2,5.69,5.69,0,0,1-2,1.23,7.76,7.76,0,0,1-2.63.43,8.55,8.55,0,0,1-2.53-.35,6,6,0,0,1-1.94-1,5.17,5.17,0,0,1-1.33-1.51,6,6,0,0,1-.71-1.93h.56l.57,0,.57,0,.57,0A3.18,3.18,0,0,0,42,96.37a3.36,3.36,0,0,0,.92.92,4.28,4.28,0,0,0,1.26.58,5.81,5.81,0,0,0,3.23-.06A4,4,0,0,0,48.71,97a3.54,3.54,0,0,0,.87-1.29A4.86,4.86,0,0,0,49.89,94V91a3.57,3.57,0,0,1-.72.9,4.46,4.46,0,0,1-1,.72,6.13,6.13,0,0,1-1.31.48,7.13,7.13,0,0,1-1.57.17,7,7,0,0,1-2.57-.48,6,6,0,0,1-2.06-1.38,6.41,6.41,0,0,1-1.37-2.2,9,9,0,0,1,0-5.85,6.36,6.36,0,0,1,1.37-2.19,6,6,0,0,1,2.06-1.38,7,7,0,0,1,4.18-.29,5.74,5.74,0,0,1,1.35.52,5,5,0,0,1,1.07.77A4.28,4.28,0,0,1,50,81.8Zm-9,4.53a6.35,6.35,0,0,0,.35,2.14,4.36,4.36,0,0,0,1,1.56,3.84,3.84,0,0,0,1.43,1,4.75,4.75,0,0,0,1.79.33A5,5,0,0,0,47.29,91a3.73,3.73,0,0,0,1.37-.87,3.93,3.93,0,0,0,.9-1.43,5.59,5.59,0,0,0,.33-2v-.79a5.57,5.57,0,0,0-.33-2,3.73,3.73,0,0,0-2.27-2.32,5,5,0,0,0-1.72-.29,4.75,4.75,0,0,0-1.79.33,4.1,4.1,0,0,0-1.43,1,4.49,4.49,0,0,0-1,1.57A6.42,6.42,0,0,0,41.05,86.33Z"/><path class="a" d="M58.49,81.43a3.28,3.28,0,0,1,.6-.77A3.84,3.84,0,0,1,60,80a4.85,4.85,0,0,1,1.16-.47,5.85,5.85,0,0,1,1.44-.18,5.67,5.67,0,0,1,2.09.39,4.78,4.78,0,0,1,1.65,1.1,4.94,4.94,0,0,1,1.09,1.74,6.58,6.58,0,0,1,.39,2.29V93H65.5V85.15a4.63,4.63,0,0,0-.24-1.53,3.31,3.31,0,0,0-.7-1.16,3,3,0,0,0-1.07-.74,3.45,3.45,0,0,0-1.39-.27,3.71,3.71,0,0,0-1.47.3,3.51,3.51,0,0,0-1.14.8,3.56,3.56,0,0,0-.74,1.19,4,4,0,0,0-.26,1.43V93H56.22V72.54h2.27v8.89Z"/><path class="a" d="M78.1,91v2l-.35.06-.41,0-.48,0h-.58A5.54,5.54,0,0,1,74.6,93a3.6,3.6,0,0,1-1.32-.76,3.5,3.5,0,0,1-.85-1.32,5.39,5.39,0,0,1-.29-1.9V81.56H69.66v-2h2.51V74.94h2.3v4.64h3.62v2H74.46v3.49l0,1.75v1.75a3.9,3.9,0,0,0,.18,1.23,2.12,2.12,0,0,0,.51.81,2,2,0,0,0,.76.44,3,3,0,0,0,.92.13h.4l.35,0,.31-.05Z"/><path class="a" d="M93.62,93l-.91-2.41-.9-2.41-.9-2.41L90,83.41l-.9,2.4-.9,2.41-.91,2.41L86.39,93H84.57l-1.28-3.37L82,86.31l-1.28-3.37-1.28-3.36h2.48l.9,2.44.91,2.44.9,2.44.9,2.44.91-2.44.91-2.44L88.27,82l.91-2.44h1.61L91.71,82l.92,2.44.91,2.44.92,2.44.91-2.44.91-2.44L97.19,82l.91-2.44h2.45l-1.27,3.36L98,86.31l-1.28,3.36L95.44,93H93.62Z"/><path class="a" d="M115.59,86.31a7.75,7.75,0,0,1-.53,2.89,6.36,6.36,0,0,1-1.46,2.21,6.52,6.52,0,0,1-2.19,1.4,7.65,7.65,0,0,1-2.73.49,7.57,7.57,0,0,1-2.73-.49,6.52,6.52,0,0,1-2.19-1.4,6.36,6.36,0,0,1-1.46-2.21,8.14,8.14,0,0,1,0-5.78,6.32,6.32,0,0,1,1.46-2.2A6.49,6.49,0,0,1,106,79.83a7.57,7.57,0,0,1,2.73-.49,7.65,7.65,0,0,1,2.73.49,6.49,6.49,0,0,1,2.19,1.39,6.32,6.32,0,0,1,1.46,2.2A7.75,7.75,0,0,1,115.59,86.31Zm-11.53,0a6.06,6.06,0,0,0,.36,2.11,4.48,4.48,0,0,0,1,1.57,4.24,4.24,0,0,0,1.47,1,5,5,0,0,0,3.64,0A4.34,4.34,0,0,0,112,90a4.63,4.63,0,0,0,1-1.57,6.36,6.36,0,0,0,0-4.22,4.49,4.49,0,0,0-1-1.56,4.17,4.17,0,0,0-1.47-1,5,5,0,0,0-3.64,0,4.08,4.08,0,0,0-1.47,1,4.34,4.34,0,0,0-1,1.56A6,6,0,0,0,104.06,86.31Z"/><path class="a" d="M131.84,86.31a7.75,7.75,0,0,1-.53,2.89,6.36,6.36,0,0,1-1.46,2.21,6.52,6.52,0,0,1-2.19,1.4,7.65,7.65,0,0,1-2.73.49,7.57,7.57,0,0,1-2.73-.49,6.52,6.52,0,0,1-2.19-1.4,6.36,6.36,0,0,1-1.46-2.21,8.14,8.14,0,0,1,0-5.78,6.32,6.32,0,0,1,1.46-2.2,6.49,6.49,0,0,1,2.19-1.39,7.57,7.57,0,0,1,2.73-.49,7.65,7.65,0,0,1,2.73.49,6.49,6.49,0,0,1,2.19,1.39,6.32,6.32,0,0,1,1.46,2.2A7.75,7.75,0,0,1,131.84,86.31Zm-11.53,0a6.06,6.06,0,0,0,.36,2.11,4.48,4.48,0,0,0,1,1.57,4.29,4.29,0,0,0,1.46,1,5,5,0,0,0,1.83.34,4.91,4.91,0,0,0,1.82-.34,4.34,4.34,0,0,0,1.47-1,4.63,4.63,0,0,0,1-1.57,6.36,6.36,0,0,0,0-4.22,4.49,4.49,0,0,0-1-1.56,4.17,4.17,0,0,0-1.47-1,4.91,4.91,0,0,0-1.82-.34,5,5,0,0,0-1.83.34,4.13,4.13,0,0,0-1.46,1,4.34,4.34,0,0,0-1,1.56A6,6,0,0,0,120.31,86.31Z"/><path class="a" d="M145.64,93V90.85a4.28,4.28,0,0,1-.75,1,4.83,4.83,0,0,1-1.07.78,5.56,5.56,0,0,1-1.35.51,6.83,6.83,0,0,1-1.61.19,7,7,0,0,1-2.57-.48,6,6,0,0,1-2.06-1.38,6.34,6.34,0,0,1-1.36-2.19,8.78,8.78,0,0,1,0-5.84,6.29,6.29,0,0,1,1.36-2.2,5.91,5.91,0,0,1,2.06-1.39,7,7,0,0,1,2.57-.48,6.5,6.5,0,0,1,1.57.18,5.88,5.88,0,0,1,1.32.47,5,5,0,0,1,1,.72,3.75,3.75,0,0,1,.72.9V72.54h2.27V93h-2.13Zm-9-6.73a6.42,6.42,0,0,0,.34,2.15A4.4,4.4,0,0,0,138,90a4.05,4.05,0,0,0,1.43,1,4.79,4.79,0,0,0,1.79.33A5,5,0,0,0,142.9,91a3.65,3.65,0,0,0,1.37-.87,3.94,3.94,0,0,0,.91-1.44,5.91,5.91,0,0,0,.32-2v-.79a5.73,5.73,0,0,0-.32-2,3.78,3.78,0,0,0-.91-1.44,3.91,3.91,0,0,0-1.37-.87,5,5,0,0,0-1.72-.29,4.79,4.79,0,0,0-1.79.33,4.05,4.05,0,0,0-1.43,1,4.36,4.36,0,0,0-1,1.56A6.36,6.36,0,0,0,136.67,86.31Z"/><path class="a" d="M176.53,80.35l-.63.06-.63,0-.62.06-.63.06a6.52,6.52,0,0,0-.75-2.28,5.63,5.63,0,0,0-1.44-1.69,6.16,6.16,0,0,0-2-1,8.08,8.08,0,0,0-5.29.18,6.44,6.44,0,0,0-2.26,1.57,7,7,0,0,0-1.47,2.5,10.25,10.25,0,0,0-.53,3.36,9.92,9.92,0,0,0,.56,3.42,6.83,6.83,0,0,0,1.52,2.5,6.5,6.5,0,0,0,2.28,1.53,7.79,7.79,0,0,0,2.84.52,8.18,8.18,0,0,0,2.37-.34,6.11,6.11,0,0,0,1.94-1,5.62,5.62,0,0,0,1.43-1.6,6.44,6.44,0,0,0,.81-2.18l.62.06.63.05.63,0,.62.06a8.25,8.25,0,0,1-1.06,2.94,7.72,7.72,0,0,1-2,2.22,8.38,8.38,0,0,1-2.69,1.39,11.17,11.17,0,0,1-7.11-.19,8.86,8.86,0,0,1-3.09-2,9,9,0,0,1-2-3.18,11.94,11.94,0,0,1-.74-4.29,12.16,12.16,0,0,1,.73-4.29,9,9,0,0,1,2-3.18,8.64,8.64,0,0,1,3.07-2,10.72,10.72,0,0,1,3.86-.68,10.58,10.58,0,0,1,3.28.5A8.72,8.72,0,0,1,173.54,75a7.83,7.83,0,0,1,2,2.3A8.37,8.37,0,0,1,176.53,80.35Z"/><path class="a" d="M192.58,86.31a7.75,7.75,0,0,1-.53,2.89,6.3,6.3,0,0,1-3.66,3.61,7.82,7.82,0,0,1-5.45,0,6.37,6.37,0,0,1-3.66-3.61,8.14,8.14,0,0,1,0-5.78,6.34,6.34,0,0,1,3.66-3.59,7.82,7.82,0,0,1,5.45,0,6.54,6.54,0,0,1,2.2,1.39,6.46,6.46,0,0,1,1.46,2.2A7.75,7.75,0,0,1,192.58,86.31Zm-11.53,0a6.06,6.06,0,0,0,.35,2.11,4.5,4.5,0,0,0,1,1.57,4.29,4.29,0,0,0,1.46,1,5.07,5.07,0,0,0,3.65,0A4.29,4.29,0,0,0,189,90a4.5,4.5,0,0,0,1-1.57,6.54,6.54,0,0,0,0-4.22,4.37,4.37,0,0,0-1-1.56,4.13,4.13,0,0,0-1.46-1,5.07,5.07,0,0,0-3.65,0,4.13,4.13,0,0,0-1.46,1,4.37,4.37,0,0,0-1,1.56A6,6,0,0,0,181.05,86.31Z"/><path class="a" d="M195.6,93V72.54h2.27V93H195.6Z"/><path class="a" d="M202.25,93V72.54h2.27V93h-2.27Z"/><path class="a" d="M210.43,87.18a4.94,4.94,0,0,0,.38,1.74,3.86,3.86,0,0,0,.89,1.3A3.78,3.78,0,0,0,213,91a4.74,4.74,0,0,0,1.64.28,5.76,5.76,0,0,0,1.36-.16,3.78,3.78,0,0,0,1.1-.48,3.06,3.06,0,0,0,.81-.75,3.18,3.18,0,0,0,.5-1l.57,0,.57,0,.56,0,.57,0a5.1,5.1,0,0,1-.73,1.69,5.59,5.59,0,0,1-1.31,1.35,6.19,6.19,0,0,1-1.78.89,7.16,7.16,0,0,1-2.17.32,7.24,7.24,0,0,1-2.67-.48,6,6,0,0,1-2.11-1.37,6.21,6.21,0,0,1-1.39-2.2,8.2,8.2,0,0,1-.5-2.94,8.39,8.39,0,0,1,.49-2.94,6.29,6.29,0,0,1,1.38-2.19,6,6,0,0,1,2.1-1.36,7.3,7.3,0,0,1,2.65-.48,7,7,0,0,1,2.59.47,5.32,5.32,0,0,1,1.94,1.34,5.81,5.81,0,0,1,1.22,2.08,8.2,8.2,0,0,1,.42,2.71v1.24H210.43Zm0-1.85h8.12a5.19,5.19,0,0,0-.27-1.62,3.7,3.7,0,0,0-.75-1.26,3.27,3.27,0,0,0-1.22-.83,4.63,4.63,0,0,0-1.69-.3,4.9,4.9,0,0,0-1.61.26,3.71,3.71,0,0,0-1.3.77,3.79,3.79,0,0,0-.89,1.25A5.06,5.06,0,0,0,210.43,85.33Z"/><path class="a" d="M234.83,81.8V79.58H237V93.8a7,7,0,0,1-.47,2.59,5.2,5.2,0,0,1-1.31,2,5.64,5.64,0,0,1-2,1.23,7.84,7.84,0,0,1-2.63.43,8.66,8.66,0,0,1-2.54-.35,6.23,6.23,0,0,1-1.94-1,5.32,5.32,0,0,1-1.33-1.51,6,6,0,0,1-.71-1.93h.57l.57,0,.56,0,.57,0a3.3,3.3,0,0,0,1.4,2.14,4.28,4.28,0,0,0,1.26.58,5.62,5.62,0,0,0,1.51.2,5.49,5.49,0,0,0,1.72-.26,3.81,3.81,0,0,0,1.34-.79,3.57,3.57,0,0,0,.88-1.29A4.86,4.86,0,0,0,234.7,94V91a3.85,3.85,0,0,1-.73.9,4.61,4.61,0,0,1-1,.72,6.43,6.43,0,0,1-1.32.48,7.06,7.06,0,0,1-1.57.17,7,7,0,0,1-2.57-.48,6,6,0,0,1-2.06-1.38,6.39,6.39,0,0,1-1.36-2.2,8.81,8.81,0,0,1,0-5.85,6.34,6.34,0,0,1,1.36-2.19,6,6,0,0,1,2.06-1.38,7,7,0,0,1,2.57-.48,6.83,6.83,0,0,1,1.61.19,5.42,5.42,0,0,1,1.35.52,4.8,4.8,0,0,1,1.07.77A4.06,4.06,0,0,1,234.83,81.8Zm-9,4.53a6.36,6.36,0,0,0,.34,2.14,4.5,4.5,0,0,0,1,1.56,3.88,3.88,0,0,0,1.44,1,4.7,4.7,0,0,0,1.78.33,5,5,0,0,0,1.72-.29,3.65,3.65,0,0,0,1.37-.87,3.82,3.82,0,0,0,.91-1.43,5.82,5.82,0,0,0,.33-2v-.79a5.8,5.8,0,0,0-.33-2,3.78,3.78,0,0,0-2.28-2.32,5,5,0,0,0-1.72-.29,4.7,4.7,0,0,0-1.78.33,4.14,4.14,0,0,0-1.44,1,4.65,4.65,0,0,0-1,1.57A6.42,6.42,0,0,0,225.86,86.33Z"/><path class="a" d="M242.69,87.18a5.17,5.17,0,0,0,.39,1.74A3.77,3.77,0,0,0,245.27,91a4.84,4.84,0,0,0,1.65.28,5.83,5.83,0,0,0,1.36-.16,3.78,3.78,0,0,0,1.1-.48,3.06,3.06,0,0,0,.81-.75,3.18,3.18,0,0,0,.5-1l.56,0,.57,0,.57,0,.57,0a4.92,4.92,0,0,1-.74,1.69,5.37,5.37,0,0,1-1.3,1.35,6.45,6.45,0,0,1-1.78.89,7.6,7.6,0,0,1-4.84-.16,5.88,5.88,0,0,1-2.11-1.37,6.24,6.24,0,0,1-1.4-2.2,8.89,8.89,0,0,1,0-5.88,6.15,6.15,0,0,1,1.38-2.19,6,6,0,0,1,2.1-1.36,7.3,7.3,0,0,1,2.65-.48,6.94,6.94,0,0,1,2.58.47,5.35,5.35,0,0,1,1.95,1.34,5.81,5.81,0,0,1,1.22,2.08,8.47,8.47,0,0,1,.42,2.71v1.24h-10.4Zm0-1.85h8.13a5.18,5.18,0,0,0-.28-1.62,3.55,3.55,0,0,0-.75-1.26,3.15,3.15,0,0,0-1.21-.83,4.63,4.63,0,0,0-1.69-.3,4.9,4.9,0,0,0-1.61.26,3.71,3.71,0,0,0-1.3.77,3.79,3.79,0,0,0-.89,1.25A5.05,5.05,0,0,0,242.69,85.33Z"/><path class="a" d="M148.12,5.11l-.85-.4L146,4.12A43,43,0,0,0,140.1,2a43.94,43.94,0,0,0-26.21,0A43.51,43.51,0,0,0,108,4.12l-1.28.59-.85.4L105,5.5V25.87a20.74,20.74,0,0,0,2.65,10.25,25.82,25.82,0,0,0,7.76,8.37l.66.46.67.43a37.37,37.37,0,0,0,5,2.71c1.36.61,2.34.94,2.65,1l.77.25.77.25.44.15L127,50l.64-.21.45-.15.76-.25.77-.25c.31-.11,1.29-.44,2.65-1a38.09,38.09,0,0,0,5-2.69l.69-.46.66-.45a25.82,25.82,0,0,0,7.76-8.37A20.74,20.74,0,0,0,149,25.87V5.5Z"/><path class="b" d="M148.12,5.11l-.85-.4-.65-.29-.64-.3A43,43,0,0,0,140.1,2a43.94,43.94,0,0,0-26.21,0A43.51,43.51,0,0,0,108,4.12l-.64.3-.64.29-.85.4L105,5.5V25.87a20.74,20.74,0,0,0,2.65,10.25,25.82,25.82,0,0,0,7.76,8.37l.66.46.67.43a37.37,37.37,0,0,0,5,2.71c1.36.61,2.34.94,2.65,1l.77.25.77.25.44.15L127,50l.64-.21.45-.15.76-.25.77-.25c.31-.11,1.29-.44,2.65-1a38.09,38.09,0,0,0,5-2.69l.69-.46.66-.45a25.82,25.82,0,0,0,7.76-8.37A20.74,20.74,0,0,0,149,25.87V5.5ZM147,16.33v9.54a18.74,18.74,0,0,1-2.44,9.32,23.75,23.75,0,0,1-7.12,7.65c-.2.14-.41.29-.63.43l-.65.43a34.68,34.68,0,0,1-4.65,2.53c-1.28.58-2.19.89-2.48,1l-.91.3-1.08.34-1.08-.34-.91-.3c-.29-.1-1.2-.41-2.48-1a34,34,0,0,1-4.67-2.55l-.63-.41c-.21-.14-.42-.28-.62-.43a23.9,23.9,0,0,1-7.13-7.65A18.73,18.73,0,0,1,107,25.87V6.79l.91-.42.9-.42a43.76,43.76,0,0,1,5.62-2,42,42,0,0,1,25.05,0,43.24,43.24,0,0,1,5.61,2l.91.42.91.42Zm-2.59-8.71A40.69,40.69,0,0,0,139,5.68a40.4,40.4,0,0,0-24,0,40.2,40.2,0,0,0-5.37,1.94l-.38.17-.38.18v17.9a16.92,16.92,0,0,0,2.24,8.47,22.14,22.14,0,0,0,6.55,7l.59.41.6.39a33.47,33.47,0,0,0,4.4,2.41,24.6,24.6,0,0,0,2.33.92l.63.21.63.21.15,0,.16,0,.63-.21.63-.21a24.88,24.88,0,0,0,2.32-.92,33.22,33.22,0,0,0,4.39-2.4l.62-.4.59-.41a22,22,0,0,0,6.54-7,16.92,16.92,0,0,0,2.24-8.47V8l-.37-.18Zm-5.05,8.19L135,20a8.41,8.41,0,0,0-1.45-2.52Zm-5.2-5.21-1.65,5.76A8.51,8.51,0,0,0,130,14.9ZM127,8.69l1.46,5.81a8.81,8.81,0,0,0-1.46-.12,8.69,8.69,0,0,0-1.45.12ZM124,14.9a8.69,8.69,0,0,0-2.52,1.46l-1.64-5.76Zm-3.61,2.55A8.44,8.44,0,0,0,119,20l-4.3-4.16Zm-7.66,5.47,5.8-1.45a8.82,8.82,0,0,0,0,2.9Zm1.9,7.11,4.3-4.16a8.44,8.44,0,0,0,1.46,2.52h0Zm5.21,5.21,1.64-5.75A8.9,8.9,0,0,0,124,30.94Zm7.9-5.16c0,.38,0,.77,0,1.17,0,.9.12,1.77.2,2.59s.17,1.61.27,2.33h-2.61c.1-.72.19-1.5.27-2.33s.14-1.69.19-2.59c0-.4,0-.79,0-1.17l0-1.15a6,6,0,1,1,1.53,0C127.76,29.31,127.77,29.69,127.78,30.08Zm2.17.86a8.71,8.71,0,0,0,2.51-1.45l1.65,5.75Zm3.61-2.55A8.41,8.41,0,0,0,135,25.87l4.3,4.16Zm1.85-4a8.15,8.15,0,0,0,0-2.9l5.81,1.45Z"/><path class="a" d="M260,91.27a2.08,2.08,0,1,1-2.07-2A2,2,0,0,1,260,91.27Zm-.29,0A1.79,1.79,0,1,0,257.92,93,1.72,1.72,0,0,0,259.71,91.27Zm-1.29.21.52,1h-.43l-.49-.95h-.55v.95h-.39V90.06h1a.75.75,0,0,1,.35,1.42Zm-.46-.26c.25,0,.46-.11.46-.42s-.21-.42-.46-.42h-.49v.84Z"/></svg>