<svg xmlns="http://www.w3.org/2000/svg" viewBox="0 0 65.21 44.07"><defs><style>.a{fill:#04648e;}</style></defs><title>gradcap-primary</title><path class="a" d="M64.24,12,33.14.1a1.52,1.52,0,0,0-1.07,0L1,12a1.5,1.5,0,0,0,0,2.8l11.85,4.53V30.7a1.53,1.53,0,0,0,.56,1.17,30.43,30.43,0,0,0,38.47,0,1.52,1.52,0,0,0,.55-1.17V19.31l4.52-1.73v9.08a4.7,4.7,0,0,0-3.2,4.16,1.55,1.55,0,0,0,0,.31V42.57a1.5,1.5,0,0,0,1.5,1.5h6.47a1.5,1.5,0,0,0,1.5-1.5V31.13a1.55,1.55,0,0,0,0-.31,4.71,4.71,0,0,0-3.21-4.16V16.44l4.33-1.66a1.5,1.5,0,0,0,0-2.8ZM60.15,41.07H56.68V31.13a1.74,1.74,0,1,1,3.47,0ZM32.6,3.1,59.5,13.38l-9,3.44a1.63,1.63,0,0,0-.31.11l-6.86,2.63L32.6,23.66,14.85,16.88h0l-.17-.07-9-3.43Zm0,32.62A27.54,27.54,0,0,1,15.81,30V20.46l16.26,6.21a1.61,1.61,0,0,0,.53.1,1.66,1.66,0,0,0,.54-.1l16.25-6.21V30A27.52,27.52,0,0,1,32.6,35.72Z"/></svg>