<svg xmlns="http://www.w3.org/2000/svg" viewBox="0 0 1003.33 618.51"><defs><style>.a{fill:#fff;}.b{fill:#4b4f54;}</style></defs><title>location-map</title><path class="a" d="M1002.74,76.8h0c-.72-.44-1-.47-1.5-.31a2.08,2.08,0,0,1-.71.11,7.46,7.46,0,0,0-.92.08l-.85.1a1.33,1.33,0,0,1,.16-.66c.24-.6.44-1,.59-1.31.33-.68.53-1.09,0-1.78s-3.5-3-3.83-3.32l-.66,0a2.57,2.57,0,0,1-1.5.74.46.46,0,0,1-.37-.18,7,7,0,0,1-1.7-3.39,3.55,3.55,0,0,0-.87-1.67,1.63,1.63,0,0,1-.55-1.3c0-.29.07-.54.11-.76A1.73,1.73,0,0,0,990,61.8a2,2,0,0,0-1.31-.62c-.48-.08-1.08-.12-1.72-.17-1.2-.08-3-.21-3.43-.69a8,8,0,0,0-.59-.63,1.1,1.1,0,0,1-.46-.93,97.48,97.48,0,0,0-3.26-12.67l-1.33-3.57c-1.55-4.16-4.15-11.12-4.22-11.81s-.58-1.12-1.19-1.43a7.67,7.67,0,0,1-1-.54c-.67-.45-6.61-4.39-8.11-4.23-1.06.12-2,1.06-3,2-.27.25-.53.51-.79.74s-.51.47-.74.71a6.6,6.6,0,0,1-3,1.91A4.17,4.17,0,0,0,954,31.16c-.45.51-.45.51-1,.07a5.67,5.67,0,0,1-1.36-2A3.93,3.93,0,0,0,949.94,27c-1.49-.67-1.87-.47-2.71.63l-.22.3c-1,1.29-4.85,11.35-5.79,14.14a25.74,25.74,0,0,0-1.45,6.21,9.31,9.31,0,0,0,.1,2,5.9,5.9,0,0,1,0,2,17.54,17.54,0,0,1-.54,1.73c-.8,2.32-1.38,4.17-1,5.16a20.78,20.78,0,0,1,.87,5.52,2.29,2.29,0,0,0,.74,1.6,1.35,1.35,0,0,1,.33,1.72,33.22,33.22,0,0,1-1.92,3.68c-1.52,2.7-2.52,4.53-2.52,5.44a5.3,5.3,0,0,0,.32,1.63c.24.8.37,1.28,0,1.87l-.46.73a8.3,8.3,0,0,0-1,2.09c-.32,1-.79,1.43-1.39,1.34s-1.21.41-1.69.9a4.62,4.62,0,0,1-.55.53,1.91,1.91,0,0,1-.7.41,7.06,7.06,0,0,1-1,.18c-1,.12-2.19.27-2.66,1.69a36.8,36.8,0,0,0-.9,5.6l-.64.17-5.24,1.42-4,1.14c-4.58,1.3-12.25,3.48-19.58,5.5-14.57,4-18.46,4.88-19.16,4.88-2.52,0-5.84.32-7.35,1.83-.86.85-4.21,4.69-6.9,7.77-1.43,1.64-2.64,3-3.1,3.52a10.11,10.11,0,0,0-2.45,4c-.21.77-4.92,7.85-5.87,9.12s-1.35,2.89-.47,3.77l.21.21c.63.67.94.63,2,.15.14-.06.2-.06.2-.07a.91.91,0,0,1,.15.23,1.27,1.27,0,0,0,1.3.79,2.84,2.84,0,0,1-.78,1.48,1.88,1.88,0,0,1-.59.35c-.83.37-1.17.84-.56,2.27a10.17,10.17,0,0,0,1.19,1.91c.66.9,1.18,1.61,1,2.45-.08.37-.13.68-.18.95-.14.91-.16,1-1.25,1.26l-.63.12c-1.57.27-2.4.55-4.24,3.89-2.08,3.76-3.43,3.93-4.16,4s-1.16.11-1.9.15l-1.7.11a15.85,15.85,0,0,0-5.4,1.49,3.62,3.62,0,0,0-.65.52c-.62.58-1.21,1.13-3.12,0-2.61-1.55-3.68-1.34-5.82-.92l-1.13.21c-1.34.23-2.33.46-3.29.68a37.21,37.21,0,0,1-3.82.74,9.13,9.13,0,0,0-4,1.84,6,6,0,0,1-2.5,1.27c-2.2.27-3.68,1.42-3.68,2.31a19.93,19.93,0,0,0,.4,3.21,2.77,2.77,0,0,0,1.33,1.71,2.65,2.65,0,0,1,1,1.1c.12.31.24.58.35.82a2.91,2.91,0,0,1,.4,1.64c-.13.88.75,1,1.08,1.07a3.29,3.29,0,0,1,.41.08.57.57,0,0,1-.05.32,13.25,13.25,0,0,1-2.25,4.12c-.6.75-2.17,2.34-3.56,3.75-1,1-1.92,1.94-2.51,2.57l-.38.42c-.82.9-2.34,2.57-4,4.31l-11.45,8.59-.18-.09c-1.87,1.16-4,2.58-5.85,3.83s-3.35,2.26-4.16,2.7a13.78,13.78,0,0,0-4.94,4.15,9.42,9.42,0,0,0-1.37,2.49c-.36.9-.55,1.34-1.09,1.48a2.15,2.15,0,0,0-1.39,1.16,1,1,0,0,1-1,.64,5.7,5.7,0,0,1-1.71-.22,4.94,4.94,0,0,0-3.51.14,31.6,31.6,0,0,0-3,1.71,16.09,16.09,0,0,1-3,1.62,4.2,4.2,0,0,0-.85.28c-.45.19-.75.32-2.17,0a13.7,13.7,0,0,0-2.55-.33,3.09,3.09,0,0,1-.92-.12,2.77,2.77,0,0,1,0-.53,1.63,1.63,0,0,0-.35-1.35,1.22,1.22,0,0,0-1-.27,1.39,1.39,0,0,0-1.3,1c0,.05,0,.1,0,.11l-.21,0a4,4,0,0,0-1-.12c-.23,0-.31,0-.83-.34l-.37-.23a7,7,0,0,0-3.06-1.26,6.72,6.72,0,0,1-1.64-.57,4.93,4.93,0,0,0-2.19-.61,7.33,7.33,0,0,0-1,.08l-.38,0c.06-.16.14-.37.25-.6a21.63,21.63,0,0,1,1.73-2.84,19.81,19.81,0,0,0,2.31-4.07,9.34,9.34,0,0,0,.43-3.34,5.5,5.5,0,0,1,.79-3.53,10.88,10.88,0,0,1,1.43-1.55,2.55,2.55,0,0,0,1.13-2.59,4.78,4.78,0,0,1,.35-3.47,5.13,5.13,0,0,0,.41-1.35,1.91,1.91,0,0,1,.1-.39,1,1,0,0,1,.33-.06,2.08,2.08,0,0,1,.1.54,1.51,1.51,0,0,0,.6,1.28,1.65,1.65,0,0,0,1.47-.17c2.35-1.17,2.35-4.12,2.35-6.28a22.28,22.28,0,0,0-1.19-6.51c-.25-.73-.48-1.77-.72-2.86A21.77,21.77,0,0,0,748,172.1a4.67,4.67,0,0,0-1-1.26c-.55-.52-.95-.91-1-3.06,0-.86,0-1.52,0-2.05A5.59,5.59,0,0,0,745,162l-.37-.61c-.93-1.58-1.6-2.72-3.36-3.48-.4-.17-.73-.33-1-.46a3,3,0,0,0-2.87-.32,5.92,5.92,0,0,0-1.54,1,5.75,5.75,0,0,1-1.57,1l-.9.35c-1.22.45-2.37.88-2.64,2.07a8.55,8.55,0,0,0-.15,1.64,5,5,0,0,1-.22,1.67,1.34,1.34,0,0,1-.57.76,3.8,3.8,0,0,0-1.52,2.42c-.29,1.12-.46,1.39-1.13,1.29a7.23,7.23,0,0,1-1.51-.36,4.59,4.59,0,0,0-1.79-.29l-.84,0h-.28l-.09-.32a12,12,0,0,1-.11-4.32,3.41,3.41,0,0,0-.08-1.46.14.14,0,0,1,0-.06,8.08,8.08,0,0,1,.89-.59,2.39,2.39,0,0,1,1.51-.37c1,0,1.51-.22,2.08-1.83a7.55,7.55,0,0,0,.45-2.79,2.7,2.7,0,0,1,.52-1.89c.31-.43.43-.49.47-.49.61,0,1-.33,2-2.14s.81-2.62.34-3.56a3.82,3.82,0,0,1-.41-2.71,9.37,9.37,0,0,0-.47-5.2,6.82,6.82,0,0,1-.31-1.05c-.19-1-.28-1.23-.87-1.72a9.18,9.18,0,0,1-.82-.74c-1.33-1.33-1.34-1.37-.63-2.17a2.17,2.17,0,0,1,1.12-.6c.35-.1.76-.21.91-.61a1.39,1.39,0,0,0-.3-1.2,6.76,6.76,0,0,0-1.59-1.61c-.65-.51-1.21-1-1.32-1.58-.26-1.42-.36-1.62-1.48-2l-.28-.09a22.09,22.09,0,0,0-2.47-.54,20.33,20.33,0,0,1-4.26-1.08,3.58,3.58,0,0,0-1.38-.62,7.74,7.74,0,0,1-1.3-.46,12.18,12.18,0,0,0-1.14-.45,1.43,1.43,0,0,1-1-.69,1.82,1.82,0,0,1-.27-.63c-.2-.71-.49-1.26-2.08-1.26a13.72,13.72,0,0,0-2,.18c-.89.13-1.4.18-1.7-.06a4.64,4.64,0,0,1-.54-.56,3.57,3.57,0,0,0-1.67-1.21,4,4,0,0,1-.9-.5,1.81,1.81,0,0,0-1.9-.29,5,5,0,0,0-2.09,1.52c-.29.3-.63.65-1.07,1a6.25,6.25,0,0,1-1.4.93,2.12,2.12,0,0,0-1.48,1.86A4,4,0,0,0,697,128c.5.5,1.21,1.84,1,2.14a9,9,0,0,1-1,.13,4.93,4.93,0,0,0-2.4.7,6,6,0,0,0-2.16,5.5c.06.2.12.38.18.56a4.43,4.43,0,0,1,.07,3.06c-.13.52-.26,1.12-.39,1.71,0,.17-.07.35-.11.53,0-.41,0-.76-.38-.86s-.64.31-.78.61a8.06,8.06,0,0,0-.41,1.24c-.15.54-.21.74-.43.87l-.32.21-.25.16a.24.24,0,0,0,0-.08,3.5,3.5,0,0,1,.43-1.05,1.35,1.35,0,0,0,.07-1.45,4.53,4.53,0,0,0-.38-.79c-.17-.29-.19-.32,0-.8a4.48,4.48,0,0,0,.3-1.32,6.65,6.65,0,0,1,.24-1.32c.46-1.68.6-2.45.05-2.77s-1.05.24-1.28.47a6.19,6.19,0,0,0-1.48,2.39c-.15.36-.32.77-.55,1.24a3.52,3.52,0,0,0-.38,1.82c0,.41,0,.41-.36.52a2,2,0,0,1-1.12,0,1.6,1.6,0,0,0-1.51.32,3,3,0,0,0-.86,1.33,2.7,2.7,0,0,1-.71,1.14,1.49,1.49,0,0,0-.33,1.74c.15.5.13.53-.1.66s-.58.29-.89.43c-1,.46-2.36,1-2.08,2.32a10.82,10.82,0,0,0,.36,1.16,6.72,6.72,0,0,1,.54,3.2,5.78,5.78,0,0,0,.11,2,4.13,4.13,0,0,1-.21,2.71l-.36,1a7.16,7.16,0,0,1-1.84,3.26c-1.2,1.06-2,2-.88,4l.25.46c.82,1.5,1.76,3.2,1.17,4.39-.22.44-.41.75-.57,1a3.57,3.57,0,0,0-.65,2.32c0,1.5,1.4,4.26,2.43,6.28l.73,1.47c.76,1.55,1.23,2.51,2,2.59,0,.1,0,.23,0,.34a6.85,6.85,0,0,0,.23,1.5,6.19,6.19,0,0,0,.82,1.59,7.33,7.33,0,0,1,1.49,5.1,18.46,18.46,0,0,0,.28,4.79,9,9,0,0,1,0,4.29,25.38,25.38,0,0,0-1,3.91,18.19,18.19,0,0,1-.67,2.69c-.25.64-.66,1.48-1.06,2.3a14.45,14.45,0,0,0-1.43,3.52c-.12,1.08-1.37,4.29-2.9,5.35l-.51.38-.1.08c-.3.23-.63.51-1,.8-1.8,1.47-4.81,3.93-6.16,3.59a8.12,8.12,0,0,0-1.81-.22,2.22,2.22,0,0,1-2.3-1.25l-.71-1.14a13,13,0,0,1-1.57-2.91c-.11-.3-.22-.63-.33-1a9.79,9.79,0,0,0-1.73-3.61,4.39,4.39,0,0,0-1-.65c-.93-.49-1.9-1-1.72-3.49a30,30,0,0,0-.09-5.09l0-.33c-.07-.88-.14-1.77-.14-2.91a18.83,18.83,0,0,1,.17-2.6,2.91,2.91,0,0,0-.37-2.32,8.1,8.1,0,0,1-.67-1.52,7.63,7.63,0,0,0-1.18-2.3,1.84,1.84,0,0,1-.45-1.59,6.09,6.09,0,0,0-.1-1.83,2.1,2.1,0,0,0-.89-1.44c-.2-.15-.32-.24,0-1.44a5,5,0,0,0,.22-2.2,2.72,2.72,0,0,1,.28-1.51c.23-.65.4-1,.53-1.36a4.61,4.61,0,0,0,.41-2.44c0-.73.08-.83.2-1,.3-.35.56-.75.7-2.23a3.1,3.1,0,0,0-.57-2.49c-.3-.42-.58-.81-.47-2.31l.08-1.06c.17-2.35.22-3.06,1.45-4.18a10.47,10.47,0,0,1,1.21-1c.84-.61,1.63-1.18,1.12-2.45a4.87,4.87,0,0,0-.66-1.06c-.62-.81-1.26-1.66-.74-4.09.65-3,.83-3.37,1.42-4.43.1-.18.22-.39.34-.62a4.4,4.4,0,0,0,.84-2.88v-.47a1.79,1.79,0,0,0-.78-1.48c.25-.09.46-.14.65-.19a2.41,2.41,0,0,0,1.59-1,3.14,3.14,0,0,0,.37-2,3.1,3.1,0,0,1,.29-1.78,1.67,1.67,0,0,1,.72-.63c.5-.27.88-.56.79-1.64a3.39,3.39,0,0,0-.35-1.23c-.12-.25-.13-.27.24-.75,1.21-1.54,1.65-2.27,1.28-2.79-.2-.29-.55-.36-1.05-.19a5,5,0,0,0-3.13,2.57,7.87,7.87,0,0,1-.79,1.16,6.4,6.4,0,0,0-1.19,2.15,5.27,5.27,0,0,1-1,1.66,2,2,0,0,0-.61,1.56,17.35,17.35,0,0,0,.41,1.83l-.6.06c-.35,0-.63,0-.86,0a2,2,0,0,0-2.12,1.25l-.52.84a10.18,10.18,0,0,0-1.21,2.37,2.56,2.56,0,0,1-.86,1.09,2.56,2.56,0,0,0-1,1.26,4.41,4.41,0,0,0-.13.81c0,.32-.08.76-.21.84s-.25.06-.59-.05a4.36,4.36,0,0,0-1.29-.17h-.1c.08-.41.39-1.31.55-1.78A20.06,20.06,0,0,1,651,151a8.34,8.34,0,0,0,.77-2.07,6,6,0,0,0,.17-1.74c0-.52,0-.54.83-.91a1.24,1.24,0,0,1,1.15.06,1,1,0,0,0,.91.07c.38-.22.53-.66.7-2.08.09-.7.13-1.27.16-1.76l0-.58c.07-1.33.08-1.73.83-2.4,1.38-1.24,2-2.84,3.25-6.71a9.57,9.57,0,0,1,1.91-3.92,5.65,5.65,0,0,0,.64-.9,5.88,5.88,0,0,0,.68-1.62c.1-.35.24-.85.53-1.71l.08-.25a2.44,2.44,0,0,0,.61,1.86,1,1,0,0,0,.93.13,2.56,2.56,0,0,0,1.51-1.24,10.59,10.59,0,0,1,1.17-1.48c1.37-1.49,2.08-1.66,2.33-1.67a.39.39,0,0,1,.31.13c.47.47.57.56-.15,1.39a8,8,0,0,1-1,.88c-.67.54-1.36,1.11-1.08,1.94l.06.17c.18.58.41,1.29,1.05,1.49a1.48,1.48,0,0,0,1.36-.39,21.82,21.82,0,0,0,2.7-2.93c.41-.5.76-.93,1-1.13l.2-.2a1,1,0,0,0,.41-.67c0-.15.11-.4.28-.87a2.56,2.56,0,0,0,.07-1.43,1.06,1.06,0,0,1,0-.37c0-.06.27-.26,1.52-.47A36.37,36.37,0,0,0,683,118.1l.31-.1a3.31,3.31,0,0,1,1.57-.11c.81.11,1.36.08,2.09-1.29.89-1.68.89-1.68,2.28-1.68.75,0,1.28,0,1.83.06s1.18.07,2.06.07a3.71,3.71,0,0,1,2.39.68c.22.13.45.27.73.42a9.85,9.85,0,0,1,1.57,1.19c1,.85,1.92,1.66,2.76,1.29a1.12,1.12,0,0,1,.28-.08.59.59,0,0,0,.59-.59,9.21,9.21,0,0,1,.32-1.33,3.39,3.39,0,0,1,2.28-2.3,1,1,0,0,1,.72,0l-.26.45c.08.41.26.42,1.41.49a9.19,9.19,0,0,0,3.69-.15c.66-.22,1.36,0,3.15-.24a19.6,19.6,0,0,0,2.59-.48l.18-.05c.4-.1.43-.1,1.08.23l.16.07a3.41,3.41,0,0,0,2.45.36,5.59,5.59,0,0,1,1,0,1.7,1.7,0,0,0,1.77-.7,5.32,5.32,0,0,1,.61-.56c.39-.32.79-.66.78-1.17a1.46,1.46,0,0,0-.68-1.06,14.65,14.65,0,0,0-2.21-1.43h0c-.51-.39-1.47-1-2.11-.75a.82.82,0,0,0-.5.69,2.51,2.51,0,0,0,.06,1c.06.29.07.34-.09.53s-.25.34-.35.48c-.28.38-.36.47-.55.51s-.36.14-.59.24c-.4.18-.94.44-1.17.25a.59.59,0,0,1-.28-.4,1.29,1.29,0,0,0-.51-.78,2.25,2.25,0,0,0-.88-.35c-.33-.07-.44-.1-.55-.28a1,1,0,0,1-.11-.47,1.75,1.75,0,0,0-1-1.51,3.3,3.3,0,0,0-1.08-.46c-.25-.06-.33-.07-.59-.45a5.32,5.32,0,0,0-.65-.73.67.67,0,0,1-.3-.66c0-1.06-.56-3.4-1.9-4.3a2.87,2.87,0,0,0-3.9.22,7,7,0,0,0-.55.73,4.43,4.43,0,0,1-.42.54l-.06-.07a3.63,3.63,0,0,1-.35-.67c-.14-.33-.28-.66-.66-.78a1.31,1.31,0,0,0-1.08.28,5.34,5.34,0,0,0-.71.53c-.24.21-.28.24-1.06.17-.57-.05-1,0-1.44,0a2.77,2.77,0,0,1-1.36-.17,1.07,1.07,0,0,0-.63-.1V103c0-1.33-.05-2.77-.09-3.81,0-.57,0-1,0-1.24a1.08,1.08,0,0,0-.29-.89c-.37-.31-.93-.28-2.62,0s-1.72.3-2.27.67a11.65,11.65,0,0,1-1.13.68,6.55,6.55,0,0,0-1.24.85c-.57.47-.83.68-3.28.51a12.43,12.43,0,0,0-4.82.36,4.92,4.92,0,0,1-.72.16,11.41,11.41,0,0,0-4.39,1.66,6.37,6.37,0,0,0-.86.8,2.71,2.71,0,0,1-1.45.93c-1.61.54-2.15.72-2.76,1.94a2.28,2.28,0,0,0-.15,1.32,1,1,0,0,0,0,.29,1.78,1.78,0,0,1-.84.06c-.71,0-1.36,0-1.93,0a4.37,4.37,0,0,1-2.6-.4.91.91,0,0,1-.34-.6,1,1,0,0,0-.5-.73c-.37-.18-.84-.09-1.86.37a14.89,14.89,0,0,0-1.67.86,1.76,1.76,0,0,1-1.78.27l-.76-.17c-1-.2-1-.21-1.56-.83-.3-.35-.6-.64-.93-1a21.06,21.06,0,0,1-2-2.26,6.64,6.64,0,0,0-3.45-2.74c-.16-.07-.2-.11-.19-.16-.05-.89-.75-1.05-2.71-1.05a11.24,11.24,0,0,1-2.88-.32,1.7,1.7,0,0,0-2,.47,4,4,0,0,0-.89,1.32c0,.09-.08.2-.18.22h-.32a2.2,2.2,0,0,0-2,.72c-.13.17-.27.41-.41.64l-.11.19s0-.07,0-.11a2.13,2.13,0,0,1,.21-1.53,2.26,2.26,0,0,0,0-2.22.47.47,0,0,0,0-.1,4.4,4.4,0,0,0,.93-1.08,7.66,7.66,0,0,0,1-2.1c.27-.79.46-1.36,2.12-2.71,2.53-2.08,2.81-2.58,3.15-3.43l.12-.29a1.59,1.59,0,0,1,.52,0,2.28,2.28,0,0,0,2.23-.63c.66-.75,1.34-1.6,1-2.32s-1.15-.72-1.77-.72h-.87a8.6,8.6,0,0,0-3.71.56c-.93.33-4.82,1.85-5.41,2.63a6,6,0,0,1-.62.54A5.07,5.07,0,0,0,634.11,91a2.43,2.43,0,0,1-.33.77,1.74,1.74,0,0,0-.15.26,3.48,3.48,0,0,0-1.2.45,5.61,5.61,0,0,0-3.08,2.85l-.12.2a9.4,9.4,0,0,0-.41.95A2.29,2.29,0,0,1,627,98.25a6.06,6.06,0,0,0-2.86,1.4c-.23.19-.48.39-.81.62s-.71.55-1.07.85a5,5,0,0,1-2.79,1.52,9,9,0,0,1-1.25-.1,4,4,0,0,0-4.21,1.67,5.43,5.43,0,0,1-1.65,1.48,4.75,4.75,0,0,0-1.39,1.15c-.44.49-.82.92-2.79,1.53s-2.27,1.14-2.52,1.49l-.09.11a2.39,2.39,0,0,1-.92-.06,16.6,16.6,0,0,1-3.35-.86l-.46-.16a1.81,1.81,0,0,1-.41-.23c-.55-.38-1-.47-1.86.17a8,8,0,0,1-1.9,1.12,13,13,0,0,1,1.1-3.23,3.67,3.67,0,0,1,.74-1.09c.51-.56.73-1,.46-2.2-.3-1.4-.68-2.13-1.25-2.38a1.11,1.11,0,0,0-1,.11,10.8,10.8,0,0,1-1.29.53,14.1,14.1,0,0,0-2.35,1,5.84,5.84,0,0,1-1,.46,9.76,9.76,0,0,0-2.82,1.65,6.72,6.72,0,0,1-3.26,1.57c-.33.08-.69.16-1.1.28a2.72,2.72,0,0,0-1.52,1.11c-.44.54-.78,1-2.68.69a10.64,10.64,0,0,0-3.25,0l-.17,0,.07-.3.09-.29c.36-1.29.36-1.29,1.89-2.3l.15-.11c1.87-1.24,7.47-6.12,9-8.85a18.67,18.67,0,0,1,4.45-5.71A25.36,25.36,0,0,0,595,88.61a5.35,5.35,0,0,1,2.46-2.09,14.49,14.49,0,0,0,3.7-2,23.71,23.71,0,0,1,2.61-1.61,13.72,13.72,0,0,1,2.59-.91,12.29,12.29,0,0,0,3.82-1.59c.91-.63,1.76-1.11,2.51-1.53a14.17,14.17,0,0,0,2.46-1.62c1.44-1.27.94-2.21.88-2.31l-.51-.24s-2.46.39-3.61.52a7.18,7.18,0,0,0-.74.12c-.51.11-.61.13-1.2-.39a7,7,0,0,1-.67-.73c-.79-1-1.88-2.29-4.07-1.71l-1.62.44a12.87,12.87,0,0,1-3.69.71,3.92,3.92,0,0,0-1.78.45c-.45.22-.45.22-.66-.1-1.28-1.93-2.27-3.1-3.22-2.94A8,8,0,0,0,592,72.45c-1.76,1.31-5,3.74-6.32,3.51-3.32-.59-4.39-1.39-4.7-2l-.25-.45a1.72,1.72,0,0,0-1-1l-.28-.16a38.44,38.44,0,0,1-3.31-2.17l-.2-.15a2.76,2.76,0,0,0-3-.71,1.58,1.58,0,0,0-1.13,1.49c-.06.45-.09.52-.38.57-1.16.23-2.28-1.39-2.71-2.1a4,4,0,0,0-2-2l-.25-.14a2.47,2.47,0,0,1-.78-1.1A3,3,0,0,0,563.23,64a7.28,7.28,0,0,1-2.17-.51A7.36,7.36,0,0,0,558,63a13.67,13.67,0,0,0-5.56,1.51,5.79,5.79,0,0,0-.65.54,2.54,2.54,0,0,1-2.34.95,3.89,3.89,0,0,0-1.64-.06c-.4.07-.56.09-1.14-.37l-.47-.39c-1-.8-1.33-1-3.81-1.27a8.41,8.41,0,0,1-3.24-1.06,6.29,6.29,0,0,0-2.9-.89c-.53,0-1,0-1.36.08-1,.1-1.25.12-1.68-.82a7.59,7.59,0,0,1-.62-2.21,12.36,12.36,0,0,0-.53-2.16,12.67,12.67,0,0,1-.62-2.34c-.09-.49-.19-1-.4-1.89a9.55,9.55,0,0,1-.19-2c0-1.44-.06-3.08-1.72-3.52a17.8,17.8,0,0,0-4.69-.4l-.48.49c-.05,3.57-.21,7.51-.39,8.59-2.18.07-14.36.42-33.44.36-24.61-.08-63.43-.88-108.66-4.23-22.85-1.69-45.3-3.88-66.73-6.51-38.34-4.7-80.14-11.53-124.26-20.31q-8.34-1.66-16.24-3.3C125.47,11.65,88.83,2.16,85,.7c-2.2-.83-3.29-.91-3.75-.3-.6.79.34,2.06,1.43,3.54a10.53,10.53,0,0,1,1,1.46,5,5,0,0,0,1.12,1.53,1.92,1.92,0,0,1,.76,1.59,5.9,5.9,0,0,1-.24,2.36l-.09.3a3.68,3.68,0,0,0,.1,1.78,3.39,3.39,0,0,1,.13.8.56.56,0,0,1-.27,0,3.88,3.88,0,0,1-1.68-.68c-.52-.32-.93-.56-1.3-.25s-.19.82.07,1.44a8,8,0,0,0,1.15,1.93,2.57,2.57,0,0,1,.73,1.9,17.47,17.47,0,0,0,.72,5.21,4.15,4.15,0,0,1-.62,3.95,4.65,4.65,0,0,1-.9.87,3.52,3.52,0,0,0-1.64,3.1,7.81,7.81,0,0,1-.4,3.35l-.11.35a8.92,8.92,0,0,0-.27,2.18c0,1.14-.08,2.12-.78,2.64l-.6.47a10.68,10.68,0,0,1-4.3,2.25,11.72,11.72,0,0,1-2.63.49,13.86,13.86,0,0,0-1.7.2,11.25,11.25,0,0,1-2.3.22A3.79,3.79,0,0,1,69,43c.81-.67,1.52-1.17,2.15-1.61a9.43,9.43,0,0,0,2-1.62v0a1.76,1.76,0,0,1-.16.89c-.24.43-.33.66-.17.91l.46.23c.32,0,.42-.24.61-.69a3.25,3.25,0,0,1,.88-1h0a1,1,0,0,0,1.19.61l.35,0c1.13-.13,1.52-.51,2-2.8.16-.82.31-1.3.4-1.62a1.22,1.22,0,0,0-.32-1.55l-.19-.22c-.16-.2-.64-.78-.69-.87a2,2,0,0,1,.18-.12.71.71,0,0,1,.29-.07c.7,0,.82-.55,1-1.49a2.19,2.19,0,0,0,0-.89c.18-.12.43-.29.8-.56,1.6-1.17,2.33-2.12,2.17-2.83a.89.89,0,0,0-.79-.69c-1.19-.24-2.06.34-3.08,1.36a6.41,6.41,0,0,0-1,1.44,2.3,2.3,0,0,1-.93,1.09,32.18,32.18,0,0,1-3.12,1.38c-.55.22-1,.43-1.49.66.12-.11.26-.21.39-.31a32.88,32.88,0,0,0,3-2.3c.39.26.85-.07,1.41-.52,1.75-1.4,2.82-2.41,2.82-4.59,0-1.08-.06-1.9-.11-2.61S79,21.48,79,20.94c0-.34,0-.81-.41-1s-.66.18-.87.43a2.89,2.89,0,0,1-.84.78c-.62.31-.62.31-1.18-.4l-.13-.17a3.21,3.21,0,0,0-1.1-.83c-.46-.24-.54-.31-.54-.61a1.34,1.34,0,0,0-.29-1.05,1.13,1.13,0,0,0-.94-.18c-.42,0-1.2.05-1.74.13-.78.1-1,.11-1.34-.26l-.15-.19c-.47-.6-.61-.64-1.95-1l-1.82-.53c-3.84-1.15-7.18-2.91-8.7-4.58A33.23,33.23,0,0,0,53.49,8.1l-.36-.31A12.1,12.1,0,0,0,50.26,6l-.67.61c.19.58.53,2.28-.18,3.16A8.37,8.37,0,0,0,47.23,15c0,1.89,1,4.1,1.77,5.88l.35.8a4.83,4.83,0,0,1-.11,3,14.43,14.43,0,0,0-.45,3.34,50.12,50.12,0,0,1,.51,5.54c0,.76.07,1.46.13,2.08a7,7,0,0,1-.1,3,11.3,11.3,0,0,1-.52,1.27c-.26.57-.44,1-.21,1.31a.77.77,0,0,0,.69.32,1.13,1.13,0,0,0,.9-.53s.11-.13.1-.14.16,0,.57.37a11.89,11.89,0,0,0,1.51,1.09c.26.17.59.38.78.53-.38.18-.74.38-1,.56a2.75,2.75,0,0,1-1.69.58,1.55,1.55,0,0,1-.68-.33.77.77,0,0,0-.79-.21c-.38.16-.44.61-.49,1s-.09.47-.15.71c-.21.92-.51,2.19.93,2.91a9.63,9.63,0,0,0,1.55.58,3,3,0,0,1,1.1.47,2.8,2.8,0,0,0-.85.55c-.29.25-.51.41-.67.54-.67.5-.71.67-.71,1.56a3.84,3.84,0,0,1-.22,1.1,2.21,2.21,0,0,0-.08,1.71s0,.12-.15.23-.29.19-.28.16a28.53,28.53,0,0,1,0-4l-.85-.38a5.19,5.19,0,0,0-1.35,2.88c0,.37-.08.7-.1,1a6.1,6.1,0,0,1-.37,2,1.69,1.69,0,0,1-.54.47c-.3.2-.64.42-.68.82a.86.86,0,0,0,.27.67c.21.2,2,2,3.57,2.21.66.09,1.09,0,1.31-.5,0-.07,0-.13.3-.21.84-.28,1.16-.18,1.91.57a1.89,1.89,0,0,0,1.26.61c.3,0,.52.06,1,.57a12.44,12.44,0,0,0,.9.94,7.89,7.89,0,0,0-1.77-.71,11.19,11.19,0,0,0-1.57-.35,9.62,9.62,0,0,1-1.36-.34,10.35,10.35,0,0,0-3-.53A1.84,1.84,0,0,0,46.38,62a6,6,0,0,0-.1.89,3.28,3.28,0,0,1-.49,1.83,7.41,7.41,0,0,1-.61.64A3.07,3.07,0,0,0,44,67.64c0,.4,0,.84-.08,1.27A4,4,0,0,0,44,71.2l.15.21c.36.5.42.66.21.94a2.85,2.85,0,0,1-.6.54,2.27,2.27,0,0,0-1,1.39,3.57,3.57,0,0,0,.14,1.45,4.08,4.08,0,0,1,.12.61c-.87.31-1.38,1.66-2,3.22A19,19,0,0,0,40,83.11a5.6,5.6,0,0,1-1,2.57,24.46,24.46,0,0,0-2,3.54,11,11,0,0,1-.56,1A8.85,8.85,0,0,0,35,94.07a3,3,0,0,1-.57,1.7,3.83,3.83,0,0,0-.63,1.51c0,.32-.08.71-.11,1.13a7.82,7.82,0,0,1-.65,3.12,26,26,0,0,0-2.67,5c-.17.47-.44,1.31-.74,2.3a34.76,34.76,0,0,1-1.8,5l-.32.47c-.84,1.22-1.35,2-1.13,2.59a.74.74,0,0,0,.54.46l.11,0a2.64,2.64,0,0,0-.59.27A10.51,10.51,0,0,0,23.9,121l-.27.45c-.12.2-.26.41-.41.63-.47.7-.83,1.23-.74,1.67a.42.42,0,0,0-.14.06,1,1,0,0,0-.49.71l-.11.41a1.08,1.08,0,0,0-.78-.52.79.79,0,0,0-.8.53,13,13,0,0,0-.56,1.64A18.66,18.66,0,0,1,18,130.73c-.26.3-.6.65-1,1a8.53,8.53,0,0,0-2.24,3,21.06,21.06,0,0,0,0,5.06c.06.78.11,1.46.11,1.81a2.79,2.79,0,0,1-.4,1.46,5.8,5.8,0,0,0-.43,1,11.07,11.07,0,0,1-.49,1.1,5.72,5.72,0,0,0-.75,2.34,6.35,6.35,0,0,1-.18,1.16,6.48,6.48,0,0,0-.15,2.92c.1.49.16,1,.23,1.59a8.35,8.35,0,0,0,.74,3.14,1.49,1.49,0,0,0,.14.29c.9,1.26,1,1.52.65,2.25a9,9,0,0,1-.86,1.23c-.67.84-1.24,1.57-1.07,2.23a4.16,4.16,0,0,0,.34.83,5.47,5.47,0,0,1,.68,2.5A27.61,27.61,0,0,1,13,169a15.2,15.2,0,0,0-.18,1.57,14.23,14.23,0,0,1-1.64,4c-.14.21-.31.43-.48.66a5.89,5.89,0,0,0-1.51,3.42,5.21,5.21,0,0,1-.93,3.32A5.88,5.88,0,0,0,7,185.12c0,.16-.5.47-.87.7a8.51,8.51,0,0,0-1.19.82,12.53,12.53,0,0,0-2.07,2.6,13.25,13.25,0,0,1-.77,1.1c-.7.88-1.86,2.58-1.66,4a2.51,2.51,0,0,1-.19,1.17,2.31,2.31,0,0,0,.11,2.17,25.38,25.38,0,0,1,2.35,4,3.16,3.16,0,0,1,.17.81,5.25,5.25,0,0,0,.54,1.83,9.58,9.58,0,0,0,.83,1.49,3.49,3.49,0,0,1,.69,1.65,4.72,4.72,0,0,0,.58,1.67c.28.55.42.86.3,1.22a7.9,7.9,0,0,0,.19,3,9.67,9.67,0,0,1,.23,2.53,3.82,3.82,0,0,1-.64.59,4.67,4.67,0,0,0-1.86,2.54,36.49,36.49,0,0,0-.2,6.21c0,.47,0,.88,0,1.16a6.77,6.77,0,0,0,.16,1.36c.14.8.17,1.11-.15,1.36-.15.12-.29.21-.42.3-.77.52-1.26,1-.58,2.53l.76,1.77c.58,1.38,1.25,2.95,1.84,4.13a20,20,0,0,1,1,2.61,10.5,10.5,0,0,0,1.35,3.19l.22.26c.77.93,1.95,2.32,2.08,3.29a13.61,13.61,0,0,0,.9,3.22l.34.81c.11.25.27.61.41,1a.72.72,0,0,0-.48,0q-.48.19-.48,1a7,7,0,0,1-.94,3,.67.67,0,0,0-.12.79.62.62,0,0,0,.75.19c.42-.09.79-.13,1.1.3a7.46,7.46,0,0,0,1.23,1.3c.44.39.69.62.75.93a1.71,1.71,0,0,0,1,1.13,1.76,1.76,0,0,1,.92.87c.08.18.14.35.2.51.34.88.66,1.71,2.22,1.51s1.66-1.37,1.65-2.14v-.25c0-.23,0-.26.12-.37a1.57,1.57,0,0,0,.39-1.19,5.33,5.33,0,0,0,0-.56c-.05-1.12,0-1.46.62-1.53,1.44-.19,1.53-.09,1.72.38a3.94,3.94,0,0,0,1.05,1.35,2.56,2.56,0,0,0-2.28.31,2.22,2.22,0,0,0-.87,2.57,7.11,7.11,0,0,1,.09,1.06,5.78,5.78,0,0,0,.49,2.55l.36.57c.53.85,1.64,2.61,1.64,3.32a7.13,7.13,0,0,1-.07.87,4.36,4.36,0,0,0,.09,2l.05.18c.09.28.19.66.25.93a20.07,20.07,0,0,1-3.71-4.09l-.14-.26c-.45-.75-.95-1.6-1.69-1.79a1.16,1.16,0,0,0-.92.15,2.26,2.26,0,0,0-1.26,2.83c.07.2.15.42.25.64a5.5,5.5,0,0,1,.43,3.61,9.46,9.46,0,0,1-.49,1.88,5.79,5.79,0,0,0,.24,4.53c.48.9,1.1,1.91,1.65,2.81.33.53.62,1,.81,1.35a4.26,4.26,0,0,0,3.1,2.06,4.72,4.72,0,0,0,1.16,0c.64-.08.65-.06.76.24a9.1,9.1,0,0,1,.63,4A2.55,2.55,0,0,1,23,293c-.13.17-.28.35-.44.6a3.35,3.35,0,0,1-1.31.92,8.45,8.45,0,0,0-.89.49l-.14.09c-.91.6-1.5,1.17-1.38,3.46a12.81,12.81,0,0,1-.05,2,4.38,4.38,0,0,0,.52,3c.27.43.63.95,1,1.51a17.91,17.91,0,0,1,1.9,3.1,5.45,5.45,0,0,0,1.35,2.9,2.56,2.56,0,0,1,.72,2.13,4,4,0,0,0,.88,3.36,7.15,7.15,0,0,1,1.19,3.71c0,.94.92,1.49,1.65,1.94a4.62,4.62,0,0,1,.61.39,2.51,2.51,0,0,1,.54,1.39,6.06,6.06,0,0,0,.21.84A8.82,8.82,0,0,0,30.82,327a12.38,12.38,0,0,1,1,1.44l.07.12c.86,1.71.76,2.12.62,2.22a2,2,0,0,0-.69,2.84,3,3,0,0,0,1.4,1.39,5.68,5.68,0,0,1,.68.45,4.57,4.57,0,0,0,.36.29c.61.46.89.67.64,1.67a3.32,3.32,0,0,1-.63,1.34,1.73,1.73,0,0,0-.43,1.11A6.51,6.51,0,0,0,34,341c.12.65.31,1.64.07,2a.92.92,0,0,1-.4.33c-.47.23-.72.52-.72,1.37v.5a3.79,3.79,0,0,1-.44,2.34l-.09.14c-.61,1-1.13,1.79-.1,2.81a9.15,9.15,0,0,1,.65.79,6.83,6.83,0,0,0,2.18,2,5.27,5.27,0,0,0,2.42.48,5.43,5.43,0,0,1,2.63.55,13.93,13.93,0,0,0,2.35,1,8,8,0,0,1,2.25,1.12,6.79,6.79,0,0,0,4.33,1.93,3.44,3.44,0,0,1,3.14,1.27c1.26,1.26,2.09,2.09,2.76,2.63a2.7,2.7,0,0,1,1.12,1.76,2.84,2.84,0,0,1,0,.41c0,.91.13,1.69,2.26,3.29,3.13,2.34,5.54,3.6,7.36,3.85a14.59,14.59,0,0,0,1.93.09c1.11,0,2,0,2.57.54.94.95,1,1.29.78,2.26-.34,1.52-1,5.12.08,5.84a1.28,1.28,0,0,0,1.37.24,2.65,2.65,0,0,1,.65-.16,3.06,3.06,0,0,1,3.12,1.41,19.25,19.25,0,0,0,3.89,4.57c.28.24,1.31,1.4,5,6.51A18.26,18.26,0,0,1,88.05,401a36.61,36.61,0,0,1-.37,6.22,4.56,4.56,0,0,1-.28.71c-.26.55-.58,1.25,0,1.85a.79.79,0,0,0,.65.27.68.68,0,0,0,.41-.24c.36.37.34.7.27,1.47,0,.3,0,.63,0,1v2.07l.45.5,47.65,4.71-2.28,3.59.17.71,71,40.81,58.36,7.84.56-.41,1.74-10.43c3.39.34,24.34,2.43,31.6,3.65a11.79,11.79,0,0,1,2.29.49,16.57,16.57,0,0,1,4.75,5.87c.72,1.85,2.08,2.84,3.66,4,.54.39,1.1.8,1.67,1.26a36,36,0,0,1,4.58,4.91l.93,1.12a8.87,8.87,0,0,1,1.31,2.34,7.5,7.5,0,0,0,1.57,2.62,12.53,12.53,0,0,0,3,2.27l.67.39c1,.59,2.42,1.64,3.47,2.4l.77.56a4.69,4.69,0,0,1,1.77,2.23,5.41,5.41,0,0,0,1,1.52,4.8,4.8,0,0,1,.94,1.45,6.21,6.21,0,0,0,.48,1.12,10.88,10.88,0,0,1,.69,1.61c.2.56.47,1.17.75,1.82a12.2,12.2,0,0,1,1.29,4.1c0,.64-.05,1.13-.09,1.61a6.78,6.78,0,0,0,.11,2.66,72,72,0,0,0,3,8c.12.23.22.45.32.67a5.24,5.24,0,0,0,2.24,2.8,17.9,17.9,0,0,1,4.52,3.65,11.13,11.13,0,0,0,5.71,3.52c1.54.3,1.67.46,2.28,1.17l.3.35a4.8,4.8,0,0,0,2.05,1.2,5.52,5.52,0,0,1,1.75.92A9.47,9.47,0,0,1,357,535.4a5.94,5.94,0,0,0,1.58,1.62,8.2,8.2,0,0,0,4.13,1.62c1.17,0,2.94-1,5.25-3.11a21,21,0,0,0,3.08-3.87,12.27,12.27,0,0,0,.62-1.44,26.23,26.23,0,0,1,1.46-3.24c.3-.52.55-1.06.8-1.59a8.17,8.17,0,0,1,2.42-3.43,6.25,6.25,0,0,1,2.93-.93,4.57,4.57,0,0,0,2.14-.63,11.14,11.14,0,0,0,.84-.74c.72-.68,1.33-1.26,2.14-1.11a4.76,4.76,0,0,1,1.64.8,6,6,0,0,0,2.82,1.15,13.13,13.13,0,0,0,2.24-.11,5.39,5.39,0,0,1,3,.17c1.28.77,2.8,1.45,4.45.62,1.21-.61,1.77-.89,3,.92l.38.54a21.38,21.38,0,0,0,3.73,4.48c.5.42,1.08.83,1.64,1.22a10.32,10.32,0,0,1,2.4,2,14.68,14.68,0,0,0,2.83,2.79l.38.31c.74.62,4.15,4.94,4.89,7.9a34.16,34.16,0,0,0,2.65,6.58c.21.42.38.77.49,1a8.94,8.94,0,0,0,.63,1.12,5.81,5.81,0,0,1,1,2.4c.39,2,.93,4.65,2.56,6.69a6.53,6.53,0,0,0,2.57,2,2.18,2.18,0,0,1,1,.72,6.64,6.64,0,0,1,.57,1.46,6.25,6.25,0,0,0,1.31,2.64,15.54,15.54,0,0,1,3,4.4c.85,1.81,1.7,3.33,3.61,3.65s2.88.88,3,1.75a8.12,8.12,0,0,1,0,1.32,3.69,3.69,0,0,0,.35,2.38,2.14,2.14,0,0,1,.23,2.28,3.25,3.25,0,0,0,.22,2.35,5.19,5.19,0,0,1,.27.9,2.43,2.43,0,0,1-.09.77,3.51,3.51,0,0,0,.26,2.62,28.82,28.82,0,0,0,2.37,3.72l.49.67c.66.92,2,2.82,2.15,3.86,0,.28,0,.57.06.85a7.39,7.39,0,0,0,.77,3.36,3,3,0,0,1,.35,1.48,1.79,1.79,0,0,0,.71,1.66,4.63,4.63,0,0,0,2.36.55,8.76,8.76,0,0,1,2.41.42,9.24,9.24,0,0,1,2.54,1.67,12.9,12.9,0,0,0,1.53,1.14,7.71,7.71,0,0,0,4.28,1c1,0,1.77.67,2.7,1.52l.63.57a5.85,5.85,0,0,0,4.44,1.93c.64,0,1.32,0,2-.07a24.85,24.85,0,0,1,5.66.19,7.78,7.78,0,0,1,4.45,2.19l.5.42c.34.29.7.63,1.06,1,1.11,1,2.16,2,3.14,2h.07a1.34,1.34,0,0,0,1-.48,5.28,5.28,0,0,1,2.5-1.93c.94-.31,1.93-1.27,1.76-2a.77.77,0,0,0-.95-.53l-.13,0c-.34,0-1.35.19-1.5,0a.36.36,0,0,1,0-.12,2.07,2.07,0,0,1,.28-.78,1.59,1.59,0,0,0,0-1.74,58,58,0,0,1-3.06-7.14,23.78,23.78,0,0,1-1.15-6c0-2,0-2.1-.87-3.28a4.12,4.12,0,0,1-.67-1.08l.44-.22-.09-.58a2.55,2.55,0,0,1-.37-1c-.17-.7-.08-.75.24-.95a2.26,2.26,0,0,0,.88-.91c.15-.3.27-.5.36-.66a3,3,0,0,0,.47-1.45c0-.28.07-.52.1-.74a11.56,11.56,0,0,0,.16-1.91,1.49,1.49,0,0,0-.46-1.18,1.36,1.36,0,0,0-.58-.31,3.26,3.26,0,0,0,.55-.29,5.2,5.2,0,0,1,.62-.34,2.71,2.71,0,0,0,1.51-1.69,28,28,0,0,0,1.28-4.78c.11-.52.21-1,.31-1.41.27-1.19.1-1.55-.43-1.95a1.75,1.75,0,0,1-.53-.61,9.23,9.23,0,0,0-1.77-2.19l-.26-.25a3.47,3.47,0,0,0-.29-.25l.4-.07c.42-.05.79-.11,1.13-.17,1.23-.21,1.54-.22,1.75.09a4.46,4.46,0,0,1,.33.6c.21.44.41.86.87.88s.72-.44.82-.61a9.67,9.67,0,0,1,1-1.28,14.93,14.93,0,0,0,2.08-2.74c.3-.55.63-1,.9-1.44.51-.75.82-1.2.58-1.64a.75.75,0,0,0-.75-.38,2.49,2.49,0,0,0-2.36,1.26,4.47,4.47,0,0,0-.42.81l0,0a2.45,2.45,0,0,1-.2-1.8,2.68,2.68,0,0,1,.08-.42,2,2,0,0,1,.33-.07c.18,0,.39-.06.64-.12a2.11,2.11,0,0,1,1.24-.08l.51.09a3.72,3.72,0,0,0,.95,0c.52-.05.52,0,.58.17s-.25.9-.6,1.44a5.92,5.92,0,0,0-.68,1.23c-.42,1.12-.6,1.93-.21,2.52a.68.68,0,0,0,.53.3c.57,0,1.09-.59,2.36-2.21l.42-.54a2.92,2.92,0,0,0,1-2.24.78.78,0,0,0,.42.33c.47.17,1-.1,2-1a17.18,17.18,0,0,1,4.14-2.63,4.45,4.45,0,0,1,.86-.23c.8-.17,1.91-.4,1.91-1.53a7.49,7.49,0,0,1,.1-1c.11-.74.19-1.28-.19-1.58a.72.72,0,0,0-.18-.1.81.81,0,0,0,0-.16,1.77,1.77,0,0,0-.72-1.26,3.78,3.78,0,0,0-2.31-.93,2,2,0,0,0-.46-1.5,3.81,3.81,0,0,1-1-1.67,6.45,6.45,0,0,0,1,1.07c.27.24.47.44.64.6.58.58,1,1,2,.52a2.69,2.69,0,0,1,.61-.14,1.18,1.18,0,0,0,1-.49,1.09,1.09,0,0,0,.08-.8,1.23,1.23,0,0,0,.35.05,3,3,0,0,0,2-.51l0,0a2.36,2.36,0,0,0,1.05.95,3.5,3.5,0,0,0,2.37.16l.15,0a7.47,7.47,0,0,1-1.23.86,3.17,3.17,0,0,0-1.29,1.05.58.58,0,0,0,.12.7c.75.68,4.18-1.2,4.22-1.22.55-.33,1.26-.69,2-1a15.36,15.36,0,0,0,2.12-1.2.6.6,0,0,0,.26-.69c-.13-.41-.55-.43-1-.45l-.4,0c.54-.84.8-.93,1.56-.93.21,0,.41,0,.63,0a4.78,4.78,0,0,0,3.67-.9l2.56-1.74,1.45-1c.33-.21.69-.41,1-.61a5.75,5.75,0,0,0,2.48-2,4.78,4.78,0,0,1,.66-.89,2.6,2.6,0,0,0,.83-2,4.32,4.32,0,0,0-.17-1.19l0-.11.1,0a4.39,4.39,0,0,0,2.74-2L537,536c.61-.92.72-1.09,1.32-1.39l.3-.14a1.58,1.58,0,0,0,1.14-1.73,1.06,1.06,0,0,0-.78-1.14c-.21-.08-.31-.12-.39-.51a5.32,5.32,0,0,0-1.17-2.85c-.27-.27-.27-.6-.26-1.26,0-.15,0-.3,0-.46a2.93,2.93,0,0,0-.41-1.27,3,3,0,0,1-.15-.31c.31,0,.68.24,1,.5a1.72,1.72,0,0,0,1.23.53,1.05,1.05,0,0,0,.68-.46c.42-.59,1.55-2.16,2.14-2.25a.79.79,0,0,1,.67.26,1.21,1.21,0,0,1,.19,1.18,7,7,0,0,1-.94,1.75c-.5.76-.86,1.31-.75,1.82a.81.81,0,0,0,.36.49,3,3,0,0,0,2.81.15l.43-.18a22.9,22.9,0,0,1-2.14,2.2l-.5.41a3,3,0,0,0-1.2,1.61c-.05.14-.12.31-.19.48-.43,1.05-.69,1.68-.18,2s.95-.1,2.13-1.46c2.8-3.25,4.45-4.25,5.33-4.51a30.44,30.44,0,0,0,3.86-1.89c1.18-.64,2.41-1.29,3.19-1.63a7.41,7.41,0,0,1,3.82-.74H559a3.08,3.08,0,0,0,2.49-.67.83.83,0,0,0,.16-.13c.6-.61,2.81-1.27,5.14-1.54.69-.08,1.29-.13,1.8-.16,1.22-.09,2-.15,2.52-.63a.68.68,0,0,0,.23-.66.62.62,0,0,0-.5-.42h-.06a1.55,1.55,0,0,1,.18-.77,10.83,10.83,0,0,1,.62-1.35,2.23,2.23,0,0,0,.32-1.42,7.49,7.49,0,0,0-.12-1.18c0-.11,0-.23,0-.34,1.28.79,1.74,1.26,1.3,2.06a2.65,2.65,0,0,1-1,1,1.18,1.18,0,0,0-.63,1.42,2.76,2.76,0,0,1,.07.53c0,.86.44,1.13,1.57,1.13a10.22,10.22,0,0,1,4.82,1l.85.47a17.11,17.11,0,0,0,5.66,2.3c1.19.19,2.28.26,3.23.33a16.36,16.36,0,0,1,2.82.32c.42.09.83.21,1.22.33,1.27.37,2.48.73,3.44.12a3,3,0,0,0,.76-.65c.14-.17.21-.24,1.09-.31a1.67,1.67,0,0,0,1.4-.69c.35-.65-.08-1.43-.54-2.25l-.08-.13a2.88,2.88,0,0,0-1-1l.24-.11,1.06-.5a16.52,16.52,0,0,1,3.49-1.41s0,.1,0,.14a1.44,1.44,0,0,0,1.37,1.55,10,10,0,0,0,2.31,0,4.38,4.38,0,0,1,1.72.07c.81.34.91.49,1,1a1.38,1.38,0,0,0,.57.94.39.39,0,0,1,.2.41c0,1.12.28,1.75,1.74,1.92a1.71,1.71,0,0,1,.88.41,2.1,2.1,0,0,0,1.86.49,2,2,0,0,1,.74,0,.92.92,0,0,0,.64-.12l.05.07.37.59c.5.81.64,1,1.28,1.3a1.88,1.88,0,0,0-.23.16,1.68,1.68,0,0,1-.45.15,1.46,1.46,0,0,0-1.08.65,1.31,1.31,0,0,0,.07,1.1c.53,1.18,1.18,2.66,2.84,2.49a4.8,4.8,0,0,0,1-.2c.27-.08.3-.09.78.15a2.23,2.23,0,0,0,1.66.18,1.07,1.07,0,0,1,.61,0,2.24,2.24,0,0,1,.68.52,2.81,2.81,0,0,0,1.62.93,1.76,1.76,0,0,0,1.3-.36.59.59,0,0,1,.76-.07l.67.31a3.21,3.21,0,0,0,2.08.5c1-.17,1.08-1,1.14-2,0-.2,0-.44,0-.7s0-.42.05-.61c.07-1,.1-1,.5-1.15a3.66,3.66,0,0,1,.82-.13,2.74,2.74,0,0,0,1.52-.46l.41-.29.13-.09v0c.11.81.22,1.65,1.71,1.46a2.63,2.63,0,0,0,1.07-.38s.12-.07.1-.08a1,1,0,0,1,.14.09l.18.15c.41.32.41.32.41.89a2.94,2.94,0,0,1-.2.79c-.19.6-.39,1.22,0,1.68a1.28,1.28,0,0,0,1.14.36c1.62-.13,4.35-1.76,4.35-2.83a1.56,1.56,0,0,0-.67-1.1c-.11-.1-.33-.3-.32-.44a1.9,1.9,0,0,1,.47-.47,1.46,1.46,0,0,0,.65-1.55,5.34,5.34,0,0,0-2.48-3.5c-.83-.41-1.26-.7-1.25-.92.31-.39,1.27.07,1.82.38a9.6,9.6,0,0,0,3.43,1.36l.21,0a3.28,3.28,0,0,1,2.14.79l.54.39c.21.15.47.33.64.47-.75.36-.74.83-.7,1,.1.51.7.8,1.63.8a4.42,4.42,0,0,0,1.17-.18.77.77,0,0,0,.25-.09.34.34,0,0,1,.08.12,2.17,2.17,0,0,1,.15.42c.22.71.56.92,1.67,1l.76.06c1,.06,1.27.11,1.43.45a1.94,1.94,0,0,1,.17.55,1.78,1.78,0,0,0,1.24,1.49,7.61,7.61,0,0,0,.92.33l.32.1a2.15,2.15,0,0,1-.07.24c-.43,1.13-.44,1.74,0,2s.7.17,1.18-.17a3.29,3.29,0,0,0,1-1.32,3.59,3.59,0,0,1,.17-.34,1.33,1.33,0,0,1,.29.58,1.13,1.13,0,0,0,1.51.9,2.57,2.57,0,0,0,1.94-2.49.62.62,0,0,1,.31-.54,3.47,3.47,0,0,0,.77-.8,1.43,1.43,0,0,0,.34-1c-.07-.42-.4-.65-.76-.89-.16-.12-.36-.25-.57-.43a1.45,1.45,0,0,1-.44-.68,2.07,2.07,0,0,0-1.54-1.36,7,7,0,0,0-1.93-.35,3.52,3.52,0,0,1-1.39-.28,2.81,2.81,0,0,1-.74-.46,1.92,1.92,0,0,0-1.54-.49,2.67,2.67,0,0,0-1.36.37c-.06,0-.13.06-.12.09a1,1,0,0,1-.17-.23c-.16-.26-.27-.48-.37-.68a2,2,0,0,0-1.63-1.35,5.88,5.88,0,0,0-1.3-.1c-.92,0-1-.07-1-.25a5.69,5.69,0,0,0-.19-.86c-.21-.82-.16-.84.13-1a2.42,2.42,0,0,1,1.08,0,1.73,1.73,0,0,0,1.89-.69,3.5,3.5,0,0,1,.26-.38.68.68,0,0,0,.11-.72,4.29,4.29,0,0,1-.18-.67,7.8,7.8,0,0,0-.31-1.06,3.22,3.22,0,0,1-.16-.48.64.64,0,0,1,.18-.1c.19-.08.24-.09.25-.08a2.62,2.62,0,0,0,1.69.11,2.12,2.12,0,0,0,1.89-1.41,2,2,0,0,0-.44-2,3.22,3.22,0,0,0-.75-.55c-.39-.22-.53-.3-.53-.79a6.67,6.67,0,0,1,.12-.95c.12-.65.24-1.26-.16-1.65a1.19,1.19,0,0,0-1.07-.22c-1.19.24-2.21.52-2.58,1.63a3.54,3.54,0,0,0-.08,1.25c0,.4,0,1.08-.12,1.23s-.05,0-.1,0c-1.24,0-1.56-.18-1.78-.54a1.59,1.59,0,0,0-1.42-.67,1.53,1.53,0,0,1-.69-.15l-.38-.2-.21-.1a3.07,3.07,0,0,1,.36-.29,8,8,0,0,1,1.3-.7,2.75,2.75,0,0,0,1.73-1.47,2,2,0,0,0,.16-1.41,4.84,4.84,0,0,0,.84-.24,3.69,3.69,0,0,1,.66-.18,1.85,1.85,0,0,1,.41,0,1.93,1.93,0,0,0,1.35-.39,2.14,2.14,0,0,0,1-1.06,1.53,1.53,0,0,1,.51-.66,2.88,2.88,0,0,0,.83-1.24A1.14,1.14,0,0,1,655,504a3.7,3.7,0,0,1,1.79-.29,11.3,11.3,0,0,0,1.28-.05,3.13,3.13,0,0,0,1.66-.58,8.88,8.88,0,0,1,1.2-.62c.52-.22.85-.4,1.11-.53a2.39,2.39,0,0,1,1.55-.34h.65a2.32,2.32,0,0,1,1.48.37l.26.11c.32.15.57.28.79.4a2,2,0,0,0,2.23.11l.48-.25c.49-.26.49-.26,1.26-.09a.68.68,0,0,1,.47.32.88.88,0,0,0,.62.41c.38.05.74-.21,1.3-.72a5.71,5.71,0,0,0,1-1.17c.17-.26.17-.26.86-.26s.69.08.81.17a2.28,2.28,0,0,0,1.49.48,11.49,11.49,0,0,0,2.58,0l.4-.64a28,28,0,0,1-.51-2.78,3,3,0,0,1,.15-2.14,3.62,3.62,0,0,0,.38-1.37,10.54,10.54,0,0,0,0-1.25,9.3,9.3,0,0,1,0-.94.49.49,0,0,1,.25,0l.82.22c.92.22,1.37.36,1.58.9a2.87,2.87,0,0,1,0,2.35,3.67,3.67,0,0,0-.06,2.66,1.73,1.73,0,0,0,1,1,9.72,9.72,0,0,0,1,.3c.5.14,1.8.5,1.8.79a3.8,3.8,0,0,0,0,.52c0,.46,0,.48-.7.68-.46.13-1,.23-1.55.32-1.24.22-1.81.31-1.87.84,0,.21,0,.5.5.69a6.07,6.07,0,0,0,3.65.16,6.54,6.54,0,0,1,1.16-.06c.94,0,2,0,2.46-1.29a4.6,4.6,0,0,0,.28-1.39c0-.42,0-.42.4-.5a1.29,1.29,0,0,1,.69,0,1,1,0,0,0,.74,0,1.48,1.48,0,0,0,.78.42,3,3,0,0,1,.64.26c.48.25.69.13,1.21-.16l.48-.27a7.68,7.68,0,0,0,3-2.44.44.44,0,0,0,0,.2c.09.56.76.51,1.08.49s.75,0,1-.05a8.58,8.58,0,0,0,3.11-.62c.76-.26,1.45-.53,2.08-.78a9.34,9.34,0,0,1,3.2-.88,6.51,6.51,0,0,1,1.22.12,1.3,1.3,0,0,0,1.51-.44,7.56,7.56,0,0,0,.54-.9c.24-.43.85-1.55,1.15-1.57a1.84,1.84,0,0,1,.59.65c.2.3.43.65.84.69a1.12,1.12,0,0,0,.86-.39,6,6,0,0,0,.42-.48c.4-.52.6-.78,2.15-.18a13.21,13.21,0,0,1,1.87.86,3.09,3.09,0,0,1-.88-.24,2.25,2.25,0,0,0-1.76-.13,3.15,3.15,0,0,0-.87.43,1.36,1.36,0,0,1-.52.21,6.14,6.14,0,0,1-1.15.12c-.53,0-1,0-1,.48s.36.63.57.72a7.87,7.87,0,0,0,2.3.37,10.37,10.37,0,0,1,2.14.3,6.7,6.7,0,0,0,1.78.24,3.93,3.93,0,0,1,1.87.36c.47.29,1.2.63,2,1a19,19,0,0,1,2.66,1.42,8.24,8.24,0,0,1,.8.72c.45.44.81.8,1.25.61s.44-.72.44-.95a2.83,2.83,0,0,0-.73-2.12l-.27-.37a7.74,7.74,0,0,0-.57-.69l-.06-.07a1.36,1.36,0,0,1,.88.39,1,1,0,0,0,1.44,0,4.84,4.84,0,0,0,.57-.48l-.2.32a2.3,2.3,0,0,0-.51,1.31c0,1.12.83,1.63,1.83,2.13.25.12.3.18.3.25a1.71,1.71,0,0,0,.61,1.21l.38.39a7.47,7.47,0,0,0,2.69,2.07,4.67,4.67,0,0,1,2.52,1.79l.06.13c.2.47.75,1.72.63,2l-.13.1-.22.16a.83.83,0,0,1,0-.12,1.57,1.57,0,0,0-1.17-1.13.74.74,0,0,0-.76.28c-.22.3-.18.71.1,1.23l.08.13c.67,1.22.91,1.42,2.69,1.42a3.12,3.12,0,0,0,2.1-.77,1.35,1.35,0,0,1,.88-.4c.27,0,.51,0,.74.05a3.08,3.08,0,0,0,2.55-.67,6.83,6.83,0,0,0,1.15-1.15c.32-.37.46-.53.7-.57a.71.71,0,0,1,.45.11,1.83,1.83,0,0,0,1.74,0,6.72,6.72,0,0,0,2.49-1.66l.48-.51a4.64,4.64,0,0,1,1.61-1.22,4.47,4.47,0,0,1,2.26-.66l.66-.06a4.6,4.6,0,0,1,1,.05c.51.07,1,.13,1.21-.29s-.13-.88-.58-1.37a3.15,3.15,0,0,0-1.71-1l0,0c.32-.36.55-.63.73-.85a3.45,3.45,0,0,1,1.34-1.12,5.57,5.57,0,0,1,2.87-.72,2.36,2.36,0,0,0,1.23-.4,1.37,1.37,0,0,1,1.12-.26,12.87,12.87,0,0,1,2.81,1.27l.71.37a2.52,2.52,0,0,0,1,.27,3,3,0,0,1,1.33.49,10.35,10.35,0,0,0,1.36.66,2.71,2.71,0,0,1,1.46,1c.15.24.28.49.42.73a5.18,5.18,0,0,0,2,2.3,3.88,3.88,0,0,0,1.34.41,1.65,1.65,0,0,1,1.45,1,3,3,0,0,1,.4,1.62,2.26,2.26,0,0,0,.74,1.87,13,13,0,0,0,2.16,1.42,15.11,15.11,0,0,1,1.5.94l.33.24a6.13,6.13,0,0,1,1.87,1.81c.53.93,1.8,2.55,3.23,2.71a14.07,14.07,0,0,0,1.74,0,7.84,7.84,0,0,1,2.86.19,3.43,3.43,0,0,1,1.43,2.41v.24c0,.88.05,1.46,1.33,2,.3.13.55.22.77.3.63.23.7.25.76.73s.1.68.16,1a9.39,9.39,0,0,1,.22,2.06c0,1.59,0,3.39.6,4.29.45.67.1,2.42-.07,3.26a8.94,8.94,0,0,0-.08,1.92,6.84,6.84,0,0,1-.39,3.12,1.35,1.35,0,0,1-.16.25l-.48,0c-.31.2-.28.36-.14,1.37l.08.52c.1.75.21,1.33.3,1.81a4.53,4.53,0,0,1,0,2.76,2,2,0,0,1-.55.89c-.53.53-.51.93.08,1.87a4.26,4.26,0,0,0,1.67,1.55,1.85,1.85,0,0,1,.67.53l.15.23c.4.62.89,1.39,1.63,1.39h0c.71,0,1.11-.77,1.24-1s.33-.6.48-.85c.64-1.11,1.11-1.92.4-2.92a2.09,2.09,0,0,0-.94-.75c-.25-.11-.38-.17-.54-.78a5,5,0,0,0-.38-.93l.16.19c.5.63,1.09,1.33,2,1.25a2.75,2.75,0,0,0,1.37-.66l.15-.12a.36.36,0,0,0,0,.09,9.17,9.17,0,0,0,.42.82c.62,1.13,1,1.92.44,2.53-.33.38-.56.6-.72.77a2.93,2.93,0,0,0-.79,1.18,9.54,9.54,0,0,0-.49,1.78,6.4,6.4,0,0,1-.27,1.05,1.82,1.82,0,0,0-.17.44c-.12.37-.16.52-.74.58-.3,0-.62,0-.91.06-.91.05-1.45.07-1.61.56a.69.69,0,0,0,.32.78c.22.18.57.42,1,.7a13.6,13.6,0,0,1,2.19,1.7c.21.25.46.49.7.73.43.4.87.82.87,1.15a6.16,6.16,0,0,0,1.24,3.5l.1.16a33.44,33.44,0,0,0,3.34,4.86c1,1,2.35,2.35,3.85,2.35a5.24,5.24,0,0,1,1.1.17c.61.15,1.13.27,1.43-.14s0-1-.29-1.44a7.54,7.54,0,0,0-1-1.24,1.25,1.25,0,0,0,.62-.11,4,4,0,0,0,.63-.36,1,1,0,0,0,.18.69,10.88,10.88,0,0,1,.6,3c.08.65.15,1.26.24,1.71s.09.68.12,1c.09.94.19,2.1,1.34,2.25a3.63,3.63,0,0,0,1.63-.06.78.78,0,0,0,0,.16,1.6,1.6,0,0,1,0,.74c-.16.61.22.79.78,1.06l.79.38c1.44.72,1.58,1.21,1.82,2.11a8.14,8.14,0,0,0,.27.85c.15.42.27.72.37,1a7.12,7.12,0,0,1,.51,1.8c.26,1.41.43,2.35,1.75,2.84.79.3.83.61.83,1.09,0,.09,0,.19,0,.3a1.68,1.68,0,0,0,.35,1.47,1.6,1.6,0,0,0,1.41.28,7.62,7.62,0,0,0,1.27-.35,3.14,3.14,0,0,1,2.29-.05c.42.11.81.19,1.15.27,1.42.31,1.79.43,1.84.86a3.11,3.11,0,0,0,1.43,1.93,6.25,6.25,0,0,1,.89.8,4.16,4.16,0,0,1,.67,1.14,5.31,5.31,0,0,0,1,1.61,3.88,3.88,0,0,1,1.09,1.87l.09.26c0,.13.06.26.09.39.14.71.35,1.77,2.42,1.9,1.2.07,1.37.18,1.59.33a3.6,3.6,0,0,0,.88.42,2.82,2.82,0,0,1,1.38.95l-.1.05c-.94.35-1.31,0-1.5-.22a3.1,3.1,0,0,1-.18-.26,1.12,1.12,0,0,0-1.55-.56,3.1,3.1,0,0,1-.51.11c-.54.08-1.53.24-1.38,1.58l0,.16a29.75,29.75,0,0,0,1.47,2.79,1.74,1.74,0,0,0,2.75.53l.61-.39a13.17,13.17,0,0,1,2.28-1.25,1.39,1.39,0,0,1,.87-.16,7.91,7.91,0,0,0,1.16.07,5.92,5.92,0,0,1,1,.08c.91.14,1.39.09,2.4-1a11.87,11.87,0,0,0,.94-1.17c.41-.55.45-.61.89-.61h.61a1.55,1.55,0,0,1,1.08.2,1.69,1.69,0,0,0,.79.24.71.71,0,0,0,.34.68l.56-.07a2.76,2.76,0,0,0,.35-2.29,2.82,2.82,0,0,1,.35-2l.28-.65a3.52,3.52,0,0,0,.32-2.38l0-.22a2.56,2.56,0,0,0-.34-.85,1.48,1.48,0,0,1-.19-1.4,2.29,2.29,0,0,0-.08-1.58c-.12-.32-.16-.45.25-1A2.24,2.24,0,0,0,862,589c0-.27,0-.28.12-.41l.31-.25a3,3,0,0,0,1.42-2.59c0-.56,0-1.18,0-1.94,0-1.19-.09-2.67-.09-4.8,0-2.48-.13-4.13-.29-6.22-.07-.89-.15-1.86-.22-3a24.16,24.16,0,0,1-.06-3,3.71,3.71,0,0,0-.37-2,11,11,0,0,1-.52-1.44,15.14,15.14,0,0,0-.51-1.53,8.78,8.78,0,0,0-1-1.86,3.12,3.12,0,0,1-.64-1.38,4.67,4.67,0,0,1,0-.6c0-.76-.1-1.09-1.17-2.05a13.65,13.65,0,0,1-1.09-1.1,2.56,2.56,0,0,0-1.34-1,2.84,2.84,0,0,0-.38-.05l-.18,0s-.11-.12-.22-.7a5.36,5.36,0,0,0-.72-1.76,23.4,23.4,0,0,1-1.38-2.87,34.65,34.65,0,0,0-4-6.48c-.56-.78-1.08-1.51-1.5-2.15-.61-.95-1.25-1.9-1.88-2.84-.85-1.26-1.65-2.46-2.39-3.63a33.43,33.43,0,0,1-2.69-5.12,12.24,12.24,0,0,0-1-1.9,11.47,11.47,0,0,1-1.29-2.49c-.15-.4-.32-.8-.48-1.21a19.69,19.69,0,0,1-1-2.81,2.11,2.11,0,0,1,.71,1,6.31,6.31,0,0,0,.42.77,5,5,0,0,1,.28.49,2,2,0,0,0,1.82,1.29h.35c.66,0,.66,0,.87.47a8.29,8.29,0,0,1,.41,2.59c0,.28,0,.58.07.89s0,.77,0,1.05a3.67,3.67,0,0,0,.53,2.13c.47.85.74,1.32,1.24,1.14s.47-.75.21-2.37c-.38-2.4-.37-2.42.08-3.33l.13-.24a2.13,2.13,0,0,0-.16-2.72,27.56,27.56,0,0,0-3-3.19c-.81-.81-1.73-1.72-2.66-2.71l-1.19-1.19c-2.31-2.28-5.17-5.12-9.75-13.73l-1.56-2.92c-4.23-7.94-6.78-12.73-6.67-14.57,0-.37,0-.69.07-1,.11-1.38.16-2-.89-2.93a8.11,8.11,0,0,0-1.11-.77c-.55-.33-.75-.46-.8-.86a.51.51,0,0,1,.12-.49,2.14,2.14,0,0,0,.4-1.69c0-.41,0-.74,0-1a1.57,1.57,0,0,0-.29-1.23c-.43-.44-1.09-.31-1.48-.29h-.29a1.25,1.25,0,0,1,0-.24,2.89,2.89,0,0,0-.31-2.23c-.11-.22-.21-.38-.29-.51-.19-.31-.19-.31-.07-.66a1.16,1.16,0,0,0,.07-.49l.11-.15.78-1,.1-.3v-.52l-.2-.41-.52-.38a.88.88,0,0,0-.29-.16c0-.26,0-.45,0-.58a.55.55,0,0,0,0-.09.35.35,0,0,0,0-.06,1.73,1.73,0,0,1,.4.08c.44.14.63-.05.72-.23.2-.4,0-.55-.72-1a2.74,2.74,0,0,0-1.07-.48,2.13,2.13,0,0,0,.14-.63,1.67,1.67,0,0,0,.28-.18l.09,0a1.09,1.09,0,0,0,.3-.12H815c.21.18.53.08.87,0l.47-.13a1.23,1.23,0,0,0,1-.76,8.52,8.52,0,0,0,.41-.95,2.75,2.75,0,0,0,.15-1.44l.22-.44c-.06-.36-.35-.41-.76-.48a4.31,4.31,0,0,0-.47-.07l-.29-.06-.18,0a2.23,2.23,0,0,0-.36-.07,1.13,1.13,0,0,0,.48-.29c.22,0,.35-.25.52-.54l.39-.65.07-.23A1.62,1.62,0,0,1,818,457a4.54,4.54,0,0,1,.77-.79c.24-.15.63-.45.57-.88a.65.65,0,0,0-.44-.51c-.14-.19-.41-.19-.77-.19l-1.19,0v-.08l.35-.43.52-.26.15-.08.22-.09.16.11c.31,0,.4-.1.83-.68a2.94,2.94,0,0,1,.55-.62.89.89,0,0,0,.32-.6l.12-.48a.88.88,0,0,0-.07-.68,1,1,0,0,0-.68-.48l-.19,0L818,449.8h0a.51.51,0,0,1,0-.16.71.71,0,0,0,0-.2,4.44,4.44,0,0,0,.63-.25l1.17-.52.59-.43a.79.79,0,0,0,.32-.58,1.45,1.45,0,0,0-.67-1.13l-.77-.65-.12-.07a.92.92,0,0,1-.21-.13,2.54,2.54,0,0,1,.51-.37c1.24,1.37,1.72,1.31,1.89,1.28a.63.63,0,0,0,.51-.36c0-.09.06-.1.1-.13a1.24,1.24,0,0,0,.58-.84l.26-.78v-.31a.49.49,0,0,1,0-.43l0,0c.3,0,.42-.14.64-.44a.69.69,0,0,1,.1-.12,1.12,1.12,0,0,0,.33-.45l.24,0,.16-.57c0-.06-.05-.15-.1-.33l0-.12c.17-.33-.13-.64-.34-.85a1.44,1.44,0,0,0-.39-.28l-.12-.74-.17-.3s-.07-.23.21-.63.56-.8.74-1.07l0,.06a1,1,0,0,0,.76.52h0c.4,0,.71-.32,1-.81l.9-1.29-.37-.79c-.45,0-1.45-.26-1.65-.73-.11-.26-.22-.47-.31-.64a.37.37,0,0,0,.15,0c.38,0,.49-.26.69-.85.05-.16.1-.31.13-.44l.34.59c.51.87.84,1.45,1.38,1.56a.89.89,0,0,0,.7-.17l.16-.14.35-.24a2.65,2.65,0,0,1,.65-.35c.58-.23.85-.49.85-1.36a3.87,3.87,0,0,0-.09-.93.56.56,0,0,1,.06-.44l.1-.24a1.26,1.26,0,0,0,0-1.39c-.48-.72-2.29-.87-2.75-.87a3.44,3.44,0,0,0-.57,0,3,3,0,0,1-.44-.14l-.21-.06.62-.33a1.32,1.32,0,0,1,1.36-.21c.37.11.62.22.83.3a1.6,1.6,0,0,0,1.77-.09,1.46,1.46,0,0,0,.66-.61,4.53,4.53,0,0,1,.49-.11l.76-.13c.61-.1,1.19-.19,1.19-1a1.43,1.43,0,0,0-.11-.53,2,2,0,0,0,1-.14,8.28,8.28,0,0,1,1.19-.4,11,11,0,0,1,1.24-.28c.76-.14,1.07-.27,1.3-1.1a3.06,3.06,0,0,0,.13-.72l.27-.14a4.07,4.07,0,0,1,.58-.22c.46-.16.93-.32,1.09-.77a.86.86,0,0,0,0-.57c.11-.24-.1-.47-.73-1.17-.33-.36-.62-.65-.86-.89a5.82,5.82,0,0,1-.52-.56l0,0c.14-.11.26-.22.37-.32l.15-.14v0a4.24,4.24,0,0,1,.2.49,1,1,0,0,0,1.62.78,2.85,2.85,0,0,0,1.08-.65c.17-.15.41-.36.84-.71a1.64,1.64,0,0,0,.71-1.84h0a2.07,2.07,0,0,1,.73,0,1,1,0,0,0,.79-.18,1.16,1.16,0,0,0,.28-.92,2.8,2.8,0,0,0-.17-1c-.08-.26-.1-.33.11-.69a2,2,0,0,0,.27-.77h.46a5.92,5.92,0,0,1,1.13.15,2.05,2.05,0,0,0,1.64-.07,1.41,1.41,0,0,0,.57-1,5.92,5.92,0,0,0,.09-1.29c0-.49,0-.51.32-.7a3.81,3.81,0,0,1,.66-.29,1.46,1.46,0,0,0,1.12-1.17,1.57,1.57,0,0,0,0-.83,3,3,0,0,0,.37-.84,3.55,3.55,0,0,0,.25-2.31,3.21,3.21,0,0,1-.1-.83,4.21,4.21,0,0,0-.09-.9c-.07-.35-.1-.5.55-1.71s.89-1.77,1.13-2.32c.16-.35.31-.69.56-1.19.35-.7.49-1,.61-1.35a7.76,7.76,0,0,1,.43-1,3.46,3.46,0,0,1,.66-1.09l.31-.37a2,2,0,0,0,.46-.88c0-.17.08-.3.63-.73a11.93,11.93,0,0,1,1.35-.85,4.92,4.92,0,0,0,2.16-1.78,3.34,3.34,0,0,0,.15-.38,1.94,1.94,0,0,0,.08-.58l.33-.07a13.65,13.65,0,0,0,3.49-1.34,4.77,4.77,0,0,0,.45-.24,2.76,2.76,0,0,0,.86-.11c.54-.12,1-.18,1.44-.24a14.36,14.36,0,0,0,1.56-.28,2,2,0,0,1,.79.05c.63.14,1.68.35,2.16-1.31.17-.61.29-.94.37-1.18a7.69,7.69,0,0,0,.42-2,19.66,19.66,0,0,1,.92-3.84l.23-.74c.1-.34.18-.64.26-.93a8,8,0,0,1,1.86-3.58,7.14,7.14,0,0,1,2.37-1.92c.85-.49,1.66-.95,1.75-2.1,0-.56.06-.88.06-1.1l0,0a.79.79,0,0,0,.74.09,3.3,3.3,0,0,0,2.24-1.81,9.36,9.36,0,0,0,.43-1.06,4.08,4.08,0,0,1,.83-1.58,2.18,2.18,0,0,0,1.43.2,7.07,7.07,0,0,0,3.91-1.54l.73-.48a3.86,3.86,0,0,0,1.29-1.28l.07-.11,0,0c.14,0,.2.17.3.37a.85.85,0,0,0,.61.56,1,1,0,0,0,.8-.44,1.41,1.41,0,0,0,.32-.6,1.58,1.58,0,0,1,.74.23,1,1,0,0,0,1.37-.12,1,1,0,0,0,.37-.64c0-.1.05-.39.86-1.64a11.08,11.08,0,0,1,1.45-1.81,2.58,2.58,0,0,0,1-2c0-.32,0-.62,0-.88,0-.76.06-1.26-.38-1.46s-.78.18-.9.3a3.49,3.49,0,0,0-.65,1.06c0,.11-.12.27-.17.36l-.28-.09c0-.08,0-.19-.08-.34l0-.23c-.06-.28-.1-.54-.13-.76-.09-.57-.15-1-.57-1.17a.89.89,0,0,0-.87.22,2.6,2.6,0,0,0-.88,1.05c-.07.13-.16.3-.29.52l-.21.4c-.21.39-.21.39-.67.54l-.06,0-.13-.13c-.31-.07-.46.09-.82.52l-.3.38a2.15,2.15,0,0,1-1,.8,3.87,3.87,0,0,0-.46.24,2,2,0,0,1-1.13.35,2.9,2.9,0,0,0-.65.08c-.2.05-.29.08-.93-.28a1.87,1.87,0,0,0-1.17-.31s-.15-.08-.51-.49a6,6,0,0,0-1.12-1,2.88,2.88,0,0,1-.63-.57,3.58,3.58,0,0,1,1.8.61,2.51,2.51,0,0,1,.35.45,1.54,1.54,0,0,0,1.92.73,1.74,1.74,0,0,1,.76,0c.66.11,1.09,0,2.1-1.06a11.25,11.25,0,0,1,1.13-1.09,1.72,1.72,0,0,0,.82-1.58,1,1,0,0,0-.91-1.09c-.05,0-.12,0-.11,0a1,1,0,0,1,0-.21c0-.24,0-.48,0-.59l.21-.07c.13,0,.29-.09.49-.17.58-.21,1.24-.46,1.4-1.05a1.85,1.85,0,0,0-.53-1.54,3.88,3.88,0,0,1-.42-.66c-.46-.86-.84-1.08-2.83-1.08A16.54,16.54,0,0,0,889,345a3.88,3.88,0,0,1-2-.32,8.12,8.12,0,0,0-2.75-.27,2.63,2.63,0,0,1-1.13-.09,10.89,10.89,0,0,1,1.82,0,21.84,21.84,0,0,0,2.45,0,6.93,6.93,0,0,1,1.79.12c.85.17,1.16,0,1.61-.91a4.18,4.18,0,0,0,.36-1.16c0,.07,0,.13,0,.19,0,.42.14,1.11,1.25,1.11a1.33,1.33,0,0,0,1.26-.89c0-.05.07-.13,0-.15a1.19,1.19,0,0,1,.36.19,5.24,5.24,0,0,1,1,.84,2.14,2.14,0,0,0,2,.79c.23,0,.47,0,.71,0a3.79,3.79,0,0,0,4-2.45c.43-.86.76-1.47,1-1.95a8.37,8.37,0,0,0,1-2.31l0-.24a9.84,9.84,0,0,1,.27-1l.14.1a1.33,1.33,0,0,0,1.21.35,1.51,1.51,0,0,0,.79-1.1,2.81,2.81,0,0,0,0-1.73,3.35,3.35,0,0,1-.13-1.34,5.72,5.72,0,0,1,.23-1.18,1.78,1.78,0,0,0-.65-2.22,3.16,3.16,0,0,1-.84-1.25c-.2-.45-.47-1.07-1.26-.94-.54.09-.84.17-1,.72a1.56,1.56,0,0,1-.16.46c-.14.28-.16.28-.33.33a3.26,3.26,0,0,0-.8.38l-.39.24c-.61.34-.87.6-.87,1.6a1.87,1.87,0,0,0,.13.83s.07.14,0,1.08l0,.6-.1-.07a2.86,2.86,0,0,0-.75-.36l-.09,0c0-.05,0-.14,0-.3.05-.33.13-.79.22-1.28a10.41,10.41,0,0,0,.3-2.77,1.17,1.17,0,0,0-.66-.78,3.63,3.63,0,0,0-2.89,0c-.28.13-.5.2-.68.27a1.8,1.8,0,0,0-1.4,1.46c-.18.53-.34.64-.39.65s-.22,0-.6-.16a2,2,0,0,1-.4-.28c-.51-.4-1-.66-2.15,0-.33.19-.67.41-1,.63-.62.41-1.64,1.09-1.93,1s-.29-.1-.4-.14c-.26-.07-.35-.09-.76-.92-.22-.43-.41-.74-.57-1a3.22,3.22,0,0,1-.44-.92,2.09,2.09,0,0,0,.92.8,3.87,3.87,0,0,0,1.29.22c.24,0,.55,0,1,.07a2.63,2.63,0,0,0,2.19-1,4.8,4.8,0,0,1,.95-.76,1.51,1.51,0,0,0,.83-1.39,1.08,1.08,0,0,1,0-.25s.08-.08.49-.11c1.69-.13,1.79-.14,2.54-.59a1.86,1.86,0,0,1,.64,0c.45.07.95.15,1.23-.25s0-.91-.27-1.4a7.65,7.65,0,0,0-1.36-1.76,2.3,2.3,0,0,1,1.26.33,8,8,0,0,1,.58.56c.47.47,1,1,1.81.53.57-.34,1.42-.51,1.6-.22h0c.15.25.32.38.51.38a.44.44,0,0,0,.24-.07c.1-.05.41-.27.17-.76h0l-.06-.08h0c-.1-.16-.29-.49-.51-.89-.57-1-1.35-2.31-1.79-3-.22-.33-.36-.58-.46-.76a1.61,1.61,0,0,0-1.25-1c-.72-.2-.72-.2-1.26-1.08a6.52,6.52,0,0,0-.66-.85l-.08-.1h.08l.13.05a.85.85,0,0,0,.74,0,.92.92,0,0,0,.42-.64,3.33,3.33,0,0,0,.09-.63,4.46,4.46,0,0,0-.07-1.56c0-.14,0-.16.05-.4a3.47,3.47,0,0,0-.51-2.28,7.42,7.42,0,0,1-.52-1.35,6.88,6.88,0,0,1-.1-.9c-.05-.76-.11-1.81-1.37-1.95-.92-.11-5.54-.6-6.16-.18s-.45,1-.39,1.44a2.71,2.71,0,0,1,0,.4,1.91,1.91,0,0,0,.13.61l-.09,0c-.44-.19-.78-.36-1.06-.5-.54-.27-.9-.46-1.28-.31a1,1,0,0,0-.52.56l-.09.26a6,6,0,0,0-.54-.67l-.34-.38a4.94,4.94,0,0,0-1.09-.94,2.89,2.89,0,0,1-.94-.95,2.15,2.15,0,0,1-.36-.76c-.12-.47-.27-.73-1.22-1.33a4.83,4.83,0,0,1-.78-.58c-.29-.28-.44-.28-.89-.28h-.8a.92.92,0,0,0-.41-.19,2.54,2.54,0,0,0,.41,0,1.87,1.87,0,0,0,1.07-.26,2.67,2.67,0,0,1,.45.29c.46.34.84.66,1.19,1a14.89,14.89,0,0,0,1.29,1,6.51,6.51,0,0,0,.8.43,1.49,1.49,0,0,1,.85.67,4,4,0,0,1,.19.51,1.55,1.55,0,0,0,.69,1,1.46,1.46,0,0,0,1.15,0l.84-.25a2.46,2.46,0,0,0,1.75-1l.16,0a.8.8,0,0,0,.67-.37c.19-.35.09-.76-.41-1.77-.31-.62-.49-1.06-.62-1.38-.35-.85-.51-1.14-1.49-1.46-.43-.15-.48-.22-.51-.26-.17-.24-.37-.38-.95-.53a2.9,2.9,0,0,0-1.18-.06,2,2,0,0,1-1.22-.18l-.18-.07c.24,0,.48,0,.7,0,.72.05,1.35.09,1.7-.33a1,1,0,0,0,.16-1,2.31,2.31,0,0,0-1.05-1.26c.46-.15.67-.06,1.15.34a8,8,0,0,1,.59.57c.44.45.8.81,1.24.63s.41-.65.41-.81a4.77,4.77,0,0,1,.15-.9c.19-.94.43-2.11-.27-2.92a.63.63,0,0,1-.15-.24l-.07-.51c-.17-.25-.35-.26-1.12-.32h-.16c-.5,0-.86-.05-1.12-.05a2,2,0,0,1-.42,0,1.19,1.19,0,0,1-.15-.21.58.58,0,0,1-.08-.29.83.83,0,0,0-.62-.8,1.29,1.29,0,0,0,.47-.11,1,1,0,0,0,.55-.78,3.92,3.92,0,0,1,.36-.95,2.16,2.16,0,0,0,0-2.38,7.2,7.2,0,0,0-.94-1.21l-.12-.13.29-.12a1.47,1.47,0,0,0,1.1-1.32c.15-1.06-1.05-1.52-2.44-2.05-.44-.17-.9-.35-1.35-.55s-1-.45-1.44-.6a3.66,3.66,0,0,1-1.52-.86c-.89-.88-1.79-1.18-3.6-1.18a4.86,4.86,0,0,0-1.43.21c-.49.14-.73.2-1.71-.29l-.43-.21c-1.46-.72-2.42-1.2-2.7-1.87a3.34,3.34,0,0,0-2-1.89,1.14,1.14,0,0,0-.61,0c.21-.4.37-.77.5-1.08s.27-.63.3-.68.13,0,.49.31c1,.83,2,1.47,2.75,2,.33.22.64.43.9.62a.53.53,0,0,1,.27.41c.13.6.42,1,1.61,1.23a2.34,2.34,0,0,1,1,.4,4.28,4.28,0,0,0,2.39.64,4.58,4.58,0,0,0,2.21-.16c.23-.07.3-.1,1.09.36a8.12,8.12,0,0,1,1.56,1.2c.54.49.94.83,1.42.75a1,1,0,0,0,.69-.61c.6-1.18.17-1.64-.47-2.34l-.37-.41-.34-.39a14.79,14.79,0,0,0-2.32-2.27,10.27,10.27,0,0,0-1.43-1l-.19-.11.28-.17a1.23,1.23,0,0,0,.65-.91c0-.57-.45-1-1-1.43a3.58,3.58,0,0,1-1.15-1.35,8.28,8.28,0,0,1-.36-1.45,9.6,9.6,0,0,0-.55-1.94,3.64,3.64,0,0,0-.66-1.17c-.11-.13-.15-.18-.09-1.34a9.32,9.32,0,0,0,0-1.73,12.62,12.62,0,0,1,0-2.16,8.83,8.83,0,0,1,.46-2.43,2,2,0,0,0-.32-2.33,5.66,5.66,0,0,0-1.66-1.3,1.54,1.54,0,0,1-.52-.36,2.91,2.91,0,0,0-.55-.49l-.31-.25a3.16,3.16,0,0,1,.38-.17,1.13,1.13,0,0,1,1.11.05.86.86,0,0,0,.8.1c.33-.16.46-.52.6-1.17a4.52,4.52,0,0,0,0-2.11.44.44,0,0,1,0-.1.76.76,0,0,0,.67.32c.47-.05.67-.56.74-.74a3.48,3.48,0,0,0,.25-1.06c.46.4.92.48,1.69-.18l.08-.06a5.3,5.3,0,0,0-.84,2.26l-.06.31c0,.24-.09.46-.14.66a5,5,0,0,0-.11,2.54c.22.89,1.18.89,1.75.89a4,4,0,0,1,.56,0,3.23,3.23,0,0,1-1,2.24c-.29.3-.95,1.06-.74,1.82a1.19,1.19,0,0,0,1,.83,5.89,5.89,0,0,0,1.07.13,2.93,2.93,0,0,1,.75.1s0,0,0,.13c-.08.72-.08.72-.94,1.19l-.23.12-.57.3c-.7.37-1.21.63-1.22,1.15s.47.76.62.85c1.42.81,2.48,1.77,2.48,2.07a6.26,6.26,0,0,1-.18.72,6.41,6.41,0,0,0-.34,3c.07.35.1.66.13.93a2.17,2.17,0,0,0,1,2,15.73,15.73,0,0,0,1.94.9l.7.29c.15.06.28.13.4.19.64.31,1.52.74,2.3-.51a7.9,7.9,0,0,0,.44-.86s0,0,0,0a.08.08,0,0,1,0,0,4,4,0,0,0,1.43.92l.34.15a2.71,2.71,0,0,1-.64.42c-.34.17-.69.36-.78.77a1.2,1.2,0,0,0,.27.95,2.49,2.49,0,0,0,1.82.79c.64.08.91.15,1,.33a1.89,1.89,0,0,1-.42,1.9,2.74,2.74,0,0,1-.69.5c-.5.3-1,.61-1.11,1.14a1,1,0,0,0,.25.81c.73.88,1.34,1.41,3,.79,1.5-.54,1.89-.48,2.16-.15l.31.36c.2.21.56.62.54.78s0,.1-.21.19a3.89,3.89,0,0,0-1.69,2.35l-.19.48c-.13.34-.27.61-.39.86a5.35,5.35,0,0,0-.68,2.83,23.65,23.65,0,0,0,.35,3.34c.09.58.2,1.3.19,1.42a1.26,1.26,0,0,1-.15.2,2.74,2.74,0,0,0-.64,2.39c.34,1.91.7,3.51,1.6,3.76a1,1,0,0,0,1.08-.41,4.06,4.06,0,0,1,.57-.53c.68-.53.72-.86.72-2.91,0-.86,0-1.52,0-2.07a4.45,4.45,0,0,1,.25-2.38,6.78,6.78,0,0,0,.3-.74c.17-.47.18-.48.73-.54a.93.93,0,0,1,.58.13.72.72,0,0,0,.71,0c.36-.21.38-.58.45-1.8,0-.63.05-1.19.06-1.72a15.77,15.77,0,0,1,.44-3.88,2.46,2.46,0,0,1,.7-1.3,3,3,0,0,0,.87-2c.18-1.47.23-2.4.3-3.49,0-.45.05-.92.09-1.46.08-1.18.26-2.8.85-3.27a.87.87,0,0,1,.39-.16c.8-.21,1.25-.61,1.35-2.15a5.81,5.81,0,0,1,.29-1.59,1.27,1.27,0,0,0-.27-1.48.74.74,0,0,1-.21-.37c0-.11,0-.24.21-.55.06-.1.12-.22.19-.35a3.26,3.26,0,0,0,.33-1.35.58.58,0,0,0,.3-.35c.16-.51-.31-.87-1.36-1.43a3.58,3.58,0,0,0-1.67-.49c0-.15,0-.38,0-.62a6.91,6.91,0,0,1,.25-2.06,2.64,2.64,0,0,0,.14-.77l.27-.39c0-.37-.31-.46-.56-.54s-.62-.2-1.34-.47a7.89,7.89,0,0,0-1.8-.47c-.37-.06-.37-.06-1.07-1a6.16,6.16,0,0,0-.92-1.11c-.14-.13-.17-.16-.84-1.66a12.42,12.42,0,0,0-1.56-2.73,7,7,0,0,1-.66-1,6.28,6.28,0,0,1-.33-.79c-.19-.54-.3-.76-1.33-1.69-.56-.51-1-.84-1.35-1.11-.55-.41-.74-.57-.85-.89a1.84,1.84,0,0,0-.4-.69c-.1-.11-.15-.17-.09-.78a3.38,3.38,0,0,0-.28-1.59,2.13,2.13,0,0,1-.1-1.65h0a3.7,3.7,0,0,0,1,3,8.93,8.93,0,0,1,.71.93,3.43,3.43,0,0,0,1.57,1.38l.67.33a7.54,7.54,0,0,1,2.51,1.57l.13.2a2.41,2.41,0,0,0,2.41,1.45,10.23,10.23,0,0,0,1.68-.36,6.5,6.5,0,0,1,1.51-.29c1,0,1.14.2,1.19.49a11.34,11.34,0,0,1-.18,1.8c-.31,2.25-.39,3.2.12,3.57a2.17,2.17,0,0,0,1.9.21,2,2,0,0,0,1.34-1.37c.14-.48.22-.82.28-1.13a7.66,7.66,0,0,1,.6-1.79,5.18,5.18,0,0,0,.64-2.42c0-.2,0-.43.05-.72a2.84,2.84,0,0,0-.05-1,3.09,3.09,0,0,1,.21-.29l.26-.36a3.62,3.62,0,0,1,.71-.78c.38-.33.58-.54,1.17-2.06a11.56,11.56,0,0,1,.76-1.68,1.21,1.21,0,0,0,.18-.83,3.22,3.22,0,0,0-.08-.83,1.6,1.6,0,0,1,0-.47,1.53,1.53,0,0,1,.17-.74,5,5,0,0,1,.63-.74c.26.09.47-.09.73-.35l.22.08c.35-.09.38-.33.45-.9l.09-.73.09,0v0h.14c.27-.17.47-.46.47-2.63a15.5,15.5,0,0,0-.09-1.89,1.16,1.16,0,0,1,.07-.69,15.67,15.67,0,0,0,.38-1.63,1.65,1.65,0,0,0,0-1.39c-.1-.31-.2-.56-.29-.77a2.22,2.22,0,0,1-.2-.62.66.66,0,0,0,0-.21.9.9,0,0,1,.41-.36,1.19,1.19,0,0,0,.66-1.25v-1.94a9.67,9.67,0,0,0-.23-1.43,12.69,12.69,0,0,1-.29-1.81,8,8,0,0,0-.16-1.4,6.16,6.16,0,0,1-.1-.8,8.47,8.47,0,0,1,.07-.88c.34-.1.52-.29.54-.56.05-.55-.61-.75-1-.86a4.38,4.38,0,0,1-.45-.14,2.73,2.73,0,0,0-.9-.26,8.64,8.64,0,0,0-2.3-.27h-1.16l-.32.12a.5.5,0,0,1-.27.11.48.48,0,0,1-.12-.18,1.68,1.68,0,0,0-.63-.78c0-.05.05-.13.1-.23a8.18,8.18,0,0,1,.58-1A4.25,4.25,0,0,0,908,210a2.43,2.43,0,0,0,.17-.59,1.42,1.42,0,0,1,.3-.61,2.77,2.77,0,0,0,.38-.73c0-.09,0-.12.3-.33a1.53,1.53,0,0,1,.45-.24,1.47,1.47,0,0,0,.33-.14l0,.17a1,1,0,0,1-.21.43.8.8,0,0,0-.2.65,1,1,0,0,0,.51.6,5.1,5.1,0,0,0,1.53.69c.2.07.24.11.28.16.27.31.56.33,1.11.25a16.52,16.52,0,0,0,4.9-2.56,10.12,10.12,0,0,1,2.86-1.75,7.93,7.93,0,0,1,.91-.3A4.79,4.79,0,0,0,923,205a4.7,4.7,0,0,0,1.42-1.26,2.69,2.69,0,0,1,1.68-1.15,12.92,12.92,0,0,0,3.35-1.33c.36-.19.7-.37,1-.52a11.67,11.67,0,0,0,1.55-.83c.31-.19.62-.38,1.06-.6a5.63,5.63,0,0,1,1-.39,3.18,3.18,0,0,0,1.17-.58,3.42,3.42,0,0,1,.41-.27c.41-.22.57-.42.68-1.07a2.08,2.08,0,0,0-.12-1l.69.14c.75.15,1.45.3,1.81-.25a15.66,15.66,0,0,1,1.26-1.43l.9-1c.55-.6.86-1,1.08-1.26a1.45,1.45,0,0,1,.93-.68c.85-.32,1.93-1.32,2-1.84l-.23-.52a.72.72,0,0,0-.75,0,9.92,9.92,0,0,1-3.14,1.11c-.19,0-.34,0-.46,0-.6-.05-.9,0-1.68.67a6.77,6.77,0,0,0-1.66,1.93c-.11.19-.2.37-.29.55-.22.45-.35.69-.63.8a2.51,2.51,0,0,0-.65.38,1.81,1.81,0,0,1-.84.38l-.16,0a11.33,11.33,0,0,0,1.89-2.7c.15-.3.33-.63.49-.94a5.74,5.74,0,0,0,.86-2,.63.63,0,0,0-.43-.62c-.77-.26-1.84,1-2.41,1.75-1.28,1.7-3.38,3.65-4.92,4.09-.7.2-1.31.33-1.9.44a19.28,19.28,0,0,0-3.19.87,3.61,3.61,0,0,0-2.1,1.48,1.79,1.79,0,0,1-.48.53c-.44.31-.46.31-.81.32a7.29,7.29,0,0,0-1.31.11,1.93,1.93,0,0,0-1.66,1.5c-.15.43-.18.43-.34.43a2.22,2.22,0,0,1-1-.35,1.4,1.4,0,0,0-1.07-.27,1,1,0,0,0-.55.51,5.3,5.3,0,0,0-.29.8c-.14.48-.16.48-.3.48a3.39,3.39,0,0,0-.91.15,3.09,3.09,0,0,1-.35.07l0,0a3.7,3.7,0,0,0,1-1.43l.07-.18a4.6,4.6,0,0,1,.59-1.17,6.8,6.8,0,0,1,1-.9,1.66,1.66,0,0,1,.71-.41c.45-.11.76-.25,2.07-1.73a21.6,21.6,0,0,0,1.59-2c.45-.62.51-.69.81-.69a.59.59,0,0,0,.32.59c.39.19.68-.07,1.53-.86s1.26-1.24,1.71-1.71a5.18,5.18,0,0,1,1.48-1.29,4.43,4.43,0,0,0,.95-.52,4.64,4.64,0,0,1,2.07-.89l.95-.13a5.28,5.28,0,0,0,2.6-.84,4.92,4.92,0,0,0,1-.73c.22-.19.28-.25.93-.38a4.68,4.68,0,0,1,1.05-.12,2,2,0,0,0,.85-.16l.39-.15a13.9,13.9,0,0,0,2-.92,5.79,5.79,0,0,0,.6-.39c.28-.21.43-.33,1.72-.59a6.07,6.07,0,0,0,2.35-.86c.38-.21.84-.48,1.65-.86a9,9,0,0,1,1.78-.64,3.14,3.14,0,0,0,1.88-1.16,1,1,0,0,1,.91-.38,1,1,0,0,0,.83-.3c.25-.32.27-.78.06-1.83a6.57,6.57,0,0,1-.2-1.91,2.59,2.59,0,0,0-.36-1.44l-.05-.13c-.61-1.33-.68-1.49-.68-2,0-.16,0-.36,0-.57,0-.06,0-.13,0-.22l0,0a1.11,1.11,0,0,0,.87.23l-.05-.5.2.49.45,0a1.66,1.66,0,0,0,1.45-.62,9.86,9.86,0,0,0,.13,1.84,2.45,2.45,0,0,1,.07.37,2.66,2.66,0,0,0,1.1,2.16c.9.45,1.38-.44,1.62-.86a2,2,0,0,1,.42-.59,2.49,2.49,0,0,1,.74-.25,2,2,0,0,0,1-.47,11,11,0,0,0,1.48-1.88,2.36,2.36,0,0,1,.82-.79,1.9,1.9,0,0,0,.94-1.3,6.36,6.36,0,0,1,.84-1.77,11.42,11.42,0,0,1,.25,2.27,2.88,2.88,0,0,0,1.19,2.14,1.63,1.63,0,0,0,1.58.14,18.46,18.46,0,0,0,3.17-2.46,21.63,21.63,0,0,1,2.45-2,3.6,3.6,0,0,1,.82-.36,5.79,5.79,0,0,0,1.66-.82,10.55,10.55,0,0,1,1.17-.61c.8-.36,1.25-.63,1-1.85a8.23,8.23,0,0,1-.13-.89,5,5,0,0,0-.55-1.81,4.74,4.74,0,0,1-.35-1.1,2.4,2.4,0,0,0-1.1-1.68,7.52,7.52,0,0,1-1-.88,2.92,2.92,0,0,0-.94-.73,6.27,6.27,0,0,0-2.43-.57.57.57,0,0,0-.58.42c-.22.78,1.42,2,2,2.32.33.2.65.36.94.51.85.42,1.15.6,1.15,1.13a3.74,3.74,0,0,1-1.72,2.44,3.49,3.49,0,0,0-.73.7,2,2,0,0,1-1.63.9l-1,.1c-.89.1-1.13.13-1.68-.27l-.41-.27-.07,0a.54.54,0,0,1-.07-.12c-.1-.16-.26-.44-.62-1s-.42-.7-.52-.88c-.29-.57-.45-.64-1.21-.86l-.48-.15a15.12,15.12,0,0,1-1.62-.57,1.09,1.09,0,0,0,.44-.62,2.8,2.8,0,0,0-.66-2,4.94,4.94,0,0,1-.31-.54,4.77,4.77,0,0,0-3.44-2.39,2.55,2.55,0,0,0-1.38.42c-.32.19-.43.26-.78.13a4.46,4.46,0,0,0-.7-.19l-.19,0a2.88,2.88,0,0,1-.21-.93,3.77,3.77,0,0,1,.21-2,6.54,6.54,0,0,0,.31-1.33,8.07,8.07,0,0,0,0-1.07c0-.53,0-.57.27-.77s.43-.27.65-.4a6.42,6.42,0,0,0,1.79-1.38c1.64-2,1.69-2.6,1.51-3a.76.76,0,0,0-.72-.41,2.84,2.84,0,0,0-1.57.81c-.37.29-.93.71-1.15.68,0,0-.08-.06-.11-.1-.34-.52-.58-.93-.82-1.34s-.61-1.05-1.13-1.79A8.77,8.77,0,0,0,952,142a1,1,0,0,1-.17-.21,4.73,4.73,0,0,1,.19-1.12,16.53,16.53,0,0,1,.42-1.6,5.92,5.92,0,0,0,.36-2,2,2,0,0,1,.2-.82,5.48,5.48,0,0,1,.29-.6,6.44,6.44,0,0,0,.8-2.26,3.31,3.31,0,0,0-.31-2c-.2-.47-.24-.57.17-1l.43-.42a4.35,4.35,0,0,0,1.37-2.08,2.22,2.22,0,0,1,.71-.9,1.46,1.46,0,0,0,.59-1.78,1.61,1.61,0,0,0-1-1,4.74,4.74,0,0,1,.34-.45c.31-.37.59-.67.83-.93.63-.68,1-1.13,1-1.69a1.16,1.16,0,0,0-.46-.81,1.26,1.26,0,0,0-1.3-.11c.07-.25.18-.65.41-1.28s.47-1.34.65-1.86a17.09,17.09,0,0,1,.78-2c0,.08,0,.19,0,.26a1.32,1.32,0,0,0,1.12,1.38,1.67,1.67,0,0,0,1.62-.54,2,2,0,0,1,.26-.22,2.07,2.07,0,0,0,.75.93c.51.34,1,.63,1.48.46a1.27,1.27,0,0,0,.7-.84,1.61,1.61,0,0,0-.25-1.68l-.14-.1,0-.08.11,0a.77.77,0,0,0,.43-.43,1.44,1.44,0,0,0,1.19-.08,2.1,2.1,0,0,1,.54-.15c.36,0,.44-.13,1.06-.74l.76-.77a1.1,1.1,0,0,0,.7-.33,1.41,1.41,0,0,0,.23-1.31,5.46,5.46,0,0,1-.25-1.71,1.64,1.64,0,0,0-.14-.64l.21,0a1.41,1.41,0,0,1,1,.43,1.19,1.19,0,0,0,1.75.08,3.54,3.54,0,0,0,.85-1,5.35,5.35,0,0,1,.26-.48c.08-.13.13-.15.39-.16a1,1,0,0,0,.8-.33,1.57,1.57,0,0,0,.17-1.26,1.09,1.09,0,0,0-.53-.9.59.59,0,0,0-.25-.05c.05-.27.13-.65.25-1.19.43-1.81.53-2.24,0-2.45h0c.13-.31.19-.59.11-2.35-.1-2.23,0-2.34.38-3.48.1-.27.23-.59.37-1,.33-.93.66-1.09.74-1.08s.24.21.24.52a1.19,1.19,0,0,0,.32,1,1.62,1.62,0,0,1-.06.62,3.27,3.27,0,0,1-.44,1.11c-.16.28-.35.6-.16.93s.67.36,1,.36.71,0,1-.05a2,2,0,0,1,1.24.13,4.66,4.66,0,0,1,.73.51c.5.4.92.74,1.39.62a.79.79,0,0,0,.52-.49,1,1,0,0,0-.09-1,1.63,1.63,0,0,1-.27-.88,6.84,6.84,0,0,1,0-2.22c0-.22,0-.45.06-.67s0-.41,0-.58l.31.22a1.8,1.8,0,0,0,1.4.44c-.87.55-1.31,1-1,1.88a1.36,1.36,0,0,1,.05.46.94.94,0,0,0,.33.87,1.1,1.1,0,0,0,1,0,5.86,5.86,0,0,1,.87-.26A3.75,3.75,0,0,0,985,96a2.73,2.73,0,0,0,1.39-2.1.28.28,0,0,1,0-.12c.39-.73-.16-1.12-.82-1.48a4.66,4.66,0,0,0-2.11-.83L983,91.4l.75-.2c1.12-.29,1.76-.45,1.89-.24a4,4,0,0,1,.25.57c.18.48.41,1.08,1.11,1.22a.67.67,0,0,1,.29.15.9.9,0,0,0,.68.19c.31-.07.52-.34.73-.71a3.45,3.45,0,0,0,.37-1.55,1,1,0,0,0,1,.25c.46-.19.52-.76.54-1a4.07,4.07,0,0,0-.22-1.62c-.16-.56-.22-.81,0-1.12.08-.12.14-.13.17-.13.29,0,.83.37,1.09.58l.26.19a1.17,1.17,0,0,0,.94.26,1.47,1.47,0,0,0,.82-.84,1.09,1.09,0,0,1,.54-.56,2.56,2.56,0,0,0,.66-.48l.28-.27a4.28,4.28,0,0,0,1-1.26,2.12,2.12,0,0,0,.29-1c0-.26,0-.38.69-.74a3.52,3.52,0,0,1,1.18-.46,2.78,2.78,0,0,0,1.17-.46,3.55,3.55,0,0,0,1.31-1.36,11.92,11.92,0,0,1,.77-1.09,6.46,6.46,0,0,1,1.07-1c.45-.35.85-.65.82-1.12A1.11,1.11,0,0,0,1002.74,76.8ZM902.15,258.14a.16.16,0,0,1-.08.11ZM880.35,245c-.1-.22-.2-.43-.31-.62-.36-.7-.32-.72-.13-.85a1.88,1.88,0,0,1,.87-.4.23.23,0,0,1,.18.08,1.28,1.28,0,0,0,1.27.15l.29-.06c0,.11,0,.15-.18.33a4.13,4.13,0,0,0-.71,1.1,1,1,0,0,0,0,.86,1.25,1.25,0,0,0,.7.62,3.42,3.42,0,0,1-1,.2,3.5,3.5,0,0,0-1.07.21A1.56,1.56,0,0,0,880.35,245Zm-14.76,31.25c0,.16-.06.41-.06.44a1.28,1.28,0,0,1-.58-.2l-.21-.11h.14a1.34,1.34,0,0,0,.75-.41C865.62,276,865.6,276.13,865.59,276.22Zm-29.54-9.64Zm-12,167-.13-.15a.28.28,0,0,1,.18.21ZM693.66,498.31a1,1,0,0,1,.28-.8,2.06,2.06,0,0,1,.15-.15,3,3,0,0,1,.64-.53.91.91,0,0,1-.33.65,4.49,4.49,0,0,0-.74,1Zm120.45-38.84-.19,0h0v0Zm-308.63,98a6.28,6.28,0,0,1-1.36.63,6.61,6.61,0,0,0-1.62.79,7.07,7.07,0,0,0-.59.54c-.42.4-.94.91-1.3.91a2.29,2.29,0,0,0-.66.1.41.41,0,0,1,0-.12,10.69,10.69,0,0,0-.4-3l-.11-.43a6.08,6.08,0,0,1-.23-1.07,5.75,5.75,0,0,1,.61.77,4.8,4.8,0,0,0,1.33,1.42l.28.17c.85.51,1.23.55,2.79-.29.53-.28,1.06-.5,1.54-.7A3.25,3.25,0,0,1,505.48,557.45ZM402.64,271Zm99.11-63v0h0ZM483.06,583.51l-.21,0c-.72.08-2.64.3-3.12-.18a2.68,2.68,0,0,1,.09-.69c.14-.53.14-.87-.41-1.88l-.05-.09a1.72,1.72,0,0,1,.27.27,6.25,6.25,0,0,1,.48.65c.34.51.72,1.09,1.72.8.23-.07.51-.18.8-.3a6.6,6.6,0,0,1,1-.35c0,.18-.05.34-.07.48-.07.53-.14,1,.16,1.22C483.52,583.47,483.29,583.49,483.06,583.51ZM637.14,360h0Zm8.34,148.59-.36-.25c-.49-.35-1.41-1-2.23,0q-.2.24-.36.48a2.52,2.52,0,0,1-2,1.28l-.76.12c-1.76.26-4.72.71-5.73.3a2,2,0,0,1-1.28-1.09.93.93,0,0,1,.31-.83,9.52,9.52,0,0,0,1.18-2c.47-1,1-2.06,1.57-2.23a4.57,4.57,0,0,1,1.33-.22,4.22,4.22,0,0,1,2.39.81,12,12,0,0,0,4.49,1.89c.2,0,.3.16.52.51a2,2,0,0,0,1.81,1.18C645.83,508.64,645.67,508.68,645.48,508.56ZM635.32,95.24a1.58,1.58,0,0,0,1.25-.37l.17-.12a2.27,2.27,0,0,0-.31.8,4.55,4.55,0,0,0,0,.84c0,.1,0,.23,0,.36l-.16-.16a6.45,6.45,0,0,0-1.43-1.22,1.13,1.13,0,0,1-.65-1,1.89,1.89,0,0,1,0-.58c.09.15.16.3.24.46C634.62,94.67,634.83,95.11,635.32,95.24ZM247.78,232.34ZM70.18,36.78a.7.7,0,0,1-.3,0s-.1,0-.19-.19a1.23,1.23,0,0,1,0-.73A2.65,2.65,0,0,0,70.18,36.78ZM32.8,261.54a2,2,0,0,0-.5,1.1c-.38-.33-.8-.66-1.23-1A4.58,4.58,0,0,0,32.8,261.54Zm-5.38-1.72a.58.58,0,0,1,.43.12l.19.18a8,8,0,0,0-1.55,0l-.74.05A6.18,6.18,0,0,1,27.42,259.82Zm851.89,28.94-.15-.06a4.43,4.43,0,0,1-2.08-1.3l-.34-.35c-.19-.19-.3-.31-.36-.38s-.15-.23-.41-.42l-.82-.66-.52-.42c.2.13.42.24.63.35a6.74,6.74,0,0,1,2,1.51,5.26,5.26,0,0,0,1.62,1.22c.56.25.63.4.72.58a.41.41,0,0,0,0,.09Zm2.8,2c-.32.05-.44.08-1-.4s-.41-.46-.43-.54l-.06-.21.14.05a7.61,7.61,0,0,1,1.25.56c.36.18.71.36,1,.5A2.8,2.8,0,0,0,882.11,290.8Zm-5,10.75c-.61-.08-1-.14-1.35-.2a1.3,1.3,0,0,0,.53-.8l.06,0a1.73,1.73,0,0,1,.7.5,2.06,2.06,0,0,0,.89.61C877.72,301.64,877.45,301.59,877.1,301.55ZM963.88,113l0,0,.19-.13A.39.39,0,0,1,963.88,113Zm-465.78,449,0,0c.08,0,.14,0,.17,0s.16.14.27.6A4.07,4.07,0,0,0,498.1,561.91Zm201-64.36a5.21,5.21,0,0,0,.4-2.42v-.33a.76.76,0,0,1,.09.43.9.9,0,0,0,.35.8,1.07,1.07,0,0,0,1-.06,2,2,0,0,0,1-1.74.19.19,0,0,0,0-.08l.56.36c.4.25,1,.63,1,.81a2.26,2.26,0,0,0-.14.47c-.1.42-.16.68-1.2.92a8.42,8.42,0,0,0-3.32,1.3C698.89,497.87,699,497.71,699.06,497.55Zm118.8-44.13.26.19A.38.38,0,0,1,817.86,453.42Zm4.49-9.94.33.23A.42.42,0,0,1,822.35,443.48Zm1.15-.69.3,0A.32.32,0,0,1,823.5,442.79Zm70.17-88.71-.24-.25A.36.36,0,0,1,893.67,354.08Zm6.4-19.19-.11,0-.48-.09a1.11,1.11,0,0,1,.51-.19l.1,0A2.92,2.92,0,0,1,900.07,334.89Zm10.7-98.59a.51.51,0,0,1-.07-.15l0,0,.07.21Zm.84-.12v0a.36.36,0,0,1-.22-.11l.22.08-.08-.39a.46.46,0,0,1,.1.4l0,0ZM964.5,112.89l-.61-.25a.26.26,0,0,1,.19-.08.34.34,0,0,1,.15,0l-.06-.09a.94.94,0,0,0-.2-.29s0,0,0-.08a2,2,0,0,0-.17-.61v0a1.23,1.23,0,0,0,.1-.44h0a1.14,1.14,0,0,0,.22-.22,3.87,3.87,0,0,0,.1,1.21l0,.17a1,1,0,0,0,.31.53Z"/><path class="b" d="M42.51,288.49a1.91,1.91,0,0,1-1.57-.82c-1.39-2-2.58-3.71-3.6-5.16-4.66-6.64-5.77-8.22-5.77-11.83a10.94,10.94,0,0,1,21.88,0c0,3.61-1.11,5.19-5.77,11.83-1,1.45-2.21,3.14-3.59,5.15A1.92,1.92,0,0,1,42.51,288.49Zm0-21.48a3.67,3.67,0,1,0,3.67,3.67A3.67,3.67,0,0,0,42.51,267Z"/><path class="a" d="M42.51,259.12A11.57,11.57,0,0,0,31,270.68c0,3.81,1.13,5.42,5.88,12.19,1,1.44,2.2,3.14,3.59,5.15a2.54,2.54,0,0,0,4.18,0c1.39-2,2.58-3.71,3.59-5.15,4.75-6.77,5.88-8.38,5.88-12.19A11.57,11.57,0,0,0,42.51,259.12Zm1.06,28.19a1.28,1.28,0,0,1-2.12,0c-7.8-11.31-9.25-12.47-9.25-16.63a10.31,10.31,0,0,1,20.62,0C52.82,274.84,51.37,276,43.57,287.31Z"/><path class="a" d="M42.51,266.38a4.22,4.22,0,0,0-1.67.34A4.28,4.28,0,0,0,38.55,269a4.27,4.27,0,0,0,0,3.34,4.4,4.4,0,0,0,.92,1.37,4.46,4.46,0,0,0,1.37.92,4.4,4.4,0,0,0,1.67.33,4.3,4.3,0,1,0,0-8.59Z"/><path class="b" d="M94.28,373.3a1.9,1.9,0,0,1-1.57-.83c-1.39-2-2.58-3.71-3.6-5.15-4.66-6.65-5.77-8.22-5.77-11.84a10.94,10.94,0,0,1,21.88,0c0,3.62-1.11,5.2-5.77,11.84-1,1.44-2.2,3.14-3.59,5.15A1.92,1.92,0,0,1,94.28,373.3Zm0-21.49A3.68,3.68,0,1,0,98,355.48,3.68,3.68,0,0,0,94.28,351.81Z"/><path class="a" d="M94.28,343.92a11.58,11.58,0,0,0-11.56,11.56c0,3.82,1.13,5.42,5.88,12.2,1,1.44,2.2,3.13,3.59,5.15a2.57,2.57,0,0,0,2.09,1.09,2.54,2.54,0,0,0,2.09-1.09c1.39-2,2.58-3.71,3.59-5.15,4.76-6.78,5.88-8.38,5.88-12.2A11.57,11.57,0,0,0,94.28,343.92Zm1.06,28.2a1.27,1.27,0,0,1-1.06.55,1.28,1.28,0,0,1-1.06-.55C85.42,360.8,84,359.64,84,355.48a10.31,10.31,0,0,1,20.62,0C104.59,359.64,103.15,360.8,95.34,372.12Z"/><path class="a" d="M94.28,351.19A4.27,4.27,0,0,0,90,355.48a4.45,4.45,0,0,0,.33,1.68,4.54,4.54,0,0,0,.92,1.36,4.32,4.32,0,0,0,3,1.26,4.3,4.3,0,1,0,0-8.59Z"/><path class="b" d="M140.34,331.8a1.92,1.92,0,0,1-1.58-.83c-1.39-2-2.58-3.71-3.59-5.15-4.66-6.64-5.77-8.22-5.77-11.83a10.94,10.94,0,1,1,21.87,0c0,3.61-1.1,5.19-5.77,11.83-1,1.45-2.2,3.14-3.59,5.15A1.9,1.9,0,0,1,140.34,331.8Zm0-21.49A3.68,3.68,0,1,0,144,314,3.68,3.68,0,0,0,140.34,310.31Z"/><path class="a" d="M140.34,302.42A11.58,11.58,0,0,0,128.77,314c0,3.81,1.13,5.42,5.89,12.19,1,1.44,2.2,3.13,3.59,5.15a2.54,2.54,0,0,0,4.17,0c1.4-2,2.58-3.71,3.6-5.15,4.75-6.77,5.88-8.38,5.88-12.19A11.58,11.58,0,0,0,140.34,302.42Zm1.06,28.2a1.28,1.28,0,0,1-1.06.55,1.26,1.26,0,0,1-1.06-.55C131.47,319.31,130,318.14,130,314a10.32,10.32,0,1,1,20.63,0C150.65,318.14,149.2,319.31,141.4,330.62Z"/><path class="a" d="M140.34,309.69a4.27,4.27,0,0,0-1.68.34,4.33,4.33,0,0,0-2.28,2.28,4.3,4.3,0,0,0,0,3.35,4.09,4.09,0,0,0,.92,1.36,4.39,4.39,0,0,0,1.36.93,4.45,4.45,0,0,0,1.68.33,4.3,4.3,0,0,0,0-8.59Z"/><path class="b" d="M300.6,467.89a1.93,1.93,0,0,1-1.57-.82c-1.39-2-2.58-3.72-3.59-5.16-4.67-6.64-5.77-8.22-5.77-11.83a10.94,10.94,0,1,1,21.87,0c0,3.61-1.11,5.19-5.77,11.83-1,1.45-2.2,3.14-3.59,5.15A1.92,1.92,0,0,1,300.6,467.89Zm0-21.49a3.68,3.68,0,1,0,3.68,3.68A3.68,3.68,0,0,0,300.6,446.4Z"/><path class="a" d="M300.6,438.51A11.58,11.58,0,0,0,289,450.08c0,3.81,1.13,5.42,5.88,12.19,1,1.44,2.21,3.13,3.6,5.15a2.54,2.54,0,0,0,4.17,0c1.39-2,2.58-3.71,3.59-5.15,4.76-6.77,5.89-8.38,5.89-12.19A11.58,11.58,0,0,0,300.6,438.51Zm1.06,28.2a1.26,1.26,0,0,1-1.06.55,1.28,1.28,0,0,1-1.06-.55c-7.8-11.31-9.25-12.48-9.25-16.63a10.32,10.32,0,1,1,20.63,0C310.92,454.23,309.47,455.4,301.66,466.71Z"/><path class="a" d="M300.6,445.78a4.26,4.26,0,0,0-1.67.34,4.09,4.09,0,0,0-1.36.92,4.39,4.39,0,0,0-.93,1.36,4.45,4.45,0,0,0-.33,1.68,4.4,4.4,0,0,0,.33,1.67,4.46,4.46,0,0,0,2.29,2.29,4.44,4.44,0,0,0,1.67.33,4.3,4.3,0,1,0,0-8.59Z"/><path class="b" d="M498.3,468.22a1.92,1.92,0,0,1-1.58-.83c-1.39-2-2.58-3.71-3.59-5.15-4.66-6.64-5.77-8.22-5.77-11.83a10.94,10.94,0,1,1,21.87,0c0,3.61-1.1,5.19-5.77,11.83-1,1.45-2.2,3.14-3.59,5.15A1.92,1.92,0,0,1,498.3,468.22Zm0-21.49a3.68,3.68,0,1,0,3.67,3.68A3.68,3.68,0,0,0,498.3,446.73Z"/><path class="a" d="M498.3,438.84a11.58,11.58,0,0,0-11.57,11.57c0,3.81,1.13,5.42,5.89,12.19,1,1.44,2.2,3.13,3.59,5.15a2.54,2.54,0,0,0,4.17,0c1.39-2,2.58-3.71,3.6-5.15,4.75-6.77,5.88-8.38,5.88-12.19A11.58,11.58,0,0,0,498.3,438.84Zm1.06,28.2a1.28,1.28,0,0,1-1.06.55,1.26,1.26,0,0,1-1.06-.55c-7.81-11.31-9.26-12.48-9.26-16.63a10.32,10.32,0,1,1,20.63,0C508.61,454.56,507.16,455.73,499.36,467Z"/><path class="a" d="M498.3,446.11a4.27,4.27,0,0,0-1.68.34,4.33,4.33,0,0,0-2.28,2.28,4.3,4.3,0,0,0,0,3.35,4.09,4.09,0,0,0,.92,1.36,4.39,4.39,0,0,0,1.36.93,4.45,4.45,0,0,0,1.68.33,4.3,4.3,0,0,0,0-8.59Z"/><path class="b" d="M441.23,576.85a1.92,1.92,0,0,1-1.58-.83c-1.39-2-2.58-3.71-3.59-5.15-4.66-6.64-5.77-8.22-5.77-11.83a10.94,10.94,0,1,1,21.87,0c0,3.61-1.1,5.19-5.77,11.83-1,1.45-2.2,3.14-3.59,5.15A1.9,1.9,0,0,1,441.23,576.85Zm0-21.49A3.68,3.68,0,1,0,444.9,559,3.67,3.67,0,0,0,441.23,555.36Z"/><path class="a" d="M441.23,547.47A11.58,11.58,0,0,0,429.66,559c0,3.81,1.13,5.42,5.89,12.19,1,1.44,2.2,3.13,3.59,5.15a2.54,2.54,0,0,0,4.17,0c1.4-2,2.58-3.71,3.6-5.15,4.75-6.77,5.88-8.38,5.88-12.19A11.58,11.58,0,0,0,441.23,547.47Zm1.06,28.2a1.28,1.28,0,0,1-1.06.55,1.27,1.27,0,0,1-1.06-.55c-7.81-11.32-9.26-12.48-9.26-16.63a10.32,10.32,0,1,1,20.63,0C451.54,563.19,450.09,564.35,442.29,575.67Z"/><path class="a" d="M441.23,554.74a4.27,4.27,0,0,0-1.68.34,4.19,4.19,0,0,0-1.36.92,4.36,4.36,0,0,0-.92,1.36,4.3,4.3,0,0,0,0,3.35,4.36,4.36,0,0,0,.92,1.36,4.19,4.19,0,0,0,1.36.92,4.3,4.3,0,1,0,1.68-8.25Z"/><path class="b" d="M462.1,602.7a1.89,1.89,0,0,1-1.57-.82c-1.39-2-2.58-3.71-3.6-5.16-4.66-6.64-5.77-8.22-5.77-11.83a10.94,10.94,0,0,1,21.88,0c0,3.62-1.11,5.19-5.77,11.84-1,1.44-2.2,3.13-3.59,5.15A1.91,1.91,0,0,1,462.1,602.7Zm0-21.48a3.67,3.67,0,1,0,3.67,3.67A3.68,3.68,0,0,0,462.1,581.22Z"/><path class="a" d="M462.1,573.33a11.58,11.58,0,0,0-11.56,11.56c0,3.81,1.13,5.42,5.88,12.19,1,1.45,2.2,3.14,3.59,5.15a2.54,2.54,0,0,0,4.18,0c1.39-2,2.58-3.71,3.59-5.16,4.76-6.77,5.89-8.38,5.89-12.19A11.58,11.58,0,0,0,462.1,573.33Zm1.06,28.19a1.28,1.28,0,0,1-1.06.56,1.29,1.29,0,0,1-1.06-.56c-7.8-11.31-9.25-12.47-9.25-16.63a10.32,10.32,0,0,1,20.63,0C472.42,589.05,471,590.21,463.16,601.52Z"/><path class="a" d="M462.1,580.59a4.22,4.22,0,0,0-1.67.34,4.4,4.4,0,0,0-1.37.92,4.46,4.46,0,0,0-.92,1.37,4.39,4.39,0,0,0,0,3.34,4.46,4.46,0,0,0,.92,1.37,4.4,4.4,0,0,0,1.37.92,4.22,4.22,0,0,0,1.67.34,4.3,4.3,0,1,0,0-8.6Z"/><path class="b" d="M478.45,617.33a1.92,1.92,0,0,1-1.57-.83c-1.39-2-2.58-3.71-3.59-5.15-4.67-6.64-5.77-8.22-5.77-11.83a10.94,10.94,0,1,1,21.87,0c0,3.61-1.11,5.19-5.77,11.83-1,1.45-2.2,3.14-3.59,5.15A1.92,1.92,0,0,1,478.45,617.33Zm0-21.49a3.68,3.68,0,1,0,3.68,3.68A3.68,3.68,0,0,0,478.45,595.84Z"/><path class="a" d="M478.45,588a11.58,11.58,0,0,0-11.56,11.57c0,3.81,1.13,5.42,5.88,12.19,1,1.44,2.21,3.13,3.6,5.15a2.54,2.54,0,0,0,4.17,0c1.39-2,2.58-3.71,3.59-5.15,4.76-6.77,5.89-8.38,5.89-12.19A11.58,11.58,0,0,0,478.45,588Zm1.06,28.2a1.29,1.29,0,0,1-2.11,0c-7.81-11.32-9.26-12.48-9.26-16.63a10.32,10.32,0,1,1,20.63,0C488.77,603.67,487.32,604.83,479.51,616.15Z"/><path class="a" d="M478.45,595.22a4.26,4.26,0,0,0-1.67.34,4.33,4.33,0,0,0-2.28,2.28,4.3,4.3,0,0,0,0,3.35,4.09,4.09,0,0,0,.92,1.36,4.19,4.19,0,0,0,1.36.92,4.3,4.3,0,1,0,1.67-8.25Z"/><path class="b" d="M463,536.33a1.91,1.91,0,0,1-1.58-.82c-1.39-2-2.58-3.71-3.59-5.16-4.66-6.64-5.77-8.22-5.77-11.83a10.94,10.94,0,1,1,21.87,0c0,3.61-1.1,5.19-5.77,11.84-1,1.44-2.2,3.13-3.59,5.15A1.91,1.91,0,0,1,463,536.33Zm0-21.48a3.67,3.67,0,1,0,3.67,3.67A3.68,3.68,0,0,0,463,514.85Z"/><path class="a" d="M463,507a11.58,11.58,0,0,0-11.57,11.56c0,3.81,1.13,5.42,5.89,12.19,1,1.45,2.2,3.14,3.59,5.15a2.53,2.53,0,0,0,4.17,0c1.39-2,2.58-3.7,3.6-5.15,4.75-6.77,5.88-8.38,5.88-12.19A11.58,11.58,0,0,0,463,507Zm1.06,28.19a1.29,1.29,0,0,1-1.06.56,1.27,1.27,0,0,1-1.06-.56c-7.81-11.31-9.26-12.47-9.26-16.63a10.32,10.32,0,0,1,20.63,0C473.3,522.68,471.85,523.84,464.05,535.15Z"/><path class="a" d="M463,514.22a4.27,4.27,0,0,0-1.68.34,4.36,4.36,0,0,0-1.36.92,4.13,4.13,0,0,0-.92,1.37,4.27,4.27,0,0,0,0,3.34,4.13,4.13,0,0,0,.92,1.37,4.36,4.36,0,0,0,1.36.92,4.3,4.3,0,1,0,1.68-8.26Z"/><path class="b" d="M485.73,537.37a1.92,1.92,0,0,1-1.57-.83c-1.39-2-2.58-3.71-3.59-5.16-4.67-6.64-5.77-8.21-5.77-11.83a10.94,10.94,0,0,1,21.87,0c0,3.62-1.11,5.19-5.77,11.84-1,1.44-2.2,3.14-3.59,5.15A1.92,1.92,0,0,1,485.73,537.37Zm0-21.49a3.67,3.67,0,1,0,3.68,3.67A3.68,3.68,0,0,0,485.73,515.88Z"/><path class="a" d="M485.73,508a11.58,11.58,0,0,0-11.56,11.56c0,3.81,1.13,5.42,5.88,12.19,1,1.45,2.21,3.14,3.6,5.16a2.54,2.54,0,0,0,4.17,0c1.39-2,2.58-3.71,3.59-5.16,4.76-6.77,5.89-8.38,5.89-12.19A11.58,11.58,0,0,0,485.73,508Zm1.06,28.2a1.26,1.26,0,0,1-1.06.55,1.28,1.28,0,0,1-1.06-.55c-7.8-11.32-9.25-12.48-9.25-16.64a10.32,10.32,0,0,1,20.63,0C496.05,523.71,494.6,524.87,486.79,536.19Z"/><path class="a" d="M485.73,515.26a4.21,4.21,0,0,0-3,1.25,4.3,4.3,0,0,0,3,7.34,4.3,4.3,0,1,0,0-8.59Z"/><path class="b" d="M487.6,564.87A1.92,1.92,0,0,1,486,564c-1.39-2-2.58-3.71-3.59-5.16-4.66-6.64-5.77-8.21-5.77-11.83a10.94,10.94,0,0,1,21.88,0c0,3.62-1.11,5.19-5.77,11.84-1,1.44-2.21,3.14-3.6,5.15A1.89,1.89,0,0,1,487.6,564.87Zm0-21.49a3.67,3.67,0,1,0,3.67,3.67A3.67,3.67,0,0,0,487.6,543.38Z"/><path class="a" d="M487.6,535.49A11.57,11.57,0,0,0,476,547.05c0,3.81,1.13,5.42,5.88,12.19,1,1.45,2.2,3.14,3.59,5.16a2.55,2.55,0,0,0,4.18,0c1.39-2,2.57-3.71,3.59-5.16,4.75-6.77,5.88-8.38,5.88-12.19A11.58,11.58,0,0,0,487.6,535.49Zm1.06,28.2a1.28,1.28,0,0,1-1.06.55,1.27,1.27,0,0,1-1.06-.55c-7.81-11.32-9.25-12.48-9.25-16.64a10.31,10.31,0,0,1,20.62,0C497.91,551.21,496.46,552.37,488.66,563.69Z"/><path class="a" d="M487.6,542.76a4.4,4.4,0,0,0-1.67.33,4.46,4.46,0,0,0-1.37.92,4.4,4.4,0,0,0-.92,1.37,4.22,4.22,0,0,0-.34,1.67,4.27,4.27,0,0,0,.34,1.68,4.36,4.36,0,0,0,.92,1.36,4.29,4.29,0,0,0,1.37.92,4.22,4.22,0,0,0,1.67.34,4.3,4.3,0,1,0,0-8.59Z"/><path class="b" d="M513.21,529a1.9,1.9,0,0,1-1.57-.83c-1.39-2-2.58-3.71-3.6-5.15-4.66-6.64-5.76-8.22-5.76-11.83a10.94,10.94,0,1,1,21.87,0c0,3.61-1.11,5.19-5.77,11.83-1,1.45-2.2,3.14-3.59,5.15A1.92,1.92,0,0,1,513.21,529Zm0-21.49a3.68,3.68,0,1,0,3.67,3.68A3.68,3.68,0,0,0,513.21,507.49Z"/><path class="a" d="M513.21,499.6a11.58,11.58,0,0,0-11.56,11.57c0,3.81,1.13,5.42,5.88,12.19,1,1.44,2.2,3.13,3.59,5.15a2.57,2.57,0,0,0,2.09,1.09,2.54,2.54,0,0,0,2.09-1.09c1.39-2,2.58-3.71,3.59-5.15,4.76-6.77,5.89-8.38,5.89-12.19A11.58,11.58,0,0,0,513.21,499.6Zm1.06,28.2a1.26,1.26,0,0,1-1.06.55,1.28,1.28,0,0,1-1.06-.55c-7.8-11.32-9.25-12.48-9.25-16.63a10.32,10.32,0,1,1,20.63,0C523.53,515.32,522.08,516.48,514.27,527.8Z"/><path class="a" d="M513.21,506.87a4.32,4.32,0,0,0-3,1.26,4.54,4.54,0,0,0-.92,1.36,4.28,4.28,0,0,0,.92,4.71,4.32,4.32,0,0,0,3,1.26,4.3,4.3,0,1,0,0-8.59Z"/><path class="b" d="M533.61,537.17a1.93,1.93,0,0,1-1.57-.82c-1.39-2-2.58-3.71-3.6-5.16-4.66-6.64-5.76-8.22-5.76-11.83a10.94,10.94,0,1,1,21.87,0c0,3.61-1.11,5.19-5.77,11.83-1,1.45-2.2,3.14-3.59,5.16A1.94,1.94,0,0,1,533.61,537.17Zm0-21.48a3.67,3.67,0,1,0,3.67,3.67A3.67,3.67,0,0,0,533.61,515.69Z"/><path class="a" d="M533.61,507.8a11.57,11.57,0,0,0-11.56,11.56c0,3.81,1.13,5.42,5.88,12.19,1,1.45,2.2,3.14,3.59,5.15a2.55,2.55,0,0,0,2.09,1.1,2.52,2.52,0,0,0,2.09-1.1c1.39-2,2.58-3.7,3.59-5.15,4.76-6.77,5.89-8.38,5.89-12.19A11.57,11.57,0,0,0,533.61,507.8ZM534.67,536a1.27,1.27,0,0,1-1.06.56,1.29,1.29,0,0,1-1.06-.56c-7.8-11.31-9.25-12.47-9.25-16.63a10.32,10.32,0,0,1,20.63,0C543.93,523.52,542.48,524.68,534.67,536Z"/><path class="a" d="M533.61,515.06a4.28,4.28,0,0,0-3,1.26,4.32,4.32,0,0,0-.93,1.37,4.39,4.39,0,0,0,0,3.34,4.32,4.32,0,0,0,.93,1.37,4.28,4.28,0,0,0,3,1.26,4.3,4.3,0,0,0,0-8.6Z"/><path class="b" d="M697.86,357.11a1.89,1.89,0,0,1-1.57-.83c-1.39-2-2.58-3.71-3.6-5.15-4.66-6.64-5.77-8.22-5.77-11.84a10.94,10.94,0,0,1,21.88,0c0,3.62-1.11,5.2-5.77,11.84-1,1.44-2.2,3.14-3.59,5.15A1.92,1.92,0,0,1,697.86,357.11Zm0-21.49a3.68,3.68,0,1,0,3.67,3.67A3.68,3.68,0,0,0,697.86,335.62Z"/><path class="a" d="M697.86,327.73a11.58,11.58,0,0,0-11.56,11.56c0,3.82,1.13,5.42,5.88,12.2,1,1.44,2.2,3.13,3.59,5.15a2.55,2.55,0,0,0,4.18,0c1.39-2,2.58-3.71,3.59-5.15,4.75-6.78,5.88-8.38,5.88-12.2A11.57,11.57,0,0,0,697.86,327.73Zm1.06,28.2a1.27,1.27,0,0,1-1.06.55,1.28,1.28,0,0,1-1.06-.55c-7.8-11.32-9.25-12.48-9.25-16.64a10.31,10.31,0,1,1,20.62,0C708.17,343.45,706.73,344.61,698.92,355.93Z"/><path class="a" d="M697.86,335a4.22,4.22,0,0,0-1.67.34,4.13,4.13,0,0,0-1.37.92,4.29,4.29,0,0,0-.92,4.71,4.36,4.36,0,0,0,.92,1.36,4.13,4.13,0,0,0,1.37.92,4.22,4.22,0,0,0,1.67.34,4.3,4.3,0,1,0,0-8.59Z"/><path class="b" d="M811.73,362.22a1.89,1.89,0,0,1-1.57-.83c-1.39-2-2.58-3.71-3.6-5.15-4.66-6.64-5.77-8.22-5.77-11.84a10.94,10.94,0,0,1,21.88,0c0,3.62-1.11,5.2-5.77,11.84-1,1.44-2.2,3.14-3.59,5.15A1.92,1.92,0,0,1,811.73,362.22Zm0-21.49a3.68,3.68,0,1,0,3.67,3.67A3.68,3.68,0,0,0,811.73,340.73Z"/><path class="a" d="M811.73,332.84a11.58,11.58,0,0,0-11.56,11.56c0,3.82,1.13,5.43,5.88,12.2,1,1.44,2.2,3.13,3.59,5.15a2.55,2.55,0,0,0,4.18,0c1.39-2,2.58-3.71,3.59-5.15,4.75-6.77,5.88-8.38,5.88-12.2A11.57,11.57,0,0,0,811.73,332.84Zm1.06,28.2a1.27,1.27,0,0,1-1.06.55,1.28,1.28,0,0,1-1.06-.55c-7.8-11.32-9.25-12.48-9.25-16.64a10.31,10.31,0,1,1,20.62,0C822,348.56,820.6,349.72,812.79,361Z"/><path class="a" d="M811.73,340.11a4.22,4.22,0,0,0-1.67.34,4.13,4.13,0,0,0-1.37.92,4.36,4.36,0,0,0-.92,1.36,4.3,4.3,0,0,0,0,3.35,4.36,4.36,0,0,0,.92,1.36,4.13,4.13,0,0,0,1.37.92,4.22,4.22,0,0,0,1.67.34,4.3,4.3,0,1,0,0-8.59Z"/><path class="b" d="M692.45,259.2a1.92,1.92,0,0,1-1.57-.83c-1.39-2-2.58-3.71-3.59-5.16-4.66-6.64-5.77-8.21-5.77-11.83a10.94,10.94,0,0,1,21.87,0c0,3.62-1.11,5.2-5.77,11.84-1,1.44-2.2,3.14-3.59,5.15A1.92,1.92,0,0,1,692.45,259.2Zm0-21.49a3.68,3.68,0,1,0,3.68,3.67A3.68,3.68,0,0,0,692.45,237.71Z"/><path class="a" d="M692.46,229.82a11.58,11.58,0,0,0-11.57,11.56c0,3.81,1.13,5.42,5.89,12.2,1,1.44,2.2,3.13,3.59,5.15a2.54,2.54,0,0,0,4.17,0c1.39-2,2.58-3.71,3.59-5.15,4.76-6.78,5.89-8.39,5.89-12.2A11.58,11.58,0,0,0,692.46,229.82Zm1,28.2a1.29,1.29,0,0,1-2.11,0c-7.81-11.32-9.26-12.48-9.26-16.64a10.32,10.32,0,0,1,20.63,0C702.77,245.54,701.32,246.7,693.51,258Z"/><path class="a" d="M692.46,237.09a4.45,4.45,0,0,0-1.68.33,4.39,4.39,0,0,0-1.36.93,4.09,4.09,0,0,0-.92,1.36,4.22,4.22,0,0,0-.34,1.67,4.27,4.27,0,0,0,.34,1.68,4.33,4.33,0,0,0,2.28,2.28,4.3,4.3,0,1,0,1.68-8.25Z"/><path class="b" d="M674,227.22a1.93,1.93,0,0,1-1.57-.82c-1.39-2-2.58-3.71-3.59-5.16C664.14,214.6,663,213,663,209.41a10.94,10.94,0,1,1,21.87,0c0,3.61-1.11,5.19-5.77,11.84-1,1.44-2.2,3.13-3.59,5.15A1.94,1.94,0,0,1,674,227.22Zm0-21.48a3.67,3.67,0,1,0,3.68,3.67A3.68,3.68,0,0,0,674,205.74Z"/><path class="a" d="M674,197.85a11.58,11.58,0,0,0-11.56,11.56c0,3.81,1.13,5.42,5.88,12.19,1,1.45,2.21,3.14,3.6,5.15a2.53,2.53,0,0,0,4.17,0c1.39-2,2.58-3.7,3.59-5.15,4.76-6.77,5.89-8.38,5.89-12.19A11.58,11.58,0,0,0,674,197.85ZM675,226a1.27,1.27,0,0,1-1.06.56,1.29,1.29,0,0,1-1.06-.56c-7.8-11.31-9.25-12.47-9.25-16.63a10.32,10.32,0,0,1,20.63,0C684.29,213.57,682.84,214.73,675,226Z"/><path class="a" d="M674,205.11a4.28,4.28,0,0,0-3,1.26,4.13,4.13,0,0,0-.92,1.37,4.27,4.27,0,0,0,0,3.34,4.13,4.13,0,0,0,.92,1.37,4.28,4.28,0,0,0,3,1.26,4.3,4.3,0,0,0,0-8.6Z"/><path class="b" d="M860.71,256.45a1.89,1.89,0,0,1-1.57-.83c-1.39-2-2.58-3.71-3.6-5.16-4.66-6.64-5.77-8.21-5.77-11.83a10.94,10.94,0,0,1,21.88,0c0,3.62-1.11,5.2-5.77,11.84-1,1.44-2.21,3.14-3.6,5.15A1.89,1.89,0,0,1,860.71,256.45Zm0-21.49a3.68,3.68,0,1,0,3.67,3.67A3.68,3.68,0,0,0,860.71,235Z"/><path class="a" d="M860.71,227.07a11.57,11.57,0,0,0-11.56,11.56c0,3.81,1.13,5.42,5.88,12.2,1,1.44,2.2,3.13,3.59,5.15a2.55,2.55,0,0,0,4.18,0c1.39-2,2.58-3.71,3.59-5.15,4.75-6.78,5.88-8.39,5.88-12.2A11.57,11.57,0,0,0,860.71,227.07Zm1.06,28.2a1.3,1.3,0,0,1-2.12,0c-7.8-11.32-9.25-12.48-9.25-16.64a10.31,10.31,0,1,1,20.62,0C871,242.79,869.57,244,861.77,255.27Z"/><path class="a" d="M860.71,234.34a4.4,4.4,0,0,0-1.67.33,4.32,4.32,0,0,0-1.37.93,4.29,4.29,0,0,0-.92,4.71,4.36,4.36,0,0,0,.92,1.36,4.13,4.13,0,0,0,1.37.92,4.22,4.22,0,0,0,1.67.34,4.3,4.3,0,1,0,0-8.59Z"/><path class="b" d="M888.92,258.55a1.88,1.88,0,0,1-1.57-.82c-1.4-2-2.59-3.71-3.6-5.16-4.66-6.64-5.77-8.21-5.77-11.83a10.94,10.94,0,0,1,21.88,0c0,3.62-1.11,5.19-5.77,11.84-1,1.44-2.21,3.13-3.6,5.15A1.88,1.88,0,0,1,888.92,258.55Zm0-21.48a3.67,3.67,0,1,0,3.67,3.67A3.67,3.67,0,0,0,888.92,237.07Z"/><path class="a" d="M888.92,229.18a11.57,11.57,0,0,0-11.56,11.56c0,3.81,1.13,5.42,5.88,12.19,1,1.45,2.2,3.14,3.59,5.15a2.54,2.54,0,0,0,4.18,0c1.39-2,2.58-3.71,3.59-5.16,4.75-6.77,5.88-8.38,5.88-12.19A11.58,11.58,0,0,0,888.92,229.18ZM890,257.37a1.28,1.28,0,0,1-2.12,0c-7.8-11.31-9.25-12.47-9.25-16.63a10.31,10.31,0,0,1,20.62,0C899.23,244.9,897.78,246.06,890,257.37Z"/><path class="a" d="M888.92,236.45a4.4,4.4,0,0,0-1.67.33,4.29,4.29,0,0,0-1.37.92,4.4,4.4,0,0,0-.92,1.37,4.27,4.27,0,0,0,0,3.34,4.28,4.28,0,0,0,2.29,2.29,4.22,4.22,0,0,0,1.67.34,4.3,4.3,0,1,0,0-8.59Z"/><path class="b" d="M873.38,274.45a1.92,1.92,0,0,1-1.58-.83c-1.39-2-2.58-3.71-3.59-5.16-4.66-6.64-5.77-8.21-5.77-11.83a10.94,10.94,0,0,1,21.87,0c0,3.62-1.1,5.2-5.77,11.84-1,1.44-2.2,3.14-3.59,5.15A1.92,1.92,0,0,1,873.38,274.45Zm0-21.49a3.68,3.68,0,1,0,3.67,3.67A3.68,3.68,0,0,0,873.38,253Z"/><path class="a" d="M873.38,245.07a11.58,11.58,0,0,0-11.57,11.56c0,3.81,1.13,5.42,5.89,12.2,1,1.44,2.2,3.13,3.59,5.15a2.54,2.54,0,0,0,4.17,0c1.39-2,2.58-3.71,3.6-5.15,4.75-6.78,5.88-8.39,5.88-12.2A11.58,11.58,0,0,0,873.38,245.07Zm1.06,28.2a1.28,1.28,0,0,1-1.06.55,1.26,1.26,0,0,1-1.06-.55c-7.81-11.32-9.26-12.48-9.26-16.64a10.32,10.32,0,0,1,20.63,0C883.69,260.79,882.24,262,874.44,273.27Z"/><path class="a" d="M873.38,252.34a4.45,4.45,0,0,0-1.68.33,4.39,4.39,0,0,0-1.36.93,4.09,4.09,0,0,0-.92,1.36,4.22,4.22,0,0,0-.34,1.67,4.27,4.27,0,0,0,.34,1.68,4.33,4.33,0,0,0,2.28,2.28,4.3,4.3,0,1,0,1.68-8.25Z"/><path class="b" d="M473.59,467.36a1.93,1.93,0,0,1-1.57-.82c-1.39-2-2.58-3.72-3.59-5.16-4.67-6.64-5.77-8.22-5.77-11.83a10.94,10.94,0,1,1,21.87,0c0,3.61-1.11,5.19-5.77,11.83-1,1.45-2.2,3.14-3.59,5.15A1.92,1.92,0,0,1,473.59,467.36Zm0-21.49a3.68,3.68,0,1,0,3.68,3.68A3.68,3.68,0,0,0,473.59,445.87Z"/><path class="a" d="M473.59,438A11.58,11.58,0,0,0,462,449.55c0,3.81,1.13,5.42,5.88,12.19,1,1.44,2.21,3.13,3.6,5.15a2.54,2.54,0,0,0,4.17,0c1.39-2,2.58-3.71,3.59-5.15,4.76-6.77,5.89-8.38,5.89-12.19A11.58,11.58,0,0,0,473.59,438Zm1.06,28.2a1.26,1.26,0,0,1-1.06.55,1.28,1.28,0,0,1-1.06-.55c-7.8-11.31-9.25-12.48-9.25-16.63a10.32,10.32,0,1,1,20.63,0C483.91,453.7,482.46,454.87,474.65,466.18Z"/><path class="a" d="M473.59,445.25a4.26,4.26,0,0,0-1.67.34,4.36,4.36,0,0,0-1.36.92,4.19,4.19,0,0,0-.92,1.36,4.27,4.27,0,0,0-.34,1.68,4.32,4.32,0,0,0,1.26,3,4.54,4.54,0,0,0,1.36.92,4.44,4.44,0,0,0,1.67.33,4.3,4.3,0,1,0,0-8.59Z"/><path class="b" d="M103.59,415a1.9,1.9,0,0,1-1.57-.83c-1.39-2-2.58-3.71-3.6-5.15-4.66-6.64-5.77-8.22-5.77-11.84a10.94,10.94,0,0,1,21.88,0c0,3.62-1.11,5.2-5.77,11.84-1,1.44-2.2,3.14-3.59,5.15A1.92,1.92,0,0,1,103.59,415Zm0-21.49a3.68,3.68,0,1,0,3.67,3.67A3.68,3.68,0,0,0,103.59,393.48Z"/><path class="a" d="M103.59,385.59A11.58,11.58,0,0,0,92,397.15c0,3.82,1.13,5.42,5.88,12.2,1,1.44,2.2,3.13,3.59,5.15a2.57,2.57,0,0,0,2.09,1.09,2.54,2.54,0,0,0,2.09-1.09c1.39-2,2.58-3.71,3.59-5.15,4.76-6.78,5.89-8.38,5.89-12.2A11.58,11.58,0,0,0,103.59,385.59Zm1.06,28.2a1.27,1.27,0,0,1-1.06.55,1.28,1.28,0,0,1-1.06-.55c-7.8-11.32-9.25-12.48-9.25-16.64a10.32,10.32,0,0,1,20.63,0C113.91,401.31,112.46,402.47,104.65,413.79Z"/><path class="a" d="M103.59,392.86a4.32,4.32,0,0,0-3,1.26,4.54,4.54,0,0,0-.92,1.36,4.42,4.42,0,0,0,0,3.35,4.54,4.54,0,0,0,.92,1.36,4.32,4.32,0,0,0,3,1.26,4.3,4.3,0,1,0,0-8.59Z"/><path class="b" d="M81.74,414.9a1.89,1.89,0,0,1-1.57-.82c-1.39-2-2.58-3.71-3.6-5.16-4.66-6.64-5.76-8.21-5.76-11.83a10.94,10.94,0,1,1,21.87,0c0,3.62-1.11,5.19-5.77,11.84-1,1.44-2.2,3.13-3.59,5.15A1.91,1.91,0,0,1,81.74,414.9Zm0-21.48a3.67,3.67,0,1,0,3.67,3.67A3.68,3.68,0,0,0,81.74,393.42Z"/><path class="a" d="M81.74,385.53a11.58,11.58,0,0,0-11.56,11.56c0,3.81,1.13,5.42,5.88,12.19,1,1.45,2.2,3.14,3.59,5.15a2.54,2.54,0,0,0,4.18,0c1.39-2,2.58-3.71,3.59-5.16,4.76-6.77,5.89-8.38,5.89-12.19A11.58,11.58,0,0,0,81.74,385.53Zm1.06,28.19a1.27,1.27,0,0,1-1.06.56,1.29,1.29,0,0,1-1.06-.56c-7.8-11.31-9.25-12.47-9.25-16.63a10.32,10.32,0,0,1,20.63,0C92.06,401.25,90.61,402.41,82.8,413.72Z"/><path class="a" d="M81.74,392.8a4.26,4.26,0,0,0-3,1.25,4.58,4.58,0,0,0-.92,1.37,4.39,4.39,0,0,0,0,3.34,4.46,4.46,0,0,0,.92,1.37,4.4,4.4,0,0,0,1.37.92,4.22,4.22,0,0,0,1.67.34,4.3,4.3,0,1,0,0-8.59Z"/><path class="b" d="M73.49,365.47a1.9,1.9,0,0,1-1.57-.83c-1.39-2-2.58-3.71-3.6-5.15-4.66-6.64-5.76-8.22-5.76-11.83a10.94,10.94,0,1,1,21.87,0c0,3.61-1.11,5.19-5.77,11.83-1,1.45-2.2,3.14-3.59,5.15A1.92,1.92,0,0,1,73.49,365.47Zm0-21.49a3.68,3.68,0,1,0,3.67,3.68A3.68,3.68,0,0,0,73.49,344Z"/><path class="a" d="M73.49,336.09a11.58,11.58,0,0,0-11.56,11.57c0,3.81,1.13,5.42,5.88,12.19,1,1.44,2.2,3.13,3.59,5.15a2.57,2.57,0,0,0,2.09,1.09A2.54,2.54,0,0,0,75.58,365c1.39-2,2.58-3.71,3.59-5.15,4.76-6.77,5.89-8.38,5.89-12.19A11.58,11.58,0,0,0,73.49,336.09Zm1.06,28.2a1.26,1.26,0,0,1-1.06.55,1.28,1.28,0,0,1-1.06-.55c-7.8-11.32-9.25-12.48-9.25-16.63a10.32,10.32,0,1,1,20.63,0C83.81,351.81,82.36,353,74.55,364.29Z"/><path class="a" d="M73.49,343.36a4.32,4.32,0,0,0-3,1.26,4.54,4.54,0,0,0-.92,1.36,4.42,4.42,0,0,0,0,3.35,4.54,4.54,0,0,0,.92,1.36,4.32,4.32,0,0,0,3,1.26,4.3,4.3,0,1,0,0-8.59Z"/><path class="b" d="M92.7,398.79a1.91,1.91,0,0,1-1.57-.82c-1.39-2-2.58-3.71-3.6-5.16-4.66-6.64-5.77-8.22-5.77-11.83a10.94,10.94,0,0,1,21.88,0c0,3.61-1.11,5.19-5.77,11.84-1,1.44-2.21,3.13-3.59,5.15A1.94,1.94,0,0,1,92.7,398.79Zm0-21.48A3.67,3.67,0,1,0,96.37,381,3.68,3.68,0,0,0,92.7,377.31Z"/><path class="a" d="M92.7,369.42A11.58,11.58,0,0,0,81.14,381c0,3.81,1.13,5.42,5.88,12.19,1,1.45,2.2,3.14,3.59,5.15a2.54,2.54,0,0,0,4.18,0c1.39-2,2.58-3.7,3.59-5.15,4.75-6.77,5.88-8.38,5.88-12.19A11.57,11.57,0,0,0,92.7,369.42Zm1.06,28.19a1.28,1.28,0,0,1-2.12,0c-7.8-11.31-9.25-12.47-9.25-16.63A10.31,10.31,0,0,1,103,381C103,385.14,101.56,386.3,93.76,397.61Z"/><path class="a" d="M92.7,376.68A4.22,4.22,0,0,0,91,377a4.28,4.28,0,0,0-2.29,2.29,4.27,4.27,0,0,0,0,3.34A4.28,4.28,0,0,0,91,384.94a4.22,4.22,0,0,0,1.67.34,4.3,4.3,0,1,0,0-8.6Z"/></svg>